<?xml version="1.0" encoding="UTF-8"?>
<svg id="Layer_2" data-name="Layer 2" xmlns="http://www.w3.org/2000/svg" viewBox="0 0 189.63 153.54">
  <defs>
    <style>
      .cls-1 {
        fill: #fff;
      }
    </style>
  </defs>
  <g id="Layer_1-2" data-name="Layer 1">
    <g>
      <g>
        <path class="cls-1" d="M111.54,151.04c-.21,0-.42-.03-.63-.08l-15.67-4.1c-.07-.02-.14-.04-.21-.06-21.79-7.77-44.2-13.81-65.87-19.65-.04-.01-23.59-7.67-23.59-7.67-1-.33-1.7-1.25-1.73-2.31l-1.34-46.9.14-26.44c0-.95.55-1.82,1.4-2.23,0,0,11.84-5.77,11.87-5.79l29.42-12.78,27.46-12.31,18.98-8.02c.31-.13.64-.2.97-.2.15,0,.29.01.44.04l6.99,1.25,21.26,3.66c.42.07.82.13,1.19.19,1.85.27,3.76.56,5.42,2.11,2.38,2.23,1.75,4.99,1.42,6.47-.07.3-.17.74-.18.94l4.91,15.34c4.56,14.27,11.69,26.43,19.55,33.35,8.68,7.64,18.38,14.59,29.66,21.23l2.27,1.34c.45.27,1.23.91,1.41,2.21.17,1.24-.32,3.41-1.21,4.36-.1.1-.2.19-.31.28l-20.6,15.59-32.33,24.49-19.57,15.16c-.44.34-.98.52-1.53.52Z"/>
        <path class="cls-1" d="M92.75,5l6.99,1.25,21.28,3.66c2.3.4,3.98.4,5.33,1.66,2.12,1.98,0,4.6.53,6.24l4.94,15.44c3.91,12.24,10.68,26.02,20.28,34.47,9.34,8.22,19.37,15.22,30.04,21.51l2.27,1.34c.54.32-.03,2.37-.35,2.71l-20.6,15.59-32.33,24.49-19.59,15.18-15.67-4.1c-21.82-7.78-43.69-13.68-66.06-19.71l-23.47-7.63-1.34-46.9.14-26.36,11.77-5.74,29.42-12.78,27.49-12.32,18.93-8M92.75,0c-.67,0-1.33.13-1.95.39l-18.93,8s-.07.03-.1.04l-27.46,12.31-29.39,12.77c-.07.03-.13.06-.2.09l-11.77,5.74c-1.71.83-2.8,2.57-2.81,4.47L0,70.17c0,.06,0,.11,0,.17l1.34,46.9c.06,2.11,1.44,3.96,3.45,4.61l23.47,7.63c.08.03.16.05.24.07,22.62,6.1,43.99,11.86,65.68,19.59.14.05.27.09.41.13l15.67,4.1c.42.11.84.16,1.27.16,1.1,0,2.18-.36,3.06-1.05l19.57-15.16,32.31-24.47,20.6-15.59c.22-.17.43-.36.62-.56,1.51-1.6,2.14-4.53,1.87-6.43-.24-1.71-1.19-3.17-2.61-4.01l-2.28-1.34c-11.14-6.57-20.72-13.42-29.28-20.96-7.53-6.63-14.39-18.38-18.82-32.24l-4.72-14.75c.02-.07.03-.14.05-.21.38-1.69,1.28-5.64-2.15-8.85-2.23-2.08-4.74-2.46-6.76-2.76-.36-.05-.73-.11-1.13-.18l-21.29-3.66-6.96-1.24c-.29-.05-.59-.08-.88-.08h0Z"/>
      </g>
      <g>
        <path d="M131.13,133.36l-19.58,15.17-15.67-4.1c-21.82-7.78-43.69-13.68-66.06-19.71l-23.46-7.63-1.34-46.89.14-26.37,11.78-5.73,29.42-12.78,27.49-12.32,18.93-8,6.99,1.25,21.29,3.66c2.3.4,3.98.4,5.32,1.66,2.12,1.98,0,4.6.53,6.24l4.94,15.44c3.91,12.23,10.68,26.01,20.28,34.46,9.34,8.22,19.37,15.22,30.04,21.51l2.28,1.34c.54.32-.03,2.36-.35,2.7l-20.59,15.6-32.34,24.49ZM38.84,49.64c14.2-6.11,27.19-13.38,41.02-20.03l35.87-17.25-22.28-4.09-12.4,5.1-32.65,14.63-36.5,15.88,26.93,5.76ZM46.61,54.84l22.38-11.35,53.75-26.93c.67-.33,1.73-1.62,1.35-2.1s-1.54-.98-2.5-1.27l-43.05,20.63-34.64,17.1,2.7,3.92ZM57.71,96.84c9.58,19.61,33.25,37.81,52.71,48.13l10.62-7.69,22.35-17.41,13.51-10.18,23.57-17.77c-13.93-8.03-33.01-21.08-40.97-33.99-5.08-8.23-8.68-17.01-11.69-26.19l-3.9-11.92-16.76,8.16c1.63,7.8,3.7,15.1,7.04,22.25,1.41,2.19,2.87,4.5,2.71,7.16-7.05-8.24-9.91-17.96-11.58-28.44l-33.86,16.87c3.31,14.7,8.46,28.78,16.77,41.56,1.1,1.7,1.98,3.2,2.12,5.4-10.95-12.1-17.45-29.61-20.89-45.77l-24.66,12.34c3.14,13.31,7.08,25.54,12.91,37.47ZM65,113.48c-12.93-14.33-18.66-34.95-23.49-53.17-3.7-.95-6.02-3.82-4.87-7.91l-28.43-5.9.09,24.27,1.21,43.84,21.99,7.2c21.71,5.64,42.5,11.75,64.44,18.9-11.56-8.49-21.89-16.39-30.94-27.24ZM42.94,54.87c0-.98-.8-1.78-1.78-1.78s-1.78.8-1.78,1.78.8,1.78,1.78,1.78,1.78-.8,1.78-1.78Z"/>
        <path d="M134.07,81.67c-4.2-1.54-7.98-5.66-9.13-10.59,3.45,2.82,6.42,6.26,9.13,10.59Z"/>
        <path d="M88.36,74.35c-2.98-.4-5.7-7.03-2.54-6.51l2.54,6.51Z"/>
        <path d="M16.63,103.32l1.44,3.84c.1.26-.04,1.08-.1,1.36s-1.3-.42-1.44-.75l-4.38-9.99,3.35-.49,2.14,4.93c2.76,3.33,6.85,6.62,5.79,11.81-3.84-3.91-3.49-9.2-6.8-10.7Z"/>
        <path d="M43.9,94.54l-.29-6.61c-.02-.4,1.08-1.84,1.36-1.53,1.69,1.84,1.05,5.6-1.07,8.13Z"/>
        <path d="M16.53,66.26c-2.54-.55-3.71-3.54-2.31-5.51,1.42,1.32,2.43,3.06,2.31,5.51Z"/>
        <path d="M18.32,61.45c-.96.38-2.57-2.4-1.92-3.22,1.42-1.2,3.73,2.01,1.92,3.22Z"/>
        <path d="M44.89,120.03c-1.1-.19-3.05-2.54-2.74-3.7,1.78-.89,3.68,1.71,2.74,3.7Z"/>
      </g>
    </g>
  </g>
</svg>