<?xml version="1.0" encoding="UTF-8"?>
<svg id="Layer_2" data-name="Layer 2" xmlns="http://www.w3.org/2000/svg" viewBox="0 0 161.5 177.43">
  <defs>
    <style>
      .cls-1 {
        fill: #fff;
      }
    </style>
  </defs>
  <g id="Layer_1-2" data-name="Layer 1">
    <g>
      <g>
        <path class="cls-1" d="M68.52,174.93c-1.88,0-6.43-.34-7.96-3.46-2.97-6.04-2.78-11.74-1.89-18.82-6.05-1.92-11.7-1.95-17.18-1.97-9.47-.05-18.42-.09-25.75-10.43l-8.34-4.66c-2.51-1.4-4.14-3.65-4.69-6.49-.74-3.78.53-8.42,3.25-11.82,2.5-3.13,4.07-7,5.88-11.48,2.26-5.58,4.79-11.84,9.82-18.39-2.66-2.78-5.09-5.42-5.84-8.11-1.26-4.57,1.46-11.12,4.64-13.71,4.19-3.42,5.96-7.47,8-12.16.53-1.21,1.06-2.44,1.66-3.7.46-.97.96-1.88,1.43-2.76,1.35-2.47,2.51-4.59,2.33-7.17-.47-7.05,4.17-12.64,11.17-13.7C56.83,11.09,74.29,2.5,93.14,2.5c10.07,0,20.11,2.59,29.05,7.48,24.19,13.24,38.57,38.59,36.63,64.59-1.96,26.28-18.64,44.32-32.3,54.83-4.12,3.17-5.44,8.43-6.85,14.01-.34,1.33-.67,2.67-1.05,3.98-.88,3.06-3.81,6.71-12.83,6.71-6.35,0-15.25-1.85-24.05-4.97-6.2,4.97-6.27,14.33-5.18,21.48.12.82-.17,1.66-.78,2.22-2.13,1.95-6.1,2.11-7.27,2.11Z"/>
        <path class="cls-1" d="M93.14,5c9.44,0,18.99,2.32,27.85,7.17,22.68,12.41,37.28,36.16,35.34,62.21-1.63,21.92-14.37,39.98-31.33,53.03-5.88,4.53-6.76,12.24-8.78,19.28-1.02,3.56-5.09,4.9-10.42,4.9-7.31,0-16.99-2.51-24.45-5.27-7.85,5.19-8.66,15.49-7.26,24.66-1.02.93-3.31,1.45-5.58,1.45-2.52,0-5.02-.64-5.72-2.07-2.99-6.08-2.39-12.07-1.39-19.41-18.21-6.89-32.97,3.48-43.95-12.62l-8.85-4.94c-5.45-3.04-3.95-10.51-.71-14.56,6.28-7.85,6.93-19.39,17.07-31.58-2.81-2.96-6.04-6.08-6.75-8.63-.95-3.42,1.21-8.99,3.81-11.1,5.8-4.73,7.36-10.41,10.34-16.74,1.75-3.72,4.3-6.8,4-11.17-.43-6.36,3.96-10.7,10.01-11.16,11.49-15.17,28.91-23.47,46.75-23.47M93.14,0h0c-19.31,0-37.22,8.65-49.46,23.81-7.77,1.61-12.84,8.08-12.3,16.16.12,1.77-.65,3.28-2.03,5.81-.5.91-1.01,1.85-1.5,2.89-.61,1.31-1.16,2.56-1.69,3.77-1.99,4.57-3.57,8.19-7.29,11.22-3.85,3.13-7.05,10.6-5.47,16.31.75,2.72,2.7,5.17,4.99,7.64-4.4,6.17-6.76,12.01-8.89,17.25-1.74,4.3-3.24,8.01-5.52,10.86-3.15,3.94-4.62,9.38-3.74,13.86.69,3.53,2.8,6.44,5.93,8.19l7.86,4.39c8.01,10.93,17.88,10.98,27.44,11.02,4.67.02,9.47.05,14.47,1.3-.68,6.42-.56,12.13,2.37,18.09,1.52,3.09,5.24,4.86,10.21,4.86,1.79,0,6.23-.27,8.96-2.76,1.23-1.13,1.82-2.79,1.57-4.44-.92-6.05-.99-13.81,3.3-18.26,5.22,1.75,15.04,4.62,23.46,4.62,10.57,0,14.12-4.64,15.23-8.52.39-1.37.74-2.74,1.07-4.06,1.35-5.36,2.52-10,5.95-12.64,14.06-10.82,31.24-29.42,33.26-56.62,1.01-13.59-2.13-27.11-9.1-39.1-6.74-11.59-16.7-21.23-28.82-27.86-9.3-5.09-19.76-7.78-30.25-7.78h0Z"/>
      </g>
      <g>
        <path d="M120.99,12.17C95.37-1.85,63.96,5.27,46.39,28.47c-6.06.47-10.44,4.81-10.01,11.16.3,4.37-2.25,7.45-4,11.17-2.98,6.33-4.55,12.01-10.34,16.74-2.6,2.11-4.75,7.68-3.81,11.1.71,2.55,3.94,5.67,6.75,8.63-10.14,12.19-10.8,23.72-17.07,31.58-3.24,4.05-4.74,11.52.71,14.56l8.85,4.94c10.98,16.1,25.74,5.72,43.95,12.62-1,7.34-1.6,13.32,1.38,19.4,1.33,2.71,9.16,2.58,11.3.62-1.4-9.17-.59-19.47,7.26-24.66,12.9,4.76,32.45,8.81,34.87.37,2.01-7.04,2.9-14.76,8.78-19.28,16.96-13.06,29.7-31.12,31.33-53.03,1.94-26.05-12.66-49.79-35.34-62.21ZM101.52,10.79c7.41-1.49,15.37,3.64,21.93,7.55.66.39.47,1.39-.29,1.52-17.86,3.14-29.75,14.85-39.22,31.47l-16.32-10.08c6.72-13.78,18.06-27.28,33.9-30.46ZM62.22,18.48l2.54-1.54c.36-.22.81.1.72.52l-.92,4.12c-.09.4-.6.51-.85.19-.91-1.15-2.1-2.91-1.49-3.29ZM59.69,20.07l4.29,9.39c.28.61,1.17.54,1.36-.1l4.2-14.81c.07-.25.25-.45.49-.54,6.68-2.68,12.8-4.31,19.95-4.58.84-.03,1.18,1.08.46,1.53-11.26,6.99-20.02,16.32-25.75,28.38l-14.24-10.29,9.25-8.96ZM39.99,38.95l4.17.44-.45,4.29-4.17-.44.45-4.29ZM32.2,82.09l-3.69,3.83-6.11-8.24c-1.64-2.22,2.07-7.8,4.11-9.52,10.44-8.74,6.48-19.09,15.76-21.7,2.6-.73,6.57,1.15,10.18,2.49l-5.49-7.08c12.74,9.65,25.16,18.43,39.82,25.89l12.94,8.05c.29.18.35.57.13.83h0c-.27.32-.65.54-1.07.61l-2.5.43c-.99.17-1.05,3.19-.59,4.19,6.18,13.33-11.32,15.94-4.74,25.26-2.04,6.78-14.72,10.84-19.98,4.41l-7.79-9.52c-.48-.59-3.35-1.24-4.16-.88s-1.01,1.56-1.01,1.56c-.5.77-.13,1.8.73,2.09l3.92,1.32c1.12.38,1.9,3.25,1.11,4.46-2.21,3.43-8.68,5.72-13.22,2.24l-6.23-4.78c-.59-.45-3.17-.44-3.62-1.01l-2.37-3.06-6.35-4.14-7.61-5.23c4.41-4.78,6.09-6.91,7.81-12.53ZM100.15,85c-.52-2.25-.81-4.5-.86-6.15-.02-.56.27-1.08.75-1.36l.59-.35c.22-.13.51-.1.69.09,2.67,2.88,4.87,7.39,3.1,12.04-5.94,15.58-13.06,17.19-11.83,13.89,2.06-5.59,9.6-9.4,7.57-18.15ZM87.61,116.08l-5.42,14.14c-2.02-4.47-.24-11.19,5.42-14.14ZM48.95,119.7c-.15.49-.68.75-1.17.57-1.49-.56-3.57-2.13-2.89-2.71l3.22-2.75c.58-.5,1.48-.07,1.46.7-.03,1.33-.26,2.97-.63,4.19ZM25.09,106.37l3.93-4.05c.6-.62,1.63-.11,1.51.74l-.81,5.8c-.09.62-.77.96-1.31.65l-3.12-1.75c-.51-.28-.61-.97-.2-1.39ZM26.66,113.12l-3.27,2.42c-.59.44-1.43,0-1.41-.74.04-1.73.66-3.86,1.81-4.42.78-.39,3.57,2.22,2.87,2.74ZM30.37,114.33l2.47,1.63c.52.34.53,1.1.03,1.46l-3.67,2.63c-.68.49-1.6-.15-1.37-.96l1.2-4.26c.16-.58.84-.83,1.34-.5ZM31.6,109.64l3.48-3.17c.61-.55,1.57-.05,1.48.76l-.63,5.29c-.08.63-.76.97-1.32.67-2.04-1.12-3.73-2.88-3.01-3.55ZM36.51,117.98l3.4,1.85c.71.39-1,2.23-2.82,3.98-.35.34-.91.32-1.25-.03l-1.3-1.34c-.24-.25-.31-.62-.19-.94.78-1.98,1.41-3.93,2.16-3.53ZM38.17,114.44c.7-1.44,1.45-2.36,3.34-3.8.61-.47,1.48.01,1.42.78l-.39,4.7c-.04.51-.51.89-1.01.8-1.51-.25-3.8-1.56-3.36-2.48ZM43.75,121.73c.49-.73,3.71,1.02,3.26,1.77l-2.24,3.74c-.26.44-.84.56-1.26.28l-1.79-1.22c-.4-.27-.51-.83-.24-1.23l2.26-3.34ZM51.65,127.81c-.38.09-.76.17-1.11.25-.59.13-1.14-.35-1.08-.95.29-3,2.51-2.21,2.87-.33.09.46-.21.92-.68,1.02ZM52.4,118.91l2.31-1.36c.67-.4,1.5.2,1.32.96-.46,1.92-1.23,3.41-2.47,4.22-.74.49-1.89-3.39-1.16-3.82ZM19.72,103.02l1.75-3.43c.34-.66,2.64-1.17,3.38-1.19.73-.01.27,2.03.07,2.91l-2.17,3.87c-.42.76-3.42-1.38-3.03-2.16ZM19.25,106.47l1.29.88c.4.28.51.83.23,1.23l-1.85,2.71c-.28.4-.83.51-1.23.23l-1.29-.88c-.4-.28-.51-.83-.23-1.23l1.85-2.71c.28-.4.83-.51,1.23-.23ZM62.46,147.03c-15.62-5.63-32.37-.01-36.11-5.7-3.67-5.59-6.72-9.48-11.84-13.99l.73,4.92c-3.17-.21-7.92-4.64-5.94-7.91l6.02-9.94,5.1,3.6,6.49,4.57c.66.47,2.74.33,3.48.65.92.41,2.2,2.24,2.96,3.08l8.05,2.78,12.41,3.9-5.28,2.18c-.31.13-.31.57,0,.69,3.89,1.56,8.09.69,11.3-1.75,7.86-5.97,10-13.12,13.25-15.1,1.54-.93,3.31.86,2.41,2.42l-4.83,8.37c-.44.76.5,1.56,1.19,1.02.62-.49,1.18-1,1.73-1.55,1.6-1.61,4.1.71,2.59,2.4-2.96,3.33-9.01,7.09-13.71,15.36ZM68.03,169.13c-.95-.17-3.37-.98-3.09-1.91l.93-3.05c.19-.63.98-.85,1.47-.4l3.02,2.77c.5.46-1.61,2.71-2.33,2.59ZM68.33,160.8l-2.73-.81c-.85-.25-1.41-1.04-1.4-1.92.18-12.31,13.71-24.86,16.66-23.35,8.64,4.4-8.92,8.33-10.57,24.75-.1.96-1.04,1.6-1.97,1.33ZM84.72,144.07c-.52-.15-.74-.75-.45-1.21.46-.73,1.06-1.54,1.46-1.35l2.98,1.43c7.28,3.51,14.22,2.75,22.73.78,1.1-.25,1.89,1.07,1.13,1.9-4.25,4.64-17.31,1.54-27.85-1.56ZM89.66,138.23c-4.86-3.61-3.4-12.03-.52-16.35l16.22-24.39c3.1-4.67,4.33-11.58,2.65-17.12-1.31-4.32-5.99-8.73-10.96-11.47-13.84-7.61-27.61-14.54-39.89-24.39-5.32-4.27-10.03-7.66-16.21-9.78,2.6-2.56,7.29-3.18,10.41-.88,16.23,11.98,32.78,21.72,50.16,31.74,5.93,3.42,10.56,9.28,11.86,14.39,1.86,7.31-.57,14.03-4.54,19.92l-15.8,23.45c-1.19,1.77-.95,7.2-.03,9.09,3.01,6.22,11.82,4.92,21.15,2.6.73-.18,1.27.7.76,1.25-5.85,6.32-18.01,7.29-25.24,1.94ZM115.07,130.15c-6.12,4.18-17.5,4.57-19.33.03-.53-1.31-.24-4.84.57-6.03l15.39-22.57c8.43-12.35,7.38-27.23-4.87-36.34l-19.81-12.35c8.35-16.38,24.97-31.65,42.39-28.7,11.08,5.75,17.34,18.61,21.27,31.04-8.9-6.18-17.66-12.73-29.56-13.03-.92-.02-1.56.9-1.23,1.76l1.32,3.52c.26.68-.28,1.39-1,1.34-5.89-.46-12.17-.21-17.91,3.43-.77.49-.52,1.68.39,1.82,15.52,2.33,32.51,8.17,27.58,18.65-.23.5-.94.49-1.18,0-1.31-2.82-2.1-4.58-3.59-6.66-.36-.5-1.15-.16-1.04.45l2.07,10.88c.23,1.2,1.65,1.74,2.61.99l6.08-4.73c2,4.32-.32,9.41-3.07,14.26l-6.9,12.19c5.18,4.32,7.45,6.36,11.32,11.42-7.32,7.35-13.28,13.05-21.47,18.64ZM138.54,108.6c-2.87-3.69-5.52-6.45-9.21-9.58l8.82-15.51c.74-1.3,1.14-2.77,1.15-4.26.03-3.57-.66-6.19-3.03-7.96-1.08-.8-1.94-1.88-2.4-3.14-3.17-8.67-11.25-12.57-20.05-15.05-.48-.14-.41-.84.09-.87l10.83-.68c.62-.04,1.05-.63.9-1.24l-.85-3.32c-.19-.76.52-1.43,1.27-1.19,9.15,2.98,19.42,7.64,25.52,15.52,3.86,16.76-3.09,34.24-13.04,47.27Z"/>
        <path d="M114.02,125.69c-2.41.93-5.91.35-6.73-1.01s-1.15-4.84-.7-6.89c1.31-5.99,9.78-12.54,14.59-7.33,4.12,4.47-1.63,13.08-7.16,15.22ZM111.42,122.52c4.46-.03,8.17-3.64,8.59-7.64.06-.61-.76-.86-1.05-.32-1.83,3.43-4.46,5.63-7.73,6.87-.59.22-.43,1.09.2,1.09Z"/>
        <path d="M51.58,73.09c4.66-3.23,3.5,24.75-5.06,25.49-1.32.11-4.24-2.11-3.9-3.38l.8-2.94c.25-.93-.78-1.68-1.59-1.15l-3.36,2.19c-.44.29-1.04.21-1.37-.2-1.54-1.88-3.11-5.3-2.51-7.3.68-2.25,2.71-4.77,4.88-7.09.5-.53.32-1.39-.34-1.68l-4.68-2.06c-2.38-1.05-3.3-5.24-2.39-7.27l5.7-12.68c1.85-4.11,6.66-5.13,10.89-4.09,3.71.91,7.53,3.97,7.64,8.41l.11,4.28c.01.5.6.83,1.53,1.24.78.34.86,1.41.14,1.86l-6.93,4.29c-.08.05-.15.1-.21.17l-12.77,13.46c-.28.29-.36.71-.22,1.09h0c.28.75,1.26.93,1.78.32l8.7-10.17c.66-.78,2.32-2.19,3.14-2.76ZM38.35,61.31c-.42,1.21,1.28,1.98,1.9.86.07-.12.14-.25.21-.37l3.53-6.2c.54-.96-.55-1.99-1.48-1.4-1.22.77-2.32,1.8-2.62,2.69l-1.53,4.42Z"/>
        <path d="M65.21,75.87c-1.18,2.35-2.09,4.73-2.25,7.04-.12,1.72,2.46,1.95,2.68.23.5-3.93,1.88-7.52,4.56-10.77.77-.93.04-2.33-1.16-2.2l-.95.1c-1.31.13-2.01-1.5-1.01-2.36,1.55-1.33,3.29-2.3,4.69-2.37,8.95-.45,18.3,11.12,18.64,20.42.22,5.97-4.1,11.36-8.13,13.29-5.75,2.75-11.32.41-15.96-3.4-4.13-3.39-6.88-7.54-6.52-12.77.2-2.99,1.14-6.6,3.28-8.78,1.07-1.1,2.85.19,2.16,1.56Z"/>
        <path d="M138.83,98.68l8.12-25.84c.16-.52.92-.45.99.09,1.16,8.94-.8,19.19-8.28,26.27-.38.36-1-.02-.84-.52Z"/>
        <path d="M76.84,41.39l-.67-9.19c-.04-.61.34-1.17.92-1.34l7.3-2.22c.76-.23,1.55.26,1.67,1.04l1.32,8.33c.1.61-.24,1.2-.82,1.42l-7.95,3.08c-.82.32-1.71-.25-1.77-1.12ZM82.61,32.14c-1.48.86-3.21,2.8-3.29,3.84-.06.78,1.61,2.32,2.37,2.11,1.01-.27,2.4-1.75,2.56-2.79.11-.77-.99-3.54-1.64-3.17Z"/>
      </g>
    </g>
  </g>
</svg>