<?xml version="1.0" encoding="UTF-8"?>
<svg id="Layer_2" data-name="Layer 2" xmlns="http://www.w3.org/2000/svg" viewBox="0 0 539.37 165.21">
  <defs>
    <style>
      .cls-1 {
        fill: #010101;
      }
    </style>
  </defs>
  <g id="Layer_1-2" data-name="Layer 1">
    <g>
      <g>
        <g>
          <path class="cls-1" d="M30.1,85.89L.04,90.67l-.04-17.95,79.73-12.68.04,17.95-29.8,4.74v75.85s-19.87,3.16-19.87,3.16v-75.85Z"/>
          <path class="cls-1" d="M87.72,58.77l48.23-7.67c16.47-2.62,30.03,1.79,30,17.61l-.06,5.5c.04,8.7-5.91,16.75-15.9,19.68l.17,1.05c12.69-.28,18.36,5.92,18.37,16.11l.08,6.42c-.02,17.56-15.11,24.65-31.45,27.24l-49.27,7.83-.17-93.78ZM137.84,127.05c6.67-1.06,9.96-5.6,9.9-11.09l-.07-2.94c-.05-5.35-3.17-9.01-9.97-7.93l-30.06,4.78.14,21.95,30.06-4.78ZM135.49,89.5c6.8-1.08,9.85-5.45,9.85-10.54l.07-2.96c.06-5.5-3.2-8.34-9.87-7.28l-27.97,4.45.08,20.76,27.84-4.43Z"/>
          <path class="cls-1" d="M173.56,94.84l-.11-5.74c.04-31.77,17.75-48.52,43.1-52.55s39.97,5.3,41.82,28.73l-20,3.18-.09-2.26c-.71-9.53-6.38-13.99-21.02-11.67-15.81,2.51-22.82,11.54-22.84,28.29l-.13,11.81c-.02,16.75,7.96,23.93,22.6,21.6,15.42-2.45,22.5-8.53,23.47-22.63l-23.39,3.72-.02-15.27,41.69-6.63.17,49.96-13.07,2.08-3.89-11.84-.91.15c-4.01,10.15-12.04,16.12-26.68,18.45-20.52,3.26-40.68-7.2-40.7-39.36Z"/>
        </g>
        <g>
          <path class="cls-1" d="M324.37,124.46l-19.15.1c-17.26.2-25.25-9.65-25.57-22.6l-.02-3.48c-.4-16.02,11.67-26.91,35.45-30.7,25.62-4.07,37.85,3.76,39.31,24.71l-19.21,3.05-.22-2.24c-.53-7.55-5.88-10.86-17.9-8.95-13.07,2.08-17.85,6.59-17.78,12.07l-.08,2.02c-.02,5.77,3.4,7.9,11.32,7.98l20.48-.17c17.39-.22,25.92,7.94,25.93,21.47l.05,4.55c-.17,16.64-11.11,27.9-35.94,31.85-27.58,4.39-41.04-4.46-42.6-26.06l19.6-3.12.22,2.24c.71,9.53,7.57,12.2,20.77,10.1,13.07-2.08,18.06-6.09,18.13-12.4l.08-2.02c-.13-5.88-3.37-8.58-12.86-8.41Z"/>
          <path class="cls-1" d="M365.93,61.43l48.23-7.67c16.47-2.62,30.03,1.79,30,17.61l-.06,5.5c.04,8.7-5.91,16.75-15.9,19.68l.17,1.05c12.69-.28,18.36,5.92,18.37,16.11l.08,6.42c-.02,17.56-15.11,24.65-31.45,27.24l-49.27,7.83-.17-93.78ZM416.05,129.71c6.67-1.06,9.96-5.6,9.9-11.09l-.07-2.94c-.05-5.35-3.17-9.01-9.97-7.93l-30.06,4.78.14,21.95,30.06-4.78ZM413.69,92.16c6.8-1.08,9.85-5.45,9.85-10.54l.07-2.96c.06-5.5-3.2-8.34-9.87-7.28l-27.97,4.45.08,20.76,27.84-4.43Z"/>
          <path class="cls-1" d="M490.79,95.18l-1.05.17-15.03,19.27.09,23.3-19.87,3.16-.17-93.78,19.87-3.16.05,42.47,1.05-.17,37.33-48.41,24.44-3.89-33.95,44.39.17,1.05,35.65,48.07-21.83,3.47-26.75-35.95Z"/>
        </g>
      </g>
      <path d="M261.56,35.94c-1.2-.08-4.87-1.96-5.72-2.37-1.27-.61.37-6.57,1.78-6.62l23.68-.76,2.14-21.47c.11-1.06,2.38-3.84,3.17-4.55,1.18-1.06,5.04,3.01,5.09,4.68l.65,21.74,22.76,1.74c1.12.09,4.03,3.27,4.64,4.21.82,1.25-3.08,3.91-4.79,3.96l-23.17.75-1.27,22.06c-.07,1.22-1.97,4.76-2.63,5.85s-6.23-.6-6.27-1.87l-.77-26.03-19.29-1.31Z"/>
    </g>
  </g>
</svg>