<?xml version="1.0" encoding="UTF-8"?>
<svg id="Layer_2" data-name="Layer 2" xmlns="http://www.w3.org/2000/svg" viewBox="0 0 733.76 727.37">
  <defs>
    <style>
      .cls-1 {
        fill: #fff;
      }

      .cls-2 {
        fill: #fdb714;
      }
    </style>
  </defs>
  <g id="Layer_1-2" data-name="Layer 1">
    <g>
      <g>
        <g>
          <path class="cls-2" d="M298.79,298.2l-.19-5.64-.18-5.64-.91-5.3-2.13-4.93-3.61-3.95-4.11-3.32-4.58-2.65-5.03-1.65-5.36-1.54-5.59.08-5.32,1.63-4.95,2.29-4.38,3.3-2.87,4.72-2.51,4.61-1.6,5.03-2.7,4.53-1.91,4.86-2.08,4.79-2.46,4.63-1.59,4.99-1.17,5.21.55,5.45,2.82,4.67,3.69,3.98,6.23,2.57,6.18,2.66.92,4.32-3.7,4.34-3.37,4.6-3.24,4.65-2.8,5,.42,5.22.93,5.18,2.88,4.42,2.91,4.27,3.23.57,4.34-3.01,4.47-2.82,4.45,3.32-2.5,7.63,2.29,4.27,3.66,3.23,4.57,1.2,5.21-1.73,4.26-3.69,2.84-4.9,2.5-5.09,1.74-5.39,1.35-5.5,1.07-5.56,1.15-5.56-.23-5.69.89-5.62-.3-5.66-1.1-5.55-1.47-5.41-4.4-1.19-4.24,3.45-4.35,3.43-3.41,4.83-3.81,4.48-4.02,4.3-3.67,4.57-4.23,4.1-3.81,4.46-4.45-.69.21-.07.39-2.72,3.54-4.14,3.84-3.86,3.66-4.01,3.71-3.96,4.02-3.66,3.81-3.85,3.48-4.17,3.65-4.01,3.71-3.94.54-.54,4.51-2.92,4.82-2.41,4.55-2.84,4.41-3.04-.19-4.98-3.88-3.04ZM263.07,282.77l-3.7,5.1-2.97,5.5-.17,1.19-3.77,1.07-1.76-3.56,2.43-5.67,1.96-5.83,2.87-4.04,3.98-3.07,3.59,3.51-2.46,5.8Z"/>
          <polygon class="cls-2" points="361.27 394.15 366.47 391.84 371.2 389.3 375.31 385.82 379.18 382.03 382.2 377.54 384.89 372.85 386.64 367.73 387.45 362.41 388.19 357.05 387.29 351.46 386.02 345.97 384.13 340.66 381.75 335.55 379.26 330.48 375.96 325.9 372.75 321.23 368.84 317.14 364.47 313.56 360 310.15 355.27 307.06 350.06 304.87 344.52 303.81 338.91 303.1 334.45 304.53 330.32 306.71 326.63 309.59 325.84 313.54 329.27 315.85 331.79 315.7 335.03 317.48 334.96 321.42 331.64 325.42 329 329.91 326.8 334.61 324.92 339.46 323.67 344.51 322.65 349.62 318.95 352.95 315.71 349.03 316.44 344.18 317.59 339.4 319.53 334.88 321.73 330.5 320.71 325.87 316.06 326.42 313.05 330.41 310.46 334.74 308.79 339.52 307.98 344.5 307.23 349.48 307.47 355.1 308.67 360.57 310.17 365.99 313.2 370.75 316.69 375.12 320.21 379.52 324.46 383.22 329.04 386.62 333.85 389.68 338.96 392.22 344.39 393.93 349.93 395.31 355.62 394.81 361.27 394.15"/>
          <path class="cls-2" d="M561.53,315.52l-.45-5.5,1.12-5.06.12-.53-.18-.45-1.95-4.92.98-5.43.04-.24-.85-5.48-.03-.06-2.35-5.13-1.07-5.39.35-4.14.14-1.7-.95-1.3-2.54-3.45-.89-5.51-.44-3.07-.36-2.54-1.11-1.39-2.51-3.13-1.32-5.45-2.95-4.72-1-3.69-.48-1.79-1.06-1.07-2.97-3.02-2.91-4.68-3.2-4.49-3.27-4.43-2.74-4.82-4.11-3.77-3.24-4.46-3.55-4.21-3.57-4.21-4.44-3.35-3.39-4.45-4.88-2.79-3.62-4.26-4.93-2.63-3.69-4.3-5.14-2.25-4.21-3.64-4.24-3.6-.03-.03h-.02l-5.67-1.17-4.34-3.48-4.22-2.83-.39-.26-4.84-2.69-1.43.05-4.56.17-4.02-3.37-.46-.38h-.65s-5.13.12-5.13.12l-5.1-2.03-3.71-1.96-1.3-.69-1.28.13-4.43.43-5.47-.34-5.32-1.37-5.39-1.16-4.69-.68-.77-.11-.47.07-5.03.71-5.45.85-5.43.41-5.51-.32-5.29,1.62-5.59-.31-5.43.83-4.98,2.66-5.59.29-3.98.86-1.41.31-5.24,1.7-5.25,1.72-4.8,2.78-.25.21-4.06,3.45-4.65,2.83-4.22.51-1.69.21-4.68,2.91-4.36,3.4-1.37,1.38-2.55,2.56-2.96,1.59-1.94,1.05-4.54,3.17-.87,1.96-1.56,3.54-3.68,1.38-1.91.71-3.46,4.32-3.45,4.29-.07.15-2.42,4.9-3.75,2.68-.7.5h-.01l-5.05,1.88-4.93.55-.7.08-1.1.77-3.51,2.44-3.37,4.39-3.89,3.84-1.26,5.33-2,5.08-.04,5.49-.15.58-1.18,4.59-.08,4.44v.87s-1.79,5-1.79,5l-2.25,4.8-1.79,1.96h0s-1.87,2.07-1.87,2.07l-1.91,4.98-.07.46-.76,4.92-2,4.84-2.31,4.71-3.12,4.35-1.31,2.15-1.42,2.32-.31.96h-.01s-1.34,4.14-1.34,4.14l-2.94,4.39-2.47,1.64-2.11,1.39-1.05,2.21-1.3,2.76-3.95,3.52-3.61,3.71-3.23,3.7-.33.37-.1.47-.99,4.87-2.09,4.92-.49,1.56-1.16,3.72.94,1.96,1.5,3.1.66,3.73.37,2.09,3.23,3.14,1.01.99,4.18,4.02,3.83,4.36,1.9,2.63,1.43,1.98.04.05-3.19,4.46-2.82,4.84-3.77,4.18-.56.59-3.41,3.54-2.23,5.19-.78,2.31-1.03,3.06-2.84,4.83-1.35,5.51-2.09,5.16-2.15,5.15-2.14,2.19-2.07,2.12-.16,3.34-.12,2.58-2.98,4.7-.05.07-2.87,4.79-.85,2.91-.75,2.54-2.12,2.44-1.58,1.82-1.76,3.08-1.01,1.77-1.28,1.25-2.74,2.68-.55,3.07-.46,2.52-1.97,4.59-.19.43v5.46s-.38,4.34-.38,4.34l-.1,1.12.45.74,2.38,3.95,2.54,4.61,4.63,2.55,4.6,2.7,4.78,2.34,1.76,2.32,1.76,2.33,4.3,1.06,1.07.26.81.79,3.07,2.97,3.19,4.08,2.04,1.12,3.05,1.67,3.09,4.54.62.6,3.35,3.2,4.54,3.12,5.23,1.77,4.86,2.73,5.33,1.52,3.22-.71,2.51-.56,2.41,1.18,2.8,1.38,3.1-.95,2.45-.75,2.13.92,3.26,1.41,3.17-1.31,2.28-.95,2.61.97,2.82,1.06,4.88-.97.58-.12.84.15,4.58.8,4.21-.42,1.27-.12,1.55.34,3.81.83,5.26,1.48,3.32-.69,2.44-.5,1.9,1.39,2.87,2.1,3.32-.51,2.62-.4,3.88,2.53.79.52.08,1.02.34,4.21-1.23,2.78-.98,2.2-.89,5.17-.02,5.25.22,5.24-.25,5.28,1.46,2.89,1.02,2.03,1.23,4.97-.18,2.24-.28,3.39,2.96,3.47.6.7,1.49,2.21,1.66,2.46,5.56.74,4.93.18.45.02h.04s5.18-1.43,5.18-1.43l4.27.41,1.26.12,5.1-2.76-.53-1.36-1.64-4.15.71-4.04.28-1.59-.48-1.41-1.37-4.03.11-5.56,1.47-5.45.13-.6,1-4.77.29-3.16.22-2.35,1.95-5.16,1.54-5.35,3.12-4.61,2.8-4.88,4.26-3.65,4.59-3.94,2.94,1.86,2.2,1.39,5.23,1.66,5.14,1.95,5.36,1.24,2.41.13,3.18.16,5.24,1.57,1.23.66,3.8,2.05,5.55.32,5.48.51,5.32,1.89,3.38-.97,2.28-.65,4.27,1,1.15.27,5.5-.14,5.48-.58,5.51-.87,4.81-2.85,4.9-3.06,2.8-5.21-.38-2.46-.57-3.7,1.72-5.43,2.37-5.27,1.58-5.46.82-5.73,1.68-5.54,3.59-3.93.43-.47.44-1.09,1.73-4.29,2.28-1.55,2.59-1.76,2.65-3.58.77-1.04,1.12-.46,4.07-1.68,1.64-2.86,1.23-2.15,3.36-1.7,1.59-.8,1.27-1.69,2.04-2.7,4.26-3.32,3.51-4.12,3-1.97,1.61-1.05,3.58-4.05.48-.87,2.19-3.98,3.85-2.86.58-.43.61-.98,2.25-3.65,3.09-4.41,2.37-1.77,2.14-1.6,1.28-3.17.8-1.96,1.79-1.86,2.02-2.1,1.1-2.76.93-2.34,1.45-1.6,2.25-2.49,2.25-4.94.52-1.66,1.12-3.55,1.89-2.54,1.39-1.88.1-1.38.31-4.31,3.01-3.66.59-.71,1.48-4.89.09-.26v-.02l.09-.23,1.91-4.81.5-2.71.48-2.63.97-5.31,1.23-2.36,1.36-2.6.42-5.43-.07-.51h0s-.7-5.06-.7-5.06l1.58-5.22-.09-5.41,1.43-5.45-.71-5.55ZM413.84,365.16l.46-5.29-.36-5.39-1.71-5.23.41-5.57-.97-5.34,1.14-4.47,2.39.49,1.6-.37,4.45,3.91,1.98,5.6,1.67,5.48,2.61,5.41-.9,5.87-2.05,5.4-2.14,5.23-1.84,5.36-2.3,5.19-3.31,4.63-1.62,5.7-5.13,3.27-3.46,4.36-3.22,4.91-5.45,2.52-2.77-4.65,2.47-4.84,3.96-3.79,1.79-5.38,3.09-4.37,4.17-3.6,2.86-4.58,2.32-4.95-.14-5.51ZM255.33,233.36l5.61-.69,4.39,2.6.79,4.93-.91,5.73-5.61-.59-5.6-.6,1.91-5.62-.58-5.76ZM217.6,375.3l4.72-3.36,3.12-4.72,1.74-5.51,3.04-4.62,2.8-4.88,1.42-6-2.23,4.65-3.5,3.12-3.74,3.75-3.22-5-2.36-4.96-4.77-3.19-3.35-4.25-1.98-5.27v-5.13l.92-5.5,2.37-5.25,2.62-5.29,5.05-3.14,3.48-4.51,3.83-4.06,3.81-4.15,1.91-5.38,3.05-4.67,3.22-4.73.31-5.87,3.53-4.67,1.82-5.28,1.62-5.61,4.38-3.83,4.49-3.59,5.35-2.16,5.9-.36,5.41,1.88,5.47,1.38,5.51,1.31,3.93,3.61-3.02-4.85-3.86-4.47-2.09-5.56,4.52,1.78,3.56,4.34,3.98,3.8,5.7,1.44,4.53,3.01,3.14,4.97,4.99,2.38,5.19,2.06,3.69,4.24,5.2,2.01,3.46,4.62,5.58,1.4,4.35,3.29,4.13,3.66,5.07,2.12,4.24,3.5,4.86,2.46,4.53,3.05,5.03,2.17,4.27,3.55,5.3,1.64,4.99,2.25,4.76,3.19,5.28,2.34,3.75,4.82,5.82,1.47,4.58,3.49,4.75,3.25,4.37,3.84.76,1.08.82.7-3.3,1.94-6.52,1.45-2.58,3.95.72,5.93,1.15,5.53,2.66,5.14-1.53,5.6.13,5.61-3.07,4.72-2.75,4.78-2.09,5.49-4.82,3.4-2.79,5.03-3.02,4.93.77,5.78.52,5.39,1.56,5.24-1.42,4.49-2.56,4.73-5.16,2.04-4.29,2.75-4.58,2.32-4.95,1.37-5.01,1.1-5.13.33-5.18-.21-5.28-.79-4.29-3.16-3.36-3.96-4.39-3.37-1.91-5.41-5.04-2.83-3.08-4.46-2.37-5.04-4.53-3.28-4.92-2.45-6.17-1.25-3.36,4.79,3.5,4.82,5.11,1.88,5.19,1.63,2.9,6.47-.83,6.05-3.42,4.24-4.4,3.4-5.25,1.91-5.55-.12-5.58,1.75-5.53-1.54-3.76-4.47-5.51-1.29-3.13-4.39-5.04-1.93-2.97-4.63-5.2-1.43-5.45-.07-1.51-5.27-4.17-3.19-3.62-3.54-4.6-2.06-4.26-2.61-4.62-2.07-3.97-4.95-4.9-3.59-5.19-3.2-5.31-2.85,3.11-4.37ZM298.74,443.01l-3.29,5.99-5.13,3.78-2.57-3.32.79-4.72,6.13-3.5,4.07,1.77ZM216.14,415.32l.61-3.92,3.26-3.73,3.74-3.28,2.64-4.34,3.52,1.92-.21,5.15-.55,5.12.44,5.25-4.2.57-4.75-1.14-4.5-1.6ZM219.59,427.68l-3.08,4.82-5.66,1.34-3.06-.89.33-6.71,4.68-4.64,4.78,2.32,2.01,3.76ZM224.37,438.49l3.09-5.17,2.13-.99,6.97,3.57v3.93s-4.16,4.4-4.16,4.4l-5.14,3.02-4.25-3.1,1.36-5.66ZM235.61,425.04l-2.92-6.23,5.31-3.37,3.57-5.28,4.87,2.92.35,4.74-1.85,4.49-1.02,4.59-2.56,1.44-5.75-3.3ZM241.32,450.95l.41-6.1,3.9-2.59,4.41,2.55,4.44,2.48-2.87,3.83-4.69,4.8-3.42,1.54-3.39-3.56,1.21-2.95ZM253.24,437.45l-1.82-4.99,1.87-6.89,5.36-4.44,5.46,3.02-1.79,6.08-.25,6.21-2.65,1.83-6.18-.82ZM261.78,455.25l4.18-3.52,4.77-.38,2.73,4.34-2.61,5.13-3.58,4.54-1.97.02-6.13-1.12-.76-4.81,3.37-4.2ZM271.16,444.22l-2.87-3.91,4.92-2.81,3.2-4.83,3.34,2.15,1.11,5.7-2.53,5.18-2.06.48-5.11-1.96ZM283.4,459.26l3.58,5.4-.83,3.23-2.84,1.03-4.4-3.66,4.49-6ZM204.11,397.36l3.22-4.05,3.56-2.09,4.56-1.79.2,3.87.05,4.18-2.44,5.33-2.61,5.23-6.22-1.01-3.62-5.66,3.3-4.01ZM195.45,415.51l2.41-3.58,3.26-1.46,3.24,2.54.92,3.99-3.51,2.83-1.41,4.26-3.95.57-3.6-2.03-.35-3.94,2.99-3.18ZM314.12,516.94l-5.11.05-5.15-1.67-5.36-.73-5.09-2.33-5.45-.34-5.5.52-5.31-1.78-5.4-1.16-5.46-.23-5.47.51-5.45.59-5.43-1.08-5.43.66-5.38-.8-5.42.06-5.18-1.45-5.64-.56-2.49-5.05-4.88-3.22-2.81-4.58-2.34-4.95-3.32-4.24-4.43-3.28-3.65-3.89-2.56-4.97-4.98-2.57-4.36-4.57,1.6,6.65.45,6.26-5.17-.59-5.28-3.38-3.9-4.92-2.68-5.85,1.97-6.21,2.73-4.29,4.1-3.48,1.96-4.77,2.41-4.5,2.11-4.7,3.19-3.03,4.36,1.91,5.04,2.37,4.26,3.45,4.15,3.15,4.05,3.33,3.51,4.09,4.63,2.5,4.85.63,4.96-.12,3.03,5.21,4.02,4.52,5.74.79,4.94,2.85,5.73.59,5.44,1.43,5.13,2.63,5.82.5,5.35,1.96,5.53,1.44,4.89,3.5,6.46.85-5.05,2.99-5.23.47-4.49,2.26-.02,2.27,4.94,2.21h5.4s5.43.37,5.43.37l4.57-3.4,4.99-1.43,5.03-1.97,3.34-4.35,4.04-3.44,3.22-4.23,3.91-3.63,3.73-3.82,3.43-4.12,2.49-4.76,3.14-4.29,3.61-3.86,4.07-2.91,4.52.21,2.02,5.64-4.05,3.53-.76,5.42-3.46,3.88-1.93,4.77-4.4,3.35,4.63,3.83,3.63-5.1,4.79-.38,3.44,2.77-1.4,4-2.42,5.26-5.2,2.38-3.21,4.57-5.4,2.21-2.6,5.12-3.99,3.7-4.42,3.43-2.87,4.72-1.68,5.43-4.12,3.19ZM368.79,468.36l-1.56,5.82-2.64-5.79.73-5.45.68-5.21.48-5.43,3.25-4.36,2.03-5.22,3.95-3.9,4.59-2.52-2.62,4.97-.21,6.01-3.57,4.73-1.27,5.61-3.31,4.83-.53,5.91Z"/>
          <path class="cls-1" d="M551.15,224.14c-17.75-30.56-44.03-55.95-75.97-73.43-24.52-13.43-52.09-20.52-79.72-20.52h-.02c-50.89,0-98.09,22.8-130.35,62.75-20.49,4.23-33.85,21.3-32.42,42.59.32,4.66-1.72,8.65-5.35,15.31-1.31,2.4-2.67,4.88-3.96,7.62-1.62,3.44-3.06,6.75-4.45,9.94-5.25,12.06-9.4,21.58-19.21,29.58-10.15,8.26-18.57,27.95-14.41,42.99,1.99,7.17,7.13,13.62,13.17,20.14-11.6,16.26-17.82,31.65-23.42,45.48-4.59,11.32-8.55,21.1-14.55,28.62-8.31,10.39-12.19,24.73-9.87,36.52,1.82,9.32,7.37,16.98,15.62,21.59l20.71,11.56c21.11,28.8,47.13,28.93,72.32,29.05,12.31.06,24.96.12,38.13,3.42-1.79,16.93-1.48,31.97,6.25,47.69,3.99,8.14,13.8,12.81,26.9,12.81,4.7,0,16.43-.71,23.6-7.28,3.24-2.97,4.79-7.36,4.13-11.7-2.43-15.95-2.61-36.39,8.7-48.13,13.76,4.62,39.64,12.18,61.83,12.18,27.86,0,37.21-12.22,40.14-22.47,1.03-3.6,1.94-7.21,2.82-10.7,3.57-14.14,6.65-26.35,15.69-33.31,37.05-28.51,82.33-77.55,87.67-149.24,2.68-35.82-5.61-71.46-23.98-103.06ZM561.53,315.52l.71,5.55-1.43,5.45.09,5.41-1.58,5.22.7,5.05h0s.07.52.07.52l-.42,5.43-1.36,2.6-1.23,2.36-.97,5.31-.48,2.63-.5,2.71-1.91,4.81-.09.23v.02l-.09.26-1.48,4.89-.59.71-3.01,3.66-.31,4.31-.1,1.38-1.39,1.88-1.89,2.54-1.12,3.55-.52,1.66-2.25,4.94-2.25,2.49-1.45,1.6-.93,2.34-1.1,2.76-2.02,2.1-1.79,1.86-.8,1.96-1.28,3.17-2.14,1.6-2.37,1.77-3.09,4.41-2.25,3.65-.61.98-.58.43-3.85,2.86-2.19,3.98-.48.87-3.58,4.05-1.61,1.05-3,1.97-3.51,4.12-4.26,3.32-2.04,2.7-1.27,1.69-1.59.8-3.36,1.7-1.23,2.15-1.64,2.86-4.07,1.68-1.12.46-.77,1.04-2.65,3.58-2.59,1.76-2.28,1.55-1.73,4.29-.44,1.09-.43.47-3.59,3.93-1.68,5.54-.82,5.73-1.58,5.46-2.37,5.27-1.72,5.43.57,3.7.38,2.46-2.8,5.21-4.9,3.06-4.81,2.85-5.51.87-5.48.58-5.5.14-1.15-.27-4.27-1-2.28.65-3.38.97-5.32-1.89-5.48-.51-5.55-.32-3.8-2.05-1.23-.66-5.24-1.57-3.18-.16-2.41-.13-5.36-1.24-5.14-1.95-5.23-1.66-2.2-1.39-2.94-1.86-4.59,3.94-4.26,3.65-2.8,4.88-3.12,4.61-1.54,5.35-1.95,5.16-.22,2.35-.29,3.16-1,4.77-.13.6-1.47,5.45-.11,5.56,1.37,4.03.48,1.41-.28,1.59-.71,4.04,1.64,4.15.53,1.36-5.1,2.76-1.26-.12-4.27-.41-5.18,1.42h-.04s-.45-.01-.45-.01l-4.93-.18-5.56-.74-1.66-2.46-1.49-2.21-.6-.7-2.96-3.47.28-3.39.18-2.24-1.23-4.97-1.02-2.03-1.46-2.89.25-5.28-.22-5.24.02-5.25.89-5.17.98-2.2,1.23-2.78-.34-4.21-.08-1.02-.79-.52-3.88-2.53-2.62.4-3.32.51-2.87-2.1-1.9-1.39-2.44.5-3.32.69-5.26-1.48-3.81-.83-1.55-.34-1.27.12-4.21.42-4.58-.8-.84-.15-.58.12-4.88.97-2.82-1.06-2.61-.97-2.28.95-3.17,1.31-3.26-1.41-2.13-.92-2.45.75-3.1.95-2.8-1.38-2.41-1.18-2.51.56-3.22.71-5.33-1.52-4.86-2.73-5.23-1.77-4.54-3.12-3.35-3.2-.62-.6-3.09-4.54-3.05-1.67-2.04-1.12-3.19-4.08-3.07-2.97-.81-.79-1.07-.26-4.3-1.06-1.76-2.33-1.76-2.32-4.78-2.34-4.6-2.7-4.63-2.55-2.54-4.61-2.38-3.95-.45-.74.1-1.12.37-4.34v-5.04s0-.42,0-.42l.19-.43,1.97-4.59.46-2.52.55-3.07,2.74-2.68,1.28-1.25,1.01-1.77,1.76-3.08,1.58-1.82,2.12-2.44.75-2.54.85-2.91,2.87-4.79.05-.07,2.98-4.7.12-2.58.16-3.34,2.07-2.12,2.14-2.19,2.15-5.15,2.09-5.16,1.35-5.51,2.84-4.83,1.03-3.06.78-2.31,2.23-5.19,3.41-3.54.56-.59,3.77-4.18,2.82-4.84,3.19-4.46-.04-.05-1.43-1.98-1.9-2.63-3.83-4.36-4.18-4.02-1.01-.99-3.23-3.14-.37-2.09-.66-3.73-1.5-3.1-.94-1.96,1.16-3.72.49-1.56,2.09-4.92.99-4.87.1-.47.33-.37,3.23-3.7,3.61-3.71,3.95-3.52,1.3-2.76,1.05-2.21,2.11-1.39,2.47-1.64,2.94-4.39,1.34-4.13h.01s.31-.97.31-.97l1.42-2.32,1.31-2.15,3.12-4.35,2.31-4.71,2-4.84.76-4.92.07-.46,1.91-4.98,1.87-2.06h0s1.79-1.97,1.79-1.97l2.25-4.8,1.78-5v-.87s.09-4.44.09-4.44l1.18-4.59.15-.58.04-5.49,2-5.08,1.26-5.33,3.89-3.84,3.37-4.39,3.51-2.44,1.1-.77.7-.08,4.93-.55,5.05-1.88h.01l.7-.5,3.75-2.68,2.42-4.9.07-.15,3.45-4.29,3.46-4.32,1.91-.71,3.68-1.38,1.56-3.54.87-1.96,4.54-3.17,1.94-1.05,2.96-1.59,2.55-2.56,1.37-1.38,4.36-3.4,4.68-2.91,1.69-.21,4.22-.51,4.65-2.83,4.06-3.45.25-.21,4.8-2.78,5.25-1.72,5.24-1.7,1.41-.31,3.98-.86,5.59-.29,4.98-2.66,5.43-.83,5.59.31,5.29-1.62,5.51.32,5.43-.41,5.45-.85,5.03-.71.47-.07.77.11,4.69.68,5.39,1.16,5.32,1.37,5.47.34,4.43-.43,1.28-.13,1.3.69,3.71,1.96,5.1,2.03,5.13-.11h.65s.46.37.46.37l4.02,3.37,4.56-.17,1.43-.05,4.84,2.69.39.26,4.22,2.83,4.34,3.48,5.67,1.17h.02l.03.03,4.24,3.6,4.21,3.64,5.14,2.25,3.69,4.3,4.93,2.63,3.62,4.26,4.88,2.79,3.39,4.45,4.44,3.35,3.57,4.21,3.55,4.21,3.24,4.46,4.11,3.77,2.74,4.82,3.27,4.43,3.2,4.49,2.91,4.68,2.97,3.02,1.06,1.07.48,1.79,1,3.69,2.95,4.72,1.32,5.45,2.51,3.13,1.11,1.39.36,2.54.44,3.07.89,5.51,2.54,3.45.95,1.3-.14,1.7-.35,4.14,1.07,5.39,2.35,5.13.03.06.85,5.48-.04.24-.98,5.43,1.95,4.92.18.45-.12.53-1.12,5.06.45,5.5Z"/>
        </g>
        <g>
          <g>
            <path d="M561.53,315.52l-.45-5.5,1.12-5.06.12-.53-.18-.45-1.95-4.92.98-5.43.04-.24-.85-5.48-.03-.06-2.35-5.13-1.07-5.39.35-4.14.14-1.7-.95-1.3-2.54-3.45-.89-5.51-.44-3.07-.36-2.54-1.11-1.39-2.51-3.13-1.32-5.45-2.95-4.72-1-3.69-.48-1.79-1.06-1.07-2.97-3.02-2.91-4.68-3.2-4.49-3.27-4.43-2.74-4.82-4.11-3.77-3.24-4.46-3.55-4.21-3.57-4.21-4.44-3.35-3.39-4.45-4.88-2.79-3.62-4.26-4.93-2.63-3.69-4.3-5.14-2.25-4.21-3.64-4.24-3.6-.03-.03h-.02l-5.67-1.17-4.34-3.48-4.22-2.83-.39-.26-4.84-2.69-1.43.05-4.56.17-4.02-3.37-.46-.38h-.65s-5.13.12-5.13.12l-5.1-2.03-3.71-1.96-1.3-.69-1.28.13-4.43.43-5.47-.34-5.32-1.37-5.39-1.16-4.69-.68-.77-.11-.47.07-5.03.71-5.45.85-5.43.41-5.51-.32-5.29,1.62-5.59-.31-5.43.83-4.98,2.66-5.59.29-3.98.86-1.41.31-5.24,1.7-5.25,1.72-4.8,2.78-.25.21-4.06,3.45-4.65,2.83-4.22.51-1.69.21-4.68,2.91-4.36,3.4-1.37,1.38-2.55,2.56-2.96,1.59-1.94,1.05-4.54,3.17-.87,1.96-1.56,3.54-3.68,1.38-1.91.71-3.46,4.32-3.45,4.29-.07.15-2.42,4.9-3.75,2.68-.7.5h-.01l-5.05,1.88-4.93.55-.7.08-1.1.77-3.51,2.44-3.37,4.39-3.89,3.84-1.26,5.33-2,5.08-.04,5.49-.15.58-1.18,4.59-.08,4.44v.87s-1.79,5-1.79,5l-2.25,4.8-1.79,1.96h0s-1.87,2.07-1.87,2.07l-1.91,4.98-.07.46-.76,4.92-2,4.84-2.31,4.71-3.12,4.35-1.31,2.15-1.42,2.32-.31.96h-.01s-1.34,4.14-1.34,4.14l-2.94,4.39-2.47,1.64-2.11,1.39-1.05,2.21-1.3,2.76-3.95,3.52-3.61,3.71-3.23,3.7-.33.37-.1.47-.99,4.87-2.09,4.92-.49,1.56-1.16,3.72.94,1.96,1.5,3.1.66,3.73.37,2.09,3.23,3.14,1.01.99,4.18,4.02,3.83,4.36,1.9,2.63,1.43,1.98.04.05-3.19,4.46-2.82,4.84-3.77,4.18-.56.59-3.41,3.54-2.23,5.19-.78,2.31-1.03,3.06-2.84,4.83-1.35,5.51-2.09,5.16-2.15,5.15-2.14,2.19-2.07,2.12-.16,3.34-.12,2.58-2.98,4.7-.05.07-2.87,4.79-.85,2.91-.75,2.54-2.12,2.44-1.58,1.82-1.76,3.08-1.01,1.77-1.28,1.25-2.74,2.68-.55,3.07-.46,2.52-1.97,4.59-.19.43v5.46s-.38,4.34-.38,4.34l-.1,1.12.45.74,2.38,3.95,2.54,4.61,4.63,2.55,4.6,2.7,4.78,2.34,1.76,2.32,1.76,2.33,4.3,1.06,1.07.26.81.79,3.07,2.97,3.19,4.08,2.04,1.12,3.05,1.67,3.09,4.54.62.6,3.35,3.2,4.54,3.12,5.23,1.77,4.86,2.73,5.33,1.52,3.22-.71,2.51-.56,2.41,1.18,2.8,1.38,3.1-.95,2.45-.75,2.13.92,3.26,1.41,3.17-1.31,2.28-.95,2.61.97,2.82,1.06,4.88-.97.58-.12.84.15,4.58.8,4.21-.42,1.27-.12,1.55.34,3.81.83,5.26,1.48,3.32-.69,2.44-.5,1.9,1.39,2.87,2.1,3.32-.51,2.62-.4,3.88,2.53.79.52.08,1.02.34,4.21-1.23,2.78-.98,2.2-.89,5.17-.02,5.25.22,5.24-.25,5.28,1.46,2.89,1.02,2.03,1.23,4.97-.18,2.24-.28,3.39,2.96,3.47.6.7,1.49,2.21,1.66,2.46,5.56.74,4.93.18.45.02h.04s5.18-1.43,5.18-1.43l4.27.41,1.26.12,5.1-2.76-.53-1.36-1.64-4.15.71-4.04.28-1.59-.48-1.41-1.37-4.03.11-5.56,1.47-5.45.13-.6,1-4.77.29-3.16.22-2.35,1.95-5.16,1.54-5.35,3.12-4.61,2.8-4.88,4.26-3.65,4.59-3.94,2.94,1.86,2.2,1.39,5.23,1.66,5.14,1.95,5.36,1.24,2.41.13,3.18.16,5.24,1.57,1.23.66,3.8,2.05,5.55.32,5.48.51,5.32,1.89,3.38-.97,2.28-.65,4.27,1,1.15.27,5.5-.14,5.48-.58,5.51-.87,4.81-2.85,4.9-3.06,2.8-5.21-.38-2.46-.57-3.7,1.72-5.43,2.37-5.27,1.58-5.46.82-5.73,1.68-5.54,3.59-3.93.43-.47.44-1.09,1.73-4.29,2.28-1.55,2.59-1.76,2.65-3.58.77-1.04,1.12-.46,4.07-1.68,1.64-2.86,1.23-2.15,3.36-1.7,1.59-.8,1.27-1.69,2.04-2.7,4.26-3.32,3.51-4.12,3-1.97,1.61-1.05,3.58-4.05.48-.87,2.19-3.98,3.85-2.86.58-.43.61-.98,2.25-3.65,3.09-4.41,2.37-1.77,2.14-1.6,1.28-3.17.8-1.96,1.79-1.86,2.02-2.1,1.1-2.76.93-2.34,1.45-1.6,2.25-2.49,2.25-4.94.52-1.66,1.12-3.55,1.89-2.54,1.39-1.88.1-1.38.31-4.31,3.01-3.66.59-.71,1.48-4.89.09-.26v-.02l.09-.23,1.91-4.81.5-2.71.48-2.63.97-5.31,1.23-2.36,1.36-2.6.42-5.43-.07-.51h0s-.7-5.06-.7-5.06l1.58-5.22-.09-5.41,1.43-5.45-.71-5.55ZM391.64,167.72l4.75-2.66,5.71-.33,4.35-3.9,5.79.52,4.87-2.93,5.83,1.06,5.54.12,5.45,1.15,5.78.17,4.81,3.29,5.53,1.39,5.07,2.52,5.66,1.47,4.15,4.2,5.65,1.61,3.96,4.43-.49,2.32-5.3,1.65-5.53.59-5.2,1.92-4.91,2.65-4.93,2.4-5.33,1.46-4.76,2.74-4.81,2.6-5.38,1.73-4.46,3.27-4.57,3.1-4.18,3.61-4.5,3.24-3.41,4.42-3.64,4.12-3.59,4.15-3.42,4.28-2.99,4.61-4.48,3.46-2.73,4.79-3.08,4.54-2.55,4.87-2.7,4.76-4.9,3.44-1.86,6.05-4.92-3.08-4.68-3.1-4.64-3.14-4.2-3.87-5.61-1.61-4.39-3.55-4.64-3.19-5.09-2.45-4.19-3.61,2.34-4.25,2.39-4.84,1.96-5.1,3.53-4.18,3.22-4.34,1.82-5.3,4.77-3.21,2.79-4.64,2.77-4.73,4.52-3.19,2.7-4.89,5.17-2.42,3.21-4.47,4.15-3.46,4.94-2.37,3.26-4.79,5.33-1.69,4.29-3.41ZM320.28,175.03l1.64,1.62-.53,5.57-2.64,5.1-.2.13-3.12-3.82-.95-3.11,5.8-5.49ZM286.99,203.42l3.19-4.82,5.02-2.92,3.06-4.97,4.7-3.27,4.33-4.58,2.33,5.62,1.24,5.39,3.64,4.31,1.89,5.12,1.04,5.5,4.12-.87,1.11-5.69,1.68-5.53,1.24-5.66,1.71-5.53,3.58-5.01,1.14-5.7,1.21-5.69.67-2.63,5.35-1.26,5.57-.51,4.84-2.57,4.88-2.66,5.44-.72,5.33-1.01,5.31-1.16,5.46-.08,5.39-.56,5.35-1.65.62,4.24-4.51,3.01-3.73,4.12-4.42,3.07-3.91,3.73-5,2.37-3.03,4.73-5.19,2.29-3.79,3.85-2.92,4.67-3.25,4.3-5.12,2.69-2.36,5.03-3.1,4.39-3.87,3.86-2.41,4.87-2.22,4.93-3.8,4.02-3.09,4.49-1.5,5.59-3.89-4.63-6.06-1.45-3.79-4.62-5.25-2.6-4.91-3.05-3.58-4.93-5.73-1.96-2.92-4.22,2.91-3.68ZM255.33,233.36l5.61-.69,4.39,2.6.79,4.93-.91,5.73-5.61-.59-5.6-.6,1.91-5.62-.58-5.76ZM217.6,375.3l4.72-3.36,3.12-4.72,1.74-5.51,3.04-4.62,2.8-4.88,1.42-6-2.23,4.65-3.5,3.12-3.74,3.75-3.22-5-2.36-4.96-4.77-3.19-3.35-4.25-1.98-5.27v-5.13l.92-5.5,2.37-5.25,2.62-5.29,5.05-3.14,3.48-4.51,3.83-4.06,3.81-4.15,1.91-5.38,3.05-4.67,3.22-4.73.31-5.87,3.53-4.67,1.82-5.28,1.62-5.61,4.38-3.83,4.49-3.59,5.35-2.16,5.9-.36,5.41,1.88,5.47,1.38,5.51,1.31,3.93,3.61-3.02-4.85-3.86-4.47-2.09-5.56-.74-.29-3.39-4.18,4.05,4.25.08.22,4.52,1.78,3.56,4.34,3.98,3.8,5.7,1.44,4.53,3.01,3.14,4.97,4.99,2.38,5.19,2.06,3.69,4.24,5.2,2.01,3.46,4.62,5.58,1.4,4.35,3.29,4.13,3.66,5.07,2.12,4.24,3.5,4.86,2.46,4.53,3.05,5.03,2.17,4.27,3.55,5.3,1.64,4.99,2.25,4.76,3.19,5.28,2.34,3.75,4.82,5.82,1.47,4.58,3.49,4.75,3.25,4.37,3.84.76,1.08.82.7-3.3,1.94-6.52,1.45-2.58,3.95.72,5.93,1.15,5.53,2.66,5.14-1.53,5.6.13,5.61-3.07,4.72-2.75,4.78-2.09,5.49-4.82,3.4-2.79,5.03-3.02,4.93.77,5.78.52,5.39,1.56,5.24-1.42,4.49-2.56,4.73-5.16,2.04-4.29,2.75-4.58,2.32-4.95,1.37-5.01,1.1-5.13.33-5.18-.21-5.28-.79-4.29-3.16-3.36-3.96-4.39-3.37-1.91-5.41-5.04-2.83-3.08-4.46-2.37-5.04-4.53-3.28-4.92-2.45-6.17-1.25-3.36,4.79,3.5,4.82,5.11,1.88,5.19,1.63,2.9,6.47-.83,6.05-3.42,4.24-4.4,3.4-5.25,1.91-5.55-.12-5.58,1.75-5.53-1.54-3.76-4.47-5.51-1.29-3.13-4.39-5.04-1.93-2.97-4.63-5.2-1.43-5.45-.07-1.51-5.27-4.17-3.19-3.62-3.54-4.6-2.06-4.26-2.61-4.62-2.07-3.97-4.95-4.9-3.59-5.19-3.2-5.31-2.85,3.11-4.37ZM413.84,365.16l.46-5.29-.36-5.39-1.71-5.23.41-5.57-.97-5.34,1.14-4.47,2.39.49,1.6-.37,4.45,3.91,1.98,5.6,1.67,5.48,2.61,5.41-.9,5.87-2.05,5.4-2.14,5.23-1.84,5.36-2.3,5.19-3.31,4.63-1.62,5.7-5.13,3.27-3.46,4.36-3.22,4.91-5.45,2.52-2.77-4.65,2.47-4.84,3.96-3.79,1.79-5.38,3.09-4.37,4.17-3.6,2.86-4.58,2.32-4.95-.14-5.51ZM298.74,443.01l-3.29,5.99-5.13,3.78-2.57-3.32.79-4.72,6.13-3.5,4.07,1.77ZM216.14,415.32l.61-3.92,3.26-3.73,3.74-3.28,2.64-4.34,3.52,1.92-.21,5.15-.55,5.12.44,5.25-4.2.57-4.75-1.14-4.5-1.6ZM219.59,427.68l-3.08,4.82-5.66,1.34-3.06-.89.33-6.71,4.68-4.64,4.78,2.32,2.01,3.76ZM224.37,438.49l3.09-5.17,2.13-.99,6.97,3.57v3.93s-4.16,4.4-4.16,4.4l-5.14,3.02-4.25-3.1,1.36-5.66ZM235.61,425.04l-2.92-6.23,5.31-3.37,3.57-5.28,4.87,2.92.35,4.74-1.85,4.49-1.02,4.59-2.56,1.44-5.75-3.3ZM241.32,450.95l.41-6.1,3.9-2.59,4.41,2.55,4.44,2.48-2.87,3.83-4.69,4.8-3.42,1.54-3.39-3.56,1.21-2.95ZM253.24,437.45l-1.82-4.99,1.87-6.89,5.36-4.44,5.46,3.02-1.79,6.08-.25,6.21-2.65,1.83-6.18-.82ZM261.78,455.25l4.18-3.52,4.77-.38,2.73,4.34-2.61,5.13-3.58,4.54-1.97.02-6.13-1.12-.76-4.81,3.37-4.2ZM271.16,444.22l-2.87-3.91,4.92-2.81,3.2-4.83,3.34,2.15,1.11,5.7-2.53,5.18-2.06.48-5.11-1.96ZM283.4,459.26l3.58,5.4-.83,3.23-2.84,1.03-4.4-3.66,4.49-6ZM204.11,397.36l3.22-4.05,3.56-2.09,4.56-1.79.2,3.87.05,4.18-2.44,5.33-2.61,5.23-6.22-1.01-3.62-5.66,3.3-4.01ZM195.45,415.51l2.41-3.58,3.26-1.46,3.24,2.54.92,3.99-3.51,2.83-1.41,4.26-3.95.57-3.6-2.03-.35-3.94,2.99-3.18ZM314.12,516.94l-5.11.05-5.15-1.67-5.36-.73-5.09-2.33-5.45-.34-5.5.52-5.31-1.78-5.4-1.16-5.46-.23-5.47.51-5.45.59-5.43-1.08-5.43.66-5.38-.8-5.42.06-5.18-1.45-5.64-.56-2.49-5.05-4.88-3.22-2.81-4.58-2.34-4.95-3.32-4.24-4.43-3.28-3.65-3.89-2.56-4.97-4.98-2.57-4.36-4.57,1.6,6.65.45,6.26-5.17-.59-5.28-3.38-3.9-4.92-2.68-5.85,1.97-6.21,2.73-4.29,4.1-3.48,1.96-4.77,2.41-4.5,2.11-4.7,3.19-3.03,4.36,1.91,5.04,2.37,4.26,3.45,4.15,3.15,4.05,3.33,3.51,4.09,4.63,2.5,4.85.63,4.96-.12,3.03,5.21,4.02,4.52,5.74.79,4.94,2.85,5.73.59,5.44,1.43,5.13,2.63,5.82.5,5.35,1.96,5.53,1.44,4.89,3.5,6.46.85-5.05,2.99-5.23.47-4.49,2.26-.02,2.27,4.94,2.21h5.4s5.43.37,5.43.37l4.57-3.4,4.99-1.43,5.03-1.97,3.34-4.35,4.04-3.44,3.22-4.23,3.91-3.63,3.73-3.82,3.43-4.12,2.49-4.76,3.14-4.29,3.61-3.86,4.07-2.91,4.52.21,2.02,5.64-4.05,3.53-.76,5.42-3.46,3.88-1.93,4.77-4.4,3.35,4.63,3.83,3.63-5.1,4.79-.38,3.44,2.77-1.4,4-2.42,5.26-5.2,2.38-3.21,4.57-5.4,2.21-2.6,5.12-3.99,3.7-4.42,3.43-2.87,4.72-1.68,5.43-4.12,3.19ZM332.77,572.99l-3.52,2.16-4.47-1.94-4.66-2.53,1.48-3.93,2.95-3.49,3.12-1.81,2.74,4.99,4.26,3.35-1.9,3.2ZM365.58,498.12l-3.92,3.94-2.67,5.25-3.5,4.39-3.99,3.93-4.68,3.47-2.4,5.2-2.25,5.14-3.91,4.41-1.59,5.48-1.3,5.54-1.5,5.56-3.89,3.36-7.37-1.47-4.19-5.47.65-5.38,1.48-5.18,1.23-5.21,1.1-5.34,1.97-5.06,3.28-4.38,2.46-4.81,2.79-4.66,4.39-3.41,2.82-4.66,3.99-3.63,3.58-4.11,5.53-1.54,4.11-3.4,5.12-.69,4.51,3.29,1.35,5.03-3.2,4.41ZM368.79,468.36l-1.56,5.82-2.64-5.79.73-5.45.68-5.21.48-5.43,3.25-4.36,2.03-5.22,3.95-3.9,4.59-2.52-2.62,4.97-.21,6.01-3.57,4.73-1.27,5.61-3.31,4.83-.53,5.91ZM442.27,517.83l-5.33,1.36-5.39.37-5.36.02-5.48,1.57-5.31-1.81-5.54.37-5.21-1.76-5.54-.08-4.82-3.3-5.5-.33-5.52-.45-4.67-3.47-5.36-.97-2.22-3.03,5.1-3.9,3.85,2.03,3.22,3.36,5.71.8,4.74,3.42,5.86-.56,5.22,2.82,5.67-.91,5.5-1.03,5.68,1.49,5.61-.28,5.08-3.32,5.8.63,5.26-2.03,3.96,6.14-5.01,2.85ZM448.55,493.46l-4.49,3.32-5.07,2.32-4.99,2.59-5.38,1.66-5.65.13-5.51,1.54-5.63-.62-5.4-1.71-5.22-1.8-5.95.23-4.52-3.56-4.1-3.74-3.28-3.62-4.33-3.42-1.14-5.21-.32-5.25.03-5.24-.03-5.37,2.15-4.91,1.2-5.24,3.29-4.28,2.45-4.96,3.56-4.24,3.31-4.41,2.35-5.05,3.59-4.2,4.35-3.7,2.06-5.25,4.23-3.79,2.16-5.17,2.79-4.77,2.96-4.64,3.68-4.17,2.28-5.13,2.53-4.95,3.27-4.05,2.13-4.73.74-5.19,3.15-4.57.91-5.2-.04-5.29-1.07-5.19.34-5.29-1.25-5.11-3.38-4.29-1.85-5.01-2.84-4.57-3.93-3.65-3.79-3.79-4.7-2.66-3.55-4.3-5.62-1-4.19-3.52-5.24-1.61-4.43-3.08-3.98-3.91-4.93-2.15-5.41-1.29-4.54-2.86-4.8-2.41-4.84-2.33-3.55-4.61-5.37-1.39-4.85-2.32-3.64-4.35-4.78-2.43-4.79-2.43-4.03-3.61-5.4-1.52-4.32-3.18-4.23-3.29-3.95-3.68-4.67-2.67-4.75-2.61-3.15-4.65-4.47-3.35-5.07-2.56-4.09-3.86-5.67-1.56-4.03-3.99-4.57-3.24-5.27-1.91-4.93-2.62-6.25-1.57,6.07-3.05,5.29-2.49,5.92-1.76,5.82,2.04,5.56,2.36,3.94,3.75,5.03,2.26,4.31,3.23,3.71,4.1,3.92,3.81,5.4,1.68,3.93,3.81,4.58,2.85,4.32,3.25,5.54,1.39,3.73,4.14,4.16,3.52,5.79.92,3.41,4.71,5.27,1.73,5.03,2.1,4.08,3.65,4.79,2.49,4.4,3.13,4.67,2.67,4.92,2.26,3.51,4.64,5.06,2.02,4.65,2.72,4.22,3.44,5.27,1.66,4.5,3,4.24,3.45,5.1,2,4.71,2.92,4.45,3.31,4.22,3.61,3.7,4.15,5.09,3.03,2.02,5.48,3.51,4.41,2.94,4.87-.09,5.9,1.99,5.21,1.16,5.5.52,5.65-1.3,5.52-.55,5.63-2.04,5.26-1.74,5.35-2.98,4.78-3.89,4.17-2.77,4.77-2.73,4.56-2.76,4.54-2.12,4.98-2.96,4.41-4.04,3.67-1.98,5.06-2.93,4.44-3.71,3.9-2,5.06-3.82,3.84-3.19,4.26-3.05,4.37-3.49,4.08-1.83,5.21-3.02,5.39.54,6.23.44,6.11,2.37,5.49,3.16,4.13,3.68,3.67,4.39,3.55,5.56.51,5.46,1.61,5.45-2.48,5.66,1.49,5.46-1,5.12-2.5,5.72.34,5.44-1.04,1.29,1.84-3.49,4.34ZM505.06,427.51l-2.4,5.19-3.78,3.81-5.35,2.18-4.11,3.44-2.55,5.12-3.68,3.93-4.39,3.14-4.87,2.51-3.54,4.13-3.72,3.95-5.24,1.94-4.78,2.51-4.17,3.36-4.4,3.32-4.92,2.62-5.26,1.9-5.49,1.04-5.6-.04-5.55,1.46-5.6-.8-5.53-1.28-4.91-2.9-2.14-5-2.07-4.94.12-5.53,1.89-5.34,4-3.96,3.39-4.38,2.82-4.77,1.75-5.48,3.58-4.23,3.23-4.49,3.37-4.39,3.44-4.35,3.65-4.21,3.51-4.3,1.81-5.47,2.72-4.86,3.37-4.42,4-3.85,1.14-5.53,2.49-4.72,2.85-4.64,2.36-4.93,1.65-5.21.55-5.45-1.51-5.53.91-5.3-1.17-5.25.07-5.39-.98-5.29-2.53-4.79-2.33-4.76-1.22-5.45-2.48-4.91-4.31-3.52-4.55-3.05-3.24-4.35-3.67-4.17-4.79-2.89-4.75-2.91-4.88-2.7-4.69-3.04-4.89-2.71-5.22-2.17-4.93-2.66-4.71-3.01-4.22-3.8-4.61-3.21-4.83-2.78,1.8-5.17,3.59-4.32,2.63-4.86,4.18-3.84,1.9-5.39,2.92-4.73,4.86-3.18,2.19-5.39,3.53-4.31,5.05-2.79,4.43-3.31,3.2-4.71,4.37-3.38,4.89-2.68,4.55-3.07,4.19-3.74,5.19-2.02,4.51-3.44,5.68-.7,5.22-1.68,5.22-1.76,5.37-1.26,5.53-.04,5.49-1.45,5.44,1.76,5.71-.51,3.92,4.06,4.27,3.07,4.23,3.15,5.32,2.02,2.57,5,4.92,2.76,3.67,3.96,2.94,4.53,1.21,5.62,3.05,4.36,2.63,4.62,3.9,3.99,2.76,4.63,2.1,4.96,2.11,4.94,1.27,5.26,1.17,5.27,3.27,4.54.03,4.78-4.46-1.67-3.44-4.53-4.4-3.15-5.12-2.07-4.48-3.01-5.24-1.77-4.52-2.9-4-3.96-4.92-2.31-5.44-.98-5.03-1.9-4.71-3.07-5.45-.59h-5.47s-5.24-1.53-5.24-1.53l-5.4-.64-2.47,4.82.3,5.17,2.62,4.3-2.82,3-5.48.57-5.42.46-5.4-.22-5.51-.61-5.09,2.45-5.65-.29-4.85,2.64-4.8,2.46-5.19,1.85,1.37,4.09,5.26,2.31,5.5.73,5.51.79,5.12,2.52,5.8-.34,5.12,2.34,5.08,2.29,5.94-.16,4.75,3.15,5.56,1.25,3.77,4.71,5.97.99,3.03,5.08,3.57,4.02,2.93,4.49,2.59,5.12-.13,5.81-3.51,4.72-3.19.56-.86-5.12-1.73-4.74-3.15-4.01-3.77-3.45-2.67.78,1.3,5.68.74,5.78,1.61,5.64.49,5.85,2.92,5.39,2.02,2.69,4.36.68,3.47-3.76,3.89-3.25,4.3-2.73,3.61-4.21,2.25,6.3,1.24,5.81-2.92,5.36-1.8,5.3-.71,5.86-3.62,4.57-2.01,5.39-2.48,4.63-2.81,4.46-2.07,4.88-2.24,4.77-2.54,4.63-2.66,4.55-3.84,3.98,4.33,3.44,3.76,3.77,3.49,4.02,4.03,3.41,4.05,3.42,3.73,3.76,3.03,4.36,4.64,3.99-5.43,3.14ZM551.95,330.93l-.66,5.55-.55,5.58-2.3,5.21-1.01,5.47-2.82,4.96-1.58,5.29-1.17,5.46-1,5.6-2.58,4.97-2.26,5.1-4.42,3.96-.76,5.92-4.33,3.89-3.31,4.45-2.13,5.23-3.22,4.51-3.17,5.04-4.42-4.38-3.32-4.82-4.29-3.95-4.24-3.94-4.08-4.14-3.7-4.42,2.67-4.4,2.73-4.45,1.71-5.02,3.52-4,.97-5.45,4.48-3.45,2.53-4.57,2.37-4.67,2.04-4.86,2.79-5.26-1.02-5.95,1.55-5.88-1.75-5.64-3.51-4.5-3.28-4.5-3.98-3.68-1.5-5.2-1.8-5.06-2.98-4.48-2.38-4.9-3.72-3.93-4.51-3.01-3.76-3.84-5.01-2.06-4.89-1.99-4.02-3.81-5.13-1.53-5.33-.77-4.54-3.13-5.37-.49.43-1.56,5.67-.86,5.72.16,5.68-.78,5.61-1.87,5.7-.53,3.1-2.48-.97-4.41-1-4.39,2.18-2.22,5.53.23,4.32,3.7,5.5.45,4.84,2.23,4.83,2.25,4.87,2.15,4.5,2.87,5.05,1.88,3.75,4.04,5.02,2.05,4.48,2.92,3.93,3.64,4.18,3.35,4.03,3.58,1.58,5.3,1.02,5.16,2.63,5.21-.14,5.62.15,5.55-1.02,5.52,1.58,5.61-.31,5.57Z"/>
            <polygon class="cls-1" points="266.12 240.19 265.21 245.92 259.6 245.33 254 244.73 255.91 239.11 255.33 233.35 260.94 232.66 265.33 235.26 266.12 240.19"/>
            <polygon class="cls-1" points="380.3 436.29 377.68 441.26 377.47 447.27 373.9 452 372.63 457.61 369.32 462.44 368.79 468.35 367.23 474.17 364.59 468.38 365.32 462.93 366 457.72 366.48 452.29 369.73 447.93 371.76 442.71 375.71 438.81 380.3 436.29"/>
            <polygon class="cls-1" points="427.51 354.38 426.61 360.25 424.56 365.65 422.42 370.88 420.58 376.24 418.28 381.43 414.97 386.06 413.35 391.76 408.22 395.03 404.76 399.39 401.54 404.3 396.09 406.82 393.32 402.17 395.79 397.33 399.75 393.54 401.54 388.16 404.63 383.79 408.8 380.19 411.66 375.61 413.98 370.66 413.84 365.15 414.3 359.86 413.94 354.47 412.23 349.24 412.64 343.67 411.67 338.33 412.81 333.86 415.2 334.35 416.8 333.98 421.25 337.89 423.23 343.49 424.9 348.97 427.51 354.38"/>
            <polygon class="cls-1" points="280.86 440.51 278.33 445.69 276.27 446.17 271.16 444.21 268.29 440.3 273.21 437.49 276.41 432.66 279.75 434.81 280.86 440.51"/>
            <polygon class="cls-1" points="205.28 416.99 201.77 419.82 200.36 424.08 196.41 424.65 192.81 422.62 192.46 418.68 195.45 415.5 197.86 411.92 201.12 410.46 204.36 413 205.28 416.99"/>
            <polygon class="cls-1" points="219.59 427.67 216.51 432.49 210.85 433.83 207.79 432.94 208.12 426.23 212.8 421.59 217.58 423.91 219.59 427.67"/>
            <polygon class="cls-1" points="236.56 435.89 236.55 439.82 232.4 444.22 227.26 447.24 223.01 444.14 224.37 438.48 227.46 433.31 229.59 432.32 236.56 435.89"/>
            <polygon class="cls-1" points="286.98 464.65 286.15 467.88 283.31 468.91 278.91 465.25 283.4 459.25 286.98 464.65"/>
            <polygon class="cls-1" points="298.74 443 295.45 448.99 290.32 452.77 287.75 449.45 288.54 444.73 294.67 441.23 298.74 443"/>
            <polygon class="cls-1" points="264.11 424.14 262.32 430.22 262.07 436.43 259.42 438.26 253.24 437.44 251.42 432.45 253.29 425.56 258.65 421.12 264.11 424.14"/>
            <polygon class="cls-1" points="246.79 417.81 244.94 422.3 243.92 426.89 241.36 428.33 235.61 425.03 232.69 418.8 238 415.43 241.57 410.15 246.44 413.07 246.79 417.81"/>
            <polygon class="cls-1" points="229.7 407.11 229.15 412.23 229.59 417.48 225.39 418.05 220.64 416.91 216.14 415.31 216.75 411.39 220.01 407.66 223.75 404.38 226.39 400.04 229.91 401.96 229.7 407.11"/>
            <polygon class="cls-1" points="215.7 397.47 213.26 402.8 210.65 408.03 204.43 407.02 200.81 401.36 204.11 397.35 207.33 393.3 210.89 391.21 215.45 389.42 215.65 393.29 215.7 397.47"/>
            <polygon class="cls-1" points="273.46 455.68 270.85 460.81 267.27 465.35 265.3 465.37 259.17 464.25 258.41 459.44 261.78 455.24 265.96 451.72 270.73 451.34 273.46 455.68"/>
            <polygon class="cls-1" points="254.48 447.28 251.61 451.11 246.92 455.91 243.5 457.45 240.11 453.89 241.32 450.94 241.73 444.84 245.63 442.25 250.04 444.8 254.48 447.28"/>
            <polygon class="cls-1" points="351.43 472.92 350.03 476.92 347.61 482.18 342.41 484.56 339.2 489.13 333.8 491.34 331.2 496.46 327.21 500.16 322.79 503.59 319.92 508.31 318.24 513.74 314.12 516.93 309.01 516.98 303.86 515.31 298.5 514.58 293.41 512.25 287.96 511.91 282.46 512.43 277.15 510.65 271.75 509.49 266.29 509.26 260.82 509.77 255.37 510.36 249.94 509.28 244.51 509.94 239.13 509.14 233.71 509.2 228.53 507.75 222.89 507.19 220.4 502.14 215.52 498.92 212.71 494.34 210.37 489.39 207.05 485.15 202.62 481.87 198.97 477.98 196.41 473.01 191.43 470.44 187.07 465.87 188.67 472.52 189.12 478.78 183.95 478.19 178.67 474.81 174.77 469.89 172.09 464.04 174.06 457.83 176.79 453.54 180.89 450.06 182.85 445.29 185.26 440.79 187.37 436.09 190.56 433.06 194.92 434.97 199.96 437.34 204.22 440.79 208.37 443.94 212.42 447.27 215.93 451.36 220.56 453.86 225.41 454.49 230.37 454.37 233.4 459.58 237.42 464.1 243.16 464.89 248.1 467.74 253.83 468.33 259.27 469.76 264.4 472.39 270.22 472.89 275.57 474.85 281.1 476.29 285.99 479.79 292.45 480.64 287.4 483.63 282.17 484.1 277.68 486.36 277.66 488.63 282.6 490.84 288 490.83 293.43 491.21 298 487.81 302.99 486.38 308.02 484.41 311.36 480.06 315.4 476.62 318.62 472.39 322.53 468.76 326.26 464.94 329.69 460.82 332.18 456.06 335.32 451.77 338.93 447.91 343 445 347.52 445.21 349.54 450.85 345.49 454.38 344.73 459.8 341.27 463.68 339.34 468.45 334.94 471.8 339.57 475.63 343.2 470.53 347.99 470.15 351.43 472.92"/>
            <path class="cls-1" d="M410.2,335.03l3.3-1.94-.82-.7-.76-1.08-4.37-3.84-4.75-3.25-4.58-3.49-5.82-1.47-3.75-4.82-5.28-2.34-4.76-3.19-4.99-2.25-5.3-1.64-4.27-3.55-5.03-2.17-4.53-3.05-4.86-2.46-4.24-3.5-5.07-2.12-4.13-3.66-4.35-3.29-5.58-1.4-3.46-4.62-5.2-2.01-3.69-4.24-5.19-2.06-4.99-2.38-3.14-4.97-4.53-3.01-5.7-1.44-3.98-3.8-3.56-4.34-4.52-1.78,2.09,5.56,3.86,4.47,3.02,4.85-3.93-3.61-5.51-1.31-5.47-1.38-5.41-1.88-5.9.36-5.35,2.16-4.49,3.59-4.38,3.83-1.62,5.61-1.82,5.28-3.53,4.67-.31,5.87-3.22,4.73-3.05,4.67-1.91,5.38-3.81,4.15-3.83,4.06-3.48,4.51-5.05,3.14-2.62,5.29-2.37,5.25-.92,5.5v5.13l1.98,5.27,3.35,4.25,4.77,3.19,2.36,4.96,3.22,5,3.74-3.75,3.5-3.12,2.23-4.65-1.42,6-2.8,4.88-3.04,4.62-1.74,5.51-3.12,4.72-4.72,3.36-3.11,4.37,5.31,2.85,5.19,3.2,4.9,3.59,3.97,4.95,4.62,2.07,4.26,2.61,4.6,2.06,3.62,3.54,4.17,3.19,1.51,5.27,5.45.07,5.2,1.43,2.97,4.63,5.04,1.93,3.13,4.39,5.51,1.29,3.76,4.47,5.53,1.54,5.58-1.75,5.55.12,5.25-1.91,4.4-3.4,3.42-4.24.83-6.05-2.9-6.47-5.19-1.63-5.11-1.88-3.5-4.82,3.36-4.79,6.17,1.25,4.92,2.45,4.53,3.28,2.37,5.04,3.08,4.46,5.04,2.83,1.91,5.41,4.39,3.37,3.36,3.96,4.29,3.16,5.28.79,5.18.21,5.13-.33,5.01-1.1,4.95-1.37,4.58-2.32,4.29-2.75,5.16-2.04,2.56-4.73,1.42-4.49-1.56-5.24-.52-5.39-.77-5.78,3.02-4.93,2.79-5.03,4.82-3.4,2.09-5.49,2.75-4.78,3.07-4.72-.13-5.61,1.53-5.6-2.66-5.14-1.15-5.53-.72-5.93,2.58-3.95,6.52-1.45ZM298.45,309.26l-4.55,2.84-4.82,2.41-4.51,2.92-.54.54-3.71,3.94-3.65,4.01-3.48,4.17-3.81,3.85-4.02,3.66-3.71,3.96-3.66,4.01-3.84,3.86-3.54,4.14-.39,2.72-.21.07,4.45.69,3.81-4.46,4.23-4.1,3.67-4.57,4.02-4.3,3.81-4.48,3.41-4.83,4.35-3.43,4.24-3.45,4.4,1.19,1.47,5.41,1.1,5.55.3,5.66-.89,5.62.23,5.69-1.15,5.56-1.07,5.56-1.35,5.5-1.74,5.39-2.5,5.09-2.84,4.9-4.26,3.69-5.21,1.73-4.57-1.2-3.66-3.23-2.29-4.27,2.5-7.63-4.45-3.32-4.47,2.82-4.34,3.01-3.23-.57-2.91-4.27-2.88-4.42-.93-5.18-.42-5.22,2.8-5,3.24-4.65,3.37-4.6,3.7-4.34-.92-4.32-6.18-2.66-6.23-2.57-3.69-3.98-2.82-4.67-.55-5.45,1.17-5.21,1.59-4.99,2.46-4.63,2.08-4.79,1.91-4.86,2.7-4.53,1.6-5.03,2.51-4.61,2.87-4.72,4.38-3.3,4.95-2.29,5.32-1.63,5.59-.08,5.36,1.54,5.03,1.65,4.58,2.65,4.11,3.32,3.61,3.95,2.13,4.93.91,5.3.18,5.64.19,5.64,3.88,3.04.19,4.98-4.41,3.04ZM387.45,362.41l-.81,5.32-1.75,5.12-2.69,4.69-3.02,4.49-3.87,3.79-4.11,3.48-4.73,2.54-5.2,2.31-5.65.66-5.69.5-5.54-1.38-5.43-1.71-5.11-2.54-4.81-3.06-4.58-3.4-4.25-3.7-3.52-4.4-3.49-4.37-3.03-4.76-1.5-5.42-1.2-5.47-.24-5.62.75-4.98.81-4.98,1.67-4.78,2.59-4.33,3.01-3.99,4.65-.55,1.02,4.63-2.2,4.38-1.94,4.52-1.15,4.78-.73,4.85,3.24,3.92,3.7-3.33,1.02-5.11,1.25-5.05,1.88-4.85,2.2-4.7,2.64-4.49,3.32-4,.07-3.94-3.24-1.78-2.52.15-3.43-2.31.79-3.95,3.69-2.88,4.13-2.18,4.46-1.43,5.61.71,5.54,1.06,5.21,2.19,4.73,3.09,4.47,3.41,4.37,3.58,3.91,4.09,3.21,4.67,3.3,4.58,2.49,5.07,2.38,5.11,1.89,5.31,1.27,5.49.9,5.59-.74,5.36Z"/>
          </g>
          <path d="M450.17,461.69l-6.19,1.2-6.27-.74-5.23-3.2-1.95-5.81-.56-6.15.49-6.16,2.07-5.32,2.9-4.9,3.45-4.56,4.34-3.72,4.8-3.09,5.31-2.07,5.67-.53,5.54,1.36,4.41,3.62,2.86,4.73.89,5.48-.87,5.51-1.91,5.26-2.84,4.83-3.48,4.39-3.97,3.95-4.51,3.31-4.94,2.61ZM443.33,453.21l5.42-.73,5.12-1.94,4.53-3.11,3.59-4.15,2.58-4.82,1.25-5.31-2.73-.87-2.95,4.71-3.37,4.43-4.24,3.61-4.66,3.04-5.05,2.34.52,2.8Z"/>
          <g>
            <path d="M302.67,301.24l-3.88-3.04-.19-5.64-.18-5.64-.91-5.3-2.13-4.93-3.61-3.95-4.11-3.32-4.58-2.65-5.03-1.65-5.36-1.54-5.59.08-5.32,1.63-4.95,2.29-4.38,3.3-2.87,4.72-2.51,4.61-1.6,5.03-2.7,4.53-1.91,4.86-2.08,4.79-2.46,4.63-1.59,4.99-1.17,5.21.55,5.45,2.82,4.67,3.69,3.98,6.23,2.57,6.18,2.66.92,4.32-3.7,4.34-3.37,4.6-3.24,4.65-2.8,5,.42,5.22.93,5.18,2.88,4.42,2.91,4.27,3.23.57,4.34-3.01,4.47-2.82,4.45,3.32-2.5,7.63,2.29,4.27,3.66,3.23,4.57,1.2,5.21-1.73,4.26-3.69,2.84-4.9,2.5-5.09,1.74-5.39,1.35-5.5,1.07-5.56,1.15-5.56-.23-5.69.89-5.62-.3-5.66-1.1-5.55-1.47-5.41-4.4-1.19-4.24,3.45-4.35,3.43-3.41,4.83-3.81,4.48-4.02,4.3-3.67,4.57-4.23,4.1-3.81,4.46-4.45-.69.21-.07.39-2.72,3.54-4.14,3.84-3.86,3.66-4.01,3.71-3.96,4.02-3.66,3.81-3.85,3.48-4.17,3.65-4.01,3.71-3.94.54-.54,4.51-2.92,4.82-2.41,4.55-2.84,4.41-3.04-.19-4.98ZM263.07,282.77l-3.7,5.1-2.97,5.5-.17,1.19-3.77,1.07-1.76-3.56,2.43-5.67,1.96-5.83,2.87-4.04,3.98-3.07,3.59,3.51-2.46,5.8Z"/>
            <polygon class="cls-1" points="265.53 276.97 263.07 282.77 259.37 287.87 256.4 293.37 256.23 294.56 252.46 295.63 250.7 292.07 253.13 286.4 255.09 280.57 257.96 276.53 261.94 273.46 265.53 276.97"/>
          </g>
          <polygon points="388.19 357.05 387.45 362.41 386.64 367.73 384.89 372.85 382.2 377.54 379.18 382.03 375.31 385.82 371.2 389.3 366.47 391.84 361.27 394.15 355.62 394.81 349.93 395.31 344.39 393.93 338.96 392.22 333.85 389.68 329.04 386.62 324.46 383.22 320.21 379.52 316.69 375.12 313.2 370.75 310.17 365.99 308.67 360.57 307.47 355.1 307.23 349.48 307.98 344.5 308.79 339.52 310.46 334.74 313.05 330.41 316.06 326.42 320.71 325.87 321.73 330.5 319.53 334.88 317.59 339.4 316.44 344.18 315.71 349.03 318.95 352.95 322.65 349.62 323.67 344.51 324.92 339.46 326.8 334.61 329 329.91 331.64 325.42 334.96 321.42 335.03 317.48 331.79 315.7 329.27 315.85 325.84 313.54 326.63 309.59 330.32 306.71 334.45 304.53 338.91 303.1 344.52 303.81 350.06 304.87 355.27 307.06 360 310.15 364.47 313.56 368.84 317.14 372.75 321.23 375.96 325.9 379.26 330.48 381.75 335.55 384.13 340.66 386.02 345.97 387.29 351.46 388.19 357.05"/>
          <polygon points="515.55 390.56 516.98 385.26 518.57 380.02 520.52 374.89 522.2 369.68 523.8 364.45 525.47 359.23 527.1 354 528.47 348.69 530.18 343.47 531.82 338.24 533.5 333.02 535.35 327.83 536.75 322.5 539.47 322.76 540.16 328.1 540.06 333.48 540.24 338.85 539.93 344.22 539.3 349.56 538.1 354.81 536.9 360.05 535.27 365.18 533.08 370.1 530.84 374.99 527.94 379.52 524.74 383.83 521.57 388.2 517.74 391.99 515.55 390.56"/>
          <path d="M352.3,239.74l-.46-6.04-.35-6.05-.55-6.05-.34-6.06,2.32-3.63,4.83-1.33,4.82-1.4,4.81-1.46,4.77-1.59,4.33,2.8.91,5.46.79,5.49,1.07,5.46.86,5.49-2.24,3.75-5.22,2.03-5.2,2.11-5.25,2.01-5.24,2.02-4.67-2.98ZM367.48,215.39l-5.22,4.35-3.51,5.76,2.39,3.72,3.95,1.92,4.11-3.05,2.63-4.36-1.14-4.89-3.2-3.45Z"/>
        </g>
      </g>
      <g>
        <g>
          <path class="cls-1" d="M12.72,379.69l.66,23.59-11.69.33-1.69-60.37,11.69-.33.66,23.49,58.27-1.63.37,13.29-58.27,1.63Z"/>
          <path class="cls-1" d="M69.03,338.53l-6.24-6.35c-6.34,4.01-14.89,5.67-25.7,3.66l-3.74-.7c-23.6-4.39-30.94-21.22-27.7-38.62,1.1-5.9,3.34-11.38,6.69-15.74l-6.15-6.33,6.93-6.64,6.32,6.47c6.46-4.09,15-5.75,25.92-3.72l3.74.7c23.6,4.39,30.96,21.12,27.72,38.52-1.12,6-3.36,11.48-6.83,15.92l5.89,6.08-6.85,6.76ZM53.38,322.6l-32.47-33.2c-1.67,2.44-2.85,5.47-3.56,9.3-2.32,12.49,2.83,19.75,15.91,22.19l9.04,1.68c4.33.81,7.99.78,11.08.03ZM65.13,307.6c2.32-12.49-2.85-19.65-15.93-22.09l-9.05-1.68c-4.42-.82-8.19-.81-11.3.03l32.57,33.22c1.77-2.42,2.97-5.55,3.7-9.48Z"/>
          <path class="cls-1" d="M20.79,240.07l6.32-13.71,58.84-9.86.29-.64-44.77-20.65,5.57-12.08,63.56,29.32-6.32,13.71-58.84,9.86-.29.64,44.77,20.65-5.57,12.08-63.56-29.32Z"/>
          <path class="cls-1" d="M114.77,160.03l-11.88,11.01c-8.74,8-17.83,8.86-25.44,2.84l-1.96-1.55c-9.34-7.38-9.1-19.94,1.87-33.83,11.41-14.44,22.57-16.96,35.2-7.62l-7.93,10.04-1.47-1.04c-5.29-3.79-10.89-2.35-17.09,5.49-6.57,8.32-6.54,13.44-2.46,16.66l.79.62c3.85,3.04,6.87,2.11,11.75-2.45l11.96-10.94c9.75-9.12,18.65-9.74,26.5-3.54l2.35,1.86c9.42,7.44,9.5,20.25-2.1,34.92-12.52,15.85-24.34,18.88-38.07,8.67l8.06-10.2,1.48,1.04c6.53,4.65,12.59,2.3,19.59-6.57,6.57-8.32,7.35-13.82,2.72-17.48l-.79-.62c-3.77-2.98-7.34-2.48-13.07,2.67Z"/>
          <path class="cls-1" d="M113.69,98.88l28-22.47c9.91-7.95,20.74-10.1,28.06-.98l2.44,3.04c4.07,5.07,3.89,11.88-1.65,17.6l.44.55c8.19-5.29,15.03-4.11,20.04,2.13l3,3.74c8.14,10.14,2,20.07-8.06,28.14l-28.47,22.84-43.81-54.6ZM159.84,99.03c4.76-3.82,4.78-7.94,2.09-11.29l-1.5-1.87c-2.82-3.51-6.78-4.3-11.54-.48l-17.63,14.14,10.95,13.65,17.63-14.14ZM179.7,120.91c4.76-3.82,4.53-8.25,1.72-11.76l-1.56-1.95c-2.82-3.51-7.1-4.69-11.85-.87l-19.03,15.27,11.7,14.58,19.03-15.27Z"/>
          <path class="cls-1" d="M181.75,48.65l47.27-23.08,5.13,10.51-35.32,17.24,7.55,15.46,33.25-16.24,4.87,9.97-33.25,16.24,8.03,16.44,35.77-17.46,5.13,10.51-47.72,23.3-30.72-62.9Z"/>
          <path class="cls-1" d="M250.51,17.77l35.12-8.36c12.26-2.92,23.46-.75,26.59,12.38l1.02,4.28c1.9,7.98-1.03,13.81-8.87,16.71l.16.68c6.95-1.04,11.71.81,13.6,8.79l1.53,6.42c.97,4.08,2.13,8.95,4.26,13.58l-12.94,3.08c-2.13-4.63-3.2-9.11-4.1-12.9l-.99-4.18c-1.44-6.03-3.85-7.51-9.97-6.06l-22.28,5.3,6.02,25.29-12.94,3.08-16.21-68.1ZM292.99,40.76c6.32-1.5,8.11-5.22,7-9.89l-1.04-4.38c-1.09-4.57-4.38-7.18-10.71-5.68l-22.08,5.26,4.75,19.94,22.08-5.26Z"/>
          <path class="cls-1" d="M331.53,37.93l.02-3.8C331.67,10.13,346.92-.09,364.62,0c19.5.1,30.75,9.66,30.66,26.16l-13.2-.07-.09-1.8c-.26-7.2-5.34-12.33-17.44-12.39-12.7-.07-18.93,6.3-19,19.6l-.05,9.2c-.07,13.5,6.6,20.03,19.1,20.1,12.8.07,18.12-4,18.88-15.7l-19.4-.1.05-10.3,31.4.16-.19,36.5-8.6-.04-2.55-9.91h-.7c-3.14,7.58-9.96,11.04-20.76,10.99-16.5-.08-31.35-10.46-31.22-34.46Z"/>
        </g>
        <g>
          <path class="cls-1" d="M139.1,610.94l-9.97-12.76c-7.24-9.39-7.32-18.51-.69-25.59l1.71-1.82c8.14-8.68,20.63-7.39,33.55,4.71,13.43,12.58,15,23.92,4.63,35.72l-9.34-8.75,1.16-1.38c4.23-4.95,3.26-10.65-4.04-17.48-7.74-7.25-12.84-7.65-16.4-3.85l-.68.73c-3.35,3.58-2.68,6.67,1.45,11.91l9.9,12.84c8.27,10.49,8.13,19.4,1.29,26.7l-2.05,2.19c-8.21,8.76-20.97,7.76-34.62-5.03-14.74-13.81-16.76-25.84-5.43-38.66l9.49,8.89-1.16,1.38c-5.18,6.11-3.35,12.35,4.9,20.08,7.74,7.25,13.15,8.49,17.19,4.18l.68-.73c3.28-3.5,3.09-7.1-1.56-13.25Z"/>
          <path class="cls-1" d="M167.08,668.51l-11.45-6.76,35.6-60.27,11.45,6.76-16.58,28.07.6.36,43.27-12.3,13.95,8.24-37.43,10.87-.36.6,4.17,49.97-13.78-8.14-3.18-37.88-.6-.36-16.11,4.66-9.56,16.19Z"/>
          <path class="cls-1" d="M267.01,639.85l14.56,4.71,4.51,75.04-13.99-4.53-.88-17.73-27.59-8.93-11.1,13.85-13.51-4.37,48-58.04ZM270.58,685.67l-1.48-28.23-.57-.18-17.64,22.04,19.69,6.37Z"/>
          <path class="cls-1" d="M319.57,664.89l-23.41-3.01,1.49-11.6,59.91,7.7-1.49,11.6-23.31-3-7.43,57.82-13.19-1.69,7.43-57.82Z"/>
          <path class="cls-1" d="M362.64,657.55l52.46-3.79.84,11.67-39.2,2.83,1.24,17.16,36.91-2.67.8,11.07-36.9,2.67,1.32,18.25,39.7-2.87.84,11.67-52.96,3.82-5.04-69.82Z"/>
          <path class="cls-1" d="M422.54,652.55l34.41-10.23c12.17-3.62,23.02-1.52,26.35,9.69l1.11,3.74c1.85,6.23-.89,12.47-8.17,15.68l.2.67c9.58-1.8,15.47,1.87,17.75,9.54l1.37,4.6c3.7,12.46-5.73,19.33-18.09,23.01l-34.99,10.4-19.94-67.1ZM465.21,670.12c5.85-1.74,7.43-5.54,6.2-9.67l-.68-2.3c-1.28-4.31-4.66-6.54-10.5-4.81l-21.66,6.44,4.98,16.77,21.66-6.44ZM475.34,697.89c5.85-1.74,7.31-5.93,6.03-10.24l-.71-2.4c-1.28-4.31-4.8-7.02-10.65-5.29l-23.39,6.95,5.33,17.92,23.39-6.95Z"/>
          <path class="cls-1" d="M559.36,628.88l1.91,3.29c12.04,20.76,4.15,37.25-11.16,46.13-15.31,8.88-33.63,7.6-45.67-13.16l-1.91-3.29c-12.04-20.76-4.06-37.29,11.25-46.18,15.31-8.88,33.54-7.55,45.58,13.21ZM544.13,668c10.99-6.37,13.05-14.97,6.38-26.47l-4.62-7.96c-6.67-11.5-15.16-13.98-26.15-7.61-10.99,6.37-13.14,15.02-6.46,26.52l4.62,7.96c6.67,11.5,15.25,13.93,26.23,7.56Z"/>
          <path class="cls-1" d="M562.74,581.76l11.17-10.46,67.85,32.36-10.73,10.05-15.95-7.81-21.17,19.83,6.75,16.42-10.37,9.71-27.56-70.1ZM604.57,600.82l-25.42-12.37-.44.41,10.75,26.11,15.11-14.15Z"/>
          <path class="cls-1" d="M595.95,549.14l20.14-29.96c7.03-10.46,16.73-16.47,27.94-8.94l3.65,2.45c6.81,4.57,8.61,10.85,4.81,18.3l.58.39c4.4-5.48,9.15-7.34,15.96-2.77l5.48,3.68c3.49,2.34,7.64,5.13,12.34,7.09l-7.42,11.04c-4.71-1.96-8.53-4.53-11.76-6.7l-3.57-2.4c-5.15-3.46-7.92-2.91-11.44,2.31l-12.77,19.01,21.58,14.5-7.42,11.04-58.1-39.05ZM642.75,537.22c3.62-5.4,2.42-9.34-1.56-12.02l-3.74-2.51c-3.9-2.62-8.09-2.3-11.72,3.09l-12.66,18.84,17.02,11.43,12.66-18.84Z"/>
          <path class="cls-1" d="M685.49,446.23l3.56,1.33c22.48,8.41,25.95,25.09,19.92,41.2l-10.3,27.54-65.56-24.53,10.3-27.53c6.03-16.11,19.6-26.41,42.07-18ZM697.39,486.34c4.35-11.61,1.74-20.06-10.71-24.72l-8.62-3.22c-12.46-4.66-19.97,0-24.31,11.62l-5.01,13.39,43.64,16.33,5.01-13.39Z"/>
          <path class="cls-1" d="M727.27,422.07l-1.72,13.19-69.42-9.06,1.72-13.19,32.33,4.22.09-.69-28.32-34.96,2.1-16.07,24.71,30.15.69.09,44.31-23.46-2.07,15.87-33.59,17.8-.09.69,10.61,12.98,18.64,2.43Z"/>
          <path class="cls-1" d="M663.01,359.89l-.97-13.27,58.15-4.24-2.62-36.01,11.67-.85,3.59,49.27-69.82,5.09Z"/>
          <path class="cls-1" d="M701.89,293.98l-42.94,12.42-3.7-12.78,40.06-11.59c13.16-3.81,15.27-9.83,11.99-21.17-3.31-11.43-8.31-15.4-21.47-11.59l-40.06,11.59-3.7-12.78,42.94-12.42c15.08-4.36,27.62.13,33.91,21.84,6.25,21.61-1.95,32.11-17.03,36.47Z"/>
          <path class="cls-1" d="M638.16,239.1l-17.72-31.22c-6.27-11.04-6.67-22.08,3.5-27.86l3.39-1.93c5.65-3.21,12.35-1.95,17.12,4.42l.61-.35c-3.92-8.93-1.67-15.49,5.29-19.44l4.17-2.37c11.3-6.42,20.12,1.22,26.49,12.44l18.02,31.74-60.87,34.56ZM645.65,193.57c-3.01-5.3-7.08-5.99-10.82-3.86l-2.09,1.19c-3.91,2.22-5.32,6.01-2.31,11.32l11.16,19.65,15.21-8.64-11.16-19.65ZM670.42,177.44c-3.01-5.3-7.42-5.79-11.34-3.57l-2.17,1.23c-3.91,2.22-5.76,6.26-2.75,11.56l12.05,21.22,16.26-9.23-12.05-21.22Z"/>
          <path class="cls-1" d="M603.05,179.81l-24.43-26.3c-8.64-9.3-11.57-19.96-3-27.92l2.86-2.65c4.76-4.42,11.57-4.74,17.67.37l.51-.48c-5.87-7.79-5.19-14.7.67-20.14l3.52-3.27c9.53-8.85,19.87-3.44,28.65,6.01l24.84,26.74-51.29,47.64ZM599.87,133.77c-4.15-4.47-8.27-4.2-11.42-1.27l-1.76,1.63c-3.3,3.06-3.8,7.08.35,11.54l15.38,16.56,12.82-11.91-15.38-16.56ZM620.26,112.37c-4.15-4.47-8.56-3.92-11.86-.86l-1.83,1.7c-3.3,3.06-4.17,7.42-.01,11.89l16.6,17.88,13.7-12.73-16.6-17.88Z"/>
        </g>
        <path class="cls-2" d="M480.8,57.44c-1.11-.08-4.49-1.81-5.27-2.18-1.17-.56.34-6.06,1.64-6.1l21.82-.7,1.97-19.78c.1-.97,2.19-3.54,2.92-4.19,1.09-.98,4.64,2.77,4.69,4.31l.6,20.03,20.97,1.6c1.03.08,3.71,3.02,4.27,3.87.76,1.15-2.83,3.6-4.41,3.65l-21.34.69-1.17,20.32c-.07,1.13-1.82,4.39-2.42,5.39s-5.74-.55-5.78-1.72l-.71-23.98-17.78-1.21Z"/>
        <path class="cls-2" d="M33.9,499.2c-1.11-.08-4.49-1.81-5.27-2.18-1.17-.56.34-6.06,1.64-6.1l21.82-.7,1.97-19.78c.1-.97,2.19-3.54,2.92-4.19,1.09-.98,4.64,2.77,4.69,4.31l.6,20.03,20.97,1.6c1.03.08,3.71,3.02,4.27,3.87.76,1.15-2.83,3.6-4.41,3.65l-21.34.69-1.17,20.32c-.07,1.13-1.82,4.39-2.42,5.39s-5.74-.55-5.78-1.72l-.71-23.98-17.78-1.21Z"/>
      </g>
    </g>
  </g>
</svg>