<?xml version="1.0" encoding="UTF-8"?>
<svg id="Layer_2" data-name="Layer 2" xmlns="http://www.w3.org/2000/svg" viewBox="0 0 130.82 136.73">
  <g id="Layer_1-2" data-name="Layer 1">
    <g>
      <path d="M126.49,117.2l.62,1.59.72,1.7-.54,1.75-1.02,1.48-.89,1.54-1.36,1.16-1.31,1.17-1.48.96-1.19,1.31-1.35,1.14-1.37,1.17-1.82.32-1.8.19-1.94-.17-1.49-1.34-1.28-1.19-.83-1.62-1.48-1-1.4-1.08-.93-1.54-1.36-1.04-1.62.24-1.71-.34-1.56-.68-1.22-1.21-.99-1.42-1.1-1.31-1.07-1.34-1.58-.87-.78-1.62-1.44-1.01-.87-1.48-.84-1.39-.8-1.51-.95-1.43-1.24-1.18-1.36-1.17-.89-1.61-1.23-1.29-1.38-1.14-1.46-1.07-.86-1.64-1.7-.84-1.02-1.5-1.01-1.5-1.63-.92-.82-1.69-1.38-1.16-1.19-1.33-1.47-1.08-1.07-1.26-1.04,1.22-1.14,1.32-1.65.85-.99,1.47-1.26,1.22-.94,1.51-1.18,1.29-1.52.96-.87,1.58-1.24,1.24-1.71.78-.68,1.77-1.26,1.22-1.56.93-1.16,1.31-.97,1.5-1.68.96.07,2.19-.73,1.9-1.01,1.42-1.65.8-1.02,1.39-.93,1.47-1.38,1.05-1.14,1.28-1.03,1.39-1.07,1.35-1.79.48-1.57.95-1.71-.2-1.15,1.28-1.07,1.39-1.42,1.07-1.15,1.33-1.19,1.28-1.33,1.16-.98,1.49-1.03,1.44-1.75,1.08-1.87.67-1.87-.44-1.65-.83-1.8-.56-1.44-1.2-1.39-1.22-1.65-.91-1.61-1.02-1.24-1.42-.77-1.77-1.22-1.41-.94-1.61-.34-1.83-.39-1.84.64-1.77,1.18-1.39,1.09-1.37,1.36-1.1.88-1.57,1.55-.93,1.12-1.34,1.34-1.13,1.24-1.23,1.2-1.41-.24-1.86-.45-1.85,1.37-1.24,1.24-1.22,1.43-1.04,1-1.46,1.48-1,.96-1.49,1.06-1.4,1.54-.95.87-1.71,1.73-.28,1.62-.18,1.55-.9.91-1.55,1.1-1.37,1.06-1.41,1.52-.98.9-1.56,1.15-1.33,1.35-1.14,1.59-.91,1.12-1.35,1.24-1.25,1.12-1.36.75-1.7,1.23-1.26,1.46-1.04,1.37-1.13.82-1.65,1.46-1.07-1.41-1.16-.88-1.64-1.54-1.02-1.4-1.16-1.19-1.35-1.21-1.33-.95-1.57-1.6-.96-.79-1.73-1.11-1.42-1.66-.91-1.16-1.39-1.37-1.18-1.14-1.4-1.1-1.44-1.29-1.27-1.38-.91-1.13-1.2-1.38-1.05-1.76.08-1.17-1.44-1.3-1.32-1.16-1.45-1.2-1.41-1.36-1.27-1.57-1.07-1.28-1.35-1.37-1.26-1.05-1.58.1-1.65-.11-1.5-.8-1.5-1.26-1.25-1.13-1.37-1.68-.84-1.12-1.4-1.08-1.43-1.39-1.12-1.48-1.04-.82-1.7-.7-1.51-.19-1.75.33-1.86,1.39-1.33.6-1.85,1.58-1.08,1.29-1.3,1.32-1.28,1.41-1.18,1.15-1.52,1.81-.65,1.56-.96,1.35-1.33,1.86-.27,1.73.66,1.3,1.32,1.04,1.6,1.71.95.89,1.74,1.45,1.2,1.56,1.1,1.07,1.57,1.17,1.48,1.45,1.13,1.51.11,1.71-.6,1.4,1.53,1.35,1.36,1.28,1.43.92,1.78,1.54,1.18,1.69,1.04,1.25,1.47,1.1,1.73.25,2.05,1.02,1.74,1.11,1.38,1.62.89,1.11,1.37.97,1.5,1.09,1.39,1.29,1.2,1.03,1.44,1.53.97,1.39,1.1.86,1.6,1.07,1.41,1.6.91,1.34,1.15.95,1.53,1.42,1.07,1.06,1.42,1.11,1.38,1.22,1.06,1.25-1.09,1.33-1.24.91-1.63,1.55-1.02,1.49-1.08,1.21-1.34,1.28-1.29,1.1-1.47.9-1.66,1.81-.82.88-1.71,1.23-1.39,1.34-1.27,1.4-1.22,1.47-1.16,1.13-1.48,1.24-1.38,1.09-1.53,1.58-1.08.11-2.06,1.44-1.35.88-1.66,1.25-1.31,1.34-1.23,1.41-1.16,1.46-1.11,1.26-1.31,1.12-1.44,1.6-.71,1.71-.66,1.66-.1,1.56-.71,1.24-1.15.72-1.66,1.31-1.09,1.5-.91.94-1.45.96-1.44,1.82-.49,1.61-1.01,1.67.84,1.83.42,1.35,1.24,1.28,1.28,1.79.67,1.01,1.57,1.45,1.11,1.14,1.42.5,1.82.91,1.51,1.01,1.62-.39,1.86-.81,1.69-1.38,1.33-1.62,1.11-1.07,1.62-1.17,1.53-1.27,1.44-1.46,1.24.35,1.49-.25,1.62-.61,1.47-1.45,1.17-1.22,1.39-.8,1.78-1.76.88-1.09,1.51-1.33,1.29-1.45,1.18-.82,1.81-1.46,1.1-1.6.87-1.7.77-.93,1.56-1.2,1.29-1.25,1.24-1.03,1.44-1.31,1.19-1.3,1.19-1.09,1.39-1.25,1.24-1.5,1.01-1.35,1.15-.96,1.52-1.17,1.33-1,1.4-1.54.91-.79,1.6-1.07,1.34-1.6.86-1.13,1.3-.65,1.36,1.05,1.2,1.24,1.37,1.32,1.29,1.16,1.45,1.15,1.45,1.05,1.55,1.28,1.34,1.63,1.01,1.11,1.43,1.53,1.04.9,1.64,1.51,1.06,1.31,1.25.8,1.73,1.78.81.94,1.61,1.09,1.49,1.77.6,1.37,1.1,1.16,1.38,1.61.83,1.19,1.26,1.18,1.24.74,1.64,1.2,1.22,1.23,1.19,1.28,1.16.8,1.46-.11,1.75-.26,1.76.84,1.46,1.55.84,1.22,1.17.75,1.62,1.67.73,1.03,1.35,1.09,1.3ZM13.8,26.87l1.37-1.13.74-1.72,1.25-1.26,1.39-1.12,1.15-1.36,1.47-1.02,1.37-1.12,1.49-.97,1.15-1.38,1.24-1.15-1.4-1.06-.81-1.67-1.07-1.42-1.6-.93-1.18-1.32-1.29-1.22-.83-1.65-1.49-1.04-1.34-1.05-1.46.55-1.4,1.2-1.62.87-1.59.95-1.22,1.39-1.24,1.34-1.39,1.22-1.19,1.4-1.15,1.46-.46,1.72.84,1.6,1.51,1.01.98,1.53,1.47,1.05,1.22,1.29,1.19,1.32,1.35,1.17,1.38,1.15,1.16,1.35ZM119.7,24.48l1.38-1.06.72-1.69,1.2-1.25,1.32-1.13,1.04-1.39,1.37-1.1,1.26-1.25-.69-1.82-1.23-1.36-1.2-1.35-1.36-1.18-.85-1.66-1.26-1.32-1.78-.61-1.53-.91-1.48-.64-1.53.82-.94,1.49-1.01,1.41-1.48.95-1.01,1.42-1.36,1.08-1.43,1.13,1.68,1.19,1.47,1.07,1.23,1.35,1.27,1.28,1.18,1.36,1.65.94.79,1.71,1.44,1.16,1.14,1.39ZM109.75,39.34l1.37-1.04.71-1.66,1.19-1.22,1.31-1.1,1.03-1.36,1.35-1.07,1.23-1.19,1.41-1.18-1.21-1.82-1.14-1.48-1.29-1.35-.69-1.81-1.07-1.55-1.66-.99-1.31-1.3-1.47-1.12-1.16-1.54-1.75-.74-1.72-.73-1.5-1.22-1.07,1.46-1.4,1.1-1.42,1.08-1.09,1.41-1.2,1.3-1.42,1.08-1.31,1.2-1.42,1.28,1.97.89,1.21,1.36,1.65.67,1.18,1.33,1.55.85,1.29,1.18,1.2,1.26,1.31,1.16,1.3,1.19.75,1.64,1.06,1.37,1.19,1.29,1.06,1.37ZM40.73,25.84l-1.01-1.5-1.67-.87-1.2-1.32-1.08-1.44-1.36-1.18-1.05-1.48-1.17-1.36-1.15-1.54-1.74,1.2-1.37,1.12-1.25,1.26-1.73.64-1.47.99-.95,1.57-1.28,1.19-1.13,1.34-1.56.96-.84,1.59-.87,1.54-1.36,1.18-.77,1.38,1.04,1.42,1.05,1.49,1.4,1.17,1.29,1.27,1.06,1.48,1.18,1.38,1.15,1.41,1.61.91,1.2-1.14.72-1.65,1.37-1.17.88-1.56,1.2-1.3,1.28-1.22,1.17-1.33,1.2-1.32,1.65-.78,1.39-1.09,1.3-1.21,1.28-1.27,1.59-.77ZM68.48,75.25l1.51-1.13.85-1.76,1.32-1.3,1.44-1.19,1.17-1.45,1.48-1.16,1.36-1.28,1.47-1.17,1.07-1.56,1.17-1.47,1.08-1.55,1.69-.96,1.42-1.22.91-1.71,1.32-1.32,1.21-1.42,1.67-.99,1.02-1.61,1.1-1.54,1.36-1.07.51-1.63.57-1.59.12-1.75-.82-1.55-1.03-1.36-1.44-1.39-1.9-.74-2.06-.23-1.79,1.06-1.93.75-.98,1.56-1.52,1.05-1.02,1.53-1.28,1.29-1.31,1.26-1.15,1.41-1.12,1.44-1.58.99-1.25,1.32-1.09,1.46-1.02,1.54-1.62.97-.77,1.77-1.46,1.12-1.47,1.11-.86,1.7-1.67.92-1.11,1.46-1.29,1.28-1.02,1.54-1.27,1.3-1.24,1.34-1.19,1.38-1.69.9-1.03,1.52-1.3,1.27-.99,1.57-1.23,1.34-1.57,1.02-.92,1.64-1.28,1.29-1.76.84-.73,1.83-1.31,1.27-1.47,1.03-.81,1.57-.18,1.75-.57,1.75,1.15,1.46.82,1.48,1.48.89,1.35,1.31,1.84.04,1.68-.57,1.7-.46,1.34-1.17,1.05-1.4,1.09-1.37,1.64-.85.77-1.66,1.29-1.18,1.18-1.28,1.07-1.38,1.43-1.05,1.15-1.31,1.2-1.27,1.33-1.14.99-1.47,1.04-1.42,1.43-1.06,1.24-1.24ZM51.68,63.14l-1.05-1.55-1.71-.92-1.24-1.38-1.12-1.49-1.4-1.23-1.08-1.52-1.21-1.4-1.1-1.52-1.5-1.13-1.4-1.22-1.49-1.15-.87-1.73-1.14-1.48-1.66-.99-1.2-1.35-1.22.67.77,1.48,1.48,1.04,1.41,1.11.93,1.56,1.41,1.1,1.05,1.44,1.03,1.46,1.37,1.14,1.26,1.25,1.04,1.45,1.15,1.35,1.12,1.38,1.62.91.83,1.66,1.48,1.05.94,1.56,1.93.72.54-1.21-.97-1.06ZM89.58,104.99l1.07-1.01-1.61-1.03-1.05-1.31-.92-1.41-1.39-1.19-1.09-1.5-1.21-1.38-1.1-1.48-1.5-1.1-1.4-1.19-1.49-1.11-.88-1.7-1.14-1.44-1.66-.95-1.25-1.35-1.36-1.24-1-.94-.57,1.05,1.48,1.16,1.02,1.64,1.5,1.18,1.15,1.52,1.12,1.54,1.47,1.22,1.36,1.33,1.14,1.54,1.25,1.38,1.22,1.41,1.71.93.93,1.69,1.57,1.07,1.05,1.59,1.59,1.04ZM42.8,111.23l-1.09-1.48-1.73-.84-1.27-1.31-1.15-1.43-1.42-1.15-1.12-1.47-1.24-1.34-1.13-1.46-1.52-1.06-1.43-1.15-1.51-1.07-.92-1.68-1.44-1.52-1.13,1.76-1.26,1.25-1.16,1.36-1.61.92-.97,1.54-1.04,1.47-1.52,1.02-1,1.42,1.28,1.01,1.3,1.32,1.57.98,1.45,1.13,1.22,1.39,1.29,1.3,1.23,1.36,1.69.91.87,1.7,1.49,1.13.9,1.64,1.4,1.23,1.22,1.51,1.31-1.26,1.12-1.38,1.1-1.41,1.57-.97,1.22-1.29,1.07-1.44,1-1.52,1.37-1.14ZM100.98,121.28l1.6-.82,1.06-1.57,1.43-1.07,1.51-.97,1.23-1.3,1.49-1.02,1.33-1.2,1.4-1.15.93-1.57.96-1.51.8-1.61,1.46-1.36-1.09-1.43-1.57-.89-1.16-1.28-1.27-1.18-.81-1.61-1.46-1-1.39-1.07-.93-1.54-.89,1.65-1.27,1.3-1.33,1.22-1.02,1.48-1.19,1.34-1.45,1.08-1.38,1.13-1.44,1.05-1.05,1.55-1.75.65-1.25,1.33-1.83,1.18,1.55,1.18,1.22,1.32,1.19,1.35,1.35,1.2,1.38,1.17.92,1.62,1.26,1.3,1.49,1.06ZM19.87,131.78l1.42-1.06.76-1.68,1.24-1.24,1.36-1.12,1.08-1.38,1.4-1.09,1.28-1.21,1.46-1.21-1.48-1.68-1.35-1.33-1.46-1.21-.87-1.76-1.19-1.48-1.73-.92-1.37-1.29-1.5-1.13-1.16-1.58-1.68-.81-1,1.42-1.49.98-1.01,1.44-1.36,1.1-1.38,1.08-1.05,1.4-1.16,1.3-1.42,1.14,1.6,1.13,1.42.99,1.76.51,1.06,1.48,1.55.87.97,1.49,1.39,1.08,1.06,1.39.94,1.47,1.05,1.4.88,1.49ZM113.64,130.35l1.65-.58,1.16-1.42,1.44-.93,1.49-.89,1.18-1.27,1.39-1.05,1.19-1.27,1.22-1.28.64-1.74-1.37-1.19-1.44-1.09-.83-1.68-1.09-1.42-1.61-.93-1.2-1.32-1.25-1.18-1.36,1.05-.96,1.67-1.08,1.58-1.59,1.1-1.15,1.53-1.52,1.14-1.57,1.08-1.3,1.42,1.18,1.2.96,1.4,1.07,1.3,1.04,1.32,1.55.86.75,1.6,1.42.98ZM6.47,124.48l.66-1.04.99-.98-1.19-.4-1.3-.85-1.22-.54.36,1.32.47,1.5.42,1.7.8-.7ZM6.95,124.93l-.81.45,1.71,1.17,1.16,1.36,1.09,1.43,1.43,1.07,1.26,1.29,1.51,1,1.6.92h1.95s-.84-1.45-.84-1.45l-.77-1.2-1.99.34-1.3-1.45-1.78-.92-1.4-1.34-1.5-1.23-1.3-1.45Z"/>
      <polygon points="47.12 89.44 48.31 91.28 49.45 93.14 47.63 92.43 45.96 91.39 44.58 89.98 43.47 88.36 42.6 86.57 44.22 86.86 45.85 87.1 47.49 87.39 47.1 85.22 46.65 83.06 49.06 83.57 50.15 84.84 51.29 86.07 52.39 87.35 53.48 88.62 51.99 88.69 50.63 87.99 49.55 86.88 49.72 89.5 48.48 89.67 47.12 89.44"/>
      <path d="M86.28,53.86l-1.18,1.15-1.64.21-1.58-.53-1.35-.99-1.25-1.67-.41-2.02.92-1.84,1.54-.67,1.69.19,1.55.71,1.35,1.56.76,1.92-.41,1.99ZM84.86,52.88l-.32-1.82-1.14-1.52-1.4-.28-1.29.48.13,1.62,1.03,1.32,1.49.71,1.52-.52Z"/>
      <path d="M81.03,59.07l-1.05,1.38-1.7.33-1.66-.53-1.37-1.08-1-1.69-.52-1.88.88-1.66,1.67-.92,1.75.29,1.54.9,1.1,1.4.57,1.68-.2,1.77ZM79.43,58.58l-.02-1.61-.73-1.48-1.53-.62-1.53.42.16,1.54.82,1.35,1.4.57,1.44-.17Z"/>
      <polygon points="49.43 79.64 50.7 80.82 52 81.95 53.3 83.1 54.59 84.25 55.86 82.42 54.48 81.03 53.13 79.61 51.76 78.21 52.49 77.03 53.95 78.29 55.41 79.59 56.86 80.88 57.49 82.28 57.41 83.82 56.68 85.15 55.07 85.82 53.37 85.42 52.04 84.28 50.58 83.02 49.36 81.56 49.43 79.64"/>
      <polygon points="65.57 76.09 64.08 75.41 62.72 74.48 61.52 73.36 60.4 72.16 58.92 72.43 57.44 72.71 58.26 71.27 59.33 69.99 60.55 68.87 61.89 67.88 61.71 69.43 61.51 70.97 62.67 72.14 63.81 73.33 64.77 74.67 65.57 76.09"/>
      <polygon points="92.04 46.41 91.49 48.18 90.2 49.54 88.63 50.61 87.29 49.25 85.97 47.86 84.61 46.5 83.3 45.11 83.97 43.89 85.17 44.99 86.39 46.05 87.61 47.12 88.82 48.18 90.43 47.28 92.04 46.41"/>
      <polygon points="75.07 64.98 73.62 63.56 72.13 62.18 70.67 60.77 69.2 61.72 67.9 61.14 69.01 60 70.13 58.86 71.25 57.72 72.35 56.59 72.21 58.23 71.99 59.89 73.35 61.2 74.7 62.52 76.03 63.84 75.07 64.98"/>
      <polygon points="63.29 77.58 62.07 78.87 60.85 80.14 59.68 81.43 58.57 80.25 57.44 79.07 56.35 77.85 55.23 76.65 54.12 75.45 55.36 74.81 56.81 76.24 58.24 77.7 59.68 79.15 60.94 78.08 62.18 77.01 63.29 77.58"/>
      <polygon points="68.98 71.41 67.78 72.59 66.51 71.31 65.23 70.05 63.93 68.79 62.65 67.51 62.82 66.28 64.28 66.7 65.45 67.88 66.63 69.05 67.81 70.23 68.98 71.41"/>
      <polygon points="70.18 63.92 71.15 64.87 70.03 66.03 68.89 67.18 67.75 68.34 66.78 67.37 67.91 66.22 69.04 65.06 70.18 63.92"/>
      <polygon points="24.21 15.74 22.72 14.8 21.32 13.7 19.96 12.54 18.68 11.31 17.53 9.95 16.44 8.55 15.43 7.08 14.55 5.54 16.06 6.47 17.49 7.53 18.84 8.69 20.08 9.97 21.25 11.32 22.32 12.74 23.3 14.23 24.21 15.74"/>
      <polygon points="13.82 23.24 12.34 22.08 10.9 20.87 9.54 19.58 8.22 18.25 7 16.81 5.91 15.28 4.88 13.73 6.45 14.76 7.96 15.89 9.36 17.16 10.65 18.54 11.82 20.03 12.87 21.6 13.82 23.24"/>
      <polygon points="15.99 111.2 16.99 112.18 15.61 113.54 14.29 114.93 12.91 116.28 11.57 117.66 10.22 119.02 9.23 118.07 10.58 116.69 11.91 115.31 13.28 113.95 14.65 112.6 15.99 111.2"/>
      <polygon points="110.77 13.57 111.79 11.91 112.93 10.35 114.26 8.95 115.74 7.7 117.37 6.64 116.36 8.29 115.16 9.8 113.8 11.16 112.34 12.42 110.77 13.57"/>
      <polygon points="114.73 127.99 113.26 127.2 111.93 126.19 110.73 125.03 109.69 123.73 108.8 122.31 107.99 120.85 109.47 121.64 110.81 122.64 112.06 123.76 113.12 125.06 113.99 126.49 114.73 127.99"/>
    </g>
  </g>
</svg>