<?xml version="1.0" encoding="UTF-8"?>
<svg id="Layer_2" data-name="Layer 2" xmlns="http://www.w3.org/2000/svg" viewBox="0 0 178.87 102.58">
  <g id="Layer_1-2" data-name="Layer 1">
    <g>
      <polygon points="114.4 68.47 112.92 69.85 111.02 70.53 109.44 71.01 107.89 71.58 106.37 72.24 104.78 72.72 103.18 73.12 101.55 73.37 99.83 73.06 98.19 72.47 96.65 71.66 95.33 70.55 97.86 71.06 99.66 71.68 101.55 71.87 103.42 71.56 105.27 71.13 107.06 70.52 108.85 69.88 110.66 69.29 112.5 68.83 114.4 68.47"/>
      <polygon points="71.12 64.71 70.56 66.18 68.98 65.42 69.6 64.46 71.12 64.71"/>
      <path d="M172.95,90.67l-1.74.58-1.32,1.41-1.9.23-1.66.7-1.47,1.17-2.01-.18-1.43,1.35-1.73.54-1.88.07-1.67.73-1.65.83-1.86.02-1.69.71-1.75.48-1.8.24-1.78.32-1.84-.02h-1.83s-1.73.68-1.73.68l-1.77.43-1.77.44-1.88-.52-1.77.49-1.76.71-1.86-.56-1.81-.05-1.78.68-1.82-.23-1.81.1-1.81-.34-1.81-.02-1.81.56-1.82.35-1.81-.27-1.78-.79-1.81-.05-1.86.77-1.81-.07-1.77-.65h-1.82s-1.78-.39-1.78-.39l-1.86.37-1.71-1.01-1.85.28h-1.83s-1.77-.62-1.77-.62l-1.72-.86-1.85-.11-1.86-.08-1.71-.83-1.81-.33-1.8-.37-1.95.31-1.65-1.06-1.8-.36-1.77-.49-1.9.02-1.8-.37-1.79-.4-1.73-.64-1.66-.96-1.97.27-1.66-.94-1.91.04-1.67-.99-1.95.48-1.66-1.05-1.87.03-1.81-.27-1.86-.04-1.78-.44-1.72-.78-1.82-.21-1.81-.24-1.84-.11-1.82-.23-1.62-1.27-1.8-.37-1.87.03-1.83-.19-1.77-.52-1.77-.51-1.93.06-1.75-.85-1.99.32-1.88-.21-1.81-.54-1.81-.55-1.67-1.01h-1.97s-1.55-1.28-1.55-1.28l-1.66-.87-1.94-.21-1.5-.87-1.16-1.26-1.01-1.33-.96-1.41-.72-1.58-.9-1.58-.09-1.78-.32-1.73.46-1.8-.29-1.73-.42-1.76.66-1.71.04-1.75.73-1.64-.41-2,.59-1.8.64-1.8.46-1.73.19-1.73.15-1.74-.44-1.81.09-1.76.79-1.65.08-1.76.61-1.66.53-1.67-.29-1.85.62-1.65.4-1.7-.05-1.82.57-1.67.22-1.86.7-1.79.77-1.78.27-1.86.02-1.97,1.46-1.4.92-1.56,1.2-1.2,1.37-.99,1.15-1.59,1.72-.66h1.84s1.81-.31,1.81-.31l1.8.36,1.78.42,1.45,1.17,1.32,1.27,1.86.26,1.55.83,1.42,1.1,1.48,1,1.92.05,1.35,1.35,1.86.09,1.55.95,1.67.66,1.78.22,1.76.28,1.76.43,1.8.03,1.71-1,1.87.61,1.49-1.37,1.71-.33,1.57-.75,1.6-.63,1.74-.64,1.09-1.49,1.45-1.04,1.76-.63,1.21-1.38-.56-.78-1.19,1.66-1.87.61-1.37,1.28-1.39,1.41-.11-2.13.63-1.8.37-1.8.54-1.76.66-1.74.8-1.71.82-1.76,1.41-1.31,1.79-.83,1.34-1.3,1.72-.77,1.56-.89,1.97-.7,1.91.79,1.18,1.69,1.28,1.15,1.45.97,1.05,1.42,1.75.65.83,1.65,1.24,1.22,1.32,1.12,1.74.67,1.25,1.21.81,1.88,2.2-.94,2.04.42,1.34,1.58,1.31,1.44,1.03,1.53,1.33,1.39,1.66.99,1.34,1.46.55,1.96,1.86.07,1.4,1.19,1.69.62,1.46,1.11.6,1.75.59,1.99,2.01-.15,1.94-.32,1.32,1.39,1.66.93.48,1.84.76,1.51,1.61.13,1.79.08,1.5.96,1.52.94.77,1.64,1.02,1.23,1.89.21,1.44,1.4,1.08,1.4,1.37,1.38,1.04,1.55,1.67.81,1.9.39,1.58.9,1.42,1.25,1.68.74,1.76.55,1.5,1.18,1.76.54,1.67.78,1.97-.09,1.77.48,1.56,1.11h1.92s1.54,1.21,1.54,1.21l1.94-.06,1.72.65,1.59,1.02h1.93s1.41,1.5,1.41,1.5l1.73.57,1.84.31,1.71.66,1.77.54,1.79.66.99,1.62,1.35,1.14,1.07,1.4.81,1.56,1.28,1.33-.07,1.87,1.05,1.6-.68,1.82-.04,1.74.51,1.75.09,1.76-.09,1.76-.08,1.81-.97,1.54-1.08,1.37-1.22,1.18-.92,1.55-1.44,1.03ZM29.4,23.28l1.52.8,1.83-.12,1.46,1.1,1.63.55,1.8.03,1.3,1.43,1.86-.15,1.53.61,2.07.45,2.09-.28,2-.39,1.43-.67,1.06-1.29,1.15-1.08-1.54.54-1.79.17-1.8-.25-1.76-.3-1.79.3-1.79-.02-1.81-.09-1.57-1.11-1.79-.2-1.88-.06-1.4-1.31-1.54-.88-1.85-.29-1.41-1.15-1.54-.84-1.37-1.17-1.57-.83-1.84-.19-1.75-.2-1.61-.53-1.86-.54-1.59,1.2.12,1.98.02,1.66-.15,1.81.79,1.61.65,1.68,1.47,1.14.54,1.88,1.65.89,1.53.91,1.27,1.27,1.32,1.37,1.76.53,1.8.32,1.66.89,1.83.24,1.83.13,1.82-.7,1.84.57,1.81-.27,1.81-.26,1.65-.89,1.69-.62,1.65-.71,1.71-.61,1.84-.48,1.05-1.66,1.71-.79.9-1.65,1.64-1.03.24-1.98,1.43-1.32.25-1.81-.87,1.49-.79,1.6-1.19,1.31-1.5,1.01-1.14,1.33-1.25,1.24-1.25,1.27-1.43,1.07h-1.99s-1.57.65-1.57.65l-1.52.89-1.67.52-1.75.02-1.76-.14-1.83.59-1.85-.49-1.92.54-1.9-.17-1.79-.66-1.72-.81-1.38-1.35-1.87-.58-.96-1.75-1.11-1.46-1.58-1.08-1-1.57-.67-1.65.35-1.72.35-1.77,1.55-.87,2.03-.17,1.77.92,1.77.83,1.28,1.57,1.64,1,1.51,1.12ZM93.29,19.25l-.78-1.21-1.54-.79-.64-1.64-1.05,1.36-.54,1.64-1.67,1.43,2.35-.73,1.99-.08h1.88ZM53.18,38.63l1.75.47,1.41-1.18,1.85.08,1.74.25.99-1.67,1.95-.64.78-1.84,1.3-.99-1.64-.5.13-1.15-1.43.5-.42-1.59-1.44-.73-1.32-.89-1.2-1.07-1.2-.96-1.37.72-1.4.78-.96,1.32-1.09,1.15-.54,1.32-1.3-.96-1.52,1.47-1.3,1.48-2,.23-1.78.53-1.62,1.09-1.9.09-1.85.3-1.88-.24h-1.85s-1.89.48-1.89.48l-1.99.22-1.88-.81-1.7-1.29-1.67-.23-1.15,1.89-.05-2.09-.95-.52-1.47-1.07-1.2-1.37-1.71-.84-.68-1.86-1.55-1.05-1.26-1.36-.56-1.79-.09-1.86-.57-1.67-.38-1.76.32-2.23-1.72,1.65-.99,1.66-.11,2.02-1.19,1.61-.3,1.89-.23,1.9.46,1.84,1.31,1.33,1.3,1.37,1.11,1.54.88,1.76,1.86.96-.74.91.96.1.52-.03.6,2.11,1.17,1.42,1.55.45,1.4.71,1.33.46,1.24-.49,1.67,1.29.86-1.39.71,1.61,1.76-.27,1.83-.12,1.83.94,1.83.02,1.83-.39,1.83-.16,2.23-1.06,1.34.68,1.25-.72,1.95-.11,1.57-1.27,1.71-.79,1.79-.5,1.52-.59,1.65-.53ZM87.35,25.37l1.86-.07,1.43-1.19,1.6-.71.46-1.85-1.94.31-1.86-.85-1.73,1-1.78.33-1.91.04-1.64.87-1.5,1.1-1.81.52-1.32,1.3-1.21,1.31-.38,1.39,2.16.35,1.72-.31,1.7-.36,1.44-1.01,1.53-.81,1.5-.84,1.67-.52ZM97.98,25.9l.22-1.93-1.53-1.32-1.49-1.45-.86,1.46-.36,1.71-1.6,1.02-.19,1.49,1.79-.38,2.13.14,1.89-.77ZM65.19,22.02l-.6,1.35.86,1.02,1.3.72,1.51-.47-.3-1.47-.82-1.32.29,2.51-2-.41-.24-1.93ZM105.63,30.83l-.53-1.74-1.75-.91-1.21-1.57-.65,1.8-.13,1.97-1.46,1.51.14,1.99,1.49-.5,1.89.12,1.54-1.07.68-1.6ZM98.31,31.29l1.34-1.18-.02-1.38-1.52-.54-1.75.08-1.66.73-1.89-.54-1.47,1.23-1.61.58-1.78.38-1.26,1.25-.75,1.53-.15,1.53,1.71-.3,1.77-.65,1.84-.44,1.81-.54,1.91-.24,1.91-.3,1.57-1.23ZM113.56,39.52l.29-1.49-.69-1.61.25-1.66-1.34-1.19-1.29-.46-1.19,1.65.44,2.02-.38,1.88-.78,2.01,1.74-.4,1.44-.63,1.51-.13ZM92.54,53.57l1.47.98,1.85-.03,1.5,1.04,1.72.32,1.74-.43,1.81.75,1.44-.65-1.61-.86-1.46-1.31-1.8-.66-1.86-.55-1.49-1.26-1.83-.61-1.74-.79-1.64-.98-1.46-.82-1.31-1.09-1.34-1.05-1.67-.44-1.57-.63-1.49-.6-1.02-1.42-1.53-.53-1.69-.3-1.12-1.36-1.37-.82-1.53-.4-1.13-1.04-1.43-.48-1.39-1.59-1.61-1.34-1.91-.85-1.15,1.66-1.64,1.25-2.01.91,2.59,2.01,1.66-2.35,1.24,1.82.73,1.53,1.65.62,1.41,1.02,1.79.32,1.14,1.53,1.9.46,1.78.69,1.48,1.23,1.38,1.42,1.61.65,1.64.61,1.28,1.26,1.55.81,1.56.71,1.85.06,1.28,1.33,1.75.25ZM84.95,36.38l-.54-1.41-.59-.81-.35,1.56,1.47.67ZM106.19,37.9l2.32-1-.67-1.96-1.7-.49-1.9.25-1.72.96-2.1-.21-1.41,1.52-1.62.95-1.74.96.27,1.85,2.08-.04,1.78-.17,1.52-.86,1.6-.67,1.67-.46,1.62-.63ZM121.85,42.72l-.54-1.77-1.77-.9-1.6-1.19-.17,1.77.39,1.78-1.02,1.68.5,1.53,1.23-.96,1.79-.6,1.21-1.33ZM75.24,54l1.46,1.11,1.91.26,1.3,1.4,1.57.89,1.84.4,1.19,1.63,1.97.12,1.61.82,1.45,1.2,1.77.47,1.82.27,1.6.94,1.83.12,1.78.19,1.78.24,1.8-.05,1.85.06,1.86-.23,1.54-1.11,1.46-1.08,1.3-1.25,1.94-.94-1.53-1.43-1.73-.48-1.38-1.24-1.89-.15-1.64.98-1.86-.09-1.82.07-1.77-.51-1.76-.34-1.9.11-1.87-.19-1.65-.86-1.4-1.39-1.66-.73-2.03-.04-1.65-.8-1.37-1.33-1.69-.73-1.5-1.07-1.88-.36-1.25-1.57-1.86-.4-1.75-.63-1.46-1.17-1.36-1.36-1.73-.67-1.75-.63-1.4-1.29-1.69-.69-1.76-.46-1.84.51-1.77-.64-1.77.27-1.76.28-1.59.89-1.66.58-1.66.59-1.73.37-1.83.05-1.45,1.24h-1.83s-1.59.9-1.59.9l-1.85-.31-1.63,1.06-1.82-.59-1.75.44-1.77.07-1.78.24-1.76-.22-1.72-.6-1.77-.05-1.76-.11-1.78.02-1.24-.6-.24,1.84.65,1.65,1.02,1.49.82,1.57,1.74.49,1.78.43,1.86-.21,1.78.64,1.85-.64,1.8-.18,1.8.06,1.81-.03,1.86.34,1.72-.83,1.91.4,1.84-.15,1.64-.98,1.76-.46,1.81-.34,1.73-.59,1.62-.87,1.5-.73,1.51-.91h1.74s1.72,0,1.72,0l1.39,1.08,1.63.58,1.74.38,1.3,1.25,1.62.61,1.35,1.16,1.9.06,1.44.98,1.43,1.02,1.67.53ZM115.44,44.07l.73-1.21-.22-1.04-1.67-.54-1.8.23-1.59.96-2.01-.17-1.2,1.56-1.33,1.09-.57,1.65,2.44.33,1.69-1,1.97-.25,1.72-.94,1.83-.67ZM119.37,52.24l1.58-.86.97-1.62,1.76-.62,1.41-1.08,1.07-1.51,2.05-.51-1.75-1.36-1.46-.73-1.8-.24-1.36,1.11-1.14,1.32-1.54.86-.86,1.52-.8,1.49-.68,1.53.4,1.29,2.14-.58ZM68.98,65.25l-1.08,1.1-1.06,1.29-2.17.07-2.01.63,2.25.29,2.02.33,1.53-1.27,1.77-.48,1.91-.04,1.69-.74,1.87-.52,1.95.28,1.91-.46,1.68.29,1.61.5,1.63.39,1.57.7,1.58.65,1.74-.03,1.63.17,1.64.23,1.17,1.31,1.39.59-1.39.4-1.18-1.05-2.07-.71h-2.16s-1.06-.61-1.06-.61l-1.76-.32-1.63-.6-1.68-.22-1.73.42-1.7.28-1.67-.28-1.68-.76-1.98.42-1.59,1.39-1.65.42-1.77-.14-1.53.32,1.98.64,2.24-.05,1.78,1.13,2.02-.17,1.98.08,1.87.69,1.62.83,1.75.06h1.76s1.64.76,1.64.76l1.73.23,1.84.23,1.93-.47,1.75.9,1.84.19,1.83.31,1.9-.21,1.85.17,1.85.2,1.81.45,1.22-.35,1.77.22,1.18-.62,1.24-.86.92,1.94,2.06-1.57.62,1.46,1.67-.92.99-1.41.49-1.65.59-1.62.81-.64-.45-1.19-1.5.83-1.5-.7,2.05-1.33,2.64-.12-.47-1.82-2.07.57-1.83.4-1.78.08,1.38-.08,1.19-.9,1.79-.12,1.28-1.34,1.07-.67-1.09-.76-1.43-.96-1.56-.96-1.49.95-2.1.5-1.84.91-1.41,1.57-1.46.62-1.52.43-1.69.06-1.74.31-1.76.2-1.81.4-1.75-.55-1.56-.33-1.39-1.01-1.6-.18-1.81-.18-1.48-1.1-1.73-.44-1.5-1.01-2.29-.2-1.86-1.13-1.41-1.25-1.4-1.35-1.85-.4-1.27-1.13-1.91-.53-1.67-.81-1.39-1.36-1.47-.44-1.26-.9-1.29-.81-2.01-.26-1.61-1.07-1.82-.67-1.95.18-1.87-.11-1.79.52-1.88.35-1.87.13-1.68.67-1.84,1.16-2.25-.09-1.53.5-1.66.75-.96,1.1-2.01-.43-1.64.25-1.86-.22-1.84.34-1.85-.12-1.86.04-1.82-.57-1.79-.64-1.93.42-.21,1.08.17,2.13.49,1.99,1.07,1.32-.34,1.68,1.76.54,1.55.56,2.3.11,1.74.78,2.04.2,1.89.5,1.86.52,1.97-.33,1.54,1.25,1.93-.69,1.73.43,1.78.08,1.78.32,1.27.87,1.5-.18,1.99.47,1.89.97,2.08.06,1.71.47,1.08-1.7.73-.56,1.03.73,1.77-.82,1.91-.31,1.85-.65ZM171.26,65.58l-1.43-.97-.66,1.83-1.62.85-1.32,1.06-1.26,1.3-1.94-.18-1.34,1.34-1.65.54-1.8.07-1.58.73-1.57.83-1.79.02-1.61.7-1.68.47-1.73.23-1.71.3-1.77-.05h-1.8s-1.7.65-1.7.65l-1.74.43-1.74.45-1.85-.51-1.74.5-1.72.73-1.84-.53-1.79-.02-1.74.71-1.8-.2-1.78.14-1.8-.3-1.78.02-1.77.6-1.78.4-1.79-.22-1.78-.74h-1.78s-1.81.83-1.81.83h-1.79s-1.76-.6-1.76-.6l-1.79.07-1.77-.33-1.82.44-1.72-.94-1.82.36-1.8.09-1.74-.53-1.71-.76h-1.79s-1.8.04-1.8.04l-1.7-.72-1.77-.21-1.76-.25-1.88.44-1.65-.95-1.77-.25-1.74-.39-1.84.12-1.78-.27-1.78-.3-1.73-.54-1.66-.86-1.91.39-1.67-.84-1.86.14-1.65-.99-1.93.48-1.63-1.05-1.84.03-1.79-.27-1.83-.04-1.75-.44-1.69-.78-1.8-.21-1.79-.24-1.82-.11-1.79-.23-1.59-1.27-1.77-.37-1.84.03-1.8-.19-1.74-.52-1.74-.5-1.85.07-1.68-.83-1.91.37-1.82-.15-1.76-.45-1.77-.46-1.63-.95-1.9.06-1.49-1.25-1.61-.83-1.88-.15-1.64-.75-1.55-.95-1.62-.8-1.79-.61.31,1.82,1.3.89,1.52.98,1.67.66,1.44,1.26,1.77.43,1.85.17,1.55,1.06,1.78.34,1.63.89,1.94-.34,1.71.61,1.71.62,1.65.66,1.71.37,1.72.31,1.84-.31,1.74.19,1.61.86,1.75.12,1.66.62,1.68.52,1.84-.32,1.67.57,1.72.33,1.81-.15,1.71.45,1.77.14,1.66.7,1.65.78,1.75.21,1.83-.21,1.59,1.09,1.74.25,1.72.38,1.73.36,1.89-.54,1.75.24,1.68.62,1.8.02,1.76.43,1.8.23,1.71.77,1.71.78,1.89-.35,1.79.3,1.74.61,1.76.51,1.9-.49,1.7.95,1.87-.35,1.75.62,1.78.38h1.82s1.81.17,1.81.17l1.79.42,1.81.13,1.87-.77,1.76.98,1.86-.91,1.8.29,1.81-.04,1.8.19,1.8.58,1.81-.52,1.81.05,1.82.54,1.8-.4,1.82.14,1.78-.72,1.85.52,1.79-.34,1.73-.45,1.77.06,1.8.25,1.75-.23,1.74-.27,1.73-.37,1.72-.44,1.68-.66,1.76-.11,1.84.3,1.7-.5,1.8-.02,1.67-.62,1.54-1.12,1.71-.38,1.87.19,1.69-.5,1.61-.77,1.78-.22,1.44-1.23h1.81s1.57-.65,1.57-.65l1.46-.88,1.03-1.49,1.32-.98,1.79-.65-.28-1.59ZM149.68,64.5l2.14-1.73-2.3-.19-1.82-1.27-1.3,1.19-.78,1.11,1.36.31,1.68-1.06-.06,1.61,1.08.04ZM71.23,92.71l1.72.68,1.92-.27,1.66.97,1.78.41,1.89-.13,1.6,1.25,1.95-.39,1.78.42,1.69.87,1.83.16,1.86.03,1.7.81,1.81.09.32-1.58.79-1.57.83-1.54,1.22-1.28,1.26-1.19.84-1.55,1.12-1.35,1.2-1.3,1.99-.91-2.14-.14-1.79.44-1.7-.81-1.73-.28-1.79.46-1.72-.45-1.74-.12-1.68-.57-1.71-.29-1.81.25h-1.8s-1.65-.64-1.65-.64l-1.46-1.2-1.78.3,1.8-.71,1.78.1,1.74.67h1.79s1.76.37,1.76.37l1.83-.41,1.71.95,1.83-.36,1.81-.1,1.75.51,1.73.72,1.81-.06,1.81-.1,1.69.56,1.73-.14,1.71-.31,1.42-1.18,1.99-.47-2.1-.3-1.78-.19-1.81.33-1.79-.06-1.79-.1-1.77-.36-1.73-.69-1.85.57-1.73-.69-1.83.3-1.7-.85-1.87.62-1.68-.94-1.82.15-1.78-.16-1.81.05-1.75-.36-1.69-.72-1.78-.15-1.77-.2-1.8-.07-1.78-.21-1.58-1.27-1.76-.37-1.84.03-1.8-.19-1.74-.52-1.74-.51-1.85.07-1.67-.83-1.91.36-1.81-.15-1.75-.45-1.76-.42-1.67-.85-1.89.23-1.63-1.05-1.73-.57-1.88.2-1.77-.39-1.73-.58-1.76-.39-1.81-.16-1.8-.2-1.86.12-1.73-.59-1.79-.28-1.66-.96-1.82-.13-1.87.09-1.71-.9-1.84-.26-1.67-.9-2,.23-1.7-.79-1.66-.86-1.62-.94-1.72-.68-1.73-.64-1.96-.07-1.42-.62.75,1.2,1.43.99,1.25,1.24,1.43,1.03,1.85.11,1.52.82,1.64.51,1.78-.04,1.63.51,1.71.17,1.63.73,1.61.81,1.74.24,1.82-.17,1.56,1.12,1.73.28,1.7.41,1.71.4,1.9-.51,1.88.32.07,1.37h-1.92s-1.78-.43-1.78-.43l-1.81-.22-1.72-.77-1.72-.79-1.91.33-1.8-.33-1.66-.66-1.66-.61-1.88.32-1.51-1.14-1.84.06-1.54-.93-1.58-.75-1.69-.46-1.61-.66-1.48-.95-1.57-.75-1.58-.02-.61,1.58,1.2,1.74.08,1.84.47,1.78.3,1.82v1.93s.98,1.49.98,1.49l1.71.79,1.55,1.28,1.91.44,1.69.96,1.97.1,1.58,1.19,1.87.3,1.89.12,1.79.59,1.77.75,1.86.26,1.86.22,1.88.14,1.88.09,1.84-.1,1.74.48,1.65.93,1.79.16,1.69.68,1.8.11,1.9-.36,1.75.42,1.61,1.03,1.75.36,1.8.13,1.67.72,1.9-.29,1.6,1.04,1.73.46,1.76.33,1.9-.27,1.74.44,1.56,1.23,1.93-.43,1.78.27,1.64.89,1.82.13ZM168.21,89.52l2.01-.84,1.59-1.7,1.88-.53,1.27-1.42.09-1.9,1.13-1.66-.61-1.86.13-1.77.49-1.8-.35-1.78-.6-1.71-.04-1.93-1.26,1.47-1.35,1.21-1.54.96-1.53.97-1.73.61-1.72.57-1.45,1.14-1.59.88-1.61.85-1.94-.1-1.63.82-1.6,1.02-1.92-.26-1.79.21-1.6.9h-1.77s-1.71.36-1.71.36l-1.77-.08-1.72.22-1.64.8-1.69.59-1.76-.04-1.79-.58-1.72.15-1.7.95-1.75.09-1.74-.53-1.78-.18,1.77-.06,1.63-.83,1.85.52,1.64-.78,1.68-.53,1.78.08,1.81.29,1.69-.48,1.69-.53,1.8.21,1.72-.32,1.73-.29,1.62-.99,1.91.34,1.77-.44,1.79-.38,1.62-.96,1.7-.64,1.68-.67,1.75-.5,1.88-.26,1.31-1.46,1.85-.39,1.34-1.32,1.8-.34.82-1.7,1.64-.83.31-1.71-1.43,1.18-1.36,1.36-1.63.99-1.84.61-1.59,1.01-1.68.88-1.7.89-1.68.66-1.99-.38-1.72.47-1.63.83-1.7.6-1.78.24-1.78.23-1.67.78-1.85-.14-1.63,1.03-1.74.5-1.79.18-1.79.19-1.85-.27-1.7.81-1.86-.5-1.8-.04-1.72.73-1.79.12-1.8-.09-1.79.1-1.76.34-1.75.32-1.7.68h-1.78s-1.73.35-1.73.35l-1.86-.27-1.68.63-1.58.91-1.85.06-1.59.83-1.8.37-1.16,1.56-1.58.78-1.56.89-1.53,1-1.22,1.35-1.04,1.49-.34,1.87-.62,1.64-1.02,1.71,1.77-.04,1.65.44,1.66.34,1.74-.51,1.66.39,1.7.11,1.73-.38,1.69.25,1.71-.07,1.67.5,1.69.58,1.85-.19,1.82-.61,1.88.7,1.84-.15h1.85s1.85-.05,1.85-.05l1.82-.95,1.79-.17,1.81.2,1.77-.43,1.8-.04,1.78-.26,1.84.27,1.85.26,1.7-.89,1.78-.26,1.83.03,1.82-.09,1.61-1.1,1.92.3,1.61-1,1.85-.08,1.79-.34,1.67-.72,1.71-.59,1.79-.38,1.68-.68,1.31-1.53,2,.05.91-1.13-.45-.72-1.64-.7-1.57-.95-.84-.43v-1.22s.68-1.24.68-1.24l-1.4-.67-.38,1.1-1.38.85-.86,1.51-1.66.53-1.12,1.18.69-1.37,1.14-1.06,1.36-1.34-1.41-1.17-1.26-.84,1.11.07,1.36-.25,1.6-1.3,1.88-.8,1.95-.37,1.34.54,2.03.72-1.61-1.57-1.87-.76,2.4-.18,1.93.84,2.22-.39-.22-1.31.67-.55,2.22.75-1.28,1.54-.73,1.5-.59,1.51-.7.26,1.18,1.49-2.16.77-.97,1.87-1.3,1.16.11.67Z"/>
      <polygon points="112.52 66.26 110.91 67.15 109.25 67.87 107.67 68.76 106.06 69.59 104.26 70.14 102.36 70.16 100.5 69.77 98.69 69.24 96.88 68.62 95.03 68.19 93.43 67.65 91.75 67.44 90.13 66.97 88.51 66.49 86.85 66.16 85.22 65.73 83.55 65.45 81.91 64.98 80.21 64.92 78.52 64.76 76.82 64.82 75.13 65.02 73.41 65.28 73.8 66.3 72.42 65.61 71.11 64.72 72.54 63.84 74.26 63.63 75.99 63.45 77.73 63.5 79.46 63.7 81.2 63.81 82.93 64.09 84.66 64.32 86.37 64.66 88.09 64.98 89.94 65.4 91.74 66.06 93.64 66.35 95.49 66.82 96.89 67.4 98.23 68.1 99.88 68.55 101.55 68.84 103.23 68.8 104.94 68.75 106.57 68.19 108.58 67.67 110.5 66.88 112.52 66.26"/>
      <polygon points="79.29 92.65 77.45 92.35 75.62 91.99 73.77 91.72 71.87 91.42 73.34 90.09 71.45 89.92 69.56 89.62 67.62 89.49 69.33 89.25 71.01 89.09 72.7 89.02 74.35 88.8 72.81 88.56 71.21 88.31 72.71 87.58 74.18 86.8 75.93 87.74 77.66 88.66 79.01 87.81 80.59 87.63 82.1 88.15 83.38 89.14 84.87 90.37 86.32 91.67 87.79 92.96 86.17 93.13 84.6 93.26 83.03 93.26 81.17 92.88 79.29 92.65"/>
      <polygon points="28.84 81.31 27.09 81.22 25.46 80.48 24.03 79.42 22.67 78.26 21.45 76.95 20.25 75.63 19.15 74.19 20.78 73.61 22.41 73.07 23.8 74.14 25.08 75.36 26.17 76.75 27.17 78.21 28.06 79.73 28.84 81.31"/>
      <polygon points="66.72 79.69 64.84 79.48 63.04 79.15 61.23 78.89 59.42 78.66 57.62 78.28 55.84 77.91 54.05 77.54 52.25 77.18 50.47 76.77 48.7 76.31 46.93 75.84 45.15 75.26 47.02 75.4 48.83 75.66 50.65 75.88 52.47 76.14 54.28 76.4 56.08 76.72 57.89 77.05 59.64 77.58 61.44 77.95 63.17 78.56 64.93 79.07 66.72 79.69"/>
      <polygon points="13.62 77.17 11.95 76.75 10.28 76.32 8.6 75.92 10.33 74.06 11.89 74.39 13.02 75.61 13.62 77.17"/>
    </g>
  </g>
</svg>