<?xml version="1.0" encoding="UTF-8"?>
<svg id="Layer_2" data-name="Layer 2" xmlns="http://www.w3.org/2000/svg" viewBox="0 0 172.05 118.58">
  <g id="Layer_1-2" data-name="Layer 1">
    <g>
      <path d="M113.81,108.28l-1.22-1.45-2.03-.05-1.59-.82-1.26-1.43-1.76-.58-1.37-1.18-.88-1.65-1.81-.8-1.05-1.48-.87-1.59-.7-1.68-1.38-1.29v-2.03s-1.08-1.75-1.08-1.75l-1.9.14-1.8-.02-1.73-.73-1.84.36-1.74-.67-1.82.1-1.78-.31-1.77.21-1.51-.98-1.58-.59-1.48-.84-1.75-.3-1.35-1.1-1.78-.33-1.31-1.01-.92,1.51-.62,1.79-1.41,1.28-1.36,1.28-.58,1.86-1.24,1.37-1.28,1.33-.92,1.67-1.67.94-1.68.87-1.08,1.57-1.57.98-1.64.84-1.25,1.49-2.01.12-1.62.82-1.35,1.56-1.94.05-1.79.4-1.77.45-1.81.28-1.79.34-1.8.41-1.82.54-1.84-.82-1.83.15-1.81-.24-1.9.2-1.69-.85-1.91-.06-1.58-1.04-1.76-.58-1.78-.64-1.05-1.75-1.72-.74-1.39-1.19-1.54-1.04-.85-1.76-1.63-.97-1.05-1.52-1.04-1.52-1.85-.85-.51-1.95-1.54-1.13-.81-1.62-1.37-1.24-.2-1.95-1.1-1.42-.98-1.51-.48-1.73-1.05-1.55-.37-1.77.37-1.89-.3-1.74-.18-1.76.13-1.77-.12-1.78.21-1.76.41-1.73.19-1.79.06-1.87,1.34-1.42.65-1.66.36-1.81,1.46-1.26.17-1.97.9-1.57,1.27-1.32,1.1-1.42,1.27-1.28,1.52-1.03.6-1.92,1.72-.8,1.32-1.2,1.34-1.18,1.21-1.39,1.9-.38,1.09-1.66,1.92-.25,1.5-.99,1.72-.52,1.71-.51,1.67-.61,1.67-.63,1.76-.3,1.72-.57,1.81.08,1.76-.5,1.8-.07,1.77.48,1.83-.31,1.84.02,1.75.52,1.65.8,1.66.68,1.84.33,1.32,1.36,1.43,1.07,1.4,1.1,1.7.75,1.31,1.24,1.44,1.12.79,1.7,1.04.85-.3-1.36-.33-1.83.62-1.93-.63-1.8-.26-1.85.27-1.87-.02-1.85-.35-1.89.34-1.85.24-1.87,1.24-1.58.65-1.63-.09-1.95,1.06-1.48.86-1.55,1.37-1.23.84-1.54.79-1.61.97-1.5,1.05-1.46,1.75-.76,1.25-1.23,1.13-1.41,1.61-.79,1.39-1.09,1.47-.99,1.49-.97,1.54-.91,1.94.08,1.41-1.35h1.85s1.65-.7,1.65-.7l1.84.28,1.69-.78,1.79.34,1.75.04,1.81-.66,1.7.83,1.67.47,1.71.3,1.64.56,1.87-.04,1.57.81,1.58.75,1.6.71,1.58.79,1.84.03,1.55.98,1.3,1.27,1.15,1.42,1.6.92,1.24,1.32,1.34,1.23.97,1.54,1.16,1.39.88,1.58.53,1.76,1.46,1.29.6,1.72.72,1.68.13,1.85.52,1.73-.06,1.83.72,1.74-.47,1.83.14,1.79-.11,1.79-.6,1.73.2,1.83-.7,1.69-.37,1.74.22,1.92-.43,1.39h1.49s1.85-.22,1.85-.22l1.85.11,1.85.14,1.72.95,1.74.58,1.92-.17,1.83.29,1.66.86,1.87.26,1.67.8,1.56,1.01,1.53,1.03,1.58.93,1.68.79,1.54,1.01,1.03,1.67,1.49,1.06,1.37,1.21,1.28,1.3,1.44,1.15,1.18,1.4,1.36,1.27,1.17,1.45,1.08,1.52,1.12,1.49,1.25,1.44.35,1.92,1.22,1.51.4,1.85.44,1.82-.04,1.9.55,1.8.04,1.86-.42,1.83-.28,1.78-.03,1.85-.37,1.78-1.04,1.53-.26,1.83-.91,1.57-1.35,1.36.03,1.99-1.47,1.28-.41,1.8-1.17,1.41-.66,1.68-.45,1.81-1.06,1.46-1.19,1.38-1.03,1.47-1.1,1.35-1.09,1.4-1.4,1.16-1.69.69-1.56.91-1.78.41-1.48,1.19-1.83.18-1.76.33-1.68.83-1.89-.66-1.76.24-1.78.27-1.82.31-1.71-.9-1.88.35-1.79-.3-1.73-.55-1.77-.46-1.27-1.57-1.74-.52-1.17-1.22-.99-1.63-1.74-1.19-1.27-1.09-1.68.53-1.74-.51-1.5-.67-1.58-.58ZM108.1,7.14l-1.42-1.02-1.92.23-1.57-.65-1.38-1.2-1.77-.02-1.64-.36-1.77-.71-1.82.81-1.79.02-1.81.02-1.83.02-1.63.96-2-.38-1.69.72-1.54,1.03-1.55.95-1.85.43-1.23,1.45-1.75.69-1.22,1.39-1.42,1.15-.89,1.66-1.59,1.03-1.11,1.46-1.15,1.44-.47,1.84-1.1,1.49-.17,1.9-.77,1.64-.57,1.72.02,1.84-.74,1.71-.54,1.79.6,1.83-.07,1.8.05,1.81.71,1.71-.15,1.86v1.88s1.04,1.58,1.04,1.58l.5,1.74.55,1.75,1.4,1.31.22,1.98,1.08,1.49,1.85.86.73,1.75,1.17,1.4,1.35,1.23,1.36,1.22,1.52,1.02,1.66.78,1.79.47,1.3,1.51,1.79.45,1.72.61,1.88-.05,1.69.78,1.86-.26,1.76.54,1.81-.18,1.78-.38,1.88.73,1.34-1.05,1.02-1.15.29-1.33-1.74-.32-1.69.73-1.79-.11-1.77-.18-1.82.8-1.69-1.01-1.84.2-1.66-.72-1.85-.09-1.36-1.4-1.73-.45-1.69-.62-1.4-1.11-1.76-.65-1.32-1.24-.76-1.77-1.22-1.28-1.13-1.36-.89-1.55-1.11-1.42-.83-1.59-.65-1.67-.87-1.59-1.02-1.59.34-1.94-.34-1.75-.63-1.75.64-1.82-.8-1.81.07-1.83.56-1.76.41-1.76.65-1.69,1.02-1.53-.11-2.01,1.37-1.33.89-1.55.96-1.52.82-1.66,1.76-.82.71-1.85,1.82-.62,1.29-1.24,1.6-.79,1.6-.76,1.56-.82,1.57-.82,1.7-.48,1.64-.71,1.8-.05,1.71-.6,1.78-.16,1.78.4,1.8-.39,1.82-.06,1.75.45,1.67.73,1.68.6,1.84.23,1.38,1.27,1.49.98,1.46,1,1.76.65,1.4,1.18,1.51,1.06.87,1.68,1.68.99.93,1.6,1.08,1.5.13,1.99,1.16,1.47.76,1.67.19,1.84.43,1.76.74,1.74.06,1.84.17,1.84-.85,1.79-.26,1.78.51,1.93-.74,1.71-.55,1.74-1.13,1.52-.33,2.19,2.49-.34,1.01-1.38.45-1.71,1.14-1.55.28-1.79-.12-1.83.48-1.76-.07-1.8-.11-1.79-.27-1.78-.36-1.75.51-1.9-1.18-1.59.03-1.86-.89-1.59-.13-1.89-1.31-1.36-.51-1.78-.98-1.53-1.7-.94-.73-1.75-1.21-1.36-1.49-1.04-1.46-1.07-1.88-.35-1.49-.99-1.59-.83-1.67-.66ZM89.17,17.28l1.73.03,1.13-1.18.27-1.81.98-1.9-.08-1.89-1.55.48-1.91-.07-1.54,1.29-1.78.42-1.69.2.91,1.11,1.55.7.51,1.78,1.47.81ZM102.46,12.45l-1.8-1.45-2.28.49-1.06.66-1.42.89.13,1.56,1.28,1.49,1.95,1.26,1.49-1.15,1.67-.27.35-1.52-.3-1.97ZM113.26,19.03l-1.35-1.49-2.12-.3-1.6-1.1-1.48-1.65-.48,2.32-.84,1.88,1.03,1.53,1.98.53,1.19,1.15,1.08-.86,1.41-.87,1.18-1.16ZM85.17,18.4l-.59-1.55-1.75-.34-1.53.1-1.97.24-.64,1.94-.62,1.79.26,1.7,1.6.09,1.68-.46,1.62-.73,1.5-1.05.45-1.73ZM110.49,34.65l.37-1.83-1.23-1.59-.49-1.65-.13-1.88-1.33-1.27-1.03-1.42-.86-1.67-1.91-.44-1.44-.95-1.52-.88-1.61-.8-1.83.24-1.72-1.03-1.82.21-1.71.66-1.64.68-1.86.23-1.25,1.39-1.71.72-1.08,1.47-1.21,1.33-.5,1.77-1.23,1.39-.55,1.72-.49,1.76.4,1.83-.22,1.81.89,1.64.34,1.73.66,1.64,1.25,1.28.7,1.67,1,1.55,1.81.59,1.44,1,1.57.81,1.81.07,1.63.8,1.77.58,1.77-.64,1.78-.17,1.78-.33,1.36-1.31,1.96-.21,1.41-1.18.59-1.91,1.56-1.01,1.06-1.46.75-1.64.63-1.7.28-1.8-.19-1.81ZM77.6,30.36l1-1.93-.68-1.87-1.28-1.4-.85-1.86-1.46-1.02-.53,1.61-1.18,1.58.14,2.06-.7,1.76-.82,1.56,1.48.04,1.58-.72,1.71.78,1.6-.58ZM115.43,30.03l1.9-.7.09-2.07.05-1.58-.47-1.79-1.8-.43-1.63.15-1.56,1.54.63,2.13,1.1,1.58,1.69,1.15ZM118.79,42.19l.48-1.83-.99-1.75-.11-1.77.38-1.86-.77-1.51-1.5.22-1.83.26v1.87s-.22,1.62-.22,1.62l-.32,1.54,1.49,1.23,1.97.53,1.43,1.44ZM76.97,33.59l-2.16-.07-1.49,1.64-1.03,1.38-.61,1.45.95,1.29.81,1.17,1.36.88,1.44-.96.91-.38.03-1.59.14-1.61-.71-1.54.35-1.64ZM51.71,83.88l1.61-.85.55-1.9,1.15-1.29,1.58-.97.6-1.71.96-1.44,1.34-1.27v-1.93s.69-1.57.69-1.57l.73-1.58.75-1.6-.17-1.82,1.21-1.56.11-1.77-.22-1.77-.14-1.78.44-1.82-.77-1.7.11-1.85-.77-1.65-.5-1.73-1.2-1.4-.4-1.82-1-1.5-1-1.52-1.61-.96-1.11-1.44-1.77-.62-1.38-1.12-1.53-.91-1.78-.34-1.5-1.04-1.67-.86-1.92.27-1.77-.37-1.8-.23-1.81.45-1.83-.41-1.88-.26-1.71.84-1.81.27-1.82.31-1.5,1.21-2-.07-1.64.84-1.16,1.69-1.86.42-1.6.89-1.48,1.08-1.49,1.08-1.34,1.25-1.17,1.42-.93,1.62-1.82.84-.95,1.59-1.1,1.47-.55,1.82-1.28,1.36-.37,1.85-1.1,1.5-.43,1.78-.23,1.81-1.3,1.55.09,1.88-.23,1.73.18,1.75-.63,1.77.66,1.71.03,1.77.18,1.77,1.33,1.43-.19,1.92,1.17,1.4.54,1.69,1.31,1.23.38,1.89,1.39,1.14,1.47,1.08,1.26,1.3,1.76.62,1.47.98,1.29,1.45,1.72.61,1.76.47,1.76.52,1.83.03,1.81.1,1.82.06,1.78-.4,1.7-.75,1.91.41,1.75-.49,1.59-.95,1.94.05,1.34-1.47,1.58-.84,1.72-.57,1.57-.87,1.61-.82,1.75-.65.92-1.8,1.79-.64,1.26-1.31ZM78.06,51.37l1.63-.69.73-1.78,1.19-.8-.24-1.5-1.27-1.21-.72-1.42-1.9-.29-1.8,1.09h-1.64s.91,1.42.91,1.42l.85,1.84,1.57,1.38.69,1.96ZM114.17,49.24l1.48-.9-.32-1.79v-1.13s-.94-1.46-.94-1.46l-1.69-.12-1.44.72-1.64,1.03.24,2.28.23,1.46,2,.07,2.08-.15ZM122.82,96.84l2.05.08,1.77-1.29,1.96-.36,2.02.26,1.49.81,1.36,1.19,1.17,1.52,1.99.22,1.57.86,1.6.84,1.65.81,1.88-.16,1.68,1.16,1.86-.03,1.82-.43,1.77-.41,1.91.12,1.58-1.08,1.88-.25,1.51-1.09,1.6-.83,1.14-1.46,1.71-.75,1.27-1.28,1.29-1.28.63-1.76,1.2-1.37.26-1.86.81-1.58.56-1.69-.07-1.8.64-1.71.37-1.81-.84-1.71-.26-1.75-.45-1.72-1.1-1.48-.29-1.83-.42-1.82-1.37-1.29-.85-1.59-.88-1.59-1.62-1.01-.55-1.91-1.3-1.28-1.95-.56-.95-1.63-1.32-1.24-1.45-1.07-1.45-1.08-1.58-.89-1.69-.68-1.8-.4-1.32-1.48-1.78-.43-1.7-.62h-1.87s-1.64-.85-1.64-.85l-1.86.15-1.71-.67-1.81.03-1.8.2-1.78-.93-1.8.46-1.8.08-1.75.46-1.89-.37-1.66.87-1.76.24-1.74.41-1.23,1.52-1.93.13-1.17,1.41-1.55.86-.92,1.55-1.75.82-.75,1.65-.61,1.67-.86,1.53-.04,1.81-.47,1.64-.97,1.62-.05,1.77.06,1.82v1.83s.48,1.77.48,1.77l.41,1.77.46,1.76.91,1.59,1.25,1.37.26,1.94,1.09,1.46,1.49,1.1.76,1.79,1.91.56,1.47,1,1.34,1.2,1.56.88,1.57.9,1.28,1.37,1.72,1.23.1,2.08ZM88.26,56.7l1.22-1.59-.86-1.85-.86-1.33-1.27-1.44-1.95.43-1.62.84-1.38,1.64,1.88.99,1.46.99,1.59.85,1.76.47ZM107.86,53.27l-.53-2.2-2.21.14-1.65.63-1.54,1.28.67,1.93.55,1.79,1.9-.54,1.13-1.88,1.68-1.15ZM98.7,57.6l.78-1.6-1.28-1.34-.74-1.01-1.47-.86-1.61.59-1.53.38-1.32,1.65,1.1,1.82,1.19.85,1.62.42,1.76.05,1.49-.95ZM35.3,104.17l1.8.45,1.71-1.04,1.74-.18,1.86.35,1.63-.85,1.72-.41,1.87-.02,1.35-1.42,1.63-.66,1.65-.65,1.68-.64,1.17-1.44,1.98-.28,1.34-1.2,1.11-1.43,1.16-1.35,1.62-.93.73-1.71,1.47-1.12.77-1.63,1.04-1.45.41-1.8,1.26-1.37.69-1.65.76-1.64v-1.86s.74-1.66.74-1.66l-.26-1.85.41-1.75.2-1.78-.4-1.78.36-1.81.11-1.85-1.06-1.6-.48-1.72-.67-1.66-1.31-1.28-.65-1.72-.51,1.8.42,1.84-.34,1.79-.48,1.76.28,1.91-1.24,1.57-.45,1.74.29,2.02-1.24,1.47-.88,1.58-.84,1.6-.99,1.51-.94,1.54-.89,1.59-.8,1.69-1.82.81-1.08,1.46-1.34,1.2-1.04,1.58-1.7.77-1.19,1.47-1.75.66-1.41,1.21-1.42,1.23-2.04.1-1.46,1.18-1.71.68-1.64.87-1.95-.09-1.64.95-1.85.13-1.83.07-1.75,1.05-1.87-.75-1.84.49-1.82-.43-1.88.25-1.67-1.1h-2.05s1.39,1.32,1.39,1.32l1.18,1.29,1.7.6,1.41.95,1.25,1.41,1.67.57,1.7.45,1.69.51,1.77.05,1.74.15,1.75-.08ZM96.76,75.69l1.05-1.62-.28-2.07.62-1.77,1.23-1.65-2,.31-1.77-.05-1.73-.63-1.82.7-1.76-.28-1.72-.47-1.66-.66-1.86.08-1.37-1.44-1.65-.55-1.73-.42-1.63-.69-1.21-1.38-1.75-.55-1.07-1.47-1.49-.95-1.54-1.18.87,1.63-.15,1.82.37,1.7.22,1.73.89,1.58.07,1.77.94,1.52,1.21,1.11,1.48,1,1.77.41,1.48,1.08,1.62.88,1.89-.25,1.74.39,1.76.28,1.8-.36,1.76.55,1.79.47,1.78-.57h1.81ZM122.77,106.6l-.45-1.84-1.58-1.3-.52-1.81.38-1.91-.47-1.82.3-1.72-1.39-1.08-1.97.06-1.59-.87-1.48-1.05-1.34-1.22-1.78-.63-.74-1.87-1.32-1.17-1.43-1.11-1.21-1.33-.52-1.79-1.34-1.28-.32-1.82-.91-1.54-.41-1.73-.91-1.61.22-1.86-.43-2.03-1.3,1.71-.14,1.88-.75,1.67.31,1.86-.3,1.75-.05,1.78.56,1.73-.19,1.83.04,1.84,1.15,1.53.53,1.7.67,1.66,1.27,1.32.56,1.75.75,1.71,1.63.94,1.27,1.27,1.39,1.18,1.88.21,1.3,1.26,1.01,1.27,1.89.61.99,1.53,1.54.93,1.78.4,1.84-.04,1.59-.96ZM95.2,87.55l.55-2-.86-2.04.09-2.01.71-2.06-1.99.25-1.74-.14-1.69-.69-1.81.67-1.73-.28-1.69-.45-1.64-.63-1.83.12-1.38-1.4-1.64-.49-1.71-.37-1.63-.63-1.81-1.17.13,2.13-.85,1.82-.09,1.97-.48,2.02,1.92.73,1.21-.74,1.71-.24,1.23.55.6,1.68-.21,1.84,1.95-1.03,1.91-.17,1.88.06,1.95-.06,1.66,1.03,1.63,1,1.98-.05,1.79.5,1.87.28ZM156.56,109.28l1.25-1.48v-2.1s.84-1.68.84-1.68l1.43-1.47-1.82.92-1.73.62-1.91.04-1.54,1.29-1.82.32-1.85.09-1.85-.14-1.84.58-1.75-1.06-1.79-.17-1.84-.09-1.79-.42-1.46-1.21-1.86-.35-1.29-1.37-1.63-.83-1.36-1.29-1.87.34-1.81-.41-1.78.42-1.71,1.09.48,2.23.56,2.04,1.44,1.66.28,1.72.39,1.7.82,1.48,1.27.92,1.6.95,1.92-.14,1.73.49,1.77.37,1.83-.29,1.77.57,1.83.43,1.77-.68,1.81-.11,1.82-.17,1.57-1.1,1.99.19,1.67-.77,1.19-1.65,1.85-.39,1.45-1.11Z"/>
      <path d="M83.18,101.49l-1.1,1.32-1.5.86-1.68.46-1.73.14-1.73-.17-1.63-.61-1.11-1.3-.29-1.89.59-1.84,1.22-1.5,1.51-1.2,1.76-.8,1.92-.17,1.57.63,1.18,1.25.87,1.48.38,1.67-.24,1.68ZM77.95,100.81l1.91-1.48-1.33-1.16-1.52.57-1.61,1.27,1.07.99,1.48-.19Z"/>
      <path d="M102.1,108.76l.36,1.94.38,1.93-1.16,1.4-1.78.68-1.82-.39-1.75-.65-1.63-.91-1.41-1.2-.58-1.68.5-1.73,1.1-1.42,1.47-1.01,1.95-.35,1.93.46,1.61,1.15.83,1.79ZM99.14,111.51l-.23-1.62-1.33-.83-1.36.87,1.48.77,1.44.82Z"/>
      <polygon points="68.71 113.07 66.86 113.29 65 113.34 63.14 113.3 61.29 113.13 59.47 112.78 59.27 111.08 59.75 109.45 60.71 108.03 62.05 106.97 63.66 106.45 65.6 106.7 67.28 107.69 68.51 109.21 69 111.11 68.71 113.07"/>
      <path d="M59.04,67.61l-.7,1.68-.43,1.79-.92,1.58-.88,1.59-.97,1.54-.85,1.62-1.11,1.45-1.3,1.29-1.28,1.29-1.14,1.44-1.49,1.06-1.37,1.19-1.47,1.07-1.54.96-1.6.87-1.61.85-1.68.71-1.72.58-1.74.54-1.76.43-1.79.31-1.79.37-1.82.11-1.83-.13-1.81-.14-1.84-.03-1.78-.46-1.68-.75-1.71-.61-1.62-.83-1.54-.97-1.41-1.16-1.28-1.29-1.24-1.34-1.1-1.45-.91-1.58-.89-1.6-.53-1.75-.32-1.8-.58-1.75v-1.84s-.13-1.82-.13-1.82l.06-1.82.24-1.8.02-1.84.54-1.75.37-1.79.77-1.66.67-1.69.7-1.69,1.16-1.43.89-1.59.99-1.53,1.24-1.34,1.28-1.29,1.19-1.39,1.49-1.07,1.38-1.18,1.4-1.17,1.64-.8,1.54-.94,1.51-1.02,1.76-.51,1.62-.84,1.76-.46,1.76-.45,1.76-.46,1.82-.08,1.81-.17,1.81.14,1.83-.04,1.78.4,1.74.5,1.78.4,1.67.73,1.53.99,1.64.67,1.28,1.22,1.36,1.1,1.31,1.18,1.02,1.44.95,1.47.95,1.48.67,1.62.62,1.64.44,1.7.33,1.72.26,1.74-.18,1.76-.06,1.74v1.76s-.28,1.74-.28,1.74l-.66,1.64ZM39.81,44.18l-1.53-.18-1.55.2-.54,1.03,1.08,1.09,1.17,1,.95-.37.9-1.8-.48-.97ZM32.07,47.03l.18-1.42-1.99-.39-2.01-.05-1.42.94-.89,1.48.87.83,1.74-.5,1.79-.35,1.73-.54ZM48.56,52.38l1.27-1.18.14-1.75-.19-1.66-1.61-1.23-1.81-.93-1.37.67-1.08,1.05-.62,1.37.92,1.39,1.41.88,1.32,1,1.61.38ZM17.54,51.81l.42,1.37,1.76-.39,1.7-.46.79-1.42.25-1.63-1.12-.48-1.24,1.03-1.35.91-1.22,1.07ZM46.04,69.57l.89-1.6.31-1.81.49-1.75.11-1.82-.14-1.82-.64-1.71-.69-1.67-.8-1.64-1.2-1.51-1.6-1.07-1.51-1.19-1.79-.71-1.85-.49-1.9-.26h-1.92s-1.83.32-1.83.32l-1.8.45-1.76.59-1.67.82-1.58.97-1.5,1.11-1.26,1.37-1.24,1.38-1.19,1.44-.93,1.62-.51,1.8-.57,1.76-.52,1.8.02,1.75.2,1.73.43,1.68.58,1.64.77,1.57,1.07,1.38,1.26,1.2,1.45,1.07,1.64.73,1.65.71,1.74.52,1.82-.13,1.81.06,1.77-.39,1.73-.52,1.7-.64,1.45-1.1,1.57-.89,1.3-1.24,1.41-1.13,1.15-1.4.96-1.53,1.09-1.44ZM50.9,57.24l2.19-.31,2.11-.69.53-.84-.64-1.41-.63-1.42-1.19.07-1.09,2.17-.65.26-1.62.06.99,2.11ZM16.43,57.63l-1.11-.95-.96,1.11-.79,1.14.27,1.8,1.42.11.42-1.68.75-1.55ZM51.66,65.91l1.74.68,1.63-.87,1.24-1.29.09-1.68-.38-1.66-1.21-.95-1.87.42-1.61,1.05-.31,2.2.68,2.1ZM10.53,70.25l.79-1.62.04-1.8.07-1.77-1.38-.12-.5,1.61-.09,1.68-.14,1.66,1.21.36ZM52.13,71.16l-.07-.08-1.13-.19.06-.38-1.32-.17-1.31,2.32.57.92,1.56.28,1.53.43,1.02-1.05.13-1.46-1.04-.62ZM18.14,79.02l-.57-1.54-1.07-1.26-.86-1.39-1.22-1.08-.33-.12-1.56.68-.97,1.33-.35,1.68.59,1.67,1.4.82,1.46.66,1.61-.09,1.51-.53.37-.83ZM48.37,79.43l.7-2.56-1.64-.09-1.6-.12-1.5.61-1.22,1.08-.15,1.83.32,1.82,1,.46,1.4-.96,1.23-1.2,1.45-.89ZM20.8,86.42l.98-.43.35-1.95.22-1.84-1.03-.68-1.08.31-.54,1.75-1.29.41-.34,1.2,1.3.77,1.44.46ZM38.6,85.56l1.16-1.04.29-1.46-.89-1.31-2.38.94-2.06,1.58,1.27,2.23,1.22-.37,1.38-.57ZM31.31,88l.67-.59-.59-2.04-1.13-1.69-1.52-.24-1.55.02-1.42.57-.79,1.58-.23,1.9.56.65h2.02s2,.16,2,.16l1.98-.32Z"/>
      <path d="M133,95.39l-1.41-.97-1.57-.65-1.59-.64-1.7.04-1.72-.5-1.6-.85-1.68-.68-1.61-.83-1.62-.82-1.48-1.05-1.54-.95-1.28-1.29-1.38-1.18-1.16-1.4-1.06-1.48-.93-1.56-.63-1.71-.69-1.68-.51-1.75-.14-1.82-.26-1.81-.03-1.83.23-1.82.37-1.79.61-1.72.65-1.7.75-1.67,1.18-1.4.97-1.56,1.26-1.28,1.4-1.12,1.51-.96,1.65-.7,1.63-.69,1.62-.75,1.72-.5,1.75-.35,1.78-.18,1.78-.06,1.78.12,1.78-.06,1.78.13,1.74.4,1.79.13,1.7.55,1.75.37,1.68.6,1.67.64,1.64.71,1.46,1.07,1.59.8,1.5.95,1.59.83,1.32,1.21,1.51.96,1.23,1.3,1.4,1.12,1.12,1.39,1.06,1.44,1.12,1.38,1,1.47,1.18,1.36.69,1.66.95,1.48.38,1.72.52,1.65.33,1.7.16,1.73.13,1.74-.41,1.71-.25,1.72-.37,1.71-.81,1.55-.69,1.61-1.16,1.32-1.04,1.39-1.17,1.44-1.53,1.05-1.47,1.1-1.51,1.06-1.76.58-1.71.63-1.75.56-1.82.22-1.82.16-1.83-.02-1.84-.1-1.76-.52-1.77-.47-1.72-.66-1.62-.86-1.48-1.09-1.54-1ZM126.05,59.14l-1.86.36-1.83.46-1.96.15.67,1.31.78,1.01,1.39-1,1.34-1.2,1.47-1.07ZM145.76,88.9l1.61-.61,1.42-.96,1.49-.9,1.18-1.28.78-1.55.83-1.5.33-1.71.16-1.73-.16-1.73-.21-1.73-.66-1.61-.64-1.64-1.12-1.41-1.12-1.4-1.25-1.28-1.36-1.17-1.35-1.19-1.57-.88-1.61-.77-1.58-.84-1.74-.44-1.74-.37-1.75-.33-1.77-.16-1.79-.1-1.78.17-1.74.46-1.76.44-1.47,1.08-1.41,1.09-1.24,1.27-.98,1.47-.81,1.72-.37,1.87.14,1.89.28,1.85.51,1.8.69,1.75.86,1.64.96,1.6,1.32,1.32,1.36,1.25,1.36,1.27,1.67.84,1.56.99,1.75.61,1.74.6,1.8.41,1.82.26,1.83.42,1.86-.12,1.85-.19,1.81-.45ZM119.05,64.31l-1.62-.61-1.7-.16-1.73-.05-1.05,1.16-.27,1.51-.06,1.48,1.17,1.28,1.38,1.07,1.36.91.7-1.58.51-1.7.8-1.6.5-1.71ZM116.86,74.46l-1.41-1.04-1.47-.96-1.25-1.25-1.43-1.08.11,2.05.02,1.95.39,1.9.49,1.87.8,1.66,1.65-.64,1.37-1.24,1.18-1.46-.47-1.75ZM156.7,83.94l1.68.11,1.42-.73.88-1.38-.28-1.68-1.63-1.42-1.73-1.29v1.6s-.09,1.59-.09,1.59l-.02,1.6-.23,1.6ZM121.11,87.02l.26-1.91-.37-1.83-.9-1.66-1.65-.76-1.77.17-1.73.32.99,1.37,1.07,1.3,1.3,1.07,1.32,1.06,1.48.87ZM156.6,94.51l.68-1.55.58-1.57.91-1.43.69-1.53.47-1.58-1.51-.66-1.73.18-1.56.77-1.2,1.27-.9,1.5,1.26,1.47,1.02,1.66,1.29,1.47ZM153.06,95.7l-.58-1.89-1.3-1.39-1.79-.72-1.93.47-.89,1.55-.42,1.73.33,1.68,1.62-.36,1.63-.44,1.68-.26,1.66-.38ZM142.95,93.59l-1.56.03-1.55.13-1.6-.22,1.15,2.06,2,.99,1.13-1.13.44-1.86Z"/>
      <path d="M107.78,34.77l-.2,1.87-.37,1.84-.74,1.73-.97,1.62-1.25,1.41-1.43,1.22-1.63.94-1.71.79-1.83.49-1.89.14-1.88-.19-1.83-.46-1.71-.78-1.61-.95-1.46-1.19-1.2-1.45-1.01-1.59-.71-1.74-.42-1.83-.2-1.87.11-1.89.51-1.82.72-1.74.97-1.61,1.27-1.38,1.35-1.32,1.67-.88,1.72-.75,1.83-.42,1.87-.24,1.87.2,1.85.36,1.7.81,1.63.94,1.44,1.22,1.18,1.47,1.03,1.57.71,1.74.4,1.84.18,1.87ZM104.13,34.75l-.15-1.88-.69-1.76-.99-1.6-1.35-1.32-1.58-1.03-1.78-.62-1.88-.26-1.87.29-1.75.67-1.59.99-1.35,1.3-1.02,1.58-.69,1.77-.18,1.89.25,1.87.59,1.79,1.03,1.58,1.32,1.34,1.59,1.02,1.8.57,1.87.17,1.87-.14,1.78-.62,1.59-1.01,1.38-1.29.9-1.66.74-1.74.13-1.89Z"/>
      <path d="M32.59,77.05l-1.67.15-1.68.05-1.66-.31-1.61-.49-1.53-.71-1.34-1.03-1.05-1.57-.9-1.64-.65-1.77-.31-1.86.06-1.87.21-1.76.54-1.69.8-1.58.93-1.5,1.06-1.41,1.32-1.17,1.34-1.14,1.53-.88,1.58-.8,1.7-.49,1.73-.32,1.75-.17,1.69.15,1.68.29,1.58.66,1.47.84,1.37,1.02,1.01,1.61.77,1.72.61,1.8.2,1.89-.33,1.87-.47,1.76-.56,1.75-.88,1.62-1.11,1.46-1.15,1.43-1.41,1.18-1.49,1.06-1.65.8-1.72.62-1.78.42ZM27.48,73.24l.3-1.73.32-1.71.63-1.62.76-1.57.91-1.49,1.11-1.35,1.37-1.08,1.39-1.03,1.52-.85,1.63-.59,1.69-.37,1.67-.28-1.17-1.19-1.36-1.04-1.59-.67-1.7-.24-1.72-.04-1.66.46-1.61.61-1.45.93-1.39,1.01-1.36,1.48-1.05,1.72-.83,1.84-.31,1.98.06,1.65.47,1.6.91,1.38,1.03,1.29,1.43.89ZM41.32,63.05l-1.73.14-1.63.52-1.59.63-1.44.92-1.24,1.17-1.05,1.33-.96,1.42-.54,1.63-.27,1.69-.05,1.72,1.85-.35,1.73-.71,1.66-.83,1.56-1.03,1.32-1.32,1.01-1.56.85-1.67.36-1.84.15-1.88Z"/>
      <path d="M144.77,86.01l-1.69.54-1.76.24-1.78.08-1.77-.16-1.73-.38-1.69-.5-1.68-.57-1.56-.85-1.51-.93-1.37-1.13-1.32-1.18-1.12-1.38-1.08-1.41-.76-1.62-.32-1.75-.29-1.76.16-1.78.38-1.74.8-1.54,1.14-1.32,1.34-1.12,1.56-.77,1.61-.64,1.82-.25,1.84-.05,1.84-.06,1.81.37,1.81.35,1.7.7,1.66.77,1.53,1.01,1.5,1.06,1.28,1.32,1.25,1.36.97,1.57.79,1.65.33,1.79.26,1.8-.29,1.8-.52,1.73-.81,1.61-1.14,1.41-1.47,1.08-1.71.61ZM146.06,81.67l.77-1.67.44-1.72-.04-1.77-.42-1.72-.76-1.61-1.09-1.42-1.37-1.15-1.44-1.06-1.51-.79-1.55-.71-1.64-.44-1.67-.33-1.7.06-1.67.28-1.63.51-1.35,1.04-1.25,1.13,1.83.16,1.83.3,1.8.44,1.76.58,1.65.84,1.66.82,1.5,1.09,1.37,1.23,1.39,1.22,1.09,1.5,1.13,1.47.87,1.69ZM142.74,83.06l-.91-1.57-.97-1.47-1.14-1.34-1.25-1.24-1.38-1.11-1.54-.88-1.68-.55-1.71-.42-1.76-.07-1.76.15-1.66.51.78,1.53,1.05,1.39,1.13,1.31,1.21,1.25,1.51.88,1.52.84,1.64.58,1.7.37,1.73.14,1.73-.09,1.77-.19Z"/>
    </g>
  </g>
</svg>