<?xml version="1.0" encoding="UTF-8"?>
<svg id="Layer_2" data-name="Layer 2" xmlns="http://www.w3.org/2000/svg" viewBox="0 0 200.3 130.39">
  <g id="Layer_1-2" data-name="Layer 1">
    <g>
      <path d="M200.19,64.09l-1.7-1.12-1.38-1.08-1.08-1.4-1.29-1.19-.94-1.49-1.31-1.18-1.41-1.14-.51-1.77-1.49-1.15-.4-1.79-.97-1.47-.51-1.69-.35-1.73-1.14-1.45-.16-1.79-1.17-1.52.17-1.84-.12-1.76-1.03-1.64-.22-1.74.76-1.87-.14-1.75-.28-1.73-.24-1.74-.05-1.75-.12-1.75.27-1.73.44-1.68.51-1.5.49-1.56-.13-1.76.84-1.49-.26-1.65-.58-1.77-.6-1.69-.58-1.91-2-.35-1.64-.79-1.84-.19-1.69-.81-1.69-.8-1.75-.56-1.82-.27-1.81-.33-1.86-.16-1.66-.92-1.71-.73-1.84-.25-1.87-.64-1.87.43-1.71.56-1.62.9-1.69.63-1.68.65-1.86-.03-1.59,1.01-1.83.07-1.82.13-1.79.24-1.59,1.04-1.72.53-1.77.33-1.93-.3-1.53,1.24-1.94-.37-1.45,1.57-1.77.3-1.78.26-1.72.5-1.93-.29-1.74.43-1.61.95-1.78.28-1.61.94-1.68.65-1.8.18-1.68.66-1.82.11-1.68.69-1.83.07-1.75.39-1.8.22-1.65.81-1.72.52-1.8.22-1.64.82-1.84.04-1.83.09-1.57,1.08-1.67.7-1.94-.34-1.53,1.23-2-.59-1.72.51-1.64.85-1.81.16-1.62.91-1.67.72-1.74.44-1.98-.48-1.62.9-1.73.47-1.8.21-1.68.68-1.75.41-1.66.77-1.84.08h-1.85s-1.54,1.22-1.54,1.22l-1.82.16-1.59,1.05-1.73.49-1.79.28-1.83.1-1.87-.04-1.52,1.35-1.8.23-1.77.44-1.74.56-1.74.57-1.85.13-1.71.69-1.91-.1-1.73.61-1.66.89-1.8.35-1.86.1h-1.89s-1.56,1.27-1.56,1.27l-1.82.26-1.68.81-2.01-.49-1.6,1.14-1.82.25-1.72.65-1.98-.35-1.67.84-1.63,1.04-1.94-.17-1.64.83-.37,1.62-1.04,1.59.41,1.86.02,1.76.08,1.76.19,1.76-.11,1.88.79,1.64.31,1.8-.41,1.8.12,1.8-.06,1.8-.37,1.8.16,1.8-.1,1.8.57,1.81-.57,1.8.77,1.81-.08,1.8-.06,1.8-.24,1.8-.66,1.8.18,1.81.48,1.81-.12,1.8-.35,1.8-.05,1.81-.07,1.81.76,1.81-.02,1.8-.38,1.81.54,1.81-.64,1.8.59,1.81-.62,1.8.46,1.81.06,1.81-.5,1.8,1.71.57,1.52.98,1.41,1.22,1.99.02,1.23,1.58,1.83.35,1.81.41,1.29,1.46,1.81.39,1.74.54,1.42,1.2,1.81.41,1.62.79,1.31,1.42,1.98.06,1.44,1.14,1.74.53,1.26,1.54,1.6.82,1.87.28,1.34,1.38,1.73.57,1.6.85,1.91.22,1.59.88,1.38,1.19,1.75.29,1.7-.58,1.71-.53,1.47-1.22,1.96.25,1.42-1.37,1.7-.52,1.66-.64,1.82-.16,1.56-.96,1.88.02,1.52-1.07,1.71-.47,1.64-.71,2.02.45,1.41-1.4,1.67-.63,1.7-.54,2.01.42,1.52-1.06,1.83-.16,1.35-1.59,1.83-.15,1.61-.81,1.77-.33,1.78-.3,1.6-.85,1.69-.57,1.81-.2,1.78-.31,1.66-.65,1.5-1.16,1.67-.61,1.9.06,1.72-.5,1.68-.6,1.63-.76,1.65-.72,1.85-.11,1.6-.79,1.83-.11,1.42-1.35,1.64-.68,1.7-.52,1.68-.59h1.87s1.77-.27,1.77-.27l1.59-.83,1.45-1.28,1.93.18,1.67-.59,1.54-1.01,1.9.1,1.51-1.09,1.76-.33,1.55-.97,1.77-.31,1.62-.74,1.92.16,1.62-.76,1.44-1.31,1.97.29,1.52-1.08,1.71-.5,1.74-.4,1.68-.6,1.84-.31,1.18-1.51,1.53-1.15.59-1.93,1.13-1.78,2.09.87,1.93.11,1.9.47,2.01-.81,1.87.5,1.75-.18,1.49-1.06,1.92.24,1.33-1.53h1.84s1.59-.77,1.59-.77l1.77-.22,1.46-1.13,1.62-.68,1.83-.05,1.82-.07,1.35-1.49,1.79-.18,1.64-.63,1.6-.76,1.89.11,1.43-1.07.49-1.64.64-1.52.28-1.93-.86-1.93.9-1.93-.18-1.93.26-1.88-.11-2.08ZM182.13,9.83l.11,1.88-.76,1.65.42,1.61.26,1.62-1.6.96-1.85.05-1.86.02-1.52,1.24-1.96-.32-1.51,1.27-1.65.78-1.85.08-1.78.32-1.74.45-1.73.48-1.58,1.02-1.73.5-1.77.35-1.68.69-1.97-.35-1.5,1.31-1.94-.23-1.46.41.02-1.49-.23-1.79.06-1.79.07-1.72,1.53-.9,1.74-.36,1.72-.44,1.92.31,1.44-1.51,1.99.58,1.72-.44,1.55-1.09,1.75-.34,1.8-.13,1.71-.48,1.79-.18,1.49-1.3,1.76-.29,1.74-.38,1.76-.31,1.66-.69,1.64-.69,2.02-.37ZM160.38,3.5l1.72.95h1.93s1.75.74,1.75.74l1.99-.2,1.8.56,1.79.59,1.64,1.15,1.91.13,1.97-.08,1.87.9-1.76.85-1.84-.08-1.64.65-1.72.38-1.62.75-1.9-.3-1.51,1.14-1.78.15-1.8.08-1.51,1.15-1.7.47-1.71.41-1.74.3-1.73.33-1.76.21-1.56.99-1.66.61-1.81-.13-1.62-.7-1.8-.37-1.69-.66-1.67-.71-1.58-.96-1.9-.12-1.8-.38-1.42-1.39-1.7-.33,1.67-.17,1.52-1.28,1.98.56,1.57-1.06,1.78-.24,1.87.11,1.59-.99,1.68-.63,1.86.08,1.58-1.02,1.89.19,1.67-.67,1.81-.11,1.7-.56,1.74-.44,1.65-.84ZM146.86,26.24l-1.64.52-1.7.71-1.92-.06-1.79.44-1.62,1.01-1.79.43-1.83.28-1.76.51-1.65.94-1.73.63-1.94-.09-1.83.27-1.67.83-1.62,1.02-1.73.65h-1.91s-1.7.75-1.7.75l-1.95-.15-1.68.85-1.66.92-2.2.53.51-2.27-.36-1.85-.05-1.86.36-1.62,1.35-1.03,1.94.19,1.82-.26,1.64-.94,1.87-.07,1.61-1.05,1.63-.97,1.78-.4,1.76-.48,2.01.44,1.76-.49,1.67-.83,1.87-.06,1.63-.98,1.62-1,1.96.27,1.73-.6,1.87-.06,1.59-1.14,1.86-.13,1.54-.37.55,1.45.18,1.73-.38,1.76v1.63ZM129.08,11.26l1.53,1.46,1.91.07,1.57,1.03,2.04-.29,1.56,1.06,1.65.8,1.77.47,1.58,1.03,2.29.22-2.05.79-1.67.63-1.69.54-1.89-.16-1.65.71-1.86-.07-1.76.31-1.67.63-1.52,1.2-1.68.59-1.92-.27-1.7.52-1.55,1.07-1.85-.03-1.7.5-1.77.26-1.7.55-1.68.61-1.78.25-1.76.33-1.58.65-1.55-.54-1.58-.73-1.76-.26-1.81-.12-1.52-.9-1.63-.6-1.46-1.05-1.81-.14-1.42-1.2-1.37-.22,1.28-.76,1.81-.18,1.64-.87,1.91.17,1.79-.28,1.67-.77,1.81-.2,1.81-.21,1.62-.97h1.86s1.54-1.3,1.54-1.3l1.86-.02,1.9.14,1.51-1.4,1.91.19,1.58-1.12,1.81-.21,1.73-.55,1.83-.14,1.62-.83,1.93-.39ZM107.63,37.72l-1.81.7-1.89-.11-1.57,1.04-1.88-.06-1.6.93-1.64.8-1.73.48-1.89-.09-1.61.9-1.9-.14-1.79.28-1.63.83-1.59,1-1.9-.11-1.63.83-1.9-.11-1.75.4-1.61.91-1.73.5-1.64.8-1.66.76-1.85.08-2.03.78.2-2.27.47-1.93-.95-1.92.33-2.03,1.88-.35,1.62-.88,1.78-.26,1.92.26,1.63-.83,1.53-1.21,1.95.33,1.65-.74,1.65-.75,1.93.26,1.68-.67,1.65-.75,1.65-.76,1.96.38,1.53-1.17,1.83-.1,1.74-.42,1.71-.55,1.82-.15,1.62-.88,1.73-.49,1.58-1.04,2.08-.26v2.12s-.59,1.85-.59,1.85l.14,1.86.5,1.96ZM88.61,22.38l1.6.75,1.84.49,1.88.38,1.66.96,1.84.5,1.94.21,1.85.48,1.53,1.31,1.59.56-1.38.91-1.99-.44-1.49,1.37-1.85.06-1.77.39-1.82.18-1.55,1.18-1.71.6-1.92-.18-1.76.41-1.64.85-1.66.78-1.79.31-1.8.25-1.67.74-1.91-.12-1.66.77-1.69.69-1.77.39-1.86.06-1.49,1.4-1.9.45-1.74-.98-1.8-.44-1.61-.93-1.63-.87-1.74-.59-1.73-.63-1.54-1.13-1.71-.68-1.86-.32-1.54-.51h1.58s1.63-.76,1.63-.76l1.83.03,1.55-1.08,1.71-.46,1.75-.3,1.74-.34,1.76-.27,1.71-.46,1.64-.74,1.85.07,1.5-1.3,1.68-.58,1.89.24,1.72-.41,1.73-.4,1.58-.98,1.69-.54,1.86.1,1.77-.24,1.77-.24,1.64-.6,1.65-.35ZM65.6,49.68l-1.96.73-1.78.21h-1.84s-1.54,1.03-1.54,1.03l-1.83.07-1.58.9-1.8.14-1.62.77-1.78.22-1.57.94-1.79.21-1.74.36-1.55,1.01-1.94-.33-1.46,1.3-1.73.41-1.94-.32-1.71.48-1.63.76-1.52,1.11-1.94-.32-1.54,1.09-1.59.08-.58-1.4.96-1.65-.39-1.65.04-1.65.02-1.46,1.64-.29,1.6-1.09h1.9s1.66-.88,1.66-.88l1.72-.66,1.89-.03,1.66-.86,1.89-.06,1.81-.34,1.53-1.34,1.81-.33,1.75-.55,1.85-.2,1.65-.91,1.84-.25h1.91s1.73-.64,1.73-.64l1.73-.65,1.69-.77,1.98.24,1.51-1.46,2.1-.24.38,2.16-.25,1.95.2,1.91.17,2.26ZM45.82,32.56l1.76.8,1.78.47,1.74.58,1.57,1.03,1.83.36,1.48,1.29,2.01-.13,1.6.96,1.75.58,1.37.9-1.34.85-1.9-.21-1.66.63-1.71.48-1.69.53-1.53,1.11-1.93-.29-1.56,1-1.91-.24-1.68.57-1.49,1.27-1.91-.24-1.68.57-1.58.93h-1.85s-1.71.45-1.71.45l-1.52,1.16-1.94-.32-1.69.56-1.63.76-1.53,1.14-1.89.42-1.45-1.66-1.73-.48-2,.22-1.58-.9-1.52-1.03-1.58-.9-1.85-.19-1.48-1.16-1.77-.41-1.86-.18-1.81-.92,1.96-.55,1.67-.78,2.02.54,1.72-.62,1.54-1.3,1.77-.41,2.01.5,1.76-.47,1.76-.48,1.77-.42,1.59-1.12,1.73-.6,1.75-.52,1.81-.28,1.95.24,1.63-.96,1.76-.48,1.72-.65,1.79-.34,1.74-.57,1.93.04,1.67-1.11ZM10.41,47.55l2.16.84,1.48,1.24.85,1.52.1,1.82.78,1.55.77,1.55,1.01,1.55-1.65-.77-1.16-.92-.92-1.61-.13-1.97-1.21-1.48-.98-1.56-1.11-1.77ZM13.79,56.21l-2.15-.64-1.14-1.77-.64-1.83-.45-1.91-1.14-1.64-.05-1.81,1.17-.63.53,2,.93,1.55.97,1.53.47,1.77.52,1.75.97,1.61ZM14.29,48.97l1.64.65.72.92,1.15,1.49.93,1.58.56,1.73.92,1.59v1.33s-2.04-.09-2.04-.09l.07-2.3-.88-1.75-.66-1.84-1.13-1.66-1.28-1.65ZM18.26,50.17l1.33.93.93,1.36.96,1.38.29,1.68.81,1.49.24,1.66v1.62s-1.17-1.49-1.17-1.49l-.81-1.66-.59-1.76-.92-1.62-.59-1.76-.49-1.83ZM21.83,51.42l1.3.59-.18,1.68.32,1.32-1.24-1.6-.21-1.99ZM6.08,45.02l.93,1.62.1,1.76.28,1.68.7,1.5.54,1.57,1.14,1.32-2.44-.91-.81-1.59-.09-1.9-1.28-1.39.05-1.96-1.18-1.54,2.06-.16ZM3.31,46.24l1.14,1.61.83,1.74.08,2.07.72,1.69-1.21-.88-.98-1.22-1.42-1.41.49-1.83.34-1.75ZM3.59,106.85l.46-1.72.33-1.71.6,1.69.72,1.68.57,1.73-1.58-.08-1.11-1.58ZM43.57,127.11l-2-.83-1.53-.87-1.63-.66-1.59-.73-1.49-.94-1.31-1.31-1.73-.45-1.38-1.17-1.57-.79-2,.09-1.1-1.73-2,.1-1.41-1.12-1.51-.9-1.66-.6-1.57-.79-1.29-1.35-1.64-.66-1.94-.04-1.64-.89-1.08-1.66-.73-1.72.11-2.09-.62-1.76-1.85-1.21-.04-2.03-1.3-1.46-.39-1.87-.87-1.81,1.21,1.73.17,1.95.81,1.73.46,1.85.37,1.88.54,1.82,1.09,1.63.53,1.84-1.65-1.41-1.21-1.81-1.27-1.61.22-2.2-.69-1.85-1.52-1.52.57-1.68-.05-1.54.04-1.68,1.33-1.19-1.35-1.41-.2-1.52.21-1.84-.07-1.85-.07-1.84-.11-1.85.48-1.84-.29-1.85-.32-1.85.13-1.84-.19-1.85-.28-1.85.69-1.84-.13-1.85-.35-1.85-.2-1.85.13-1.85v-1.85s.37-1.85.37-1.85l.43-1.85-.17-1.63,1.73.1,1.71.75,1.75.65,1.65.93,1.72.74,1.58,1.1,1.97.11,1.71.77,1.9.28,1.63.98,1.75.76-.1,1.93.11,1.85-.38,1.84-.07,1.85.46,1.83-.1,1.86.85,1.77-.53,1.92.02,1.87,1.26,1.65.03,1.87-.22,1.95.74,1.72.88,1.66.83,1.66-.1,2,.81,1.67.4,1.84,1.45,1.4,1.17,1.49.08,2.07.91,1.64,1.18,1.47,1.46,1.26,1.02,1.55,1.44,1.21.38,2.15,1.28,1.39,1.36,1.31,1.84.76,1.38,1.26-.15,1.68.52,1.69-.57,1.69.33,1.69.15,1.69.12,1.66-.23,2.15ZM25.69,62.97l1.88-.36,1.71-.52,1.66-.69,1.91.19,1.71-.49,1.75-.35,1.47-1.34,1.83-.09,1.6-.9,2.02.59,1.55-1.06,1.58-.95,1.79-.21,1.74-.41,1.6-.88,1.89.13,1.63-.76,1.78-.25,1.69-.58,1.76-.32,1.63-.8,1.7-.54,1.65-.7,1.86.04,1.63-.79,1.69-.57,1.66-.67,1.81-.17,1.82-.14,1.76-.33,1.71-.53,1.57-1.01,1.94.28,1.68-.62,1.6-.9,1.88.06,1.48-1.33,1.78-.28,1.76-.37,1.57-1.01,1.84-.06,1.67-.68,1.82-.17,1.56-1,1.88.15h1.84s1.46-1.35,1.46-1.35l1.93.31,1.61-.82,1.77-.27,1.61-.84,1.72-.46,1.76-.3,1.7-.53,1.72-.44,1.79-.18,1.52-1.16,1.82-.08,1.65-.68,1.72-.44,1.83-.06,1.44-1.43,1.73-.42,1.99.49,1.53-1.14,1.86.02,1.78-.44,1.68-.8,1.85-.19,1.69-.76,1.59-1.14,2.05.51,1.68-.8,1.64-.95,1.79-.42,1.81-.34,1.7-.75,1.84-.22,1.81-.35,1.71-.72,1.97.25,1.68-.82,1.6-1.11,1.95.14,1.56-1.28,2.06.56,1.63-1.02,1.71-.76,1.6.21.34,1.51.64,1.83-.4,1.92.33,1.86-.42,1.92.37,1.86.49,1.85.34,1.86-.13,1.91.12,1.89.43,1.81-.07,1.93.5,1.8,1.15,1.58.63,1.73.14,1.96,1.73,1.23.27,1.94,1.5,1.26.68,1.74.67,1.79,1.42,1.25,1.51,1.14.54,1.99,1.33,1.31,1.68,1.08-1.89.17-1.54,1.12h-1.9s-1.67.73-1.67.73l-1.63.83-1.76.44-1.87.1-1.4,1.55-2-.28-1.7.64-1.54,1.12-1.7.62-1.71.59-1.69.67-1.73.55-1.82.26-1.65.8-1.68.71-1.77.41-1.77.42-1.66.75-1.79.35-1.89.07-1.74.5-1.63.84-1.78.4-1.71.62-1.71.61-1.74.49-1.7.63-1.81.3-1.73.55-1.44,1.43-1.97-.17-1.54,1.11-1.79.37-1.79.37-1.72.57-1.76.47-1.75.48-1.79.37-1.52,1.2-1.68.7-1.64.82-1.94-.1-1.84.23-1.59.99-1.74.52-1.79.38-1.47,1.33-1.93-.06-1.66.78-1.85.19-1.64.84-1.61.95h-1.92s-1.51,1.21-1.51,1.21l-1.7.62-1.74.48-1.93-.12-1.76.41-1.58.99-1.7.61-1.85.15-1.76.45-1.46,1.38-2.06-.54-1.46,1.37-1.73.52-1.79.34-1.88.05-1.61.92-1.79.33-1.66.75-1.83.21-1.45,1.41-1.95-.15-1.82.25-1.75.45-1.45,1.42-1.72.55-1.78.38-1.64.84-1.97-.23-1.58,1.02-1.71.64-1.8.46-1.11-1.6-1.36-1.13-1.33-1.17-1.22-1.29-1.35-1.18-1.2-1.32-1.22-1.32-.37-1.9-1.16-1.36-.98-1.48-1.37-1.29.07-2.03-1.21-1.39-.16-1.85-1.6-1.28-.3-1.79-.81-1.62-.11-1.83-.31-1.76-.88-1.62-.45-1.73-.04-1.81-.64-1.71.31-1.84.27-1.81-.9-1.7.21-1.8.32-1.79-.73-1.76-.22-1.78.26-2.14ZM196.21,76.33l-1.24.96-1.85.25-1.45,1.45-1.89.12-1.59,1.03-1.98-.12-1.78.45-1.49,1.33-1.86.22-1.58,1.07-1.76.53-1.77.48-1.72.66-1.76.54-1.92-.27-1.68-.47-1.78-.79-1.95.06-1.96-1-1.53,1.32-1.59.71-1.52.99-1.54,1.1-.65,1.79-1.07,1.48-1.54,1.1-1.96-.1-1.45,1.45-1.85.23-1.73.61-1.68.77-1.91.07-1.75.53-1.77.5-1.78.44-1.44,1.51-1.75.56-1.99-.2-1.67.79-1.78.49-1.76.54-1.5,1.15-1.84.14-1.86.07-1.41,1.41-1.68.62-1.85.11-1.51,1.13-2-.35-1.54,1.03-1.71.51-1.83.17-1.53,1.07-1.88.02-1.67.65-1.76.38-1.39,1.47-1.98-.28-1.58.92-1.53,1.07-2-.37-1.51,1.13-1.81.2-1.46,1.25-1.69.58-1.71.51-1.83.17-1.66.69-1.91-.08-1.6.84-1.71.52-1.53,1.06-1.84.14-1.5,1.14-1.97-.26-1.57.96-1.59.9-1.67.64-1.87.07-1.56.99-1.7.54-1.59.9-2.01-.37-1.49,1.19-1.62.81-1.94-.17-1.58.93-1.77.37-1.93.96v-2.23s.09-1.91.09-1.91l.64-1.91-.23-1.92-.18-1.92.12-1.83,1.68-.42,1.62-.89,1.64-.85,1.71-.64,1.95.14,1.52-1.23,2.03.37,1.43-1.5,1.9-.02,1.55-1.13,1.82-.28,1.78-.41,1.81-.33,1.63-.88,1.95.13,1.64-.85,1.54-1.2,1.97.15,1.64-.83,1.81-.29,1.53-1.19,1.93.08,1.72-.58,1.76-.46,1.74-.53,1.65-.81,1.75-.49,1.65-.82,1.89-.07,1.82-.29,1.69-.69,1.44-1.48,2.03.37,1.63-.9,1.82-.27,1.72-.62,1.73-.55,1.66-.78,1.88-.1,1.63-.88,1.75-.53,1.63-.9,1.74-.57,1.99.24,1.42-1.52,2.04.38,1.42-1.53,1.86-.18,1.76-.45,1.6-.94,1.79-.39,1.88-.09,1.66-.78,1.61-.94,1.86-.16,1.6-.94,1.64-.84,1.95.11,1.76-.45,1.73-.54,1.77-.42,1.43-1.47,1.78-.38,1.95.13,1.58-1.04,1.94.1,1.47-1.35,1.96.15,1.5-1.29,1.78-.41,1.61-.92,1.83-.25,1.77-.44,1.87-.14,1.59-.99,1.62-.9,1.82-.3,1.63-.87,1.89-.06,1.87-.13,1.51-1.26,1.86-.18,1.72-.62,1.62-.92,1.98.19,1.41-1.59,2.02-.23-.13,2.12-.14,1.97-.06,1.97.6,2.07-1.11,1.55Z"/>
      <polygon points="51.67 107.12 49.71 107.6 47.71 107.57 45.77 107.09 43.94 106.27 45.9 106.17 47.85 106.25 49.78 106.56 51.67 107.12"/>
      <polygon points="148.53 73.96 146.87 74.82 145.22 75.69 144.61 74.53 146.26 73.65 147.92 72.8 148.53 73.96"/>
      <polygon points="184.43 66.08 184.44 64.13 186.54 63.44 185.48 64.76 184.43 66.08"/>
      <polygon points="37.43 44.27 35.58 44.7 33.77 45.29 31.97 45.9 30.11 46.32 28.28 46.79 26.42 47.16 24.53 47.33 22.58 47.41 24.4 46.83 26.15 46.19 27.94 45.68 29.72 45.13 31.53 44.7 33.3 44.13 35.1 43.67 36.9 43.21 38.71 42.77 40.53 42.38 42.35 42.04 44.18 41.7 46 41.29 47.88 40.87 46.15 41.63 44.45 42.29 42.67 42.72 40.93 43.25 39.19 43.8 37.43 44.27"/>
      <polygon points="84.73 31.48 83.09 31.97 81.43 32.47 79.75 32.88 78.08 33.36 76.39 33.74 74.72 34.23 73.04 34.65 71.37 35.14 69.68 35.56 68.02 36.02 67.49 35.07 69.24 34.61 71 34.25 72.73 33.77 74.48 33.34 76.23 32.93 77.97 32.46 79.72 32.04 81.45 31.56 83.21 31.12 84.97 30.64 84.73 31.48"/>
      <polygon points="122.86 20.45 121.34 21.19 119.74 21.83 118.13 22.41 116.49 22.95 114.81 23.3 113.12 23.64 111.43 23.95 109.76 24.09 111.3 23.43 112.9 22.82 114.52 22.24 116.16 21.75 117.83 21.34 119.5 20.98 121.19 20.69 122.86 20.45"/>
      <polygon points="134.68 17.27 133.05 17.98 131.37 18.52 129.63 18.83 127.89 18.86 129.52 18.26 131.21 17.8 132.93 17.47 134.68 17.27"/>
      <polygon points="151.06 13.39 152.74 12.71 154.44 12.12 156.14 11.54 157.83 10.9 159.55 10.36 161.28 9.88 163.04 9.49 164.78 9.03 166.55 8.66 168.3 8.24 170.08 7.94 171.81 7.73 170.2 8.38 168.48 8.93 166.78 9.52 165.07 10.09 163.37 10.67 161.61 11.07 159.87 11.52 158.13 11.98 156.37 12.34 154.61 12.72 152.84 13.07 151.06 13.39"/>
    </g>
  </g>
</svg>