<?xml version="1.0" encoding="UTF-8"?>
<svg id="Layer_2" data-name="Layer 2" xmlns="http://www.w3.org/2000/svg" viewBox="0 0 193.09 118.88">
  <g id="Layer_1-2" data-name="Layer 1">
    <g>
      <path d="M188.02,62.18l-.36-2.02-1.36-1.3-1.39-1.25-.98-1.64-1.29-1.35-1.37-1.27-1.67-.9-1.86-.59-1.37-1.24-1.26-1.46-1.5-1.11-1.9-.41-1.45-1.23-2-.14-1.65-.81-1.6-.94-1.67-.88.95-1.68-.29-1.95.1-1.82,1-1.71-.6-1.87.06-1.8.29-1.84-.14-1.83.02-1.89-1.43-1.49-.59-1.7-.21-1.89-.5-1.82-.97-1.58-1.71-1.05-.97-1.54-.95-1.59-1.4-1.2-1.03-1.55-1.15-1.45-1.93-.61-1.15-1.45-1.24-1.37-1.52-1.03-1.52-1.01-1.62-.66-1.51-.86-1.38-1.19-1.86-.03-1.43-1.22-1.75-.27-1.73-.26-1.73-.25-1.75.19-1.74-.3-1.74.2-1.81-.3-1.54,1.21-1.75.13-1.69.43-1.84.38-1.83.46-1.38,1.39-1.93.37-1.01,1.85-1.8.63-1.17,1.48-1.91.62-.68,1.95-1.34,1.24-1.83.88-.61,1.87-1.3,1.34-.95,1.59-1.08,1.52-.6,1.77-.57,1.76-1.07,1.27-1.37-.75-1.83-.31-1.86-.1-1.58-1.2-1.83-.2-1.92.44-1.75-.53h-1.82s-1.8-.22-1.8-.22l-1.81.03-1.81-.56-1.82.11-1.78.73-1.86-.51-1.82.1-1.73.7-1.84.02-1.7.72-1.82.21-1.67.73-1.66.71-1.9.13-1.48,1.13-1.66.73-1.69.73-1.4,1.19-1.65.9-1.18,1.44-1,1.56-.64,1.74-.4,1.76-.47,1.68-.76,1.67.27,1.8-.62,1.61-1.5.43-1.65.83-1.69.7-1.66.82-1.77.41-1.91-.04-1.54,1.13-2.04-.26-1.51,1.14-1.73.62-1.55.99-1.16,1.39-1.7.61-1.59.81-1.27,1.23-1.21,1.28-.94,1.51-1.42,1.12-.65,1.68-.34,1.76-.98,1.54-.68,1.68-.74,1.66-1.02,1.53-1.1,1.48-.45,1.87-1.33,1.45-.14,1.97-.97,1.68-.04,1.91-.1,1.87-.07,1.91.13,1.95,1.1,1.63.82,1.72,1.52,1.2,1.03,1.51.41,1.91,1.45,1.24.39,1.93,1.43,1.26,1.34,1.32.6,1.74,1.31,1.23.95,1.58,1.44,1.1,1.77.58,1.54.83,1.52.9,1.65.66,1.67.73,1.77.56,1.82-1,1.81.57,1.82.14,1.72-.84,1.75-.35,1.93.66,1.59-1.22,1.94.38,1.61-.96,1.76-.4,1.49-1.17,1.71-.51,1.94-.02,1.29-1.49,1.58-.82,1.7-.61,1.61-.8,1.48-1.01,1.55-.91,1.21-1.38,1.61-.83,1.66-.81,1.21-1.31.89,1.64.69,1.75.74,1.73,1.33,1.22.68,1.8,1.86.61.99,1.58,1.54.9,1.5.95,1.45,1.06,1.8.36,1.53.93,1.74.42,1.69.68,1.87.13,1.47,1.48,1.84.23,1.78.43,1.91-.3,1.81.12,1.78.33,1.79.37,1.82.12,1.83.35,1.81-.59,1.84.16,1.76-.6,1.86.16,1.81-.28,1.65-.92,1.98.32,1.66-.85,1.85-.28,1.43-1.35,1.82-.41,1.7-.71,1.63-.85,1.51-.85,1.33-1.11,1.1-1.34,1.48-.95.79-1.59,1.02-1.37,1-1.77,1.79,1.08,1.21,1.45,1.76.51,1.64.71,1.43,1.16,1.75.45,1.66.65,1.59.9,1.87.02,1.68.64,1.75.38,1.72.5,1.73.56,1.86-.52,1.74.77,1.8-.28,1.79-.1,1.78-.14,1.7-.62,1.69-.47,1.77-.21,1.67-.6,1.59-.8,1.59-.84,1.13-1.41,1.18-1.3,1.17-1.41,1.59-1.13.73-1.74,1.08-1.5.31-1.95,1.3-1.38.3-1.9,1.02-1.54.48-1.78,1.21-1.5.74-1.7.24-1.85.37-1.74.05-1.78.22-1.8-.36-1.76-.76-1.64.1-1.93-1.57-1.28-.47-1.75-.65-1.69-1.36-1.25ZM155.48,18.32l1.56,1.05.95,1.58,1.25,1.39.5,1.8.79,1.65.11,1.86.38,1.75,1.19,1.67-.59,1.89.49,1.82-.32,1.82-.74,1.72-.26,1.77-.62,1.63-.98.71.04-1.72-.71-1.79.77-1.7-.44-1.79.02-1.74.55-1.76-.26-1.75.16-1.84-.84-1.63-.88-1.54-.73-1.59-.75-1.62-1.45-1.08-1.18-1.33-.98-1.6-1.47-1.08-1.56-.94-1.92-.17-1.31-1.55-1.78-.44-1.81-.25-1.83.17-1.79-.48-1.78.51-1.76.29-1.87-.26-1.52,1.27-1.98-.32-1.63.8-1.7.63-1.3,1.36-1.35,1.16-1.42,1.04-1.44,1.03-1.21,1.29-1.72.83-.49,1.9-1.18,1.32-1.07,1.42-.45,1.76-1.59,1.22.07,1.94-.39,1.72-.8,1.61-.49,1.71-.06,1.78-.17,1.77-.36,1.79.85,1.73-.58,1.83,1.36,1.38-.27,1.92,1.37,1.26.86,1.7-1.89-.4-1.23-.37-.69-1.2-1.31-1.18.31-1.92-.34-1.74-.44-1.74.07-1.79-.27-1.79v-1.81s.14-1.81.14-1.81l1.2-1.58-.43-1.96,1.47-1.39.72-1.6.69-1.61-.03-2.05,1.74-1.02.33-1.95,1.12-1.42,1.78-.81.65-1.88,2.03-.41,1.08-1.48,1.47-1.01,1.55-.87,1.62-.74,1.25-1.52,1.7-.64,1.89-.03,1.6-.9,1.83.07,1.73-.34,1.73-.59,1.79.24,1.73.53,1.74.1,1.87-.28,1.61.86,1.74.41,1.64.71,1.23,1.41,1.71.62,1.67.78.71,1.84ZM147.96,25.82l-1.19-1.29-1.43-1.03-1.63-.68-1.63-.65-1.65-.78-1.79-.2-1.75.97-1.72.03-1.63.54-2.02-.33-1.69.77-1.54,1.04-1.58.96-1.35,1.27-.68,1.85-1.65.99-.6,1.77-.97,1.52-1.22,1.48.02,1.92-.14,1.8-.62,1.66.3,1.72.55,1.63-.16,1.77.26,1.75,1.15,1.37.92,1.44.83,1.56,1.2,1.29,1.62.74.96.8-.8,2.1-1.63-.33-1.91-.5-1.92-.47-1.98-.44-1.25-1.53-.26-1.96-1.13-1.41-.88-1.58-.24-1.8-.58-1.72.45-1.83-.61-1.77.56-1.74-.08-1.82.62-1.69.04-1.88,1.12-1.49.5-1.74.75-1.64,1.43-1.19,1.18-1.32.78-1.67,1.09-1.46,1.62-.88,1.38-1.13,1.74-.57,1.26-1.39,1.62-.78,1.86-.11,1.55-1.07,1.75-.46,1.84.27,1.77-.39,1.77.39,1.72.49,1.84.22,1.96.05,1.69.88,1.44,1.26,1.53,1.08.97,1.65,1.72.98,1.04,1.58.34,1.92,1.06,1.58.44,1.82.49,1.82.03,1.88.02,1.88-.18,1.88-.93,1.85-.79,1.18-1.79.53-1.23-.71.23-1.63-.25-1.78.28-1.75-.55-1.7.13-1.81-1.21-1.43-.81-1.48-.93-1.39-.83-1.51ZM131.7,44.42l2.08-.23,1.15-1.73,1.51-1.1,1.72-.97.99-1.66.94-1.66.16-1.94,1.17-1.69-.5-2.23,1.53,1.48,1.22,1.29.5,1.73.36,1.79-.27,1.87-1.67.76-1.28,1.74-1.86.57-1.79.7-1.69.91-1.8.71-1.69.94-.81-1.28ZM128.27,41.87l.14-1.68-.19-1.79.16-1.85,1.45-1.3.54-1.77,1.59-.92,1.26-1.25,1.55-.98,1.85.41,1.91-.45-.32,1.98-.08,1.94-1,1.66-1.03,1.57-1.37,1.25-1.06,1.71-1.84.63-1.75.79-1.83.04ZM143.15,28.9l-1.5-.89-1.57-.83-1.81.23-1.72-.63-1.61.91-1.96-.33-1.38,1.23-1.6.82-1.02,1.71-1.32,1.37-1.36,1.43-.91,1.74-.69,1.86-.13,1.99.08,1.92.68,1.79.67,1.76,1.2,1.45,1.2,1.42,1.52,1.13.41,1.47-1.26-.44-1.64-.63-1.92-.57-.86-1.74-.44-1.83-.57-1.7-1.24-1.67.13-1.92.24-1.76.2-1.77.75-1.62,1.15-1.38.12-1.96,1.31-1.25,1.45-1.03,1.07-1.44,1.75-.53,1.37-1.1,1.7-.39,1.65-.46,1.73-.97,1.9-.02,1.69,1.09,1.82.22,1.73.66,1.6.99,1.06,1.56,1.38,1.45.1,2.05.77,1.78.55,1.94-.29,1.99-.6,1.92-1.41,1.55-.24-1.81.63-1.75-.67-1.68-.2-1.71-.46-1.66-.84-1.5-1.37-1.04-.99-1.41ZM80.44,81.03l.99-1.31,2.01,1.01,1.3,1.23,1.7.73,1.76.55,1.24,1.69,1.73.66,1.7.74,1.92.06,1.79.39,1.74.62,1.77.58,1.84.2,1.87-.23,1.83.24,1.83-.6,1.85.52,1.87.28,1.81-.43,1.72-.83,1.86-.03,1.8-.38,1.61-1.03,1.72-.6,1.67-.72,1.78-.05,1.63,1.36-1.52,1.03-1.72.39-1.54.9-1.84-.05-1.69.4-1.64.62-1.67.61-1.78-.07-1.73.37-1.76-.36-2.01-.36-2.02.55-2.02.06-2.02-.54-1.85.5-1.73-.9-1.91.29-1.78-.46-1.73-.63-1.63-.89-1.71-.62-1.97-.03-1.66-.81-1.41-1.28-1.43-1.15-1.64-.79-.95-1.41ZM79.63,60.18l-1.39-.91-.72-1.93,1.82.63,1.74-.48,1.59.14-1.44,1.27-1.6,1.28ZM93.23,68.35l1.35-1.26,1.71-.63,1.86-.17,1.57-.92,1.69-.67,1.88.47,1.72-.55,1.78.13,1.8-.24,1.82.02,1.77.38,1.82.28,1.35,1.47,1.93.18,1.29,1.33,1.6.97.55,1.83.15,1.7.13,1.41-.63,1.46-1.69.31-1.16,1.66-2.04-.07-1.69.58-1.56,1.16-1.88-.16-1.78.31-1.81.33-1.81-.36-1.81-.04-1.87.07-1.63-1.02-1.67-.63-1.9-.16-1.38-1.24-1.59-.87-1.3-1.28-.63-1.73.56-1.44.16-1.66,1.34-.96ZM92.32,62.87l1.6.24h1.44s-1.47,1.27-1.47,1.27l-1.97.65.25-1.03.15-1.13ZM104.63,61.42l.71-.85.94-.08,1.13,1.21-1.19.22-1.59-.51ZM121.87,63.78l-.25,1.36-1.3,1.21-1.33-1.36,1.2-1.35,1.68.14ZM109,85.09l-2.13.05-2-.61-1.93-.02,1.35-.87,1.58-.72,1.72.51,1.41,1.66ZM93.24,83.22l-1.62-.9-1.54-.74-1.49-.85-1.88-.4,1.42-1.45,1.22-1.26,1.38,1.03,1.8.72.57,1.76.15,2.09ZM84.58,73.09l-.14-1.69.23-2.14,1.46-.56,1.77.64-.42,2.07.33,1.95-1.5.86-1.73-1.12ZM123.69,81.21l-2.07.98-2.18.92.02-1.71,1.28-1.84,2.26.71.69.94ZM83.58,63.59l-1.87,1.58-.07-2.26,1.52-1.13,1.59-.95,1.65-.85,1.48-1.26,1.91-.25,1.59-1.13,2.03.29,1.59-1.32,1.95.19,1.77-.72,1.87-.18,1.89.02,1.79-.8,1.9.75,1.84-.62,1.84.32,1.86.03,1.79.59,1.8.38,1.82.32,1.81.38,1.71.74,1.94-.02,2.03.5-.12,1.71-1.17.05-1.82-.19-1.74-.41-1.71-.5-1.64-.82-1.65-.96-1.89.38-1.77-.32-1.76-.66-1.83.81-1.78.16-1.83-.86-1.74.79-1.89-.51-1.67.93-1.78.28-1.85.07-1.74.5-1.65.78-1.61.85-1.75.52-1.6.85-1.37,1.27-1.69.67ZM109.53,12.7l1.83-.74,1.21-1.39,1.3-1.33,1.67-.81,1.56-.96,1.69-.71,1.37-1.37,1.93-.11,1.67-.74,1.83-.15,1.71-.75,1.82-.15,1.82.29,1.88-.83,1.85.29,1.73.77,1.74.59,1.46,1.21,1.96.18,1.39,1.25,1.97,1.15-2.26.22-1.76-.73-1.78.59-1.78-.03-1.84-.28-1.71.66-1.76.32-1.66.68-1.86.09-1.76.48-1.32,1.44-1.63.73-1.72.61-1.37,1.18-1.78.62-.92,1.7-1.56.95-1.59.99-1.02,1.55-.87,1.64-1.01,1.51-.75,1.67-1.49,1.26-.96,1.59-.14,1.93-.85,1.63.11,1.92-1.29,1.57-.15,1.84.5,1.89-.33,1.79-.69,1.82-.06,1.85.35,1.82.82,1.73.13,1.83.14,1.34-1.01-.79-.66-1.73-1.34-1.21-.85-1.56-1.26-1.38-.71-1.67.16-1.92-.02-1.79-.37-1.7-.92-1.71-.11-1.8.29-1.78.91-1.67.06-1.77.36-1.73.96-1.54-.29-2.01,1.1-1.47,1.08-1.43.59-1.71,1.38-1.2.76-1.64,1.09-1.41,1.04-1.48ZM101.65,49.11l-1.55,1.14-1.72.41-1.46,1.02-1.83-.09-1.63.53-1.62.7-1.66.61-1.77-.04-1.73.18-1.68.79-1.87-.71-1.72.56-1.76.2-1.83.28-1.83-.44-1.55-1.44,2.02-.28,1.78.42,1.78.21,1.72-.93,1.75-.17,1.75-.1,1.79.16,1.71-.44,1.81.06,1.76-.29,1.58-.89,1.7-.5,1.49-.98,1.79-.39,1.34-.59,1.43,1ZM99.23,45.35l-1.52,1.14-1.88.18-1.47,1.16-1.66.73-1.81.27-1.84.06-1.64.88-1.77.34-1.79.28-1.82-.39-1.78.04-1.73-.62-1.83.3-1.85.02-1.47-1.35-2.29-.22,2.19-.42,1.79.76,1.73-.6,1.75.13,1.74-.35,1.77.6,1.76-.2,1.61-1.1,1.77.06,1.7-.39,1.47-.98,1.75-.43,1.52-1,.51-1.87,1.58-1.07-.23-1.82.42-1.81-.64-1.73-1.56-1.06-.7-1.86-1.68-.79-1.73-.55-1.53-1.01-1.67-.77-1.97.62-1.7-.7-1.79-.1-1.8-.32-1.81.02-1.73.71-1.74.39-1.94-.39-1.5,1.27h-1.92s-1.22,1.48-1.22,1.48l-1.63.73-.99,1.46-.94,1.49v1.76s-.22,1.73-.22,1.73l.42,1.72-1.74.13-1.67-.42-1.7-.17-1.71-.17-1.66-.45-.29-1.76,1.24-1.46v-1.94s1.54-1.04,1.54-1.04l1.43-.92,1.56-.89,1.64-.75,1.41-1.28,1.92-.07,1.61-.88,1.78-.35,1.77-.36,1.74-.55,1.84.12,1.74-.83,1.84.38,1.8.11,1.78.41,1.88-.77,1.71.88,1.78.26,1.82.18,1.58,1.03,1.76.4,1.99-.08,1.39,1.34,1.32.91.07,1.67.41,1.84.64,1.78.08,1.83.24,1.81-.11,1.92.88,1.75ZM87.63,37.98l-.78,1.37-1.71.71-1.84.13-1.7.64-1.77.56-1.84.12-1.79-.75-1.83.11-1.74-.55-.94-1.14,1.2-1.09,1.65-.63,1.58-.79,1.79-.05,1.68-.44,1.73-.36,1.79-.08,1.74.46,1.43,1.16,1.33.64ZM73.82,33.09l1.91-.68,1.72.21,1.7-.33,1.73.74,1.69-1.01,1.48.86-.22.22-1.92.4-1.98-.03-1.93-.87-1.99.46-2.19.05ZM67.98,37.7l.6,2.23,1.54,1.29,1.53,1.09h1.8s1.64.87,1.64.87l1.79-.11,1.75.11,1.75-.04,1.77.1,1.75-.22,1.79-.17,1.45-1.14,1.71-.49,1.06-1.38.87-1.51-1.08-1.35-.87-1.39-1.3-1.03-1.62-.42-2.01-.63,1.02-.28,1.56.05,1.43.9,1.49.59,1.7.38.93,1.44,1.07,1.21.81,1.75-1.62,1.12-1.41.9-1.12,1.48-1.73.42-1.46,1.19-1.87-.24-1.66.67-1.76.24-1.77-.34-1.8.55-1.63-1.18-1.78.06-1.68-.49-1.53-.9-1.68-.47-1.47-.92-1.39-.69-.99-1.41.05-1.69.55-1.44,1.54-1.42,1.99-.58,1.78-.73-.57,1.65-1.55,1.1-1.39,1.26ZM74.8,24.59l1.83.22,1.83-.18,1.83-.12h1.82s1.64.5,1.64.5l1.77-.32,1.67.49,1.68.35,1.85-.62,1.68.52,1.51.97,1.42.95,1.74.47.73,1.11-1.37-.17-1.64-.7-1.6-.9-1.81-.15-1.74-.4-1.71-.57-1.86.32-1.66-.95-1.82.24-1.78.07-1.75-.85-1.79.48h-1.78s-1.8-.04-1.8-.04l-1.75.43-1.68.72-1.8.08-1.57.96-1.79.2-1.83.2-1.67.66-1.52.96-1.24,1.38-2.01.27-1.13,1.47-1.34,1.29-.52,1.8-.15,1.81-.56,1.72.39,2.05-1.66-.08-1.43.21.13-1.62-.67-1.81.47-1.78,1.55-1.19.98-1.38,1.04-1.38.9-1.66,1.86-.45,1.42-1.02,1.23-1.44,1.65-.68,1.72-.47,1.58-.85,1.79-.22,1.85.14,1.57-1.04,1.74-.34,1.83.58,1.72-.24ZM15.47,83.8l-1.36-1.44-.33-1.93.16-1.9.66-1.76.32-1.81.16-1.94.39-1.79,1.33-1.4.03-1.93.68-1.67,1.59-1.31.09-1.94.89-1.6,1.35-1.27.98-1.54,1.01-1.55,1.37-1.21,1.61-.94,1.12-1.44,1.56-.91,1.48-.97,1.6-.77,1.4-1.27,1.81-.28,1.82-.15,1.49-1.31,1.91.22,1.4-.36.66.51-2.03.39-1.77.46-1.8.41-1.54,1.14-1.52.99-1.61.78-1.33,1.2-1.75.73-1.09,1.47-.85,1.67-1.88.7-.48,1.95-1.41,1.15-1.54,1.11-.61,1.76-1.03,1.48-.54,1.73-1.2,1.44.17,1.96-.76,1.63-.6,1.7-.53,1.94.09,2.07-1.14,1.83-.03,2.11,1.94-.82,2.05.06.9,1.93,1.56,1.16,1.25,1.59,1.9.6,1.96-.02,1.9-.11,1.81-.24,1.81-.23,1.89.24,1.67-1.01,1.91.16,1.68-.8,1.96.16,1.4-1.55,1.77-.46,1.92-.18,1.7-.73,1.29-1.45,1.82-.53,1.61-.92,1.33-1.29,1.17-1.45,1.19-1.39,1.54-1.15,1.57-1.18.56-1.98,1.62-1.17,1.12-1.54.46-1.96,1.33-1.41,1.26-1.47.52-1.75.73-1.66-.43-1.84.46-1.74-.48-1.71-.37-1.75-1.42-1.18-.75-1.83-1.79-.81-1.23-1.64-1.93-.43-1.86-.5h-1.93s-1.84.24-1.84.24l-1.84.32-1.8.67-1.92-.36-1.85.23-1.9-.1-1.82.82-.38-.69,1.68-.52,1.57-1.01,1.74-.45,1.96.58,1.56-1.32,1.84.2,1.76-.41,1.79-.35,1.8.31,1.73.64,1.84-.14,1.76.46,1.54.97,1.13,1.44,1.33,1.07,1.26,1.23.59,1.7,1.43,1.45-.72,1.96.87,1.79-.11,1.87-.79,1.71-.88,1.61-.08,1.95-.95,1.58-1.49,1.23-1.01,1.49-.7,1.74-1.44,1.17-1.46,1.11-1.18,1.36-1.27,1.27-.88,1.73-1.81.67-1.2,1.39-1.53.98-1.13,1.56-1.76.64-1.6.87-1.44,1.14-1.68.72-1.79.46-1.38,1.38-1.8.43-1.77.46h-1.85s-1.48,1.39-1.48,1.39l-1.87-.21-1.71.54-1.74.52-1.82-.47-1.77.33-1.74-.68-1.85.54-1.67-.75h-1.87s-1.61-.85-1.61-.85l-1.15-1.49-1.79-.64-.81-1.65ZM55.15,57.9l.3,1.67.14,1.81-.56,1.74-.72,1.71-1.42,1.26-1.17,1.38-1.1,1.45-.88,1.76-1.53,1.07-1.48,1.14-1.61.94-1.76.65-1.85.33-1.65.87-1.85.14-1.76.86-1.85-.89-1.86.39-1.68-.89-1.88-.25-.56-1.8.02-1.76-.1-1.77.78-1.6.1-1.93,1.03-1.5,1.3-1.27,1.59-.94.89-1.7,1.67-.79,1.32-1.27,1.73-.6,1.8-.36,1.56-.86,1.66-.65,1.72-.48,1.73-.58,1.81-.05,1.75.56,1.83-.1,1.84.51.68,1.82ZM48.46,51.45l.97-1.68,2.01.84,1.73.86-1.63.65-1.86.02-1.21-.7ZM54.78,74.25l-1.19.69-1.03,1.39-1.58.42-1.36-1.47,2.12-.33,1.19-1.13,1.28-.67.58,1.08ZM41.56,80.84l-1.36.6-1.43,1.33-1.89.35-1.32-.64,1-1.03,1.86-.14,1.84.06,1.31-.54ZM23.67,77.41l1.68-.56,1.69.21.44,1.81-.75,1.37-1.23.84-1.01,1.11-1.19-.44-.99-.97.74-1.6.62-1.77ZM22.41,69.9l1.15-1.24,1.18-1.03.82-1.13.4,1.71-.55,1.65-.82,1.61-.12,1.59-.58-1.66-1.48-1.5ZM30.1,80.17l.72,2.14-.76.85-1.34-.19-2.26.25,1.35-2.09,2.29-.96ZM33.59,57.84l.47-1.57.6-1.59,1.64-.69,1.53.56-1.04,1.54-1.76.62-1.43,1.12ZM62.11,56.87l-2.18.98-2.02-1.46.17-1.78,1.33-1.09,1.06-.59,1.98-.3,1.68,1.12-.25,2.14-1.77.99ZM64.21,58.63l-1.31,1.17-1.56.18-1.87-.63,1.8.63,1.27-1.21,1.67-.14ZM57.91,66.07l1.86-1.02,1.32-1.55,1.23-1.17-.67,1.35-.67,1.75-.79,1.69-1.24,1.38-1.59-.27.57-2.15ZM72.87,86.09l-1.38,1.14-1.3,1.18-1.37,1.1-1.03,1.49-1.64.76-1.15,1.39-1.58.8-1.6.75-1.35,1.18-1.68.58-1.47,1.01-1.51.95-1.74.42-1.73.39-1.69.49-1.59.82-1.77.2-1.62.8-1.64.8-1.87-.34-1.61,1-1.84-.72-1.71.33-1.74.29-1.7-.55-1.86.47-1.52-1.08-1.57-.71-1.49-.85-1.17-1.27-1.75-.76-1.07-1.48-.45-1.88-1.31-1.32-.95-1.58,1.85-.17,1.75.75,1.79-.29,1.78-.18,1.79.21,1.81.19,1.78-.22,1.79-.21,1.7-.67,1.74-.39,1.62-.85,1.7-.51,1.82-.16,1.77-.36,1.69-.61,1.4-1.24,1.47-1.03,1.95-.13,1.36-1.42.02.75.1,1.53,1,1.51-.43,1.68,1.83-1.08-.16-1.81-.8-2.39-.15-.47.87-1.01,1.62-.81.97-1.62,1.73-.69,1.12-1.41,1.4-1.1,1.34-1.17,1.45-1.08.52-1.93,1.45-1.08,1.37-1.18,1.14-1.38.43-1.84,1.55-1.14.34-1.84.71-1.62.69-1.62,1.02-1.51.38-1.56.74,1.41,1.07,1.44.75,1.62.45,1.77,1.21,1.38.31,1.78,1.18,1.55-.75,1.91.63,1.87-.43,1.82-1.09,1.57-.77,1.64-.82,1.62-.79,1.66-1.08,1.48-1.18,1.39-1.08,1.47ZM84.58,101.34l-1.91-.96-1.42-1.25-1.1-1.59-1.49-1.09-1.14-1.43-.93-1.57-1.2-1.58.23-1.78.28-1.69,1.27-1.2.76-1.45,1.35-.8.75,1.65.62,1.72.25,1.87,1.63,1.32.62,1.76.15,2,.04,1.9.73,1.7,1.4,1.59-.88.88ZM117.41,105.33l1.48-1.09,1.43-1.28,1.09-1.57.95-1.68.92-1.61,1.47-1.28v-1.97s.03-2.03.03-2.03l-.62,1.89-1.24,1.24-1.55,1-1.22,1.26-.59,1.75-.73,1.65-1.62.95-1.13,1.34-.85,1.49-1.21,1.28-1.75.67-1.76.15-1.76-.04-1.74-.56-1.71-.49-1.81.6-1.66-.8-1.81.22-1.74-.25-1.73-.32-1.57-.95-1.73-.3-1.69-.47-1.5-1-1.64-.57-1.62-.64-2.22-.53,1.57-.62-.88-1.91-.08-2.05-.9-1.8-.21-1.98-.69-1.85-.45-1.92-.65-1.91,1.82.68,1.67.66,1.46,1.23,1.77.42,1.97-.3,1.63.79,1.7.59,1.68.74,1.76.44,1.83-.05,1.76.47,1.81.11,1.82-.39,1.79-.23,1.8.48,1.82.25,1.72-1.1,1.89.84,1.64-1.25,1.76-.25,1.86.18,1.65-.82,1.78-.27,1.76-.38,1.62-.8,1.89-.59,1.1,1.73,1.7,1,.96,1.8,1.96.72,1.53,1.32-.9,1.87-1.49,1.03-1.09,1.35-1.58.74-1.56.71-1.29,1.32-1.5.98-1.93-.21-1.71.34-1.62.62-1.49,1.18-1.68.06ZM180.48,95.52l-1.25,1.24-1.26,1.15-1.42.96-1.38,1.15-1.74.38-1.73.3-1.7.44-1.74.35-1.77.17-1.74-.57-1.87.38-1.84-.14-1.71-.87-1.95.34-1.56-1.33-1.89-.04-1.92-.08-1.69-.78-1.38-1.45-1.63-.81-1.97-.16-1.21-1.59-1.91-.37-1.18-1.54-1.69-.76-1.4-1.18-1.29-1.31-1.7-.82-1.32-1.28-1.36-1.24-1.56-1.11-1.08-1.32-.47-1.71-.95-1.4-.74-1.46,1.59.12,1.65.54,1.54,1,1.74.2,1.75-.06,1.74-.25,2.53-.12.89-.89.64-1.39-1.51-.63-1.75-.39-1.65.56-1.43.89-1.19.56-1.65-.23-1.37-.87-1.76-1.31-1.28.13-.96.92-.92-1.45-.37-1.86-.52-1.77-1.04-1.72.43-1.92.15-1.94,1.04-1.55.8-1.67.65-1.73.55-1.78,1.01-1.57,1.27-1.31-.26,1.56,1.23,1.44.08,1.88.81,1.59.79,1.6,1.19,1.38,1.3,1.26.87,1.52.44,1.89,1.86.74.66,1.81,1.26,1.27,1.74.68,1.41,1.1,1.26,1.31,1.52.96,1.74.61,1.26,1.37,1.52.97,1.73.57,1.71.58,1.5.99,1.62.76,1.73.5,1.56.94,1.71.56h1.86s1.68.63,1.68.63l1.76.32,1.78.15,1.71.97,1.84-.65,1.78.04,1.78-.08,1.84.45,1.82-.09,1.79-.33,1.61-1.02,1.29-.47-.48,1.74-1.35,1.38-.74,1.74-.38,1.97-1.4,1.35ZM183.56,84.17l-1.48,1.25-1.86.14-1.83.04-1.8.02-1.78.28-1.83.36-1.8-.32-1.75-.55-1.76-.38-1.93.21-1.57-1.12-1.67-.69-1.8-.35-1.88-.23-1.29-1.55-2.04.04-1.19-1.65-1.55-.93-1.75-.59-1.84-.5-.99-1.8-1.51-.99-1.54-.96-1.51-1.01-1.82-.62-1.1-1.47-1.19-1.35-1.1-1.42-1.16-1.37-.62-1.73-1.04-1.44-1.21-1.4v-1.94s-1.18-1.47-1.18-1.47l-.36-1.83.28-1.86.14-1.79.74-1.63.23-1.91,1.07-1.55,1.4-1.26,1.63-.91,1.8-.45,1.62-1.09,1.84.27,1.71-.4,1.71-.73,1.78-.04,1.74.82,1.75.04,1.73.26,1.75.15,1.76.2,1.55.95,1.81.11,1.71.47,1.65.64,1.46,1.05,1.8,1.1-1.99-.67-1.85.16-1.59-.8-1.73-.29-1.67-.5-1.53-1.11-1.71-.42-1.78-.04-1.81.55-1.69-1.03-1.75.4-1.67.72-1.81-.32-1.81.03-1.56,1.07-1.68.69-1.31,1.27-1.48,1.1-.7,1.7-.19,1.77-.35,1.73.11,1.77.31,1.74.83,1.58.53,1.66v2.01s1.16,1.41,1.16,1.41l.94,1.55,1.02,1.5,1.62.96.86,1.68,1.95.53,1.03,1.54,1.79.59,1.43,1.04,1,1.72,1.53.95,1.5,1.01,1.67.7,1.73.54,1.67.64,1.6.81,1.77.35,1.48,1.25,1.73.52,1.81.19,1.75.44,1.84-.14,1.78.23,1.79.07,1.83.34,1.71-.84,1.73-.41,1.76-.37,1.26-1.38,1.52-.83,1.46-1.04,1.44-1.4v-2.06s.44-1.82.44-1.82l-.32-1.86.36-1.96-.54-1.85-.89-1.71-.58-1.78-1.19-1.43-.95-1.58-1.2-1.39-1.35-1.24-1.65-.96-.85-1.7-1.28-1.31-.98-1.31,1.21,1.02,1.8.51,1.53.96,1.16,1.39.78,1.72,1.82.75.37,1.96,1.5,1.09.55,1.73.81,1.55,1.49,1.26.69,1.66-.2,1.94.95,1.55.22,1.76-.74,1.68-.06,1.76-.47,1.75-1.74.88-.89,1.49-1.62.64-1.43.88ZM183.76,77.12l-1.02,1.48-1.51.98-1.66.64-1.57,1.01-1.86-.28-1.74.51-1.78-.03-1.74-.46-1.81.14-1.71-.52-1.75-.33-1.7-.53-1.63-.71-1.54-.92-1.98.12-1.25-1.51-1.48-.96-1.66-.65-1.65-.69-1.73-.63-1.12-1.49-1.53-.94-1.4-1.12-1.09-1.44-1.12-1.38-1.5-1.04-.77-1.66-1.14-1.36-.8-1.59-1.63-1.1-.69-1.94-.07-1.98.09-1.96.49-1.92,1.69-1.06,1.33-1.19,1.59-.87,1.64-.99,1.81.05,1.74-.48,1.78-.26,1.77.42,1.76.21,1.75.28,1.77.2,1.64.72,1.65.63,1.6.73,1.66.58,1.89.12,1.7.6,1.35,1.25,1.31,1.24,1.89.35,1.22,1.36,1.03,1.54,1.93.46,1.15,1.38,1.25,1.26,1.11,1.39,1.49,1.09.23,2.01,1.14,1.34,1.12,1.41.09,1.84.77,1.59.46,1.76-.48,1.74-.8,1.58Z"/>
      <polygon points="18.28 105.71 16.84 106.74 15.06 107.03 13.29 106.76 11.95 105.65 11.97 103.89 12.79 102.31 14 100.98 15.63 100.31 17.29 100.89 18.41 102.27 18.83 104.01 18.28 105.71"/>
      <polygon points="72.62 105.83 71.49 107.21 69.75 107.82 67.92 107.93 66.53 107.09 65.55 105.77 65.13 104.2 66.61 102.64 68.71 101.96 70.65 102.52 72.14 103.88 72.62 105.83"/>
      <polygon points="144.85 109.06 143.17 109.5 141.42 109.33 139.75 108.77 138.41 107.68 138.69 105.9 140.21 104.81 142.06 104.55 143.76 105.52 144.89 107.13 144.85 109.06"/>
      <polygon points="58.68 114.51 56.96 114.22 55.59 113.17 55.99 111.48 57.13 110.18 58.48 109.75 59.87 109.83 60.91 111.01 61.67 112.39 60.44 113.75 58.68 114.51"/>
      <polygon points="10.77 96.19 9.21 96.56 7.63 96.52 6.22 95.81 5.24 94.54 6.86 93.96 8.46 93.34 10.08 92.76 12.36 93.82 11.89 95.2 10.77 96.19"/>
      <polygon points="5.61 105.01 4.8 106.7 2.97 107.39 1.1 106.42 0 104.71 1.18 103.55 2.86 103.34 4.5 103.77 5.61 105.01"/>
      <polygon points="144.84 117.44 143.42 118.88 141.99 117.44 143.42 116 144.84 117.44"/>
      <polygon points="74.19 111 75.99 110.73 76.57 112.48 75.21 113.14 74.19 111"/>
      <polygon points="152.89 109.75 154.94 109.32 155.41 110.66 154.07 111.17 152.89 109.75"/>
      <polygon points="134.3 111.43 136.31 111.01 136.8 112.37 135.44 112.86 134.3 111.43"/>
      <polygon points="166.27 94.06 165.72 92.24 165.19 90.41 164.64 88.6 165.83 89.64 167.04 90.67 167.05 92.41 166.27 94.06"/>
      <polygon points="162.5 97 162.85 98.54 163.19 100.08 161.29 100.53 160.93 98.98 160.58 97.44 162.5 97"/>
      <polygon points="37.68 100.33 36.08 100.39 34.39 100.45 33.23 99.14 32.95 97.26 31.45 96.07 29.98 94.83 28.49 93.62 30.27 93.28 32 93.87 33.43 95.02 34.61 96.43 35.63 97.73 36.68 99.01 37.68 100.33"/>
      <polygon points="65.87 88.31 63.33 88.57 62.41 86.16 63.42 85.27 64.9 85.18 65.95 86.6 65.87 88.31"/>
      <polygon points="65.93 80.17 65.93 78.09 65.9 76 67.1 76.84 68.29 77.68 67.45 79.14 65.93 80.17"/>
      <polygon points="129.31 100.05 127.86 100.38 127.35 100.49 127.55 98.9 128.84 98.57 129.31 100.05"/>
      <path d="M117.32,73.23l-.7,1.67-1.37,1.21-1.64.84-1.74.64-1.82.38-1.85.21-1.86.03-1.86-.08-1.84-.27-1.83-.35-1.74-.65-1.73-.69-1.51-1.1-.98-1.56-.37-1.79.48-1.72,1.11-1.41,1.43-1.07,1.58-.84,1.7-.53,1.71-.52,1.78-.13,1.78-.09,1.78.14,1.77.26,1.74.44,1.67.66,1.52.95,1.5.99.78,1.35.5,1.48v1.55ZM115.36,72.04l-1.55-1.1-1.61-.92-1.71-.72-1.8-.43-1.83-.26-1.84-.03-1.83.19-1.78.47-1.71.69-1.55,1-1.48,1.18,1.61.95,1.63.81,1.67.74,1.79.37,1.81.21,1.81.06,1.81-.15,1.77-.42,1.73-.57,1.53-.99,1.53-1.08Z"/>
      <path d="M177.72,65.76l-.89-1.54-.97-1.49-1.05-1.43-1.27-1.24-1.21-1.29-1.34-1.15-1.45-1.01-1.47-.99-1.55-.86-1.59-.78-1.61-.74-1.67-.61-1.74-.35-1.72-.46-1.78-.11-1.77.02-1.77-.06-1.76.26-1.64.68-1.57.79-1.3,1.17-1.07,1.38-.66,1.92.1,2.03.33,1.98.78,1.84.8,1.58,1.15,1.35,1.09,1.39,1.2,1.3,1.39,1.1,1.32,1.18,1.54.88,1.49.94,1.57.81,1.54.89,1.66.63,1.69.52,1.7.48,1.76.23,1.75.23,1.77-.08,1.78.05,1.71-.46,1.63-.66,1.55-.86,1.03-1.43.76-1.48.36-1.64-.07-1.67-.06-1.67-.49-1.6ZM168.92,68.5h-1.88s-1.86-.23-1.86-.23l-1.85-.36-1.72-.76-1.77-.64-1.54-1.08-1.49-1.27-1.38-1.4-1.28-1.48-.97-1.7,1.77-.39,1.8.03,1.79-.04,1.79.19,1.73.51,1.57.88,1.45,1.05,1.31,1.47,1.25,1.52.94,1.74.34,1.94ZM175.02,72.52l-1.42,1.09-1.74.42-1.76.23-1.79.04-1.78-.22-1.76-.37-1.71-.54-1.67-.64-1.63-.73-1.61-.78-1.55-.91-1.48-1.01-1.44-1.06-1.46-1.05-1.19-1.34-1.17-1.35-.98-1.49-.69-1.64-.36-1.74.25-1.76.96-1.54,1.64-.86,1.78-.47,1.84-.04,1.83-.08,1.81.33,1.81.3,1.74.58,1.79.7-1.96-.04-1.86-.23-1.86-.12-1.86-.2-1.85.27-1.71.71-1.3,1.11-.46,1.67v1.74s.58,1.64.58,1.64l1.01,1.39,1.14,1.36,1.32,1.19,1.36,1.15,1.56.86,1.52.92,1.6.77,1.65.64,1.7.51,1.74.33,1.76.12,1.79-.03,1.67-.64,1.42-1.05.69-1.35.3-1.53-.23-1.49-.85-1.62-1.15-1.44-.83-1.65-1.1-1.48,1.56.76,1.3,1.11,1.17,1.24,1.03,1.36.82,1.5.57,1.61.34,1.66-.07,1.69-.74,1.5Z"/>
      <path d="M33.39,73.58l-1.47-.81-.96-1.38-.39-1.66.19-1.69.48-1.64.98-1.42,1.05-1.37,1.16-1.28,1.27-1.17,1.42-.98,1.47-.9,1.55-.77,1.65-.53,1.65-.5,1.71-.22,1.72-.13,1.89.29,1.74.8,1.42,1.3.69,1.79-.2,1.89-.63,1.71-.97,1.55-1.09,1.46-1.22,1.35-1.34,1.24-1.51,1.03-1.59.9-1.71.64-1.74.55-1.8.29-1.82.12-1.82-.09-1.78-.38ZM49.6,60.61l-1.73-.34-1.74-.06-1.73.17-1.72.3-1.61.68-1.59.71-1.45.97-1.29,1.16-1.12,1.32-1.01,1.41-.74,1.57-.52,1.61,1.58.71,1.77.16,1.78-.09,1.72-.45,1.66-.65,1.56-.87,1.44-1.05,1.39-1.12,1.21-1.31.96-1.5.82-1.58.35-1.76Z"/>
    </g>
  </g>
</svg>