<?xml version="1.0" encoding="UTF-8"?>
<svg id="Layer_2" data-name="Layer 2" xmlns="http://www.w3.org/2000/svg" viewBox="0 0 172.04 216.13">
  <g id="Layer_1-2" data-name="Layer 1">
    <g>
      <path d="M165.48,15.72l-1.03-1.5-.39-2.06-1.27-1.38-1.3-1.36-2.06-.46-.96-1.77-2-.36-1.09-1.73-1.63-.92-1.57-1.05-1.76-.66-2.1.33-1.66-.8-1.67-.9-1.9.07-1.68-.75-1.83.41-1.75-.84-1.77.81-1.78-.14-1.88-.58-1.6,1.23-1.84-.07-1.74.46-1.69.61-1.86.19-1.61.84-1.46,1.12-1.53.94-1.59.83-1.39,1.14-1.5.98-1.54.93-1.71.74-1.32,1.24-.67,1.93-1.32,1.19-1.97.58-1.15,1.4-1.22,1.33-.29,2.07-1.13,1.37-1.55.56-1.69.13-1.33-1.36-1.72.66-1.72.13-1.56.86-1.26,1.26-1.53.98-.6,1.81-1.83.89-.41,1.83-.85,1.57.16,1.89-.89,1.58-.78,1.71.68,1.71,1.09,1.25,1.48,1.49-1.18,1.56-1.38,1.23-1.1,1.42-1.33,1.26-.99,1.5-1.17,1.38-.57,1.8-1.46,1.17-.19,2.06-1.18,1.37-1.79.94-.99,1.5-.08,2.14-1.58,1.09-.49,1.86-1.91.86-1.09,1.43-.68,1.72-.41,1.91-1.72.99-.47,1.87-1.02,1.49-1.26,1.32-1.34,1.26-1.29,1.29-1.07,1.44-.56,1.81-1.22,1.34-.46,1.86-1.58,1.09-.62,1.76-1.66,1.03-1.06,1.46-1.01,1.49-1.1,1.42-.15,2.09-1.66,1.03-.58,1.79-1.14,1.4-1.64,1.05-.88,1.58-.8,1.63-1.16,1.39-.65,1.74-1.36,1.25-.41,1.91-1.74.99-1.01,1.5-.51,1.84-.88,1.59-1.39,1.23-1.23,1.34-1.35,1.25-.85,1.6-1.28,1.31-.91,1.57-.59,1.79-.71,1.71-1.56,1.11-.59,1.8-1.43,1.21-1.37,1.05-1.07-.34-1.64.41-1.76-.51-1.17,1.36-1.21,1.34-2.15.33-1.01,1.59-.46,1.92-1.4,1.23-.71,1.67-.42,1.75-.32,1.72-.46,1.7-.34,1.82.67,1.7,1.37,1.49-.93,1.82-1.15,1.39-1.67,1.12-.83,1.61-.07,1.99-.8,1.6-.54,1.72-.71,1.64-1.42,1.39-.25,1.82-.76,1.66-.22,1.81.11,1.86-.25,1.77-.33,1.75v1.79s-1.2,1.74-1.2,1.74l.64,1.81-.51,1.83,1.14,1.7-.44,1.87.38,1.77.77,1.66.12,1.85.75,1.65,1.16,1.45.33,1.84,1.16,1.41,1.41,1.21.5,1.83,1.53,1.06.73,1.74.97,1.58,1.92.58,1.43,1.06,1.3,1.22,1.24,1.33,1.75.61,1.36,1.22,1.6.82,1.49,1.08,1.58.94,2-.22,1.61.89,1.79.26,1.81.05,1.75.38,1.75.78,1.82-.63,1.8.29,1.88.59,1.62-1.48,1.93.5,1.69-.71,1.52-1.13,1.84-.18,1.48-1.08,1.7-.6,2.05-.08,1.44-1.16,1.18-1.47,1.08-1.39,1.96-.3,1.22-1.22.94-1.5,1.41-1.01,1.24-1.21.54-1.74,1.62-1.06.61-1.79,1.39-1.23,1.18-1.39.47-1.89,1.82-.93.83-1.63,1.19-1.38.94-1.56.7-1.73.72-1.72,1.13-1.43,1.71-1.01.9-1.59.8-1.66.65-1.77,1.96-.83,1.08-1.46.74-1.71.56-1.83,1.61-1.09,1.14-1.42.49-1.89,1.8-.95.2-2.1,1.54-1.14,1.48-1.18.32-1.98,1.32-1.29,1.06-1.47.89-1.58,1.55-1.12.23-2.04,1.61-1.09.41-1.92,1.13-1.42,1.29-1.31.94-1.55,1.12-1.43,1.5-1.16.91-1.57.31-1.98,1.64-1.07.48-1.87,1.02-1.5,1.45-1.2.38-1.94,1.96-.85.51-1.85,1.49-1.17.46-1.88,1.03-1.49.72-1.7,2.06-.78.87-1.6,1.06-1.47.85-1.61.71-1.71,1.2-1.37,1.27-1.32,1.24-1.34.89-1.58.36-1.95,1.6-1.09,1.13-1.42.35-1.96,1.63-1.07.63-1.76,1.35-1.26.46-1.88,1.35-1.27,1.54-1.14.75-1.68.64-1.76,1.26-1.33.77-1.68.9-1.58,1.17-1.4,1.53-1.15.88-1.6.64-1.76.92-1.57,1.73-1.01,1.1-1.45.2-2.06,1.71-1.02.84-1.63.64-1.76,1.83-.94.3-2,1.27-1.33,1.2-1.38,1.08-1.47,1.12-1.44.39-1.89,1.2-1.35,1.34-1.3.81-1.62.09-1.94,1.4-1.34.56-1.72.87-1.61-.51-2.03,1.24-1.52.29-1.78-.25-1.86,1.1-1.66.19-1.8-.9-1.84.54-1.78-.55-1.76.75-1.87-.44-1.76-1.08-1.61.49-1.96-1.58-1.39.18-1.96-.74-1.64-.89-1.56-.38-1.86-1.97-.88ZM157.36,10.5l1.52.93.99,1.5,1.94.6.43,1.94,1.77.9.65,1.7,1.04,1.47.45,1.75.22,1.79.95,1.57.05,1.79-.03,1.77,1.1,1.72-.72,1.75-.44,1.71.24,1.76.39,1.82-1,1.6-.56,1.65.13,1.84-.48,1.69-1.17,1.41-.27,1.79-.75,1.59-1.25,1.29-.56,1.76-.78,1.62-1.93.91-.78,1.62-.23,1.98-1.13,1.41-.91,1.68-1.52-1.62-.28-2.11-1.88-.69-1.02-1.77-2.03-.2-1.36-1.52-1.88-.55-2.04.55-1.59,1.11-1.74.91-1.08,1.94-1.4-1.25-1.74-.6-.87-1.88-1.83-.48-1.24-1.21.28-1.62,1.67-1.09-.25-1.89.43-1.75-1.51-1.17-1.56-1.06-1.37-1.35-2.15-.19-1.08-1.78-2.17-.15-1.14-1.71-1.75-.79-1.21-1.01-1.53-.45-1.45.64-.89,1.36-1.09,1.21-1.03.81-1.69-.43-1.26-1.58-2.13-.3-1.55-1.16-1.57-1.14-.97-1.74-.16-1.6,1.22-1.64-.29-1.93-.91-1.65-.75-1.81-1.95-.83.83-1.87,1.36-1.27,1.15-1.41,1.35-1.23,1.1-1.46,1.41-1.16,1.26-1.32,1.51-1.03,1.18-1.43,1.57-.94,1.4-1.18,1.37-1.26,1.74-.66,1.86-.35,1.46-1.13,1.8-.39,1.54-1.07,1.83-.22,1.85-.02,1.59-1.29,1.81-.34,1.85.04,1.83.78,1.78.09,1.91-1.06,1.76.65,1.81.3,1.62.97,1.93-.04,1.42,1.35,1.81.41,1.4,1.22,1.58.87,1.41,1.13,1.37,1.17ZM113.14,57.89l-1.25-1.45-.17-1.92-.31-1.72-.35-1.76-.33-1.81-1.36-1.53.2-2.02-.84-1.75-1.25-1.17-1.57-.82-1.25-1.11-1.21-1.16-1.05-1.37-1.47-.84-1.79-.74,1.13-1.71,1.28-.84,1.75.35,1.05,1.61,1.87.38,1.65.71.92,1.81,1.75.56,1.6.79,1.64.73,1.34,1.18,1.14,1.47,1.48.97,1.93.29,1.33,1.2,1,1.69,1.39,1.11,1.85.41,1.13,1.49,1.57.83,1.95.26,1.02,1.66,1.7.64,1.32,1.21,1.43,1.06,1.98.23.65,1.59-.83,1.29-.79,1.45-1.22-.94-1.74-.5-1.6-.74-1.65-.54-1.56-.73-1.63-.9-1.81-.25-1.66,1.21-1.87-.47-1.55,1.06-1.78.04-1.71.73-1.64-.97-1.85-.23ZM125.33,58.78l-1.54,1.48-.4,1.75-1.64.89-1.01,1.34-.98,1.36-.85.98-1.83.27-1.29-1.44-1.28-1.45-1.88-.55-1.53-1.07-1.2-1.56-1.77-.72-1.68-.86-1.38-1.2,1.15-1.18.03-1.95,1.59-1.01.88-1.22.26,1.47.54,1.87,1.17,1.55.72,2.02,2.21.18,1.71.97,1.94-.29,2.02.34,1.76-1.22,1.95-.31,2.32-.45ZM99.07,39.26l-1.02,1.44-1.89.14-1.49.64.29-1.67-.63-1.95.78-1.71.53-1.79,1.81-1.06.73-1.65.99-1.53.95-1.66,1.47-1.13,1.74-.27.2,1.55-.04,1.68.07,2.32-1.54-.49-1.22-.93-1.51,1.47-1.65,1.44-.07,2.35.65,1.17.84,1.65ZM116.9,40.93l1.37-1.46.98-1.53,1.41.66,1.63.85,1.17,1.57,1.8.59,1.51,1.05,1.71.73,1.62.87,1.64.85.78,1.55-.05,1.22-.48,1.47-1.08,1.13-1.2-1.23-2.02-.33-.52-1.93-1.73-.93-1.17-1.21-1.09-1.4-1.74-.46-1.81-.15-1.42-1.16-1.33-.76ZM147.42,55.05l.95,1.91,2.08.07,1.33,1.31-1.56,1.05-1.61.97-1.38,1.27-.76,1.78-1.42,1.26-.37,1.9-1.79,1.23.33,2.1-1.44,1.55.03,1.61-1.21-.64-1.18-1.31-1.67-.68-1.73-1.05.82-1.87.67-1.59.88-1.47-.09-1.94,1.19-1.32.57-1.7.93-1.51,1.47-1.05,1.67-.64,1.37-.96,1.93-.29ZM151.49,59.99l2.14.37v1.88s-.77,1.71-.77,1.71l-.61,1.72-.25,1.94-1.31,1.39-1.4,1.24-.79,1.76-1.41,1.22-1.56,1.33-1.56-.42-.38-1.74.7-1.77.46-1.81,1.02-1.58.05-2.14,1.17-1.54,1.14-1.58,2.14-.48,1.19-1.51ZM87.06,37.52l1.09-1.98-.53-1.88,1.31-1.43.5-1.65.9-1.47,1.02-1.38,1.04-1.37.94-1.54,1.65-.74,1.2-1.12,1.42.75,1.48.87,1.99.05,1.66,1.4-1.94,1.07-1.1,1.5-2.11.46-.53,1.97-1.61,1.1-.79,1.69-.97,1.6-.59,1.77.64,2.03-.93,2-1.05-1.59-1.29-1.03-1.87-.09-1.52-1ZM89.71,41.52l1.19.99,1.48.92,1.71.38,1.67-.19,1.82-.7,2.19-.52,1.28-2.4,1.2,1.66,1.69.71,1.29,1.22,1.15,1.17,1.2,1.17.18,1.73.32,1.39-.72,1.46-1.1,1.24-.47,1.66-1.62.91-.11,1.9-1.26,2.05,1.33,2.28,1.45.98,1.55.83,1.63.71,1.41,1.05,1.48.95,1.32,1.19,1.67.65,1.5.92,1.52.89,1.41-.11,1.9.42,1.21-1.34.41-1.73,1.01-1.32,1.35-1.09.05-1.99,1.29-1.13,1.2-.85,1.48.6,1.8.53,1.31,1.51,1.78.59,1.61.74-.93,1.54-.22,2.01.21,1.99.42,1.95.96,1.52,1.41,1.01,1.73.47,1.45.83,1.18,1.45,1.77.17,1.5.15-1.02,1.4-1.18,1.35-.44,1.87-.93,1.53-.94,1.52-1.91.84-1.07,1.43-.1,2.11-.99,1.49-.96,1.51-1.81.91-.35,1.93-1.21,1.33-1.16,1.37-.66,1.71-1.93.83-.11,2.1-1.48,1.14-.9,1.55-1.43,1.18-.59,1.76-1.65,1.02-.85,1.59-.7,1.69-1.09,1.42-.44,1.87-1.93.83-1.06,1.43-.44,1.87-1.01,1.47-1.21,1.32-1.43,1.17-.94,1.52-.72,1.68-1.49,1.14-.03,2.15-1.04,1.45-1.96.81-.75,1.65-.29,1.98-1.36,1.23-1.36,1.23-.6,1.76-1.49,1.14-.56,1.79-1.42,1.19-.65,1.73-1.33,1.25-.55,1.8-1.73.97-.4,1.9-1.5,1.14-.85,1.59-1.32,1.26-1.26,1.3-1,1.48-.33,1.95-.95,1.52-1.42,1.19-1.33,1.26-.09,2.12-1.95.83-.66,1.73-.72,1.83-1.12-1.78-1-1.31-.91-1.51-1.3-1.14-1.65-.6-1.5-.81-1.53-.76-1.7.45-1.41.47-1.27.87-1.21,1.06-1.42.65-1.21-1.17-1.31-1.18-1.84-.62-.9-1.64-.86-1.18.94-1.23.65-1.81,1.28-1.4.98-1.6.52-1.9.6-1.56-.69-1.52-.63-1.75-1.62-.87-1.88-.47-1.21-1.48-1.51-1.04-1.77-.64-1.37-1.25-1.31-1.35-1.84-.55-1.78-.14-2.38.17-.18,2.3-2.06,1.02-.98,1.77-.45,2.21-2.08-.31-1.73-.05-1.53-.92-2.04.34-1.59-.78-1.44-1.07-.99-1.56-.41-1.32,1.23-1.38-.05-1.69-.74-1.52-.79-1.73-1.86-.9-1.51-1.65,1.29-1.35.73-1.68.69-1.71,1.4-1.22,1.14-1.4,1.44-1.19.28-2,1.45-1.18,1.47-1.17.17-2.07,1.61-1.07,1.14-1.4.93-1.54.46-1.88,1.83-.92.43-1.89,1.62-1.06.71-1.7.96-1.53.47-1.86,1.87-.89,1.17-1.38.98-1.51.85-1.6.93-1.54,1.22-1.34.89-1.57.68-1.72,1.31-1.27.89-1.56,1.14-1.4.62-1.76.92-1.56,1.54-1.12,1.17-1.37.54-1.81,1.12-1.41,1.35-1.25,1.3-1.29.52-1.84.81-1.63.99-1.5,1.11-1.42.87-1.59,1.17-1.38,1.12-1.41,1.42-1.21.51-1.84.99-1.5,1.77-.96.93-1.55,1.04-1.47.93-1.55,1.38-1.23.91-1.57.82-1.63.55-1.81,1.09-1.44,1.64-1.06.39-1.93,1.53-1.12.97-1.48ZM23.63,147.41l1.12-1.67.81-1.05,1.63.22,1.62.39,1.1,1.44h1.83s1.45.74,1.45.74l1.62.75,1.69.61,1.76.51,1.87.39,1.85-.31,1.7-.86,1.76-.52,1.87.19,1.75.05,1.94.16.88,1.89,1.4,1.52-.52,2.06.19,1.75.56,1.69.6,1.64.43,1.73,1.46,1.11.49,1.86,1.67.78,1.18,1.28,1.57.81,1.66,1.14-1.38,1.87-1.18,1.54-1.63-.78-1.3-1.3-1.45-1.07-1.52-.98-1.92-.37-.88-1.95-1.52-.98-1.6-.86-1.73-.66-1.28-1.34-2.01-.23-1.52-.98-.95-1.84-1.96-.31-1.15-1.54-1.82-.51-1.61-.85-.98-1.79-2.13-.05-.96-1.84-1.58-.89-1.91-.4-1.33-1.27-1.62-.93ZM50.81,167.48l-1.83,1.2-1.25,1.25-.69,1.31-1.42-.64-1.44-1.14-1.86-.51-1.54-.99-1.2-1.51-1.79-.62-1.05-1.74-2.04-.25-.79-1.46.74-1.09-.32-2.04,1.17-1.53,1.71,1.28,1.4,1.34,1.28,1.28.47,2.08,1.86.82,1.98-.31,1.94.19,1.45,1.06,1.24,1.3,1.97.71ZM22.93,149.2l-1.51,1.14-1.34,1.36-1.89.03-.02-1.82-.09-1.93,1.56-1.46-.18-2.08,1.29-1.42,1.01-1.55,1.53-1.09,1.22-1.37,1.18-1.54,1.83-.52.79,1.74.17,1.95-.59,2.28-1.61-1.18-1.45-.18-1.35.74-.76,1.32-.97,1.3-.84,1.56.58,1.76,1.45.95ZM42.85,146.15l1.15-1.4,1.13-1.16,1.6-.81.52-1.81,1.45,1.42,2.02.33,1.4,1.27,1.7.82,1.23,1.53,1.81.64.98,1.91,2.03.33,1.17,1.29-.43,1.47-1.54,1.02.02,2-1.29,1.18-.75,1.52-.99.84-.31-1.27.23-1.79-.23-1.72-.31-1.96-.93-1.79-1.25-1.53-1.48-1.13-1.33-1.28-1.76-.48-1.77.94-1.7.09-2.37-.49ZM69.58,164.07l1.48,1.21,1.3,1.25,1.74.51.93,1.49-1.38.24-1.4,1.27-.93,1.7-.99,1.51-1.07,1.43-1.32,1.34-.57,1.75-.72,1.68-1.15,1.62.14,2.15-1.86-.81-1.4-1.38-1.39-1.39-.83-1.56,1.02-1.67-.15-1.99.69-1.75,1-1.6,1.45-1.27,1.16-1.43.98-1.63,1.85-.66,1.39-2ZM75.34,169.72l1.16-.19.08.8.56,1.79-.89,1.62-.45,1.7-.92,1.51-.36,1.86-.88,1.63-1.64.95-1.56.89-1.37,1.11-1.6,1.03-.23-1.86v-1.79s1.14-1.52,1.14-1.52l.21-1.76.69-1.62.68-1.67,1.87-.75.52-1.9,1.64-.81,1.37-1.03ZM23.16,133.52l1.09,1.84,2.01.53-1.59,1.18-1.24,1.4-1.44,1.15-.9,1.63-1.59,1.13-.63,1.77-1.19,1.51-.13,1.92-.85,1.72v1.79s-1.59-.58-1.59-.58l-1.06-1.4-1.51-.78-1.67-.74.75-2.1.06-1.89.29-1.9,1.22-1.52,1.35-1.35.57-1.84,1.01-1.62,1.66-.96,1.74-.58,1.69-.38,1.96.09ZM18.91,207.87l-1.18-1.44-1.66-.75-1.17-1.39-1.1-1.41-1.31-1.17-1.3-1.2-1.86-.78-.09-2.14-1.46-1.16-.67-1.66-.68-1.63-1.14-1.45-.43-1.74-.64-1.67.27-1.88-.9-1.64.43-1.83-.38-1.73-.47-1.77-.07-1.79.77-1.72.32-1.73-.51-1.88,1.2-1.57.02-1.81.66-1.65.64-1.65-.35-2.02.87-1.59,1.25-1.4.7-1.63.45-1.78.89-1.55.57-1.75,1.58-1.12.88-1.88,1.47,1.29,1.3,1.08,1.35,1.24,1.84-.29h1.81s1.25-1.33,1.25-1.33l1.28-1.09,1.44-1.46,1.59,1.2,1.16,1.67,1.71.8,1.79.7,1.5,1.15,1.74.98-.78,2.1-1.73,1.41-.53,1.67.39,1.71,1.11,1.4,1.6.89,1.51,1.01,1.97.32,1.37,1.23,1.09,1.65,2.03.25,1.35,1.28,1.69.76,1.18.38,1.5.37,1.09-1,.84-1.39,1.07-1.22,1.18-1.02,1.63.49,1.07,1.5,1.25,1.22,2.09-.08.94,1.57-.03,1.49-.76,1.48-.57,1.64.71,1.6.38,1.75,1.61.96,1.71.68,1.24,1.34,1.36,1.27,2.01-.06,1.25,1.11-.62,1.69-1.42,1.21-1.3,1.3-1.1,1.43-.19,2.09-1.52,1.15-.58,1.82-1.77.97-.95,1.59-.98,1.6-1.08,1.55-1.95.6-.9,1.8-1.91.54-1.23,1.46-2.07.14-1.37,1.28-1.45,1.21-2.04-.11-1.35,1.6-1.76.57-2.03-.5-1.72.82-1.87-.03-1.84-.14-1.9.31-1.82-.47-1.9-.17-1.72-.81-1.54-1.14-1.56-1.02-2.06-.14-1.63-.95ZM161.49,59.14l-1.71.99-.32,1.96-1.54,1.11-.75,1.66-1.31,1.28-.47,1.86-1.28,1.29-.75,1.66-1.6,1.07-.52,1.82-1.82.92-1,1.49-1.02,1.47-.41,1.9-.82,1.61-1.62,1.06-.69,1.7-1.59,1.07-.78,1.64-1.34,1.25-.09,2.12-1.67,1.03-1.31,1.28-.14,2.09-1.47,1.16-1.37,1.24-.65,1.73-.87,1.58-1.36,1.24-.83,1.61-1.01,1.48-1.42,1.2-.63,1.75-1.04,1.46-1,1.49-1.02,1.48-.89,1.57-1.14,1.4-.55,1.8-1.61,1.07-.55,1.8-1.25,1.32-.84,1.6-1.23,1.33-.84,1.6-1.36,1.24-.92,1.55-.87,1.58-1.18,1.36-.75,1.66-1.24,1.32-1.46,1.17-.51,1.83-1.12,1.41-1.09,1.43-.8,1.63-.93,1.54-.96,1.52-1,1.49-1.03,1.47-1.71.99-.36,1.93-1.42,1.2-1.46,1.17-.15,2.09-1.45,1.18-1.4,1.21-1.15,1.39-.93,1.54-.47,1.86-1.19,1.37-.93,1.54-.99,1.5-1.27,1.3-.84,1.6-1.62,1.07.02,2.2-1.58,1.09-.94,1.54-.84,1.61-1.38,1.23-.88,1.58-.62,1.76-1.24,1.33-1.33,1.27-.51,1.83-1.13,1.41-1.65,1.04-1.19,1.37-.22,2.04-1.71,1.01-.9,1.57-.76,1.68-.86,1.61-1.43,1.26-1,1.59-1.72.93-.99,1.62-1.31,1.32-1.19,1.47-2,.47-.96,1.85-1.98.36-1.4,1.32-1.9.3-1.48.68,1.3-1,1.72-.76,1.33-1.33,1.87-.61,1.09-1.61,1.64-.94,1.58-1.05.96-1.68.92-1.66,1.57-1.09.65-1.83,1.2-1.4,1.21-1.3,1.44-1.14.54-1.76,1.23-1.28.93-1.49.69-1.66,1.58-.98.78-1.86,1.78-.92.46-2.03,1.46-1.31,1.08-1.58.63-1.83.6-1.88,1.15-1.58,1.34-1.24,1.02-1.46,1.63-1.04.04-2.15,1.28-1.28,1.2-1.34.57-1.78,1.94-.83.85-1.59,1.19-1.35.17-2.06,1.59-1.07.9-1.55.61-1.76,1.86-.88,1-1.48.29-1.98.91-1.55,1.31-1.27,1.27-1.29,1.07-1.43.84-1.59.89-1.56.83-1.6,1.77-.95.89-1.56,1.13-1.39.39-1.91,1.24-1.32,1.38-1.21.83-1.6.67-1.71,1.56-1.09,1.25-1.3.85-1.58.89-1.55.51-1.83,1.43-1.18.97-1.5.79-1.63,1.3-1.27.65-1.72,1.68-1.01.48-1.85,1.7-1,.36-1.93,1.44-1.18,1-1.49.56-1.8,1.29-1.29,1.27-1.3.82-1.61.99-1.49.86-1.58.88-1.57,1.76-.96.54-1.81.63-1.74,1.26-1.3,1.59-1.08.41-1.9.94-1.53,1.19-1.36,1.64-1.04.98-1.51.66-1.74.56-1.81,1.41-1.27.85-1.69,1.43-1.2,1.08-1.46,1.66-1.08.49-1.84.27-1.84,1.58-1.08.82-1.38.91-1.34.4-1.71,1.2-1.14,1.5-1.16.38-1.87.9-1.54.33-1.85,1.5-1.22,1.24-1.38-.18-2.06,1.09-1.46.82-1.59.54-1.41v1.58s-.33,1.81-.33,1.81l-1.13,1.57.07,1.94-1.09,1.53-.59,1.73-.38,1.87-1.83,1.06-.22,2-.96,1.57Z"/>
      <path d="M105.83,67.89l-1.72-.6-1.69-.62-1.65-.73-1.75-.41-1.78-.26-1.8-.03-1.78-.1-1.8-.13-1.76.41-1.78.19-1.77.34-1.68.64-1.58.86-1.61.77-1.64.75-1.34,1.21-1.57.91-1.25,1.3-1.31,1.24-.98,1.59-1.78.39-1.39,1.06-1.02,1.45-.04,1.78-.37,1.72-.69,1.59-.9,1.48-.81,1.53-.53,1.64-.86,1.48-.8,1.55-1.46.97-.82,1.57-.82,1.56.17,1.74.76,1.34,1.05,1.18.86,1.22-.72,1.5-1.25,1.25-.62,1.64-.85,1.51-.72,1.58-.54,1.65-.86,1.51-.55,1.66-1.23,1.24-.86,1.61-.04,1.8v1.79s1.37,1.17,1.37,1.17l1.88,1.12,1.89,1.08,1.24,1.38,1.27,1.42,1.82.56,1.78.45,1.84.26,1.86.1,1.87.04,1.87-.02,1.85.29,1.87.23,1.83.63-.17,1.77-.08,1.69-.11,1.7.18,1.7.83,1.5,1.36.84,1.76.2,1.73-.68-.42-1.69-.1-1.69.46-1.64.05-1.7.93-1.42.73-1.52,1.35-1.15,1.68.81,1.8.25,1.65.82,1.83.03,1.77.29,1.78.13,1.83.16,1.56-.94,1.28-1.21.43-1.82.22-1.88.63-1.78,1.24-1.44,1.16-1.42,1.52-1.03,1.28-1.32,1.42-1.16,1-1.57,1.47-1.14.93-1.59,1.05-1.49,1.07-1.48.8-1.64.75-1.67.6-1.72.64-1.71.37-1.79.3-1.8.4-1.79-.11-1.82.06-1.81-.37-1.78-.02-1.83-.71-1.69-.42-1.76-.39-1.8-.79-1.65-1.07-1.49-.96-1.54-1.09-1.44-.98-1.54-1.24-1.33-1.51-1.04-1.28-1.29-1.38-1.18-1.59-.89-1.41-1.18ZM97.29,67.28h1.92s1.77.66,1.77.66l1.84.43,1.64.93,1.5,1.15,1.71.79-1.78.3-1.71.58-1.71.56-1.58.85-1.56.88-1.71.71-1.25,1.33-1.37,1.18-1.14,1.4-1.3,1.28-.79,1.66-1.03,1.48-1,1.52-1.37-.95-1.47-.77-1.37-.93-1.36-.96-1.55-.7.74-1.8,1-1.57,1.22-1.41,1.11-1.48,1.26-1.35,1.17-1.46,1.46-1.15,1.57-1,1.61-.94,1.74-.65,1.78-.58ZM80.47,70.96l1.46-1.24-.42,1.47-.37,1.26-.67-1.49ZM79.29,71.36l.61,1.77.72,1.62.89,1.74.54-2.01.67-1.8.46-1.87.46-1.85,1.51-.75,1.69-.39,1.65-.56,1.71-.29,1.74-.06,1.78-.06-1.66.86-1.33,1.26-1.56.93-1.32,1.24-1.37,1.19-1.13,1.41-1.3,1.28-1.02,1.5-.9,1.58-.7,1.65-1.54-1.09-1.5-1.15-1.52-1.14-1.8-1.01,1.45-1.39,1.51-1.1,1.25-1.51ZM70.9,79.78l1.61.09-.17,1.75-1.79-.12.35-1.73ZM67.54,98.42l-1.73,1.63-1.24-1.98-1.25-1.83-.06-1.38.73-1.38.86-1.36,1.21-1.17.98-1.37.86-1.46.62-1.59.51-1.65,1.26-1.18,1.44-.88,1.54.06,1.38.69,1.41.43-1.13-1.55-1.24-1.5,1.55,1.11,1.47,1.16,1.63.94,1.51,1.09,1.38,1.28,1.69.82,1.58.99,1.46,1.19,1.62.94,1.76.67,1.65.87,1.31,1.14,1.62.63,1.34,1.09,1.55.78-.45.33-1.3.38-.26,1.79.65,1.62-.32,1.7-.57,1.59-.94,1.45-.97,1.4-.48,1.57.38,1.62-.62,1.48-1.4,1.05-1.61.71-1.75-.18-1.72-.09-1.3-1.14-1.28-1.24-1.12-1.37-.94-1.52-1.93-.39-.73,1.35,2.34.99.65,1.87-1.28,1.01-1.52.45-1.6.18-1.41-.78-1.24-1.17-1.47-.87-1.66-.36-1.01-1.3-1.34-.89-1.24-1.09-1.66-1.11-1.64-1.1.98-1.18,1.13-1.17.61-1.5.72-1.33ZM96.55,99.55l.04-1.58-.09-1.39.6-.68.97,1.77.91,1.74-.24,1.99-1.07,1.56-.66,1.74-.87,1.67-1.6,1.01-1.05-.03.95-1.45.84-1.57,1.12-1.36.38-1.71-.23-1.7ZM91.46,112.92l-.58,1.57-.79,1.45-.49,1.56-.6,1.52-.44-1.75.31-1.79,1.16-1.38,1.44-1.18ZM74.56,114.89l-1.56-1.2,1.79-1.88.24,1.58-.47,1.5ZM64.02,109.07l1.34-1.53,1.52-1.45-.48,2.13-.08,2.3-2.3-1.45ZM65.05,111.68l-1.93,1.47-.08-1.51.65-1.37,1.36,1.4ZM66.2,111.95l2.03,1.2-1.55,1.04-1.49,1.14.32-1.83.7-1.56ZM67.24,110.24l1.18-.97,1.06-1.26-.43,1.97.08,1.99-1.33-.79-.56-.95ZM69.33,113.63l1.31,1.08-1.41,1.89-.84-1.16.94-1.81ZM69.99,112.21l1.05-1.05,1.11-1.1-.21,1.6-.23,1.55-1.73-1.01ZM72.43,115.38l1.25.67-1.05,2.04-1.3-.99,1.1-1.73ZM76.03,117.86l-1.06.28.32-1.41.74,1.12ZM76.11,114.1l1.76-.89-.55,1.31-.6,1.38-.6-1.8ZM62.12,107.33l.69-1.51,1.42-.68-.07,1.35-.77,1.76-1.27-.92ZM61.55,108.67l1.3.7-1.38,1.81-1.31-.83,1.39-1.68ZM80.41,126.12l-1.6-.54-1.78-.26-1.78-.25-1.79-.06-1.79.17-1.78-.24-1.77-.1-1.83.12-1.54-1.05-.9-1.79-1.45-1.38-1.28-1.5-1.49-1.47.56,2.15-1.6-.62-.86-1.33-.03-1.36.69-1.54,1.05-1.32.69-1.64,2.11,1.78,1.44.93,1.46.9,1.47.36,1.22,1.46,1.76.59,1.85.28,1.75.65,1.78.57,1.72.62-1.19.66-1.26.49,1.68.18,1.77-.14,1.71-.68,1.19-1.28,1.16-1.29,1.15-1.31,1.1-1.35.96-1.52,1.82.16-.85,1.5-.95,1.42-.95,1.42-.5,1.62,1.06-1.03,1.21-1.03,1.04-1.13.24,1.56-.89,1.43-1.23,1.19-1.32,1.09-1.08,1.33-.98,1.39-1.13,1.18ZM82.88,135.76l-1.17-.72.41-1.93,1.85,1.47-1.09,1.17ZM83.8,132.45l-2.47-.92.05-1.55.53-1.62.51-1.65.94-1.44.89-1.49,1.21-1.25,1.38-1.04,1.56-.48.84,1.17-.63,1.53-1.37,1.06-1.02,1.4-1.15,1.3-.46,1.69-.71,1.58-.09,1.72ZM89.73,124.79l.72-.78,1.35.49,1.76.52,1.77.52,1.84-.09,1.83-.16,1.82-.28,1.81-.4-1.03,1.34-1.59.62-1.75-.02-1.75-.06-1.76-.17-1.68-.58-1.69-.49-1.65-.46ZM92.16,122.54l-1.15-1.57-.02-1.92.36-1.84.8-1.68.74-1.67,1.22-1.35.76-1.66,1.12-1.42.95-1.54.96-1.53.95-1.54.9-1.66.66-1.81.12-1.93-.46-1.87-.6-1.66-1.38-1.12-1.28-1.17-1.5-.86-1.44-1.2-1.79-.57-1.5-1.09-1.7-.73-1.55-.98-1.61-.88-1.48-1.1-1.69-.77-1.49-1.09-1.42-1.17-1.35-1.25-1.44-.83-1.26-1.07-1.53-.65-1.38-.89-1.39-.68,1.29-.72,1.6-.32,1.5.66,1.55.98,1.41,1.17,1.62.88,1.52,1.02,1.31,1.35,1.59.91,1.63.85,1.6.88,1.49,1.06,1.53.99,1.63.84,1.66.79,1.47,1.12,1.54,1.01,1.53.67,1.06,1.28,1.18,1.15.99,1.34.54,1.58.12,1.82-.07,1.81-.58,1.71-.75,1.63-.94,1.53-.64,1.67-1.11,1.35-1.02,1.41-.95,1.46-.97,1.45-1.17,1.32-.63,1.68-.42,1.84.4,1.89,1.12,1.27,1.62.77,1.81-.14,1.78-.28,1.76-.41,1.91-.32-1.38,1.36-1.42,1.18-1.79.46-1.82.17-1.83-.07-1.8-.42-1.6-.93ZM103.29,119.16l-1.74.64-1.72.68-1.85-.2h-1.85s-1.13-1.35-1.13-1.35l-.11-2.65,1.29-1.15.7-1.56,1.17-1.24.94-1.39.96-1.38.75-1.53.95-1.39.85-1.53.82-1.56.54-1.69.31-1.75-.37-1.75.04-1.81-.89-1.56-.72-1.64-1.39-1.13-1.15-1.4-1.56-.68-1.42-.89-1.4-.93-1.41-.91-1.55-.69-1.4-1,1.07-1.59.74-1.67,1.14-1.42,1.32-1.26,1.12-1.43,1.48-1.05,1.24-1.34,1.48-1.07,1.74-.58,1.63-.82,1.81-.25,1.8-.34,1.79.39,1.68.81,1.45,1.19,1.23,1.4,1.1,1.5.75,1.71.87,1.63.72,1.7.73,1.7.71,1.79-1.65-1.05-1.49-1.14-1.5-1.14-1.74-.74-1.75-.66-1.77-.63-1.85-.35h-2.05s.84,1.43.84,1.43l.33,1.49h-1.86s-1.94.11-1.94.11l-1.96.12-1.76.85-1.54.97,1.61.46,1.78.26,1.74.47,1.81.21,1.74.52,1.65.8,1.36,1.23,1.33,1.26.15,1.83-.62,1.71-.8-1.46-.55-1.55-1.22-1.24.45,1.72.55,1.67-.04,1.79.51,1.52,1.86-1.06,1.58-1.68.24,1.74-.18,1.59-.59,1.52-.7,1.48-.9,1.8-1.25,1.61-.85,1.83,1.25,1.2,1.24,1.2,1.2,1.24,1.36,1.29-1.27,1.39-1.43,1.06-1.23,1.26-1.44,1.02-1.14,1.37-1.48.96-1.34,1.15ZM113.31,109.67l-1.18-1.5-1.41-1.3-1.29-1.3.61-1.59.92-1.45.74-1.56,1.07-1.38,1-1.44-.25-1.99-.36-1.9-1.46-1.23-.73-1.71-1.11-1.57-1.38-1.31-1.53-1.17-1.74-.83-1.92-.31-1.82-.85,1.62-.09,1.59-.12h1.6s1.59-.06,1.59-.06l-.48-1.3-.3-1.39,1.76.5,1.64.57,1.52.86,1.69.5,1.41,1.03,1.36,1.08,1.34,1.1.95,1.39.58,1.7-.06,1.83-.02,1.81-.2,1.8-.35,1.78-.38,1.77-.55,1.73-.7,1.68-.98,1.54-.84,1.61-.84,1.62-1.1,1.43Z"/>
      <path d="M49.7,157.89l-1.81.38-1.83-.38-1.64-.9-1.28-1.43-.7-1.78.12-1.9.94-1.71,1.6-1.16,1.89-.5,2,.38,1.69,1.16,1.16,1.67.33,1.76-.17,1.78-.88,1.55-1.41,1.08ZM47.87,156.55l1.53-.57.96-1.3.11-1.61-1-1.72-1.72-1.03-1.95.32-1.48,1.29,1.65-.32,1.66-.14,1.28,1.03.38,1.56-.68,1.27-.75,1.23ZM48.08,153.82l-1.36-1.35-1.35,1.35,1.35,1.34,1.36-1.34Z"/>
      <polygon points="30.8 149.22 32.26 150.12 33.78 151.02 35.24 152 36.73 152.95 38.19 153.94 39.65 154.93 41.11 155.91 42.63 156.81 44.08 157.81 45.62 158.67 47.09 159.64 48.58 160.58 50.07 161.54 51.55 162.5 53 163.51 54.46 164.51 55.92 165.46 55.25 166.6 53.76 165.61 52.29 164.65 50.84 163.64 49.32 162.74 47.83 161.8 46.36 160.83 44.92 159.8 43.45 158.84 41.98 157.87 40.48 156.94 39.02 155.96 37.48 155.09 36.02 154.09 34.55 153.12 33.05 152.19 31.57 151.22 30.1 150.25 30.8 149.22"/>
      <path d="M121.48,54.74l-.88,1.59-1.46,1.08-1.76.41-1.79-.22-1.65-.76-1.24-1.2-.79-1.54-.26-1.71.36-1.69,1-1.42,1.38-.87,1.59-.36,1.62.2,1.49.65,1.29,1.1.89,1.44.48,1.62-.27,1.67ZM117.97,51.87l-1.33-1.3-1.33,1.3,1.33,1.35,1.33-1.35ZM120.03,52.61l-1.11,1.02-1.29.77-1.45.18-1.37-.71-.7-1.38-.28-1.57-.31,1.84.47,1.78,1.21,1.01,1.53.41,1.59-.1,1.26-.87.44-2.38Z"/>
      <polygon points="130.01 54.87 128.42 53.99 126.89 53.07 125.32 52.2 123.83 51.22 122.29 50.31 120.8 49.32 119.3 48.36 117.82 47.36 116.34 46.36 114.9 45.31 113.42 44.31 111.99 43.24 110.56 42.18 109.11 41.12 110.7 41.94 112.3 42.75 113.82 43.7 115.39 44.55 116.91 45.5 118.4 46.49 119.91 47.45 121.41 48.41 122.87 49.45 124.32 50.49 125.74 51.57 127.2 52.6 128.57 53.76 130.01 54.87"/>
      <polygon points="108.92 57.19 107.63 58.47 106.34 57.19 107.63 55.9 108.92 57.19"/>
      <polygon points="119.95 64.05 118.53 65.46 117.11 64.05 118.53 62.63 119.95 64.05"/>
      <rect x="46.57" y="142.94" width="1.86" height="1.86" transform="translate(-87.87 75.83) rotate(-45.04)"/>
      <polygon points="59.62 151.19 58.27 152.53 56.92 151.19 58.27 149.84 59.62 151.19"/>
      <polygon points="37.29 161.58 35.88 162.99 34.47 161.58 35.88 160.17 37.29 161.58"/>
      <polygon points="48.15 168.71 46.71 170.15 45.27 168.71 46.71 167.27 48.15 168.71"/>
      <polygon points="131.57 47.6 130.23 48.94 128.9 47.6 130.23 46.25 131.57 47.6"/>
      <polygon points="120.89 40.33 119.56 41.64 118.25 40.33 119.56 39.01 120.89 40.33"/>
      <polygon points="72.05 179.85 70.43 180.34 69.9 178.75 70.38 176.93 71.32 175.29 72.68 173.99 74.41 173.25 74.96 175.04 74.4 176.85 73.34 178.45 72.05 179.85"/>
      <polygon points="150.93 63.69 151.13 65.33 150.85 66.96 150.15 68.46 149.08 69.71 147.69 70.58 146.08 70.82 146 68.9 146.59 67.07 147.64 65.45 149.09 64.21 150.93 63.69"/>
      <path d="M102.72,117.07l-1.53.16-1.38-.6-.38-1.46.07-1.52.68-1.54,1.13-1.24,1.41-.9,1.64-.26,1.47.78.57,1.51-.32,1.6-.81,1.44-1.14,1.19-1.41.85ZM100.5,115.53l1.86.09,1.65-.86,1.07-1.52.16-1.82-.74,1.45-1.11,1.21-1.36.9-1.54.55Z"/>
      <path d="M75.8,94.4l1.01,1.07.08,1.85v1.86s-.33,1.83-.33,1.83l-.61,1.75-.83,1.64-1.52.99-1.68-1.5.63-2.4-1.34.93-1.41.84-1.08-1.55-.24-1.86,1.11-1.86,1.43-1.68-1.34-.52-1.26-.67-1.1-1.33.02-1.77.86-1.8.77-1.85.88-1.8,1.15-1.37,1.73-.49,1.81.06,1.55.79,1.28,1.18.5,1.69-.05,1.85,1.48.85-1.87,1.18-1.86,1.21-1.18,1.18-1.16,1.19-1.14,1.22-1.1,1.26-1.17,1.19.36,1,1.05-1.26,1.11-1.2,1.04-1.27,1.07-1.25,1.36-1.17ZM68.48,93.7l.92-1.37.84-1.39.69-1.47,1.08-1.87,1.15-1.84-1.42.54-.97,1.1-.59,1.56-.52,1.59-.53,1.59-.64,1.56Z"/>
      <polygon points="82.49 94.06 81.71 95.52 81.01 97.02 80.71 98.66 80.93 100.28 81.82 101.72 81.76 99.75 81.98 97.84 82.6 96.01 83.59 94.37 84.88 92.98 83.13 93.13 81.36 93.34 82.73 91.9 84.48 91.09 86.3 91.39 87.94 92.23 89.37 93.39 90.59 94.78 91.52 96.39 92.26 98.08 92.53 99.92 92.32 101.67 91.59 103.28 90.44 104.63 89.03 105.68 87.23 106.2 85.37 106.01 83.68 105.22 82.11 104.21 80.93 103.1 80 101.78 79.47 100.27 79.27 98.68 79.66 96.67 80.7 94.92 82.49 94.06"/>
      <polygon points="113.22 106.16 113.78 104.34 114.35 102.52 114.9 100.68 115.48 98.86 116.06 97.03 116.67 95.21 117.2 93.36 117.42 95.11 117.49 96.87 117.36 98.62 116.94 100.33 116.36 101.99 115.53 103.55 114.44 104.93 113.22 106.16"/>
      <path d="M86.72,81.45l-.13-1.73-.12-1.73-.12-1.72,2.1-.63,2.09-.65.23,1.56.27,1.56.22,1.56-1.51.6-1.52.59-1.53.61ZM89.17,76.7l-1.42,1.65,1.01.91,1.11-1.2-.71-1.36Z"/>
    </g>
  </g>
</svg>