<?xml version="1.0" encoding="UTF-8"?>
<svg id="Layer_2" data-name="Layer 2" xmlns="http://www.w3.org/2000/svg" viewBox="0 0 258.53 121.47">
  <g id="Layer_1-2" data-name="Layer 1">
    <g>
      <path d="M105.28,37.33l1.01,1.72,1.35,1.5,1.08,1.77-1.48-.38-.9.6-.26,1.36.15,1.82-.39,1.77-.12,1.8-.23,1.79-.33,1.77-.34,1.78.13,1.83-1.05,1.71.16,1.85-.11,1.82.05,1.84v1.83s-.1,1.82-.1,1.82l-1.4,1.69.19,1.85.26,1.84-.11,1.81-.36,1.81.18,1.82.3,1.8-.82,1.91,1.33,1.66-.77,1.99,1.65,1.5-.32,1.95.4,1.78.92,1.62.75,1.66v1.93s.54,1.76.54,1.76l1.64,1.31.58,1.58.88,1.67,1.88.2,1.65.02h2.1s-1.71-1.61-1.71-1.61l-.49-1.92-.12-2.05-1-1.75-.98-1.75.93-2.72,1.65,1.75.96,1.4.59,1.57.16,1.76.98,1.4,1.29,1.26.57,1.58.07,1.77,1.65.75,1.2.81,1.34.38,1.85,1.2,1.61-1.35,2.28-1.06-1.07-1.7-1.51-1.35-.48-1.8-1.04-1.56.03-2.04-.81-1.66.66-1.88,1.27,1.5.95,1.5.43,1.79,1.77,1.04v2.03s1.27,1.33,1.27,1.33l1.02,1.47,1.32,1.1.79,1.64,1.71.33,1.71,1.19,1.68-.53,1.37-1.01,1.54-.77.71-1.72-1.1-1.46-1.2-1.3-.86-1.53-.58-1.67-.52-1.65-1.82-1.18.62-1.95.08-1.48,1.22,1.16.64,1.91,2.08.93.05,2.32,2.08.94,1.03,1.66.86,1.91,2,.53,1.93,1.04,1.62-.59,1.75-.25.87-1.66.59-1.38,1.41-1.47-.49-2.11.63-1.73,1.37-1.48.39-1.81-2.46.19-1.33,1.9-.31,1.29-.86-.08-.34-1.88-.33-1.84-1.74-1.17-.89-1.6.46-2.02-.17-1.69-.03-1.66-.09-1.78-.23-1.81.63-1.7-.57-1.85,1.34-1.61.08-1.77.35-1.74-.06-2.06,1.81,1.78.19,2.23-.46,2.25,1.98.6,1.32,1.27,1.09,1.47.54,1.76-.04,1.92,1.4,1.34-.36,1.95,1.57,1.34.26,1.74.21,1.81.52,1.79,1.45,1.2,1.57.89,1.76.29,1.89,1.46-1.57-1.73-.57-1.67-.5-1.61.39-1.61.22-1.43.61-1.86,1.29-.84.33-1.29-.61-1.6.4-1.73-.11-1.7-1.13-1.4-.13-1.8-.94-1.48-1.34-1.32.77-2.15-1.02-1.45-1.62-1.22-.36-1.71-.37-1.71-.58-1.63-.59-1.87-1.55-1.27-1.29-1.42-.6-2.02-1.55-1.22-.72-1.76-1.96-.76-.89-1.64-.64-1.9-1.26-1.35-1.5-1.1-2.03-.52-.48-2.19-1.47-.89-1.33-1.16-.12-1.88-1.83-1.1-.03-1.83-.65-1.64.55-1.84v-1.82s-1.53-1.68-1.53-1.68l.73-1.89-.42-1.8.15-1.83-.94-1.8,1.29-1.85-1-1.82.69-1.82.15-1.82-.53-1.84.54-1.81.53-1.8-.46-1.84.27-1.81-.18-1.83-.43-1.85,2.03-1.44.6,1.8.34,1.54.96,1.76-1.16,1.71-.32,1.73,1.16,1.76.02,1.74-1.11,1.71.37,1.75-.15,1.73.85,1.76-.31,1.74-.8,2.18,2.02-1.32,1.94.56,1.58-1.32,1.74-.47,2,.85,1.73-.54,1.82-.06,1.78-.3,1.61-1.14,1.74-.46,1.87.17,1.69-.77,1.67-.83,2,.85,1.77-.34,1.65-.95,1.82-.04,1.84.04,1.61-1.14,1.75-.46,1.8-.21,1.76-.4,1.72-.6h1.84s1.84-.04,1.84-.04l1.79-.38,1.71-.82,1.92.34,1.71-.8,1.89.18h1.86s1.53-1.73,1.53-1.73l1.98.61,1.89.1,1.66-.97,1.86-.08,1.69-.8,1.75-.54,1.74-.55,1.62-.96,2,.29,1.44-1.32,2.05.62,1.46-1.27,1.65-.67,1.85.07,1.52-1.26,1.89.42,1.73-.33,1.8.39,1.73-1.32,1.78,1.09,1.88-.9,1.62,1.28,1.89-.21,1.74.5,1.5,1.08,1.68.64,1.91.35.87,1.9,1.69.75,1.45,1.1.94,1.58.97,1.5,1.78.96.31,1.93,1.07,1.47,1.15,1.48.25,1.85.61,1.7.45,1.75.93,1.64.06,1.84-.35,1.87,1.17,1.7-.8,1.85.36,1.79-.49,1.77.16,1.82.42,1.9-1.11,1.63.27,1.95-1.49,1.43-.07,1.89-1.51,1.31.12,2.05-1.36,1.32-.97,1.51-.55,1.8-1.49,1.15-1.54,1.06-1.08,1.41-.63,1.86-.89,1.68-1.5,1.06-1.64.87-.98,1.68-2.24.02-1.47,1.01-.87,1.96-1.6.87-1.75.59-1.5,1.02-1.88.28-1.69.61-1.45,1.17-1.75.48-1.82.26-1.13,1.35-.03,1.59.58,1.72.32,1.75,1.26,1.79-1.58,1.52-.72,1.62-.42,2.02-1.47,1.2-2.04.3-1.29,1.35-1.51,1.19-2.01-.33-1.68.94-1.85-.16-1.77-.53-1.89.24-1.85-.37-1.71-.83-.64-1.91-.69-1.42-.72-1.45-1.39-1.41.2-1.79-.35-1.62-1.66.98-1.81.31-2.07-1.05-1.56,1.66-2.06-.99-1.61,1.39-1.93-.29-1.72.79-1.92-.22-1.86.05-1.54,1.75-2.08-1.06-1.76.57-1.85.12-1.62,1.35-1.96-.11.7,1.81.17,1.72.53,1.71-.75,1.72-.14,1.95-1.76.76h-1.79s-1.62.47-1.62.47l-1.49-.81-1.59-.4-1.28-1.06-1.99-.16-1.14-1.88-.82,2.05.81,2.19-1.94,1.25-.18,1.98-1.25,1.41-1.21,1.42-1.56.69-1.57.37-1.43,1.52-1.75-.86-1.64-.32-1.51.77-1.63.56-1.55.98-1.71.6-1.27,1.89-2.04-.89-1.89.91-1.42-1.59-2.14.02-1.08-1.74-1.43,1.37-1.61,1.08-2.04-.52-1.72-.07-1.84.2-1.89-.36-1.03-1.74-1.5-1.48-1.97.34-1.59,1.05-1.86.23-1.27-1.67-2.08.08-1.44-1.2-.87-1.64-.37-1.46-1.57.61-1.9-.49-1.56,1.22-1.81-.06-1.7.5-1.69.56-1.99-.92-1.56,1.22-1.87-.35-1.73.32-1.62.94-1.82-.11-1.73.37-1.73.39-1.7.52-1.85-.24-1.73.37-1.46,1.29.5,1.62.44,1.92.3,1.95-1,1.62-.4,1.82-1.08,1.44-1.84.6-1.3,1.13-1.15,1.58-1.57,1-1.84.26-1.85-.16-1.77-.29-1.78.34-1.57-1.02-2.03.53-1.6-.89-1.3-1.18-.81-1.52-1.4-1.3.35-1.88.09-1.73-.56-1.89-1.94,1.12-1.84-1.25-1.74,1.17-1.77-.67-1.78.21-1.83.56-1.76-.42-1.77-.22-1.53-1.55-1.81.12-1.77-.17-1.73-.39-1.75-.35-1.58-.85-1.59-.78-1.56-.85-2.09.22-1.07-1.92-1.64-.74-1.65-.76-2.08-.24-1.29-1.35-1.26-1.35-.86-1.73-1.57-1.01-1-1.54-.73-1.71-1.42-1.2-1.49-1.22-.38-1.89-1.26-1.41-.76-1.67-.28-1.85-.36-1.79-1.34-1.52.31-1.95-.06-1.82-.25-1.78-.48-1.78.3-1.82.28-1.78-.22-1.83.62-1.72.13-1.81.99-1.58.17-1.84.99-1.52-.27-2.19,1.43-1.29,1.32-1.23.92-1.53,1.09-1.42,1.82-.6,1.29-1.17,1.03-1.63,1.48-1.02,1.85-.28,1.86-.1,1.51-.92,1.48-1.15,1.69-.56,1.75-.35,1.84.22,1.69-.62,1.77-.07,1.81.26,1.69-.77,1.67-.9,1.76-.19,1.85.46,1.64-1.05,1.9.77,1.58-1.32,1.82.18,1.76-.2,1.85.32,1.75-.27,1.76-.23,1.72-.41,1.63-.91,1.68-.61,1.72-.39,1.9.47,1.58-1.08,1.84.17,1.77-.2,1.79-.16,1.67-.75,1.7-.58,1.8-.11,1.58-1.16,1.9.32,1.86.15,1.67-.75,1.8-.13,1.74-.41,1.49-1.61,2,.85,1.7-.58,1.66-.78,1.92.44,1.73-.48,1.64-.89,1.75-.38,1.6-1.09,1.56-.32.44-1.22.39-1.83.71-1.83-.17-1.88-1.16-1.84-.17-1.83.91-1.91-.49-1.83-.1-1.86-.77-1.78.69-1.95-.21-1.64-.83-1.68,1.03-1.49,1-1.39-.22,1.94,1.18,1.66-.56,1.97.61,1.76,1.17,1.66.3,1.82.36,1.76.17,1.79-1.04,1.87,1.32,1.7-.98,1.8.02,1.76v1.76s.19,1.79.19,1.79l-.86,1.68-.12,1.85,1.71,1.42.17,1.68.5,1.67ZM194.72,16.75l1.78-.26,1.69-.67,1.75-.36,1.83-.03,1.54-1.31,1.8-.17,1.65-.76,1.78-.24,1.71-.52,1.73-.44,1.76-.35,1.76-.35,1.62-.83,1.97.3,1.59-.88,1.67-.65,1.62-.81,1.67-.8,1.61-.46,1.89.82,1.53-.72,1.49-.75-1.65.32-1.74-.26-1.71.34-1.67.5-1.94-.55-1.34,1.56-2.02-.47-1.27,1.78-1.92-.23-1.72.4-1.59.85-1.66.63-1.87-.2-1.74.3-1.47,1.41-1.78.11-1.85-.22-1.58,1-1.69.54-1.88-.4-1.52,1.41-1.77.15-1.84-.23-1.66.67-1.67.65-1.73.34-1.9-.57-1.68.63-1.76.24-1.9-.21-1.72.66-1.66,1-1.81.22-1.93-.39-1.62,1.22-1.76.47-1.76.47-2.02-.88-1.64,1.12-1.96-.56-1.73.64-1.63,1.16-1.84.06-1.72.66-1.95-.49-1.77.42-1.65,1.1-1.89-.18-1.77.44-1.89-.14-1.6,1.37-2.2-.5.43,1.76,1.68-.52,1.68-.79,1.9.37,1.69-.74,1.97.71,1.75-.44,1.72-.63,1.83-.02,1.7-.74,1.77-.33,1.73-.56,1.79-.24h1.83s1.82-.1,1.82-.1l1.54-1.59,1.97.69,1.7-.75,1.79-.24,1.87.19,1.55-1.51,2.01.9,1.55-1.5,1.79-.26,1.9.35,1.68-.82,1.92.4,1.72-.6,1.86.11,1.63-1.15,1.82-.14ZM188.23,37.75l-.64-1.47-.88-1.4-.46-1.56-.06-1.66-1.28-1.37.12-1.94.17-1.96,1.19-1.53,1.28-1.36,1.52-1.04,1.66-.73,1.71-.55,1.6-.86,1.93.42,1.67-.65,1.75-.26,1.78-.28,1.83-.07,1.84.31,1.11,1.82,1.35.87,1.21,1.52.73,1.78.3,1.91.59,1.81.45,1.88-.98,1.87.52,1.8-1.88.58-.37,2.07-1.78.5-1.25,1.58,2.01-.43,1.68-.48,1.76.49,1.44.39,1.85.5.48,1.88.06,1.99,1.17,1.62.66,1.8-.31,2.02,1.47,1.63.21,1.9-.16,1.97.18,2.05-1.18,1.89-1.97.94-1.99-.37-1.63.77.32,1.59-.15,1.75.72,1.53,1.05,1.45.28,1.65-.25,1.94,2.29-.66,1.94.21,1.89.6.89,2.06,1.76.63,1.86.31,1.6-.9,1.37-1.43,1.76-.44,1.48-1.05,1.99-.04,1.55-.93,1.16-1.57,1.8-.5,1.43-1.09,1.75-.66.76-1.93,2.01-.41,1.01-1.57,1.15-1.39.87-1.61,1.7-.89.78-1.66,1.91-.85.9-1.59.65-1.72,1.12-1.47.38-1.82.66-1.68.35-1.78.57-1.71.7-1.7.53-1.76-1.09-1.91,1.13-1.74-.43-1.8v-1.8s.32-1.86.32-1.86l-1.46-1.58.86-2.02-1.6-1.45-.45-1.72v-1.95s-1.22-1.44-1.22-1.44l-.28-1.97-1.3-1.36-.88-1.72-1.92-.68-1.59-.89-1.09-1.7-2.13.22-1.64-.65-1.54-1.25-1.85-.07-1.82.02-1.92-.61-1.77.31-1.57,1.15-1.83-.04-1.85-.09-1.51,1.44-1.68.59-2.03-.42-1.77.45-1.71.62-1.64.84-1.61.96-1.86.11-1.54,1.27-2.05-.62-1.72.6-1.79.31-1.56,1.33-1.89-.14-1.73.65h-1.86s-1.61,1.12-1.61,1.12l-1.75.4-1.76.35-1.83-.04-1.91-.46-1.59,1.18-1.93-.58-1.55,1.43-1.82.03-1.85-.15-1.84-.06-1.68.73-1.69.68-1.65.93-1.99-.84-1.65.9-1.82.03-1.76.37-1.83-.05-1.72.53-1.55,1.45-1.78.26-1.88-.28-1.68.76-1.88-.28-1.8.13-1.63,1.01-1.87-.18-1.7.67-1.62,1.1-2.05-1.14-1.78.79.86,2.03-.12,1.73.1,1.76.54,1.68.5,1.74,1.42,1.19,1.18,1.28.65,1.86,1.66.83,1.07,1.59,2.06.59.96,1.68.56,1.96,1.13,1.49,1.37,1.31,1.96.82.22,2.27,1.51,1.1,1.41,1.23.26,1.96,1.92,1.12.08,1.94.74,1.72-.22,2.03.46,1.84,1.96,1.21-.05,2.05,1.06,1.56.59,1.78,1.43,1.29-.91,1.93,1.23,1.49-.49,1.73.05,1.67.63,1.42,1.82.13,1.87.1,1.68-.88,1.82-.18,1.73-.63,1.68-.88,1.92.36,1.86.08,1.71-.74,1.6-1.32,2,.76,1.84-.07,1.56-1.52,1.78-.4,2,.71,1.74-.75.89-1.55.22-1.96,1.35-1.21,1.91-.52.45-1.75.49-1.58-1.59-1.14-1.02-1.23-.33-2.06-1.55-.88-1.45-1.07-1.7-.62-1.86.51-1.67.13-1.73-.73-1.77-.48-1.52-1.48.77-2.09-.42-1.81-1.03-1.67-.12-1.88-.04-1.9-1.21-1.63-.54-1.79.23-2.17,1.25-1.76,1.87-1.16,1.82-.09,1.8-.13,1.72-.47,1.61-.91,1.97.2-1.8-.54-1.53-.87-1.51-.72-2.09.69-.84-1.8-1.11-1.19ZM205.43,23.76l-1.86-.69h-1.91s-1.87-.12-1.87-.12l-1.91-.25-1.67,1.24-1.81.28-1.51,1.04-1.64.76-1.35,1.19-1.13.8,1.35.26,1.79.45,1.85-.23,1.91.76,1.8-.68,1.76-.62,1.59-.97,1.44-1.12,1.33-1.2,1.84-.91ZM190.98,37.55l1.77.73,1.86.07,1.81.16,1.86.26,1.59-1.26,1.75-.32,1.43-1.07,1.59-.78,1.33-1.17,1.13-.89-.12-1.44-.12-1.59-.59-1.51.55-1.81-1.61,1.24-1.41,1.02-1.42,1.06-1.53.91-1.66.66-1.98-.77-1.62.61-1.7.5-1.74-.07-1.68-.51-1.68-.21.77,1.44-.35,1.88,1.6,1.16.16,1.7ZM30.24,48.04l1.75-.2,1.68-.6,1.74-.27,1.8.07,1.59-1.2,1.78-.03,1.69-.62,1.77-.08,1.73-.34,1.75-.24,1.77-.13,1.77-.13,1.69-.6,1.88.58,1.68-.63,1.73-.37,1.7-.53,1.71-.49,1.73-.37,1.95.92,1.69-.64,1.7-.74,1.78-.33,1.84-.04,1.74-.51,1.74-.56,1.97.62,1.56-1.42,1.99.73,1.52-1.62,1.93.42,1.79-.25,1.7-.74,1.74-.52,1.91.29,1.81-.23,1.58-1.37,1.84-.07,1.9.25,1.53-.91-.45-1.36-1.59-.32-1.5,1.43-1.77.19-1.84-.19-1.65.72-1.66.69-1.72.39-1.92-.52-1.66.67-1.75.28-1.84-.18-1.66.69-1.59,1.02-1.75.25-1.89-.36-1.55,1.24-1.7.5-1.72.54-2.04-.81-1.59,1.17-1.96-.51-1.7.67-1.6,1.18-1.83.07-1.72.66-1.93-.51-1.76.39-1.65,1.07-1.87-.22-1.76.4-1.86-.2-1.62,1.32-1.94-.7-1.71.74-1.76.44-1.72.71-1.89-.45-1.73.66-1.93-.81-1.77.35-1.75.54-1.84-.09-1.72.67-1.76.35-1.66.69-1.7.55-1.56,1.26,1.87-.04,1.56-1.55,1.94.74,1.7-.7,1.78-.2,1.84.24,1.7-.81ZM39.09,53.71l1.42-1,1.3-1.21,1.57-.79,1.75-.33,1.39-1.43,1.8-.17,1.73-.61,1.82.09h1.81s1.8.33,1.8.33l1.7.7,1.51,1.05,1.52,1.15-.09,1.98.78,1.87.52,1.93.68,1.9.64,1.91-.1,2-1.9.85-.81,1.43-.96,1.41-1.26,1.07-1.03,1.23,1,.64,1.6-.55,1.85.63,1.43-1.41,1.88.74,1.4-1.61,1.82.43,1.76.36,1.78.86,1.14,1.72-.23,1.89.29,1.77,1.42,1.51.13,1.81-.18,1.89,1.05,1.6.6,1.71-.97,1.81-.4,2.22-2.07.82-2.01-.1-1.64,1.06-1.28,1.34-1.12,1.41-1.66,1.3-.2,1.98-.1,1.94.31,2.37,2.05-.32,1.86-.38,1.66.82.94,1.64,1.79.82.5,1.26,1.6-.49,2.05.84,1.64-1.15,1.98.52,1.74-.67,1.63-1.19,1.86-.09,1.73-.69,1.97.46,1.78-.45,1.64-1.13,1.91.15,1.78-.47,1.9.11,1.59-1.4,2.01.59,1.68-.83-.84-1.5-1.03-1.54.14-1.92-.89-1.6.6-1.98-.48-1.69-.62-1.68.06-1.79-.61-1.7-.15-1.76-.33-1.76.05-1.78.32-1.77.3-1.76-1.19-1.83,1.16-1.7-.26-1.8.28-1.75.74-1.69-.95-1.92,1.5-1.58-.91-1.93.36-1.75.96-1.62-.22-1.8.99-1.63-.05-1.78.63-1.71-.7-1.81-.21-1.75.85-1.75-1.23-1.68-.14-1.71.37-2-1.74.55-1.7.46-1.85-.33-1.74.25-1.57,1.1-1.81-.09-1.81-.14-1.52,1.39-1.68.54-1.92-.7-1.75.22-1.71.4-1.66.64-1.63.79-1.8-.07-1.57,1.13-1.94-.77-1.7.48-1.76.21-1.56,1.26-1.9-.25-1.76.57-1.86-.07-1.67,1.09-1.79.36-1.8.3-1.87-.09-1.93-.51-1.67,1.14-1.95-.62-1.63,1.39-1.86-.02-1.88-.2-1.87-.11-1.74.69-1.75.64-1.71.89-2-.89-1.72.86h-1.86s-1.81.31-1.81.31l-1.81-.1-1.72.49-1.54,1.43-1.74.27-1.86-.23-1.6.86-1.88-.09-1.76.39-1.39,1.3-1.85.34-1.34,1.26-.89,1.69-2.33.17-.86,1.69-.12,2.06-1.09,1.38-.97,1.5-.64,1.66-.78,1.65.2,1.85-.09,1.77-.92,1.76.5,1.79-.33,1.84,1.31,1.6v1.81s-.27,1.96-.27,1.96l.59,1.74.98,1.56,1.73,1.17-.26,2.22,1.32,1.35,1.33,1.31.42,1.96,2.12.63.82,1.68,1.46,1.09.81,1.83,1.33,1.31,2.26-.08,1.08,1.69,1.75.59,1.54.99,2.01-.12,1.24,1.87,2.04-.38,1.56,1.16,1.74.58,1.88-.16,1.67.83,1.71.76,1.87-.29,1.78.36,1.82-.17,1.8-.51,1.81.67,1.85.28,1.88-.71-.16-2.17,1.88-1,1.3-1.11.6-2.04,1.27-.53.66-1.67-.79-1.51-.29-1.63-1.25-1.39-.14-1.67.47-2.02-1.98,1.3-1.7-.85-1.91.46-1.57-1.15.36-2.06-.65-1.8-.18-1.92-.41-1.86-1.24-1.65-.57-1.82.05-1.98-.87-1.75-.17-2.2,2.21-.49,1.57-.82,1.36-1.39-.59-1.27-1.85-.49-2,.32-1.8-.8-1.37-1.42-1.13-1.59-.94-1.76.03-1.97-.22-1.8-.34-1.76-.45-1.86,1.19-1.52.93-1.47ZM207.09,73.35l1.23,2.39,1.52-.33,1.16-.69-.06-1.78-1.32-1.49-.17-1.78-.75-1.63-.21-1.76-.48-1.7-.38-1.72-.27-1.75-.26-1.75-.73-1.64.43-1.92-.76-1.63-.51-1.69-.66-1.65-.63-1.67-.5-1.7.77-2.01-.77-1.63-.8-1.63-.38-1.67-1.79.18-1.61,1.09.43,1.69-1.01,1.67.76,1.86-1.62,1.2.3,2.12-1.63,1-1.09,1.35-.56,1.69-.37,1.64-.63,1.76.53,1.87,1.94.7,1.25,1.19,1.28,1.37,1.86.28,1.6.85.81,1.74,1.98.67.82,1.66.25,1.87.94,1.55.08,1.83ZM214.78,55.7l-.36-1.78-.75-1.65-.42-1.74-.09-1.82-1.34-1.5-.19-1.8-.77-1.66-.02-1.47-1.28.39-1.69.19-1.4-.12.36,1.55.77,1.75-.38,2.04.81,1.74.55,1.8.71,1.77.67,1.78.48,1.64,1.19.68,1.61-.81,1.54-.97ZM194.32,49.98l1.25-1.46.48-1.85.6-1.65-1.87.06-1.62,1.32-1.89.16-1.76.74-1.72.14.81,1.04.35,1.74.17,1.76.15,1.75.66,1.63-.4,1.9.93,1.53.85,1.51.65,1.18-.71-1.36-.36-1.83,1.06-1.93-.26-1.79.13-1.87.99-1.6,1.5-1.12ZM46.4,53.06l-2.03.35-1.62,1.14-1.48,1.2-1.45,1.57,2.15-.33,1.73.5,1.79-.27,1.78.09,1.74-.37,1.72-.45,1.71-.54,1.66-.72,1.29-1.28,2.04-.77-1.93-.79-1.77-.4-1.8.13-1.73.38-1.24.08.73.55,1.5.19,1.19,1.02-1.12,1.51-1.76.48-1.73.44-1.82.16-.27-1.55.71-2.31ZM42.32,66.25l1.76.74,1.85.1,1.8.22,1.84.34,1.64-1.18,1.75-.23,1.47-1.01,1.6-.72,1.34-1.13,1.13-.88-.08-1.45-.08-1.59-.55-1.52.58-1.81-1.76,1.25-1.56,1.02-1.57,1.05-1.69.89-1.81.62-2.06-.85-1.78.52-1.86.38-1.86-.22-1.91-.56.76,1.98.8,1.93.26,2.1ZM66.37,80.94l-.85-1.56-1.54-.85-1.5-.82-1.41-1.06-1.98.03-1.36-1.21-1.58-.99-.94-1.6-.88-1.59-.06-1.31-1.69.2-1.7.09.76,1.42-.43,1.91.76,1.62.51,1.68.66,1.64.62,1.65.5,1.68-.77,1.99.76,1.62.8,1.61.4,1.7.11,1.78.58,1.66.62,1.65-.54,1.94,1.48,1.44-.65,1.97,1.68,1.4-.34,1.9,1.82,2.28,1.88-1.18-.15-1.96.17-1.94-.16-1.78-1.11-1.79.48-1.85,1.06-1.6.14-1.93.79-1.7,1.67-1.1.08-2.11.88-1.46.79-1.65-.35-1.82ZM69.44,85.52l1.57-.51,1.31-.81-.42-1.68-.07-1.85-1.33-1.55-.17-1.83-.75-1.69-.22-1.82-.48-1.76-.14-1.44-1.34.3-1.77.22-1.67.68-1.92-.48-1.67.72-1.61.32,1.75.51,1.82.69,1.76.8,1.17,1.97,1.64.69,1.48,1.16.79,1.71.12,1.87.3,1.82-.12,1.94ZM201.53,78.97l1.62.86,1.76.22,1.7.32,1.73.45,1.63-1.07,1.68-.12,1.44-.9,1.56-.6,1.32-1.02,1.25-1.1,1.12-.9-1.15-1.07-1.74-.42-1.97-.96.44,2.1-.49,1.91-1.38,1.54-1.91.83-1.99.07-1.11-1.83-1.36-.94-1.03-1.24-1.05,1.09-1.29,1.16-.78,1.62ZM52.16,88.28l-.33-1.77-.73-1.66-.39-1.74-.06-1.82-1.32-1.52-.16-1.8-.74-1.66-.16-1.66-.98.73-1.19.18.25,1.62.26,1.76.72,1.65-.44,1.93.76,1.65.5,1.71.66,1.67.87.86,1.08.17,1.42-.3ZM155.63,87.3l-.36-1.91-.82-1.67-.57-1.73-.43-1.82-1.74-1.03-.53-1.39.28,1.47-.36,1.71.15,1.74.26,1.73.34,1.75.26,1.58,1.61-.69,1.91.27ZM204.95,88.77l1.64.83,1.84.15,1.78.17,1.85.21,1.51-1.32,1.71-.41,1.35-1.15,1.53-.85,1.25-1.22,1.07-.93-.19-1.88-.19-1.99-.61-1.75-.98.62-1.18,1.28-1.45.95-1.48.96-1.61.77-1.72.48-1.86-1-1.67.4-1.74.28-1.71-.27-1.71-.66.45,1.76.64,1.58-.24,2.01,1.72.99ZM168.42,93.04l-.29-1.66-.68-1.53-.35-1.61-.07-1.79-.64,2.01-.27,1.6,1.16,1.28,1.14,1.71ZM53.13,108.17l1.75.7,1.85.03,1.8.12,1.85.23,1.58-1.26,1.75-.31,1.44-1.05,1.58-.75,1.31-1.16,1.09-.91-.95-1.05-1.52-.94-1.3-.21-.69,1.69-.3,1.96-1.47,1.43-1.95.83-1.83.14-1.79-.68-.27-2.05-.96-1.43-1.48,1.37-1.06,1.46-.43,1.84ZM56.34,117.48l1.64.74,1.81.1,1.75.15,1.81.22,1.48-1.31,1.67-.38,1.32-1.12,1.5-.83,1.22-1.2,1.04-.9-.24-1.89-.25-2-.65-1.73-1.12.57-1.32,1.29-1.56.95-1.59.96-1.71.77-1.82.47-1.95-1.01-1.78.4-1.84.29-1.71-.26-.19,1.49.59,1.57.95,1.34.99,1.33Z"/>
      <polygon points="130.79 88.73 128.64 89.19 126.65 88.25 125.7 86.88 125.4 85.24 125.71 83.61 126.99 84.87 128.24 86.17 129.52 87.45 130.79 88.73"/>
      <polygon points="142.44 85.59 141.49 86.78 139.93 86.98 138.41 86.51 137.2 85.59 136.57 84.22 136.7 82.7 138.12 83.44 139.57 84.15 141.01 84.88 142.44 85.59"/>
      <polygon points="118.32 87.95 116.44 87.95 114.99 86.77 114.71 85.07 115.52 83.53 116.45 85 117.39 86.47 118.32 87.95"/>
      <polygon points="108.86 86.66 107.29 86.7 105.94 85.95 105.68 84.4 106.21 82.87 107.1 84.13 107.97 85.4 108.86 86.66"/>
      <polygon points="59 80.48 58.67 82.32 58.64 84.19 59.06 86 59.79 87.72 60.62 89.43 58.71 88.8 57.23 87.46 56.44 85.65 56.27 84 56.46 82.35 56.9 80.74 57.63 79.27 59 80.48"/>
      <polygon points="62.49 86.01 63.02 84.77 63.23 83.46 62.41 82.23 61.44 81.13 60.53 80.22 62.1 79.25 63.56 80.16 64.76 81.39 65.56 82.9 65.42 84.78 64.54 86.45 63.17 87.72 61.94 87.42 62.49 86.01"/>
      <polygon points="203.34 62.04 202.86 60.35 202.4 58.66 201.87 57 201.39 55.31 200.91 53.62 200.42 51.95 202.01 52.65 203.31 53.85 204.23 55.37 204.72 57.07 204.81 58.84 204.33 60.55 203.34 62.04"/>
      <polygon points="198.11 55.11 197.69 57.63 198.45 58.78 199.53 59.67 200.55 60.42 199.06 61.52 197.57 60.84 196.29 59.81 195.45 58.43 195.48 56.57 196.15 54.83 197.35 53.44 198.47 53.79 198.11 55.11"/>
      <polygon points="200.81 24.95 199.82 26.43 198.27 27.35 196.52 27.72 194.73 27.65 193.08 26.99 193.91 25.29 195.47 24.18 197.32 23.71 199.23 23.88 200.81 24.95"/>
    </g>
  </g>
</svg>