<?xml version="1.0" encoding="UTF-8"?>
<svg id="Layer_2" data-name="Layer 2" xmlns="http://www.w3.org/2000/svg" viewBox="0 0 135.22 119.87">
  <g id="Layer_1-2" data-name="Layer 1">
    <g>
      <path d="M119.88,17.96l-1.16-1.42-1.17-1.42-1.66-.92-.89-1.73-1.88-.61-1.32-1.27-1.13-1.56-1.68-.79-1.7-.73-1.61-.86-1.37-1.33-1.8-.48-1.5-1.15-1.91-.14-1.55-1.13-1.76-.54-1.78-.46-1.84-.22-1.78-.47-1.91.48-1.77-.55-1.81-.36-1.84.43-1.76-.52-1.76-.09-1.76.38-1.76-.23-1.76-.03-1.77.53-1.76-.2-1.77.24-1.76-.57-1.76-.04-1.77.53-1.76.03-1.76-.68-1.77.35-1.76-.19h-1.77s-1.77.01-1.77.01l-1.77.46-1.8-.71-1.8.14-1.79.18-1.79.25-1.77.36-1.71.56-1.59.93-1.81.21-1.75.45-1.5,1.06-1.64.7-1.74.54-1.47,1.05-1.35,1.22-1.67.7-1.2,1.39-1.77.62-1.06,1.54-1.75.7-1.25,1.3-1.17,1.37-1.23,1.3-1.21,1.32-1.04,1.46-1.02,1.47-1.3,1.25-.92,1.54-1.27,1.31-1.1,1.43-.87,1.58-.39,1.83-1.21,1.39-.45,1.77-.6,1.69-1.12,1.48-.36,1.78-.31,1.78-.55,1.7-.5,1.71-.77,1.65-.28,1.77-.39,1.75.06,1.82-.26,1.77-.2,1.78-.34,1.77-.32,1.78.54,1.8.03,1.78-.26,1.8.26,1.78-.3,1.83.22,1.79.68,1.71-.09,1.83.26,1.78.37,1.76.5,1.73.67,1.68.44,1.74.56,1.71,1.15,1.48.45,1.75,1,1.51.47,1.76,1.03,1.48.39,1.84,1.41,1.24,1.07,1.43.58,1.77.92,1.56,1.55,1.07.91,1.57,1.01,1.51,1.61.95.99,1.55,1.18,1.37,1.73.75,1.07,1.52,1.55.93,1.38,1.16,1.53.95,1.78.51,1.24,1.46,1.73.56,1.78.4,1.53.97,1.72.51,1.72.48,1.68.63,1.7.58,1.71.64,1.89-.45,1.77.2,1.77.12,1.83.34,1.81.59,1.84.16,1.88-.52,1.85-.03,1.82.58,1.84.12,1.85.12,1.87-.34,1.84.12,1.81.69,1.86-.1,1.85.06,1.85.21,1.87-.24,1.76.32,1.77.04,1.77-.23,1.79.32,1.72-.74,1.77-.08,1.77-.14,1.83.16,1.65-.77,1.72-.41,1.71-.46,1.6-.79,1.74-.38,1.6-.76,1.76-.41,1.57-.84,1.61-.77,1.24-1.39,1.87-.36,1.26-1.32,1.32-1.2,1.55-.89,1.14-1.39,1.69-.78,1.32-1.2.9-1.6,1-1.47,1.14-1.37,1.58-1.03.9-1.57,1.1-1.42,1.12-1.41.92-1.55.54-1.76,1.42-1.27.68-1.68.62-1.69.81-1.61.33-1.8.84-1.59.84-1.61.36-1.77.24-1.8.58-1.7.29-1.77.78-1.67.11-1.8.47-1.75.25-1.78-.2-1.82-.23-1.8.76-1.77-.35-1.8-.09-1.79.12-1.8.12-1.81-.42-1.77-.26-1.78-.28-1.77-.4-1.75-.4-1.75-.19-1.8-.39-1.76-1.05-1.56v-1.89s-.96-1.57-.96-1.57l-.69-1.65-.96-1.53-.73-1.63-.46-1.77-.53-1.76-1.39-1.27-.94-1.52-.77-1.64-1.24-1.32-.73-1.68-1.54-1.08-.82-1.64ZM52.1,113.2l-1.7-.84-1.89-.3-1.49-1.15-1.67-.82-1.5-1.1-1.53-1.05-1.46-1.14-.97-1.68-1.45-1.15-1.15-1.45-1.28-1.32-1.44-1.19-1.03-1.55-1.31-1.32-1.06-1.51-1.35-1.29-.85-1.67-1.43-1.57.55,2.08.91,1.64.78,1.7.88,1.65,1.17,1.47,1.33,1.33,1.33,1.3.76,1.8,1.34,1.3,1.65.98.86,1.78,1.36,1.28,1.89.67.98,1.7,1.42.88-1.45-.64-1.78-.47-1.49-1.04-1.66-.75-1.5-1.02-1.02-1.64-1.33-1.19-1.55-.94-1.16-1.38-1.3-1.23-1.41-1.14-.78-1.69-1.31-1.24-1.01-1.48-1.52-1.11-.67-1.73-1.18-1.37-.9-1.56-.83-1.26.45,1.42.39,1.76,1.03,1.49.55,1.72.84,1.58,1,1.48,1.18,1.35,1.27,1.26,1.25,1.27,1,1.49,1.2,1.32,1.51,1,1.25,1.27,1.32,1.2,1.02,1.39-1.49-.86-1.48-1.01-1.48-1.01-1.36-1.17-1.59-.88-1.38-1.16-1.19-1.35-1.63-.92-.89-1.63-1.19-1.34-1.13-1.4-1.33-1.24-1.04-1.47-.82-1.62-.68-1.69-1.37-1.27-.54-1.75-.95-1.52-.92-1.55-.79-1.61-.7-1.74.71,1.79.07,1.85.91,1.61.12,1.92.76,1.68,1.08,1.5.96,1.56,1.22,1.39,1.05,1.49.44,1.9,1.58,1.15,1.04,1.52.84,1.97-1.34-1.62-1.78-.71-1.1-1.44-1.41-1.14-1.11-1.41-1-1.5-.72-1.69-1.51-1.12-1.01-1.49-.78-1.62-.55-1.74-.88-1.55-.79-1.59-.51-1.72-1-1.51-.79-1.62-.25-1.8-.62-1.67-.18-1.79-.8-1.64-.45-1.73.05-1.82-.32-1.75-.67-1.72v-1.8s-.17-1.78-.17-1.78l-.05-1.79-.07-1.79.16-1.79-.1-1.8v-1.8s.76-1.72.76-1.72v-1.8s.42-1.74.42-1.74l.08-1.8.87-1.63-.03-1.84.71-1.65.06-1.85.97-1.56.18-1.84,1.13-1.47.64-1.67.7-1.64.71-1.65,1.34-1.3.82-1.6,1.06-1.46.52-1.82,1.2-1.36.98-1.53,1.35-1.23.99-1.54,1.28-1.29,1.49-1.05,1.41-1.13,1.16-1.44,1.57-.92,1.61-.84,1.38-1.23,1.89-.7-1.62,1.23-1.22,1.36-1.34,1.24-1.23,1.35-1.17,1.41-1.24,1.34-1.07,1.49-1.32,1.29-.86,1.63-.58,1.76-.7,1.65-1.3,1.45-.18,1.93,1.15-1.51.86-1.61,1.1-1.45.64-1.79,1.73-.96.62-1.85,1.39-1.21,1.34-1.24,1.3-1.27,1.3-1.27,1.2-1.4,1.38-1.21,1.8-.62,1.17-1.52,1.92-.36,1.27-1.44,1.78-.53,1.3-.63-1.1.98-1.44,1.15-1.44,1.16-1.13,1.5-1.44,1.15-1.23,1.37-1.36,1.24-1.47,1.18-.86,1.67-.81,1.66-.86,1.6-1.15,1.8,1.24-1.75,1.39-1.24,1.12-1.49,1.44-1.19.97-1.64,1.46-1.16,1.39-1.23,1.43-1.18,1.46-1.14,1.44-1.17,1.62-.91,1.43-1.23,1.85-.47,1.61-.91,1.84-.36,1.89-1-1.65,1.24-1.68.76-1.19,1.41-1.53.96-1.46,1.07-1.2,1.36-1.18,1.36-1.41,1.15-.9,1.57-.91,1.53-1.12,1.73,1.51-1.43,1.15-1.44,1.63-.93,1.04-1.57,1.53-1.01,1.31-1.27,1.71-.74,1.43-1.1,1.62-.8,1.32-1.41,1.84-.33,1.65-.62-1.56.82-1.18,1.37-1.27,1.25-1.38,1.11-1.12,1.41-1.6.88-1.04,1.46-1.45,1.07-.9,1.55-1.22,1.3-.67,1.66-1.41,1.26-.53,2.03,1.41-1.54,1.29-1.27.76-1.74,1.27-1.3,1.54-1.03,1.3-1.25,1.46-1.07.87-1.75,1.7-.78,1.27-1.32,1.58-.9,1.67-.72,1.38-1.26,1.88-.24,1.87-1.13-1.76,1.22-1.57.87-1.1,1.5-1.46,1.01-1.71.74-1.22,1.32-.93,1.6-1.28,1.23-1.48,1.06-.87,1.6-1.37,1.18-1.32,1.23-1.01,1.48-1.01,1.48-.53,1.78-1.21,1.35-1.16,1.4-.41,1.81-.94,1.52-.9,1.55-.21,1.85-.78,1.6-.78,1.61-.61,1.68-.56,1.7-.44,1.73-.09,1.81-.47,1.72-.59,1.7-.46,1.74-.28,1.77-.23,1.78-.11,1.79.53,1.81-.11,1.77-.56,1.78.35,1.78.08,1.78-.04,1.8v1.8s.48,1.74.48,1.74l.37,1.75.17,1.79.8,1.65.5,1.71.25,1.77.77,1.62.51,1.7-.04,1.91,1.18,1.46.86,1.56.72,1.62.83,1.57.17,1.92,1.13,1.44.77,1.65,1.48,1.18.96,1.52,1.04,1.46,1.23,1.31,1.04,1.47,1.29,1.25,1.19,1.34.96,1.58,1.22,1.32,1.69.84,1.23,1.53-1.64-.97-1.48-.94-1.34-1.14-1.36-1.08-1.78-.6-1.26-1.24-1.38-1.12-1.03-1.46-.81-1.62-1.49-1.05-.72-1.66-1.34-1.2-.98-1.46-.61-1.69-1.27-1.28-1-1.45-.39-1.81-1.08-1.41-.82-1.25.14,1.54.72,1.64,1,1.51.74,1.6.14,1.91,1.25,1.35,1.05,1.43.63,1.7.85,1.59,1.61,1,1.06,1.41,1.01,1.47,1.05,1.46,1.7.8,1.34,1.14,1.25,1.25.98,1.61,1.79.58,1.22,1.33,1.54.98ZM97.7,112.98l-1.64.66-1.58.9-1.8.14-1.68.62-1.71.52-1.76.29-1.81-.18-1.77.05-1.76.61-1.78-.46-1.8.34-1.78-.21-1.71-.66-1.84.23-1.62-.95-1.71-.45-1.75-.34-1.82-.2-1.49-1.08-1.68-.58-1.59-.79-1.82-.39-1.44-1.08-1.6-.82-1.47-1.04-1.24-1.32-1.14-1.41-1.36-1.13-1.47-1.04-.95-1.56-1.2-1.3-1.48-1.11-1.34-1.25-.57-1.82-1.48-1.16-1.06-1.47-.72-1.68-.5-1.78-1.19-1.41-.68-1.67-.61-1.7-.69-1.66-1.15-1.5-.53-1.73-.46-1.75-.59-1.71.23-1.91-1.07-1.61-.2-1.8.13-1.85-.51-1.75.1-1.82-.66-1.76.21-1.82-.28-1.8.12-1.81.36-1.79.25-1.78.15-1.79-.31-1.85.69-1.72.09-1.81.52-1.73.1-1.83.42-1.76,1.04-1.57.16-1.85.67-1.68.65-1.68.85-1.6.91-1.56.59-1.72,1.15-1.42.71-1.67,1.2-1.37.47-1.85,1.08-1.46,1.12-1.43,1.18-1.37,1.66-.94.72-1.85,1.63-.98,1.3-1.3,1.28-1.34,1.76-.73,1.13-1.57,1.46-1.14,1.71-.75,1.56-.99,1.67-.8,1.66-.81,1.8-.47,1.6-.97,1.76-.55,1.81-.37,1.86-.1,1.76-.53h1.85s1.81-.22,1.81-.22l1.81-.39,1.84-.08,1.83.35,1.83-.39,1.75.66,1.83-.06,1.82.15,1.7.71,1.74.49,1.85.15,1.52,1.12,1.84.26,1.49,1.1,1.75.53,1.76.58,1.6.89,1.16,1.55,1.89.47,1.28,1.32,1.36,1.21,1.58.96,1.2,1.38,1.28,1.3,1.32,1.26.66,1.81,1.05,1.46,1.6,1.09.62,1.75,1.09,1.44.68,1.68,1.12,1.44.84,1.59.95,1.54.33,1.82.44,1.75.59,1.69,1.04,1.54.16,1.83.56,1.7.86,1.64-.22,1.88.43,1.74.76,1.7v1.82s-.17,1.82-.17,1.82l.12,1.78.7,1.77-.39,1.8.09,1.8-.21,1.79.26,1.82-.11,1.8-.78,1.71-.32,1.76.17,1.86-.45,1.75-.62,1.7-.8,1.64-.13,1.84-.72,1.66-.79,1.62-.58,1.7-.67,1.67-.65,1.69-.81,1.61-.96,1.52-1.36,1.27-.43,1.85-1.12,1.42-.9,1.57-1.35,1.29-.92,1.64-1.35,1.28-1.59,1.03-.92,1.71-1.86.69-1.07,1.59-1.73.77-1.34,1.29-1.33,1.35-1.93.36-1.31,1.45-1.79.56-1.68.76-1.89.22Z"/>
      <path d="M108.75,42.74l-.85-1.62-.98-1.54-1.08-1.47-1.11-1.45-1.16-1.42-1.44-1.14-1.34-1.24-1.43-1.15-1.47-1.11-1.7-.72-1.59-.95-1.81-.39-1.7-.73-1.84-.16-1.78-.51-1.84.07-1.83-.1h-1.8s-1.78.23-1.78.23l-1.72.52-1.67.66-1.76.37-1.55.91-1.65.68-1.51.95-1.44,1.05-1.57.9-1.34,1.2-1.22,1.32-1.25,1.29-1.09,1.43-.92,1.54-1.07,1.44-.86,1.57-.8,1.6-.5,1.73-.87,1.57-.63,1.68-.26,1.78-.25,1.77-.51,1.72-.16,1.78-.11,1.78-.22,1.78.22,1.78-.04,1.79.28,1.77.35,1.75.35,1.75.74,1.64.28,1.78.59,1.69.99,1.51.67,1.65,1.02,1.47.88,1.55.92,1.53,1.2,1.33,1.19,1.33,1.15,1.41,1.39,1.18,1.5,1.03,1.5,1.02,1.45,1.13,1.65.78,1.7.65,1.79.37,1.75.46,1.78.3,1.78.47,1.83-.02,1.8-.3,1.8-.14,1.75-.43,1.82-.18,1.75-.52,1.65-.78,1.5-1.05,1.51-.98,1.65-.8,1.23-1.34,1.51-1.01,1.11-1.43,1.29-1.25,1.27-1.29,1.04-1.47.68-1.7.97-1.51.91-1.55.79-1.62.54-1.72.76-1.64.46-1.74.06-1.83.36-1.75.25-1.77.34-1.78-.13-1.8.05-1.8-.23-1.78-.08-1.8-.52-1.73-.33-1.76-.14-1.82-.58-1.71-.86-1.6-.7-1.65-.71-1.64ZM101.45,81.84l-1.09,1.41-1.31,1.2-1.47,1-1.3,1.25-1.54.91-1.65.68-1.7.5-1.73.36-1.74.5-1.73-.22,1.64-.47,1.68-.51,1.61-.7,1.67-.62,1.58-.83,1.45-1.03,1.28-1.24,1.38-1.12,1.18-1.33,1.1-1.4.83-1.58.9-1.52.76-1.6.74-1.62.26-1.76.43-1.66-.67,1.65-.96,1.55-1.21,1.39-.8,1.64-1.21,1.37-.95,1.57-1.31,1.27-1.22,1.36-1.53,1-1.39,1.19-1.64.81-1.73.56-1.67.75-1.84.06-1.8.13-1.9.12,1.84-.26,1.69-.53,1.64-.66,1.58-.79,1.41-1.06,1.53-.87,1.32-1.16,1.12-1.36,1.24-1.25.76-1.6,1.03-1.43.52-1.68.61-1.61-1.1,1.44-.95,1.6-1.42,1.22-1.21,1.39-1.16,1.46-1.43,1.18-1.51,1.08-1.73.68-1.67.76-1.75.55-1.79.45-1.84.2-1.76-.17,1.57-.49,1.72-.31,1.62-.66,1.56-.79,1.32-1.16,1.51-.89,1.15-1.31,1.44-1.04,1.02-1.43.95-1.47.9-1.51.6-1.65.3-1.73.41-1.56-.87,1.37-.8,1.58-1.18,1.33-1.03,1.42-1.11,1.36-1.06,1.4-1.3,1.18-1.35,1.14-1.62.69-1.66.52-1.66.86-1.86.18-1.69.79-1.71.55-.16,1.78.62,1.78,1.26,1.43,1.56,1.13,1.71,1.09-1.92-.31-1.86-.18-1.69-.8-1.83-.49-1.49-1.14-.7-1.67-.42-1.79-.95-1.58-1.46-1.13-1.36-1.16-1.53-.94-1.71-.55-1.64-.69-.95-1.47-.84-1.61-.57-1.73-.85-1.62-.29-1.81-.8-1.67-.27-1.81-.14-1.82-.07-1.81v-1.81s-.04-1.81-.04-1.81l-.12-1.83.44-1.78.14-1.82.66-1.71.35-1.79.51-1.75,1.01-1.55.82-1.61.64-1.73,1.05-1.53,1.89-.36,1.74-.77,1.68-.87,1.47-1.22.97-1.63.97-1.65.13-2.04,1.86-.39,1.72-.62,1.66-.79,1.72-.51-1.32,1.09-.71,1.68-.73,1.66.31,1.87,1.86.26,1.78.4,1.69.68,1.74.58,1.55.98,1.46,1.08,1.43,1.12,1.52,1.06,1.01,1.55,1.14,1.42,1.01,1.52,1.06,1.51.5,1.78.66,1.7.62,1.56.07-1.59-.35-1.72-.49-1.67-.4-1.7-.75-1.58-.87-1.51-.89-1.51-1.29-1.19-1.19-1.25-1.24-1.21-1.38-1.05-1.47-.92-1.46-.95-1.55-.8-1.62-.55,1.72.06,1.64.67,1.66.47,1.58.71,1.61.68,1.4,1.04,1.41,1.04,1.28,1.19,1,1.44,1.06,1.37,1.28,1.23.75,1.59.8,1.55.68,1.61.89,1.68-.32-1.87-.31-1.71-.56-1.64-.42-1.72-1.11-1.38-.83-1.54-1.17-1.29-.99-1.46-1.26-1.22-1.48-.96-1.43-.99-1.35-1.11-1.58-1.04,1.83.59,1.67.6,1.57.82,1.49.96,1.65.74,1.2,1.33,1.28,1.23,1.14,1.36,1.22,1.31.85,1.57.88,1.54.9,1.54.39,1.76.69,1.63.74,1.63.21,1.78.52,1.89.27-1.98-.21-1.81-.13-1.81-.28-1.8-.82-1.64-.59-1.7-.57-1.73-1.07-1.47-1.04-1.47-1.07-1.45-1.09-1.46-1.31-1.25-1.53-.99-1.37-1.17-1.57-.9-1.45-1.1-1.83-.81,1.9.43,1.7.46,1.52.9,1.59.75,1.35,1.13,1.32,1.14,1.31,1.15,1.2,1.27,1.03,1.41,1.29,1.22.99,1.46.82,1.66.68,1.71.67,1.71.53,1.75.66,1.72.54,1.76.06,1.86.57,1.78-.16,1.86.09,1.83-.19,1.83.13,1.85-.3,1.82-.51,1.77-.3,1.82-.67,1.72-.42,1.81-.84,1.65-.91,1.6-.99,1.55-1.01,1.53-1.01,1.54-1.34,1.27Z"/>
      <path d="M87.73,75.21l-1.52,1.01-1.45,1.08-1.57.91-1.73.55-1.74.52-1.81.13-1.81-.03-1.81-.17-1.77-.45-1.65-.77-1.55-.93-1.48-1.03-1.39-1.15-1.25-1.23-1.1-1.37-1.07-1.4-.85-1.54-.69-1.62-.48-1.69-.58-1.67-.27-1.74-.14-1.76v-1.76s.14-1.76.14-1.76l.5-1.7.4-1.7.42-1.71.71-1.61.89-1.51.82-1.56,1.19-1.3,1.04-1.43,1.36-1.2,1.51-.99,1.54-.94,1.66-.69,1.7-.63,1.79-.28,1.8-.19,1.8.18,1.67.42,1.65.48,1.58.68,1.61.66,1.32,1.13,1.28,1.15,1.17,1.27,1,1.41.89,1.55.75,1.61.79,1.61.55,1.71.41,1.75.06,1.8.24,1.77v1.79s-.32,1.76-.32,1.76l-.28,1.76-.48,1.72-.58,1.69-.71,1.64-.82,1.59-1.13,1.39-1.05,1.44-1.18,1.35ZM86.7,71.75l1.24-1.29.86-1.56.71-1.62.72-1.62.39-1.73.4-1.72.17-1.76-.07-1.77-.16-1.75-.2-1.76-.37-1.74-.61-1.67-.8-1.59-.98-1.53-1.1-1.45-1.34-1.22-1.42-1.11-1.56-.9-1.68-.69-1.8-.15-1.71-.09,1.49.77,1.41,1.07,1.29,1.22.96,1.49.98,1.45.93,1.49.64,1.64.42,1.71.51,1.69.06,1.76.28,1.75-.09,1.84-.34,1.81-.37,1.8-.61,1.73-.65,1.72-.96,1.58-1.03,1.53-1.31,1.3-1.46,1.11-1.49,1.05-1.61.87-1.55.79,1.81.29,1.93-.06,1.89-.39,1.81-.66,1.69-.94,1.53-1.19,1.16-1.55ZM69.84,45.99l-1.45,1-1.18,1.39-1.02,1.5-1,1.51-.67,1.69-.65,1.69-.42,1.77-.17,1.8-.05,1.8v1.81s.18,1.81.18,1.81l.44,1.77.66,1.7.85,1.61.98,1.53,1.23,1.34,1.27,1.25,1.44-1.09,1.37-1.24,1.02-1.54.97-1.55.78-1.66.62-1.73.42-1.79.47-1.8.07-1.85-.23-1.84-.25-1.83-.38-1.81-.8-1.67-.71-1.71-1.21-1.41-1.21-1.37-1.38-1.11ZM75.61,70.7l1.55-.12,1.53-.62,1.37-.89,1.19-1.11.79-1.63.75-1.64.49-1.74.22-1.79.08-1.8v-1.81s-.17-1.81-.17-1.81l-.45-1.77-.68-1.69-.86-1.6-1.06-1.55-1.72,1.33-1.42-.22.63,1.62.4,1.73.5,1.72.18,1.78.04,1.79-.12,1.78-.25,1.77-.6,1.69-.49,1.7-.48,1.71-.72,1.63-.68,1.55Z"/>
    </g>
  </g>
</svg>