<?xml version="1.0" encoding="UTF-8"?>
<svg id="Layer_2" data-name="Layer 2" xmlns="http://www.w3.org/2000/svg" viewBox="0 0 182.09 88.05">
  <g id="Layer_1-2" data-name="Layer 1">
    <g>
      <path d="M179.9,79.92l-1.5,1.28-1.35,1.17-1.71.53-1.76.35-1.8.12-1.59,1.17h-1.82s-1.86-.35-1.86-.35l-1.75.32-1.66,1.16-1.81-.02-1.8.05-1.77.33-1.78.19-1.85-.64-1.72,1.01-1.81-.08-1.8.07-1.8-.12-1.8-.05-1.77.53-1.82-.54-1.79.06-1.77.68-1.79.11-1.79.08-1.81-.65-1.78.74-1.8-.71-1.79.74-1.79-.25-1.78-.02-1.84-.37-1.81-.03-1.8.15-1.81.04-1.81.03-1.8.5-1.81.12-1.81-.34-1.82.73-1.81-.37-1.81-.34-1.81-.18-1.8-.25-1.81-.04-1.8-.18-1.83.31-1.83.37-1.78-.6-1.84.31-1.74-.56-1.8.35-1.76-.36-1.8.27-1.75-.35-1.75-.41-1.79.28-1.74-.66-1.76-.29-1.81.5-1.75-.58-1.82.62-1.75-.51-1.78.38-1.76-.71-1.77-.32-1.79.75-1.77-.1-1.78.23-1.77-.23-1.76-.82-1.79.59-1.78.18-1.76-.72-1.79.11-1.79.42-1.76-.81-1.79.53-1.77-.23-1.77-.37-1.78.19-1.78-.09-1.79.53-1.77-.53-1.78-.05-1.78-.3-1.8.69-1.86-.32-1.82-.6-1.93.53-1.75-1-1.81-.43-1.88-.04-1.78-.52-2.01.25-1.57-1.16-1.07-1.21.66-2.13-1.82-1.11-1.95-.58-1.13-1.64-.76-1.54-.39-1.67.11-1.74-.76-1.6.34-1.68.23-1.67.37-1.73.33-1.33.36-2.17.21-2.17,1.4-1.71-.36-1.75.7-1.74-.15-1.73.24-1.72-.11-1.73v-1.73s.33-1.7.33-1.7v-1.74s.01-1.76.01-1.76l.77-1.61-.11-1.81.6-1.64.83-1.87-1.74.49-1.37-.94,1.5-1.88-.77-1.62.18-.75.25-2.06,2.19.92-.18-2.29.8-1.66.56-1.69,1.04-1.45.51-1.88,1.8-.4,1.37-.93,1.64.42,1.72-.75,1.36,1.21,1.55.85,2.03-.37,1.25,1.64,1.96-.17,1.53.91,1.47,1.03,1.75.35,1.58.83,1.64.71,1.8.08,1.71.49,1.8-.19,1.73.38,1.75-.66,1.79.78,1.71-.93,1.85.39,1.72-.56,1.68-.65,1.8-.19,1.74-.46,1.41-1.26,1.82-.28,1.45-1.07,1.48-.98,1.67-.7,1.77-.65.9-1.72,1.28-1.23,1.26-1.25,1.61-1.11-.29-2.08,1.41-1.51-.2-2.09,1.36-1.44,1.01-1.56,1.26-1.34.81-1.94,2.03.31,1.55.4,1.25,1.36,1.95.56,1.08,1.54,1.7.85.88,1.77,1.73.82,1.13,1.49,1.33,1.26,1.25,1.37,1.41,1.19,1.7.8,1.81-.07,1.64,1.01,1.29,1.24,1.24,1.27.97,1.45,1.66.63,1.75.22,1.31,1.19,1.2,1.26,1.02,1.55,1.96-.3,1.92.41,1.46,1.34,1.54,1.15.93,1.41,1.48.23,1.55.61,1.57.54,1.7.68.63,1.8,1.89.77,1.83.5,1.87.52,1.61.24,1.51,1.04,1.44,1.06.85,1.39,1.35,1.28,1.98-.11,1.35,1.47,1.92.05,1.67.68,1.54,1.01,1.83.07,1.62.77,1.74.31,1.72.52,1.77.08,1.73.44,1.95.13,1.47-.92,1.41-.88,1.19-1.34,1.73.12,1.55-.34-1.11,1.35-.58,1.85,1.95.54,1.74,1.14,1.36-1.22.88-1.27.83,1.27,1.44.67,1.24,1.46,1.45,1.36,1.98.07,2.06.11,1.5,1.42,1.31,1.42,1.73,1.18,1.02,1.5,1.14,1.43.27,1.87.46,1.69.59,1.77-.63,1.71-.02,1.72-.15,1.72.36,1.74.22,1.73-.62,1.87-1.17,1.51-1.74.82-1.33,1.42-1.56,1.11-2,.29-1.4,1.28,1.63.4,1.84-.41,1.46,1.28,1.51.64,1.4,1.28ZM73.32,11.11l1.07,1.31,1.81.51,1.61.91,1.59.96,1.51,1.1,2.03.09,1.51,1.12,1.58,1.46,1.74-.78,1.16-1.53,1.46-.24-1.18-1.09-1.46-1.09-1.37-1.18-.83-1.8-1.94-.55-1.22-1.36-1.33-1.24-1.21-1.38-1.26-1.32-1.65-.88-.95-1.68-1.47-1.29-1.19,1.97-1.03,1.57-.91,1.64-1.41,1.45.07,2.03-1.14,1.69.37,1.72,1.33-.61.95-1.48,1.12-1.5.75-1.62.7-1.58,1.03-1.35.5-1.55-.18,1.57-.56,1.58-.96,1.41.05,1.79-.66,1.23ZM107.48,32.68l-1.4-.85-1.54,1.04-1.71.62-1.73.58-1.38-.35-1.81-.25-.04-2.18,1.43-1.55v-2.64s-1.58,1.77-1.58,1.77l-1.93.68-1.89.76-2.27.21-1.83-1.5.76-1.98.34-2.16,1.19-.94-1.32-.17-1.82.52-1.79.6-1.56,1.13-1.97-.12-1.44-.47-1.11-1.59.87-1.91,1.04-1.34,1.67-1.25-2.22-.51-1.35-1.54-2.03-.24-1.58-1.1-1.71-.87-1.46-1.34-1.64-.37-1.65.64-1.25,1.26-1.24,1.26-.9,1.6-1.16,1.35-1.55,1.29,2.03.31,1.39,1.07,1.42,1.04,1.49.88,1.47.93,1.57.74,1.51.85,1.73.41,1.77.35,1.34,1.22,1.68.34,1.3,1.12,1.69.3,1.39.95,1.67.37,1.39.94,1.63,1.05,1.91.42,1.53,1.29,1.68.95,2,.23,1.56,1.21,2.05.11,1.52,1.06,1.84.29,1.42,1.31,1.58.95,1.98-.04,1.66.74,1.79.44,1.61.87,1.44,1.35,1.92.03,1.78.41,1.48,1.26,1.76.48,1.87.19,1.45,1.35,1.78.11-.11-1.59.09-1.75-.49-1.72-1.71.92-1.58,1.1-1.43-1.27-.68-1.61.12-1.77-.15-1.48-1.38.53-1.62.37-1.05,1.41-1.73-.38-1.31-.48-1.1-.78.07-1.43-.25-1.75.93-1.44-1.95.67-1.76,1.03-1.97.59-1.85.5-1.55-1.32-.41-1.7.77-1.59.63-1ZM96.05,21.34l.72-1.98-1.12-1.74-1.44-1.38-.26,1.63-.41,1.61.72,1.7-.43,1.59,1.72.19.51-1.62ZM91.8,19.68l.06-2.32-1.73.88-1.64.62-1.6.74-1.62.83-.5,1.85-.59,1.4,1.9.44,1.8-.7,1.24-1.67,1.64-.79,1.04-1.28ZM41.76,33.6l-2.02.03-1.08,1.78-1.84.22-1.76.17.53-.97,1.7-1.14,1.69-.58-1.64-.86-1.8-.31-2.03.41-1.7-.79-1.57-.69-1.67-.41-1.63-.53-1.6-1.33-1.78,1.81,1.3,1.66,1.46.35.8,1.5,1.41.67,1.57.1,2.09.34,1.57,1.5,1.26.58-1.17.79-.91-.18-1.13-1.79-2.03.6-1.5-1.18-1.86.24-1.09-1.69-2.41-.21.13-2.27-2.08-.91,1.12-.29,1.48-1.02-1.8-1.58-1.82-.5-1.6-.91-1.26-1.37-1.87-.69-.99-1.63-.76-1.7-.68-1.98-1.8.56-1.26,1.37-.93,1.56-.12,1.81.23,1.74-.43,1.79,1.58.55,1.08,1.25,1.58.49,1.12,1.31,1.31,1.16.52,1.65.28,1.72,1.63.82,1.03,1.55,1.27,1.26,1.76.64,1.08,1.49,1.84.55,1.13,1.43,1.86-.28,1.81.76,1.86.32,1.85-.81h1.84s1.82-.41,1.82-.41l1.85.02,1.93.55,1.74-.91,1.77-.55,1.87.28,1.67-.61,1.54-.97,1.93.13,1.44-1.18,1.7-.5,1.75-.4,1.52-.93,1.63-.67,1.39-1.24,1.71-.22,1.52-.66,1.62-.43,1.23-1.34,1.6-.45,1.54-.65,1.3-1.59-.89,2.14,2.08.41,1.7-.23,1.67.31,1.84-.43,1.52.97,1.5.83,1.64.54,1.45.99,1.79.2,1.53.81,1.64.56,1.52.82,1.38,1.15,1.82.17,1.48.95,1.84.52,1.91.33,1.83.53,1.64,1.03,1.89.39,1.56,1.24,1.89.4,1.75,1.24,2.07.06,2.06.12,2.15-1.06-1.78-.62-1.57-.85-1.73-.49-1.75-.43-1.47-1.09-1.85-.2-1.6-.81-1.47-1.09h-1.87s-1.26-1.39-1.26-1.39l-1.56-.71-1.5-.85-1.94.13-1.26-1.38-1.5-.86-1.95.14-1.4-1.08-1.65-.79-1.52-1.05-1.97-.14-1.3-1.52-1.82-.44-1.4-1.32-2.06.04-1.4-1.53-1.32,1.35-.21,1.91h-1.31s.07-1.29.07-1.29l1.24-1.1,1.44-1.14-1.9-.61-1.58-1.09-1.61-1.04-1.86-.53-1.64-1-1.87-.45-1.34,1.16-.82,1.79-1.94.58-.97,1.74-1.88.52-1.44,1.15-1.52,1.08-1.81.46-1.76.52-1.58,1.16-1.92-.07-1.76.59-1.83.31-1.85.2ZM103.4,25.79l.71-1.22-.81-1.48-.91-1.31-1.54-.83-.18,2.12.95,2.02-.26,2,2.03-1.29ZM93.52,27.83l2.2-.24,1.67-1.27,1.89-.88-.03-2.32-1.9.04-1.25,1.39-1.59.5-1.75.48-1.18,1.33.38,1.12,1.57-.15ZM111.12,29.83l.2-1.85-1.57-1.22-1.75-.75.3,1.7.15,1.73,1.22,1.37,1.44-.98ZM100.96,31.98h1.85s1.37-1.02,1.37-1.02l1.56-.63,1.62-.6-1.72-2.54-1.67,1.23-1.75.59-1.87.77-1.14,1.67,1.75.55ZM10.28,33.72l1.21.67,1.53-.36,1.55.07-.92-1.14-.81-1.22-2.04-.69-1.43-1.36-1.55-1.44-2.48.41,1.16.8.14,1.33-.71.49,1.62.43,1.63.6.79.64.3.76ZM118.59,33.65l.04-1.84-1.5-1.02-1.53-.84.4,1.79.25,1.83,1.3,1.42,1.04-1.34ZM110,36.03l1.88-.19,1.29-1.19,1.52-.8-.3-1.35-1.28-1.03-1.55,1.22-1.65.56-1.74.87-.74,1.92h2.57ZM124.25,35.96v-1.64s-2.03-.34-2.03-.34l.93,1.25,1.1.72ZM34.24,61.3l-.26-1.28-1.04-1.45-.66-1.61-.67-1.62-.58-1.67-1.61-1.07-.67-1.63-.48-1.79-1.13-1.36-1.83-.74-.99-1.43-1.12-1.33-1.36-1.04-1.54-1.08-1.06-1.75-2.04-.4-1.41-1.27-1.5-1.14-1.39-1.3-1.52-1.26-2.05,1.45-1.71-2.28-.75,2.08.24,1.89-.31,1.78-.33,1.78-1.03,1.64.34,1.89-.75,1.84.72,1.89-.25,1.88v1.89s-.52,1.88-.52,1.88l-.14,2.03,2.06.99,1.72.69,1.75.64,1.91.12,1.81.4,1.73.74,1.94-.42,1.78.54,1.82.45,1.83.28,1.83.33,1.85.11,1.84.24,1.88-.25,1.85-.32,1.76.04ZM77.58,40.25l1.41,1.38,1.83.3,1.67.72,1.65.77,1.6.91,2-.14,1.59.94,1.48,1.23,1.74.57,1.96-.32,1.58.78,1.6.7,1.7.42,1.66.54,1.39,1.32,1.94-.26,1.59.76,1.64.61,1.69.66,1.79.36,1.82-.4,1.86.5,1.83-.28,1.6-1.07,1.62-.73,1.47-.96,1.69-1.37h-2.04s-1.45-1.29-1.45-1.29l-1.87.11-1.5.61-1.73.5-1.8-.34-1.73-.22-1.74-.18-1.71-.4-1.69-.49-1.84-.11-1.72-.52-1.54-.97h-1.94s-1.51-1.02-1.51-1.02l-1.49-.97-1.56-.82-1.53-.87-1.63-.67-1.57-.79-1.77-.33-1.8-.27-1.41-1.15-1.78-.32-1.44-1.11-1.8-.28-1.69-.89-1.92-.08-1.83-.49-1.9-.33-1.85.58-1.99-.1-1.9.54-1.38,1.49-1.87.93-1.82.89-1.6.39-1.46,1.16-1.92.13-1.76.44-1.39,1.4-1.72.57-1.64.83-1.8.33-1.94-.31-1.63,1-1.82.54-1.95-.43-1.84.33-1.84.58-1.9-.69-1.85.62-1.87-.16-1.88-.31-1.99.5,1.48,1.18.94,1.17.37,1.56,1.34.9,1.8.27,1.79-.76,1.8.17,1.82.35,1.73-.87,1.86.57,1.81-.11,1.73-.61,1.79-.26,1.55-1.18h1.86s1.78-.33,1.78-.33l1.63-.77,1.79-.36,1.44-1.2,1.68-.64,1.55-.91,1.66-.69,1.82-.4,1.31-1.36,1.66-.5,1.55-.74,1.63-.75,1.77-.3,1.75.47,1.79.02,1.69.57ZM117.85,39.4l1.82-.18,1.22-1.17,1.46-.79-1.55-1.64-2.17.3-1.2,1.88-1.16,1.56,1.58.03ZM128.81,37.47l-.44-1.57-1.77-.42-.91,1.54-.77,1.66-.7,1.74.75,1.84.55,1.17,1.91-.61,1-1.67-.14-2.06.54-1.63ZM161.2,55.8l-1.97-.67-1.9.48-1.93.03-1.15-.93-1.35-.78-1.74-.36.24-1.8,1.16-1.28.75-1.41.25-1.89,1.37-1.3,1.31-1.36,1.03-1.48-1.16.57-1.73.07-.66,1.82-1.9-.34-1.73-.2-1.71-.4-1.71-.34-1.79.18-1.59-.95-1.66-.44-1.84.02-1.83-.67-1.82-.69-1.56-1.36-2.08-.06-1.67-1.43-.52,2.06-.31,1.66.38,1.71-.11,1.83.14,1.75.26,1.73.08,1.75.02,1.75.44,1.77.02,1.78-.46,1.74.59,1.83-.59,1.61,1.75.29.28-1.81.36-1.57-.05-1.25-.27,1.18.41,1.54.04,1.26,1.82.18,1.78-.72,1.91.14,1.77-.76,1.88-.06,1.78-.69,1.89-.07h1.89s1.79-.71,1.79-.71l1.94.24,1.88-.13,1.7-.94,1.9.04,1.58-1.19,1.87-.17,1.59-1.01,1.96-.02,1.82-.44,1.38-1.46,1.7-.7,1.07-1,1.13-.91,1.28-1.5-2.01-.09-1.62-.4-.4,1.37-.78,1.64-1.11,1.63-2.02.27-1.58,1.16-1.88.63ZM113.12,63.08l1.7.64,1.72-.51,1.76-.06h1.76s1.78.13,1.78.13l1.68-.98,1.78.17,1.81.48,2.05-.37-.62-2.36.42-1.98.33-1.99-.99-1.78.84-1.63.17-2.14-1.81.18-1.39-.81-1.4-.66-1.42,1.05-1.57,1.01-1.38,1.34-1.95.18-1.75.49-1.74.9-1.88.18-1.89.03-2.24-.22,1.88,1.64-2.33-1.12-2.53.09,1.73-.64,1.47-.38-1.72-.63-1.78-.56-1.81-.44-1.77-.6-1.76-.64-1.92-.22-1.79-.59-1.63-1.01h-2.03s-1.55-.96-1.55-.96l-1.56-.92-1.63-.77-1.6-.82-1.69-.61-1.64-.74-1.82-.27-1.85-.21-1.5-1.11-1.83-.26-1.44-.92-1.69.19-1.62-.25-1.53.65-1.6.28-1.61.46-1.4,1.22-1.86.36-1.7.65-1.37,1.33-1.85.32-1.39,1.38-1.84.29-1.57,1.02-1.94-.07-1.81.24-1.55,1.22-1.79.35-1.74.62-1.83.1-1.89-.54-1.74.81-1.8.35-1.84-.61-1.81.18-1.47.06.04,1.82,1.28,1.35.6,1.68.47,1.75.98,1.5.8,1.71,1.79-.57,1.7.46,1.69-.02,1.7.22,1.69-.77,1.73.28,1.71.51,1.75-.67,1.7.82,1.72.2,1.74-.25,1.72.17,1.75-.72,1.72.57,1.72.29,1.74-.07,1.72.43,1.77-.44,1.73.22,1.75-.05,1.74.23,1.89.57,1.26-1.55,1.28-.89-.87,2.06,1.9-.32,1.87-.11,1.86.42,1.88-.26,1.85.65,1.89-.26,1.85.78,1.94-.56,1.85-.46,1.69-.86,1.71-.76,1.73-.18,1.62-.05,1.63-.11,1.55.6,1.66-.36,1.79.37,1.74.67,1.39-.07-1.2-1.17-1.78-.94-1.63-1.03h1.65s1.55,1.29,1.55,1.29l1.51.99,2.05.37.97,1.29ZM163.03,46.43l-.88-.82-1.61-.27-1.43-.68-1.46.44.12.9,1.23-.72,1.47.59,1.41.89,1.15-.33ZM158.94,53.83l1.33.69,1.85-.47,1.79-.43,1.68-.8,1.58-1.12.24-2.01.81-1.56-.58-1.52-1.11-1.05-1.7-.42-.05.52.53,1.06.95,1.64-.06,2.08-1.79.45-1.04,1.58-1.66.45-1.6.53-1.16.39ZM114.01,66.69l1.42.32,1.8-.53,1.84-.08,1.84-.04,1.86.11,1.74-1.03,1.86.11,1.9.42,1.82-.29,1.71-1.16h1.85s1.84-.12,1.84-.12l1.8-.41,1.81-.29,1.94.51,1.68-1.15,1.84-.09,1.82-.26,1.85-.09,1.84-.18,1.66-.76,1.86.26,1.74-.36,1.59-1,1.7-.48,1.7-.5,1.9.14,1.46-1.24,1.92.06,1.35-1.37,1.7-.54,1.55-.86,1.79-.5,1.56-.92,1.37-1.19,1.39-1.85-1.89-1.68-1.12,1.92-.97,1.41-1.48.86-1.11,1.51-1.69.4-1.67.4-1.61.52-1.64.42-1.58.58-1.63.41-1.52.84-1.54.86-1.88-.09-1.69.79-1.87-.08-1.7.8-1.83.08-1.72.7-1.83.07h-1.84s-1.74.66-1.74.66l-1.88-.28-1.82.07-1.72.84-1.86-.24-1.72.94-1.85-.19-1.76.62-1.88-.49-1.83-.11-1.74.95-1.82.1-1.79.42-1.83-.06-1.86-.66-1.6.58.2,1.49ZM122.04,70.41l1.85.1,1.59-.91,1.77-.38,1.79-.21,1.81.06,1.73-.96,1.84.11,1.9.41,1.82-.31,1.7-1.18,1.85-.03,1.84-.13,1.79-.44,1.81-.33,1.95.46,1.64-1.21,1.84-.17,1.81-.35,1.84-.19,1.82-.31,1.66-.9,1.94.09,1.77-.54,1.55-1.17,1.7-.68,1.69-.7,1.96-.1,1.23-1.37,1.84-.18.99-1.56,1.4-.94,1.01-1.33,1.06-1.79-1.9,1.02-1.31,1.12-1.4,1-1.43.94-1.24,1.27-1.51.86-1.73.33-1.46,1.3-1.83.24-1.81.25-1.77.37-1.79.3-1.73.48-1.77.33-1.67.8-1.67.84-1.87-.12-1.7.76-1.86-.11-1.7.77-1.83.05-1.73.66-1.83.03-1.83-.04-1.74.63-1.87-.32-1.82.04-1.73.81-1.85-.27-1.72.92-1.85-.21-1.76.61-1.87-.5-1.83-.11-1.73.95-1.8.11-1.78.43-1.81-.04-2.03-.57-.81,1.4-.91.45,1.41.47,1.72-.2,1.72-.51,1.75.72,1.71-.62,1.74.14,1.8.28,1.61-.89ZM111.79,85.06l1.47.59,1.83-.41,1.83.02,1.84.05,1.85.19,1.78-.96,1.85.18,1.88.47,1.82-.25,1.72-1.13,1.84.02,1.83-.09,1.79-.39,1.81-.28,1.92.52,1.68-1.14,1.83-.08,1.82-.25,1.81-.05,1.79-.16,1.68-.76,1.88.26,1.76-.37,1.61-1.01,1.72-.49,1.72-.49,1.91.16,1.5-1.21,1.93.13,1.45-1.29,1.76-.4,1.66-.68,1.85-.23,1.7-.6,1.6-.82,1.72-.86,1.66-.99,1.27-1.51,1.32-1.32.35-1.6-.73-1.63.35-1.62.31-1.62.14-1.85.12-1.88-.25-1.88-.75-2.25-1.38,1.84-1.02,1.6-1.76.72-1.31,1.35-1.82.5-1.44,1.22-1.79.5-1.58,1.02-1.82.37-1.84.26-1.66.87-1.84-.09-1.74.25-1.56,1-1.81-.06-1.55,1.1-1.8-.03-1.64.77-1.85-.33-1.77.03-1.6,1.07-1.74.22-1.7.53-1.77.04-1.83-.56-1.67.82-1.73.39-1.83-.51-1.75.35-1.68.71-1.89-.42-1.58,1-1.73.39-1.77.4-1.58,1.1-1.63.99-1.14,1.61-1.7.94-1.26,1.43-1.31,1.43-.26,2.01-.9,1.65-.22,1.5ZM89.82,66.83l-1.18-1.64-1.92.27-1.85-.18-1.85-.23-1.84-.38-1.9.75-1.84-.41-1.83-.72-1.86-.02-1.91.84-1.85-.32-1.86-.23-1.88.06-1.87-.07-1.7-.95-1.82.75-1.74-.3-1.76-.12-1.75-.28-1.76-.18-1.77.42-1.75-.64-1.76-.02-1.76.6-1.76.04h-1.76s-1.75-.72-1.75-.72l-1.9.66-1.86-.78-1.9.69-1.88-.28-1.88-.02-1.88-.55-1.89-.19-1.89.02-1.74-.19-1.76-.21-1.82.23-1.78-.17-1.69-.64-1.9.38-1.67-.73-1.65-.73-1.67-.61-1.63-.71-1.68-.55-1.56-.69-1.82-.16.06,1.94,1.27.87,1.85.26,1.57,1.01,1.87.09,1.68.73,1.85.06,1.72.63,1.73.64,1.86-.08,1.72.82,1.79.42,1.88-.4,1.77.64,1.87-.6,1.79.5,1.83-.36,1.8.71,1.82.3,1.84-.77,1.82.08,1.82-.25,1.82.21,1.81.8,1.83-.61,1.83-.2,1.82.7,1.83-.13,1.84-.44,1.82.8,1.82-.48,1.8.28,1.79.42,1.81-.14,1.8.14,1.83-.48,1.78.57,1.81.1,1.79.34,1.85-.65,1.8.31,1.79.54,1.79-.68,1.75.82,1.77.19,1.78-.25,1.77.17,1.74-.72,1.67.04ZM36.48,81.88l1.81.84,1.84-.32,1.83.13,1.83.18,1.83.34,1.86-.79,1.82.36,1.82.68,1.83-.03,1.86-.89,1.83.27,1.83.19,1.84-.11,1.84.02,1.81.84,1.89-.77,1.84.31,1.85.15,1.84.34,1.84.25,1.87-.33,1.81.73,1.85.12,1.89-.5,1.86.06,1.85.08,1.81.79,1.9-.6,1.82.84,1.78-.67,1.74.3,1.74.04,1.73.57,1.74.21h1.75s1.75.1,1.75.1l1.75.09,1.77-.4,1.76-.03,1.83.39.03-2.23,1.01-1.65,1.11-1.55,1.1-1.51,1.26-1.36,1.22-1.38,1.43-1.17,1.23-1.45,1.43-.8-1.83-.47-1.91.43-1.92-.44-1.91.48-1.92-.24-1.92.4-1.89-.23-1.36.98-1.14,1.41-1.78.48-1.61.5-.66-1.24-1.93-.8-.8-.9-1.46-.52-1.77.24-.09-1.97-1.11-1.34-1.7.46-1.82-.11-1.83.22-1.81-.25-1.8-.84-1.84.58-1.82.16-1.8-.74-1.82.09-1.84.4-1.8-.83-1.84.51-1.82-.25-1.82-.39-1.84.17-1.79-.1-1.8.52-1.78-.53-1.79-.05-1.79-.3-1.81.69-1.79-.27-1.78-.5-1.81.69-1.77-.81-1.78-.19-1.8.26-1.79-.16-1.81.73-1.78-.56-1.79-.28-1.8.12-1.79-.37-1.81.5-1.82-.18-1.84.05-1.82-.26-1.78-.65-1.88.38-1.78-.5-1.84-.09-1.88.07-1.84-.19-1.72-.76-1.87-.16-1.6-1.09-1.84-.3-1.42-1.35-2.06-.59-.99,1.42-.57,1.84,2.44.81.55-1.38,1.29.55,1.75.32,1.54.95,1.83-.02,1.66.56,1.61.82,1.87-.39,1.59,1.03,1.74.27,1.73.38,1.84-.73,1.68.88,1.75.28,1.92-.83,1.85.51,1.88.09,1.86.38,1.92-.63,1.84.9,1.92-.3-1.8-.04-1.61,1.15-1.8-.63-1.73-.15-1.73,1.1-1.72-1.11-1.77.8-1.73-.29-1.7-.52-1.76.14-1.7-.46-1.82-.45-1.89.04-1.8-.54-1.92-.02-1.75-.73-2,.13-1.52-1.4-2.03.11-1.77-1.2,1.14,2.39.43,1.6-.13,1.67.06,1.65.8,1.43,1.27.82,1.87-.13,1.9-.11,1.84.71,1.18.75-1.34.79-1.63.15-1.63.07-2,.06,2.13-.24,1.6,1.11,1.84-.73,1.64.82,1.71.3,1.69.42,1.76-.62,1.36,1.33,1.62.22,1.48.69,1.82-.31,1.7.91,1.94-.17,1.82.93,1.93-.42,1.91-.13ZM98.92,72.15l.9,1.15,1.39.45,1.4-.75,1.32-.96,1.41-.77,1.22-1.55,1.84-.29,1.95-.04,1.61-1.24-.07-1.55-.64,1.07-1.52.85-1.57.69-1.62.43-1.85-.24-1.16,1.5-2.08.2-1.88-.57-1.74-.88-1.88-.56-1.74.33.81,1.8,1.93.4,1.97.51ZM3.83,68.89l-.07-1.59-1.62-.24.14,1.63.14,1.68.13,1.72,1.38,1.26.36,1.62.6-2.02-.11-2.09-.95-1.97Z"/>
      <polygon points="43.31 69.51 45.14 69.61 46.91 69.72 48.67 69.92 50.45 69.81 52.21 70.03 53.98 70.06 55.75 70.17 57.52 70.25 59.29 70.36 61.06 70.32 62.82 70.58 64.6 70.53 66.36 70.71 68.14 70.76 69.91 70.88 71.68 70.92 73.46 70.91 75.22 71.09 77 71.05 78.76 71.26 80.53 71.38 82.31 71.38 84.09 71.38 85.86 71.53 87.63 71.73 89.5 71.64 89.38 73.32 87.58 73.12 85.82 72.99 84.04 73.11 82.28 72.85 80.51 72.9 78.74 72.8 76.98 72.57 75.21 72.57 73.44 72.43 71.66 72.46 69.9 72.34 68.12 72.35 66.35 72.26 64.58 72.09 62.82 71.93 61.03 72.07 59.26 71.93 57.49 71.88 55.73 71.61 53.96 71.57 52.19 71.46 50.41 71.37 48.64 71.33 46.86 71.22 45.08 71.33 43.35 71.09 43.31 69.51"/>
      <polygon points="27.94 78.72 26 78.46 24.06 78.21 22.13 77.95 20.76 77.68 19.83 76.68 21.89 77.13 23.95 77.57 25.49 77.15 27.02 77.41 27.94 78.72"/>
      <polygon points="96.2 59.95 94.79 61.21 93.02 61.84 91.11 61.71 89.36 62.49 87.63 63.28 86.75 62.78 87.68 62.04 89.43 61.32 91.21 60.66 92.85 60.6 94.37 59.99 95.6 58.88 97.37 58.64 99.16 58.46 100.94 58.59 102.97 59.29 105.01 59.99 103.27 60.3 101.52 59.97 99.75 59.75 97.97 59.74 96.2 59.95"/>
      <polygon points="61.61 55.18 59.71 56 57.8 56.8 55.87 57.22 55.09 55.44 56.46 54.41 58 53.66 59.7 53.75 58.45 54.58 57.23 55.46 55.97 56.29 57.85 55.72 59.68 55.09 61.61 55.18"/>
      <polygon points="120.48 55.43 119.41 56.46 117.96 56.78 116.51 56.38 118.39 55.48 120.48 55.43"/>
      <polygon points="89.58 54.47 88.27 55.27 86.81 55.7 85.3 55.75 86.42 54.61 87.98 54.19 89.58 54.47"/>
      <polygon points="84.48 55.86 82.78 56.96 80.81 57.42 82.27 55.83 84.48 55.86"/>
      <polygon points="79.87 57.64 78.3 59.1 76.27 59.8 77.11 58.53 78.37 57.69 79.87 57.64"/>
      <polygon points="128.37 51.84 128.92 52.89 127.38 53.69 125.84 54.47 125.29 53.41 126.84 52.63 128.37 51.84"/>
      <polygon points="91.55 55.75 91.8 56.82 90.06 57.21 88.33 57.59 88.1 56.53 89.82 56.13 91.55 55.75"/>
      <polygon points="108.7 56.24 106.8 57.04 105.16 55.71 106.94 55.97 108.7 56.24"/>
      <polygon points="101.27 53.4 102.85 53.48 104.42 53.54 104.37 54.59 102.8 54.52 101.23 54.45 101.27 53.4"/>
      <polygon points="124.32 53.62 123.35 55.3 121.31 55.3 122.82 54.47 124.32 53.62"/>
      <polygon points="111.95 55.02 113.58 55.28 115.21 55.55 115.05 56.57 113.42 56.3 111.78 56.05 111.95 55.02"/>
      <polygon points="86.15 56.88 86.62 57.94 85.05 58.62 83.5 59.3 83.04 58.25 84.59 57.57 86.15 56.88"/>
      <polygon points="93.9 53.26 94.1 54.31 92.56 54.59 91.03 54.89 90.82 53.84 92.36 53.55 93.9 53.26"/>
      <polygon points="75.02 60.08 75.56 61.12 74.24 61.83 72.92 62.55 72.37 61.51 73.69 60.81 75.02 60.08"/>
      <polygon points="99.45 53.39 98.25 54.31 96.74 54.36 95.45 53.52 97.45 53.45 99.45 53.39"/>
      <polygon points="102.71 55.51 100.89 56.44 99.14 55.33 100.93 55.42 102.71 55.51"/>
      <rect x="116.05" y="56.93" width="1.07" height="2.53" transform="translate(56.74 173.93) rotate(-89.18)"/>
      <polygon points="81.79 59.43 80.37 60.55 78.71 61.27 79.8 59.61 81.79 59.43"/>
      <polygon points="122.43 57.71 120.88 58.08 119.32 58.45 120.6 56.96 122.43 57.71"/>
      <polygon points="97.64 56.01 95.78 56.02 93.91 56.07 95.74 55.03 97.64 56.01"/>
      <polygon points="111.23 56.5 112.63 56.85 114.03 57.19 113.77 58.23 112.38 57.9 110.98 57.56 111.23 56.5"/>
      <polygon points="127.19 54.47 127.67 55.36 125.63 56.46 125.16 55.58 127.19 54.47"/>
      <rect x="122.69" y="56.08" width="1.92" height="1.15" transform="translate(-10.86 76.79) rotate(-33.13)"/>
      <polygon points="25.14 48.24 25.96 49.39 26.78 50.52 26.02 51.07 25.2 49.94 24.37 48.8 25.14 48.24"/>
      <polygon points="15.39 39 17.48 40.64 16.79 41.53 14.7 39.89 15.39 39"/>
      <polygon points="21.91 44.73 22.95 45.77 24.01 46.81 23.32 47.49 22.28 46.45 21.23 45.41 21.91 44.73"/>
      <rect x="12.33" y="36.67" width="1.01" height="2.57" transform="translate(-26.85 32.39) rotate(-63.34)"/>
      <polygon points="31.61 58.6 32.66 60.98 31.69 61.42 30.63 59.04 31.61 58.6"/>
      <polygon points="30.62 57.48 29.52 56.72 29.31 55.37 30.37 56.14 30.62 57.48"/>
      <polygon points="27.98 51.81 29.01 53.83 28.12 54.29 27.09 52.26 27.98 51.81"/>
      <polygon points="18.92 41.8 20.79 43.61 20.13 44.28 18.25 42.48 18.92 41.8"/>
      <polygon points="40.84 46.23 40.88 47.2 39.32 47.28 37.75 47.35 37.71 46.36 39.27 46.3 40.84 46.23"/>
      <polygon points="33.38 47.29 31.61 47.37 29.84 47.45 31.56 46.38 33.38 47.29"/>
      <polygon points="60.56 39.34 61.02 40.21 59.77 40.87 58.51 41.54 58.06 40.66 59.31 40 60.56 39.34"/>
      <polygon points="44.96 46.45 42.64 47.11 42.6 46.11 44.2 45.76 44.96 46.45"/>
      <polygon points="37.15 47.43 34.64 47.26 35.96 46.44 37.15 47.43"/>
      <polygon points="57.17 42.3 55.57 42.95 55.35 42.23 56.5 41.56 57.17 42.3"/>
      <polygon points="52.37 43.47 52.19 44.59 50.72 44.56 52.37 43.47"/>
      <polygon points="152.87 55.81 151.12 55.88 149.74 54.77 148.88 53.2 148.91 51.43 149.73 49.54 150.72 47.72 151.97 46.07 151.59 47.82 150.74 49.42 150.03 51.07 150.05 52.87 151.27 54.52 152.87 55.81"/>
      <polygon points="143.7 45.7 142.88 47.25 142.03 48.79 141.17 50.32 140.97 48.66 141.6 47.09 142.66 45.77 143.31 45.15 143.7 45.7"/>
      <polygon points="133.14 56.59 133.11 54.73 133.08 52.87 134.12 54.69 133.14 56.59"/>
      <polygon points="131.95 44.65 131.54 42.87 131.16 41.08 132.47 42.67 131.95 44.65"/>
      <polygon points="133.48 48.12 132.17 46.8 132.74 45.43 133.1 46.78 133.48 48.12"/>
      <polygon points="133.45 52.02 132.67 50.37 133.37 48.77 133.41 50.39 133.45 52.02"/>
      <polygon points="76.86 19.89 75.2 21.55 73.54 19.89 75.2 18.23 76.86 19.89"/>
    </g>
  </g>
</svg>