<?xml version="1.0" encoding="UTF-8"?>
<svg id="Layer_2" data-name="Layer 2" xmlns="http://www.w3.org/2000/svg" viewBox="0 0 178.44 178.77">
  <g id="Layer_1-2" data-name="Layer 1">
    <g>
      <path d="M79.67,178.77l-1.55-.93-1.22-1.38-1.34-1.21-2.02-.22-.96-1.74-1.84-.48-1.43-1.07-1.34-1.21-1.59-.84-1.71-.67-1.18-1.43-1.62-.79-1.45-1.04-1.43-1.08-1.13-1.51-1.67-.74-1.51-.97-1.23-1.37-1.76-.6-1.38-1.15-1.46-1.03-1.44-1.06-1.38-1.15-1.8-.55-1.42-1.1-1.64-.77-1.31-1.25-1.15-1.49-1.8-.54-1.14-1.49-1.95-.34-1.48-1-1.04-1.66-1.67-.74-1.2-1.42-1.56-.91-1.7-.71-1.52-1.01.3-1.78-.64-1.72-.05-1.74.2-1.75.39-1.76-.41-1.73-.32-1.73-.16-1.73.06-1.75-.03-1.74.31-1.75-.63-1.73.08-1.75.33-1.76-.42-1.74.53-1.76-.48-1.84.35-1.84-.68-1.84.16-1.84-.1-1.84.06-1.85.15-1.85-.39-1.85.08-1.85.62-1.94-1.39-1.33-.77-1.6-1.31-1.28v-2.04s-1.16-1.37-1.16-1.37l-.91-1.51-1.11-1.39-.74-1.61-1.01-1.45-1-1.46-.97-1.48-.81-1.58-1.03-1.44-.62-1.69-.63-1.68-1.25-1.31-.95-1.49-1.11-1.4-.77-1.6-1.15-1.38-.24-1.91-1.11-1.4-.55-1.73-1.52-1.16-.46-1.77-.38-1.75.52-1.73.99-1.57.38-1.88.79-1.67,1.44-1.33.44-1.86.87-1.63.45-1.86,1-1.57.82-1.67,1.01-1.57,1.04-1.29,1.05-1.28,1.42-.86,1.53-.64,1.86-.03,1.61-.86,1.72-.5,1.61-.86,1.91.14,1.77-.33,1.42-1.51,1.74-.42,1.84-.1,1.79-.26,1.61-.87,1.65-.73,1.95.24,1.46-1.36,1.69-.61h1.87s1.63-.82,1.63-.82l1.67-.67,1.89.05,1.53-1.15,1.74-.45,2,.42,1.48-1.31,1.77-.35,1.82-.17,1.72-.52,1.74-.46,1.74-.43,1.67-.67,1.81-.22,1.52-1.18,1.71-.53,1.88.03,1.54-1.1,1.72-.48,1.91.13,1.69-.61,1.7-.57,1.55-1.07,1.79-.25,1.74-.45,1.81-.22,1.45-1.39,1.91.14,1.76-.39,1.62-.86,1.77-.34,1.63-.82,1.69-.61,1.94.21,1.64-.79,1.66-.69,1.84-.13,1.48-1.31,1.91.11,1.72-.53,1.55-1.07,1.71-.55,1.76-.41,1.67-.72,1.78-.12,1.12,1.4.83,1.09.97,1.59.47,1.8.57,1.75,1.31,1.45.37,1.84.97,1.59.8,1.66.99,1.57.68,1.71.63,1.73.5,1.78.85,1.64.6,1.74.52,1.78,1.01,1.58.86,1.64.14,1.88.62,1.7.51,1.77-.69,1.83-.04,1.76v1.79s-.26,1.77-.26,1.77l-.84,1.61-.23,1.81-.21,1.74-.71,1.55-1.16,1.37-.38,1.68-.82,1.51-.94,1.46-.16,1.77,1.45,1.09,1.88.41,1.07,1.7,1.57.92,1.83.51,1.33,1.29,1.84.49,1.4,1.17,1.46,1.08,1.32,1.31,1.5,1.03,1.51,1.01,2,.22,1.06,1.73,1.99.25,1.38,1.22,1.37,1.23,1.79.57,1.47,1.07,1.41,1.17,1.49,1.05,1.63.83,1.83.52,1.15,1.58,1.88.42,1.56.94,1.26,1.41,1.84.49,1.27,1.41,1.72.68,1.63.84,1.48,1.08,1.37,1.22-.45,1.79.37,1.81-.24,1.81.07,1.81.34,1.81-.25,1.81-.12,1.81.62,1.82-.62,1.8-.1,1.81.38,1.82v1.81s-.66,1.81-.66,1.81l.72,1.82-.5,1.81.19,1.82.14,1.81v1.81s-.58,1.8-.58,1.8l.45,1.82.23,1.82-.64,1.81.52,1.82-.75,1.81.49,1.91-1.88.4-1.44,1.16-1.47,1.09-1.75.49-1.88.2-1.42,1.21-1.79.41-1.32,1.42-2.03-.12-1.3,1.46-1.88.2-1.69.62-1.55.94-1.62.77-1.55.93-1.55.93-1.87.23-1.68.64-1.5,1.03-1.47,1.1-1.72.57-1.61.8-1.52.99-1.65.7-1.51,1.01-1.87.23-1.59.84-1.78.43-1.58.86-1.76.47-1.64.75-1.49,1.05-1.75.48-1.28,1.51-1.66.69-1.83.32-1.51,1.02-1.71.58-1.47,1.09-1.54.95-1.63.76-2.03-.1-1.42,1.22-1.59.84-1.66.7-1.74.54-1.4,1.26-1.62.78-2.04-.12-1.47,1.1-1.53.97-1.51,1.02-1.73.55-1.64.74-1.64.74-1.7.61-1.56.92-1.56.92h-1.99s-1.46,1.2-1.46,1.2ZM106.95,18.4l.85-1.62,1.33-1.35,1.16-1.45.13-2.08,1.72-1.11.4-1.91,1.02-1.54,1.16-1.46.79-1.56-1.48.96-1.87.03-1.65.78-1.74.49-1.75.44-1.9-.06-1.63.84-1.71.57-1.85.11-1.58,1-1.77.36-1.74.5-1.74.47-1.77.36-1.57,1.06-1.76.42-1.64.8-1.81.24-1.89-.03-1.56,1.07-1.89-.04-1.49,1.31-1.72.53-1.95-.22-1.63.85-1.87.05-1.69.65-1.62.89-1.72.55-1.84.17-1.56,1.08-1.73.51-1.8.27-1.85.09-1.63.85-1.65.77-1.7.61-1.76.41-1.74.49-1.83.16-1.57,1.07-1.77.38-1.84.14-1.63.87-1.9-.04-1.6.96-1.84.17-1.54,1.15-1.78.35-1.71.6-1.75.45-1.78.36-1.62.88-1.76.43-1.92-.1-1.58,1.03-1.78.37-1.6.97-2.18-.39.8,2.11.73,1.6.95,1.5.57,1.67.88,1.53.88,1.52.69,1.43,1.7-.43,1.68-.69,1.82-.23,1.82-.24,1.61-.93,1.71-.59,1.65-.77,1.77-.4,1.64-.81,1.96.19,1.66-.78,1.85-.15,1.51-1.23,1.88-.06,1.65-.8,1.79-.33,1.77-.4,1.57-1.05,1.71-.61,1.92.09,1.59-.99,1.73-.53,1.59-.98,1.77-.38,1.71-.58,1.77-.38,1.78-.37,1.69-.68,1.74-.5,1.72-.57,1.88-.06,1.62-.88,1.74-.52,1.62-.88,1.93.11,1.79-.35,1.42-1.53,1.76-.44,1.86-.13,1.81-.28,1.62-.89,1.67-.75,1.96.22,1.47-1.38,1.7-.64,1.89-.03,1.64-.84,1.68-.69,1.91.02,1.54-1.17,1.88-.08ZM128.62,45l.54-1.76.94-1.65.61-1.79-.76-1.94.9-1.83-.82-1.78-.29-1.79-.45-1.71-.87-1.55-1.06-1.47-.21-1.82-.92-1.53-.65-1.64-.6-1.66-.11-1.86-.98-1.5-.73-1.61-.28-1.79-1.14-1.44-.53-1.69-.65-1.64-.62-1.65-.53-1.7-1-1.28-.82,1.35-.69,1.67-1.19,1.37-1.44,1.21-.46,1.83-1.44,1.22-.25,1.96-.94,1.53-1.61,1.12-.66,1.71.32,1.82.89,1.55,1.11,1.44.8,1.59.43,1.76,1.29,1.36.76,1.61.53,1.72.37,1.8,1.08,1.46,1.01,1.5.86,1.56.66,1.66.74,1.62.43,1.77,1.29,1.36.64,1.67.41,1.78,1.1,1.46.24,1.87,1.12,1.38,1.01-1.57.11-2,.88-1.68.65-1.78.95-1.66ZM30.31,76.4l-.38,1.86-.91,1.72-.71,1.77.45,2.08-1.35,1.6.14,2-.56,1.82-.69,1.87,1.73-.78,1.56-1,1.87-.13,1.6-.86,1.7-.58,1.72-.53,1.9-.04,1.58-.93,1.68-.67,1.84-.21,1.53-1.08,1.75-.46,1.7-.59,1.71-.56,1.75-.46,1.51-1.14,1.73-.51,1.6-.89,1.79-.34,1.89-.07,1.5-1.15,1.89-.06,1.42-1.39,1.69-.63,1.96.12,1.58-.93,1.86-.15,1.65-.74,1.57-.97,1.68-.64,1.82-.26,1.5-1.16,1.7-.6,1.79-.37,1.85-.19,1.58-.94,1.61-.86,1.66-.7,1.74-.5,1.71-.58,1.82-.26,1.5-1.15,1.75-.48,1.83-.24,1.58-.95,1.9-.06,1.55-1.04,1.82-.27,1.47-1.23,1.76-.45,1.67-.69,1.73-.54,1.76-.46,1.58-.96,1.74-.52h1.93s1.41-1,1.41-1l-.63-1.56-1.2-1.46.16-2.1-1.04-1.54-.79-1.65-1-1.56-.61-1.74-.9-1.6-.88-1.61-.85-1.63-.68-1.71-.92-1.59-.48-1.8-.49-1.8-1.14-1.49-.83-1.64-1-1.56-.64-1.73-1.04-1.55-.09-1.99-1.04-1.6-1.88.13-1.5,1.21-1.86.04-1.63.78-1.77.31-1.75.38-1.55,1.04-1.69.59-1.9-.1-1.57.97-1.71.51-1.57.97-1.76.37-1.7.57-1.76.37-1.76.35-1.67.66-1.72.48-1.7.55-1.86.04-1.61.86-1.72.51-1.6.87-1.91-.13-1.76.33-1.4,1.51-1.74.42-1.84.11-1.79.26-1.6.88-1.64.73-1.94-.24-1.45,1.37-1.68.62-1.87.02-1.62.82-1.67.68-1.88-.04-1.52,1.16-1.73.45-2-.41-1.47,1.31-1.76.35-1.82.18-1.71.53-1.73.46-1.74.44-1.67.68-1.81.23-1.52,1.19-1.6.44.29,1.71,1.35,1.34.78,1.63.2,1.91.89,1.57.85,1.59,1.33,1.35.56,1.74.75,1.65.52,1.76,1.55,1.27-.02,1.92.39,1.73.74,1.65.08,1.79.42,1.77-.21,1.79ZM23.67,89.27l.33-1.68.89-1.55.69-1.61-.46-1.94,1.33-1.44-.15-1.85.48-1.71.48-1.74-.15-1.8-.55-1.72.16-1.82-.79-1.61-.68-1.63-.72-1.66-.25-1.89-1.1-1.47-.85-1.6-.41-1.81-1.24-1.4-.65-1.69-.78-1.63-.74-1.64-.64-1.69-1.3-1.38-.7-1.67-1.06-1.49-.54-1.75-.28-1.88-1.31-1.37-.27-1.88-1.18-1.04-.46,1.42-1.52,1.28-.53,1.79-1.27,1.41-.71,1.69-.49,1.81-.8,1.65-1.16,1.47-.31,1.9-.81,1.51.6,1.5.48,1.73,1.17,1.34,1.1,1.38.95,1.46.77,1.57.84,1.53.55,1.7,1.37,1.23.75,1.58.6,1.74,1.24,1.35.43,1.84,1.32,1.3.62,1.73,1.5,1.2.78,1.63,1.01,1.5.87,1.58.79,1.62,1.25,1.35.85,1.6.66,1.68ZM116.84,112.34l.89,1.11.44,1.43,1.02,1.63,2.03.47,1.2,1.65,1.97-.12,1.79.18h1.85s1.6-.7,1.6-.7l1.35-1.1,1.69-.53,1.1-1.34,1.14-1.27,1.02-1.38,1.33-1.29.28-1.78.33-1.72.59-1.72-.06-1.58,1.05-1.15,1.62-.68,1.64-.65,1.68-.55,1.39-1.22,1.66-.61,1.39-.9-1.25-.42-1.36-1.22-1.72.12-1.59.57-.71,1.67-1.24,1.05-1.74.44-1.5.98-1.83-.45-1.79-.24-1.85-.4-1.48-1.18-.44-1.77-.74-1.69v-1.78s.43-1.74.43-1.74l.74-1.63.1-1.77.32-1.75.6-1.67.9-1.53.93-1.5,1.3-1.23.64-1.74,1.3-1.21,1.54-.92,1.65-1.19,1.93.71,2.01.32,1.54,1.34,1.83.84.7,1.86.45,1.89.04,1.92-.07,1.9.89,1.33,1.39.95,1.11,1.43,1.72.42,1.36,1,1.69.47.91,1.76,1.7.66,1.68-.7,1.49-.9,1.66-.5,1.53-.79,1.54-.78,1.55-.75,1.63-.57,1.53-.82,1.77-.45-1.37-1.29-1.72-.6-1.53-.9-1.63-.73-1.42-1.07-1.65-.7-1.1-1.59-1.64-.73-1.29-1.29-1.89-.33-1.23-1.37-1.65-.71-1.39-1.13-1.43-1.07-1.79-.49-1.54-.88-1.16-1.5-1.75-.55-1.5-.96-1.75-.55-1.42-1.08-1.53-.9-1.42-1.08-1.41-1.1-1.58-.82-1.48-.98-1.53-.92-1.24-1.37-1.7-.65-1.5-.96-1.34-.62-.49,1.33-.22,1.68,1.01,1.7-.15,1.55,1.33.55,1.48.99,1.65.74,1.41,1.18.28,1.92,1.45,1.36.36,1.86-.65,1.78-.19,1.82-.79,1.69-1.68.87-1.17,1.52-1.46.39-1.2,1.53.55,1.91-.44,1.77-.62,1.74-.89,1.29-1.6.61-1.74.19-1.75.12-1.76-.94-2.06-.63-.92-1.98.66-1.81-.52-1.87.12-1.85.76-1.9-1.31-1.5-1.08-1.32-1.37-1.2-.25-1.76v-1.72s.53-1.65.53-1.65l-.47-2,1.9-.95,1.57-.96,1.5-1.15,1.83-.41,1.8-.63,1.62.04.69-1.56-.35-1.63-.24-1.64.14-1.99-1.75,1.35-1.9-.02-1.68.62-1.49,1.14-1.67.63-1.72.5-1.61.8-1.68.61-1.97-.21-1.68.6-1.59.87-1.77.36-1.73.47-1.46,1.22-1.8.26-1.59.87-1.65.7-1.58.9-1.69.57-1.71.53-1.76.39-1.63.75-1.72.5-1.75.41-1.57.91-1.63.76-1.85.13-1.62.78-1.6.84-1.94-.13-1.67.63-1.6.82-1.65.68-1.81.26-1.55.97-1.53,1.02-1.71.51-1.88.05-1.6.85-1.76.4-1.8.28-1.52,1.07-1.74.46-1.46,1.22-1.98-.22-1.67.65-1.5,1.12-1.81.24-1.49,1.13-1.77.37-1.73.47-1.82.22-1.71.53-1.7.55-1.4,1.43-2-.24-1.19,1.12,1.23.93,1.38,1.25,1.81.59,1.48,1.09,1.42,1.19,1.5,1.07,1.64.85,1.84.54,1.16,1.6,1.9.45,1.57.97,1.27,1.43,1.86.51,1.28,1.43,1.74.7,1.64.86,1.49,1.1,1.39,1.25,1.33,1.35,1.77.67,1.51,1.21-.57-2.06-1.22-1.5-.77-1.74-.94-1.65-1.58-1.22-.61-1.94-1.8-.09h-1.81s-1.67-.7-1.67-.7l-1.03-1.55-1.69-.89-.2-1.85-.24-1.75.32-1.86.8-1.72,1.51-1.2.92-1.66,1.31-1.39,1.91-.45,1.49-1.24,1.97.23,1.78-.68,1.77.66,1.82.29,1.66,1.04.7,1.81-.11,1.9.58,1.77-.67,1.71v1.59s.1,1.9.1,1.9l1.62,1.08.45,1.83.84,1.58,1.14,1.39.98,1.49,1.12,1.4,1.13,1.4.49,1.82.34,1.37.41,1.48.04,1.63-1.3,1.1-1.37.93-1.26.58,1.46.98,1.71.76,1.25,1.48,1.61.91,1.37,1.3,1.63.9,1.61,1.34,1.79-.73,1.4-.99,1.66-.43,1.1-1.4-1.62.12-1.58-1.05-1.77-.51-1.42-1.17-1.61-.98-1.33-1.37-.9-1.68.35-1.95-.7-1.64.08-1.77.62-1.67,1.12-1.35.96-1.72,1.68-1,2.04.39,1.75-.55,1.77-.12.91-1.47,1.32-1.15,1.17-1.3,1.17-1.29,1.27-1.2,1.02-1.43,1.02-1.42,1.78-.76,1.15-1.32.61-1.8,1.8-1.07,1.93-.6,2.05.27,1.38,1.55,1.75.9.04,1.96-.45,1.59-.56,1.58-1.23,1.31-.83,1.64-1.27,1.29-.72,1.74-1.48,1.11-1.13,1.4-.92,1.58-1.07,1.46-1.78.88-.8,1.65v1.72s.43,1.66.43,1.66l-.22,1.7-.32,1.78-1.26,1.28-1.28,1.07,1.78-.16,1.46-1.05,1.52-.9,1.57-.76,1.85-.06,1.59-.72,1.54-.85,1.56-.81,1.62-.65,1.85-.08,1.72-.42,1.58-.74,1.44-1.12,1.8-.22,1.39-1.09-1.59-.5-1.65-.81-1.66-.84-1.21-1.43-1.13-1.43-.82-1.8.13-1.99.06-1.95.86-1.71.11-1.99,1.63-.97,1.13-1.55,1.98.02,1.58-.93,1.77-.37,1.81.22,1.82-.34,1.66,1.09,1.94.2,1.69,1.04,1.84.92.77,1.91,1.45,1.41-.14,1.94.39,1.9-.45,1.87-1.22,1.52-.79,1.7-1.39,1.26-1.58,1-1.79-.17-1.64.7-1.73-.48-1.7.47ZM127.98,76.18l1.32-1.01,1.64-.55,1.64-.83-1.42-1.79-.35-1.96-1.84-.59-1.58-.74-1.7-.59-1.7.06-1.65.42-1.7-.27-1.47.79-1.37.84-1.14.96.5,1.72,1.29,1.22,1.07,1.38,1.65.62,1.75-.3,1.68.36,1.7.22,1.7.05ZM118.24,77.9l-.61-1.52-.27-1.72-1.27-1.79-.02,2.4.08,2.11,2.08.51ZM128.35,80.13l1.55-.48,1.63-.67,1.13-1.52-.79-1.35-1.91.25-.97,1.94-.64,1.83ZM126.47,81.28l.11-1.63.61-1.8-1.91-.56-1.88.74-1.64-1.1-1.69.38-.03,1.36-.26,1.58,1.74.1,1.73-.13,1.58.78,1.64.28ZM155.93,95.76l-1.5-.8-1.22-1.28-1.32-1.11-1.97-.09-.98-1.67-1.8-.36-.86-1.67.09-1.8-.26-1.77-.59-1.69v-1.79s-1.17-1.27-1.17-1.27l-1.42-.93-1.66-.59-1.98-.22-1.11,1.56-1.19,1.44-1.47,1.25-.57,1.86-1,1.58-.74,1.72-.63,1.77-.59,1.8.28,1.93-.23,1.84.3,1.74.88,1.1,1.28,1.24,1.77-.17,1.87.42.66-2.03,1.07-1.51,1.64-1.19.59-1.83,1.26-1.49.63-1.78.38-1.88.77-1.78-.29,1.88.24,1.92-.61,1.78-.98,1.6-1.13,1.94,2.07-.43,1.79-.07,1.75.44,1.6.8,1.61.67,1.69.66,1.52-.97,1.52-.75ZM126.48,83.92l-1.74-.09-1.69-.65-1.72-.44-1.71.74,1.2,1.13h2.05s1.84-.06,1.84-.06l1.76-.63ZM126.59,86.43l-1.98-.18-1.91-.73-1.94-.53-2,.66.95,1.12,1.88.18,1.67.27,1.75-.04,1.56-.75ZM125.89,88.94l-1.73-.09-1.68-.64-1.71-.44-1.68.74,1.08,1.28h2.1s1.89-.09,1.89-.09l1.74-.75ZM52.22,97.01l-1.32-.64-1.12-1.15-1.59,1.62.76,1.92.58,1.83,1.79-.5,1.68-.1,1.71-.23,1.48-.89,1.21-1.24,1.62-.67.96-1.42.96-1.36.66-1.5.26-1.85-1.85-.7-1.81-.03-1.89-.07-1.53,1.13-1.64.78-1.4,1.16-1.23,1.52h2.21s1.37-1.54,1.37-1.54l1.26-1.4,2.25-.16-.53,1.72,1.82.84.22,1.18-1.81-.42-1.19,1.38-1.16.96-1.52.94-1.2.63v-1.76ZM80.78,129.55l.14,1.79-.42,1.81-.22,1.81.99,1.8-.87,1.82.67,1.8-.06,1.81-.22,1.81.23,1.81.43,1.81-.49,1.82.29,1.81v1.81s-.07,1.81-.07,1.81l-.59,1.82.35,1.81.08,1.81-.41,1.82.52,1.81-.14,1.82v1.82s-.04,1.81-.04,1.81l-.15,1.82.58,1.82-.15,1.71,1.39-1.04,1.76-.5,1.88-.24,1.4-1.28,1.88-.23,1.29-1.51,1.63-.78,1.97-.06,1.5-1.07,1.85-.32,1.58-.89,1.48-1.11,1.63-.79,1.79-.43,1.39-1.29,1.64-.75,1.75-.53,1.83-.36,1.5-1.08,1.53-1,1.6-.85,1.69-.65,1.65-.74,1.8-.42,1.4-1.28,1.7-.63,1.8-.41,1.49-1.09,1.89-.23,1.45-1.18,1.79-.43,1.36-1.36,1.71-.6,1.61-.84,1.67-.7,1.71-.61,1.48-1.1,1.68-.67,1.92-.17,1.42-1.24,1.71-.62,1.44-1.19,2.08.17,1.52-1.02,1.64-.77,1.54-.99,1.72-.59,1.59-.88,1.59-.87,1.61-.84,1.69-.66,1.58-.9,1.78-.47,1.78-.47,1.48-1.13,1.63-.82,1.42-.88.12-1.64-.26-1.81.79-1.8-.22-1.81.43-1.81-.69-1.82.53-1.8-.25-1.82.24-1.81.17-1.81-.51-1.82-.05-1.81.68-1.8-.44-1.81.04-1.81-.44-1.82.19-1.81-.02-1.82.19-1.81.2-1.81-.12-1.82.13-1.69-1.47.71-1.82.2-1.5.99-1.64.65-1.49,1-1.89.03-1.71.48-1.24,1.62-1.67.57-1.79.26-1.74.41-1.49,1.01-1.55.87-1.93-.07-1.3,1.48-1.59.76-1.84.17-1.52.95-1.58.81-1.86.12-1.27,1.21.05,1.43-1.21,1.64.36,1.94-.8,1.65-1.13,1.44-.97,1.49-1.18,1.32-1.34,1.15-1.32,1.19-1.68.61-1.37,1.34-1.74.53-1.86-.25-1.76.71-1.77-.27-1.52-1.09-1.6-.56-1.47-.85-1.7-.72-.92-1.55-.94-1.58-1.79.37-1.31,1.51-1.91.02-1.7.54-1.52.99-1.72.49-1.54.96-1.62.75-1.94-.05-1.55.93-1.59.83-1.8.29-1.34,1.43-1.9.05-1.65.67-1.44,1.2-1.65.69-1.7.56-1.58.85-1.66.67-1.82.22ZM103.3,96.72l-.72-1.87-1.47-1.56-2.59.63,2.15.41.92,1.76,1.7.64ZM101.74,99.06l-.44-1.59-.87-1.58-1.72-.87-1.41.49.99,1.74,1.96.56,1.49,1.24ZM78.49,174.44l-.16-1.77.41-1.81.2-1.81-1-1.78.86-1.81-.68-1.79.04-1.8.21-1.81-.24-1.8-.45-1.8.48-1.81-.3-1.8v-1.8s.05-1.8.05-1.8l.58-1.81-.37-1.8-.09-1.8.4-1.81-.53-1.79.13-1.81v-1.81s.02-1.81.02-1.81l.13-1.81-.59-1.8.09-1.75-1.65-.69-1.37-1.22-1.22-1.47-1.85-.5-1.22-1.47-1.98-.29-1.54-.97-1.11-1.63-1.72-.69-1.27-1.4-1.61-.87-1.74-.66-1.55-.96-1.33-1.29-1.85-.49-1.53-.99-1.4-1.2-1.29-1.36-1.72-.69-1.68-.76-1.59-.9-1.47-1.09-1.52-1.01-1.34-1.3-1.84-.5-1.46-1.1-1.33-1.31-1.73-.68-1.22-1.48-1.79-.6-1.34-1.29-1.9-.43-1.45-1.14-1.31-.91.11,1.53-.12,1.78.41,1.77-.06,1.78-.61,1.79.57,1.77-.11,1.78.51,1.77-.99,1.8.33,1.78.05,1.78.29,1.78-.15,1.79.17,1.78.16,1.78.12,1.78-.07,1.79.19,1.78-.29,1.79-.28,1.79.45,1.77.09,1.79.29,1.78-.13,1.72,1.6.73,1.04,1.65,1.62.82,1.25,1.36,1.89.43,1.2,1.44,1.64.8,1.36,1.2,1.4,1.14,1.79.58,1.52.96,1.11,1.56,1.75.64,1.47,1.03,1.75.64,1.39,1.15,1.51.99,1.39,1.16,1.38,1.17,1.57.91,1.46,1.06,1.5,1,1.2,1.44,1.69.73,1.48,1.04,1.69.73,1.1,1.58,1.38,1.19,2.07.17,1.43,1.11,1.24,1.38,1.33,1.25,1.7.72,1.62.85,1.3,1.26ZM123.46,104.36l.91-1.45,1.37-1.14,1.28-1.39-2.02-1.13-.98-1.74-1.92-.16-1.69-.56-1.74-.5-1.8.17-1.7.61-1.82-.04-1.48.99-1.37,1.04-1.03,1.26.8,1.39,1.49.81,1.39.91,1.52,1,1.78-.43,1.75.23,1.76.09,1.76.13,1.75-.12ZM52.75,102.66l1.87-.1,1.98.03,1.91-.63.95-1.93,1.93-.84.48-1.75-1.19,1.07-1.6.86-1.4,1.15-1.39,1.25-1.87.3-1.67.58ZM99.81,101.34l-.36-1.78-.89-1.73-1.94-.78-1.46.72,1.07,1.76,2.02.56,1.55,1.25ZM98.11,103.66l-.54-1.81-1.04-1.75-1.98-.69-1.53.55.76,1.5,1.71.32,1.33.93,1.3.96ZM57.74,104.66l1.58-.24,1.68-.4,1.34-1.2.4-1.38-2.06.44-1.22,1.72-1.71,1.06ZM96.24,104.39l-1.47-1.3-1.64-1.28-2.39.87,2.28.51,1.07,1.89,1.97.65.17-1.33ZM58.64,106.89h1.86s1.94-.45,1.94-.45l1.42-1.55.13-1.65-1.71.24-.92,1.53-1.36.96-1.37.92ZM112.58,105.38l-1.27-.81-.94-1.25-1.28-1.19.09,2.27-.43,1.94,1.63,1.05,1.38,1.09,1.52,1.06-.12-2.21-.58-1.95ZM125.03,108.32l.75-1.56,1.02-1.53-.07-2.29-1.09,2.08-1.42,1.49.79,1.82ZM94.19,108.17l-.35-1.8-.83-1.78-1.86-.95-1.57.44.59,1.55,1.65.46,1.2,1.03,1.17,1.05ZM60.23,109.32l1.9-.09,1.98-.46,1.44-1.61-.12-1.7-1.68.3-.86,1.57-1.32,1.01-1.34.98ZM92.26,110.22l-.49-1.68-.69-1.74-1.75-.98-1.49.38.95,1.86,1.99.75,1.47,1.4ZM122.86,110.29l.04-2.03.55-2.2-1.9-.38-1.69.94-1.66-.92-1.69.62-1.56-.16-.07,2.04.31,2.03,1.86-.46,1.94.5,1.94-.28,1.92.28ZM63.06,112.06l1.57-.61,1.61-.8,1.11-1.55-.63-1.41-1.42.49-.87,1.63-1.48.96-1.19.44,1.31.85ZM83.07,108.14l-2.02.08-1.84,1.16,2.07-.25,1.79-1ZM85.53,107.79l-1.28,1.79,1.28,1.48,1.46,1.43,1.84.39,1.95-1.42-2.17-1.05-1.56-1.3-1.51-1.32ZM63.47,114.17l1.92.18,2.01-.49,1.38-1.73-.22-1.73-1.65.28-.83,1.54-1.29.99-1.31.95ZM87.87,121.01l.84-1.69.46-1.94-.55-2-1.94-.99-.87-1.95-1.85-.4-1.57-.74-1.71-.48-1.69.54-1.19,1.08-.61,1.33.59,1.58.62,1.53.84,1.44.77,1.66,1.61.65,1.54.64,1.53.87,1.73-.45,1.45-.69ZM65.16,116.89l1.81-.41,1.87-.64,1.38-1.56.05-1.66-1.71.43-.79,1.64-1.29,1.12-1.31,1.08ZM90.72,118.17l.78-1.33.25-1.65-1.76-1.22,1.06,2.12-.33,2.07Z"/>
      <path d="M96.26,162.58l-.69,1.4-1.42.84-1.58.48-1.57-.27-1.51-.52-.97-1.17-.02-1.86-.12-1.86v-1.86s-.28-1.85-.28-1.85l.03-1.86-.16-1.85-.07-1.86-.05-1.86-.02-1.86-.15-1.86v-1.87s0-1.88,0-1.88l-1.59-.92-1.25-1.35-.48-1.77-.1-1.83.86-1.62,1.33-1.33,1.66-.88,1.74-.69,1.86-.22,1.85-.17,1.85.22,1.75.64,1.26,1.07.34,1.67.07,1.68-.77,1.38-.9,1.33-1.33.98.18,1.81-.03,1.8.06,1.8-.11,1.8.06,1.79.12,1.8.07,1.79-.1,1.8.17,1.8-.1,1.8.13,1.8.03,1.8-.04,1.81ZM90.63,132.31l-1.79.84-1.66.97-1.5,1.17,1.66.51,1.76.15,1.76-.04,1.74-.3,1.65-.64,1.62-.72,1.36-1-1.34-.8-1.61-.32-1.63-.02-1.57.2.55.25,1.26.77,1.18.93-1.88.22-1.86.24-1.85.42,1.25-1.17,1.27-1.03-.36-.63ZM86.59,138.15l1.81.66,1.84.2,1.83-.26,1.79-.51,1.61-.93,1.51-1.13-1.74.35-1.7.42-1.72.28-1.69.5-1.74.17-1.81.25ZM89.75,146.35l2.17-.49,1.8-1.07.29-1.5.11-1.54-.11-1.53-1.55.18-1.56.17-1.57.28.08,1.85.35,1.81-.02,1.86ZM93.87,148.17l.24-1.69-1.61.7-1.6.73-1.68.66,1.56-.15,1.52-.12,1.57-.12ZM89.41,150.65l1.95.61,1.85-.64,1.12-1.57-1.63.48-1.6.62-1.68.5ZM89.58,153.51l1.68.24,1.63-.13,1.41-2.11-1.57.62-1.53.75-1.61.62ZM93.85,155.96l-.28-1.48-1.83.89-1.79.88,1.94-.14,1.97-.16ZM89.89,158.69l1.83.57,1.67-.68,1-1.51-1.49.49-1.46.63-1.54.51ZM94.03,159.99l-2.01.64-2,.56,1.48.7,1.58-.44.95-1.46Z"/>
      <path d="M170.35,107.58l-.31,1.71-.02,1.74.02,1.74v1.74s0,1.74,0,1.74l.1,1.74.24,1.73v1.74s.12,1.73.12,1.73l-.14,1.73-.19,1.72-.38,1.67-.74,1.56-1.43.96-2.16-.06-1.79-1.09v-1.8s-.07-1.8-.07-1.8l-.2-1.79-.03-1.8-.13-1.8v-1.8s-.13-1.8-.13-1.8l.03-1.8-.02-1.81-.11-1.81-.02-1.83-1.61-1.43-1.17-1.75.09-1.66.39-1.63,1.04-1.31,1.45-.92,1.52-.8,1.61-.63,1.72-.12,1.7.1,1.59.63,1.05,1.23.2,1.61-.57,1.56-.78,1.47-.87,1.39ZM162.29,105l1.84.08,1.81-.37,1.72-.65,1.62-.88,1.51-1.18-1.58-.92-1.22.46-.38,1.61-1.41.81-1.4-.33-1.33-.53-1.18,1.9ZM161.94,107.14l1.52.65,1.66.06,1.61-.34,1.53-.61,1.42-.87,1.13-1.28-1.75.6-1.79.38-1.76.52-1.81.35-1.75.54ZM164.94,113.87l1.67-.26,1.39-.96.31-1.99.02-2.05-1.88.41-1.9.52.28,2.18.1,2.15ZM167.24,116.71l-1.17.67-1.08.81h1.99s.27-1.48.27-1.48ZM164.61,120.15l1.33.83,1.41-.62.74-1.33-1.75.53-1.74.58ZM168.72,123.35l-1.94.68-1.87.85,1.5.19,1.4-.51.9-1.21Z"/>
      <path d="M111.62,153.81l-1.38,1.36-1.6,1.08-1.7.95-1.86.56-1.85.55-.06-1.85.04-1.86v-1.85s-.09-1.86-.09-1.86l-.05-1.85v-1.86s0-1.86,0-1.86l-.05-1.86-.02-1.86-.07-1.86-.05-1.87,1.54-1.01,1.56-.91,1.7-.61,1.79-.31,1.77.41,1.17,1.25.47,1.63-.09,1.72-.52,1.65-.52,1.67,1.03,1.62.64,1.79.24,1.88-.16,1.9-.73,1.76-1.15,1.51ZM105.84,144.28l1.95-.47,1.48-1.3.47-1.89-.34-1.94h-1.87s-1.49.94-1.49.94l-.11,1.55-.06,1.55-.03,1.57ZM105.97,153.85l1.81-.45,1.5-1.06.95-1.56.49-1.76-.55-1.75-1.46-.35-1.54.3-1.12,1.05v1.85s0,1.86,0,1.86l-.08,1.87Z"/>
      <path d="M123.01,129.04l1.66.68,1.06,1.49.52,1.74.45,1.77.2,1.82-.08,1.83-.16,1.82-.13,1.83-.42,1.78-.48,1.77-.77,1.66-.9,1.59-1.19,1.37-1.56.9-1.78.26-1.64-.78-1.08-1.47-.67-1.7-.38-1.79-.28-1.82-.06-1.85.2-1.84.15-1.84.44-1.8.58-1.75.64-1.74,1.04-1.52,1.23-1.35,1.57-.95,1.82-.11ZM122.72,132.84l-1.76.33-1.26,1.23-.83,1.6-.31,1.78-.16,1.79-.11,1.8.1,1.8.43,1.75.54,1.71,1.26,1.07,1.48-.87.84-1.59.52-1.72.35-1.77.07-1.8v-1.8s-.15-1.8-.15-1.8l-.38-1.77-.63-1.72Z"/>
      <polygon points="152.76 136.45 150.75 136.38 149.05 135.26 148.86 133.74 149.24 132.25 150.07 130.91 151.17 132.02 152.25 133.14 153.85 132.47 155 131.16 155.46 129.49 155.08 127.83 153.48 127.11 151.79 126.54 150.15 125.87 149.37 124.28 149.07 122.53 149.19 120.75 149.75 119.07 150.61 117.57 151.83 116.33 153.28 115.37 154.96 114.96 156.39 115.46 157.57 116.48 157.42 117.97 156.45 119.02 154.84 118.81 153.23 118.74 152.3 119.86 151.83 121.33 152.92 122.84 154.73 123.56 156.49 124.42 157.81 125.85 158.19 127.76 158.2 129.62 157.81 131.43 157.02 133.11 155.87 134.55 154.49 135.78 152.76 136.45"/>
      <polygon points="143.76 139.57 142.22 141.44 140.79 139.68 140.87 137.8 140.9 135.92 140.79 134.03 140.87 132.15 140.85 130.26 140.89 128.37 140.88 126.48 140.83 124.62 139.28 125.1 137.69 125.58 136.85 123.8 138.39 122.14 140.05 121.34 141.76 120.63 143.47 119.92 145.19 119.25 146.89 118.52 147.29 119.94 147.14 121.34 145.54 122.15 143.92 122.89 143.89 124.72 143.9 126.57 143.85 128.43 143.81 130.28 143.75 132.14 143.79 133.99 143.68 135.85 143.69 137.71 143.76 139.57"/>
      <polygon points="137.81 140.03 138.09 142.62 136.06 144.15 134.44 144.83 132.8 145.48 131.15 146.1 129.49 146.8 129.46 144.98 129.47 143.19 129.52 141.4 129.49 139.61 129.44 137.82 129.44 136.03 129.4 134.24 129.35 132.45 129.41 130.65 129.31 128.85 129.29 127.04 130.25 125.53 132.19 125.75 132.32 127.56 132.31 129.4 132.35 131.23 132.25 133.07 132.26 134.9 132.29 136.74 132.29 138.58 132.31 140.42 132.35 142.3 134.2 141.56 136 140.81 137.81 140.03"/>
      <path d="M77.21,101.52l-1.63-.89-1.54-1.07-1.28-1.37-.96-1.61-.77-1.69-.69-1.74-.19-1.86-.02-1.85.15-1.85.48-1.81,1.32-1.14,1.48-.9,1.52-.85,1.62-.66,1.67-.41,1.36.86,1.46.72,1.39.79,1.58-.7,1.67-.66,1.58-.84,1.68-.63,1.62-.75,1.6-.78,1.65-.69,1.56-.88,1.63-.74,1.67-.63,1.59-.81,1.67-.65,1.65-.69,1.69-.61,1.77-.15,1.71.67,1.3,1.33.78,1.68.23,1.64-.06,1.68-.83,1.45-1.16,1.18-1.54.8-1.6.67-1.53.83-1.56.77-1.56.75-1.56.76-1.6.68-1.53.83-1.6.68-1.57.75-1.62.63-1.5.91-1.59.73-1.55.78-.39,1.77-.46,1.78-.81,1.63-1.38,1.16-1.73.55-1.69.68-1.82.11-1.77-.36ZM108.72,80.89l.39-1.55-.51-1.5-1.13-1.07-1.44-.65.87,1.6,1.01,1.53.81,1.64ZM106.23,82.8l.61-1.74-.44-1.78-1.24-1.3-1.72-.46.9,1.77,1.05,1.7.85,1.8ZM103.59,84.12l.58-1.86-.55-1.86-1.38-1.33-1.82-.59.76,1.42.91,1.35.68,1.48.82,1.39ZM100.84,85.39l.54-1.91-.48-1.91-1.38-1.33-1.87-.52.77,1.42.91,1.36.69,1.49.83,1.4ZM98.26,86.53l.43-1.88-.65-1.81-1.39-1.28-1.81-.57.82,1.4.97,1.32.75,1.46.88,1.37ZM95.38,88.02l.72-2.02-.74-1.99-1.4-1.1-1.65-.74.73,1.47.88,1.41.66,1.53.79,1.44ZM92.95,89.26l.47-1.91-.67-1.85-1.38-1.36-1.84-.48.83,1.41.97,1.34.75,1.47.89,1.38ZM81.15,86.24l-1.74-1.01-1.81-.91-1.21.74,1.13,1.01,1.79.96,1.84-.79ZM90.31,90.27l.4-1.88-.68-1.79-1.41-1.26-1.79-.62.84,1.4.98,1.32.76,1.46.9,1.37ZM88.12,90.92l-.11-1.83-.82-1.63-1.32-1.2-1.67-.67.64,1.61.8,1.56.56,1.66.69,1.37,1.23-.85ZM80.07,93.13l-.65-1.68-.94-1.53-1.09-1.4-1.31-1.2-1.62-.75-1.71-.15-.49,1.65-.15,1.8.24,1.79.47,1.73.62,1.69.92,1.55,1.27,1.28,1.41,1.09,1.53.98,1.51-1.22.46-1.86-.08-1.9-.38-1.87ZM82.8,94.91l1.24-.98.14-1.6-.38-1.57-.59-1.53-1-1.25-1.75,1.19.49,1.4.57,1.47.67,1.43.62,1.44ZM84.32,97.29l.27-1.31-1.26.48-.92,1.17.82.97,1.09-1.31Z"/>
      <path d="M73.18,144.93l-1.64.82-1.83.23-1.76-.57-1.52-1.05-1.01-1.55.05-1.71.03-1.71.09-1.71-.04-1.71.03-1.71.07-1.71.08-1.71.04-1.72v-1.73s1.7.65,1.7.65l1.55.89,1.32,1.19,1.22,1.29.96,1.49.75,1.61.51,1.7.32,1.75.08,1.78-.1,1.78-.37,1.74-.54,1.69ZM67.94,131.42v1.75s.05,1.74.05,1.74l-.05,1.74.05,1.75-.06,1.75v1.75s1.1,1.01,1.1,1.01l1.53.09.86-1.68.37-1.84v-1.88s-.38-1.85-.38-1.85l-.77-1.72-1.18-1.46-1.51-1.15Z"/>
      <path d="M36.69,134.5l.28,1.58.44,1.56-.11,1.58-1.24.99-1.83-.25-1.71-.75-1.52-1.09-1.4-1.24-.02-1.77.03-1.78-.02-1.78-.03-1.78.05-1.78v-1.78s-.03-1.79-.03-1.79l1.54.78,1.54.73,1.45.9,1.22,1.19.88,1.43.45,1.63.07,1.7-.04,1.71ZM34.96,131.17l-.74-1.37-1.02-1.2-1.18-1.06.08,1.71-.05,1.71,1.41.49,1.49-.27ZM35.03,137.53l-.14-1.89-1.11-1.55-1.64-.99-.21,1.7.04,1.71,1.41.95,1.65.06Z"/>
      <polygon points="53.9 128.32 52.03 127.45 50.19 126.56 49.85 128.16 49.97 129.84 50.89 131.24 52.16 132.37 53.57 133.29 54.59 134.58 54.36 136.26 52.66 135.2 50.98 134.13 49.27 133.12 47.65 132 47.65 130.22 47.7 128.4 47.81 126.59 47.79 124.77 47.83 122.95 47.93 121.14 47.95 119.32 47.99 117.5 48.05 115.65 49.71 116.67 51.33 117.71 53.01 118.64 54.61 119.72 54.97 121.81 53.61 121.9 51.9 120.71 50.13 119.62 50.02 121.88 50.63 123.98 52.35 124.97 53.73 126.34 53.9 128.32"/>
      <path d="M40.6,121.6l-.02,1.51-.14,1.51-.04,1.51-1.59.18-.58-1.92.03-1.79.03-1.78.07-1.79-.02-1.79.08-1.79.08-1.79.04-1.79.06-1.78,1.7.58,1.66.76,1.45,1.11,1.22,1.36.88,1.61.54,1.75.15,1.82-.28,1.61-.89,1.34-2.21.07-2.21-.48ZM43.78,118.41l-.31-1.97-.98-1.76-1.69-1.08-.04,1.81-.13,1.81,1.05,2.03,2.09-.84Z"/>
      <polygon points="63.02 134.28 61.07 133.37 59.08 132.59 58.74 134.48 59.21 136.32 60.53 137.67 62.12 138.72 63.29 140.18 63.29 142.07 61.57 141.04 59.89 139.96 58.16 138.95 56.47 137.87 56.47 136.08 56.51 134.28 56.63 132.49 56.6 130.69 56.71 128.9 56.69 127.1 56.8 125.3 56.82 123.5 56.82 121.7 58.56 122.36 60.18 123.26 61.75 124.23 63.1 125.5 63.95 127.1 62.55 127.53 60.89 126.57 59.18 125.68 58.83 127.38 59.15 129.04 60.34 130.25 61.74 131.24 62.85 132.54 63.02 134.28"/>
      <polygon points="35.43 121.85 33.68 122.3 31.9 121.66 30.47 120.41 29.4 118.78 29.02 116.9 29.75 115.13 30.82 116.84 31.78 118.63 33.03 119.62 33.98 118.28 33.5 116.49 32.68 114.83 31.49 113.4 30.46 111.98 29.75 110.39 29.35 108.71 29.58 107 30.46 105.52 31.93 105.26 33.41 105.71 34.63 106.62 35.6 107.96 35.99 109.56 35.93 111.24 34.6 109.99 33.34 108.66 31.98 107.46 31.75 109.15 32.34 110.81 33.24 112.32 34.18 113.82 35.13 115.3 35.95 116.86 36.39 118.56 36.29 120.31 35.43 121.85"/>
      <path d="M46.42,146.48l-1.59.44-1.67-.53-1.43-1.01-1.13-1.51-.9-1.66-.63-1.78-.29-1.86.05-1.88.44-1.83.86-1.67,1.62-.55,1.75.45,1.51,1,1.12,1.55.9,1.68.64,1.81.25,1.9-.14,1.9-.49,1.84-.87,1.7ZM44.5,144.55l.78-1.67.31-1.8-.09-1.83-.55-1.75-1.01-1.52-1.45-1.08-1.04,1.59-.43,1.87.08,1.92.53,1.85,1.16,1.52,1.7.89Z"/>
      <polygon points="69.78 164.62 68.35 163.73 67.1 162.58 66.04 161.26 65.34 159.72 66.56 158.49 67.57 160.04 68.94 161.66 70.93 162.29 70.39 160.45 69.46 158.77 68.38 157.16 67.34 155.54 66.36 153.88 66.01 152.01 67.16 150.54 69.02 150.3 70.78 150.97 72.2 152.23 73.08 153.9 73.18 155.78 71.83 155 70.7 153.96 69.99 152.98 68.68 152.99 69.23 154.68 70.21 156.18 71.3 157.6 72.33 159.06 73.18 160.63 73.5 162.37 72.98 164.07 71.46 164.73 69.78 164.62"/>
      <polygon points="61.38 158.29 59.91 157.69 59.26 156.2 59.25 154.53 59.3 152.83 59.26 151.12 59.31 149.41 59.3 147.7 59.33 146 57.75 145.28 56.5 144.06 56.69 142.28 58.09 143.26 59.5 144.2 60.89 145.16 62.34 146.02 63.73 147 65.13 147.96 64.26 149.31 61.87 148.03 61.77 149.76 61.73 151.47 61.65 153.18 61.55 154.89 61.53 156.6 61.38 158.29"/>
      <polygon points="52.08 150.34 53.67 151.2 55.23 152.07 56.42 153.37 56.47 155.2 54.8 154.07 53.09 153.03 51.39 151.96 49.7 150.86 49.76 149.05 49.85 147.26 49.82 145.46 49.91 143.66 49.9 141.86 49.99 140.06 50.05 138.27 51.46 138.93 52.28 140.29 52.22 141.96 52.18 143.63 52.2 145.31 52.13 146.98 52.13 148.66 52.08 150.34"/>
      <path d="M134.05,97.35l-.77-1.73-.23-1.86.21-1.86.41-1.83.61-1.77.8-1.69.86-1.67,1.03-1.57,1.23-1.43,1.53-1.08,1.75-.22.95,1.44.11,1.81-.35,1.79-.46,1.77-.66,1.7-.81,1.64-.94,1.56-1.08,1.48-1.22,1.37-1.4,1.17-1.58.97ZM134.77,94.95l1.19-1.3,1.08-1.42,1.02-1.47.83-1.58.69-1.65.58-1.7.32-1.76.2-1.74-1.28,1.22-1.24,1.31-1.01,1.5-.8,1.62-.6,1.7-.53,1.73-.27,1.79-.17,1.77Z"/>
      <polygon points="85.34 120.08 83.88 119.05 82.42 118 80.92 116.99 79.46 115.95 78.88 114.31 80.82 114.34 82.21 115.27 83.57 116.24 84.96 117.18 86.36 118.1 87.3 119.31 85.34 120.08"/>
      <path d="M122.41,102.09l-1.78.72-1.9.29-1.92-.02-1.88-.42-1.66-.95-.9-1.65.85-1.62,1.69-.8,1.84-.36,1.87-.03,1.85.3,1.75.68,1.26,1.36-.18,1.39-.89,1.1ZM122.14,100.25l-1.44-1.19-1.74-.65-1.85-.04-1.76.55-1.45,1.16,1.61-.55,1.67-.21,1.68.14,1.64.33,1.65.46ZM118.97,101.54l-1.23-1.18-1.29.98,2.52.2Z"/>
      <path d="M129.67,72.08l-.8,1.6-1.65.82-1.82.28-1.85-.05-1.78-.52-1.59-.93-1.12-1.86.8-1.56,1.65-.82,1.83-.27,1.85.05,1.79.49,1.63.89,1.07,1.89ZM127.91,71.48l-1.49-.83-1.63-.52-1.71-.14-1.66.43-1.48.86,1.99.08,1.99.05,1.99.02,1.99.05ZM125.94,72.89l-.34-.5-1.72.07-1.74.05.36.53,1.72-.06,1.73-.09Z"/>
      <polygon points="78.34 98.41 76.89 97.13 75.74 95.58 74.93 93.83 74.28 92 73.82 90.12 74.03 88.37 75.44 89.27 76.1 91.07 76.91 92.83 77.65 94.63 78.23 96.48 78.34 98.41"/>
    </g>
  </g>
</svg>