<?xml version="1.0" encoding="UTF-8"?>
<svg id="Layer_2" data-name="Layer 2" xmlns="http://www.w3.org/2000/svg" viewBox="0 0 240.47 124.91">
  <g id="Layer_1-2" data-name="Layer 1">
    <g>
      <path d="M130.44,72.17l-1.37,1.31-1.29.95-1.24,1.13-1.62.58,2.11.08,2.08-.32,2.08.1-.84,1.39-1.19,1.11-.9,1.2,1.52-.2,1.59.46,1.48.16-.85,1.47-.57,1.75-1.15,1.44-1.12,1.46-.69,1.58-1.68.54-1.63.93-1.79.49-1.53,1.18-1.76.57-1.68.79-1.91.18-1.68.79-1.81.46-1.65.88-1.73.66-1.74.63-1.68.8-1.87.32-1.74.67-1.59,1.04-1.75.71-1.96.13-1.54,1.3-1.78.64-1.86.4-1.88.34-1.78.66-1.81.58-1.85.68.92,1.98,1.11,1.63,1.35,1.51.56,1.93-.11,1.85-.25,1.75-.53,1.76-.76,1.74-1.24,1.42-1.61.98-1.28,1.35-1.56,1.01-1.83.43-1.67.76h-1.83s-1.83.65-1.83.65l-1.84-.43-1.49-1.16-1.38-.99-1.45-.99-.78-1.58-1.01-1.39-.78-1.54-.62-1.62-1.07-1.41-.81-1.37-1.72.17-1.63.87-1.79.37-1.77.41-1.7.7-1.87-.06-1.67.96-1.8.3-1.83.06-1.84-.15-1.82.04-1.8.48-1.82-.21-1.81-.29-1.84.25-1.81-.2-1.8-.29-1.84-.06-1.8-.35-1.73-.64-1.72-.62-1.77-.47-1.48-1.19-1.97-.07-1.38-1.3-1.66-.76-1.49-1.04-1.62-.87-1.53-1.02-.98-1.64-1.35-1.21-1.09-1.46-1.41-1.17-1.19-1.39-.95-1.56-.91-1.6-.82-1.65-.75-1.67-1.12-1.53-.21-1.88-.92-1.65-.18-1.85-.17-1.83-.6-1.79.24-1.86.1-1.83.32-1.8-.32-1.93.93-1.67.39-1.81,1.09-1.53.61-1.73,1.24-1.35.77-1.72,1.49-1.1,1.13-1.51,1.51-1.08,1.83-.52,1.56-.96,1.71-.66,1.58-1.03,1.76-.56,1.82-.31,1.82-.3,1.77-.48,1.82-.24,1.78-.48,1.89.16,1.75-.61,1.84-.13,1.76-.53,1.63-.89,1.7-.63,1.67-.71,1.85-.2,1.6-.9,1.89-.1,1.7-.65,1.62-.85,1.58-.98,1.7-.64,1.91-.07,1.74-.54,1.62-.85,1.74-.52,1.77-.45,1.55-1.05,1.65-.78,1.85-.24,1.82-.32,1.62-.86,1.61-.87,1.83-.28,1.6-.93,1.85-.24,1.73-.57,1.68-.71,1.58-.99,1.84-.3,1.54-1.12,1.97-.38,1.97.38,1.65,1.11,1.08,1.65,1.44.85,1.93.05,1.41.46.15,2.35,1.82.15,1.68-.82,1.78.16,1.73-.43,1.76.16-.05,1.74.25,1.89-.76,1.69-.59,1.64.69,1.61,1.65.4,1.8-.08,1.52.84h1.79s1.78.34,1.78.34l1.78.23,1.77.07,1.43.41-.68,1.53-1.5.99-.94,1.46-1.27,1.22v1.61s-.41,1.14-.41,1.14l-1.41,1.63-1.23,1.46,1.63.09,1.91.18,1.9-.17,1.91-.22,1.92.26,2-.52-.99,1.66-1.08,1.22-1.34.95-.94,1.42-1.67.94,1.81-.16,1.57.45,1.6.21,1.53.54,1.51.83,1.86-.55,1.84.07,1.8-.34,1.97.03ZM114.07,69.02l.35-2.01-2.05.02-1.92.44-1.94-.43-1.96-.04-1.43.82-1.53.4-1.43.71-1.57.28-1.74.53-1.81.35-1.81-.39-1.81-.24-1.78.41-1.72.66-1.73-.11,1.61-.41,1.48-.91,1.58-.71,1.42-1.03,1.63-.62,1.29-1.28,1.58-.71,1.46-.93,1.76-.38,1.44-.97,1.6-.7,1.35-1.11,1.45-1-1.7-.02-1.69.16-1.4-.09,1.46-.5,1.44-1.15,1.59-.86,1.86-.31,1.11-1.09-1.27.45-1.68-.14-1.64-.2-1.33-1.42-2.12.19-2.03.18-.14-2.27-1.88-.07-1.67.5-1.7-.15-1.74-.21-1.67.34-1.56.65,1.4-1.28,1.61-1,1.8-.7,1.42-1.28,1.56-1.08,1.8-.71,1.5-1.28-1.77-.34-1.67.7h-1.69s-1.71-.4-1.71-.4l-1.69.05-1.75.42-1.8-.17-1.74.36-1.75.24-1.11.21.63-1.34,1.48-.69,1.69-.02,1.46-.78,1.65-.45-2.03-.24-1.99.14-.25-1.81-.21-1.57-1.62.61-1.78.45-1.83.32-1.75.54-1.58,1.01-1.79.42-1.8.4-1.6.96-1.73.6-1.74.58-1.64.87-1.71.65-1.79.44-1.76.53-1.68.75-1.91.09-1.47,1.32-1.9.12-1.67.78-1.75.55-1.65.83-1.67.77-1.93.07-1.71.69-1.8.44-1.57.89-1.66.65-1.73.42-1.73.42-1.74.37-1.73.37-1.63.83-1.83-.06-1.66.75-1.79.09-1.77.17-1.71.74-1.84.11-1.77.44-1.78.44-1.46,1.26-1.85.3-1.52,1.03-1.77.62-1.31,1.31-1.57,1.01-.88,1.68-1.31,1.3-.51,1.79-.66,1.66-.95,1.61-.13,1.83-.16,1.82.5,1.79.22,1.83.16,1.85.32,1.83.67,1.73.6,1.76.96,1.59.52,1.85,1.29,1.39.96,1.61,1.33,1.33,1.58,1.05,1.3,1.17,1.4,1.04,1.14,1.4,1.63.71,1.25,1.35,1.61.75,1.73.43,1.78.17,1.69.39,1.61.91,1.72.39,1.78.04,1.73.35,1.73.39,1.8-.29,1.76-.04,1.74.48,1.76.36,1.77-.27,1.75-.34,1.78.24,1.72-.51,1.8.17,1.76-.23,1.72-.43,1.63-.77,1.79-.11,1.54-1,1.67-.52,1.68-.51,1.66-.58,1.7-.62,1.72-.56,1.7-.62,1.86-.18,1.59-.92,1.8-.36,1.46-1.25,1.8-.33,1.59-.88,1.8-.32,1.77-.4,1.48-1.19,1.72-.56,1.69-.63,1.9-.06,1.66-.73,1.48-1.2,1.82-.3,1.59-.9,1.81-.32,1.77-.42,1.63-.79,1.76-.46,1.53-1.08,1.88-.15,1.62-.84,1.76-.45,1.67-.72,1.74-.51,1.61-.85,1.57-.99,1.81-.32,1.77-.44,1.65-.77,1.63-.81.68-.48-1.1-1.15,1.45-.82,1.25-.93,1.42-.87-1.75.66-1.8-.44-1.64.79-2.18-1.75,1.54-1.18,1.67-.76-1.79-1.03-2.15-.15h-2.06s-2.07.43-2.07.43l-1.83-.9-.98-2.42-1.42,1.02-1.74.82-1.7.96-1.89.5-1.9.55-2.13-.59,1.88-.2,1.48-.95,1.61-.66,1.51-.89,1.82-.17,1.54-.82,1.48-.95,1.31-.76ZM110.46,61.44l-1.95-.05-1.93,1.21-1.05,1.26-1.56.55-1.42.98,1.12.26,1.44-.74,1.3-1.03,1.53-.64,1.34-.95,1.18-.86ZM50.56,112.3l1.85.17,1.75-.43,1.64-.83,1.85-.03,1.74-.44,1.61-.85,1.73-.47,1.62-.8,1.76-.39,1.64-.73,1.62-.81,1.79-.25,1.72-.46,1.67-.61,1.56-.92,1.78-.29,1.77-.33,1.63-.72,1.7-.51,1.58-.86,1.74-.42,1.49-1.11,1.71-.5,1.63-.72,1.85-.11,1.63-.72,1.75-.39,1.6-.81,1.62-.72,1.65-.67,1.59-.8,1.79-.3,1.66-.63,1.52-1,1.64-.69,1.85-.11,1.41-1.29,1.65-.64,1.74-.42,1.76-.39,1.63-.72,1.65-.68,1.61-.77,1.59-.8,1.49-.98,1.16-.76-1.36.44-1.87.12-1.71.6-1.66.76-1.63.86-1.74.53-1.85.2-1.62.86-1.7.63-1.84.23-1.64.8-1.82.31-1.49,1.23-1.72.57-1.86.2-1.7.63-1.59.93-1.83.29-1.67.72-1.72.58-1.75.49-1.56,1-1.61.86-1.86.21-1.58.94-1.75.5-1.72.59-1.59.91-1.85.23-1.47,1.25-1.69.66-1.76.48-1.81.34-1.73.56-1.55,1.03-1.78.44-1.79.41-1.58.95-1.73.55-1.75.48-1.69.73-1.76.47-1.82.2-1.8.23-1.77.41-1.86-.34-1.74.91-1.84-.41-1.8.23-1.81-.07-1.82.18-1.82.06-1.76-.73-1.8-.11-1.77-.43-1.84.05-1.8-.21-1.76-.45-1.75-.44-1.75-.49-1.74-.49-1.86-.03-1.92-.78,1.85.84,1.48,1.02,1.57.86,1.8.28,1.57.88,1.69.57,1.69.59,1.87-.25,1.66.79,1.79.05,1.73.59,1.8-.15,1.77.35,1.78-.49,1.79.23,1.75-.55,1.76-.19,1.82.26,1.67-.81ZM68.92,116.92l.75-1.2.9-1.48.76-1.64,1.55-.93,1.38-1.03,1.3-1.2,1.63-.64,1.61-.74,1.77-.11,1.73-.27,1.4.2-.36-1.35-.68-1.45-1.78.64-1.57.94-1.81.32-1.79.35-1.65.75-1.72.54-1.6.89-1.76.45-1.51,1.14-1.62.42.87,1.19.31,1.68.88,1.38,1.02,1.16ZM73.72,121.37l1.78.47,1.78-.31,1.59-.89,1.8-.32,1.55-.94,1.09-1.45,1.17-1.33.67-1.65.85-1.57-.59-1.76-1.44-.87-1.77-.42-1.82.04-1.76.46-1.52,1.02-1.69.69-1.56,1.02-1.06,1.53-.99,1.57-.4,1.81.27,2.27,2.04.64Z"/>
      <path d="M137.04,63.62l-1.62.02-1.67-.38-1.65-.38-2.02.1-1.95-.5-1.97-.39-1.59-.69-.99-1.37.31-1.29,1.3-1.06,1.53-.95,1.32-1.27,1.11-1.51.11-1.96-1.99-.08-1.85-.28-1.93.02-1.8-.69-1.65-.98-1.44-1.24-1.86-.2-1.45-.27-1.13-1.15.69-1.4-.07-1.44,1.61-1.33,1.97-1.06-2.05-.7-1.72-.38-1.81-.64-.1-1.62.3-1.48.7-.95-1.87-.4-1.91-.62-1.94-.54.97-1.48.84-1.56,1.01-1.46,1.18-1.29,1.67-.62,1.85-.14,1.71-.64,1.66-.83,1.79-.36,1.76-.47,1.8-.32,1.63-.94,1.78-.37,1.72-.6,1.77-.42,1.83-.19,1.82-.23,1.62-.95,1.79-.38,1.79-.34,1.61-.98,1.87-.07,1.75-.51,1.67-.79,1.73-.57,1.92.12,1.62-.96,1.74-.54,1.75-.52,1.8-.34,1.77-.43,1.78-.41,1.71-.62,1.85-.16,1.57-1.15,1.89-.02,1.65-.88,1.74-.56,1.77-.47,1.86-.14,1.79-.41,1.72-.32,1.57-.78,1.63-.61,1.65-.55,1.57-.73,1.38-1.16,1.65-.54,1.49-.91,1.83-.13,1.49-.92,1.76-.57,1.75-.61,1.7-.79,1.75-.67,1.93.1,1.81-.34,1.77-.64,1.87.03,1.86.14,1.83-.24,1.86-.29,1.85.19,1.82.36,1.85.21,1.8.48,1.79.51,1.78.53,1.35,1.41,1.6.85,1.84.54,1.15,1.51,1.53,1.03,1.33,1.27,1.09,1.48,1.43,1.22.84,1.66,1.09,1.5.32,1.89,1.32,1.42.63,1.74.44,1.8.17,1.85.48,1.78-.35,1.87.09,1.8.56,1.84-.73,1.77.19,1.87-.47,1.78-.29,1.84-.91,1.62-.88,1.61-.78,1.66-.97,1.55-1.11,1.36-.84,1.56-1.52,1.02-1,1.43-1.05,1.4-1.4,1.08-.84,1.66-1.7.72-1.46.96-1.07,1.5-1.78.46-1.49.88-1.41,1.07-1.66.56-1.69.48-1.57.77-1.55.83-1.69.46-1.53.88-1.74.35-1.53.91-1.66.5.91,1.58,1.47,1.27.58,1.83.55,1.85-.4,1.72-.99,1.5-.18,1.84-.97,1.49-1.64.89-.84,1.61-1.46.98-1.38,1.14-1.82.22-1.59.71-1.69.59-1.76-.62-1.72.07-1.58-.57-1.54-.81-1.36-1.14-.87-1.57-1.06-1.39-.92-1.49-.98-1.45-.81-1.55-.91-1.42-1.75.17-1.66.53-1.6.75-1.58.8-1.73.33-1.6.74-1.78.16-1.64.61-1.6.74-1.69.45-1.77.17-1.62.67-1.75.28-1.64.63-1.6.76-1.68.51-1.74.34-1.52-.56-.98-1.23-.92-1.42-1.89.27-1.8-.26-1.79-.44-2.19.21,1.91-1.14,1.26-1.63-1.9-.21-1.68.16h-1.67s-1.66-.35-1.66-.35l-1.27-1.36.63-1.7,1.26-1.17.96-1.36-1.36-1.22-1.84-.51.13-1.89.4-1.79ZM134.76,53.21l-1.33,1.18-1.58.89-1.58.89-1.11,1.43,1.71.2,1.73.1,1.73-.09,1.73.17,1.73.07,1.74-.06,1.74.02,1.38.54.69,1.06-.73,2.54,1.45,1.51,1.5,1.54,1.98-.62,1.87-.26,1.87-.24,1.91.1,1.85-.56,1.99-.19-1.54,1.72-1.94.65-1.62,1.16-1.73,1.03,1.58,1.58-.33,1.75,1.69.08,1.67-.45,1.52.67,1.51.56,1.64-.84,1.73-.49,1.78-.31,1.76-.39,1.72-.51,1.68-.67,1.73-.48,1.8-.24,1.68-.66,1.83-.17,1.68-.66,1.62-.86,1.76-.39,1.72-.51,1.77-.35,1.58-.98,1.75-.42,1.68-.65,1.73-.48,1.81-.25,1.79-.29,1.56-1.01,1.74-.45,1.75-.41,1.54-1.05,1.84-.16,1.69-.6,1.6-.87,1.67-.66h1.91s1.49-1.06,1.49-1.06l1.61-.7,1.6-.73,1.65-.61,1.59-.76,1.58-.79,1.43-1.04,1.66-.7,1.02-1.59,1.68-.7,1.07-1.45,1.23-1.24,1.25-1.22,1.45-1.04,1.19-1.29,1.22-1.29.8-1.59.91-1.51.91-1.52.65-1.64.09-1.81.6-1.63.04-1.74.71-1.71-.35-1.75-.13-1.79-.38-1.75-.75-1.64-.8-1.59-.27-1.85-.87-1.58-1.29-1.29-.9-1.57-1-1.53-1.43-1.12-1.59-.9-1.41-1.08-1.45-1.04-1.64-.71-1.62-.73-1.7-.52-1.77-.31-1.63-1.03-1.81-.19-1.85.43-1.79-.54-1.8.3-1.79.2-1.81.08-1.7.7-1.8.16-1.69.62-1.9-.04-1.5,1.18-1.69.62-1.7.58-1.78.46-1.61.85-1.89.17-1.68.68-1.47,1.21-1.9.1-1.54,1.07-1.73.54-1.64.81-1.82.27-1.77.39-1.71.61-1.73.51-1.77.38-1.67.75-1.89-.04-1.69.65-1.69.65-1.8.25-1.57,1.09-1.9-.06-1.79.34-1.58,1.06-1.9-.06-1.73.52-1.65.81-1.78.37-1.78.34-1.7.64-1.69.7-1.79.32-1.67.75-1.82.21-1.66.78-1.78.37-1.8.29-1.61.96-1.84.16-1.67.76-1.77.42-1.87.04-1.58,1.1-1.76.48-2.06-.13,1.93,1.25,1.61,1.07,1.77.45,1.84.46,1.86-.23,1.91-.1,1.43.98-.7,1.1-1.22,1.03-.91,1.22.83.77-.77,1.56-1.47.96-1.51.89-1.45,1-1.53.87-1.41,1.03,1.67.19h1.71s1.72-.19,1.72-.19l1.75-.12,1.67.49,1.93.76-1.91,1.12,1.81.33,1.84.05,1.8.21,1.83.36,1.82-.31,1.85-.03,1.78-.51,1.7-.74,1.63-.31,1.63.27,1.76.69-1.9,1.04-1.83.65-1.54,1.22-1.79.72-1.85.61-1.35,1.49-1.63.97ZM119.32,35.48l-1.47-.83-1.2-1.31-1.46-1.12-1.85.1-.6,1.18,1.05.53,1.84.54,1.77.79,1.92.13ZM116.81,40.04l1.49-.21,1.6.25,1.68-.03,1.31-1.06.48-2.09,1.94-1.7h-2.07s-1.85.25-1.85.25l-1.82.42-1.76.61-1.78,1.14,1.82.14,1.71.37,1.64-.06-1.49.38-1.61.51-1.29,1.09ZM123.57,46.21l-1.42-.2-1.57-.41-1.7.02-1.32,1.04,1.54.41,1.62.13,1.61-.31,1.25-.69ZM138.01,49.17l-1.48.16-1.65-.41-1.65-.41-1.69.32-1.66-.29-1.67-.17h-1.92s-1.91-.25-1.91-.25h-2.23s1.89.94,1.89.94l1.67.44,1.7.32,1.99.58,2,.31,1.95.93,1.73-.65,1.43-1.16,1.48-.64ZM156.43,77.27l1.38-.73,1.74-.19,1.74-.19,1.53-.89,1.7-.31,1.68-.42,1.62-.6,1.7-.35,1.74-.5,1.7-.63,1.72-.54,1.68-.66,1.76-.42,1.66-.73,1.75-.47,1.76-.43,1.58-.99,1.7-.63,1.7-.61,1.81-.28,1.61-.91,1.72-.57,1.79-.36,1.87-.07,1.65-.78,1.69-.65,1.83-.22,1.7-.65,1.72-.56,1.54-1.13,1.84-.22,1.73-.54,1.61-.92,1.7-.65,1.75-.55,1.69-.71,1.6-.89,1.47-1.1,1.52-1.01,1.62-.89,1.3-1.3,1.58-1,1.16-1.45.94-1.4-1.41,1-1.53,1.09-1.63.95-1.27,1.46-1.63.95-1.53,1.11-1.66.9-1.8.63-1.79.57-1.53,1.18-1.8.55-1.76.43-1.55,1.06-1.85.16-1.71.59-1.62.86-1.69.64-1.91-.04-1.57,1.01-1.71.6-1.71.57-1.77.39-1.74.48-1.75.46-1.68.66-1.83.2-1.53,1.18-1.87.05-1.61.91-1.71.58-1.74.49-1.83.16-1.75.43-1.78.33-1.67.73-1.73.5-1.76.4-1.72.56-1.59.99-1.79.33-1.68.72h-2.02s-1.09,2.31-1.09,2.31ZM139.86,59.43h-1.62s-1.77-.47-1.77-.47l-1.82-.36-1.8.46-1.82-.06-1.81.12-1.92.51,1.92.58,1.81.29,1.84.09,1.84.06,1.84-.23,1.85-.18,1.47-.83ZM138.96,61.97l1.37-.36-1.57-.73-1.73-.14-1.66.59-1.88.2,1.91.45,1.79.12,1.77-.14ZM147.24,67.19l-1.57.06-1.7-.51-.81-2.27-2.06.37-1.73.4-1.62,1.24,2.21.45,1.95.69,2.08.79,1.79-.51,1.46-.71ZM187.99,77.68l.24-1.63,1.08-1.48,1.23-1.3.84-1.61,1.46-1.04,1.5-.92,1.53-.89,1.71-.46,1.71-.38,1.73-.34,1.92-.15-1.24-1.18-1.52-.26-1.73.78-1.83.52-1.84.48-1.66,1.03-1.78.67-1.78.65-1.89.33-1.69.96-1.58.41.74,1.3.52,1.79,1.15,1.41,1.17,1.3ZM148.98,70.91l-1.25-.53-1.2-.99-1.68-.49-1.39,1.16-1.66.62-1.66.76,1.96.36,1.79.11,1.8-.07,1.77-.28,1.52-.65ZM204.56,70.56l-1.71-.42-1.85-.48-1.98-.05-1.69,1.04-1.77.77-1.6,1.08-1.32,1.45-1.25,1.51-.85,1.8-.26,1.99.32,2.12,2,.2,1.85.07,1.77-.54,1.76-.54,1.69-.77,1.18-1.46,1.19-1.33.97-1.49,1.03-1.49.12-1.82.36-1.62ZM146.88,75.76l1.97.32,1.72,1.22,1.98,1.42.9-1.9,1.27-1.44,1.23-1.69-1.55-.42-1.3-.45-1.74-.34-1.76-.21-1.74-.3-1.95.04-1.92.05-1.86.49-1.96.28-.35,1.02,1.95-.44,1.84-.08,1.86-.06,1.83.66h1.94s1.87.37,1.87.37l1.94.77-2.21-.21-2.02.42-1.94.49Z"/>
      <polygon points="40.77 104.39 39.11 105.06 37.38 105.46 35.6 105.48 33.85 105.14 32.18 104.52 30.65 103.58 32.36 103.56 34.05 103.59 35.74 103.67 37.43 103.81 39.09 104.09 40.77 104.39"/>
      <polygon points="50.88 74.09 50.34 75.4 49.03 75.94 47.72 75.41 47.19 74.09 47.72 72.78 49.03 72.25 50.34 72.78 50.88 74.09"/>
      <polygon points="57.01 85.75 56.52 86.98 55.29 87.48 54.07 86.98 53.57 85.75 54.08 84.54 55.29 84.03 56.52 84.53 57.01 85.75"/>
      <polygon points="74.99 78.86 74 80.32 72.24 80.07 71.68 78.41 72.68 77.25 74.22 77.4 74.99 78.72 74.99 78.86"/>
      <polygon points="68.77 67.44 67.66 68.93 65.84 68.43 65.64 66.58 67.47 65.78 68.77 67.29 68.77 67.44"/>
      <polygon points="101.95 82.56 100.75 83.67 99.35 84.49 97.78 84.85 96.18 84.7 97.95 83.64 99.9 82.96 101.95 82.56"/>
      <polygon points="115.28 75.95 115.74 77.21 113.78 77.89 111.83 78.61 111.38 77.34 113.33 76.63 115.28 75.95"/>
      <polygon points="88.36 58.65 86.47 59.62 84.59 60.6 85.2 59.01 86.69 58.28 88.36 58.65"/>
      <polygon points="93.55 53.72 94.13 54.96 92.35 55.82 90.57 56.66 89.98 55.43 91.76 54.58 93.55 53.72"/>
      <path d="M82.68,114.82l-.26,1.58-.88,1.38-1.22,1.09-1.7.59h-1.8s-1.5-.93-1.5-.93l-.6-1.86.77-1.82,1.48-1.32,1.58-.68,1.7-.22,1.54.72.88,1.48ZM79.56,114.68l-1.16.81-1.14.84.84,1.17,1.14-.84,1.14-.82-.82-1.15Z"/>
      <polygon points="150.65 41.51 148.94 41.96 147.22 42.42 145.49 42.78 143.74 43.07 141.99 43.2 140.23 43.18 141.86 42.63 143.5 42.12 145.15 41.63 146.81 41.16 148.45 40.63 150.1 40.11 150.65 41.51"/>
      <polygon points="198.36 38.38 197.82 39.64 196.55 40.17 195.29 39.65 194.76 38.38 195.28 37.11 196.55 36.59 197.83 37.1 198.36 38.38"/>
      <polygon points="173.94 33.74 173.4 35.05 172.09 35.58 170.78 35.05 170.25 33.74 170.79 32.44 172.09 31.89 173.41 32.43 173.94 33.74"/>
      <polygon points="161.24 52.97 159.7 54.01 158.04 54.85 156.28 55.43 154.45 55.75 152.58 55.83 154.19 54.9 155.84 54.07 157.59 53.48 159.4 53.1 161.24 52.97"/>
      <polygon points="190.83 27.44 190.32 28.67 189.09 29.18 187.86 28.66 187.34 27.44 187.86 26.21 189.09 25.7 190.33 26.2 190.83 27.44"/>
      <polygon points="180.35 44.56 179.85 45.79 178.61 46.3 177.39 45.78 176.88 44.56 177.38 43.33 178.61 42.82 179.84 43.33 180.35 44.56"/>
      <polygon points="221.33 44.98 220.72 46.53 219.63 47.8 218.22 48.7 216.61 49.14 214.95 49.25 216.54 48.19 218.12 47.1 219.74 46.06 221.33 44.98"/>
      <polygon points="138.02 44.17 136.62 44.92 135.02 44.74 136.41 43.97 138.02 44.17"/>
      <polygon points="223.45 42.72 224.37 43.03 223.73 44.09 222.43 44.13 223.45 42.72"/>
      <path d="M201.52,74.08l-.16,1.76-1.09,1.42-1.43,1.08-1.6.81-1.92-.34-1.38-1.36.04-1.63.72-1.48,1.23-1.09,1.51-.64,1.63-.21,1.41.58,1.05,1.11ZM198.62,74.58l-2.27,1.37.59,1,2.3-1.37-.62-1.01Z"/>
    </g>
  </g>
</svg>