<?xml version="1.0" encoding="UTF-8"?>
<svg id="Layer_2" data-name="Layer 2" xmlns="http://www.w3.org/2000/svg" viewBox="0 0 177.32 108.65">
  <g id="Layer_1-2" data-name="Layer 1">
    <g>
      <path d="M60.3,67.1l.84-1.89.36-1.99,1.05-1.68.93-1.74.23-2.06,1.85-.88.97-1.74,1.89-.29,1.08-.87-1.25-.65-1.88.06-1.76-.77h-1.86s-1.85.62-1.85.62l-1.82-.12-1.83.02-1.84.05-1.78.47-1.78-.1-1.75.1-1.72.29-1.56,1.1-1.72.28-1.68.51h-1.77s-1.85.48-1.85.48l-1.83-.95-1.71-.37-2.07.17-1.57-1.14-1.03-1.9-1.86.26-1.62.86-1.61.89-1.66.72-1.91-.15-1.79.26-1.59.98-1.67.7-1.68.41-1.09,1.35-.96,1.36-.97,1.83-1.92.36-1.81.7-1.91-.35-1.69-.87-1.97-.15-1.26-1.35-1.3-1.35-.26-1.91-1.03-1.58-.04-1.85.05-1.82.08-1.86.59-1.79,1.2-1.29,1.61-.5,1.28-1.04,1.67-.16,1.78-1.2,2.06.54,1.47,1.32,1.71,1.47,1.65-1.15,1.65-.65,1.92.33,1.68-.55,1.71-.43,1.64-.69,1.57-.94,1.76-.28,1.85-.13.81-1.77.35-1.73.7-1.66,1.45-1.06,1.23-1.52h2.07s1.43-1.45,1.43-1.45l1.77-.67,1.99-.04,1.7-.9h1.86s1.77-.34,1.77-.34l1.52-1.26,1.95.34,1.54-1.19,1.83-.1,1.75-.41,1.81-.2,1.5-1.35,1.94.28,1.72-.52,1.73-.47,1.77-.34,1.71-.57,1.59-1.01,1.8-.23,1.66-.73,1.94.28,1.61-.94,1.88.06,1.68-.65,1.59-.99,1.79-.23,1.77-.34,1.74-.46,1.59-1.02,1.73-.49,1.8-.21,1.7-.58,1.89.11,1.78-.31,1.7-.6,1.7-.59,1.6-1,1.8-.21,1.64-.82,1.72-.53,1.76-.38,1.95.3,1.66-.74,1.85-.07,1.65-.79,1.69-.65,1.71-.59,1.67-.71,1.96.32,1.74-.5,1.66-.77,1.68-.43,1.65-.57,1.62-.69,1.82.2,1.7-.34,1.7-.33,1.62-.83,1.8.3,1.65-.69,1.68-.54,2.04.02,1.43,1.54,1.95.43,1.19,1.19,1.79.04,1.78-.28,1.67-.71,1.65-.81,1.9.16,1.6-1.03,1.68-.48.47-1.7,1.02-1.96,2.01-.33,1.68-.94,1.96.14,1.89-.75,1.57.86,1.46.86,1.18,1.22,1.05,1.35.25,1.73.7,1.54.69,1.65-.46,1.78-.45,1.68-.75,1.58-1.45.99-1.37,1-1.54.8-1.94.4-1.91-.24-1.72-.78-1.83-.45-1.79-.21-1.49,1.24-1.9-.15-1.72.45-1.75.36-1.58.93-1.65.61-.3,1.63-1.21,1.34-.35,1.83-1.67.75-1.45.79-1.59.97-1.77.53-1.65.83-1.86.33-1.74.6-1.45,1.32-1.56.97-1.71.72-1.56,1-1.16,1.48-1.87.72-1.27,1.38-.98,1.61-.74,1.73-1.34,1.38-.43,1.85-.72,1.7-.9,1.67.22,1.95-.92,1.5v1.84s-1.64.97-1.64.97l-.95,1.33-.96,1.4-1.48.84-1.29,1.08-.17,1.62.49,1.62,1.09,1.34,1.38,1.03-.6,1.69.08,1.64,1.15,1.44.95,1.54.79,1.64,1,1.37,1.19,1.29,1.38,1.17,1.66.74,1.71.67,1.32,1.27,1.24,1.4,1.47,1.04,1.98.25,1.45,1.08,1.1,1.62,1.99.25.57,2.03,1.08,1.65.3,2.01-.28,2.01-1.19,1.69-1.57.89-1.64.73h-1.9s-1.62.79-1.62.79l-1.85.14-1.61.81-1.47,1.19-1.61.82-1.71.54-1.96-.15-1.53,1.03-1.85.15-1.65.7-1.45,1.26-1.77.37-1.87.09-1.5,1.11-1.84.19-1.46,1.21-1.93-.06-1.64.75-1.74.47-1.63.78-1.63.8-1.83.23-1.63.61-1.77.86-1.78-.66-1.7-.64-1.49-1.01-1.51-.93-1.63-.75-1.23-1.34-1.38-1.13-1.93-.32-.92-1.8-1.94-.3-1.38-1.12-1.15-1.47-1.57-.86-1.43-1.06-1.73-.61-1.36-1.17-1.49-.96-1.5-.96-1.58-.83-1.15-1.47-1.72-.63-1.5-.96-1.11-1.53-1.53-.91-1.43-1.06-1.95-.3-1.3-1.25-1.12-1.52-1.57-.86-1.97-.42-.32-1.93.03-1.72.64-1.66.29-1.62.35-1.77,1.85-.3,1.18-1.47,1.57-.51,1.55-.54,1.69-.19,1.52-.64,1.76-.36ZM173.35,4.38l-1.54-1.19-1.69-.17-1.55-.59.78,1.88,1.86.17,2.14-.1ZM166.42,15.25l1.99.04.92-1.4.79-1.38.2-1.63-.85-1.77.51-2.06-1.66-1.22-1.07-1.54-1.94.09-1.33.87,2.1-.09,1.36,1.18.92,1.31,1.1,1.5-.04,1.8-.39,1.74-.95,1.48-1.66,1.09ZM171.97,11.45l1.77.19.78-1.08.03-2.37-1.04-2.15-2.02,1-.47,1.34,1.25,1.39-.31,1.7ZM166.13,11.72l1.62-.51-1.27-1.82-.59-2,.08,2.09.16,2.23ZM164.65,12.74l.8-1.82-.81-1.56-.93-1.34.26,1.57,1.02,1.41-.35,1.75ZM114.22,55.22l1.76-.94,1.21-1.59,1.45-1.28,1.07-1.64-.05-2,1.36-1.53-.37-1.97,1.12-1.51.09-1.92,1.46-1.28.58-1.73,1.46-1.17.98-1.48.69-1.79,1.4-1.16,1.43-1.11,1.52-.96,1.39-1.16,1.76-.54,1.67-.62,1.62-.69,1.38-1.39,1.73-.53,1.55-.69,1.69-.3,1.39-.96,1.93-.24,1.23-1.38-.1-2.04.39-1.66.69-1.78-.1-1.88-1.01-1.6-1.29-1.3-1.35-1.08-1.11-1.54-2.02-.42-1.98.59-1.93.46-1.93.34-1.95-.31-1.75.48-1.53,1.37-1.85.1-1.67.8-1.85.09-1.9-.1-1.58,1.17-1.78.35-1.7.7-1.91-.15-1.63.95-1.82.23-1.76.43-1.7.71-1.74.53-1.79.33h-1.88s-1.66.83-1.66.83l-1.89-.05-1.61,1.06-1.87.03-1.89-.03-1.76.5-1.6,1.12-1.72.67-1.99-.32-1.74.57-1.78.45-1.71.71-1.64.96-1.82.3-1.87.12-1.85.19-1.69.77-1.7.76-1.84.23-1.59,1.15-1.99-.33-1.56,1.25-1.77.47-1.93-.1-1.68.85-1.9.02-1.81.36-1.56,1.28-2-.32-1.46,1.18-1.76.1-1.67.41-1.73.21-1.39,1.36-1.87-.24-1.62.57-1.64.53-1.67.42-1.59.66-1.21.83,1.1,1.14,1.44,1.22.39,1.96,1.26,1.4.07,1.89.52,1.72.63,1.81-.42,1.83-.56,1.75-.6,1.85,1.81-.92,1.87-.38,1.93-.09,1.86-.46,1.99.24,1.92-.2,1.86-.49,1.76-.42,1.74-.76,1.84.13,1.82-.42,1.84-.02,1.83.21,1.71,1h1.83s1.68.77,1.68.77l1.83.12,1.79.34,1.76.47,1.79.42,1.34,1.47,1.64.75,1.75.48,1.65.69,1.73.45,1.78.22,1.58.99,1.76.35,1.77.24,1.82-.36,1.75.67,1.78-.43,1.75-.36,1.75-.22,1.88.68,1.63-1.03,1.73-.34,1.85.06,1.77-.32,1.62-.79,1.56-.93,1.87-.09ZM162.58,13.39l1.04-2.05-1.04-1.69-1.45-1.2.42,1.63,1.16,1.4-.14,1.91ZM152.08,16.48l1.93-.54,1.57-1,1.79-.27,1.76-.4,1.47-1.12.84-1.42-1.52-1.31-1.14-1.28-1.43,1.04-1.77-.32-1.51.76-1.73-.14-1.73.66,1.09,1.66.32,1.7.07,1.97ZM34.3,51.45l1.77,1.7,1.88-.44,1-1.48.59-1.71-.48-1.81.87-1.85-1.27-1.56-.14-1.85-1.49-1.15-.64-1.79-1.66-.77-1.7-.37-1.22,1.33-.1,1.34,1.88.29,1.97.92.96,1.77.85,1.82-.22,1.74-.53,1.49-.92,1.2-1.39,1.16ZM23.29,52.22l1.83-.47,1.48-.94,1.69-.21,1.65-.34,1.44-1.08,1.89.49,1.34-1.32.92-1.05-.81-1.46-.06-1.7-1.55-.21-1.78-.07-1.6.6-1.45,1.11-1.68.31-1.66.36-1.68.31-1.47.54.22,1.64.4,1.69.89,1.79ZM10.48,47.59l-2.04-1.43-1.7,1.12,1.75.17,1.99.13ZM20.5,53.31l1.23-1.59-.57-1.62-.57-1.52-1.53-.91,1.14,1.69-.45,2.05.75,1.89ZM6.3,48.46l-1.82-.09-1.23,1.04-.8,1.68-.25,1.88.91,1.72-.25,2.1,1.8,1.05,1.06,1.6,1.91-.24,1.44-1.01-.05-1.77.52-1.75-.43-1.72-1.17-1.42-.65-1.51-.95-1.55ZM14.18,53.26l-.51-1.72-1.04-1.32-.5-1.52-1.41-.32-.79.93-.95,1.53,1.39,1.26.47,1.63,1.48-.6,1.85.14ZM18.44,53.55l.79-2.05-1-1.65-1.22-1.38.42,1.69,1.17,1.47-.16,1.94ZM16.26,54.02l.89-1.98-1.01-1.61-1.11-1.42.35,1.65,1.11,1.47-.24,1.89ZM9.66,59.51l2.08-.12,1.06-1.42.84-1.45.08-1.85-1.56,1.03-1.97.34.51,1.88-1.04,1.59ZM88.45,61.99l-1.03,1.9-1,1.72-1.91.53-1.9-.07-2.05.18-1.33-1.7-2.08-.37-.96-1.77-1.65-1.24-.09-1.95.43-1.87,1.22-1.96-2.31.42-1.82,1.07-1.81.12.93,1.18.91,1.5,1.19,1.29.7,1.65.87,1.53,1.02,1.42,1.69.93,1.01,1.43,1.2,1.29,1.12,1.71,1.8.84,1.98,1.13,1.82-.56,1.06-1.72,1.14-.77-.04-1.94.34-1.79.23-1.99-.68-2.14ZM83.15,63.88l1.66-1.57.66-1.86-1.67-.99-1.78-.89-2.08-.18-1.58-1.72-.26,2.1-.31,1.64,1.48.85.79,1.5,1.53.46,1.55.65ZM102.36,76.31l-1.51-1.35-1.9.12-1.78-.46-1.8-.31-1.91.38-1.54-1.38-1.99-.59,1.79.28,1.5-.9,1.86.14-2.26-.2-1.99-1.01-1.59,1.28-1.21,1.51-1.78.56-1.83.23-1.8-.29-1.78-.43-.98-1.23-.91-1.19-.92-1.13-1.73-.98-1.07-1.49-1.25-1.35-.84-1.66-1.29-1.32-.35-2.02-1.07-1.49-1.87-.89-.96-1.39-1.1,1.1-1.2,1.57-.52,1.92-.38,1.94-.5,1.88-1.48,1.36-1.39,1.12-1.29,1.37-1.67.88-1.79.52-2.02-.1-1.73.81-1,1.12,1.18,1.18,1.7.69,1.3,1.3,1.19,1.47,1.91.38,1.45,1.07,1.65.78,1.16,1.51,1.79.56,1.38,1.18,1.5,1.01,1.66.77,1.55.92,1.44,1.1,1.25,1.39,1.73.66,1.22,1.42,1.85.47,1.27,1.35,1.23,1.41,1.53.96,1.89.42,1.61.84,1.05,1.69,1.56.93,1.49,1.04,1.71.44,1.7-.27,1.58.02,2.01-.3,1.99-.37,1.8-.93,1.8-.92,1.67-1.29-.22-2.06.58-1.89-1.04-1.65-.24-1.77.35-1.85-.62-1.71.23-1.84-.12-1.79-1.07-1.65.58-1.86-.38-1.79ZM112.57,64.24l1.45-2.07-.9-1.88-.16-2.05-1.83.38-1.6,1.11-2.02-.51-1.59,1.28-1.91-.19-1.7.96-1.91-.48-1.78.55-1.86-.44-1.81.19-1.84.66-1.55-.46.28,1.54.23,1.66.54,1.52,1.63.63,1.84.43,1.87.14,1.86-.79,1.83-.06,1.8-.39h1.86s1.74-.64,1.74-.64l2.03.39,1.79-.57,1.72-.89ZM112.51,67.77l1.86-1.26.87-1.84-1.44.65-1.72.59-1.49,1.24-2.03-.4-1.52,1.33-1.9-.17-1.7.95-1.89-.54-1.79.47-1.81-.55-1.8.05-1.88.48-1.79-.44-1.6-.53,1.19,1.02,1.63.56,1.58.85,1.73.44,1.78.1,1.72-.86,1.72-.12,1.68-.43h1.76s1.63-.64,1.63-.64l1.93.42,1.69-.53,1.57-.85ZM51.68,78.97l1.5.97,1.76.59,1.34,1.22,1.42,1.11,1.85.47.93,1.82,1.99.25,1.18,1.46,1.86.45,1.08,1.61,1.7.69,1.18,1.46,1.57.88,1.87.44,1.4,1.13,1.44,1.09,1.4,1.13,1.59.85,1.26,1.35,1.37,1.18,1.48,1.03,1.94.34,1.47,1.03,1.6.84,1.32,1.27,1.59.78,1.49,1.22,1.87.28,1.65-1.2,1.72-.58,1.94.03,1.79-.38,1.57-.97,1.56-1.01,1.63-.84,1.93.02,1.79-.39,1.53-1.09,1.64-.81,1.73-.56,1.97.11,1.69-.65,1.38-1.51,1.83-.28,1.58-.96,1.83-.27,1.9-.09,1.45-1.32,1.74-.53,1.62-.86,1.92-.04,1.54-1.11,1.73-.37.17-1.54.09-1.26-1.34.76-1.76.53-1.88.21-1.58,1.02-1.9.17-1.58.85-1.51-.96-.79-1.42-.75-1.29-1.19-1.55-.7-1.7.27-1.99-.61-1.73-.49-1.77-.74-1.69-1-1.62-.34-1.82-.17-1.87-.33-2.03-2.41-1.23-2.23,1.36-1.82.52-1.55,1.28-2.04-.29-1.67,1.18-1.87.31-1.95-.36-1.83.57h-2.17s2.07,1.01,2.07,1.01l2.19.36.31,2.11.99,1.66-.12,1.82.2,1.78-.02,1.8,1.16,1.64-.51,1.88.31,1.76.26,1.77.13,1.79.36,1.76.45,1.63-.9,1.41-.89,1.42-1.74.12-1.56,1.06-1.89.07-1.65.77-1.54,1.11-1.8.36-1.65.09-1.62-.26-1.79-.03-1.54-.82-1.35-1.21-1.56-.9-1.17-1.49-1.41-1.13-1.57-.88-1.57-.89-1.8-.54-1.36-1.21-1.7-.68-1.53-.94-1.45-1.07-1.06-1.66-1.66-.75-1.28-1.33-1.69-.72-1.6-.84-1.57-.88-1.64-.78-1.05-1.68-1.52-.97-1.67-.74-1.5-1-1.59-.86-1.68-.74-1.26-1.51-.52,1.91,1.12,1.47ZM128.47,88.74l1.6-.72,1.41-1.15,1.72-.45,1.67-.57,1.07-.87-.77-1.37-2.01-.21-1.23-1.44-1.89-.4-1.14-1.59-1.73-.65-1.24-1.44-1.61-.85-1.43-.41.52,1.29.41,1.74.35,1.75.68,1.66.1,1.83.3,1.77,1.13,1.7,2.08.37Z"/>
      <path d="M112.23,49.68l-1.65.77-1.7.64-1.7.66-1.78.39-1.81.18-1.79.3-1.81.12-1.82-.03-1.8-.27-1.8-.19-1.79-.34-1.76-.46-1.64-.81-1.65-.74-1.6-.86-1.5-1.03-1.33-1.24-1.16-1.4-1.03-1.5-.73-1.67-.56-1.73-.21-1.81-.15-1.81.47-1.75.57-1.69.79-1.6,1.02-1.48,1.25-1.3,1.47-1.05,1.64-.86,1.62-.89,1.66-.83,1.74-.63,1.78-.51,1.73-.71,1.85-.21,1.82-.36,1.84-.17,1.85.03,1.84.1,1.79.15,1.75.41,1.69.62,1.61.82,1.43,1.09,1.29,1.25,1.05,1.46.99,1.49.89,1.56.47,1.74.5,1.72.28,1.83.25,1.84-.09,1.86-.27,1.85-.74,1.72-.87,1.64-1.16,1.46-1.49,1.12-1.52,1.08ZM103.03,28.6l1.82.61,1.32,1.37.87,1.71.41,1.84,1.69.91,1.64,1.04,1.23,1.52.54,1.88-.3,1.96,1.08,1.86,1.04,1.85,1.05-1.52.91-1.67.28-1.89-.1-1.9-.31-1.87-.4-1.69-.57-1.64-.83-1.52-.95-1.45-1.18-1.27-1.28-1.18-1.53-.82-1.49-.91-1.67-.52-1.74-.25h-1.75s-1.8.13-1.8.13l-1.8.15-1.8.17-1.77.39-1.73.51-1.74.49-1.72.58-1.54.97-1.66.73-1.43,1.11-1.34,1.2-1.22,1.34-.92,1.57-.49,1.75-.16,1.8.21,1.79.54,1.69.75,1.61,1.02,1.46,1.16,1.37,1.46,1.13.36-1.93.11-1.93-.08-1.91.54-1.81,1.06-1.59,1.51-1.19-.23-1.78.38-1.77.77-1.62,1.32-1.24,1.68-.66,1.71-.46,1.74-.31,1.76-.26,1.78.04,1.78.04ZM101.85,31.33l-1.68-.4-1.78-.1-1.7.49-1.55.73,1.67.28,1.75-.15,1.7-.34,1.59-.51ZM92.3,33.62l1.56.47,1.66.36,1.7.03h1.69s1.7-.11,1.7-.11l1.61-.58,1.48-.81,1.22-1.07-1.68-.82-.7,1.62-1.78.66-1.84.47-1.9-.05-1.79-.44-.84-1.54-1.03.93-1.07.87ZM103.72,37.17l1.08-.77.74-1.06-.72-1.42-1.35,1.39.26,1.86ZM95.23,38.16l-.62-2.23-2.13-.49.8,2.12,1.95.6ZM101.86,35.42l-1.67.22-1.74.19-1.63.27.28,2.44,1.69-.11,1.72-.32,1.68-.23-.33-2.46ZM110.17,40.04l-.66-1.29-1.21,1.1-1.3,1.02-1.56.55-1.58-.02,1.34-.85,1.4-.81,1.42-.78,1.49-.69-1.5-1.15-1.6.9-1.7.89-1.85.53-1.82.57-1.87.41-1.91.17-1.91-.15-1.86-.45-2.3-.66-1.57,1.69,1.61.22,1.6.32,1.64.12,1.59.46,1.59.26-1.63.17-1.69.15-1.7-.11-1.67-.37-1.68-.55,1.09,1.41,1.62.62,1.7.39,1.73.21,1.74-.23,1.75.07,1.72-.29,1.72-.31,1.72-.33,1.68-.5,1.6-.72,1.53-.84,1.28-1.15ZM89.78,48.33l1.66.63,1.7.52,1.76.27,1.75.3,1.76.28,1.78-.08,1.77-.14,1.76-.22,1.77-.22,1.7-.54,1.66-.63,1.6-.76,1.69-.76-.89-2.01-.91-1.97-1.54.8-1.64.64-1.68.53-1.69.51-1.73.32-1.74.29-1.76.08-1.76.18-1.75-.27-1.74-.17-1.74-.21-1.74-.27-.35,1.5.29,1.38Z"/>
      <polygon points="67.92 48.44 66.19 48.38 64.47 48.33 62.75 48.21 61.03 48.11 59.3 48.07 57.58 47.98 55.84 48.02 54.11 47.9 55.89 47.45 57.66 46.97 59.47 46.75 61.29 46.47 63.12 46.44 64.94 46.6 66.77 46.71 68.59 46.9 70.39 47.24 72.13 47.81 73.9 48.27 75.59 48.96 77.32 49.58 78.89 50.53 80.47 51.44 82.1 52.41 80.25 51.95 78.51 51.34 76.74 50.8 75.05 50.05 73.29 49.52 71.54 48.96 69.74 48.6 67.92 48.44"/>
      <polygon points="134.98 25.87 133.34 26.6 131.79 27.52 130.35 28.59 128.89 29.63 127.58 30.86 126.35 32.17 125.15 33.52 124.04 34.92 122.99 36.39 122.08 37.91 122.53 36.22 123.11 34.55 124.02 33.02 125.05 31.57 126.22 30.23 127.49 28.98 128.88 27.88 130.29 26.8 131.79 25.84 133.35 24.99 134.94 24.2 136.58 23.52 138.24 22.87 139.97 22.44 141.73 22.22 143.51 22.11 141.8 22.85 140.09 23.59 138.39 24.34 136.67 25.07 134.98 25.87"/>
      <polygon points="77.45 28.01 75.67 28.7 73.94 29.38 72.17 29.95 70.44 30.59 68.67 31.16 66.9 31.7 65.13 32.27 63.36 32.8 61.56 33.28 59.75 33.66 57.93 34.03 56.13 34.46 54.32 34.87 52.49 35.14 50.63 35.49 52.39 34.81 54.13 34.17 55.85 33.48 57.62 32.92 59.36 32.27 61.12 31.69 62.91 31.21 64.71 30.73 66.49 30.2 68.28 29.75 70.12 29.44 71.93 29.06 73.73 28.62 75.57 28.39 77.45 28.01"/>
      <polygon points="134.55 12.9 132.98 13.57 131.32 14.14 129.65 14.67 127.99 15.23 126.3 15.7 124.63 16.24 122.93 16.66 121.25 17.14 119.56 17.62 117.86 18.02 116.13 18.29 114.43 18.73 112.7 18.97 110.98 19.33 109.3 19.61 110.85 18.89 112.5 18.3 114.13 17.63 115.83 17.19 117.49 16.62 119.15 16.05 120.86 15.68 122.55 15.2 124.23 14.71 125.96 14.4 127.67 14.01 129.39 13.64 131.13 13.45 132.85 13.09 134.55 12.9"/>
      <polygon points="141.32 11.87 139.43 12.27 137.54 12.68 135.65 13.07 135.87 12.37 137.69 11.82 139.53 11.29 141.36 10.76 141.32 11.87"/>
      <polygon points="48.77 36.22 46.98 37.08 45.1 37.64 43.14 37.78 44.92 36.89 46.79 36.3 48.77 36.22"/>
      <polygon points="99.2 92.15 97.63 91.74 96.11 90.98 94.61 90.18 93.13 89.37 91.71 88.46 90.29 87.54 88.84 86.66 87.39 85.55 85.82 84.62 84.32 83.58 82.82 82.55 81.29 81.55 79.8 80.5 78.21 79.6 76.76 78.5 75.26 77.46 73.76 76.42 72.17 75.52 70.65 74.52 69.17 73.43 67.66 72.41 66.15 71.38 64.63 70.36 63.13 69.35 65.11 69.43 66.93 70.34 68.7 71.34 70.19 72.27 71.59 73.37 73.13 74.22 74.55 75.28 76.04 76.23 77.58 77.1 79.02 78.12 80.44 79.16 81.92 80.11 83.47 80.97 84.9 81.99 86.32 83.03 87.81 83.97 89.27 84.95 90.65 86.06 92.11 87.04 93.64 87.94 95.04 89.01 96.39 90.15 97.83 91.15 99.2 92.15"/>
      <polygon points="96.1 95.81 95.41 97.25 93.89 97.81 92.29 97.52 91.09 96.44 91.64 95.15 92.87 94.38 94.73 94.63 96.1 95.81"/>
      <polygon points="61.92 73.85 61.25 75.14 59.89 75.85 58.17 75.45 56.91 74.31 57.64 72.92 59.17 72.4 60.77 72.72 61.92 73.85"/>
      <polygon points="109.21 92.83 108.82 91.06 108.36 89.31 108.02 87.53 107.6 85.77 107.33 83.99 107.08 82.2 106.98 80.39 106.89 78.59 106.9 76.76 107.51 78.49 108 80.24 108.41 82 108.74 83.78 108.92 85.59 109.15 87.38 109.22 89.19 109.29 91.01 109.21 92.83"/>
      <polygon points="117.25 70.89 115.79 71.8 114.26 72.63 112.65 73.3 110.99 73.83 109.3 74.21 107.59 74.54 105.83 74.75 107.3 73.77 108.85 72.96 110.45 72.26 112.12 71.75 113.81 71.29 115.54 71.03 117.25 70.89"/>
      <polygon points="131 83.4 130.29 84.77 128.79 85.43 127.12 84.93 126.01 83.69 126.83 82.38 128.34 81.89 129.89 82.26 131 83.4"/>
      <polygon points="4.11 49.81 5.8 50.36 6.91 51.79 7.52 53.51 7.71 55.33 7.39 57.12 6.43 58.64 5.03 57.65 4 56.26 3.26 54.71 2.96 53 3.27 51.31 4.11 49.81"/>
    </g>
  </g>
</svg>