<?xml version="1.0" encoding="UTF-8"?>
<svg id="Layer_2" data-name="Layer 2" xmlns="http://www.w3.org/2000/svg" viewBox="0 0 135.76 101.46">
  <g id="Layer_1-2" data-name="Layer 1">
    <g>
      <path d="M51.63,101.46l-1.78-.12-1.63-.88-1.86-.21-1.74-.53-1.51-1.24-1.95.05-1.61-.94-1.69-.7-1.77-.45-1.69-.71-1.72-.62-1.81-.38-1.67-.83-1.76-.57-1.81-.41-1.67-.83-1.95.03-1.58-1.12-1.74-.62-1.84-.31-1.85-.29-1.58-1.13-1.9-.15-1.61-1.02-1.83-.37-1.71-.74-2,.16-1.15-1.62-.84-1.43-.41-1.72-.19-1.75-.24-1.75.08-1.77.2-1.78-.62-1.73-.07-1.76.46-1.79-.83-1.71-.03-1.76-.22-1.75-.12-1.76.31-1.79-.07-1.77.09-1.78-.71-1.74.79-1.69-.26-1.74.55-1.63.88-1.52,1.58-.89,1.54-.96,1.51-1,1.68-.72,1.36-1.25,1.67-.74,1.65-.76,1.58-.88,1.47-1.07,1.42-1.15,1.62-.82,1.68-.71,1.32-1.34,1.86-.4,1.46-1.09,1.55-.93,1.49-1.04,1.68-.71,1.39-1.21,1.8-.49,1.39-1.22,1.67-.73,1.79-.5,1.51-1,1.62-.81,1.37-1.27,1.6-.83,1.77-.53,1.41-1.19,1.77-.53,1.52-.99,1.57-.89,1.52-.99,1.81-.47,1.59-.87,1.44-1.13,1.65-.76,1.55-.95,1.39-1.24,1.54-.88,1.69-.61,1.68-.63,1.46-1.04,1.42-1.11,1.74-.52,1.37-1.19,1.53-.91,1.88-.27,1.45-1.06,1.56-.86,1.49-.99,1.77-.48,1.48-1.02,1.4-1.16,2.03-.39,1.97-.61,2.11.04,1.73.54,1.65.88,1.84.05,1.8.24,1.71.62,1.71.61,1.73.56,1.85.02,1.79.3,1.69.71h1.86s1.69.74,1.69.74l1.7.7,1.81.19h1.86s1.7.67,1.7.67l1.71.63,1.74.51h1.86s1.75.46,1.75.46l1.75.48,1.71.68,1.52.38,1.05,1.12.76,1.24.86,1.36-.37,1.82.5,1.84-.53,1.82-.13,1.83-.03,1.83.38,1.84.08,1.83-.43,1.82.24,1.84-.3,1.82.02,1.83.42,1.84-.12,1.83v1.83s-.58,1.82-.58,1.82l.19,1.84-1.14,1.13-.55,1.53-1.37.79-1.22,1.39-1.59.87-1.63.8-1.24,1.37-1.45,1.07-1.38,1.16-1.72.68-1.37,1.19-1.5,1-1.71.69-1.51.99-1.23,1.38-1.56.91-1.28,1.31-1.39,1.15-1.62.83-1.51.96-1.31,1.26-1.67.75-1.34,1.22-1.68.74-1.29,1.3-1.5.99-1.53.95-1.69.72-1.52.96-1.04,1.66-1.66.77-1.37,1.18-1.86.48-1.16,1.48-1.68.74-1.18,1.46-1.74.66-1.49,1.01-1.24,1.38-1.48,1.03-1.58.89-1.61.84-1.27,1.33-1.58.89-1.51.98-1.63.82-1.47,1.04-1.38,1.17-1.51,1-1.46,1.06-1.64.81-1.07,1.63-1.77.62-1.54,1.02-1.47,1.16-1.76.67-1.69.55ZM42.52,60.15l1.37-1.43,1.7-.72,1.32-1.31,1.5-1.02,1.9-.4,1.17-1.55,1.74-.67,1.6-.88,1.46-1.1,1.6-.87,1.55-.95,1.42-1.17,1.69-.74,1.54-.97,1.45-1.11,1.69-.74,1.2-1.5,1.86-.48,1.57-.93,1.4-1.2,1.38-1.22,1.85-.48,1.31-1.35,1.8-.57,1.43-1.16,1.64-.83,1.13-1.63,1.88-.45,1.58-.94,1.39-1.23,1.49-1.03,1.46-1.08,1.64-.8,1.7-.71,1.26-1.4,1.56-.93,1.84-.48,1.15-1.58,1.58-.9,1.48-1.06,1.53-.98,1.76-.61,1.56-.93,1.65-.8,1.22-1.48,1.9-.4,1.3-1.34,1.6-.87,1.41-1.18,1.59-.89,1.51-.89-1.68-.28-1.67-.67-1.81-.06-1.68-.63-1.68-.6-1.72-.46-1.77-.24-1.79-.15-1.7-.51-1.67-.63-1.84.08-1.6-.97-1.78-.19-1.74-.36-1.77-.24-1.69-.61-1.82-.04-1.68-.85-1.45,1.24-1.68.74-1.81.52-1.53,1.02-1.64.83-1.38,1.29-1.62.86-1.79.55-1.42,1.22-1.78.56-1.53,1.02-1.59.92-1.53,1.02-1.83.5-1.61.9-1.46,1.16-1.66.73-1.56.93-1.41,1.21-1.58.88-1.73.61-1.72.63-1.49,1.04-1.45,1.12-1.77.53-1.41,1.2-1.56.92-1.91.28-1.47,1.08-1.58.87-1.51,1.01-1.79.5-1.49,1.04-1.41,1.18-1.76.57-1.39,1.21-1.47,1.07-1.64.77-1.81.48-1.39,1.22-1.48,1.05-1.67.72-1.67.73-1.64.78-1.36,1.26-1.5,1.02-1.71.65-1.34,1.28-1.73.63-1.71.67-1.44,1.12-1.33,1.31-1.7.56,1.6.66,1.65.54,1.79.04,1.67.5,1.66.52,1.61.72,1.72.31,1.61.73,1.68.49,1.8.03,1.61.77,1.95-.04,1.68.95,1.79.57,1.81.48,1.92.07,1.84.37,1.71.86,1.88.21,1.74.74,1.9.58ZM51.73,62.57l1.3-1.42,1.7-.74,1.32-1.33,1.5-1.04,1.9-.42,1.16-1.56,1.73-.69,1.6-.9,1.45-1.12,1.6-.89,1.55-.97,1.41-1.18,1.69-.76,1.54-.99,1.45-1.13,1.68-.76,1.19-1.52,1.86-.5,1.57-.95,1.39-1.22,1.38-1.24,1.86-.5,1.3-1.37,1.8-.6,1.43-1.18,1.61-.81,1.1-1.61,1.86-.43,1.55-.92,1.36-1.21,1.47-1.03,1.45-1.07,1.62-.8,1.68-.71,1.24-1.4,1.54-.93,1.83-.48,1.13-1.57,1.56-.9,1.46-1.06,1.52-.97,1.74-.61,1.54-.92,1.63-.79,1.2-1.47,1.88-.4,1.29-1.34,1.58-.87,1.39-1.18,1.58-.89,1.49-.88-1.71-.32-1.7-.7-1.76-.09-1.52.72-1.59.78-1.51.9-1.39,1.09-1.34,1.17-1.54.85-1.6.75-1.22,1.36-1.79.45-1.37,1.13-1.46.99-1.39,1.09-1.6.77-1.29,1.27-1.73.57-1.32,1.28-1.62.81-1.75.6-1.45,1.08-1.56.89-1.28,1.34-1.54.92-1.73.63-1.33,1.27-1.72.63-1.45,1.07-1.51.98-1.45,1.07-1.77.57-1.52.96-1.36,1.21-1.59.85-1.47,1.04-1.31,1.31-1.51.98-1.67.72-1.66.74-1.41,1.14-1.37,1.21-1.73.64-1.32,1.28-1.49,1.01-1.88.39-1.4,1.15-1.53.96-1.45,1.08-1.76.59-1.43,1.12-1.35,1.25-1.73.65-1.34,1.28-1.34,1.06,1.28.1,1.37.93,1.63.02,1.63.62ZM53.01,71.08l1.5-1.39,1.67-.72,1.29-1.31,1.48-1.03,1.88-.41,1.14-1.55,1.71-.67,1.57-.89,1.43-1.1,1.57-.88,1.52-.96,1.39-1.17,1.66-.74,1.51-.97,1.42-1.12,1.66-.75,1.17-1.5,1.83-.49,1.54-.93,1.37-1.2,1.36-1.23,1.84-.49,1.29-1.35,1.78-.58,1.41-1.16,1.62-.82,1.11-1.62,1.86-.45,1.55-.94,1.37-1.23,1.48-1.05,1.45-1.09,1.63-.82,1.69-.72,1.25-1.41,1.55-.94,1.84-.5,1.14-1.59,1.57-.92,1.47-1.08,1.52-.99,1.76-.63,1.55-.94,1.64-.81,1.2-1.49,1.89-.41,1.29-1.36,1.59-.89,1.39-1.19,1.58-.91,1.54-.98,1.46-.99.27-1.73-.34-1.81.25-1.8-1.6.77-1.52.9-1.4,1.09-1.35,1.17-1.55.85-1.62.75-1.23,1.36-1.8.45-1.38,1.13-1.47.98-1.4,1.09-1.61.77-1.29,1.26-1.73.56-1.29,1.27-1.59.8-1.72.59-1.41,1.07-1.53.88-1.25,1.33-1.52.91-1.7.62-1.3,1.26-1.7.63-1.42,1.07-1.49.97-1.43,1.07-1.74.58-1.49.96-1.33,1.21-1.57.86-1.45,1.04-1.27,1.31-1.48.98-1.65.73-1.64.74-1.38,1.14-1.34,1.21-1.7.64-1.29,1.28-1.47,1.02-1.86.4-1.38,1.16-1.5.96-1.42,1.08-1.73.6-1.4,1.12-1.32,1.25-1.7.65-1.3,1.27-1.39,1.14-1.58.85-1.86.66.43,2.08.26,1.98-.33,2.19ZM84.18,76.76l1.17-1.41,1.63-.77,1.23-1.34,1.42-1.06,1.84-.45,1.07-1.57,1.67-.71,1.52-.92,1.37-1.13,1.53-.92,1.47-.99,1.33-1.2,1.62-.78,1.46-1.01,1.36-1.14,1.61-.78,1.1-1.53,1.79-.53,1.49-.97,1.31-1.23,1.29-1.25,1.8-.53,1.21-1.38,1.74-.63,1.3-1.21,1.53-.89.96-1.65,1.79-.53,1.45-1,1.24-1.27,1.37-1.1,1.35-1.15,1.53-.87.37-1.76-.45-1.8.11-1.77.63-1.76-.66-1.8.14-1.78-.05-1.79.05-1.78.48-1.77.11-1.78.12-2.06-1.48,1.46-1.84.37-1.25,1.32-1.55.85-1.35,1.16-1.53.86-1.49.94-1.45.99-1.63.72-1.29,1.25-1.61.76-1.59.77-1.51.9-1.39,1.09-1.34,1.17-1.55.85-1.61.75-1.22,1.36-1.8.46-1.37,1.14-1.47.99-1.41,1.1-1.62.79-1.31,1.28-1.75.59-1.3,1.29-1.6.82-1.73.61-1.43,1.08-1.55.9-1.26,1.35-1.53.93-1.71.64-1.31,1.28-1.71.65-1.43,1.09-1.49.99-1.43,1.08-1.75.59-1.51.97-1.35,1.22-1.57.86-1.46,1.05-1.28,1.31-1.49.99-1.66.73-1.65.75-1.4,1.15-1.35,1.22-1.71.65-1.31,1.29-1.48,1.03-1.98.53.21,1.99v1.84s.18,1.84.18,1.84l-.42,1.84.2,1.83.36,1.84-.35,1.84.39,1.83.22,1.84-.12,1.84-.46,1.85.38,1.84.04,1.59,1.28-.82,1.58-.85,1.55-.9,1.24-1.35,1.4-1.11,1.64-.76,1.23-1.37,1.66-.74,1.64-.78,1.34-1.21,1.22-1.38,1.62-.79,1.6-.83,1.52-.94,1.22-1.37,1.5-.98,1.51-.96,1.63-.8,1.39-1.14,1.62-.78,1.42-1.14ZM50.13,74.21l-2.03-.22-1.65-.88-1.88-.22-1.77-.54-1.4-1.15-.66-1.47.32-1.67.07-1.67-.19-1.66.06-1.71-1.72-.52-1.76-.25-1.62-.74-1.7-.48-1.74-.32-1.62-.74-1.87.13-1.54-1.04-1.68-.53-1.77-.22-1.78-.19-1.54-1.04-1.82-.05-1.57-.93-1.76-.27-1.65-.65-1.91.27-1.53-1.08-1.69-.52-1.78-.19-1.73-.4-1.54-.39-.02,1.63-.21,1.82.61,1.78.05,1.81-.48,1.84.82,1.77.02,1.82.21,1.8.1,1.81-.33,1.83.05,1.81-.11,1.82.7,1.78-.58,1.85.54,1.79-.02,1.82.34,1.75,1.6.47,1.75.51,1.77.46,1.67.78,1.85.18,1.68.74,1.68.72,1.72.59,1.79.37,1.81.29,1.7.65,1.66.77,1.88.08,1.55,1.11,1.79.35,1.74.52,1.78.41,1.66.77,1.84.22,1.58,1.01,1.84.22,1.67.75,1.58.99,1.76.45,1.7.67,1.64.29v-1.74s.38-1.81.38-1.81l-.39-1.8.36-1.81-.16-1.8-.05-1.81-.16-1.8.43-1.81-.02-1.81-.32-1.8.1-1.81-.12-1.81.05-1.96ZM50.16,71.51l-.41-2.13.3-1.96-.34-1.77-1.43-.25-1.43-1.1-1.8.21-1.49-.81-.05,1.94.21,1.95-.05,1.99,1.59.5,1.63.23,1.49.72,1.78.48Z"/>
      <polygon points="28.18 42.71 28.67 44.18 27.03 44.75 25.36 45.28 23.71 45.86 22.04 46.38 21.53 44.89 23.2 44.34 24.86 43.8 26.52 43.24 28.18 42.71"/>
      <polygon points="27.27 47.64 25.26 48.11 23.24 48.56 21.21 49.02 22.3 47.55 23.91 46.68 25.75 46.64 27.27 47.64"/>
      <polygon points="48.53 48.89 47.23 48.56 47.78 47.49 48.63 46.9 49.52 47.76 48.53 48.89"/>
      <polygon points="89.59 9.32 90.55 10.27 89.61 11.25 88.65 12.22 87.69 11.27 88.64 10.3 89.59 9.32"/>
      <polygon points="95.51 13.89 96.7 14.22 96.16 15.3 94.82 15.26 95.51 13.89"/>
      <polygon points="94.22 7.36 95.12 8.44 93.42 9.84 92.53 8.76 94.22 7.36"/>
      <polygon points="126.96 37.95 128.47 38.5 128 39.86 127.51 41.2 126 40.66 126.48 39.31 126.96 37.95"/>
      <polygon points="125.01 41.51 124.06 39.65 125.41 38.46 125.21 39.98 125.01 41.51"/>
      <polygon points="126 34.95 124.07 34.6 124.97 33.86 126.37 33.65 126 34.95"/>
      <polygon points="30.23 87.79 28.52 87.31 26.82 86.85 25.12 86.37 23.42 85.91 21.71 85.47 19.99 85.06 18.28 84.61 16.57 84.14 14.87 83.64 13.14 83.23 12.14 82.39 12.76 80.86 14.43 81.37 16.12 81.76 17.79 82.26 19.48 82.68 21.17 83.08 22.87 83.49 24.53 84 26.22 84.45 27.93 84.82 29.62 85.27 30.58 85.93 30.23 87.79"/>
      <polygon points="42.74 91.35 41.03 90.87 39.3 90.46 37.58 90.02 35.87 89.51 34.13 89.1 32.8 87.94 34.11 86.58 35.92 87.11 37.73 87.59 39.55 88.08 41.37 88.57 43.18 89.11 44.37 90.46 42.74 91.35"/>
    </g>
  </g>
</svg>