<?xml version="1.0" encoding="UTF-8"?>
<svg id="Layer_2" data-name="Layer 2" xmlns="http://www.w3.org/2000/svg" viewBox="0 0 152.87 139.31">
  <g id="Layer_1-2" data-name="Layer 1">
    <path d="M112.04,128.93l-1.74.41-1.67.75-1.88-.24-1.71.55-1.67.78-1.87-.22-1.64.91-1.77.27-1.72.53-1.83-.02-1.83-.02-1.73.47-1.64.91-1.8.15-1.78.25-1.69.68-1.76.33-1.79.22-1.79.19-1.81.13-1.65.84-1.8.14-1.81.12-1.74.45-1.64.94-1.87-.14-1.75.99-1.39-1.52-1.9-.13-1.61-.74-1.47-1.06-1.72-.5-1.64-.69-1.61-.75-1.43-1.15-1.87-.18-1.31-1.41-1.81-.3-1.58-.81-1.68-.6-1.55-.88-1.73-.49-1.69-.59-1.39-1.24-1.73-.5-1.7-.57-1.53-.96-1.55-.9-1.59-.8-1.83-.31-1.55-.89-1.36-1.3-1.7-.59-1.5-1-1.71-.56-1.47-1.06-1.63-.72-1.64-.71-1.57-.85-1.96-.05-1.59-.83-1.65-.7-1.39-1.24-1.63-.74-1.62-.76-1.16-1.3-1.41-1.04-.13-1.8.42-1.8-.55-1.79.52-1.8.07-1.8-.15-1.8-.67-1.8.3-1.8-.2-1.8.71-1.81-.28-1.8-.23-1.8.46-1.81-.81-1.8.24-1.81.2-1.81.18-1.81-.64-1.8-.03-1.81.75-1.81-.63-1.8.06-1.81.25-1.81.27-1.81-.23-1.81-.1-1.81.12-1.81-.47-1.81.06-1.81.06-1.75-.15-1.75-.19-1.75.78-1.74-.37-1.75-.08-1.75.16-1.75.41-1.75-.68-1.76.36-1.75-.2-1.75.38-1.75-.38-1.76.26-1.74.14-1.74.33-1.74.12-1.74-.69-1.77-.06-1.75.46-1.73-.02-1.74.41-1.74.19-1.74-.44-1.76.02-1.75.47-1.73.09-1.75-.09-1.76-.37-1.77,1.23-1.5,1.66-.59,1.84-.31,1.84-.3,1.85.1h1.85s1.84-.29,1.84-.29l1.86.68,1.84-.5,1.84-.26,1.85.44,1.85.25,1.83-.66,1.86.37,1.84-.53,1.86.53,1.84-.36,1.86.25,1.84-.77,1.82.19,1.81-.28,1.82.03,1.81-.12h1.82s1.84.51,1.84.51l1.82-.13,1.8-.55,1.83.3,1.83.21,1.82-.11,1.8-.56,1.83.24,1.82-.15,1.83.3,1.81-.42,1.83.13,1.81-.38,1.84.52,1.8-.76,1.83.31,1.82-.13,1.82-.13,1.83.1,1.81-.32,1.84.47,1.81-.59,1.84.11,1.82.21,1.83-.38,1.81.21,1.81.12,1.79.74,1.83-.19,1.84-.34,1.8.4,1.82-.07h1.82s1.82.06,1.82.06l1.81.25,1.83-.12,1.83-.08,1.81.38,1.83-.07,1.81.32,1.84-.52,1.8.74,1.83-.26,1.81.37,1.84-.33,1.8.55,1.82.14,1.85-.57,1.82.03,1.8.79,1.86-.62,1.8.65,1.81-.1,1.77.39,1.81.03,1.8.13,1.77.49,1.64.02.25,1.58.02,1.78.19,1.77.58,1.74-.41,1.81.04,1.75.34,1.76.16,1.76-.54,1.78.76,1.75-.16,1.77-.11,1.77-.31,1.77.93,1.74.02,1.77-.55,1.78.18,1.76.45,1.76-.28,1.77-.23,1.77-.13,1.77v1.76s.46,1.76.46,1.76l-.13,1.77.2,1.76.07,1.77-.33,1.78.76,1.75-.77,1.79.52,1.76.1,1.8-.47,1.81.49,1.79.29,1.8-.36,1.81.12,1.8.4,1.8-.76,1.82.6,1.79-.56,1.82.13,1.8.64,1.79-.62,1.82.04,1.8.42,1.8.18,1.8-.15,1.81-.34,1.82.64,1.8.06,1.81-.49,1.76-.15,1.76.38,1.75.22,1.76.22,1.76-.47,1.76-.05,1.76-.17,1.75.44,1.76-.15,1.76.12,1.76.2,1.76-.04,1.76-.58,1.77.6,1.76-.31,1.66-1.72.07-1.62,1.05-1.84-.04-1.65.89-1.88-.22-1.77.31-1.79.2-1.66.85-1.71.63-1.76.38-1.77.34-1.87-.16-1.81.11-1.74.46-1.64.91-1.81.12-1.73.51-1.76.37-1.85-.02-1.63,1-1.91-.35-1.74.5-1.74.51ZM15.45,32.73l1.7-.83,1.57-1.15,1.99-.24,1.65-.96,1.56-1.18,1.99-.25,1.51-1.3,2.06.41,1.73,1.15.52,1.68.52,1.68.95,1.43,1.35,1.2.7,1.63.79,1.58,1.17,1.36.86,1.54.76,1.6.73,1.61.68,1.65,1.31,1.27.69,1.64.67,1.65.96,1.48,1.4,1.23.44,1.79,1.43,1.21.19,1.94,1.48,1.19.88,1.51,1.72.36,1.51-1.01.64-1.65.67-1.63,1.04-1.5-.02-1.87,1.2-1.5-.06-1.84.38-1.73.02-1.77.17-1.76-.4-1.95v-2.08s1.56-1.4,1.56-1.4l1.4-1.05,1.79-.36,1.68.61,1.73-.17,1.72-.28,1.62-.82,1.74-.19,1.81.26,1.68-.51,1.76-.07,1.67-.54h1.77s1.7-.37,1.7-.37l1.7-.39,1.74-.23,1.32-.96-.03-1.58-.09-1.84.51-1.85-.04-1.84-.02-1.85.42-1.85-.46-1.85-.11-1.85.43-1.84-.54-1.85.53-1.84.08-1.85-.13-1.85-.66-1.85.32-1.85-.18-1.85.59-2.17-2.09.18-1.76.27-1.78-.42-1.74.85-1.78-.21-1.77-.16-1.77-.14-1.75.68-1.76.07-1.79-.71-1.75.67-1.77-.02-1.78-.21-1.78-.24-1.77.26-1.77.13-1.85-.07-.24,1.95-.56,1.63-.56,1.63-.44,1.67-.53,1.67-1.52,1.11-.76,1.61.03-1.95.47-1.84.85-1.71-.1-2,.93-1.67.49-1.66-1.72-.29-1.74.46-1.77-.13h-1.76s-1.77-.21-1.77-.21h-1.76s-1.73.83-1.73.83l-1.76.19-1.78-.33-1.76.15-1.78-.28-1.77-.06-1.74.57-1.76.11-1.78-.34-1.76.04-1.76.22-1.74.5-1.79-.39-1.77.09-1.76.34-1.77.25-1.77-.16-1.77-.05-1.77.23-1.77-.74-1.78.44-1.53.11-.43,1.6-.34,1.83.57,1.86-.46,1.83.44,1.85-.61,1.83.27,1.85-.33,1.84.68,1.86-.28,1.84.19,1.85-.13,1.85.03,1.85-.06,1.81-.57,1.81.07,1.81.48,1.81-.36,1.81-.28,1.81.05,1.81.5,1.81-.3,1.81.09,1.81-.37,1.81.36,1.81-.19,1.81.32,1.81-.59,1.81.7,1.82-.37,1.81.07,1.82.02,1.71,1.82-.11,1.88-.5,1.97.29,1.85-.77,1.93-.07,1.94-.1-.44-1.79.15-1.78.06-1.77.68-1.78-.25-1.78-.41-1.79.42-1.85-.06-1.87v-1.87s.09-1.86.09-1.86l.26-1.86-.11-1.88-.07-1.87.39-1.86-.06-1.88.21-1.86ZM117.51,31.74l-.93-1.67-1-1.7.12-2.02-.6-1.82-.92-1.69-.8-1.71-1.49,1.23-1.68.86-1.84.48-1.75-.72-1.29-1.2-1.19-1.19-1.41-1.28-.61-1.74-.57-1.73-.87-1.64-.41-1.79-.19-1.82-.07-1.83.07-1.82-.6-1.78.09-1.95-1.7-.36-1.68-.02-1.71.49-1.64-.62-1.71.53-1.63-.91-1.54.51.06,1.69-.35,1.85.27,1.85.07,1.84v1.85s-.45,1.85-.45,1.85l.62,1.85-.73,1.85.49,1.84-.07,1.85.16,1.84-.14,1.85.28,1.85.17,1.85-.55,1.85.27,1.85.14,1.67,1.45.69,1.65.72,1.68.62,1.86.11,1.65.71,1.5,1.14,1.76.4,1.61.82,1.77.37,1.59.89,1.71.54,1.71.52,1.67.67,1.96-.17,1.67.65,1.73.51,1.53,1.07,1.71.56,1.71.58,1.56.99,1.9.21,1.78.53,1.6,1.05,1.93.13,1.57,1.14,1.72.72,1.79.51,1.98.02,1.65.94,1.73.45.46-1.57-.36-1.84-.4-1.81.2-1.9-1.13-1.66-.17-1.84-.31-1.83-.42-1.81-1.29-1.46-.85-1.59-.42-1.95-1.76-.84-1.58-.71-1.89-.06-1.91.38-1.65.97-1.7.81-1.82.38-1.87.46-1.74-.88-1.18-1.5ZM136.42,32.29l.96,1.52,1.18,1.44.16,1.91.79,1.62.93,1.61-.16,1.9.88,1.67.15,1.81.33,1.79-.3,1.83-.38,1.8.16,2.03,1.85.09,1.51.78,1.55.69,1.7.27,1.39.64.02-1.6.13-1.77.19-1.77-.54-1.75.18-1.77.2-1.77-.13-1.76-.64-1.75.47-1.78-.68-1.74.76-1.79-.73-1.74-.05-1.77.3-1.78-.32-1.76-.12-1.77-.04-1.77.4-1.78-.64-1.86.71-1.88-.51-1.87.05-1.87-.18-1.87.13-1.88-.3-1.87-.19-1.87.53-1.89-.26-1.79-1.7.16-1.77-.31-1.78-.21-1.79-.11-1.81.44-1.78-.2-1.76-.66-1.8.13-1.78-.32-1.8.16-1.77-.39h-1.79s-1.79-.01-1.79-.01l-1.79-.16-1.82.73-1.79-.14h-1.79s-1.76-.57-1.76-.57l-1.79-.04-1.79-.06-1.77-.49-1.81.38-1.79.04-1.78-.5-1.82.47-1.87-.59-.23,2.1.3,1.78.89,1.68v1.81s.58,1.7.58,1.7l-.21,1.92.83,1.63.9,1.57.48,1.82,1.75.85,1.34.98,1.85-.26,1.78-.67,1.72-1.05,2,.54.7,1.9,1.17,1.58.29,1.9.09,1.93.25,1.96,1.11,1.67,1.49,1.29,1.85.3,1.53-1.02,1.64-.67,1.65-.67,1.64-.74,1.78-.52,1.72.89,1.73.31,1.44,1.08.96,1.52ZM51.81,62.66l-1.68-.06-1.69.28-1.22-2.64-1.04-1.4-1.24-1.28-.36-1.8-1.36-1.21-.8-1.55-1.03-1.41-.55-1.69-.55-1.7-.97-1.44-1.36-1.21-.69-1.61-.78-1.56-1.14-1.32-.83-1.51-.73-1.56-.7-1.58-.65-1.61-1.28-1.24-.66-1.61-.65-1.62-1.11-1.59-1.59,1.29-1.84.27-1.36,1.31h-1.96s-1.35,1.35-1.35,1.35l-1.63.74-1.83.47.18,1.8v1.72s-.06,1.71-.06,1.71l-.51,1.7.56,1.74-.79,1.7.46,1.89-.1,1.88.14,1.88-.17,1.88.26,1.88.15,1.89-.57,1.88.25,1.89.17,1.89-.26,1.91-1.77.31-1.69.31-1.61.8-1.73.12-1.78-.38-1.69.36-1.73-.12-1.8.41-.31,1.85.07,1.82.08,1.82-.08,1.82.81,1.82-.06,1.82.1,1.82-.5,1.83.04,1.82.03,1.82-.41,1.82.46,1.82.12,1.82-.42,1.82.55,1.82-.52,1.82-.08,1.82.14,1.82.66,1.82-.31,1.83.19,1.83-.69,1.98,2.18-.57,1.61-.83,1.85-.22,1.36-1.42,1.75-.48,1.72-.56,1.71-.61,1.32-1.37,1.57-.86,1.94-.21,1.24-1.44,1.56-.88,1.65-.76,1.65-.78,1.35-1.22,1.39-1.15,1.5-1.01,1.1-1.49,1.41-1.12,1.36-1.17,1.19-1.35,1.12-1.41,1.79-.77.93-1.59,1.1-1.42,1.26-1.29,1.43-1.17.52-1.85,1.32-1.26.83-1.61,1.28-1.32.6-1.74,1.06-1.46.93-1.54,1.06-1.48.84-1.6.34-1.84ZM147.17,58.2l-1.74-.6-1.84-.26-1.5-1.21-1.77-.45-1.86-.23-1.5-1.19-1.9-.11-1.68-.72-1.77-.47-1.58-1-1.57-1-1.75-.53-1.9-.11-1.64-.84-1.67-.74-1.82-.32-1.7-.66-1.67-.77-1.66-.8-1.67-.84-1.91-.15-1.67-.83-1.67-.85-1.77-.53-1.94-.06-1.58-1.1-1.95-.02-1.48-1.38-1.97.03-1.75-.61-1.64-.94-1.83-.36-1.77-.55-1.75-.62-1.68-1.06-1.76.96-1.94-.37-1.71.82-1.82.27-1.77.51-1.83.2-1.75.62-1.77.52-1.92-.19-1.65.5,1.66.3,1.6.85,1.63.76,1.67.66,1.86.14,1.64.74,1.48,1.17,1.75.43,1.59.85,1.76.4,1.57.92,1.7.57,1.71.55,1.65.7,1.96-.13,1.66.68,1.71.54,1.51,1.1,1.7.59,1.69.61,1.54,1.02,1.84.2,1.72.52,1.54,1.03,1.87.12,1.5,1.12,1.65.7,1.73.5h1.91s1.57.93,1.57.93l1.75.45,1.44,1.3,1.78.38,1.77.42,1.53,1.07,1.86-.15,1.75-.17,1.84-.23,1.84-.25,1.64-1.04,1.79-.45,1.98.3,1.65-1.03,1.82-.37,1.86-.18,1.78-.57ZM70.61,47.23l.55-1.48-.12-1.1-1.38-1.17-1.67-.43-1.75-.21-1.4-1.16-1.8-.08-1.57-.69-1.62.82.69,1.79,1.54.99,1.71.52,1.87.09,1.6.83,1.64.73,1.71.56ZM73.87,45.07l-.6,1.75-.28,1.54,1.23.98,1.75.45,1.83.23,1.48,1.19,1.88.11,1.65.72,1.75.47,1.55.99,1.55,1,1.72.53,1.88.11,1.61.84,1.64.74,1.8.32,1.67.66,1.64.77,1.63.8,1.6.86,1.86.17,1.61.85,1.9.85.76-1.97.1-1.72-1.35-.97-1.9-.04-1.4-1.39h-1.92s-1.68-.62-1.68-.62l-1.56-.96-1.78-.38-1.71-.57-1.68-.64-1.53-1.05-1.9-.05-1.43-1.31-1.85-.17-1.66-.7-1.74-.48-1.64-.77-1.79-.37-1.75-.47-1.5-1.15-1.79-.38-1.66-.77ZM123.87,70.55l-1.73-.61-1.85-.29-1.49-1.23-1.78-.48-1.86-.26-1.5-1.21-1.91-.14-1.68-.75-1.78-.5-1.58-1.02-1.71-1.05-.69,2.14.15,1.94-.62,1.77-.57,1.78-.23,1.88-.71,1.74-.98,1.6-1.2,1.42-.78,1.44-.02-1.79.69-1.72.71-1.71.39-1.79-.1-1.92.97-1.64-.14-1.94,1.26-1.57-.17-1.79-1.57-.54-1.57-.98-1.79-.4-1.71-.59-1.69-.66-1.53-1.07-1.91-.07-1.43-1.33-1.86-.2-1.67-.72-1.75-.5-1.64-.79-1.79-.39-1.75-.49-1.5-1.16-1.79-.4-1.76-.47-1.61-.87-1.65-.78-1.76-.68-.12,1.78-.67,1.51-1.04,1.25-.63.14.55-1.66.08-1.8.58-1.98-1.78-.71-1.55-.49-1.5-.64-1.81.19-1.39-.6.09,1.49-.88,1.64-.39,1.75-.44,1.73-.9,1.59-.11,1.84-.47,1.73-1.02,1.53-.16,1.86-1.19,1.44-.81,1.59-.65,1.66-.23,1.89-1.13,1.43-.73,1.65-1.54,1.16-.73,1.65-.81,1.61-1.4,1.2-.41,1.92-1.29,1.27-1.28,1.27-1.29,1.24-.7,1.76-1.2,1.34-1.78.77-.82,1.7-1.34,1.2-1.49,1.02-1.54.99-1.25,1.33-1.36,1.2-1.52.99-1.21,1.43-1.54.97-1.55.95-1.46,1.09-1.47,1.1-1.96.22-1.42,1.19-1.58.91-1.7.66-1.81.4-1.38,1.37-1.81.39-1.6.88-1.83.32-1.51.72,1.44.91,1.54.83,1.45,1.01,1.54.82,1.9.09,1.62.65,1.4,1.13,1.6.69,1.42,1.08,1.52.88,1.79.31,1.59.73,1.4,1.13,1.56.79,1.64.63,1.77.38,1.38,1.18,1.62.73,1.72.5,1.72.51,1.55.87,1.6.77,1.71.52,1.31,1.4,1.8.33,1.7.54,1.41,1.18,1.49,1.01,1.87.18,1.44,1.12,1.81.3,1.37,1.26,1.75.46,1.49,1.01,1.92.09,1.52.97,1.54.5,1.57-.68,1.67-.86,1.71-.74,1.94-.29,1.66-.87,1.49-1.24,1.85-.48,1.81-.55,1.68-.85,1.49-1.26,1.83-.54,1.51-.98,1.72-.62,1.32-1.27,1.6-.84,1.29-1.29,1.79-.59,1-1.65,1.63-.83,1.34-1.2,1.31-1.23,1.43-1.09,1.12-1.42,1.65-.88.87-1.66,1.35-1.19,1.3-1.25.83-1.65,1.25-1.29,1.15-1.37,1.62-1.03.85-1.61.68-1.71,1.26-1.32.83-1.6.85-1.58.88-1.57,1.01-1.5.64-1.69.64-1.68,1.02-1.51.57-1.71.9-1.58.07-1.89,1.22-1.48.23-1.81.79-1.64.08-1.84.88-1.64.45-1.75.02-1.84ZM121.94,66.73l.65-1.7.33-1.5-1.26-.98-1.78-.45-1.86-.23-1.51-1.19-1.91-.11-1.69-.72-1.68-.45-.47,1.29-.25,2.09,1.69.55,1.8.09,1.52.82,1.55.72,1.72.31,1.59.65,1.54.82ZM127.98,66.67l-.54-1.2-1.2-.11-1.37-.05-.38,1.37.81.94.94.99.98-.96.77-.98Z"/>
  </g>
</svg>