<?xml version="1.0" encoding="UTF-8"?>
<svg id="Layer_2" data-name="Layer 2" xmlns="http://www.w3.org/2000/svg" viewBox="0 0 191.65 147.4">
  <g id="Layer_1-2" data-name="Layer 1">
    <g>
      <path d="M99.27,114.38l-1.54-.02-1.64-.74-1.68.61-1.44,1.62-.04,2.13-.71,1.87-.96,1.61-1.35,1.16-1.37,1.27-1.46,1.12-1.49,1.08-1.88.38-1.44,1.15-1.76.59-1.68.74-1.29,1.41-1.47,1.11-2.02.15-1.2,1.57-2.03.12-1.17,1.64-1.62.85-1.92.32-1.5,1.07-1.63.84-1.3,1.23-1.78.4-1.13,1.54-1.84.29-1.63.67-1.47.95-1.5.9-1.13,1.54-1.4,1.09-1.68.74-1.86-.97-1.8-.34-1.67-.86-1.79-.37-1.8-.35-1.78-.41-1.72-.64-1.88-.06-1.7-.7-1.61-.97-1.93.06-1.7-.69-1.86-.18-1.62-.95-1.81-.34-1.73-.58-1.73-.61-1.55-.73-1.77-.09-1.58-.67-1.6-.6-1.46-1.03-1.9.28-1.58-.66-1.49-.96-1.72-.27-1.42-1.03-.79-1.28-1.14-1.44-.07-1.77-.04-1.75.11-1.77.84-1.57.57-1.63,1.07-1.38,1.07-1.54.22-1.99,1.43-1.34.22-1.99,1.59-1.25.47-1.86,1.34-1.4,1.08-1.6-.25-1.95-.58-1.78.96-1.76-.14-1.78-.42-1.78-.25-1.78.77-1.76-.08-1.77-.29-1.78.39-1.76.37-1.75-.29-1.78.34-1.75.14-1.76.24-1.76-.5-1.81.08-1.78.33-1.63.88-1.39,1.55-.6,1.45-1.1,1.36-1.27,1.94-.17,1.55-.91,1.23-1.5,1.85-.33,1.75-.53,1.51-.98,1.73-.55,1.14-1.68,1.93-.17,1.47-1.06,1.7-.62,1.5-1.01,1.68-.67,1.27-1.42,1.94-.18,1.35-1.28,1.61-.8,1.49-1.03,1.82-.39,1.69-.66,1.37-1.26,1.82-.41,1.44-1.12,1.68-.67,1.46-1.08,1.35-1.28,1.63-.77,1.93-.2,1.18-1.62,1.69-.66,1.72-.6,1.81-.43,1.48-1.07,1.68-.67,1.27-1.45,1.9-.21,1.43-1.15,1.74-.54,1.66-.69,1.29-1.43,1.83-.36,1.48-1.05,1.81-.4,1.45-1.1,1.61-.79,1.65-.71,1.77-.46,1.21-1.57,1.84-.33,1.28-1.45,1.66-.69,1.88-.27,1.72-.57,1.16-1.68,1.72-.57,1.54-.94,1.82-.37,1.77-.48,1.57-.88,1.28-1.45,1.99-.05,1.37-1.27,1.76-.49,1.69-.64,1.44-1.13,1.64-.73,1.5-1.02,1.57-.88,1.44-1.13,1.73-.57,1.91-.2,1.53-.96,1.51-1.01,1.46-1.13,1.47-1.03,1.7-.54,1.88-.19,1.37-1.21,1.81-.31,1.43-1.1,1.37-1.21,1.93-.09,1.64-.69,1.2-1.57,1.87-.21,1.38-1.22,1.6-.87,1.91.58,1.74.78,1.95-.41,1.86.15,1.63,1.21,1.78.49,1.96-.24,1.61,1.11,2.09-.22.73,1.97.97,1.69.74,1.85.28,1.8.2,1.81-.4,1.91.58,1.76-.05,1.85.92,1.7-.04,1.85.95,1.7-.47,1.92.6,1.75.54,1.77-.21,1.89.38,1.8,1.37,1.19,1.16,1.35.78,1.66.83,1.62,1.49,1.09,1.47,1.11.52,1.88,1.38,1.18,1.35,1.2.71,1.72,1.43,1.14.59,1.75.92,1.62-.57,1.96.9,1.88-.46,1.92.58,1.95-.97,1.85.49,2.3-1.89.64-1.65.81-1.75.66-1.07,1.75-1.91.4-1.31,1.37-1.79.6-1.6.91-1.18,1.59-2.11.07-1.33,1.35-1.76.64-1.59.91-1.44,1.16-1.32,1.36-1.93.37-1.55.99-1.54,1-1.12,1.69-1.52,1.05-1.87.37-1.84-.07-1.93.42-1.9-.07-1.75-.78-1.3,1.29-1.2,1.25.3,1.86-.71,1.61-1.04,1.44-1.47.93-1.33,1.34-2.07.11-1.5,1.07-1.23,1.5-1.7.73-1.38,1.26-1.66.79-1.53,1.01-1.61.89-1.48,1.1-1.74.67-1.7.75-1.46,1.14-1.81.54-1.23,1.54-1.63.85-1.6.88-1.84.48-1.55.99-1.39,1.26-1.43,1.2-1.85.47-1.75.64-1.36,1.33-1.54,1.02-1.74.46h-1.49s-1.63.17-1.63.17l-1.6-.24ZM28.38,77.69l1.53-.9,2-.07,1.6-.85,1.59-.87,1.3-1.44,1.77-.52,1.74-.59,1.63-.8,1.42-1.21,1.5-1.05,1.52-1.01,1.88-.3,1.48-1.09,1.78-.51,1.7-.66,1.35-1.35,1.51-1.04,2.01-.06,1.27-1.52,2.03-.03,1.23-1.59,1.6-.83,1.9-.3,1.49-1.04,1.61-.82,1.38-1.25,1.84-.41,1.2-1.55,1.91-.3,1.69-.68,1.54-.96,1.56-.91,1.2-1.56,1.46-1.1,1.67-.71,1.86-.39,1.53-.97,1.79-.52,1.54-.97,1.51-1,1.54-.96,1.66-.76,1.36-1.29,1.67-.65,1.8-.4,1.3-1.37,1.66-.67,1.41-1.15,1.77-.45,1.48-1.02,1.59-.8,1.61-.78,1.68-.63,1.37-1.23,1.64-.69,1.61-.75,1.83-.35,1.19-1.58,1.64-.69,1.79-.41,1.45-1.07,1.83-.33,1.54-.9,1.29-1.39,1.65-.68,1.54-.91,1.5-.97,1.76-.47,1.56-.86,1.75-.5,1.68-.63,1.24-1.49,1.87-.26,1.25-1.48,1.95-.1,1.38-1.23,1.82-.36,1.67-.64,1.46-1.07,1.32-1.33,2.02.02,1.52-.96,1.38-1.22,1.46-1.07,1.93-.17,1.67-1.17-1.96-.25-1.62-.69-1.63-.65h-1.78s-1.64-.62-1.64-.62l-1.83-.41-1.78.71-1.31,1.34-1.56.84-1.51.95-1.59.79-1.86.25-1.46,1.06-1.37,1.23-1.93.11-1.56.86-1.26,1.46-1.85.28-1.75.48-1.52.94-1.74.5-1.17,1.64-1.93.12-1.48,1.02-1.7.57-1.51.96-1.68.62-1.3,1.39-1.93.12-1.37,1.24-1.61.76-1.5.99-1.83.34-1.69.61-1.36,1.22-1.79.36-1.43,1.08-1.67.62-1.46,1.04-1.35,1.24-1.61.73-1.9.15-1.18,1.58-1.68.61-1.7.56-1.79.38-1.47,1.02-1.67.63-1.25,1.45-1.88.21-1.4,1.15-1.72.54-1.64.68-1.26,1.42-1.81.36-1.46,1.05-1.79.4-1.43,1.1-1.59.79-1.63.71-1.76.46-1.2,1.57-1.84.36-1.27,1.47-1.66.72-1.88.29-1.72.6-1.14,1.7-1.72.6-1.53.97-1.83.4-1.77.51-1.56.9-1.27,1.47-1.99.08-1.36,1.3-1.76.52-1.69.67-1.43,1.16-1.64.76-1.49,1.05-1.56.91-1.43,1.16-1.72.6-1.91.23-1.53.99-1.5,1.03-1.44,1.15-1.48,1.08-1.73.6-1.91.25-1.39,1.26-1.96.45,1.99.86,1.82-.02,1.49,1.2,1.64.59,1.93-.31,1.44,1.17,1.66.16ZM98.35,102.32l1.51-1,1.99-.18,1.55-.93,1.54-.96,1.21-1.51,1.74-.62,1.7-.69,1.58-.89,1.34-1.28,1.43-1.13,1.46-1.09,1.86-.4,1.41-1.17,1.74-.61,1.65-.75,1.26-1.42,1.44-1.12,2-.17,1.17-1.58,2.01-.14,1.13-1.65,1.59-.87,1.9-.34,1.47-1.08,1.6-.86,1.35-1.28,1.83-.45,1.17-1.58,1.9-.34,1.68-.72,1.52-.99,1.55-.94,1.17-1.58,1.44-1.13,1.66-.75,1.85-.43,1.51-1.01,1.77-.55,1.52-1,1.49-1.04,1.52-.99,1.64-.79,1.33-1.32,1.66-.76,1.81-.52,1.25-1.46,1.58-.8,1.29-1.26,1.71-.59,1.38-1.13,1.51-.92,1.52-.9,1.61-.76,1.25-1.34,1.58-.82,1.54-.88,1.94-.73-1.84-1.13-.98-1.47-.73-1.66-1.32-1.21-.66-1.72-1.17-1.33-1.6-.99-.97-1.48-1.17-1.32-1.24-1.28-.79-1.63-.99-1.68-.23-1.93-.16-1.89-1.02-1.78.37-1.97-1.03-1.7.51-1.93-.75-1.74.22-1.89-.1-1.84-.57-1.77-.86-1.72.65-1.96-.44-1.8-.7-1.71-1.39,1.06-1.91.15-1.52.92-1.43,1.11-1.73.51-1.71.54-1.41,1.14-1.7.58-1.6.77-1.65.68-1.31,1.35-1.56.85-1.51.96-1.59.8-1.86.26-1.45,1.07-1.37,1.24-1.93.12-1.55.87-1.25,1.47-1.85.29-1.75.49-1.52.94-1.73.51-1.16,1.65-1.93.13-1.48,1.03-1.74.6-1.54.99-1.71.65-1.32,1.42-1.96.16-1.39,1.28-1.64.79-1.52,1.02-1.85.39-1.71.65-1.4,1.26-1.84.41-1.47,1.12-1.7.67-1.48,1.08-1.37,1.29-1.64.78-1.94.21-1.19,1.63-1.7.67-1.73.62-1.82.45-1.48,1.09-1.69.7-1.25,1.51-1.91.29-1.4,1.22-1.73.61-1.65.76-1.25,1.49-1.83.45-1.45,1.13-1.81.49-1.43,1.18-1.6.88-1.6.78-1.74.52-1.15,1.61-1.81.38-1.23,1.47-1.64.71-1.86.28-1.7.58-1.14,1.68-1.71.56-1.52.93-1.81.36-1.75.46-1.56.85-1.28,1.43h-1.97s-1.37,1.26-1.37,1.26l-1.75.46-1.68.6-1.44,1.1-1.63.7-1.5.99-1.56.86-1.44,1.11-1.71.54-2.18.56.4,1.92.45,1.78.58,1.76.5,1.77-.03,1.84-.42,1.89.7,1.75-.29,1.87.58,1.76.71,1.74-.53,1.91.13,1.82,1.1,1.7-.4,1.89.71,1.74.3,1.8-.09,1.85-.22,2,1.73,1.18,1.23,1.38.37,1.99,1,1.54,1.63,1.09.53,1.88,1.72,1.03.74,1.74,1.23,1.39,1.23,1.38,1.07,1.5,1.01,1.55.76,2.07,1.7-1.2,1.71-.6,1.22-1.46,1.71-.61,1.2-1.48,1.92-.23,1.38-1.17,1.41-1.12,1.79-.46,1.49-.98,1.38-1.17,1.52-.94,1.76-.51,1.73-.56,1.31-1.3,1.32-1.28,1.93-.22,1.38-1.17,1.4-1.15,1.81-.43,1.35-1.24,1.87-.33,1.2-1.5,1.91-.25,1.13-1.61,1.77-.5,1.22-1.46,1.97-.17,1.14-1.61,1.78-.49,1.64-.74,1.75-.61,1.18-1.48ZM104.4,110.32l1.32-.92,1.97-.11,1.54-.88,1.52-.92,1.2-1.48,1.71-.59,1.67-.66,1.55-.87,1.31-1.27,1.4-1.13,1.42-1.09,1.83-.4,1.37-1.17,1.7-.61,1.62-.76,1.22-1.43,1.4-1.13,1.98-.18,1.13-1.59,2-.15,1.09-1.65,1.56-.88,1.88-.35,1.44-1.09,1.57-.87,1.29-1.26.93-1.51-.32-1.88,1.06-1.47,1.41-.76,1.31-1.13,1.36-1.05,1.01-1.6,1.44-1.07,1.78-.43,1.78.45,1.6.46,1.45,1.55,1.62-1.07,1.45-1.05,1.47-1,1.6-.8,1.28-1.33,1.61-.77,1.76-.54,1.19-1.46,1.6-.8,1.31-1.26,1.73-.58,1.4-1.13,1.53-.92,1.54-.9,1.63-.75,1.27-1.33,1.59-.82,1.56-.88,1.92-.61-.82-1.91.13-1.74.45-1.75-.17-1.55-1.61.46-1.51,1.02-1.22,1.49-1.63.81-1.5,1.03-1.46,1.09-1.76.61-1.53.98-1.73.63-1.66.76-1.17,1.58-1.88.4-1.17,1.58-1.97.25-1.32,1.34-1.83.5-1.66.77-1.4,1.15-1.26,1.4-2.02.08-1.47,1.03-1.33,1.29-1.41,1.15-1.91.27-1.49,1.01-1.38,1.2-1.71.61-1.7.64-1.37,1.22-1.68.68-1.57.86-1.62.78-1.24,1.43-1.52.94-1.46,1.05-1.55.89-1.85.37-1.4,1.15-1.31,1.32-1.93.24-1.51.96-1.18,1.54-1.84.4-1.73.59-1.48,1.03-1.71.62-1.08,1.72-1.93.25-1.43,1.11-1.68.68-1.46,1.06-1.65.73-1.22,1.47-1.93.24-1.31,1.33-1.58.86-1.45,1.08-1.81.46-1.66.72-1.32,1.31-1.81.48-1.41,1.17-1.68.72-1.46,1.13-1.34,1.33-1.63.83-1.95.27-1.16,1.66-1.69.72-1.72.67-1.82.5-1.47,1.12-1.69.73-1.23,1.53-1.92.32-1.4,1.24-1.74.64-1.66.79-1.25,1.51-1.83.47-1.45,1.14-1.82.51-1.43,1.19-1.6.89-1.65.81-1.79.56-1.17,1.66-1.86.45-1.06,1.35.04,1.5-.5,1.8-.15,1.78,1.09,1.71-.27,1.61,1.32-1.05,1.83-.5,1.77-.61,1.56-.99,1.23-1.54,2.02-.18,1.34-1.37,1.77-.61,1.69-.76,1.42-1.24,1.64-.85,1.49-1.12,1.56-.99,1.42-1.24,1.74-.69,1.94-.33,1.52-1.06,1.5-1.11,1.43-1.23,1.47-1.16,1.74-.69,1.93-.35,1.38-1.33,1.87-.47,1.47-1.26.14-2.17,1.32-1.79.66-1.9.88-1.53,1.88-.5,1.25-1.43,1.51-1.05,1.76-.63,1.82-.21,1.72-.82,1.8.88.69,1.65ZM45.34,142.85l-.23-1.45.81-1.66-.06-1.64-.09-1.64-.72-1.56-.75-1.63-.84-1.64-1.04-1.5-1.41-1.24-1.26-1.34-1.22-1.36-.58-1.83-1.29-1.32-.77-1.69-.91-1.6-1.54-1.14-1.26-1.35-.36-2-1.73-1.12.66-1.94-1.06-1.65-.15-1.75.45-1.83-.39-1.73-.14-1.76-.62-1.7.33-1.81-.97-1.66.45-1.83.02-1.77-.29-1.74-.24-1.75-.98-1.66-.46-1.72-.02-1.77.35-1.82-.32-1.75.17-1.94-2.12-.81-1.85-.46-1.84-.47-1.79-.64h-1.95s-1.81-.59-1.81-.59l-2.33-.53.53,1.97-.21,1.77.33,1.79-.47,1.76.17,1.78-.07,1.77-.1,1.78-.27,1.77.41,1.79-.19,1.77-.12,1.77-.58,1.76.81,1.81-.19,1.77-.51,1.77.23,1.79-.59,1.7-.72,1.62-.25,1.93-.97,1.58-.74,1.69-.67,1.73-1.18,1.48-.79,1.67-1.15,1.49-1.02,1.56-.16,1.99-1,1.38.69,1.67-.67,1.7.63,1.41,1.51,1,1.64.71,1.78.25,1.88-.03,1.42,1.43,1.75.37,1.84.1,1.79.25,1.49,1.22,1.75.4,1.81.2,1.64.83,1.64.8,1.84.16,1.66.76,1.71.55,1.69.64,1.91-.07,1.75.47,1.78.35,1.73.52,1.56,1.1,1.82.24,1.62.33Z"/>
      <polygon points="137.66 53.79 138.79 55.93 137.19 56.78 135.67 57.74 134.07 58.57 132.43 59.32 130.95 60.36 129.41 61.29 127.77 62.04 126.22 62.96 124.67 63.89 123.02 64.62 121.45 65.5 119.96 66.54 118.36 67.37 116.7 68.1 115.21 69.12 113.55 69.85 112.01 70.8 110.53 71.84 108.89 72.61 107.28 73.43 105.79 74.45 104.21 75.32 102.56 76.08 101.01 77 99.45 77.91 97.79 78.64 96.23 79.56 94.64 80.43 93.1 81.37 91.53 82.29 90.53 80.25 91.91 79.27 93.59 78.59 95.16 77.7 96.64 76.67 98.28 75.91 99.82 74.99 101.31 73.97 103.03 73.33 104.58 72.42 106.07 71.4 107.69 70.6 109.2 69.6 110.8 68.78 112.41 67.95 113.95 67.02 115.58 66.24 117.1 65.26 118.74 64.5 120.33 63.63 121.84 62.64 123.49 61.91 124.94 60.8 126.59 60.06 128.09 59.05 129.66 58.15 131.25 57.28 132.84 56.44 134.48 55.65 136 54.66 137.66 53.79"/>
      <polygon points="78.63 86.4 79.98 88.44 78.34 89.38 76.67 90.08 75.14 91.04 73.63 92.03 71.95 92.71 70.39 93.59 68.87 94.57 67.28 95.42 65.67 96.23 64.15 97.19 62.62 98.16 61.04 99.01 59.49 99.93 57.8 100.61 56.26 101.56 54.74 102.52 53.15 103.36 51.61 104.29 50.05 105.21 48.44 106.02 46.83 106.83 45.22 107.66 43.74 108.71 42.17 109.62 40.49 110.5 39.42 108.29 40.87 107.32 42.49 106.53 44.02 105.57 45.67 104.84 47.21 103.91 48.81 103.08 50.37 102.19 51.96 101.33 53.51 100.42 55.03 99.45 56.63 98.63 58.16 97.67 59.76 96.84 61.37 96.02 62.89 95.05 64.5 94.23 66.01 93.25 67.59 92.38 69.19 91.55 70.73 90.62 72.38 89.86 73.98 89.03 75.53 88.1 77.08 87.16 78.63 86.4"/>
      <polygon points="171.11 37.35 169.57 38.2 168.1 39.21 166.52 40.07 165.02 41.03 163.48 41.94 161.94 42.86 160.37 43.71 158.78 44.53 157.17 45.29 155.57 46.1 153.92 46.78 152.24 47.39 150.56 47.99 151.92 46.78 153.25 45.53 154.76 44.51 156.22 43.42 157.78 42.47 159.36 41.56 160.98 40.71 162.59 39.87 164.23 39.08 165.85 38.23 167.45 37.36 169 36.48 171.11 37.35"/>
      <polygon points="75.71 64.43 77.67 64.93 77.18 66.75 76.71 68.56 76.23 70.37 75.73 72.17 73.8 71.68 74.27 69.86 74.74 68.05 75.22 66.24 75.71 64.43"/>
      <polygon points="155.88 23.92 156.24 21.93 157.65 20.55 158.42 22.06 157.56 23.68 155.88 23.92"/>
      <polygon points="40.68 81.54 42.32 82.51 41.2 84.39 40.08 86.26 38.44 85.3 39.56 83.41 40.68 81.54"/>
      <polygon points="79.37 63.7 81.17 64.08 80.74 66.05 80.3 68 78.52 67.6 78.95 65.65 79.37 63.7"/>
      <polygon points="122.12 79.88 120.62 81.1 118.82 80.44 118.27 78.59 120.24 79.1 122.12 79.88"/>
      <polygon points="122.26 75.73 123.76 76.08 125.24 76.44 124.8 78.4 123.3 78.05 121.8 77.7 122.26 75.73"/>
      <polygon points="43.13 88.36 41.98 87.08 42.55 85.45 44.19 84.88 43.68 86.63 43.13 88.36"/>
      <polygon points="165.99 55.83 164.82 57 163.65 55.83 164.82 54.66 165.99 55.83"/>
      <polygon points="137.58 41.26 138.62 43.14 136.36 44.42 135.31 42.54 137.58 41.26"/>
      <polygon points="62.05 110.87 63.52 113.05 61.9 114.15 60.42 111.96 62.05 110.87"/>
      <polygon points="162.44 17.48 164.08 18.2 163.1 20.48 161.45 19.77 162.44 17.48"/>
      <polygon points="33.74 135.82 32.27 134.43 31.43 132.57 31.18 130.55 32.67 131.28 33.75 132.55 34.04 134.18 33.74 135.82"/>
      <polygon points="12.44 118.52 11.01 119.95 9.59 118.52 11.01 117.09 12.44 118.52"/>
      <polygon points="20.84 90.7 21.03 92.54 18.6 92.8 18.4 90.97 20.84 90.7"/>
      <polygon points="19.85 96.11 18.11 96.62 17.77 95.45 19.1 94.45 20.64 94.58 19.85 96.11"/>
      <polygon points="15.54 119.02 14.56 119.99 13.58 119.02 14.56 118.04 15.54 119.02"/>
      <polygon points="35.2 131.85 36.49 132.13 36.44 133.49 35.29 133.88 35.2 131.85"/>
      <polygon points="144.96 13.17 145.78 11.06 148.34 10.48 147.74 11.93 146.51 12.89 144.96 13.17"/>
      <polygon points="39.54 66.4 39.72 68.22 38.14 68.38 36.57 68.53 36.38 66.72 37.96 66.57 39.54 66.4"/>
    </g>
  </g>
</svg>