<?xml version="1.0" encoding="UTF-8"?>
<svg id="Layer_2" data-name="Layer 2" xmlns="http://www.w3.org/2000/svg" viewBox="0 0 130.76 137.9">
  <g id="Layer_1-2" data-name="Layer 1">
    <g>
      <path d="M79.13,119.96l-1.15,1.64-1.27,1.42-.59,1.59.12,1.75.08,1.75-.45,1.72v1.75s-.08,1.75-.08,1.75l.04,1.78-1.74.89-1.68.89-1.82.57-1.98-.36-1.82.45-1.89.36-1.78-.88-1.91.04-1.88-.34-1.4-1.44-1.9-.56.11-1.75-.25-1.71-.03-1.72.23-1.73-.62-1.7.44-1.75-.46-1.69-.83-1.31-1.37-.88-.81-1.45.3-1.82.23-1.82-.04-1.82-.21-1.82-.03-1.82-.18-1.82.1-1.83.02-1.83-.28-1.81,1.51-1.59,1.15-1.87-.04-1.78.16-1.8-.05-1.81.31-1.81-.12-1.8.11-1.8-.37-1.8-.14-1.8-.03-1.8.52-1.8-.3-1.81.07-1.8.16-1.8.24-1.8-.64-1.81.13-1.81.38-1.8.18-1.81-.51-1.81.12-1.81-.29-1.81.07-1.81.64-1.81-.71-1.81.05-1.8.22-1.81.53-1.8-.72-1.81.68-1.81-.65-1.81.72-1.81-.03-1.82.05-1.83-.79-1.6.5-1.7-.55-1.61v-1.79s-1.85-.01-1.85-.01l-1.72.44-1.7-.18-1.69-.57-1.71.11-1.72.43-1.69-.57h-1.71s-1.87.5-1.87.5l-1.88-.03-1.88-.43-1.87.38-1.88-.42-1.88-.04-1.87.3-1.88-.18-1.88.08-1.88.48-1.89-.6-1.56.02-1.36-.86-1.23-.79-1.72-.56-1.77.5-1.76.08-1.76-.49-1.76-.22-1.77.61-1.58-.92-1.52-.94-.45-1.77-1.23-1.38-.6-1.69-.36-1.75.43-1.84-.31-1.73.05-1.75.19-1.74-.28-1.78.36-1.73.44-1.7.1-1.83,1.24-1.37,1.13-1.26,1.01-1.52,1.79.03h1.85s1.84-.52,1.84-.52l1.86.07,1.86-.22,1.92.65,1.03-1.65,1.5-.86,1.68-.34,1.62-.36,1.66-.05,1.75-.47,1.76.5,1.75-.63,1.75.06,1.75-.09,1.76.68,1.75-.64,1.75.69,1.75-.6,1.75.42,1.75-.59,1.76.11,1.75.31,1.76-.1,1.76.3,1.76-.53,1.62.74.94,1.43,1.04,1.18,1.74.24,1.76.22,1.77-.65,1.76.19,1.76.3,1.77-.13,1.77-.24,1.76.29,1.77-.24,1.77.28,1.83.32,1.38-1.11,1.48-.72,1.72-.2,1.49-.73,1.43-.85,1.82-.25,1.82.18,1.82-.13,1.81-.16,1.82.52,1.81-.52,1.82.61,1.81-.73,1.81-.03,1.82.45,1.82.18,1.81-.69,1.82-.06,1.83.73,1.82-.29,1.8.34,1.52.88,1.55,1.02.72,1.74,1.72.34,1.72.07,1.73-.43,1.72-.09,1.72.4,1.73.22,1.73-.21,1.24,1.06,1.43,1.25.33,1.84.91,1.61.26,1.76-.41,1.81.13,1.74.35,1.76-.49,1.74-.3,1.72-.21,1.72-.15,1.76-.76,1.58-.94,1.43-.92,1.62-1.85-.1-1.72.42-1.72.1-1.72-.65-1.72.1-1.73.32-1.86-.32-1.38,1.54-1.09,1.43-1.69.12-1.85.16-1.85-.06-1.84.44-1.85-.44-1.84.45-1.85-.15-1.85-.34-1.85.15-1.84.56-1.86-.77-1.85.36-1.85-.02-1.86-.13-1.86-.15-1.78.78-1.8-.16h-1.8s-2-.3-2-.3l.17,2.06.06,1.87-.08,1.86-.58,1.85.72,1.89-.49,1.86.3,1.88-.37,1.86-.02,1.87-.22,1.87-.18,1.88.24,1.78-.05,1.78.16,1.78.09,1.78-.52,1.79.36,1.78.3,1.79-.65,1.79.44,1.79.21,1.79-.12,1.79-.07,1.79-.21,1.79-.48,1.79.12,1.8.51,1.8-.42,1.88-.06,1.88-.14,1.88.48,1.88.06,1.88v1.88s-.37,1.89-.37,1.89l.11,1.89.27,2.07.96,1.83,1.1,1.72-.37,1.75.11,1.74.56,1.74.02,1.75-.04,1.75-.28,1.76v1.75s.11,1.75.11,1.75l-.05,1.75.2,1.71ZM111.01,29.44l.6-1.94.74-1.69-1.44-.34-1.8.16-1.78.21-1.8-.29-1.78.12-1.78-.03-1.79-.06-1.75-.39-1.98-.69,2.04-.74,1.93.42,1.79-.46,1.82-.47,1.85.65,1.84-.43,1.84-.25,1.84.74,1.77-.5.49-1.76.08-1.88.2-1.86.34-1.87-.62-1.85.31-1.92-.72-1.78v-1.94s-1-1.65-1-1.65l-.87-1.65-.7-1.87-1.84-.25-1.8.02-1.8.19h-1.8s-1.8.17-1.8.17l-1.8-.12-1.79-.04-1.8.25-1.8-.17-1.8.29-1.8.06-1.8-.14-1.8.07-1.81-.29-1.85.15-.7,1.78-.5,1.75-1.05,1.51-1.37,1.24-1.8.53-1.5,1.03-1.74.51-1.79.23-1.79-.04-1.8.65-1.83-.19-1.84-.38-1.83-.18-1.87.41-1.8-.47-1.85-.42-1.57-1.05-1.03-1.65-1.82-.76-1.23-1.39-1.03-1.55-.95-1.9-1.9.74-1.83-.65-1.81.68-1.83-.7-1.82.05-1.82-.02-1.81.65-1.82-.64-1.82.41-1.82-.19-1.82.11-1.82.51-1.82-.12-1.83-.5-1.83.18-1.52.34.23,1.48.71,1.63,1.06,1.37,1.56-.09,1.86.44,1.85-.38,1.87.41,1.86.04,1.85-.3,1.86.2,1.85-.05,1.86-.43,1.84.68,1.87-.39,1.85.15,1.87-.03,1.78.76,2.13.03-2.1.66-1.97-.21-1.92-.03-1.88.73-1.94-.39-1.91.39-1.77-.52-1.76.64-1.77.13-1.77.02-1.78-.66-1.77.19-1.78-.07-1.78-.11-1.75.45.15,1.69.11,1.75.57,1.72-.52,1.76-.23,1.73.47,1.78-.67,1.68-.32,1.71.1,1.81-.56,1.67-.6,1.28,1.87.65,1.97-.59,1.98.06,1.98.31h1.98s1.73.07,1.73.07l1.74-.45,1.73.52,1.74-.61,1.74.07,1.73-.07,1.73.7,1.74-.62,1.73.71,1.74-.58,1.73.44,1.74-.58,1.74.13,1.75.33,1.54-.87,1.71-.41,1.46-1.08,1.68-.51h1.78s1.72-.37,1.72-.37l1.73.27,1.66.45,1.85-.17,1.56.85,1.37,1.12,1.47.9,1.69-.44,1.76.09,1.7-.44,1.76.08,1.85.31,1.85-.47,1.85-.06,1.85.51,1.85-.07,1.85-.21,1.85-.24,1.85.2,1.85-.11,1.85-.14,1.85.54,1.85-.5,1.85.63,1.86-.71,1.91.41ZM20.24,25.28l-1.89.26-1.87.03-1.8-.7-1.85-.16-1.93-.7,2.14-.29,1.93-.38,1.96-.17,1.97-.16,1.91.05-.02-1.78.11-1.82.77-1.83-.34-1.85-.54-1.8.39-1.93-.83-1.72-.76-1.69-.21-2.22-1.85.52-1.75-.15-1.74.21h-1.75s-1.76-.27-1.76-.27l-1.64.56.3,1.43.87,1.55-.09,1.8.65,1.65.28,1.73-.29,1.75-.33,1.71-.16,1.71-.08,1.73-.34,1.7-.26,1.72-.45,1.91,2,.04,1.93-.27,1.94.15,1.93-.3,1.94-.08,1.49-1.98ZM72.84,6.52l-1.81.31-1.74.1-1.75-.53-1.75.22-1.75.18-1.75-.35-1.75.08-1.78.04.08,1.2,1.69-.02,1.74-.22,1.75-.04,1.75.72,1.75-.28,1.75-.38,1.75.67,1.72-.43.1-1.28ZM3.4,10.75l-.16,1.87-.18,1.74-.69,1.7.18,1.78.28,1.74-.09,1.8.51,1.71.63,1.66.9,1.52.85,1.45.63-1.66.63-1.72,1.18-1.61.06-1.91-.18-1.89.74-1.85-.51-1.86-.48-1.81.35-1.98-1.04-1.65-.64-1.76-1.15-1.36-.88,1.89-1.15,1.89.87.11,1.89-.11,1.11.95-.12,1.81.56,1.69.2,1.75-.35,1.76-.37,1.72-.23,1.7-.29,1.67-.97.82-1.11-1.2-.46-1.74-.3-1.77-.33-1.77.38-1.57-.08-1.63.15-1.61.35-1.6-.69-.69ZM125.94,26.24l.29-1.83.35-1.7.87-1.59.03-1.76-.04-1.74.36-1.74-.21-1.74-.29-1.72-.54-1.66-.54-1.65-.68-1.33-1.57.03-1.65-.75-1.66.26-1.66.35-1.65-.7-1.65.42.79,1.53-.32,1.85.78,1.62v1.74s.25,1.72.25,1.72l-.08,1.74-.43,1.7.32,1.79-.81,1.62v1.78s-.71,1.95-.71,1.95l1.83-.36,1.72-.13,1.71.33,1.72.26h1.71s1.76-.31,1.76-.31ZM73.99,35.86l-.29-2.09-.06-1.98-1.28-1.11-1.86-.44-1.86-.23-1.85-.49-1.89.21-1.85.4-1.74.73-1.71.77-1.41,1.01.44,1.57.07,2.15h2.07s1.9-.19,1.9-.19l1.85.77,1.89-.43,1.86-.33,1.93.58,1.81-.72,1.97-.17ZM73.49,38.53l-1.91.32-1.89.1-1.89-.53-1.89.21-1.89.17-1.89-.36-1.9.08-1.91.02,1.66.5,1.67.4,1.72.05,1.7.11,1.71.76,1.72-.37,1.65-.6,1.84.25,1.5-1.11ZM73.57,98.19l-.32-1.8-.1-1.77.53-1.77-.22-1.77-.17-1.77.36-1.77-.08-1.77-.02-1.77-.14-1.77v-1.78s-.21-1.77-.21-1.77l-.03-1.77.73-1.77-.28-1.78-.37-1.78.68-1.77-.44-1.78-.27-1.78.73-1.77-.49-1.78.19-1.78-.17-1.78.05-1.78.31-1.77-.54-1.78.52-1.77-.38-1.78.49-1.78-.38-1.78-.12-1.78.34-1.78.24-1.93-2.32.05-1.85.4-1.89.13-1.89.18-1.89-.2-1.87-.22h-1.91s-2.08-.39-2.08-.39l.26,1.87.05,1.79-.15,1.79.06,1.79-.31,1.78.12,1.78-.11,1.78.38,1.79.15,1.79.04,1.79-.52,1.79.3,1.79-.07,1.79-.15,1.79-.23,1.79.65,1.79-.13,1.79-.37,1.79-.17,1.79.52,1.79-.11,1.79.29,1.79-.07,1.79-.63,1.79.72,1.79-.04,1.79-.22,1.79-.53,1.79.73,1.79-.67,1.79.66,1.8-.7,1.9,1.95.59,1.69.35,1.78-.39,1.66.8,1.73-.37,1.73.1,1.69-.36,1.51-.91,1.81-.23ZM73.8,100.93l-1.7.78-1.76.45-1.85-.3-1.78.31-1.81.13-1.76-.53-1.78-.22-1.75-.39-1.66-.4-.89,1.84,1.65.28,1.68.44,1.57,1.07,1.79-.04,1.77-.26,1.76.66,1.72-.59,1.68-.54,1.87.33,1.52-.95.97-.89-1.25-1.19ZM76.67,119.14l-.37-1.76-.14-1.73.49-1.75-.26-1.74-.22-1.73.31-1.75-.12-1.74-.07-1.76-1.69.65-1.72.45-1.7.57-1.77.28-1.81-.59-1.75.29-1.79.26-1.66-.9-1.81.1-1.78-.18-1.46-1.23-1.69-.21-.21,1.73.15,1.76-.08,1.76-.33,1.76.52,1.77-.54,1.76.36,1.77-.51,1.85,2.02.57,1.76.47,1.67.8,1.76.61,1.84.23,1.85-.07,1.84-.02,1.81-.3,1.83-.15,1.81-.36,1.68-.78,1.79-.67ZM73.43,132.85l-.34-1.86-.11-1.83.52-1.84-.23-1.84-.18-1.77h-1.6s-1.77.24-1.77.24l-1.78.1-1.79.14-1.79-.07-1.8.08-1.79-.16-2.08-.7.32,2.07.43,1.96-.62,1.99.5,1.96.31,1.88,1.28,1.06,1.89-.05,1.77.44,1.82-.1,1.8-.08,1.85-.05,1.55-1.08,1.84-.49Z"/>
      <polygon points="93.64 23.02 93.66 25.82 91.74 25.65 89.92 25.65 88.11 25.64 86.3 25.61 84.48 25.9 82.67 25.8 80.85 25.81 79.04 25.75 77.23 25.77 75.42 25.97 73.61 25.91 71.81 26.05 69.99 25.86 68.17 25.81 66.36 25.93 64.55 26 62.74 25.96 60.92 26.03 59.11 26 57.29 25.78 55.48 25.83 53.66 26.16 51.85 25.94 50.03 25.83 48.22 25.95 46.4 25.99 44.58 25.94 42.77 26.12 40.95 26.07 39.14 26.16 37.32 26.1 35.5 26.24 33.68 26.26 31.86 26.03 30.04 26.01 28.25 26.08 28.17 23.43 30.01 23.47 31.83 23.52 33.64 23.42 35.45 23.31 37.27 23.4 39.08 23.47 40.9 23.32 42.71 23.47 44.52 23.48 46.33 23.39 48.14 23.53 49.95 23.15 51.76 23.14 53.58 23.5 55.39 23.23 57.2 23.43 59.01 23.36 60.83 23.33 62.64 23.39 64.46 23.12 66.27 23.05 68.09 23.18 69.9 23.18 71.72 23.15 73.54 23.37 75.35 23.11 77.17 23.22 78.98 23.09 80.8 23.13 82.61 23.31 84.43 23.27 86.25 23.1 88.07 23.13 89.89 23.05 91.71 23.01 93.64 23.02"/>
      <polygon points="95.58 9 93.91 9.73 92.11 10.14 90.27 10.33 88.42 10.33 86.57 10.16 84.75 9.87 82.96 9.52 84.64 8.8 86.45 8.34 88.28 8.06 90.14 7.94 92 8.13 93.83 8.45 95.58 9"/>
      <polygon points="111.03 8.84 109.28 9.74 107.39 10.18 105.45 10.2 103.51 10.01 101.63 9.53 99.78 9.05 101.57 8.46 103.45 8.11 105.36 7.91 107.27 8.01 109.16 8.33 111.03 8.84"/>
    </g>
  </g>
</svg>