<?xml version="1.0" encoding="UTF-8"?>
<svg id="Layer_2" data-name="Layer 2" xmlns="http://www.w3.org/2000/svg" viewBox="0 0 191.65 122.27">
  <g id="Layer_1-2" data-name="Layer 1">
    <g>
      <path d="M32.41,114.17l-1.74-.84-.5-1.82-.55-1.75,1.59-.96.52-1.79,1.64-.92.96-1.61-2.42-.19-1.53-1.62-2.01-.62-1.74.72-1.72.71-1.89.03-1.72.71-1.72.71-1.99-.36-1.63,1.08-1.85.22-1.67.91-2.21-1.42-.44-2.26.48-1.89,1.39-1.43.67-1.91,1.88-.93.57-1.99,1.34-1.37,1.16-1.47-1.33-.89-1.83-.66.81-1.91-.32-1.63-1.78.07-1.81.2-1.78.35-1.78.36-1.79.31-1.68.87-1.92.26-.87-1.96.3-2.19-1.5-1.99,2.1-.55,1.21-1.29,1.32-1.13,1.6-.68,1.47-.88,1.71-.51,1.03-1.6,1.71-.49.08-2.21-1.14-2,1.79-.57,1.35-1.29,2,.02,1.5-.98,1.67-.65,1.16-1.68,1.59-.81,1.57-.85,1.65-.69,1.68-.63,1.7-.59,1.54-.9,1.92-.16,1.56-.88,1.38-1.25,1.56-.89,1.93-.13,1.35-1.31,1.55-.92,2-.28-.38-2.03.74-1.46,1.02-1.25,1.37-.87,1.92-.09,1.6-.84,1.61-.81,1.57-.91,1.52-1.02,1.9-.13,1.7-.6,1.65-.73,1.55-.94,1.4-1.3,2,.11,1.7-.6,1.39-1.32,1.82-.34,1.78-.42,1.57-.9,1.56-.94,1.49-1.1,1.7-.61,1.87-.21,1.62-.8,1.62-.8,1.7-.62,1.47-1.15,1.56-.94,1.67-.69,1.9-.14,1.67-.66,1.53-1,1.6-.86,1.99.07,1.38-1.36,1.67-.68,1.52-1.03,1.91-.13,1.66-.72,1.7-.64,1.5-.98,1.56-.83,1.9-.09,1.52-.93,1.7-.56,1.26-1.46,1.64-.68,1.67-.63,1.64-.69,1.53-.9,1.39-1.15,1.51-.93,1.44-1.03,1.78-.45,1.39-1.12,1.43-1.05,1.71-.6,1.42-1.06,1.74-.58,1.26-1.35,1.35-1.23,1.51-.98,1.89-.28,1.54-.92,1.41-1.24,1.95.02,1.49-1.12,1.69-.63,1.7-.63,1.94.47,1.6-1.28,1.85.32,1.79.21,1.77-.03,1.86-.7,1.63,1.26,1.86-.2,1.67.66,1.76.39,1.35,1.36,1.68.59,1.84.4,1.61.85.95,1.73,1.35,1.16,1.42,1.08,1.6.93,1.34,1.22.62,1.82,1.13,1.37,1.06,1.44.93,1.53.48,1.74,1.19,1.44.9,1.61.11,1.85-.26,1.87,1.23,1.65-.16,1.83.25,1.81-.84,1.76-.15,1.75.21,1.83-.96,1.6v1.83s-.61,1.67-.61,1.67l-.65,1.65-.82,1.57-.88,1.54-.4,1.8-1.18,1.36-.56,1.76-1.75.94-.22,2.06-1.65.96-1.09,1.4-.81,1.68-1.73.79-1.08,1.44-1.19,1.33-1.42,1.08-1.16,1.4-1.91.43-.92,1.75-1.89.4-1.13,1.5-1.56.86-1.62.76-1.77.47-1.57.8-1.12,1.19.68,1.41,1.67.62,1.1,1.27,1.41.98.48,1.72,1.59,1.08-.15,1.86v1.68s-.5,1.59-.5,1.59l-.49,1.56-.24,1.77-.75,1.6-1.54.96-.96,1.47-1.78.8-1.22,1.58-1.72.91-2.02-.42-1.84.58-1.68-.87-1.93-.37-1.15-1.57-1.82-.76-.74-1.85-1.55-1.12-1.25-1.41-.02-1.98-.47-1.84.53-1.75.66-2.19-1.8.83-1.2,1.72-1.8.47-1.55.98-1.67.73-1.71.64-1.89.25-1.54,1.01-1.38,1.35-2.04-.04-1.47,1.15-1.73.6-1.4,1.29-1.94.16-1.38,1.35-1.73.6-1.67.74-1.64.79-1.53,1.03-1.84.39-1.61.86-1.79.49-1.57.93-1.39,1.32-1.59.92-1.89.27-1.43,1.25-2.07-.09-1.18,1.77-2.09-.13-1.53,1.05-1.47.39-1.69-.63-.94-1.77-1.4-1.49-1.34,1.47-2.01-.13-1.32,1.26-1.5.89-1.63.64-1.73.44-1.34,1.21-1.72.46-1.49.92-1.47.98-1.76.52-1.7.65-1.67.7-1.56.94-1.62.8-1.68.68-1.65.74-1.68.67-1.65.76-1.62.8-1.6.86-1.38,1.31-1.81.42-1.41,1.25-1.65.77-1.7.72-1.41-1.3-1.18-1.41-.42-1.73.46-1.61,1.66-.79.73-1.45.77-1.44-1.65.68-1.8-.58-1.67.36-1.72.04-1.6.84-1.7.19-1.67.37-1.73.08ZM136.45,36.82l-.75-1.02-1.02-.96-1.21.77-1.16,1.21,1.18,1.19,1.19,1.22,1.56-.85.21-1.56ZM95.3,100.48l1.45-1.07,1.86-.31,1.51-1.03,1.91-.19,1.32-1.41,1.94-.14,1.53-.98,1.28-1.49,2.04.07,1.46-1.12,1.5-1.03,1.5-1.02,1.81-.39,1.51-1.03,1.51-1.02,1.99-.04,1.34-1.36,1.73-.57,1.42-1.21,1.67-.7,1.84-.35,1.57-.91,1.79-.46,1.33-1.4h2.01s1.27-1.52,1.27-1.52l1.71-.63,1.61-.82,1.8-.42,1.3-1.46,2.03.03,1.33-1.4,1.76-.53,1.69-.65,1.63-.78,1.63-.8,1.66-.75,1.41-1.3,1.66-.8,1.47-1.13,2.03-.17,1.04-1.81,1.96-.34,1.27-1.4,1.36-1.26,1.64-.86,1.49-1.08,1.74-.76.91-1.76,1.56-.87,1.63-.85.7-1.74,1.39-1.09.71-1.68,1.8-.79.88-1.54,1.12-1.36.08-2,.82-1.51.7-1.57.77-1.53.75-1.56.7-1.6.4-1.51-1.19,1.23-.7,1.63-.39,1.81-.8,1.61-1.57,1.12-.52,1.8-.94,1.53-1.61,1.01-.53,1.88-1.32,1.23-1.21,1.32-1.24,1.3-1.76.73-1.24,1.28-1.3,1.22-1.27,1.27-1.23,1.35-1.82.52-1.54.9-1.48.99-1.38,1.16-1.21,1.47-2,.12-1.61.77-1.25,1.44-1.77.47-1.73.53-1.51.99-1.5,1.01-1.44,1.16-1.67.68-1.86.28-1.58.86-1.58.86-1.66.69-1.41,1.21-1.51,1-1.63.76-1.89.21-1.64.73-1.49,1.06-1.56.92h-1.99s-1.32,1.43-1.32,1.43l-1.64.75-1.48,1.09-1.9.2-1.62.79-1.66.7-1.5,1.05-1.57.89-1.92.14-1.54.96-1.72.57-1.3,1.46-1.68.67-1.71.59-1.7.64-1.6.84-1.49,1.08-1.47.89-1.19,1.17-1.38,1.09-.29,1.64ZM120.2,44.39l-.75-1.01-1.01-.96-1.2.77-1.16,1.2,1.18,1.19,1.19,1.22,1.55-.85.2-1.55ZM143.02,48.88l1.24-.96,1.03-1.13-1.22-.65-1.3-1.04-1.61,2.3.25,1.49h1.61ZM127.45,57.15l.92-1.04.81-1.24-2.38-.83-1.73.24-.05,1.66.82,1.39,1.6-.18ZM81.18,81.24l-1.4,1.13-1.89.33-1.54,1.05-1.95.22-1.35,1.43-1.98.16-1.57,1-1.32,1.51-2.11-.09-1.59,1.05-1.65.94-1.65.92-1.9.31-1.59,1.03-1.51,1.11-2.03.32-1.13,1.6-1.66.87-1.29,1.42-1.65.89-1.87.46-1.63.89-1.85.31-1.89.58,1.99-.16,1.09-1.59,1.6-.73,1.49-.92,1.72-.53,1.13-1.53,1.93-.1,1.08-1.48,1.59-.68,1.51-.79,1.44-.89,1.45-.87,1.51-.77,1.29-1.22,1.72-.72,1.58-1.04h2.07s1.28-1.68,1.28-1.68l2.02-.09,1.51-1.2,1.59-1.02,1.82-.55,1.72-.76,1.78-.31,1.14-1.52,1.68-.55,1.68-.8.52-1.71-1.57-.22-1.57.74-1.82-.53-1.55.71-1.62.49-1.06,1.61-1.65.87-1.65.88-1.74.69-1.77.6-1.8.52-1.67.82-1.99.02-1.7.75-1.56,1.12-1.71.74-2-.08-1.58,1.28-1.62,1.03-1.98.45-1.2,1.69-1.75.83-1.73.86-2.01.6,1.88-.81,1.36-1.2,1.4-1.14,1.37-1.19,1.35-1.26,1.88-.35,1.65-.69,1.63-.72,1.56-.85,1.44-1.21,1.96.25,1.7-.49,1.42-1.24,1.79-.25,1.76-.37,1.54-.9,1.49-.98,1.37-1.18,1.46-.56-1.36-.6-1.67-.16-1.68-.08-1.68-.15-1.62.6-1.48.62-1.77.67-2,.17-1.79.65-1.74.85-2.16-.03,1.85-.23.92-1.46,1.33-.85,1.03-.43-1.61-.36-1.98.11-1.79.12.83-1.42.98-1.56,1.65-1.08.92-1.62,1.32-1.44-1.9.86-1.62.75-1.65.69-1.62.74-1.52.93-1.4,1.15-1.54.89-1.52.95-1.83.29-1.54.92-1.62.77-1.68.25,1.4-1.04,1.81-.59,1.37-1.31,1.47-1.19,1.6-.94,1.95-.26,1.58-.98,1.37-1.35,1.99-.25,1.31-1.42,1.49-1.09,1.38-1.23,1.99-.53.63-2.01,1.59-1.07-1.89-.24-1.86.12-1.84.91-1.91-.95-1.85.66-1.88-.11-1.87.3-1.59-.56-.5-1.22-.89-1.24-1.28.93-1.95.03-1.59.73-1.51.9-1.37,1.19-1.51.92-1.88.17-1.54.87-1.53.87-1.56.83-1.73.48-1.4,1.29-.94-1.11,1.99-.67,1.94-.3,1.2-1.75,1.79-.6,1.55-1.07,2.01-.19,1.64-.89,1.43-1.3,1.94-.32,1.44-1.29,1.66-.8,1.51-1.04,1.19-1.43.27-2.09-1.53,1.28-1.8.51-1.45,1.24h-2.05s-1.19,1.76-1.19,1.76l-1.95.2-1.62.89-1.42,1.29-1.96.19-1.54,1.06-1.57.97-1.71.7-1.51,1.12-2.02.06-1.28,1.58-1.99.12-1.39,1.36-1.71.71-1.75.64-2.06.66,1.74.93,1.74-.11.94.82-.9.98-1.57.74-1.28,1.19-1.81.35-.98,1.69-1.8.36-1.52.82-1.61.67-1.62,1.57,2.16-.72,1.7-.65,1.88.16,1.68-.75,1.87.12,1.62-1.02,1.75-.48,2.04.26,1.42-1.37,1.79-.55,1.49-1.3,1.84-.07-.88,1.52-1.75.44-1.01,1.42-1.19,1.19-1.68.55-.77,1.52-1.18,1.13-1.69.8-.87,2.06,2.08-.19,1.4,1.01,1.48.46,1.69-.63,1.86-.57,2.02-.16,1.72-.94,1.7-1.33-1.54,1.51-1.45,1.26-1.9.49-1.61,1.23-2.03.47-.88,1.69-1.38,1.16-1.22,1.32-1.12,1.4-.89,1.58-1.43,1.16-1.01,1.49-1,1.88,1.81-.7,1.58-1.1,1.71-.67h1.92s1.61-1.01,1.61-1.01l2.04.4,1.44-1.57,2.05.44,1.68-.81,1.88-.15,1.4-1.47,1.84-.31,1.61-.85,1.19-1.56,2.08-.02,1.34-1.31,1.75-.83.52.81-1.73.75-1.23,1.45-1.71.76-1.42,1.18-1.38,1.24-1.68.82-1.74,1.23,1.83.8,1.64.23,1.6.38,1.57.51,1.3.18-1.09.88-1.09,1.31-1.05,1.34-1,1.38-.62,1.69-1.38,1.08-.65,1.39,1.46-.46,1.71-.31,1.75-.14,1.66-.53,1.71-.32,1.57-.93,1.9.49,1.65-.62,1.7-.56,1.69-.76,1.86.64,1.51-.51-1.2,1.46-.55,1.98-1.11,1.62-.95,1.72-1.41,1.61,1.98-.61,1.29-1.56,1.59-.99,1.84-.51,1.93-.35,1.26-1.61,1.76-.67,1.45-1.27,2.04-.14,1.6-1,1.81-.59,1.55-1.07,1.4-1.44,1.87-.4,1.94-.25,1.58-1.07,1.82-.52,1.58-1.07,1.82-.52,1.68-.84,1.43-1.42,1.97-.2,1.88-.58-2.08.32-1.96-.67-1.84.66-1.94.02-1.85.5-1.75.84-2.1.68.21-2.19.59-1.65,1.1-1.4.77-1.75.61-1.3-.94-1.65,1.44-1.4.95-1.56,1.06-1.47,1.11-1.33ZM148.74,89.8l.15-1.78,1.16-1.5.57-1.73,1.53-1.12.62-1.8,1.79-.67,1.29-1.18,1.2-1.55,2.02.18,1.67-.97-1.52-1.28-1.62-.82-1.58-.87-1.64.87-1.57.96-2.02.1-1.22,1.53-1.58.95-.89,1.63-.99,1.43-.94,1.6.24,1.84.51,1.84,1.7.98,1.1,1.36ZM163.45,83.55l-.5-1.55-.33-1.7-1.67-.23-1.81-.54-1.43,1.37-1.96.36-1.33,1.36-.68,1.86-1.84.95-.53,1.84-.28,1.83.19,1.74.43,1.68,1.78.34,1.7-.47,2.01.1,1.24-1.53,1.55-1.01.85-1.67,1.06-1.44,1.22-1.46.34-1.83ZM15.28,83.72l1.76-.99,1.55-1.4-1.66.66-1.83-.24-1.51,1.07-1.84-.3-1.63.6-1.49,1.15-1.9-.53-1.59.76-1.56.64.09.86,1.52.04,1.63-.62,1.63-.62,1.86.46,1.55-.99,1.74-.12,1.68-.44ZM20.02,89.33l-1.88-.23-1.81-.98,1.82,1.93,1.88-.72ZM70.02,106.65l1.6-1.1,1.96-.31,1.62-1.05,2.02-.2,1.45-1.43,1.89-.07,1.5-.92,1.26-1.44,1.99.13,1.43-1.07,1.47-.98,1.48-.97,1.79-.35-1.47-.16-1.28.68-1.91-.11-1.34,1.25-1.68.44-1.4,1.09-1.63.57-1.78.22-1.57.76,1.88-.64,1.36-1.54,2.12-.18,1.3-1.66,1.79-.79,1.67-.97-1.7.29-1.44,1.24-1.96-.27-1.38,1.27-1.72.43-1.65.61-1.57.79-1.54.85-1.55.83-1.25,1.35-1.56.84-1.38,1.13-1.97.14-1.01,1.76-1.91.23-1.29,1.29-1.4,1.12-1.66.67-1.66.88-1.88.41-1.34,1.52-1.89.34-1.93.31-1.32,1.48-1.75.72-1.17,1.54-1.47,1.5,1.6-.98,1.67-.61,1.18-1.64,1.59-.77,1.57-.81,1.65-.65,1.68-.59,1.7-.54,1.55-.87,1.91-.11,1.56-.84,1.39-1.21,1.56-.85,2.02-1.05-2.5.81-2.28.42,2.14-.61,1.39-1.69,1.95-.86.16,1.85,1.32-.9ZM12.86,103.58l1.72-.78,1.94.05,1.74-.73,1.98.17,1.64-1.13,2,.23,1.77-.67,1.62-1.22,2.01-.09.54-2.06-1.74.83-1.69.81-1.91.14-1.69.82-1.69.81-2.03-.23-1.59,1.18-1.85.33-1.19,1.11-1.57.44ZM93.46,97.92l-1.16,1.2-1.52.99-.45,1.59,1.78-.4.62-1.86.73-1.52ZM37.76,100.8h-1.57s-1.42-.88-1.42-.88l-1.6-.09-1.57-1.01.39,2.59,1.85,1.19,2.34-.38,1.57-1.43ZM46.94,109.59l.94-.98,1.26-.92-1.95.46-2-.39-1.78,1.01-2.04-.29-1.82.71-1.58,1.33-1.96.81,1.86-.55,1.79-.46,1.79-.45,1.87.25,1.79-.45,1.84-.09Z"/>
      <path d="M78.51,120.71l-1.34,1.56-1.63-.59-1.24-1.13-1.27-1.1-1.18-1.17,1.13-1.48,1.18-1.46,1.16-1.47,1.17-1.47,1.16-1.48,1.18-1.47,1.53-.88.82,1.83-.41,1.73-.44,1.72-.42,1.73-.47,1.72-.49,1.71-.44,1.73ZM76.66,119.44l.52-1.96.59-1.93.53-1.95.51-1.92-1.1,1.37-1.07,1.45-1.13,1.41-1.11,1.43,1.11,1.06,1.14,1.04Z"/>
      <path d="M9.73,120.48l-1.48-.78-1.07-1.29-.56-1.57-.07-1.65,1.54-.63,1.56-.61,1.55-.62,1.57-.57,1.56-.62,1.57-.58,2.18,1.02-.99,1.88-1.46,1.21-1.46,1.21-1.5,1.16-1.47,1.2-1.45,1.23ZM13.05,114.78l-1.48.33-1.49.31-1.52.29,1.57,2.17,1.46-1.57,1.46-1.53Z"/>
      <path d="M36.54,52.8l-1.98.19-1.97.11h-1.97s-1.97-.12-1.97-.12l-1.99-.08v-1.63s.22-1.59.22-1.59l.33-1.56,1.55.77,1.54.81,1.56.76,1.57.76,1.54.81,1.57.78ZM30.28,51.24l-1.55-1.27-1.1,1.02,2.65.25Z"/>
      <polygon points="31.12 57.2 29.86 58.24 28.39 58.97 26.81 59.4 25.2 59.65 23.6 59.44 23.02 58.23 22.96 56.86 24.59 56.74 26.23 56.72 27.87 56.8 29.5 56.97 31.12 57.2"/>
      <polygon points="87.6 114.61 86.16 115.19 84.54 115.01 85.07 113.18 85.6 111.35 86.13 109.52 87.21 110.98 87.64 112.77 87.6 114.61"/>
      <polygon points="54.05 83.92 52.34 84.55 50.52 84.94 48.67 85.1 46.81 85.18 44.95 85.2 43.09 85.27 41.26 85.68 39.64 86.63 37.93 87.38 36.28 88.27 34.56 89.02 32.85 89.77 31.16 90.59 29.52 91.5 27.79 92.23 26.1 93.05 24.47 94.01 22.75 94.76 24.3 93.84 25.78 92.79 27.35 91.89 28.9 90.96 30.46 90.04 32.04 89.16 33.64 88.32 35.29 87.58 36.92 86.8 38.49 85.91 40.14 85.16 41.81 84.47 43.42 83.55 45.2 83.68 46.97 83.73 48.74 83.69 50.52 83.7 52.29 83.87 54.05 83.92"/>
      <polygon points="46.61 103.32 48.09 102.22 49.67 101.24 51.29 100.32 52.98 99.56 54.71 98.86 56.43 98.17 58.17 97.52 59.98 97.1 61.36 97.64 60.41 99.16 62.26 98.39 64.14 97.7 66.02 96.98 67.85 96.29 66.63 94.25 68.26 93.22 69.97 92.27 71.68 91.31 73.34 90.3 71.79 91.65 70.23 93.03 68.75 94.46 68.62 97.07 66.92 98.13 65.12 98.95 63.26 99.62 61.35 100.12 59.35 100.45 58.5 98.62 57.03 99.15 55.29 99.82 53.55 100.52 51.8 101.17 50.07 101.89 48.34 102.61 46.61 103.32"/>
      <polygon points="32.31 79.3 33.5 77.94 35.03 76.98 36.62 76.13 38.27 75.38 39.87 74.44 41.49 73.52 43.12 72.65 44.74 71.73 46.33 70.76 47.97 69.89 49.6 68.97 51.17 67.96 52.82 67.08 51.77 68.61 50.44 69.9 48.99 71.03 47.47 72.08 45.88 73.02 44.25 73.88 42.56 74.68 40.86 75.46 39.11 76.14 37.41 76.93 35.72 77.72 34.03 78.55 32.31 79.3"/>
      <polygon points="39.55 70.73 37.86 71.33 36.14 71.89 34.44 72.48 32.73 73.07 34.04 71.98 35.48 71.04 36.99 70.25 38.63 69.73 40.29 69.33 41.98 69.12 41.32 71.48 39.55 70.73"/>
      <path d="M159.68,83.23l.82,1.39-.08,1.71-.61,1.6-1.11,1.3-2.06.59-1.99-.62-.25-1.84.72-1.74,1.3-1.38,1.72-.78,1.54-.24ZM156.32,88.16l.84.25,1.06-1.2,1.02-1.24-.56-.52-1.19,1.35-1.17,1.36Z"/>
    </g>
  </g>
</svg>