<?xml version="1.0" encoding="UTF-8"?>
<svg id="Layer_2" data-name="Layer 2" xmlns="http://www.w3.org/2000/svg" viewBox="0 0 123.4 157.55">
  <g id="Layer_1-2" data-name="Layer 1">
    <g>
      <path d="M67.85,8.81l1.6.47,1.62-.22,1.61.18,1.6-.22v-1.66s.71-1.57.71-1.57l1.04-1.38,1.66-.55,1.4-.8,1.75-.47,1.67-.64,1.58-.86,1.58-1.1,1.88.38,1.75.09,1.74.36,1.7.67,1.16,1.42,1.09,1.39,1.2,1.32.91,1.54.75,1.62.25,1.79.8,1.65v1.81s-.19,1.78-.19,1.78l.31,1.83-.88,1.64-.43,1.79-1.59.97-1.58.88-1.59.84-1.36,1.47-1.91.17-1.66.84-1.91.03-1.44.96.52,1.51,1.14,1.36,1.16,1.34.52,1.75.89,1.51.78,1.58,1.66,1.02.74,1.61.79,1.58.89,1.51,1.21,1.33.51,1.73.7,1.61,1.02,1.46.42,1.73.38,1.73.62,1.7.95,1.58.88,1.6.85,1.61.62,1.7.2,1.88,1.38,1.36.23,1.89,1.14,1.45.41,1.83,1.32,1.39.69,1.72,1.08,1.53.49,1.8.7,1.7.42,1.81,1.2,1.5.54,1.77.07,1.94,1.13,1.54.12,1.92.85,1.65.88,1.64,1.03,1.63-.25,2.04.72,1.81.23,1.92.74,1.81.57,1.85-.15,2.01.81,1.67.9,1.64.39,1.8.27,1.82.13,1.84.61,1.75.02,1.85.39,1.79.54,1.77-.53,1.9.82,1.74-.38,1.88.62,1.77.06,1.84.21,1.75.17,1.75.73,1.69-.37,1.8.22,1.74-.15,1.76.21,1.75-.17,1.74-.02,1.75-.07,1.77-.66,1.65-.11,1.81-.54,1.7-1.1,1.44-.87,1.56-1.64.85-1.16,1.3-1.44.92-1.64.04-1.69.56-1.6-.67-1.62-.43-1.39-.91-1.23-1.25-1.01-1.47-1.55-.99-.96-1.5-1.12-1.37-1.26-1.29-.9-1.54-.6-1.73-.93-1.52-1.63-1.06-.89-1.54-.48-1.82-1.6-1.06-.68-1.7-.95-1.51-.99-1.48-.99-1.49-1.41-1.15-1.49-1.07-1.09-1.4-.79-1.68-1.35-1.19-1.37-1.17-.93-1.57-1.3-1.24-1.42-1.12-1.16-1.36-1.14-1.38-1.04-1.47-1.39-1.16-1.23-1.3-.84-1.66-1.24-1.3-1.81-.77-.76-1.76-1.36-1.23-1.38-1.2-1.26-1.33-1.6-.94-1.48-1.08-1.51-1.04-1.15-1.46-1.47-1.09-1.22-1.38-1.02-1.61-1.85-.66-1.38-1.2-1.25-1.35-1.18-1.43-1.27-1.31-1.81-.66-1.36-1.21-1.3-1.27-1.19-1.4-1.63-.88-1.16-1.45-1.49-1.05-1.22-1.37-1.83-.64-1.37-1.2-1.35-1.21-1.02-1.61-1.58-.94-1.1-1.52-1.5-1.03-1.69-.8-1.44-1.11-.92-1.73-1.99-.45-.88-1.79-1.41-1.15-1.42-1.14-1.77-.73-1.18-1.43-1.57-.96-1.17-1.4-1.44-1.11-1.38-1.18-1.26-1.31-1.19-1.39-1.69-.84-.96-1.66-1.45-1.06-1.19-1.39-.76-1.68.43-1.91-.34-1.71.14-1.75.66-1.63.4-1.76,1.07-1.43,1.39-1.31,1.52-1.22,1.76-.81,1.92-.4,1.8-.7,1.75-.8,1.6-1.12,1.64-1.05,1.67-.88,1.37-1.31,1.8-.89,1.21-1.76,2.08-.15,1.65-1.28,2.04.07,1.91-.42,1.77-.9,1.77-.83,1.74-.66,1.77-.67,1.79-.6,1.59-1.08,1.92-.32,1.78-.65,1.47-1.36,2-.16,1.57-1.18,1.82-.45,1.71-.77,1.98.09,1.6-1.11,1.82-.43,1.85-.33,1.58-1.19,2.03.22,1.77-1.01M95.04,19.93l.84-1.59.02-1.83.22-1.8-.39-1.78-.62-1.68-.47-1.69-.75-1.58-.49-1.82-1.29-1.29-1.22-1.38-1.59-1.13-2.07.41-1.71,1.06-2.01.03-1.81.9,1.66,1.05,1.58,1.1.98,1.67.97,1.61,1.11,1.54.78,1.73.59,1.81.04,1.92.59,1.85-.23,1.9-.38,1.88,1.23-1.13,1.64-.29,1.26-1.04,1.55-.46ZM80.71,20.51l.58,1.77,1.72.93,1.8.72,1.64-.88.35-1.74.37-1.7.02-1.76.33-1.87-.59-1.74-.46-1.79-.8-1.66-1.23-1.39-1.64-.94-.97-1.61-1.71-.67-1.67.52-.83,1.67-.63,1.89.25,2.05,1.42-.66,1.45-.49,1.53-.49,1.34,1.45,1.31,1.28.34,1.79-.13,1.76-.14,2.03-1.99.55-1.65,1.01ZM42.33,22.46l1.95-.26,1.71-.91,1.85-.53,1.71-.91,1.71-.94,1.84-.59,1.81-.66,1.93.99,1.94,1.01,1.72-.46,1.63-.61,1.52-.9,1.38-1.24,1.85-.08,1.6-.71,1.54-.85,1.52-.91,1.75-.34,1.68-.56-1.35-.92-1.46-.44-1.53.04-1.61.04-1.57.94-1.77.31-1.77.3-1.56.98-1.84.09-1.59.89h-1.87s-1.76.34-1.76.34l-1.71.5-1.46,1.3-1.86.05-1.61.81-1.86.05-1.52,1.12-1.84.15-1.46.98-1.45.98-1.78.29-1.6.67-1.88.86,1.96,1,1.08,1.43,1.12,1.36.4-1.83.63-1.94,1.86-.89ZM67.4,32.24l.6-1.72.12-1.84.73-1.68.61-1.75.89-1.68,1.4-1.27,1.49-1.13,1.87-.48,1.55-.98,1.75-.6,1.7-.71,1.59-.97-.2-1.98-.79-1.73-1.65.71-1.59.86-1.57.91-1.79.33-1.71.55-1.58.89-1.64.73-1.65.72-1.78.37-1.52,1.05-1.75.44-1.76.43-1.5,1.09-1.84.22-1.53,1-1.88.12-1.75.47-1.68.63-1.38,1.4-1.86.18-1.57.92-1.86.18-1.45,1.23-1.88.31.69,2.01.97,1.53,1.43.31,1.67-.38,1.69-.16,1.62-1.03,1.76.28,1.68.47,1.62.59,1.72.5,1.17,1.36,1.4,1.06,1.74.28,1.71.45h1.83s1.71-.74,1.71-.74l1.19-1.41.71-1.52-.19-.06-1.1.92-1.69.34-1.37,1.15-1.68-.53-1.67.04-1.44-1.25-1.71-.88-.63-1.81-.11-1.94,1.16-1.56,1.37-1.26,1.73-.64,1.61-1.08,1.94.17,1.28,1.38,1.59.95.33,1.83.61,1.65.14,1.77h.4ZM55.65,20.35l-1.82.02-1.77.71-1.84.41-1.68.89-1.61.99-1.7.75-1.63.9-2.01.9,2.14-.43,1.86-.34,1.8-.57,1.66-.92,1.47-1.31,1.95-.21,1.65-.88,1.53-.91ZM80.14,24.65l-1.02-1.63-1.56-1.26-1.63.8-1.29,1.22-1.15,1.33-1.26,1.17-1.31.91h1.96s1.82-.67,1.82-.67l1.92-.36,1.88-.52,1.64-1ZM38.87,41.35l.88-1.65-.1-1.85.04-1.83-.59-1.74-.79-1.63-.61-1.67-.83-1.57-.54-1.82-1.33-1.29-1.39-1.29-2.04-.35-1.87.81-1.77,1.17-2.16-.02,1.42,1.43,1.45,1.21,1.39,1.32.73,1.78.74,1.72.9,1.67.57,1.81.38,1.86-.17,1.9.39,1.9-.48,1.68,1.55-.43,1.46-1.14,1.76-.53,1.03-1.43ZM61.28,27l-.81,1.77,2.46.53.65-1.84-2.3-.45ZM85.19,114.91l.63,1.49,1.44.87,1.44.8,1.64.12,1.8.4,1.22,1.41.72,1.64-.09,1.83.55,1.66.31,1.75.69,1.67,1.22,1.35,1.67.72,1.13,1.42,1.68.97,1.6,1.16,1.48,1.38.78,1.86.82,1.79.96,1.41.81,1.48.8,1.49.46,1.65,1.12,1.33.53,1.62.53,1.63,1.16,1.32,1.08,1.48,1.88.3,1.83-.3,1.45-1.48.74-1.76-.19-2.04.93-1.7.03-1.9.71-1.82-.52-1.91.42-1.88-.33-1.87-.39-1.85.33-1.92-.11-1.88v-1.89s-1.03-1.79-1.03-1.79l.05-1.9-.03-1.89-.17-1.86-1.52.9-1.8-.11-1.73-.1-1.76.06-1.59-.77-1.45-.93-1.43-.87-1.54-.79-1.39-1.06-1.24-1.28-.84-1.57-.15-1.82-1.11-1.51.39-1.81-.33-1.74.75-1.63-.02-1.81.82-1.56.7-1.82,1.45-1.3,1.47-1.21,1.78-.67,1.61-1.15,1.93-.19,2.32.17-1.15-1.75-.11-1.96-.85-1.7-.87-1.7-1.01-1.64v-2.01s-.93-1.68-.93-1.68l-.47-1.87-1.09,1.66-1.3,1.42-1.88.61-1.59,1.01-1.73.9-1.93.15-1.91-.2-1.82-.54-1.79-.21-1.54-.94-1.61-.76-1.62-.84-.72-1.79-1.54-1.05-.27-1.84-1.01-1.66-.25-1.91-.14-1.9.17-1.89-.07-2.01,1.27-1.56.97-1.63,1.33-1.08,1.22-1.19,1.54-.73,1.55-.73,1.64-.57,1.74.14,1.75-.33,1.23.64-.23-1.65-.73-1.61v-1.87s-.84-1.57-.84-1.57l-.61-1.66-.48-1.71-1.1-1.36-1.25.43-1.6.59-1.71.05-1.67.07-1.63-.4-1.74.15-1.52-.76-1.53-.7-1.65-.79-1.27-1.3-.81-1.64-.87-1.52-1.42-1.35-.37-1.82.43-1.85-.65-1.88.74-1.78.7-1.7.96-1.55,1.24-1.3,1.15-1.46,1.24-1.22-.19-1.25-.14-1.68-1.7-.24-1.61.42-1.71.03-1.56.63-1.44.88-1.51.68-1.42.83-1.17,1.14-.17,1.63.16,1.58.08,1.72.99,1.4,1.42,1.18-.33,1.83-.42,1.38-1.65.72-1.72.56-1.52,1.04-1.59.87-1.57.92-1.79.41-1.6.85-1.75.51-1.87.23-1.38,1.39h-1.87s-1.54-1.01-1.54-1.01l-.67-1.78-.75-1.74-1.49-1.32-.88-1.67-.8-1.71-.69-1.83-1.86.63-1.76.55-.98,1.58-.91,1.6-.59,1.89-1.75.86-1.79.77-2.01.23-1.7.98-1.97.22-1.67.75-1.55.06-1.49-.33-1.5-1.12-1.08,1.93-1.95.46-1.46,1.13-1.45,1.14-1.01,1.3,1.32,1.13,1.82.8,1.32,1.16,1.54.81,1.5.88,1.4,1.04,1.31,1.15,1.71.59,1.01,1.54,1.62.91,1.54,1.03,1.37,1.23.66,1.89,1.38,1.2,1.17,1.39.88,1.6,1.28,1.35.79,1.65.95,1.54,1.2,1.35,1.07,1.42,1.01,1.55,1.36,1.24,1.55,1,1.77.53,1.76.47,1.72.54,1.63.82,1.5,1.11h1.99s1.11,1.62,1.11,1.62l1.91.57.86,1.74,1.09,1.45,1.42,1.21,1.34,1.29.76,1.41.76-1.3,1.24-1.24,1.07-1.44,1.72-.58,1.59-.62,1.49-1.12,1.82.4,1.74-.44,1.72.39,1.75.3,1.31,1.33,1.77.4,1.29,1.2,1.04,1.4,1.58,1,.15,1.92.88,1.48.25,1.7,1.01,1.72-.47,1.86v1.84s-.79,1.68-.79,1.68l-.67,1.66-.56,1.78-1.19,1.41-1.3,1.3-1.41,1.07ZM25.72,29.14l-1.52-1.18-1.92.28-1.53,1.14-.21,1.81.08,1.79-.05,1.76.25,1.75-.08,1.89.82,1.64.7,1.71,1.04,1.53,1.44,1.17,1.78.58,1.35,1.27,1.83-.15.9-1.45.14-1.68.45-1.66v-1.73s-.52-1.65-.52-1.65l-.53-1.62-.67-1.56-.5-1.66-1.27-1.21-.87-1.47-1.11-1.31ZM65.04,30.39l-1.49.36-1.43.72-1.54-.09-1.65-.86-1.27-1.24.34,1.1.31,1.16.98,1.15,1.42.32,2.01.2,1.85-.93.47-1.89ZM16.92,50.89l1.79-.77,1.41-1.35,1.65-1.02,1.4-1.34-1.5-.99-1.12-1.46-1.01-1.54-.3-1.87-.74-1.62-.23-1.78-.23-1.76-.41-1.76-.14-1.34-1.75.3-1.57.95-1.5,1.08-1.47,1.14-1.77.59-1.67.8,1.79.45,1.64.79,1.51,1.05,1.03,1.52,1.39,1.25.62,1.74.38,1.77.88,1.64-.19,1.85.12,1.69ZM52.25,35.64l.19,1.6.8,1.49.61,1.36-1.29-1.34-1.48-1.4-1.19-1.63-1.3-.61-1.92.19,1.05,1.71.71,1.79.87,1.71,1.13,1.56,1.47,1.39.36,1.98.98,1.68,1.87-.63,1.36-.8.77-1.55.56-1.65.22-1.75.4-1.52-1.53-.7-1.47-1.16-1.82-.51-1.36-1.21ZM42.39,37.92l1.57-.21,1.3-.86-1.34-1.67-1.64,1.39.11,1.35ZM70.18,40.63l-.91-1.98-1.53-1.67-.24,1.6.24,1.55.13,1.27.98-.51,1.32-.27ZM58.72,45.39l1.59-.22,1.46-.83,1.6-.45,1.46-.83,1.25-.67-.32-1.82-.25-1.85-1.7-.12-1.77.53-2.03.3-.69,2.07-.3,1.98-.3,1.9ZM20.98,59.25l.99,1.52,1.48,1.04,1.2,1.34,1.48,1.05,1.5,1.02,1.25,1.29,1.3,1.25.87,1.63-1.27-1.15-1.4-1.11-1.4-1.07-1.53-.93-1.76-.75-.84-1.71-1.28-1.25-1.39-1.16-1.43-1.1-1.01-1.51-1.28-1.43-1.4-1.35-.87-1.77-.35-1.95.16-1.89-.75-1.75-.32-1.83-.56-1.8-1.41-1.28-1.02-1.58-1.8-.52-1.77-.8-1.96.65-1.21,1.56.28,1.97-.42,1.81.81,1.66.47,1.86,1.69.93,1.08,1.45,1.52.94,1.52.94,1.02,1.52,1.3,1.2,1.22,1.29,1.9.49,1.19,1.33,1.24,1.26,1.34,1.15,1.6.85,1.1,1.44,1.27,1.24,1.54.92,1.14,1.38,1.16,1.36,1.33,1.16,1.55.9,1.5.97,1.47,1,1.3,1.21.98,1.58,1.8.62.96,1.61,1.59.87,1.09,1.55-.76-1.76-.58-1.64-1.02-1.43-.53-1.66-.86-1.49-.79-1.57-1.59-.86-1.2-1.28-.87-1.63-1.64-.79-.92-1.59-1.45-1.01-1.5-1-1.61-.81-1.09-1.54-1.75-.46-1.6-.59ZM87.87,120.54l-1.53-.96-1.54-.83-1.01-1.47-1.17-1.39-1.13-1.44-.8-1.61-.91-1.54-.51-1.82-1.2-1.37-1.02-1.52-1.25-1.33-1.53-1.02-1.8-.61-1.12-1.53-1.57-.9-1.63-.85-1.56-1.04-.97-1.6-1.04-1.5-1.29-1.31-1.17-1.39-1.22-1.32-1.07-1.48-1.67-.75-1.43-1.06-1.6-.86-1.85-.06-1.59-.96-1.83-.15-1.81-.94,1.33,1.6,1.38,1.23,1.92.61,1.07,1.6,1.59,1,1.07,1.6,1.81.75,1.14,1.52,1.59,1.01,1.59,1.01,1.09,1.6,1.28,1.29,1.19,1.39,1.91.64,1.15,1.44,1.2,1.38,1.29,1.29,1.56,1.01,1.01,1.57,1.18,1.39,1.47,1.11,1.02,1.54,1.03,1.53,1.22,1.35,1.46,1.13,1.39,1.2,1.35,1.24,1.13,1.43.75,1.76,1.7.96.69,1.79,1.43,1.19.75,1.73,1.53,1.12.99,1.54,1.35,1.27.85,1.64,1.04,1.5.8,1.66,1.49,1.18.91,1.59.45,1.81,1.39,1.2.5,1.78,1.18,1.34,1.23,1.29,1.39,1.14.63,1.77,1.47,1.04,1.33,1.23-1.02-1.52-.85-1.58-.18-1.87-.9-1.56-1.05-1.5-.62-1.69-.56-1.71-.46-1.61-1.05-1.31-.72-1.51-1.21-1.13-1.46-.76-1.09-1.46-1.88-.32-1.02-1.59-1.42-1.14-.64-1.69-.5-1.73-.34-1.78-.96-1.6-.31-1.83-1.46-1.12-1.76-.4Z"/>
      <polygon points="69.22 67.19 69.04 69.03 68.65 70.83 68.04 72.58 67.08 74.15 66.02 75.67 64.7 76.95 63.24 78.09 61.62 78.97 59.88 79.58 58.09 80.05 56.24 80.12 54.41 79.96 52.58 79.65 50.84 79.02 49.27 78.04 47.79 76.95 46.42 75.7 45.32 74.21 44.46 72.57 43.76 70.85 43.38 69.04 43.33 67.19 43.35 65.33 43.83 63.54 44.42 61.79 45.34 60.18 46.46 58.71 47.78 57.42 49.2 56.23 50.89 55.46 52.6 54.8 54.39 54.33 56.24 54.21 58.09 54.37 59.88 54.81 61.59 55.47 63.28 56.24 64.76 57.35 66.02 58.72 67.19 60.15 68.08 61.78 68.71 63.53 69.06 65.34 69.22 67.19"/>
      <polygon points="101.99 128.03 103.54 127.6 105.02 128.14 106.14 129.28 106.92 130.69 107.62 132.28 108.35 133.85 109.06 135.44 109.74 137.04 111.26 136.73 111.22 134.58 111.13 132.96 111.19 131.33 111.76 129.85 113.25 129.65 114.66 129.18 115.31 127.82 115.91 126.44 116.33 128.21 116.08 130.02 114.51 131.21 112.51 131.57 112.86 133.21 113.03 134.86 112.92 136.52 112.19 137.95 110.6 138.57 108.91 138.29 107.64 137.1 106.76 135.61 106.2 133.97 105.69 132.17 104.74 130.56 103.46 129.19 101.99 128.03"/>
      <polygon points="73.3 62.98 74.88 63.49 75.95 64.76 76.58 66.31 77.2 67.85 77.83 69.45 79.48 69.1 79.69 67.18 79.7 65.24 79.82 63.32 81 61.87 82.64 60.99 83.98 59.72 84.97 58.13 85.44 59.6 85.23 61.15 83.78 62.21 82.18 63.07 81.41 64.71 81.4 66.59 81.38 68.48 80.89 70.27 79.5 71.48 77.99 71.42 76.68 70.61 75.77 69.37 75.16 67.78 74.53 66.18 73.9 64.59 73.3 62.98"/>
      <polygon points="38.31 60.17 36.69 60.79 35.04 60.39 33.73 59.23 32.55 57.93 31.22 56.8 29.65 56.04 27.92 55.7 29.8 54.6 31.94 54.85 33.21 55.9 34.28 57.18 35.31 58.48 36.87 58.85 37.66 57.24 37.28 55.33 36.82 53.43 36.92 51.5 38.32 49.93 40.08 48.73 41.19 48.16 42.34 48.46 41.19 49.76 39.8 50.79 38.52 51.94 38.54 53.64 38.97 55.34 39.36 57.05 39.33 58.8 38.31 60.17"/>
      <polygon points="71.43 80.3 71.38 81.92 72 83.41 73.19 84.51 74.7 85.12 72.89 85.83 70.99 85.43 70 84.3 69.39 82.89 69.38 81.37 70.04 79.49 71.43 80.3"/>
      <polygon points="97.8 96.24 95.42 96.59 94.18 95.34 95.73 94.77 97.29 94.22 98.85 93.68 100.66 93.3 102.31 94.04 100.8 94.78 99.29 95.48 97.8 96.24"/>
      <polygon points="97.21 117.85 96.43 116.4 95.64 114.94 94.88 113.47 94.07 112.02 95.7 112.23 97.01 113.19 97.7 114.67 97.72 116.31 97.21 117.85"/>
      <polygon points="73.46 47.76 72.17 49.11 70.88 50.46 69.59 51.81 69.29 50.25 69.77 48.75 71.47 47.72 73.46 47.76"/>
      <path d="M27.88,41.51l-1.43.64-1.52-.61-1.1-1.21-.67-1.52-.56-1.56-.25-1.64.26-1.63,1.05-1.25,1.76.53,1.43,1.2,1,1.59.54,1.8.03,1.87-.54,1.79ZM25.84,40l-.53-1.87-.55-1.87-.53-1.87-.54,1.51.19,1.62.74,1.45,1.22,1.03Z"/>
      <polygon points="55.57 44.02 54.34 45.26 53.09 44.02 54.34 42.78 55.57 44.02"/>
    </g>
  </g>
</svg>