<?xml version="1.0" encoding="UTF-8"?>
<svg id="Layer_2" data-name="Layer 2" xmlns="http://www.w3.org/2000/svg" viewBox="0 0 180.53 143.44">
  <g id="Layer_1-2" data-name="Layer 1">
    <g>
      <path d="M126.77,128.18l-1.59.83-1.09,1.48-1.86.49-1.52.92-1.07,1.5-1.68.71-1.16,1.39-1.59.83-1,1.6-1.6.83-1.32,1.18-1.62.8-1.09,1.5-1.5,1.22-1.85-.62-1.66-.77h-1.86s-1.58-1.08-1.58-1.08l-1.92.21-1.56-1.15-1.8-.26-1.91.16-1.64-.85-1.57-1.03-1.89-.11-1.81-.33-1.53-1.14-1.74-.53-1.61-.91-1.83-.24-1.73-.56-1.6-.94-1.8-.33-1.76-.44-1.76-.44-1.79-.36-1.7-.65-1.87-.08-1.48-1.39-1.9.03-1.62-.91-1.73-.56-1.97.26-1.51-1.32-1.98.34-1.75-.47-1.63-.9-1.82-.24-1.76-.44-1.69-.7-1.6-1.02-1.86-.09-1.76-.45-1.61-1-1.8-.3-1.82-.22-1.64-.86-1.94.24-1.76-.47-1.65-.87-1.72-.58-1.83-.04-1.5-1.08-1.79-.18-1.7-.48-1.49-1.09-1.97.37-1.41-1.36-1.7-.46-1.78-.22-1.67-.56-1.68-.52-1.69-.53-1.65-.65-1.97-.36.19-2.01.25-1.81.08-1.8-.46-1.79-.19-1.8-.05-1.8.61-1.82-.33-1.8-.72-1.78-.04-1.8.92-1.83-.75-1.78-.33-1.79.31-1.82-.13-1.8-.37-1.8.64-1.82-.34-1.79.17-1.81-.59-1.79.44-1.82.25-1.82-.7-1.79.18-1.82.15-1.82.28-1.81-.17-1.75-.4-1.76.11-1.76-.3-1.76-.2-1.76.41-1.75.64-1.75-.31-1.76L0,48.97l.06-1.76.1-1.76.31-1.76-.43-1.76.56-1.76.31-1.56,1.24-1.28,1.9-.37,1.65-.89,1.67-.85,1.69-.82,1.56-1.08,1.89-.38,1.54-.9,1.72-.5,1.43-1.18,1.51-.99,1.88-.13,1.39-1.28,1.67-.63,1.76-.42,1.51-.99,1.98.1,1.49-1.04,1.72-.5,1.52-.97,1.74-.47,1.28-1.53,1.92-.07,1.66-.67,1.44-1.18,1.65-.63,1.63-.69,1.82-.26,1.39-1.23,1.85-.21,1.37-1.27,1.85-.22,1.48-1.02,1.46-1.07,1.93-.04,1.47-1.04,1.66-.62,1.42-1.17,1.67-.6,1.87-.18,1.48-1.06,1.56-.88,1.76-.64,1.89-.32,1.77-.59,1.63-.94,1.51-1.21,1.6-1.01,1.77-.62,1.92-.26,1.5-1.25,1.93-.26,1.76-.33,1.65.09,1.75.29,1.81-.05,1.76.23,1.64,1.04,1.77.35,1.82.02,1.87-.29,1.69.78,1.72.58,1.85-.14,1.84-.07,1.67.9,1.79.21,1.83.02,1.69.82,1.91.07,1.92.15,1.54,1.15.51,1.46.93,1.61-1.01,1.5.03,1.68.23,1.81,1.22,1.5.39,1.76.38,1.77.62,1.69.37,1.77.32,1.79,1.11,1.54.54,1.72.65,1.72.69,1.7.57,1.74.46,1.79.79,1.66,1.05,1.54.56,1.76.7,1.7.81,1.65.99,1.55.11,2.03,1.78,1.1.1,2.09,1.05,1.52,1.4,1.28.95,1.58,1.52,1.15.79,1.72,1.47,1.15.8,1.77,1.22,1.4,1.71.86,1.46,1.01,1.37,1.1,1.2,1.3,1.59.83.94,1.65,1.26,1.26,1.87.47,1.15,1.41,1.75.6,1.3,1.2,1.17,1.39,1.33,1.17,1.76.54,1.59.79,1.37,1.12,1.11,1.53,1.6.77,1.78.47,1.24,1.35,1.42,1.06,1.46,1,2.31,1.28.89,1.08-.87,1.41-1.72.79-1.56.99-1.09,1.61-1.79.7-1.16,1.52-1.4,1.2-1.45,1.14-1.48,1.1-1.67.85-1.59.96-1.13,1.56-1.85.62-1.07,1.65-2.08.32-1.4,1.07-.8,1.86-1.38,1.09-1.46.99-1.91.39-1.15,1.4-1.29,1.22-1.56.86-1.13,1.43-1.91.4-.85,1.8-1.97.32-1.22,1.31-1.62.78-1.39,1.07-.97,1.65-1.42,1.05-1.78.58-1.29,1.22-1.24,1.29-1.26,1.27-1.59.83-1.26,1.27ZM34.31,43.9l1.66-.41,1.47-1.19,1.98-.06,1.75-.58,1.43-1.25,1.86-.36,1.48-1.14,1.78-.51,1.35-1.39,1.78-.52,1.58-.93,1.79-.5,1.39-1.29,1.59-.9,1.7-.68,1.77-.54,1.41-1.25,1.92-.24,1.32-1.43,1.95-.18,1.54-1,1.35-1.38,1.82-.44,1.84-.4,1.42-1.27,1.5-1.04,1.88-.25,1.6-.83,1.78-.47,1.48-1.09,1.63-.79,1.8-.42,1.53-.99,1.58-.88,1.59-.88,1.55-.95,1.69-.67,1.42-1.2,2.02.03,1.39-1.3,1.81-.41,1.66-.74,1.29-1.51,2-.02,1.26-1.57,1.63-.81,1.79-.35h-1.71s-1.72-.28-1.72-.28l-1.67-.54-1.61-.87-1.78.08-1.72-.28-1.61-.85-1.75-.14-1.76-.06-1.64-.71-1.85.41-1.72-.31-1.69-.72-1.85.64-1.57,1.21-1.98.21-1.62,1.08-1.75.79-2,.19-1.4,1.62-1.97-.06-1.59.81-1.49,1.04-1.64.71-1.62.76-1.62.75-1.67.64-1.49,1.04-1.76.44-1.76.46-1.68.61-1.46,1.11-1.58.86-1.63.73-1.9.13-1.52.99-1.36,1.34-1.64.73-2.04-.16-1.35,1.37-1.54.98-1.8.39-1.62.8-1.53,1.01-1.93.09-1.54.99-1.75.52-1.44,1.22-1.85.27-1.78.45-1.4,1.31-1.75.51-1.74.54-1.79.42-1.59.89-1.49,1.1-1.7.63-1.54,1.01-1.58.91-1.83.35-1.92.15-1.67,1.24,2.12-.16,1.78.44,1.78.47,1.73.68,1.89-.05,1.68.92,1.71.73,1.93-.26,1.69.87,1.81.31,1.8.35,1.79.39,1.86.1,1.73.87,1.86-.24ZM42.12,49.1l1.54-.49,1.37-1.25,1.94-.14,1.69-.63,1.36-1.28,1.81-.39,1.42-1.16,1.74-.52,1.3-1.4,1.75-.52,1.54-.92,1.76-.49,1.37-1.28,1.57-.88,1.7-.66,1.77-.52,1.42-1.24,1.92-.23,1.32-1.43,1.95-.17,1.53-1,1.34-1.38,1.81-.45,1.83-.41,1.4-1.28,1.5-1.07,1.89-.29,1.6-.86,1.79-.5,1.48-1.12,1.63-.82,1.81-.45,1.53-1.02,1.58-.91,1.59-.91,1.55-.98,1.69-.71,1.42-1.23h2.03s1.38-1.33,1.38-1.33l1.82-.44,1.66-.77,1.27-1.53,2.01-.06,1.25-1.59,1.62-.85,1.83-.44,1.13-1.86-1.08-.64-1.14-.7-1.81.25-1.41,1.13-1.58.79-1.83.27-1.52.93-1.48,1-1.77.4-1.27,1.43-1.59.77-1.77.4-1.64.67-1.37,1.24-1.84.26-1.43,1.11-1.57.82-1.84.24-1.18,1.64h-1.96s-1.55.83-1.55.83l-1.45,1.07-1.6.75-1.58.79-1.59.78-1.64.67-1.45,1.07-1.74.48-1.73.5-1.7.7-1.46,1.18-1.59.94-1.65.81-1.94.22-1.52,1.06-1.35,1.42-1.65.81-2.08-.06-1.34,1.44-1.53,1.07-1.81.49-1.61.89-1.51,1.1-1.96.19-1.52,1.07-1.75.61-1.41,1.3-1.87.37-1.79.55-1.25,1.25.68,1.21.74,1.43,1.11.89ZM53.44,91.27l.53,1.75,1.3,1.34.27,1.94.79,1.65,1.44,1.22.65,1.76,1.39,1.23.85,1.63,1.64,1,.91,1.59,1.28,1.28.95,1.59,1.61.97,1.31,1.25,1.15,1.4,1.07,1.5,1.63.9.89,1.71,1.8.7.89,1.73,1.51,1.02,1.8.67,1.14,1.46,1.14,1.48,1.75.7,1.61.87,1.1,1.55,1.5,1.02,1.28,1.34,1.69.75,1.51,1.01,1.29,1.34,1.65.79,1.59.88,1.6.86,1.65.77,1.5,1.02,1.8.49,1.14,1.66,1.78.35,1.74-.75,1.55-1.05,1.05-1.75,2.01-.41,1.01-1.8,1.5-1.12,1.77-.76,1.24-1.29,1.37-1.13,1.53-.91,1.74-.64,1.15-1.41,1.38-1.12,1.73-.66,1.28-1.23,1.24-1.29,1.64-.77.94-1.67,1.39-1.09,1.65-.77,1.47-1.01,1.08-1.51,1.74-.65,1.26-1.43,1.46-1.18,1.85-.67.92-1.9,2.02-.45,1.44-1.2,1.3-1.41,1.52-1.12,1.49-1.16,1.46-1.13,1.54-1.03,1.27-1.38,1.66-.86,1.65-.87,1.55-1.01,1.22-1.44,1.39-1.22,1.48-1.11,1.87-.58,1.31-1.33,1.07-1.65,1.48-1.1,2.06-.33,1.06-1.67,1.21-1.23-1.22-.56-1.58-.84-1.7-.66-1.16-1.53-1.67-.7-1.39-1.15-1.79-.52-1.22-1.4-1.31-1.24-1.84-.48-1.33-1.22-1.34-1.21-1.24-1.32-1.54-.93-1.67-.77-1.35-1.18-1.59-.89-1.52-.99-1.1-1.48-.92-1.66-1.53-.97-1.82-.69-1.24-1.3-1.19-1.35-1-1.53-1.52-1.06-.72-1.74-.8-1.63-1.57-1.07-.56-1.77-.99-1.5-.93-1.54-.86-1.57-1.09-1.45-.37-1.82-.97-1.52-.55-1.72-1.2-1.43-.99-1.54-.1-1.9-1.24-1.44-.56-1.71-.32-1.8-.89-1.59.25-1.99-.91-1.59-.34-1.77-.82-1.61-.31-1.78-1.41-1.42.11-1.92-.52-1.72-.88-1.37-1.48.71-1.69.78-1.9.36-1.43,1.31-1.92.31-1.41,1.36-1.92.31-1.54,1.11-1.52,1.16-2.1.2.6,2.04.29,1.78.89,1.64.31,1.77-.11,1.89.85,1.63.69,1.67.47,1.74.18,1.84.49,1.75.89,1.59,1.19,1.45,1,1.47.93,1.7.46,1.98,1.17,1.71-.32,2-.8-1.65-1.27-1.32-1.05-1.49-1.28-1.36-.98-1.56-.17-1.96-.72-1.66-.97-1.56-1.22-1.5-.13-1.89-.26-1.83-.92-1.64-.82-1.69.19-1.92-.46-1.77-.62-1.75-.12-2.14-1.61,1.03-1.48,1.05-1.71.61-1.77.48-1.21,1.61-1.92.19-1.58.86-1.76.5-1.3,1.44-1.69.65-1.69.64-1.57.87-1.69.64-1.72.59-1.35,1.33-1.62.8-1.58.88-1.57.88-1.65.75-1.71.62-1.53.87.81,1.51.22,1.8.36,1.77.46,1.74.65,1.69-.34,1.98,1.48,1.43-.4,2.02.63,1.69,1.01,1.56.48,1.74,1.12,1.5.22,1.85,1.01,1.53.14,1.9.61,1.71,1.23,1.42.96,1.53.86,1.58.63,1.7,1.18,1.4.28,1.91.74,1.66,1.6,1.14.6,1.75,1.51,1.4.6,1.94v1.81s-.76-1.46-.76-1.46l-1.58-1.05-1.3-1.3-.93-1.58-.48-1.87-1.17-1.39-1.42-1.25-.5-1.82-.74-1.66-.76-1.64-.88-1.58-1.68-1.2-.49-1.78-.36-1.83-.56-1.73-1.26-1.45-.16-1.88-1.1-1.53-.71-1.68-.6-1.72-.53-1.74-.2-1.84-.31-1.8-1.02-1.61.14-1.91-1.08-1.61.57-1.99-.96-2.16-1.35,1.77-1.62.86-1.68.74-2.02.07-1.46,1.2-1.55.99-1.75.59-1.44,1.24-2.01.08-1.23,1.64h-2.06s-1.51,1.09-1.51,1.09l-1.81.51-1.64.84-1.26,1.43.48,1.5-.16,1.9.63,1.71.73,1.68.71,1.68.2,1.82.55,1.72.62,1.7-.08,1.92,1.02,1.57.26,1.82,1.33,1.45-.26,2.01,1.07,1.53.44,1.77.38,1.79.62,1.7,1.28,1.42.76,1.63.76,1.63.65,1.69,1,1.52ZM60.22,108.25l-.93-1.55-1.52-1.06-.5-1.87-.88-1.55-1.45-1.15-.58-1.74-1.27-1.3-.63-1.69-1.45-1.23-.56-1.72-.92-1.52-.46-1.75-1.22-1.39-.8-1.6-.55-1.7-.38-1.77-1.09-1.48-.02-1.89-1.26-1.43.09-1.92-.77-1.61-1.16-1.49-.15-1.82-.1-1.83-1.02-1.55-.78-1.63.07-1.88-.53-1.7-.14-1.81-.8-1.63-.47-1.72-.07-1.82-.76-1.79-1.77-.56-1.5-.84-1.3-1.18-.59-1.66-.64-1.75.96-2.11-2.04.13-1.69-.78-1.76-.42-1.94.42-1.6-1.2-1.95.48-1.78-.34-1.69-.78-1.83-.12-1.78-.32-1.73-.59-1.66-.92-1.86.03-1.79-.34-1.67-.9-2.12-.12.14,2.14-.4,1.87.74,1.86v1.87s-.39,1.86-.39,1.86l-.1,1.87.53,1.86-.55,1.87.39,1.87.07,1.87-.57,1.87.97,1.87-.85,1.88.14,1.83.39,1.82.03,1.82.08,1.82.07,1.82-.05,1.83.39,1.82-.26,1.83-.25,1.83-.08,1.83.46,1.81.19,1.82.05,1.83-.61,1.85.33,1.82.72,1.8.04,1.83-.93,1.85.75,1.81.33,1.82-.31,1.84.13,1.83.37,1.83-.6,1.97,1.88.35,1.62.77,1.86.04,1.53,1.02,1.59.83,1.89-.06,1.62.78,1.63.75,1.59.87,1.75.38,1.82.17,1.67.65,1.79.26,1.8.25,1.66.85,1.59,1.07,1.84.16,1.95-.25,1.74.53,1.73.56,1.67.77,1.87.05,1.6,1.02,1.65.83,1.93-.14,1.61.97,1.77.42,1.75.47,1.74.51,1.82.23,1.6.98,1.8.31,1.67.73,1.88.03,1.82.23,1.55,1.12,1.91-.07,1.71.61,1.64.84,1.82.24,1.47,1.38,1.84.2,1.66.76,1.81.28,1.65.8,2-.3,1.52,1.23,1.71.6,1.89.07,1.49.75-1.38-.85-1.15-1.47-1.77-.63-1.1-1.53-1.8-.6-1.09-1.54-1.62-.84-1.65-.82-.93-1.71-1.61-.87-1.31-1.23-1.69-.79-1.27-1.28-.94-1.64-1.57-.95-1.42-1.11-1.23-1.32-.96-1.58-1.14-1.39-1.39-1.15-1.6-.97-1.42-1.15-1-1.51ZM38.09,49.44l-.2-1.27-1.27-.03-1.45-.15-.81,1.45,1.03,1.22,1.22.98,1.28-.92.19-1.28Z"/>
      <polygon points="129.52 76.24 127.88 75.46 126.34 74.51 124.94 73.37 123.67 72.07 122.58 70.61 121.67 69.04 120.95 67.38 120.4 65.66 121.71 66.82 123 68 124.24 69.25 125.4 70.55 126.49 71.94 127.56 73.32 128.56 74.77 129.52 76.24"/>
      <polygon points="83.82 68.92 82.17 68.13 80.98 66.72 80.15 65.07 79.88 63.27 81.29 62.4 81.91 64.04 82.55 65.66 83.16 67.3 83.82 68.92"/>
      <polygon points="12.12 97.89 12.8 99.81 13.51 101.73 13.44 103.09 11.99 102.33 11.21 100.69 10.52 99.01 9.76 97.36 9.04 95.69 8.3 94.03 7.56 92.32 9.28 92.11 10.95 91.86 11.67 93.49 12.36 95.15 13.13 96.76 14.22 98.07 15.36 99.36 16.46 100.67 17.43 102.09 18.34 103.54 18.83 105.19 19.05 106.88 18.89 108.63 17.68 107.19 16.72 105.62 15.9 103.96 15.24 102.24 14.49 100.56 13.5 99.02 12.12 97.89"/>
      <polygon points="39.34 89.11 39.29 87.46 39.22 85.81 39.14 84.15 39.08 82.5 40.42 80.97 41.24 82.52 41.37 84.28 41.03 86.01 40.34 87.64 39.34 89.11"/>
      <polygon points="11.97 60.82 10.41 60.07 9.36 58.68 9.07 56.96 9.67 55.33 10.98 56.9 11.78 58.79 11.97 60.82"/>
      <polygon points="13.77 56.01 12.18 54.81 11.85 52.79 13.5 52.91 14.41 54.43 13.77 56.01"/>
      <polygon points="40.34 114.6 38.99 113.73 38 112.44 37.6 110.9 39.43 111.11 40.49 112.7 40.34 114.6"/>
    </g>
  </g>
</svg>