<?xml version="1.0" encoding="UTF-8"?>
<svg id="Layer_2" data-name="Layer 2" xmlns="http://www.w3.org/2000/svg" viewBox="0 0 140.19 117.17">
  <g id="Layer_1-2" data-name="Layer 1">
    <g>
      <path d="M29.57,117.17l-1.35-1.06-1.45-.55-1.15-1.04-1.3-1.04-.33-1.72-.03-1.71.37-1.67.43-1.34-1.4-.6-1.84.37-1.56-1.15-1.74-.25-1.83-.08-1.59-.8-1.56-.84-1.59-.77-1.32-1.2-1.75-.6-.96-1.6-1.72-.77-1.14-1.38-.71-1.68-.84-1.54-.73-1.58-.6-1.63-.91-1.56-.27-1.75-.11-1.76-.02-1.76-.09-1.77.22-1.76.75-1.62.99-1.45.69-1.59,1.09-1.35,1.01-1.55,1.58-.88,1.87-.08,1.53-.88,1.68-.57,1.77.33,1.71-.29,1.74-.03-1.78-.31-1.53-.93-1.41-1.09-1.59-.74-1.32-1.16-1.27-1.2-1.51-.94-1.49-1.13-.63-1.84-1.59-1.15-.7-1.73-.28-1.87-1.24-1.53-.26-1.85-.08-1.86-.08-1.84.13-1.84.39-1.8.6-1.74,1.13-1.46.96-1.5.75-1.82,1.56-1.12,1.72-.82,1.9-.23,1.71-.92,1.88-.06,1.89.36,1.52-.47-1.48-.45-1.58-1.03-1.83-.56-1.38-1.33-1.59-.99-1.4-1.24-1.51-1.14-1.2-1.45-.69-1.8-1.04-1.53-1.02-1.58-.14-1.91-.69-1.72-.71-1.77-.26-1.87.8-1.83-.02-1.84.26-1.85.62-1.78,1.27-1.4,1.3-1.3,1.02-1.66,1.82-.62,1.62-.88,1.75-.63,1.84-.22,1.82.18,1.93-.23,1.86.58h1.92s1.86.5,1.86.5l1.95-.3,1.86.6,1.93-.09,1.8-.29,1.81.68,1.8-.67,1.8-.1,1.8-.03,1.81.72,1.8-.74,1.81.57,1.8-.16,1.81.26,1.8-.28,1.8.09,1.81.07,1.81.17,1.8-.67,1.81.25,1.81.08,1.81-.18,1.81.09,1.81-.4,1.78.24,1.78.29,1.78-.34,1.78-.19,1.79.49,1.78-.26,1.78-.15,1.79.46,1.78-.15,1.78-.06,1.79-.07,1.78.38,1.79-.02h1.79s1.79-.26,1.79-.26l1.75.1,1.75-.26,1.75-.21,1.75.24,1.75.25h1.75s1.75,0,1.75,0l1.74-.74,1.76.4,1.75.31,1.75-.39,1.75-.31,1.79.71,1.62-.82,1.72-.09,1.65-.52,1.72-.07,1.66-.43,1.74-.04,1.6-.79,1.8.28h1.73s1.69.33,1.69.33l1.61.58,1.83.16,1.38,1.13,1.26,1.21,1.24,1.23,1.04,1.43.67,1.63.62,1.65-.22,1.81.44,1.72-.1,1.76.37,1.8-.08,1.81-.88,1.63-.11,1.84-1.11,1.47-1.02,1.45-.75,1.62-1.16,1.34-1.28,1.22-1.33,1.17-1.42,1.09-1.58.68-1.22,1.28-1.45.91-1.82.39,1.89-.1,1.73.3,1.79-.11,1.51,1.04,1.64.53,1.31,1.13,1.2,1.19,1.55.94.94,1.49.86,1.55-.09,1.84.53,1.65.35,1.78.04,1.81-.7,1.74.53,1.91-1.01,1.61-.74,1.62-.27,1.84-.87,1.59-1.29,1.3-1.3,1.23-.9,1.66-1.57.94-1.6.53-1.13,1.29-1.45.78-1.59.56-1.26,1.12,1.78-.24,1.76.04,1.6.9,1.67.33,1.81.22,1.34,1.17,1.41,1.04,1.02,1.43.56,1.66.96,1.43.8,1.57-.11,1.78.43,1.75-.23,1.78.33,1.82-.16,1.81-.75,1.67-.92,1.56-.23,1.86-.81,1.63-1.08,1.46-1.18,1.38-1.57.97-1.44,1.05-1.49.96-1.4,1.09-1.43,1.09-1.68.62-1.64.69-1.52,1.05-1.79.29-1.81.1-1.72.43-1.87.51.97,1.68.29,1.76.58,1.81-.82,1.7-1.39,1.25-1.29,1.27-1.58,1.06-1.91-.35-1.8-.04-1.92-.14-1.7-1-1-1.7-.49-1.85.05-1.64-.34-1.59-.43-1.38-1.57-.19-1.75-.2-1.75.39-1.75-.6h-1.75s-1.75.49-1.75.49h-1.75s-1.76-.24-1.76-.24l-1.75.16-1.76.04-1.75.12-1.75-.19-1.76.11-1.75.3-1.76-.62-1.76-.06-1.76.14-1.76.39-1.76-.53-1.76-.03-1.77.33-1.77-.06-1.77.02-1.76.4-1.77-.17-1.77-.34h-1.77s-1.77.46-1.77.46l-1.77-.26-1.77.58-1.78-.66-1.76.68-1.78-.32-1.77.32-1.77.11-1.78-.56-1.74.24.03,1.5-.22,1.51-.58,1.47-.56,1.57-.54,1.68-1.61.73-1.49.71-1.65.14-1.76.51ZM28.41,32.14l1.84.63,1.83-.19,1.84.05,1.83-.49,1.84.19,1.84-.04,1.84-.04,1.83-.26,1.84.59,1.83-.66,1.85.8,1.84-.22,1.83-.51,1.84.15,1.84.09,1.84-.09,1.84.3,1.83-.56,1.85.59,1.84-.67,1.85.04,1.81.43,1.8.1,1.8.05,1.8.05,1.81-.43,1.8.09,1.8.1,1.8.05,1.81-.18,1.8-.07,1.81.27,1.81.33,1.81-.24,1.81-.03,1.8-.51,1.81.08,1.8.66,1.81-.45,1.81-.29,1.81.5,1.81-.18,1.81.08,1.81-.3,1.79.21,1.82.18,1.77-.41,1.81-.11,1.8-.24,1.67-.76,1.63-.8h1.91s1.41-1.32,1.41-1.32l1.71-.57,1.82-.43,1.17-1.54,1.54-.9,1.48-1.01,1.27-1.26,1.16-1.36,1.06-1.44.88-1.56,1.01-1.56.37-1.81-.53-1.86-.03-1.84-.29-1.83-.29-1.92-1.42-1.34-1.1-1.49-1.23-1.51-1.97-.19-1.72-.57-1.82-.38-1.79.55-1.84-.07-1.76.44-1.79.26-1.74.55-1.79.27-1.87-.18-1.76.42-1.75.38-1.81-.42-1.77.32-1.77.46-1.78.13-1.78-.76-1.78.27-1.78.22-1.78.11-1.77-.38-1.77-.2-1.79.53-1.77-.52-1.78.08-1.78.06-1.78-.11-1.78-.28-1.78.44-1.81-.36-1.8.21-1.81-.27-1.8.52-1.81-.39-1.8.31-1.81.3-1.81-.68-1.8.68-1.81.11-1.81.03-1.82-.71-1.8.75-1.81-.56-1.81.17-1.81-.25-1.81.28-1.81-.08-1.81-.06-1.81-.17-1.8.68-1.81-.25-1.81-.07-1.81.18-1.81-.09-1.81.41-1.82-.23-1.82-.28-1.82.35h-1.76s-1.67-.7-1.67-.7l-1.76.06-1.75-.06-1.67-.65-1.75-.05-1.74-.14-1.74-.13-1.73-.44-1.76.25-1.7.51-1.45,1.02-1.48.92-1.06,1.39-.95,1.67-1.04,1.63-.75,1.84-.16,1.99.19,1.98,1.16,1.54.28,1.79.59,1.74,1.35,1.26,1.39,1.14.8,1.76,1.74.72,1.35,1.19,1.66.72,1.49,1.02,1.7.6,1.59.88,1.86.06,1.62.92,1.77.36,1.78.34,1.8.27,1.81-.68ZM11.4,30.42l.94,1.17,1.61.85,1.56.91,1.83.27,1.62.77,1.73.44,1.75.33h1.8s1.72.79,1.72.79l1.82-.55,1.78.85,1.79-.23,1.84-.47,1.84.18,1.84.12,1.84-.06,1.84.33,1.85-.53,1.84.62,1.75-.67,1.76.04,1.75.41,1.76.08,1.75.03,1.76.03,1.75-.45,1.76.07,1.76.08,1.76.03,1.76-.2,1.82-.08,1.82.26,1.82.32,1.82-.25,1.82-.04,1.82-.52,1.82.07,1.83.65,1.82-.46,1.82-.3,1.83.49,1.83-.19,1.82.07,1.83-.31,1.83.24,1.83.31,1.83-.21,1.82.17,1.83.12,1.82-.33,1.83-.31,1.83.63,1.82-.72,1.83.19,1.84.46,1.82-.72,1.83-.03,1.86-.09,1.82-.34,1.81-.39,1.81-.42,1.78-.52,1.88-.29,1.69-.81,1.31-1.49,1.59-.91,1.54-1,1.7-.86.91-1.27-1.08.94-1.75.5-1.19,1.46-1.61.74-1.69.56-1.47,1.06-1.79.26-1.64.65-1.72.38-1.69.58-1.78.19-1.91-.4-1.88.21-1.87.34-1.91-.43-1.88.33-1.86.51-1.88.2-1.93-.67-1.88.37-1.82.14-1.83.06-1.81-.41-1.82-.21-1.83.53-1.82-.5-1.82.11-1.82.09-1.82-.09-1.82-.26-1.82.45-1.82-.36-1.81.21-1.82-.26-1.81.53-1.83-.38-1.82.32-1.82.3-1.83-.68-1.75.67-1.76.1-1.76.02-1.76-.72-1.75.74-1.76-.57-1.75.16-1.76-.26-1.75.27-1.76-.09-1.76-.07-1.75-.18-1.75.67-1.76-.25-1.76-.08-1.76.17-1.76-.09-1.76.4-1.77-.24-1.76-.28-1.81.25-1.83.02-1.72-.74-1.82-.08-1.79-.29-1.6-.95-1.75-.44-1.7-.6-1.68-.66-1.33-.62ZM11.84,62l1.28,1.49,1.74.7,1.68.81,1.9.2,1.7.73,1.8.4,1.82.28,1.85-.06,1.83.66,1.81-.66,1.82.8,1.81-.22,1.81-.5,1.82.15,1.82.09,1.82-.09,1.82.3,1.81-.56,1.82.59,1.81-.67,1.82.04,1.82.41,1.82.08,1.82.04,1.82.03,1.82-.44,1.82.07,1.82.09,1.82.03,1.82-.19,1.82-.08,1.82.26,1.82.32,1.82-.25,1.82-.04,1.82-.52,1.83.07,1.83.67,1.84-.44,1.84-.28,1.84.51,1.84-.16,1.83.09,1.84-.29,1.84.26,1.84.33,1.84-.19,1.84.19,1.84.14,1.85-.31,1.85-.29,1.81.65,1.81-.73,1.81.15,1.84.37,1.75-.86,1.81-.07,1.81-.14,1.76-.41,1.74-.48,1.77-.53,1.73-.64,1.85-.42,1.62-.93,1.19-1.58,1.51-1.02,1.46-1.1,1.62-.97.83-1.72,1.25-1.34,1.32-1.24.07-1.86.56-1.6.46-1.67-.4-1.7.12-1.74-.63-1.61-.71-1.56-1.18-1.25-1.15-1.24-1.26-1.45-1.8-.59-1.87-.13-1.85-.61-1.87.42-1.62.7-1.67.4-1.82-.46-1.65.57-1.61.52.67,1.37-.17,1.66-.43,1.51-.23,1.7-1.56,1-1.42,1.01-1.66.62-1.77.05-1.68-.5-1.78-.24-1.15-1.36-1.02-1.21-.25-1.59-.79-1.49.11-1.86-1.82.27-1.75.26-1.75-.71-1.76.64-1.75.07h-1.75s-1.75-.75-1.75-.75l-1.76.71-1.74-.6-1.76.13-1.75-.29-1.76.25-1.76-.12-1.75-.1-1.76-.2-1.77.64-1.76-.28-1.79-.07-1.79.19-1.79-.08-1.78.42-1.79-.22-1.79-.27-1.78.36-1.79.21-1.8-.47-1.79.28-1.79.17-1.79-.44-1.79.17-1.79.08-1.79.09-1.8-.36-1.79.04h-1.79s-1.79.3-1.79.3l-1.86-.08-.12,1.86-.2,1.7-.88,1.47-1.19,1.13-1.27.86-1.46.5-1.53.91-1.61-.55-1.6-.83-1.7-.63-1.46-1.2-.09-1.94-.77-1.68.36-1.86h-1.96s-1.89-.45-1.89-.45l-1.93-.09-1.89-.49-1.98.27-1.81-.52-1.84.3-1.79.55-1.71.81-1.08,1.61-1.37,1.2-1.05,1.48-.58,1.72-.29,1.77-.16,1.78.31,1.76-.04,1.91.98,1.58.8,1.65,1.45,1.18,1.32,1.21.97,1.59,1.7.75,1.47,1.01ZM34.33,43.45l.98-1.62-.7-1.76-1.2-1.41-1.8-.38-1.47-.43-1.52.25-1.29.79-.57,1.35-.79,1.45,1.05,1.27.38,1.71,1.53.69,1.67-.1,1.55.08,1.48-.53.7-1.37ZM114.45,42.2l.57-1.65-.92-1.46-1.3-1.08h-1.68s-1.57-.1-1.57-.1l-1.73.78-1.26,1.39-.22,1.78-.05,1.97,1.65.75,1.42,1.29,1.84-.27,1.39-1.07,1.37-.89.5-1.46ZM11.44,64.97l.87,1.24,1.6.87,1.58.88,1.84.2,1.64.71,1.74.39,1.76.32,1.8.06,1.69.9,1.77-.65,1.76.81,1.76-.21,1.76-.49,1.76.16,1.76.1,1.76-.08,1.76.31,1.76-.55,1.76.6,1.76-.66,1.76.05,1.76.42,1.76.09,1.76.05,1.76.04,1.76-.43,1.76.08,1.76.1,1.76.04,1.77-.19,1.77-.07,1.77.27,1.78.29,1.77-.28,1.78-.08,1.76-.55,1.78.04,1.8.61,1.77-.49,1.77-.3,1.77.49,1.76-.18,1.76.07,1.77-.31,1.77.25,1.77.31,1.77-.21,1.77.18,1.77.12,1.76-.33,1.77-.31,1.77.64,1.77-.71,1.77.19,1.77.46,1.77-.72,1.77.15,1.77.15,1.73-.08,1.72-.17,1.72-.21,1.71-.33,1.79-.11,1.64-.64,1.32-1.34,1.55-.73,1.52-.8,1.67-.64,1.03-1.49,1.38-.81-1.57.48-1.22,1.43-1.62.71-1.7.54-1.47,1.05-1.79.27-1.64.67-1.72.41-1.68.61-1.76.23-1.8-.33-1.75.18-1.86.26-1.87-.51-1.87.25-1.87.42-1.87.11-1.87-.76-1.87.29-1.88.25-1.88.15-1.82-.33-1.82-.14-1.82.58-1.82-.46-1.82.13-1.82.11-1.82-.08-1.82-.26-1.82.44-1.83-.37-1.82.2-1.83-.28-1.82.52-1.83-.39-1.82.31-1.82.29-1.83-.68-1.83.67-1.83.1-1.79.02-1.78-.73-1.78.73-1.79-.58-1.78.15-1.79-.26-1.78.27-1.79-.1-1.79-.08-1.78-.18-1.79.67-1.79-.26-1.79-.09-1.79.17-1.79-.1-1.79.4-1.79-.24-1.79-.29-1.76.29-1.78.04-1.67-.74-1.77-.09-1.74-.3-1.54-.95-1.69-.45-1.64-.6-1.63-.65-1.26-.62ZM3.44,80.99l-.91,1.64.15,1.8.18,1.78.95,1.56.52,1.68.92,1.49,1.08,1.38,1.36,1.12.89,1.64,1.79.57,1.01,1.66,1.65.72,1.8.36,1.55.85,1.62.71,1.71.45,1.64.74,1.84-.19,1.67.85,1.81-.51,1.74.09,1.79.41,1.79.08,1.78.04,1.78.03,1.78-.45,1.79.07,1.79.09,1.79.03,1.78-.2,1.79-.09,1.79.25,1.79.32,1.79-.26,1.79-.05,1.79-.53,1.79.07,1.8.64,1.79-.47,1.79-.31,1.8.48,1.79-.19,1.79.06,1.79-.32,1.79.23,1.8.3,1.79-.22,1.8.16,1.8.11,1.8-.34,1.8-.3,1.8.64,1.81-.71,1.8.2,1.8.47,1.81-.71,1.81.16,1.8.16,1.8-.02h1.81s1.8.06,1.8.06l1.81.05,1.81.39,1.81-.05,1.81-.71,1.81.05,1.81.09,1.85.36,1.77-.71,1.83-.11,1.91.08,1.59-1.14,1.77-.48,1.79-.46,1.5-1.12,1.8-.51,1.51-1.06,1.54-1,1.28-1.32,1.37-1.2,1.61-1.02,1.03-1.55.73-1.7,1.23-1.48.29-1.87-.16-1.87-.13-1.79.49-1.81-.79-1.58-.98-1.42-1.1-1.26-1-1.4-1.38-1.06-1.79-.11-1.55-.82-1.72.02-1.78.36-1.81.18h-1.84s-1.74.7-1.74.7l-1.86-.1-1.79.46.14,1.62.65,1.51-.68,1.47-.51,1.49-1.06,1.44-1.83.3-1.43,1.15-1.79.24-1.8-.24-1.34-1.31-1.82-.48-.48-1.73-.71-1.49-.07-1.67-.45-1.65-1.85-.12-1.84-.1-1.84-.21-1.85.64-1.84-.28-1.84-.11-1.84.14-1.84-.12-1.85.37-1.84-.26-1.85-.31-1.85.31-1.85.17-1.82-.48-1.81.28-1.81.16-1.82-.44-1.81.17-1.81.08-1.81.09-1.82-.36-1.82.04h-1.81s-1.81.3-1.81.3l-1.82-.09-1.81.26-1.81.22-1.81-.23-1.82-.25h-1.81s-1.82,0-1.82,0l-1.81.75-1.82-.39-1.82-.3-1.82.39-1.71.3-.6,1.44.13,1.86-.97,1.55-1.04,1.51-1.57.68-1.6.55-1.68-.24-1.76.19-1.41-1.09-1.32-.98-.92-1.35-.46-1.55-.76-1.61.43-1.68-1.82-.28-1.84-.07-1.84-.1-1.82-.29-1.84-.11-1.74-.62-1.74.47-1.75.33-1.41,1.14-1.33,1.07-1.6.8-.68,1.65-1.18,1.32-.13,1.77ZM34.42,77.7l.83-1.56-.76-1.59-1.12-1.31-1.67-.35-1.5-.44-1.55.27-1.31.82-.57,1.39-.75,1.54,1.17,1.26.58,1.72,1.64.59,2.1-.26,1.91-.46,1.01-1.63ZM114.41,77.06l.77-1.43-.68-1.47-.99-1.26-1.74-.24-1.63-.29-1.61.49-1.34.99-.66,1.48-.58,2.01,1.51,1.41,1.23,1.49h1.88s1.6-.86,1.6-.86l1.49-.81.76-1.51ZM25.7,104.42l1.76.67,1.76-.15,1.76.08,1.77-.46,1.76.22h1.76s1.76-.01,1.76-.01l1.77-.22,1.76.63,1.77-.63,1.76.83,1.77-.19,1.77-.47,1.77.18,1.77.12,1.74-.1,1.74.29,1.73-.56,1.75.58,1.73-.68,1.74.03,1.75.4,1.74.07,1.74.03,1.74.02,1.74-.45,1.75.07,1.75.08,1.75.02,1.83-.19,1.83-.08,1.83.26,1.83.32,1.83-.25,1.83-.04,1.83-.52,1.83.07,1.84.65,1.83-.46,1.83-.3,1.83.49,1.83-.19,1.84.07,1.83-.31,1.84.24,1.84.31,1.84-.21,1.84.14h1.84s1.79-.5,1.79-.5l1.76-.57,1.92.28,1.6-1.13,1.79-.35,1.88-.21,1.36-1.41,1.66-.73,1.61-.86,1.42-1.14,1.33-1.12-1.49.85-1.62.8-1.79.44-1.61.79-1.39,1.35-1.72.58-1.76.47-1.85.05-1.67.88-1.82.08-1.84-.33-1.78.73-1.78-.1-1.78-.22-1.78.4-1.78-.37-1.78.14-1.78-.04-1.77.25-1.78-.03-1.78-.49-1.78.13-1.78.26-1.78-.51-1.78.25-1.78.42-1.78.12-1.79-.76-1.78.29-1.78.25-1.78.15-1.78-.33-1.78-.14-1.78.58-1.79-.46-1.78.13-1.78.1-1.79-.08-1.78-.26-1.78.44-1.79-.37-1.78.2-1.79-.28-1.79.51-1.79-.39-1.77.3-1.77.28-1.77-.69-1.77.66-1.77.09-1.76.02-1.77-.73-1.77.73-1.77-.58-1.77.15-1.77-.26-1.77.27-1.78-.1-1.78-.08-1.87-.25-1.95.47-1.83-.57-1.82-.51-1.87-.37-1.76-.7-1.91-.31-1.66-.96-1.81-1.01,1.6,1.08,1.57.78,1.31,1.26,1.72.47,1.69.44,1.58.9,1.77.19,1.76.15,1.76-.29ZM34.32,112.77l1.03-1.59-.68-1.78-1.18-1.43-1.79-.44-1.58-.42-1.61.38-1.31.97-.49,1.5-.52,2.04,1.65,1.31,1.45,1.67h2.08s1.75-.95,1.75-.95l1.2-1.27ZM114.41,111.69l.74-1.49-.69-1.5-1.03-1.26-1.62-.16-1.5-.31-1.5.34-1.65,1.31-.78,1.92-.33,1.85,1.49,1.15,1.29,1.42,1.86-.09,1.57-.89,1.48-.79.67-1.5Z"/>
      <path d="M81.84,23.44l-1.61.8-1.83.11-1.72.54-1.24,1.32-.91,1.31-1.4.76-1.5.61-1.73.46-1.78.16-1.78.02-1.76-.29-1.71-.5-1.53-.92-1.45-1.03-1.32-1.21-1.06-1.6-.83-1.71-.46-1.85-.17-1.89.09-1.9.53-1.83.77-1.74,1.01-1.55,1.33-1.29,1.48-1.12,1.68-.81,1.79-.49,1.83-.28h1.86s1.84.26,1.84.26l1.77.57,1.64.88,1.33,1.3,1.03,1.5,1.68.23,1.71.12,1.72.17.67,1.76.38,1.8.08,1.84-.04,1.83-.14,1.83-.25,1.8ZM79.64,19.04l-1.59-.5.35-.98,1.56-.11.05-.98-2.11-.35v-.99s1.5-.31,1.5-.31l.18-.63-1.58-.28-1.61-.17-1.6-.2-.75-1.53-1.09-1.35-1.55-.8-1.69-.36-1.72-.25-1.85.1-1.82.36-1.71.73-1.5,1.08-1.34,1.26-1.01,1.55-.63,1.73-.33,1.73.11,1.76.39,1.71.66,1.62,1,1.44,1.23,1.26,1.42,1.05,1.74.81,1.89.33h1.91s1.85-.49,1.85-.49l1.76-.74,1.6-.5,1.06-1.4,1.17-1.35,1.61-.78,1.78-.03,1.16-.25.02-.52-.9-.21-1.09-.51.37-.8,1.22-.25-.14-.93Z"/>
      <rect x="103.16" y="21.53" width="1.61" height="1.61" transform="translate(14.82 80.3) rotate(-45.16)"/>
      <polygon points="37.24 14.96 36.15 16.05 35.07 14.96 36.15 13.88 37.24 14.96"/>
      <polygon points="36.81 22.72 35.68 23.84 34.56 22.72 35.68 21.61 36.81 22.72"/>
      <polygon points="104.39 14.34 103.32 15.4 102.25 14.34 103.32 13.26 104.39 14.34"/>
      <polygon points="114.58 14.15 113.57 15.17 112.56 14.15 113.57 13.14 114.58 14.15"/>
      <rect x="25.72" y="14.22" width="1.41" height="1.41" transform="translate(-2.86 22.92) rotate(-44.72)"/>
      <polygon points="26.8 22.53 25.78 23.56 24.75 22.53 25.78 21.51 26.8 22.53"/>
      <rect x="113.52" y="21.11" width="1.41" height="1.41" transform="translate(18.03 87.15) rotate(-45)"/>
      <path d="M68.94,92.74l-1.62-.11-1.65.09h-1.65s-1.65-.05-1.65-.05l-1.66-.05-1.66.03-1.46-.25-1.05-.94-.19-2.68-1.37-.94-.68-1.43.68-1.56,1.42-1.05.1-1.47.4-1.43,1.89-.74,1.98-.31.77-1.27,1.09-1.01,1.41-.41,1.69-.07,1.69.02,1.69.08h1.69s1.7.05,1.7.05h1.7s1.7.01,1.7.01l1.77.09,1.68.56,1.6.8,1.17,1.35,1.1,1.4.61,1.67.46,1.72.05,1.78-.11,1.88-.46,1.82-.59,1.79-1.16,1.48-1.37,1.29-1.79.59-1.72.49-1.74.43-1.72.49-1.73.46-1.74.45-1.77.32-1.22-1.08-.39-1.68.93-1.46,1.19-1.16ZM69.29,87.05l1.1.88-.77.94-1.7.04-1.71-.03-1.7-.02-1.71.06-1.71.11-1.71-.08-1.48,1.38,1.38.58,1.91.16,1.91-.04h1.92s1.91-.03,1.91-.03h1.92s1.92.07,1.92.07l1.92.02,1.47.77-1.07.86-1.52.58-1.43.79-1.24,1.02-.58,1.51,1.61-.42,1.62-.35,1.6-.4,1.6-.41,1.59-.48,1.62-.37,1.65-.81,1.5-1.08.85-1.65.63-1.73.16-1.84-.02-1.88-.47-1.82-.78-1.72-1.35-1.31-1.57-1.05-1.86-.29-1.77-.28-1.79-.06-1.79-.07-1.79.05-1.78.08-1.78.16-1.79.11-1.81.41,1.96.66,2,.1,2.01-.03,2.04.03.39,1.05-1.07.61-1.72-.13-1.73.12-1.72-.02-1.73-.14-1.73.11-1.73-.17-1.39.83,1.15,1,1.96.08,1.97-.07,1.96.12,1.97.09,1.97.05,1.28.45-.15,1.16-1.82.07-1.83-.03-1.83-.07-1.83.02-1.83-.08-1.83.06h-1.83s-1.23.59-1.23.59l.15,1.32,1.87-.04,1.86-.08,1.87.06h1.86s1.87.03,1.87.03l1.87-.07,1.89-.06Z"/>
      <polygon points="105.13 91.48 103.99 92.62 102.86 91.48 103.99 90.34 105.13 91.48"/>
      <rect x="113.53" y="90.32" width="1.49" height="1.49" transform="translate(-30.95 107.25) rotate(-44.91)"/>
      <polygon points="37.28 84.22 36.21 85.29 35.12 84.22 36.21 83.14 37.28 84.22"/>
      <polygon points="36.9 91.96 35.77 93.08 34.64 91.96 35.77 90.83 36.9 91.96"/>
      <rect x="112.91" y="82.65" width="1.47" height="1.47" transform="translate(-25.69 104.72) rotate(-44.97)"/>
      <rect x="102.71" y="82.85" width="1.46" height="1.46" transform="translate(-28.81 97.6) rotate(-44.99)"/>
      <polygon points="27.42 84.06 26.41 85.07 25.4 84.06 26.41 83.06 27.42 84.06"/>
      <rect x="25.1" y="91.06" width="1.45" height="1.45" transform="translate(-57.11 44.75) rotate(-44.73)"/>
      <path d="M84.38,55.18l-1.62-.42-1.59-.54-1.63.34-1.2,1.02,1.53.51,1.63.25,1.65.29-1.06,1.64-1.54,1.14-1.9.32-1.77-.13-1.72-.47-1.62-.74-1.58-.8-1.59-.79-1.73-.41-1.77.15-1.2,1.24,1.89.18,1.94.13,1.86.6,1.44,1.32.53,1.88-1.87-.37-1.89-.06-1.78.63-1.65.61-1.69.46-1.75.19-1.77-.07-1.73-.4-1.64-.68-1.45-1.02-1.41-1.03-.98-1.45-.94-1.44-.7-1.58-.38-1.69-.02-1.73.07-1.74.47-1.69.84-1.54,1.07-1.37,1.27-1.18,1.46-.92,1.49-.91,1.69-.46,1.74-.12,1.73.19,1.7.35,1.81.3,1.77-.46,1.7-.68.08,1.6-.77,1.43-1.37.83-2.02.81-2.16.5,1.6.93,1.74-.21,1.59-.72,1.38-1.05,1.45-.96,1.66-.5,1.69-.31,1.7.1,1.69.37,1.47.94,1.26,1.32-1.79.67-1.82.16-1.75.39-1.23,1.24,1.61-.56,1.68-.29,1.7-.14,1.65.46,1.67.36,1.48.85,1.69.91,1.85.58,1.92-.26,1.88-.48-.51,1.56-.9,1.34-1.38.89-1.56.57-1.66.06-1.64-.22ZM87.29,53.74l-1.46-.75-1.36-.94-1.47-.74-1.81-.62-1.9-.36-1.9.4-1.85.56-1.78-.4-.3-2.39,1.5-1.18,1.43-1.23-1.69.25-1.7.49-1.59.8-1.55.87-1.54.88-1.73.35-1.77.05-1.38-1.23-.48-1.73,1.16-1.27,1.52-.78-1.59-.46-1.68-.19-1.7.04-1.63.46-1.58.64-1.36,1.03-1.13,1.27-.8,1.48-.52,1.59-.2,1.66v1.68s.55,1.59.55,1.59l.53,1.61,1.03,1.36,1.39,1.23,1.58.95,1.72.68,1.85.14,1.83-.08,1.81-.29,1.75-.6,1.61-.95-1.94-.27h-1.96s-.88-1.12-.88-1.12l-.06-1.38,1.08-1.24,1.47-.71,1.64-.06,1.64.17,1.54.6,1.51.68,1.86.87,1.95.67,1.95.28-.82-1.12-.99-1.01.1-1.3.87-1.11,1.71-.79,1.92-.06,1.83.59,1.87.45h1.91Z"/>
      <polygon points="105.18 56.77 104.01 57.93 102.85 56.77 104.01 55.61 105.18 56.77"/>
      <polygon points="36.91 57.21 35.79 58.32 34.68 57.21 35.79 56.09 36.91 57.21"/>
      <rect x="102.69" y="48.23" width="1.46" height="1.46" transform="translate(-4.29 87.58) rotate(-45.06)"/>
      <polygon points="114.78 48.74 113.72 49.8 112.66 48.74 113.72 47.67 114.78 48.74"/>
      <polygon points="37.26 49.51 36.18 50.57 35.11 49.51 36.18 48.44 37.26 49.51"/>
      <polygon points="26.87 57.08 25.87 58.09 24.86 57.08 25.87 56.08 26.87 57.08"/>
      <polygon points="115.33 56.37 114.3 57.4 113.27 56.37 114.3 55.35 115.33 56.37"/>
      <rect x="25.74" y="48.74" width="1.41" height="1.41" transform="translate(-27.15 32.96) rotate(-44.76)"/>
      <path d="M111.16,78.46l-1.98-.05-1.24-1.48.46-1.88,1.7-.94,1.64.27,1.16,1.15-.36,1.75-1.38,1.16ZM109.6,75.95l.67.84.8-.3-.28-.78-1.18.24Z"/>
      <path d="M111.6,43.62l-1.49.34-1.49-.19-.7-2.43.82-1.19,1.32-.63,1.64.23,1.21,1.11-.28,1.57-1.03,1.19ZM109.91,41.32l.26,1.13,1.11-.78-1.37-.35Z"/>
      <path d="M111.15,113.13l-2.11-.03-1.24-1.64.62-1.78,1.66-.93,1.68.29,1.19,1.19-.34,1.77-1.45,1.13ZM109.6,110.61l.67.82.79-.29-.28-.79-1.18.25Z"/>
      <path d="M32.34,43.7l-1.61.34-1.62-.36-.92-1.3-.1-1.58,1.62-1.21,2.06.35,1.17,1.73-.6,2.02ZM29.89,41.32l.38,1.05,1.01-.11-.38-.95-1,.02Z"/>
      <path d="M32.25,112.96l-1.93.36-1.79-.8-.55-1.83,1.05-1.56,1.75-.18,1.65.61.6,1.75-.79,1.64ZM29.87,110.62l.39,1.09.99-.16-.33-.94h-1.05Z"/>
      <path d="M33,76.89l-1.16,1.62-2.05.02-1.47-1.26-.17-1.93,1.27-.96,1.64-.18,1.45,1.01.48,1.69ZM29.83,75.9l.46,1.15.97-.19-.35-.94-1.08-.02Z"/>
      <polygon points="72.75 22.43 72.33 23.9 71.26 24.97 69.79 25.39 68.31 24.99 67.23 23.91 66.86 22.43 67.24 20.96 68.31 19.87 69.79 19.47 71.27 19.87 72.35 20.96 72.75 22.43"/>
      <polygon points="72.39 13.77 71.58 15.77 69.59 16.6 67.61 15.75 66.78 13.77 67.59 11.78 69.59 10.97 71.58 11.78 72.39 13.77"/>
      <polygon points="75.24 19.83 73.38 19.08 71.51 18.31 73.16 16.89 75.29 16.48 75.27 18.16 75.24 19.83"/>
    </g>
  </g>
</svg>