<?xml version="1.0" encoding="UTF-8"?>
<svg id="Layer_2" data-name="Layer 2" xmlns="http://www.w3.org/2000/svg" viewBox="0 0 190.74 94.21">
  <g id="Layer_1-2" data-name="Layer 1">
    <path d="M47.55,48.26l-.26,1.91.79,1.79.16,1.8-.38,1.81-.56,1.82.86,1.79-.2,1.81.48,1.8-.8,1.82.16,1.81-.29,1.81.24,1.8.78,1.8-.36,1.81-.52,1.82.37,1.81-.16,2.03,1.89.53,1.48.93,1.62.61,1.87.04,1.34,1.25,1.49.91,1.95-.13,1.26,1.44,1.76.3,1.46.98,1.6.6,1.08,1.6-1.22,2.33-1.81-.05-1.62.47-1.65.39-1.4,1.07-1.45.95-1.62.49-1.69.22-1.69-.55-1.66-.68-1.63-.74-1.59-.84-1.49-1.08-1.71-.57-1.99.1-1.61-.78-1.32-1.46-1.69-.62-1.93-.04-1.31-1.49-1.83-.28-1.63-.75-1.63-.75-1.72-.55-1.55-.95-1.88-.16-1.45-1.19-1.41-1.09-2.04-.66.28-1.59.33-1.5,1.93-.05,1.7-.7,1.47-1.36,1.97.05,1.64-.89,1.78-.94,1.88.66,1.56,1.1,1.66.82,1.81.47-.08-1.82.42-1.82-.85-1.79.04-1.81.49-1.81-.71-1.79-.03-1.81-.16-1.8v-1.81s.7-1.82.7-1.82l-.58-1.8.31-1.82.08-2.05-1.88.74-1.62.81-1.87-.16-1.55,1.05-1.93-.38-1.54,1.08-1.71.46-1.88-.17-1.53,1.13-1.72.4-1.74.34-1.86-.11-1.6.9-1.6.89-1.96-.48-1.46,1.42-1.93-.34-1.67.69-1.66-.73-1.96.02-1.32-1.38.1-1.96-.62-1.56-.6-1.87,1.29-1.53,1.02-1.31,1.22-1.47,1.95.23,1.55-1.25,1.78-.41,1.87-.06,1.84-.19,1.54-1.29,1.81-.28,1.84-.15,1.63-.92,1.86-.08,1.83-.22,1.74-.53,1.81-.28,1.69-.71,1.76-.45,1.62-1,1.87-.07,1.72-.63,1.79-.37,1.76-.46,1.72-.63h1.89s1.66-.88,1.66-.88l1.78-.42,1.69-.74,1.75-.52,1.73-.58,1.87-.1,1.69-.73,1.94.19,1.71-.7,1.7-.7,1.82-.29,1.82-.3,1.62-1.04,1.86.05,1.53-1.21,1.8-.19,1.81-.13,1.84-.03,1.73-.46,1.64-.81,1.68-.63,1.63-.86,1.91.23,1.53-1.2,1.96.43,1.55-1.12,1.9.2,1.54-1.19,1.77-.29,1.86.04,1.63-.82,1.76-.35,1.79-.24,1.77-.3,1.67-.71,1.72-.51,1.56-1.09,1.96.41,1.75-.4,1.65-.79,1.84-.03,1.71-.52,1.64-.79,1.8-.18,1.6-.94,1.83-.09,1.77-.3,1.52-1.25,1.91.24,1.69-.6,1.84-.05,1.51-1.31,1.7-.56,1.91.22,1.68-.67,1.63-.84,1.85-.03,1.74-.43,1.61-.93,1.75-.39,1.82-.09,1.59-1.01,1.91.22,1.57-1.07,1.91.22,1.54-1.21,1.84-.08,1.88.07,1.7-.62,1.85-.22,1.65-.99,1.7-.78,1.96.22,1.69-.82,1.75-.6,1.98.27,1.69-.85,1.76-.57,1.82-.33,1.83-.33,1.61-1.14,2.03-.21,1.93.56,1.24,1.55,1.08,1.41.96,1.7-.26,1.92-1.05,1.58-.44,1.94-1.78.64-1.88.18-1.86.25-1.74.68-1.67.93-1.9.08-1.87.21-1.76.59-1.57,1.26-1.83.36-1.87.21-1.87.2-1.76.61-1.9.52.54,1.86.08,1.75-.03,1.75-.03,1.75-.74,1.76.27,1.75-.23,1.76.85,1.74-.75,1.76.7,1.74.22,1.75v1.76s-.84,1.76-.84,1.76l-.19,1.76.8,1.75-.22,1.78,1.72.63,1.68.68,1.88.15,1.54,1.05,1.63.81,1.91.1,1.53,1.07,1.57.99,1.89.15,1.93.45,1.22,1.77-1.61,2.19-1.84.62-1.51,1.37-1.87.56-1.82.67-1.83.72-1.57-1.08-2.05.22-1.66-.79-1.45-1.32-1.89-.19-1.54-1.1-1.61-.91-1.74-.58-2.07.28-1.7-.68-1.36-1.55-1.95-.04-1.77-.5-1.39-1.5-1.96-.03-1.74-.59-1.63-.88-1.84-.34-1.72-.79-1.35-1.72-.26-1.47,1.18-.73,1.54-1.23,1.86-.22,1.89-.14,1.53-1.27,1.84-.46,1.66.68,1.78.21,1.41,1.26,1.74.35.5-1.86-.41-1.84.35-1.85-.38-1.84v-1.85s.27-1.85.27-1.85l-.25-1.84.29-1.85v-1.85s-.43-1.85-.43-1.85l.04-1.85-.26-1.8-1.59.85-2-.5-1.47,1.49-1.82.17-1.92-.19-1.57,1.14-1.8.24-1.83.14-1.77.36-1.63.9-1.75.45-1.78.33-1.69.7-1.66.78-1.88-.06-1.66.78-1.79.28-1.72.55-1.69.68-1.98-.45-1.72.52-1.75.43-1.72.57-1.71.58-1.59,1.06-1.96-.37-1.67.74-1.82.17-1.52,1.33-1.94-.26-1.63.91-1.63.89-1.93-.24-1.76.42-1.55,1.21-1.99-.47-1.53,1.29-1.95-.29-1.74.48-1.6,1.04-1.85.09-1.7.65-1.64.87-1.97-.36-1.55,1.25-1.83.19-1.94-.22-1.57,1.11-1.63.89-1.98-.47-1.59,1.04-1.91-.21-1.7.6-1.58,1.08h-1.86s-1.62.92-1.62.92l-1.95-.33-1.61.96-1.69.65-1.69.75-2-.18ZM186.43,2.34l-1.93.19-1.53,1.2-1.69.59-1.83.06-1.88-.11-1.51,1.26-1.79.23-1.61.89-1.94-.34-1.69.59-1.81.15-1.67.67-1.54,1.19-1.83.09-1.87-.07-1.64.79-1.8.21-1.64.79-1.8.21-1.71.55-1.54,1.15-1.88-.13-1.79.23-1.5,1.33-1.94-.33-1.62.87-1.81.15-1.71.54-1.64.8-1.69.6-1.9-.18-1.76.36-1.78.27-1.6.97-1.63.85-1.75.38-1.83.1-1.69.62-1.72.48-1.74.42-1.77.32-1.83.07-1.69.6-1.51,1.31-1.76.38-1.95-.34-1.71.55-1.55,1.16-1.95-.36-1.61.91-1.74.41-1.74.41-1.69.62-1.8.21-1.58,1.03-1.87-.05-1.85.02-1.53,1.21-1.88-.08-1.61.94-1.88-.11-1.71.56-1.53,1.24-1.91-.21-1.66.75-1.65.77-1.73.47h-1.86s-1.78.28-1.78.28l-1.69.64-1.72.5-1.85.02-1.53,1.24-1.76.38-1.87-.06-1.56,1.11-1.73.45-1.7.57-1.74.42-1.93-.26-1.6.98-1.82.12-1.8.22-1.64.8-1.64.81-1.9-.15-1.57,1.06-1.96-.37-1.57,1.09-1.73.47-1.9-.16-1.56,1.14-1.75.41-1.77.35-1.88-.11-1.62.91-1.62.9-1.98-.47-1.48,1.43-1.95-.33-1.61.95-1.88-.03-1.26,1.01.63,1.65-.36,2.21.83,2,1.68-1.05,1.93.33,1.75-.38,1.54-1.15,1.91.25,1.52-1.24,1.74-.39,1.84-.05,1.8-.17,1.51-1.28,1.78-.27,1.82-.13,1.61-.91,1.84-.06,1.8-.2,1.72-.52,1.78-.27,1.67-.7,1.73-.44,1.59-.98,1.84-.06,1.69-.61,1.76-.36,1.73-.44,1.69-.61h1.85s1.62-.85,1.62-.85l1.74-.4,1.66-.72,1.72-.5,1.7-.57,1.83-.08,1.66-.72,1.91.21,1.67-.68,1.67-.68,1.78-.27,1.78-.28,1.58-1.02,1.86.04,1.53-1.22,1.8-.2,1.82-.13,1.84-.04,1.73-.47,1.64-.82,1.69-.64,1.63-.86,1.91.22,1.53-1.21,1.97.42,1.55-1.13,1.91.19,1.54-1.2,1.78-.3,1.87.04,1.64-.83,1.76-.35,1.79-.24,1.77-.31,1.66-.72,1.72-.52,1.57-1.1,1.96.41,1.75-.41,1.64-.79,1.85-.04,1.72-.53,1.64-.8,1.81-.19,1.6-.95,1.83-.1,1.77-.31,1.52-1.26,1.92.24,1.69-.61,1.84-.06,1.5-1.31,1.7-.57,1.91.21,1.68-.68,1.63-.85,1.85-.03,1.74-.43,1.61-.93,1.75-.4,1.83-.1,1.59-1.02,1.91.21,1.57-1.08,1.92.22,1.53-1.22,1.84-.09,1.88.06,1.69-.63,1.8-.22,1.6-.99,1.65-.78,1.92.23,1.64-.81,1.71-.6,1.94.27,1.74-.92-.61-2.06-.39-2.01-.61-2.07ZM157.32,45.67l.67,1.56,1.48-.03.76-.86,1-.89.54-1.87-.88-1.84.18-1.87-.5-1.85.78-1.88-.18-1.86.27-1.87-.27-1.86-.8-1.84.34-1.87.5-1.88-.4-1.86-.1-2.25-1.23,1.95-1.31,1.45-1.05,1.7.72,1.85-.6,1.79-.22,1.78.91,1.78-.8,1.79.44,1.78-.3,1.79.1,1.78.36,1.79.15,1.81-.57,1.78ZM157.32,50l-.81-1.58-1.63-.97-1.02-1.24-1.28-.89-1.35-1.13-1.84.2-1.47-.79-1.58.49-1.9-.24-1.56,1.19,1.67,1.01,1.83.49h2.03s1.61,1.04,1.61,1.04l1.55,1.2,1.88.37,1.66.93,1.89.38.32-.48ZM157.23,50.67l1.57.86,1.87-.12,1.65.47,1.47.98,1.41,1.15,1.89-.18,1.53.81,1.77.18,1.36,1.38,1.9-.58,1.83-.46,1.51-1.61-2.03.04-1.55-.99-1.5-1.15-1.81-.31-1.6-.87-1.81-.31-1.61-.87-1.78-.56-1.49,1.65-2.06-.04-2-.27-.5.81ZM5.67,56.61l.95-1.89-.67-1.88-.86-.79-.98-.98-1.12,1.37.86,1.64.49,1.46,1.34,1.07ZM40.36,79.88l.74,1.58h1.57s1.18-.67,1.18-.67l1.36-.45.54-1.83-.87-1.81.18-1.83-.49-1.82.78-1.85-.18-1.83.28-1.84-.26-1.82-.8-1.81.34-1.84.51-1.84-.39-1.82.21-1.84-.39-1.82.21-1.84-.27-2.03-.55,1.89-1.4,1.11-1.08,1.3-.12,1.9-1.61,1.08.45,1.87-.28,1.81.12,1.8.38,1.79.18,1.8-.63,1.81-.07,1.81-.16,1.81.57,1.79.44,1.8-.05,1.83-.44,1.81ZM47.55,81.91l-1.63,1.27-1.42,1.55-2.1.31-1.92-.85-.99-1.34-1.55-.94-.22-1.73-.44-1.41-1.08-1.36-1.73-.64-1.64-.95-1.91-.17-1.78.81-1.81.09-1.91.27-1.46,1.45,1.63.98,1.82.41,1.59.96,1.73.64,1.97.06,1.46,1.28,1.6.94,2.05-.11,1.38,1.47,1.86.33,1.57,1.01,1.73.64,1.83.4,1.75.59,1.44,1.33,1.66.82,1.62.9,1.91.24,1.71-1.08,1.88-.62,1.98-.35,1.73-.77-1.55-.56-1.59-.73-1.54-.83-1.44-1.07-1.66-.56-1.95.11-1.57-.78-1.26-1.45-1.76-.54Z"/>
  </g>
</svg>