<?xml version="1.0" encoding="UTF-8"?>
<svg id="Layer_2" data-name="Layer 2" xmlns="http://www.w3.org/2000/svg" viewBox="0 0 131.49 145.41">
  <g id="Layer_1-2" data-name="Layer 1">
    <g>
      <path d="M100.4,6.74l-1.43-1.15-1.52-1.02-1.6-.89-1.97.08-1.48-1.24-1.91.04-1.68-.67-1.65-.87-1.88.18-1.8-.11-1.75-.45-1.78-.38-1.8-.26-1.81.26-1.79.28-1.79.14-1.82-.11-1.74.53-1.84-.1-1.79.27-1.64.88-1.84.1-1.78.39-1.73.56-1.73.56-1.58.92-1.42,1.21-1.53.93-1.95.23-1.54.96-1.43,1.12-1.29,1.3-1.62.87-1.49,1.05-.8,1.81-1.84.69-1.14,1.43-1.14,1.41-.82,1.66-1.46,1.05-1.67.62-1.86.21-1.52,1.06-1.11,1.45-1.28,1.27-.42,1.76-.66,1.68v1.81s-.45,1.7-.45,1.7l-.03,1.75-.59,1.65-.74,1.58-1.21,1.33-.63,1.64-.27,1.77-.66,1.6-.76,1.55-1.03,1.43-.9,1.47-.55,1.68-.97,1.45-1.51,1-.77,1.64-1.3,1.16-1.19,1.22-1.17,1.34-.36,1.76-.69,1.62-.54,1.74.81,1.67.34,1.92,1.39,1.36,1.38,1.33,1.26,1.44,1.11,1.53-1.05,1.47-.93,1.6-1.24,1.38-1.31,1.36-.73,1.71-.6,1.77-.93,1.59-.44,1.82-.69,1.7-.71,1.69-1.39,1.42-.09,1.95-1,1.57-.94,1.58-.53,1.8-1.22,1.4-.91,1.6-1.33,1.3-.33,1.84-.71,1.65v1.8s-.16,1.8-.16,1.8l.93,1.55.84,1.52,1.53.84,1.52.89,1.58.77,1.16,1.53,1.77.44,1.28,1.24,1.05,1.34,1.67.92,1.02,1.5,1.31,1.25,1.5,1.03,1.72.58,1.6.9,1.76.5,1.89-.42,1.72.84,1.83-.56,1.78.77,1.8-.75,1.79.67,1.8-.36,1.78.31,1.81-.18,1.77.39,1.74.49,1.9-.39,1.57,1.15,1.96-.3,1.54,1.01.14,1.72-.73,1.64-.29,1.7v1.73s.07,1.73.07,1.73l-.08,1.74.82,1.62.4,1.64-.15,1.86,1.17,1.37,1.04,1.54,1.83.24,1.77.07,1.72-.47,1.82.17,1.68-.91-.71-1.82.33-1.85-.61-1.79.04-1.83.49-1.79.37-1.77.17-1.82.64-1.7.51-1.76,1.03-1.52.92-1.61,1.4-1.2,1.51-1.3,1.69,1.07,1.72.55,1.69.64,1.77.41,1.84.1,1.73.51,1.66.89,1.83.1,1.81.17,1.75.62,1.86-.53,1.79.42,1.81-.05,1.8-.19,1.82-.29,1.59-.94,1.61-1.01.92-1.72-.31-2.03.57-1.79.78-1.74.52-1.8.27-1.89.55-1.82,1.32-1.45.72-1.77,1.6-1.09,1.13-1.52,1.71-.7.94-1.65,1.63-.82,1.09-1.45,1.41-1.09,1.16-1.36,1.52-1,1.18-1.33.88-1.6,1.46-1.08.94-1.52,1.02-1.45,1.49-1.11.69-1.69,1.25-1.3.67-1.68,1.22-1.35.74-1.63.54-1.72,1.08-1.46.14-1.87,1.18-1.44.52-1.71.66-1.66.32-1.76.32-1.75.85-1.63.14-1.79-.25-1.83.52-1.72-.03-1.78.47-1.8-.23-1.83-.15-1.81.41-1.84-.7-1.77.34-1.87-.28-1.81-.78-1.71-.35-1.78.16-1.92-1.15-1.57-.3-1.81-.26-1.85-1.19-1.49-.44-1.8-.97-1.56-.49-1.8-1.33-1.35-.96-1.54-1.06-1.48-1.08-1.46-.9-1.59-1.35-1.24-1.07-1.47-1.17-1.39-1.18-1.39-1.46-1.1-1.11-1.47-1.61-.92-1.19-1.4-1.63-.87-1.21-1.42-1.7-.74-1.39-1.2-1.41-1.2-1.87-.38ZM83.64,4.96l1.92.35,1.83.04,1.79.38,1.91.06,1.58,1.09,1.82.46,1.67.83,1.87.49,1.37,1.38,1.86.53,1.3,1.46-.16.76-1.75.54-1.82.2-1.71.63-1.62.87-1.62.79-1.76.48-1.57.9-1.59.86-1.78.57-1.47,1.08-1.51,1.02-1.38,1.19-1.48,1.07-1.12,1.46-1.2,1.36-1.18,1.37-1.13,1.41-.99,1.52-1.47,1.14-.9,1.58-1.01,1.49-.84,1.61-.89,1.57-1.62,1.13-.61,1.99-1.62-1.01-1.54-1.02-1.53-1.03-1.38-1.28-1.85-.53-1.45-1.17-1.53-1.05-1.68-.81-1.38-1.19.77-1.4.79-1.59.65-1.68,1.16-1.38,1.06-1.43.6-1.75,1.57-1.06.92-1.53.91-1.56,1.49-1.05.89-1.61,1.7-.8,1.06-1.47,1.37-1.14,1.63-.78,1.07-1.58,1.75-.56,1.41-1.12,1.57-.88,1.88-.11,1.43-1.28,1.91.17,1.6-.96ZM49.83,12.24l1.91-1.81.54.53-.17,1.84-.87,1.68-.07.04-1.03-1.26-.31-1.02ZM47.46,13.01l.77,1.85.41,1.78,1.2,1.42.62,1.69.34,1.81,1.36-.29.37-1.87.55-1.82.41-1.87.56-1.82,1.18-1.65.38-1.88.4-1.87.22-.87,1.76-.41,1.83-.17,1.59-.85,1.61-.88,1.79-.24,1.76-.33,1.75-.38,1.8-.03,1.77-.18,1.76-.54.2,1.4-1.48.99-1.23,1.36-1.46,1.01-1.29,1.23-1.65.78-1,1.56-1.71.76-1.25,1.27-.96,1.54-1.07,1.41-1.69.89-.78,1.66-1.02,1.45-1.27,1.27-.79,1.6-.73,1.63-1.25,1.33-1.02,1.48-.5,1.84-1.28-1.52-2-.48-1.25-1.52-1.73-.86-1.62-1.01-1.18-1.62-1.89-.65-.96-1.39.96-1.21,1.05-1.59,1.65-.96,1.01-1.64,1.55-1.08,1.43-1.51ZM30.34,29.65l1.85-.23,1.45.85.26,1.63-.3,1.89-1.85-.19-1.85-.2.63-1.85-.19-1.9ZM23.45,66.84l-.73,1.53-1.15,1.03-1.23,1.24-1.06-1.65-.78-1.64-1.57-1.05-1.1-1.4-.65-1.74v-1.69s.3-1.81.3-1.81l.78-1.73.86-1.74,1.66-1.03,1.15-1.49,1.26-1.34,1.26-1.37.63-1.77,1.01-1.54,1.06-1.56.1-1.94,1.16-1.54.6-1.74.53-1.85,1.44-1.26,1.48-1.18,1.76-.71,1.94-.12,1.78.62,1.8.46,1.82.43,1.29,1.19-.99-1.6-1.27-1.47-.72-1.91-1.33-1.4,1.12,1.38,1.73.68,1.17,1.43,1.31,1.25,1.88.47,1.5.99,1.04,1.64,1.64.78,1.71.68,1.22,1.4,1.71.66,1.14,1.52,1.84.46,1.43,1.08,1.36,1.21,1.67.7,1.4,1.15,1.6.81,1.49,1.01,1.66.72,1.41,1.17,1.75.54,1.64.74,1.57,1.05,1.74.77,1.23,1.59,1.92.48,1.51,1.15,1.56,1.07,1.44,1.27.25.35.27.23-1.09.64-2.15.48-.85,1.3.24,1.95.38,1.82.87,1.69-.5,1.84.04,1.85-1.01,1.55-.9,1.58-.69,1.81-1.59,1.12-.92,1.66-1,1.63.25,1.9.17,1.78.52,1.73-.47,1.48-.84,1.56-1.7.67-1.41.91-1.51.77-1.63.45-1.65.36-1.69.11-1.71-.07-1.74-.26-1.41-1.04-1.11-1.3-1.44-1.11-.63-1.78-1.66-.93-1.01-1.47-.78-1.66-1.49-1.08-1.62-.81-2.03-.41-1.11,1.58,1.15,1.59,1.68.62,1.71.54.95,2.13-.27,1.99-1.13,1.4-1.45,1.12-1.73.63-1.83-.04-1.84.58-1.82-.51-1.24-1.47-1.81-.43-1.03-1.45-1.66-.64-.98-1.53-1.71-.47-1.8-.02-.5-1.74-1.38-1.05-1.19-1.17-1.52-.68-1.4-.86-1.52-.68-1.31-1.63-1.62-1.18-1.71-1.05-1.75-.94,1.02-1.44,1.55-1.11,1.03-1.56.57-1.82,1-1.52.92-1.61.47-1.98ZM82.6,69.56l-.56-1.72.14-1.83-.32-1.76.37-1.47.79.16.53-.12,1.47,1.29.65,1.85.55,1.8.86,1.78-.3,1.94-.68,1.78-.7,1.72-.61,1.77-.76,1.71-1.09,1.53-.53,1.88-1.69,1.08-1.14,1.44-1.06,1.62-1.79.83-.91-1.53.82-1.59,1.3-1.25.59-1.77,1.02-1.44,1.37-1.18.94-1.51.76-1.63-.05-1.82.15-1.74-.12-1.78ZM71.52,96.52l-.86,1.64-.07,1.98-1.17,1.56-.42,1.85-1.09,1.59-.17,1.95-.52,1.92-.87-1.91.24-1.8.23-1.72.16-1.79,1.07-1.44.67-1.72,1.3-1.28,1.51-.83ZM37.91,99.62l-.68.16-1.68-.65-.94-1.29,1.62-.93,1.05-1.59,1.1.71.36,1.88-.83,1.71ZM17.63,88.32l1.07-1.23,1.23-1.08.87-1.43,1.16.63-.07,1.7-.18,1.69.15,1.73-1.39.19-1.57-.38-1.48-.52.2-1.29ZM18.56,93.68l-1.02,1.59-1.87.44-1.01-.29.11-2.21,1.54-1.53,1.57.76.66,1.24ZM21.86,95.22l2.3,1.18v1.29s-1.37,1.45-1.37,1.45l-1.7.99-1.4-1.02.45-1.87,1.02-1.71.7-.33ZM22.88,90.76l1.75-1.11,1.18-1.74,1.6.96.11,1.56-.61,1.48-.34,1.51-.84.48-1.9-1.09-.96-2.05ZM27.14,98.49l1.45.84,1.46.82-.95,1.26-1.54,1.58-1.13.51-1.12-1.17.4-.97.14-2.01,1.29-.85ZM29.05,95.26l.61-2.27,1.77-1.46,1.8,1-.59,2-.08,2.05-.87.6-2.04-.27-.6-1.64ZM33.84,101.61l1.57-.12.9,1.43-.86,1.69-1.18,1.5h-.65s-2.02-.36-2.02-.36l-.25-1.59,1.11-1.38,1.38-1.16ZM40.49,106.93l-.94.34-1.45-1.21,1.48-1.98,1.18,1.78-.27,1.06ZM41.28,99.3l2.02-1.15,1.34.58-1.08,1.97-1.69,1.25-.85-1.09.26-1.55ZM12.37,85.02l1.09-1.32,1.06-1.34,1.17-.69,1.5-.59.06,1.28.02,1.38-.8,1.76-.86,1.72-2.05-.33-1.19-1.87ZM12.47,88.01l1.07.84.3,1.31-1.16.93-.46,1.41-1.3.19-1.19-.67-.12-1.3.99-1.05.79-1.18,1.07-.48ZM49.71,123.1l-1.68.02-1.69-.55-1.77-.24-1.68-.77-1.79-.11-1.81.17-1.75-.59-1.78-.38-1.8-.08-1.8.17-1.8.2-1.79-.36-1.79.22-1.77-.26-1.79.02-1.71-.48-1.86-.18-.82-1.66-1.61-1.06-.93-1.51-.77-1.63-1.09-1.4-1.46-1.08-1.2-1.28-.84-1.64-1.64-.85-1.44-1.5.53,2.19.15,2.06-1.7-.19-1.74-1.11-1.28-1.62-.88-1.93.65-2.04.9-1.42,1.35-1.15.64-1.57.8-1.48.69-1.55,1.05-1,1.44.63,1.66.78,1.41,1.14,1.37,1.04,1.33,1.1,1.16,1.35,1.53.82,1.6.2,1.64-.04,1,1.72,1.32,1.49,1.89.26,1.63.94,1.89.19,1.79.47,1.69.87,1.92.16,1.76.65,1.82.48,1.61,1.15,2.13.28-1.66.99-1.72.15-1.48.74v.75s1.62.73,1.62.73h1.78s1.79.12,1.79.12l1.5-1.12,1.64-.47,1.66-.65,1.1-1.43,1.33-1.13,1.06-1.39,1.29-1.19,1.23-1.26,1.13-1.35.82-1.57,1.03-1.41,1.19-1.27,1.34-.96,1.49.07.67,1.86-1.34,1.16-.25,1.79-1.14,1.28-.64,1.57-1.45,1.1,1.53,1.26,1.2-1.68,1.58-.12,1.13.91-.46,1.32-.8,1.73-1.72.79-1.06,1.5-1.78.73-.86,1.69-1.31,1.22-1.46,1.13-.94,1.55-.56,1.79-1.36,1.05ZM54.69,142.28l-1.47-.64-1.54-.83.49-1.3.97-1.15,1.03-.6.9,1.64,1.4,1.1-.62,1.06-1.16.71ZM54.94,135.24l-2.43-.49-1.38-1.8.21-1.77.49-1.71.4-1.72.36-1.76.65-1.67,1.08-1.44.81-1.59.92-1.53,1.45-1.12.93-1.54,1.32-1.2,1.18-1.35,1.82-.51,1.35-1.12,1.69-.23,1.49,1.09.45,1.66-1.05,1.45-1.29,1.3-.88,1.73-1.16,1.45-1.31,1.29-1.54,1.14-.79,1.71-.74,1.69-1.29,1.45-.52,1.81-.43,1.82-.49,1.83-1.28,1.11ZM69.19,120.6l-.73-1,1.68-1.29,1.27.67,1.06,1.11,1.88.26,1.56,1.12,1.93-.18,1.72.93,1.87-.3,1.81-.34,1.87.49,1.85-.09,1.67-1.1,1.91.21,1.73-.67,1.31,2.02-1.65.94-1.76.45-1.78.12h-1.76s-1.81.53-1.81.53l-1.75-.6-1.83.12-1.72-.58-1.82-.03-1.59-1.09-1.81-.11-1.82-.15-1.54-1.14-1.77-.32ZM73.6,115.48l-1.08-1.19-1.43-1.13-.38-1.72-.11-1.73v-1.73s0-1.77,0-1.77l.71-1.62.4-1.73,1.08-1.41.81-1.64,1.17-1.4,1.09-1.45.77-1.66,1.18-1.38,1.43-1.22.68-1.73,1.39-1.25.71-1.7.92-1.57.98-1.53,1.21-1.38.75-1.69.83-1.63,1.08-1.33.7-1.56.24-1.71,1.04-1.5.3-1.71v-1.74s-.37-1.71-.37-1.71l.11-1.74-.41-1.68-1.11-1.42-.61-1.65-.94-1.51-1.3-1.2-1.25-1.25-1.55-.88-1.17-1.42-1.85-.33-1.38-1.16-1.72-.53-1.46-1.01-1.31-1.29-1.63-.71-1.78-.42-1.5-.94-1.58-.79-1.6-.77-1.17-1.52-1.77-.46-1.6-.77-1.2-1.43-1.58-.8-1.58-.8-1.33-1.19-1.78-.5-1.42-1.05-1.4-1.08-1.3-1.21-1.54-.88-1.57-.86-1.04-1.53-1.47-1.1-1.67-.84-1.35-1.27-1.87-.52-1.33-1.31-1.51-1.07-1.74-.63-1.62-.86-2.06-.52,2-1.01,1.74-.82,1.95-.58,1.92.67,1.83.78,1.3,1.24,1.66.74,1.42,1.06,1.22,1.35,1.29,1.26,1.78.55,1.3,1.25,1.51.94,1.42,1.07,1.82.46,1.23,1.37,1.37,1.16,1.91.3,1.12,1.55,1.74.57,1.66.69,1.34,1.2,1.58.82,1.45,1.03,1.54.88,1.62.74,1.16,1.53,1.67.66,1.53.89,1.39,1.14,1.74.55,1.48.99,1.4,1.14,1.68.66,1.55.96,1.47,1.09,1.39,1.19,1.22,1.37,1.68,1,.66,1.81,1.16,1.45.97,1.6-.03,1.94.66,1.72.38,1.81.17,1.86-.43,1.82-.18,1.86-.67,1.73-.57,1.76-.98,1.58-1.28,1.37-.91,1.57-.9,1.5-.91,1.5-.7,1.64-.97,1.46-1.33,1.21-.65,1.67-.97,1.46-1.22,1.28-.66,1.67-1.26,1.26-1.05,1.4-1,1.44-1.15,1.34-.6,1.71-1,1.78.18,2.05.14,2.01.78,1.81,1.04,1.36,1.21,1.21,1.45,1.17,1.83.17,1.8.53,1.79-.82,1.87.49,1.8-.33,1.69-.82,1.89.11,1.79-.34.43.61-1.15,1.43-1.48,1.09-1.67.76-1.64.85-1.77.55-1.86.04-1.82.51-1.85-.2-1.78-.57-1.72-.59-1.96.08-1.49-1.17-1.35-1.23ZM95.3,108.52l-1.45,1.1-1.62.86-1.73.63-1.81.34h-1.85s-1.83.47-1.83.47l-1.85-.26-1.82-.42-1.62-.96-.71-1.65-.68-1.63.04-1.82.62-1.76,1.32-1.31,1.12-1.44.93-1.57.58-1.81,1.18-1.39,1.06-1.48,1.11-1.45,1.13-1.43,1.21-1.39,1.15-1.42.6-1.8.9-1.6,1.11-1.46,1.32-1.27.38-1.82.82-1.56.94-1.53.78-1.62.54-1.72.18-1.79-.5-1.82.3-1.75-.39-1.73.02-1.78-.32-1.74-.83-1.58-.77-1.57-.4-1.8-.82-1.62-1.42-1.16-1.5-1-1.07-1.44-1.21-1.37-1.58-.95-1.57-.96-1.61-.89-1.54-1-1.61-.89-1.72-.71-1.62-.88-1.55-.99-1.39-1.25-1.52-1.06-1.59-.91.59-1.71,1.18-1.42.87-1.6,1.38-1.27.63-1.78.96-1.56,1.6-1.05.72-1.78,1.16-1.42,1.66-.92,1.46-1.09,1.05-1.55,1.44-1.12,1.61-.88,1.5-1.01,1.38-1.23,1.71-.67,1.48-1.13,1.87-.23,1.72-.55,1.72-.58,1.77-.42,1.82-.02,1.81-.48,1.79.58,1.88-.17,1.29,1.34,1.41,1.01,1.39,1.04,1.76.66.84,1.65,1.62.91,1.21,1.31.97,1.49.4,1.85,1.01,1.43.87,1.52,1.28,1.32.91,1.53.69,1.63.7,1.63.42,1.73.39,1.74,1.08,1.5v1.58s-1.46-.55-1.46-.55l-1.13-1.49-1.45-1.04-1.69-.68-1.48-.99-1.72-.58-1.49-.96-1.32-1.31-1.62-.76-1.79-.33-1.65-.62-1.55-1.01-1.8-.19h-1.8s-1.73-.51-1.73-.51l-1.78-.21-.81,1.59.1,1.7.86,1.42-.93.99-1.81.19-1.79.15-1.78-.07-1.82-.2-1.68.81-1.86-.09-1.6.87-1.58.81-1.71.61.45,1.35,1.73.76,1.81.24,1.81.26,1.69.83,1.91-.11,1.69.77,1.67.76,1.96-.05,1.57,1.04,1.83.41,1.24,1.55,1.97.33,1,1.68,1.18,1.32.96,1.48.85,1.69-.04,1.92-1.15,1.55-1.05.18-.28-1.69-.57-1.56-1.04-1.32-1.24-1.14-.88.26.43,1.87.25,1.9.53,1.86.16,1.93.96,1.78.67.89,1.43.22,1.14-1.24,1.28-1.07,1.42-.9,1.19-1.39.74,2.08.41,1.92-.96,1.77-.59,1.75-.23,1.93-1.19,1.51-.66,1.78-.82,1.53-.93,1.47-.68,1.61-.74,1.57-.84,1.52-.88,1.5-1.26,1.31,1.43,1.13,1.24,1.24,1.15,1.32,1.33,1.12,1.33,1.13,1.23,1.24,1,1.44,1.53,1.31-1.79,1.03-.79,1.71-1.25,1.25-1.76.72-1.35,1.13-.84,1.69-1.21,1.29-1.45,1.03-1.61.83-1.16,1.36-1.23,1.3-1.73.64-1.57.83-1.37,1.11ZM115.8,90.21l-1.46-1.45-1.09-1.59-1.41-1.3-1.4-1.3-1.34-1.37-1.22-1.46.88-1.45.9-1.47.56-1.65,1.16-1.32.32-1.8,1.48-1.14.83-1.51.78-1.54.67-1.6.92-1.73-.34-1.96.51-1.94-.58-1.86-1.16-1.48-1.08-1.48-1.31-1.21-.49-1.71-.59-1.67-.98-1.47-.78-1.62-1.23-1.29-1.49-.99-1.24-1.27-1.65-.68-1.61-.66-1.32-1.26-1.69-.5-1.76-.25-1.49-1.03-1.77-.16.14-.52,1.87-.28,1.89.05,1.87-.26,1.85-.62,1.88-.17,1.02-.82-.32-1.45-.33-1.45.72-.73,1.82.08,1.42,1.22,1.82.15,1.59.73,1.59.74,1.6.71,1.48.95,1.67.62,1.24,1.33,1.65.68,1.48.96,1.29,1.2,1.38,1.1,1.33,1.18.52,1.74.34,1.7.87,1.72-.05,1.85.05,1.83-.34,1.82.52,1.85-.1,1.84-.22,1.83-.18,1.84-.76,1.72-.33,1.8-.93,1.63-.52,1.74-.39,1.8-.33,1.85-.85,1.64-.74,1.68-1.46,1.31-.25,1.95-1.43,1.28-1.09,1.46-.7,1.72-1.06,1.49-1.04,1.66Z"/>
      <path d="M94.54,104.89l-2.04.39-2.07-.24-1.72-1.05-.64-1.92-.18-2.03.16-2.03.68-1.75.95-1.61,1.14-1.5,1.43-1.23,1.58-1.02,1.75-.68,1.87-.18,1.82.45,1.45,1.19.94,1.56.29,1.81-.29,1.82-.63,1.73-.94,1.59-1.15,1.45-1.31,1.3-1.49,1.09-1.63.86ZM92.28,102.1l1.78-.24,1.69-.64,1.49-1.02,1.18-1.37.85-1.59.41-1.75-.9-.29-.97,1.55-1.11,1.46-1.4,1.19-1.53,1-1.66.77.17.92Z"/>
      <path d="M40.44,59.34l1.45.39.48,1.78.36,1.83.1,1.87-.29,1.85.08,1.88-.38,1.83-.35,1.83-.44,1.81-.58,1.78-.82,1.68-.94,1.62-1.41,1.22-1.72.57-1.51-.4-1.2-1.06-.75-1.41.82-2.51-1.47-1.09-1.47.93-1.43.99-1.06-.19-.96-1.41-.95-1.46-.31-1.71-.14-1.72.92-1.65,1.07-1.53,1.11-1.51,1.22-1.43-.3-1.42-2.04-.88-2.05-.85-1.22-1.31-.93-1.54-.18-1.8.39-1.71.53-1.65.81-1.52.69-1.58.63-1.6.89-1.49.53-1.66.83-1.52.95-1.55,1.44-1.09,1.63-.75,1.75-.54,1.84-.03,1.77.51,1.66.54,1.51.87,1.36,1.09,1.19,1.3.7,1.63.3,1.75.06,1.86.07,1.86,1.28,1,.06,1.64-1.45,1-1.5.94-1.59.8-1.49.96-.18.18-1.22,1.3-1.2,1.32-1.15,1.37-1.26,1.27-1.32,1.21-1.22,1.3-1.21,1.32-1.26,1.27-1.17,1.36-.13.9-.07.03,1.46.23,1.26-1.47,1.39-1.35,1.21-1.51,1.32-1.42,1.26-1.48,1.12-1.59,1.43-1.13,1.4-1.14ZM28.81,49l.58,1.17,1.24-.35.06-.39.98-1.81,1.22-1.68.81-1.91-1.18-1.16-1.31,1.01-.95,1.33-.65,1.92-.8,1.87Z"/>
      <polygon points="52.22 61.67 51.49 63.11 50.85 64.6 50.47 66.17 50.23 67.77 51.3 69.06 52.52 67.97 52.86 66.28 53.27 64.62 53.89 63.02 54.61 61.47 55.48 59.99 56.58 58.67 56.6 57.38 55.53 56.79 54.7 56.84 53.57 56.08 53.83 54.78 55.05 53.83 56.41 53.11 57.88 52.64 59.73 52.87 61.55 53.22 63.27 53.94 64.83 54.96 66.3 56.08 67.74 57.26 69.03 58.61 70.09 60.15 71.17 61.66 71.99 63.33 72.78 65.01 73.4 66.76 73.82 68.57 74.11 70.41 73.87 72.18 73.61 73.93 73.03 75.62 72.14 77.17 71.15 78.65 69.87 79.89 68.52 81.04 66.96 81.88 65.24 82.64 63.38 82.86 61.51 83.02 59.68 82.57 57.89 82 56.21 81.17 54.62 80.16 53.12 79.04 51.72 77.82 50.56 76.37 49.41 74.93 48.41 73.36 47.91 71.57 47.52 69.77 47.44 67.92 47.69 66.28 47.95 64.64 48.5 63.06 49.36 61.64 50.35 60.32 51.88 60.14 52.22 61.67"/>
      <polygon points="116.08 81.45 116.55 79.71 117.08 77.98 117.72 76.29 118.28 74.57 118.8 72.85 119.35 71.13 119.89 69.41 120.34 67.66 120.9 65.94 121.44 64.22 122 62.49 122.61 60.79 123.07 59.03 123.96 59.11 124.19 60.87 124.16 62.65 124.22 64.42 124.11 66.19 123.91 67.95 123.51 69.68 123.12 71.4 122.58 73.09 121.86 74.71 121.12 76.32 120.16 77.82 119.11 79.24 118.07 80.68 116.8 81.93 116.08 81.45"/>
      <path d="M62.29,31.76l-.15-1.99-.11-1.99-.18-1.99-.11-2,.77-1.2,1.59-.44,1.59-.46,1.58-.48,1.57-.52,1.43.92.3,1.8.26,1.81.35,1.8.28,1.81-.74,1.23-1.72.67-1.71.69-1.73.66-1.73.66-1.54-.98ZM67.29,23.73l-1.72,1.43-1.16,1.9.79,1.22,1.3.63,1.35-1.01.87-1.44-.38-1.61-1.05-1.14Z"/>
    </g>
  </g>
</svg>