<?xml version="1.0" encoding="UTF-8"?>
<svg id="Layer_2" data-name="Layer 2" xmlns="http://www.w3.org/2000/svg" viewBox="0 0 141.97 133.81">
  <g id="Layer_1-2" data-name="Layer 1">
    <g>
      <path d="M35.09,133.18l-1.16-1.11-1.28-1.32-1.09-1.49-1.56-1.08-1.33-1.28-1.26-1.35-.72-1.79-1.43-1.21-.68-1.8-1.71-1-.63-1.83-1.63-1.08-.64-1.81-1.36-1.29-.69-1.78-1.41-1.13-.75-1.67-1.21-1.29-1.38-1.15-1.19-1.31-.78-1.64-1.31-1.2-1.29-1.23-.95-1.5-1.49-1.06-.87-1.58-1.19-1.31-1-1.47-1.45-1.1-.7-1.66-.97-1.73,1.56-1.86,1.57-.85,1.84-.25,1.38-1.29,1.76-.44,1.64-.72,1.65-.71,1.61-.79,1.5-1.03,1.79-.4,1.73-.56,1.29-1.41,1.83-.46,1.29-1.32,1.78-.6,1.4-1.15,1.38-1.17,1.45-1.08,1.14-1.45,1.33-1.21,1.32-1.22,1.2-1.34,1.78-.75.93-1.62,1.12-1.42,1.39-1.16,1.63-.94,1.17-1.39.8-1.7,1.07-1.45,1.45-1.13,1.1-1.43.96-1.53,1.12-1.41,1.01-1.49,1-1.5.8-1.62.84-1.58,1.34-1.31,1-1.51.37-1.83.79-1.61.57-1.71,1.16-1.46.97-1.55.16-1.87.58-1.7.88-1.59.7-1.66.12-1.82.1-1.81,1.18-1.55-.15-1.86.49-1.72.29-1.76.7-1.69-.28-1.84.22-1.76.61-1.73-.22-1.81.43-1.78-.43-1.63-.16-1.62-.34-1.77.98-1.29,1.46-.63,1.45-.47,1.84-.14,1.84.19,1.84.03,1.84.02,1.84.27,1.84.05,1.84.04,1.85-.12,1.84.02,1.85.27,1.86-.69,1.77.63,1.71.51,1.34,1.3,1.81.47,1.5,1.03,1.58.88,1.42,1.17,1.67.72,1.63.8,1.63.8,1.58.88,1.59.87,1.39,1.23,1.82.47,1.62.81,1.51,1.01,1.61.85,1.65.77,1.51,1.01,1.68.72,1.5,1.04,1.44,1.14,1.65.77,1.51,1.02,1.35,1.09,1.8.33,1.34,1.1,1.35,1.09,1.38,1.04,1.8.33,1.46.92,1.52.81,1.2,1.35,1.59.71,1.72.63-.12,2.02-.25,1.81.15,1.8v1.8s.06,1.8.06,1.8l.05,1.8.3,1.8-.17,1.8.45,1.8-.5,1.8-.19,1.8.51,1.8-.22,1.8v1.8s-.34,1.8-.34,1.8l-.04,1.8.56,1.8.06,1.8-.26,1.8-.42,1.79.6,1.8-.17,1.8-.18,1.79.34,1.8-.61,1.79.56,1.81-.09,1.8.12,1.8-.7,1.78-.06,1.8.16,1.8.31,1.8.08,1.8-.54,1.79.51,1.81-.04,1.8-.2,1.8-.23,1.8-.08,1.8-.26,1.8-.07,1.85.28,1.86.14,1.86.05,1.85-.24,1.85v1.85s-.51,1.84-.51,1.84l.26,1.86-.31,1.84v1.85s.36,1.86.36,1.86l-.5,1.84.57,1.87v1.86s-.33,1.91-.33,1.91l-1.8.21-1.75-.18-1.75-.03-1.76-.24-1.74.52-1.75-.03-1.75.17-1.76-.22-1.73.49-1.75.13-1.75-.02-1.76-.24-1.76-.34h-1.75s-1.74.69-1.74.69l-1.76-.21-1.76.12-1.78-.11-1.77.19-1.78.03-1.77.04-1.77.08h-1.78s-1.78-.11-1.78-.11l-1.77.31-1.78-.06-1.77.2-1.78.05-1.78-.02-1.76.57-1.79-.41-1.78.03-1.77.28-1.78-.1-1.79-.13h-1.78s-1.76.57-1.76.57l-1.79-.16-1.77.3-1.79-.21-1.77.24-1.79-.25-1.77.39-1.78.17-1.79-.17-1.79-.13-1.77.64-1.86-.68-1.84.36-1.84.3-1.84-.14h-1.85s-1.84.02-1.84.02l-1.86-.34-1.83.69-1.85-.2-1.84.42-1.87-.18-1.77-.45ZM114.18,30.5l-1.79-1.02-1.55-.89-1.43-1.09-1.77-.55-1.62-.79-1.58-.86-1.22-1.43-1.71-.64-1.22-1.43-1.91-.3-1.21-1.46-1.87-.38-1.24-1.41-1.71-.64-1.28-1.33-1.72-.64-1.27-1.37-1.59-.85-1.68-.6-1.55-.82-1.28-1.27-1.63-.68-1.62-.71-1.39-1.08-1.75-.49-1.34-1.19-1.55-.82-1.43-1.03-1.72-.54-1.36-1.38-2.08.92.21,1.92,1.58.82,1.24,1.38,1.83.42,1.35,1.21,1.5.95,1.5.96,1.55.89,1.69.66,1.32,1.25,1.41,1.1,1.83.43,1.23,1.41,1.73.59,1.25,1.37,1.58.84,1.57.86,1.49.99,1.72.62,1.56.95,1.56.96,1.63.84,1.17,1.56,1.81.56,1.65.81,1.44,1.14,1.26,1.43,1.59.9,1.83.53,1.62.87,1.38,1.32.81-1.87,1.16-1.94ZM134.42,29.92l-1.82-1.19-1.57-.87-1.46-1.07-1.79-.53-1.64-.77-1.6-.79-1.28-1.37-1.73-.57-1.27-1.38-1.92-.22-1.26-1.4-1.88-.3-1.29-1.36-1.73-.57-1.33-1.28-1.74-.56-1.31-1.31-1.61-.78-1.72-.59-1.6-.81-1.34-1.27-1.67-.67-1.66-.7-1.45-1.08-1.79-.47-1.39-1.18-1.6-.81-1.48-1.03-1.77-.53-1.37-1.37-1.95.42-1.9.05-1.89.2-1.92-.46-1.88.67-1.94-.23,1.49.94,1.46.9,1.51.83,1.65.6,1.29,1.2,1.38,1.05,1.79.37,1.2,1.36,1.7.53,1.23,1.32,1.54.79,1.57.88,1.5,1,1.73.63,1.55.92,1.54.93,1.62.82,1.17,1.54,1.8.53,1.64.78,1.43,1.12,1.25,1.41,1.58.88,1.81.5,1.61.84,1.32,1.29,1.55.93,1.62.82,1.48,1.01,1.75-.11,1.77-.08,1.76-.27,1.77-.18,1.79.42,1.78.07,1.76-.59,2.16.21ZM98.06,28.82l-.53,2.12-.2,1.77-.45,1.73.16,1.83-.13,1.79-.23,1.78-.91,1.64-.02,1.82-.95,1.61.31,1.9-1.02,1.58.18,1.89-1.01,1.57-.17,1.8-.97,1.56-.21,1.81-1.15,1.39-.6,1.62-.44,1.7-.76,1.56-1.31,1.2-.87,1.48-1.21,1.3.82-1.55.17-1.78.93-1.49.53-1.65.76-1.56.22-1.76,1.11-1.51.24-1.82.57-1.71.39-1.76,1-1.59-.12-1.89.75-1.67.43-1.75.42-1.75.31-1.77.03-1.83.69-1.7.51-1.74-.29-1.87.83-1.69-.14-1.84.66-2.02-1.65-.9-1.56-.86-1.48-.98-1.71-.61-1.53-.9-1.52-.91-1.6-.8-1.15-1.52-1.77-.51-1.62-.76-1.42-1.1-1.37-1.44-.67,2.16.24,1.9-.16,1.84-.7,1.75-.31,1.81-.22,1.83-.49,1.77-.44,1.78-.53,1.76-.43,1.8-.59,1.75-1.23,1.47-.98,1.54-.5,1.84-1.26,1.61.06-2.01.89-1.59.75-1.62-.03-1.84.45-1.7.81-1.6.66-1.64.1-1.8.09-1.79,1.17-1.52-.16-1.84.47-1.69.25-1.74.63-1.7-.39-1.8.15-1.56-1.28-1.23-1.73-.57-1.39-1.16-1.44-1.07-1.5-.98-1.78-.31.26,1.57-.52,1.78-.19,1.81-.1,1.83-.47,1.77-.34,1.79-.36,1.78-.64,1.72-.47,1.75-.49,1.75-.37,1.78-.54,1.73-.82,1.64.06,1.95-1.23,1.48-.31,1.84-1.15,1.48-.32,1.85-.94,1.57-.82,1.62-1.14,1.45-.72,1.68-.84,1.61-.88,1.6-.98,1.53-1.01,1.52-1.38,1.25-.7,1.74-1.05,1.49-1.26,1.32-1.15,1.42-1.09,1.45-1.31,1.25-1.07,1.47-1.36,1.2-1.45,1.11-1.17,1.38-1.39,1.16-1.48,1.06-.89,1.69-1.52,1.01-1.52,1-1.5,1-1.01,1.62-1.46,1.06-1.41,1.13-1.79.58-1.39,1.16-1.34,1.26-1.69.7-1.83.95,1.32,1.33,1.16,1.36,1.22,1.31,1.21,1.31,1.4,1.14,1.05,1.45,1.52,1.04.81,1.67,1.05,1.46,1.57.99,1.03,1.47,1.19,1.34.96,1.55,1.17,1.36,1.64.93,1.27,1.27,1.04,1.48.92,1.59,1.68.89,1.11,1.42,1.1,1.42,1.49,1.06.79,1.72,1.65.91,1.18,1.36,1.33,1.22.73,1.77,1.2,1.34,1.37,1.19,1.42,1.04,1.39-.83,1.86-.28,1.41-1.25,1.63-.78,1.69-.66,1.69-.66,1.62-.82,1.69-.69,1.59-.88,1.39-1.2,1.44-1.11,1.47-1.05,1.62-.84,1.46-1.06,1.74-.69,1.27-1.33,1.6-.9,1.39-1.17,1.12-1.48,1.66-.85.93-1.67,1.28-1.28,1.47-1.08,1.15-1.4,1.4-1.17,1.26-1.31,1.4-1.2.78-1.7,1.17-1.38.98-1.52,1.27-1.32.65-1.74.91-1.56,1-1.5,1.17-1.41,1.22-1.39.89-1.59.25-1.9,1.01-1.52.68-1.68.87-1.6.56-1.73.68-1.68.63-1.7.57-1.72.6-1.71.68-1.69.24-1.81.56-1.73.29-1.79.4-1.76.43-1.76-.17-1.87.76-1.71.3-1.79.02-1.82.38-1.78.38-1.79.22-1.8-.38-1.85.33-1.79-1.63-.7-1.36-1.13-1.59-.75-1.35-1.18-1.68-.62-1.56-.81-1.39-1.11-1.41-1.07-1.81-.41-1.11-1.52-1.62-1.04ZM119.3,34.74l-2.06-1.88-1.83,1.88,1.83,2,2.06-2ZM112.72,128.24l1.76-.22,1.76-.1,1.77.13,1.75-.51,1.76-.22,1.76-.14,1.78.53,1.75-.4,1.78.53,1.75-.79,1.78.56,1.75-.71,1.79.5,1.63-.34.43-1.63-.34-1.78.52-1.77-.09-1.78-.3-1.78-.05-1.78.47-1.77-.21-1.77-.18-1.78.25-1.77-.44-1.78.37-1.77-.06-1.77.19-1.78-.38-1.79.56-1.77-.34-1.82.03-1.82-.12-1.82.54-1.82-.59-1.82.34-1.82.04-1.82.05-1.82-.04-1.82-.3-1.82.39-1.81.22-1.82-.58-1.83.57-1.82-.39-1.82.53-1.81-.09-1.82-.07-1.82.08-1.82-.36-1.82-.02-1.82v-1.82s-.14-1.82-.14-1.82l.71-1.82-.48-1.83-.19-1.83.21-1.82.55-1.82-.07-1.83-.52-1.83-.12-1.83.41-1.82-.02-1.82-.14-1.83.09-1.83v-1.77s-1.74.05-1.74.05l-1.82.21-1.82.12-1.83-.49-1.82-.13-1.81.53-1.82.02-1.82.22-1.86-.45-.14,1.74.12,1.73-1.02,1.44-1.62.64-1.83.39.23,2.02.27,1.82-.9,1.73.39,1.84-.33,1.77-.18,1.79-.65,1.72.27,1.86-.3,1.77-.75,1.68v1.84s-.68,1.68-.68,1.68l-.62,1.69-.55,1.71.13,1.9-.46,1.74-.88,1.6-.56,1.71-.48,1.74-.82,1.61-.7,1.65-.72,1.64-.98,1.52-.82,1.59-.83,1.58-.73,1.64-.88,1.56-1.13,1.41-.34,1.9-1.5,1.17-.67,1.71-1.42,1.19-.68,1.73-1.22,1.32-1.12,1.4-1.39,1.17-1.03,1.48-1.13,1.4-1.16,1.37-1.25,1.29-1.26,1.28-1.57.94-1,1.56-1.29,1.25-1.46,1.05-1.36,1.17-1.33,1.22-1.52.97-1.34,1.22-1.57.89-1.65.77-1.43,1.09-1.6.83-1.66.71-1.23,1.45-1.69.65-1.69.64-1.67.66-1.32,1.38-1.64.74-1.6.83-1.86.24-1.57.89-1.53,1.01-1.77.42-1.78.36-1.65.72-1.67.94,1.82-.09,1.79-.08,1.78-.33,1.8.13,1.78-.49,1.81.46,1.8.14,1.77-.56,1.8.16,1.79-.05,1.8.26,1.79-.02,1.77-.63,1.79-.13,1.8.18,1.8.34,1.77-.68,1.8.09,1.8.1,1.78-.43,1.81.53,1.78-.65h1.8s1.79-.21,1.79-.21l1.82.6,1.8-.03,1.79-.25,1.78-.4,1.79-.17,1.81.44,1.78-.61,1.8-.06,1.8.11,1.81.13,1.81-.02,1.81.35ZM36.3,130.57l1.83-.72,1.64-.6,1.71-.38,1.51-.99,1.6-.72,1.62-.64h1.84s1.55-.89,1.55-.89l2.1-.29-1.88-1.21-.79-1.76-1.72-.91-.83-1.73-1.5-1.12-.9-1.67-1.5-1.11-.87-1.69-1.32-1.28-1.48-1.13-1.3-1.31-.91-1.66-1.41-1.2-1.39-1.22-1.07-1.51-1.58-1.05-.99-1.6-1.3-1.31-1.08-1.48-1.51-1.09-.81-1.72-1.48-1.13-1.2-1.38-1.31-1.28-.82-1.72-1.66-.96-.97-1.58-1.2-1.38-1.24-1.42-1.69.74-1.54.98-1.8.34-1.74.5-1.44,1.23-1.88.17-1.43.97.7,1.55,1.21,1.27,1.19,1.28,1.08,1.38,1.41,1.1,1.15,1.32,1.14,1.33,1.24,1.24.6,1.79,1.51,1.02,1.28,1.21.98,1.47.72,1.69,1.19,1.29,1.52,1.05,1.21,1.3.8,1.63,1.13,1.37,1.23,1.29,1.05,1.43,1.12,1.37,1.11,1.39,1.25,1.27,1.18,1.33.71,1.71.98,1.48,1.51,1.07,1.12,1.41.83,1.88Z"/>
      <polygon points="76.95 80.87 77.61 79.25 78.42 77.67 79.32 76.15 80.3 74.67 81.4 73.28 82.65 72.03 83.99 70.87 83.5 72.6 82.81 74.25 81.95 75.83 80.91 77.29 79.68 78.59 78.36 79.8 76.95 80.87"/>
      <polygon points="131.62 115.48 130.17 116.58 129.14 115.45 130.34 114.27 131.38 113.71 132.23 114.11 131.62 115.48"/>
      <polygon points="132.4 121.5 130.78 122.56 130.03 121.68 130.94 120.5 132 119.69 132.98 120.26 132.4 121.5"/>
      <polygon points="127.63 118.99 128.55 120.32 127.2 121.26 125.86 122.21 124.93 120.89 126.28 119.95 127.63 118.99"/>
    </g>
  </g>
</svg>