<?xml version="1.0" encoding="UTF-8"?>
<svg id="Layer_2" data-name="Layer 2" xmlns="http://www.w3.org/2000/svg" viewBox="0 0 733.76 727.37">
  <defs>
    <style>
      .cls-1 {
        fill: #231f20;
      }

      .cls-2 {
        fill: #fff;
      }
    </style>
  </defs>
  <g id="Layer_1-2" data-name="Layer 1">
    <g>
      <g>
        <path class="cls-2" d="M546.6,227.52c-17.33-29.82-42.96-54.6-74.14-71.66-23.93-13.1-50.83-20.02-77.8-20.02h-.01c-49.66,0-95.72,22.25-127.2,61.24-20,4.13-33.03,20.79-31.64,41.56.31,4.55-1.68,8.44-5.22,14.94-1.28,2.35-2.6,4.77-3.86,7.44-1.58,3.36-2.99,6.58-4.34,9.7-5.12,11.76-9.17,21.05-18.75,28.87-9.9,8.05-18.12,27.27-14.06,41.95,1.94,6.99,6.95,13.29,12.84,19.65-11.31,15.87-17.39,30.88-22.85,44.38-4.47,11.05-8.34,20.6-14.2,27.93-8.11,10.15-11.89,24.14-9.63,35.64,1.78,9.09,7.2,16.57,15.25,21.07l20.21,11.28c20.6,28.1,45.99,28.23,70.57,28.35,12.02.06,24.37.12,37.21,3.34-1.75,16.52-1.44,31.2,6.1,46.54,3.9,7.94,13.47,12.5,26.25,12.5,4.59,0,16.03-.69,23.03-7.11,3.16-2.9,4.67-7.18,4.03-11.42-2.37-15.57-2.55-35.51,8.49-46.97,13.43,4.51,38.69,11.89,60.34,11.89,27.18,0,36.3-11.92,39.17-21.92,1-3.51,1.89-7.04,2.75-10.44,3.48-13.8,6.49-25.71,15.31-32.51,36.15-27.82,80.34-75.68,85.56-145.63,2.61-34.95-5.48-69.73-23.4-100.57Z"/>
        <g>
          <path d="M465.42,168.65l-4.23-3.4-4.5-3.01-4.72-2.63-5.84.22-4.37-3.66-5.64.11-4.97-1.99-4.89-2.59-5.57.55-5.33-.32-5.19-1.34-5.26-1.13-5.33-.78-5.37.77-5.31.83-5.3.4-5.38-.31-5.17,1.57-5.45-.3-5.3.81-4.86,2.6-5.45.28-5.26,1.14-5.11,1.66-5.13,1.67-4.68,2.71-4.21,3.57-4.54,2.77-5.76.69-4.57,2.84-4.25,3.32-3.83,3.85-4.79,2.58-4.42,3.1-2.37,5.36-5.46,2.04-3.37,4.22-3.37,4.18-2.43,4.93-4.34,3.1-4.94,1.84-5.5.61-4.5,3.14-3.29,4.28-3.79,3.75-1.23,5.2-1.96,4.97-.04,5.36-1.3,5.05-.09,5.18-1.74,4.88-2.19,4.69-3.58,3.93-1.87,4.86-.81,5.25-1.95,4.73-2.26,4.6-3.04,4.24-2.67,4.37-1.62,4.97-2.87,4.29-4.47,2.95-2.29,4.85-3.86,3.44-3.53,3.62-3.47,3.97-1.06,5.2-2.05,4.8-1.61,5.15,2.38,4.94,1.01,5.68,4.13,4.02,4.08,3.93,3.74,4.26,3.29,4.54-3.1,4.35-2.75,4.73-3.68,4.07-3.88,4.03-2.17,5.07-1.77,5.23-2.77,4.72-1.32,5.38-2.04,5.04-2.1,5.02-4.11,4.21-.27,5.78-2.95,4.66-2.8,4.67-1.57,5.32-3.61,4.15-2.7,4.73-3.93,3.84-.99,5.45-2.1,4.9v5.32s-.47,5.33-.47,5.33l2.76,4.58,2.47,4.5,4.52,2.49,4.49,2.63,4.67,2.28,3.43,4.54,5.25,1.3,3.79,3.67,3.11,3.98,4.96,2.73,3.02,4.43,3.87,3.7,4.43,3.05,5.1,1.73,4.75,2.66,5.2,1.48,5.59-1.24,5.09,2.5,5.41-1.66,5.26,2.28,5.33-2.21,5.3,1.98,5.33-1.06,5.28.93,5.35-.53,5.23,1.15,5.14,1.44,5.61-1.16,4.66,3.4,5.8-.89,4.55,2.98.41,5.1-2.15,4.86-.87,5.04-.02,5.12.21,5.11-.24,5.15,2.42,4.8,1.2,4.85-.45,5.5,3.48,4.07,3.07,4.55,5.43.72,5.25.2,5.09-1.4,5.4.51,4.98-2.69-2.12-5.38.97-5.49-1.81-5.31.11-5.43,1.44-5.31,1.1-5.25.5-5.38,1.9-5.03,1.51-5.22,3.04-4.49,2.73-4.76,4.16-3.57,4.48-3.85,5.02,3.17,5.1,1.63,5.02,1.91,5.23,1.2,5.46.29,5.12,1.52,4.91,2.65,5.41.31,5.35.5,5.19,1.85,5.52-1.58,5.3,1.24,5.36-.14,5.34-.57,5.38-.85,4.7-2.79,4.77-2.98,2.73-5.09-.92-6.01,1.68-5.3,2.31-5.14,1.54-5.33.81-5.59,1.64-5.4,3.92-4.3,2.12-5.25,4.75-3.23,3.33-4.51,5.07-2.08,2.8-4.9,4.84-2.43,3.22-4.29,4.16-3.24,3.43-4.01,4.5-2.95,3.5-3.95,2.6-4.73,4.33-3.21,2.79-4.52,3.01-4.3,4.41-3.29,2.03-5.01,3.72-3.86,1.98-4.97,3.62-3.99,2.19-4.82,1.6-5.09,3.2-4.32.41-5.55,3.5-4.26,1.54-5.05,1.95-4.91.96-5.21.95-5.18,2.53-4.84.41-5.3-.75-5.43,1.54-5.09-.09-5.28,1.39-5.32-.69-5.41-.44-5.37,1.21-5.45-2.08-5.24,1-5.53-.84-5.35-2.32-5.06-1.04-5.27.48-5.69-3.41-4.64-.88-5.37-.77-5.48-3.53-4.41-1.3-5.32-2.88-4.61-1.44-5.34-3.93-3.99-2.84-4.57-3.13-4.38-3.18-4.32-2.68-4.71-4.01-3.68-3.17-4.35-3.46-4.11-3.49-4.11-4.33-3.26-3.3-4.35-4.76-2.72-3.53-4.16-4.81-2.56-3.6-4.19-5.02-2.2-4.11-3.55-4.17-3.55-5.55-1.13ZM415.79,163.38l5.69,1.03,5.41.11,5.31,1.12,5.64.16,4.69,3.21,5.4,1.35,4.95,2.46,5.53,1.44,4.05,4.1,5.51,1.57,3.86,4.33-.47,2.26-5.17,1.61-5.4.58-5.07,1.87-4.79,2.58-4.81,2.34-5.2,1.42-4.64,2.67-4.7,2.54-5.26,1.69-4.35,3.19-4.46,3.03-4.08,3.52-4.39,3.16-3.33,4.32-3.55,4.02-3.51,4.04-3.33,4.18-2.92,4.5-4.37,3.37-2.67,4.68-3,4.42-2.5,4.75-2.63,4.65-4.79,3.36-1.81,5.9-4.8-3-4.56-3.03-4.53-3.06-4.1-3.78-5.47-1.56-4.28-3.47-4.52-3.11-4.97-2.4-4.09-3.52,2.28-4.15,2.33-4.72,1.91-4.98,3.44-4.08,3.14-4.23,1.78-5.18,4.65-3.13,2.72-4.53,2.7-4.61,4.42-3.12,2.64-4.77,5.04-2.36,3.14-4.36,4.04-3.38,4.83-2.31,3.18-4.68,5.19-1.65,4.19-3.33,4.64-2.6,5.57-.33,4.24-3.81,5.65.51,4.75-2.86ZM315.65,184.95l5.66-5.36,1.6,1.58-.52,5.44-2.57,4.98-.19.13-3.05-3.73-.93-3.03ZM308.63,187.23l2.27,5.48,1.21,5.26,3.55,4.2,1.84,4.99,1.02,5.37,4.02-.85,1.08-5.55,1.64-5.4,1.22-5.53,1.66-5.39,3.49-4.89,1.12-5.57,1.18-5.55.66-2.57,5.22-1.23,5.43-.5,4.72-2.51,4.76-2.6,5.31-.7,5.21-.98,5.18-1.13,5.33-.08,5.25-.55,5.23-1.61.6,4.14-4.4,2.94-3.64,4.02-4.31,3-3.82,3.64-4.88,2.31-2.96,4.62-5.06,2.24-3.7,3.76-2.85,4.56-3.17,4.19-5,2.63-2.3,4.91-3.03,4.28-3.77,3.77-2.35,4.75-2.17,4.81-3.7,3.92-3.01,4.37-1.47,5.46-3.8-4.51-5.91-1.42-3.7-4.5-5.12-2.54-4.79-2.98-3.49-4.8-5.59-1.92-2.85-4.11,2.84-3.6,3.12-4.7,4.9-2.85,2.98-4.85,4.59-3.19,4.22-4.47ZM257.92,236.51l5.48-.67,4.28,2.53.78,4.81-.89,5.59-5.48-.57-5.47-.59,1.86-5.48-.57-5.62ZM237.54,346.64l-2.17,4.54-3.42,3.04-3.65,3.66-3.15-4.88-2.3-4.84-4.66-3.11-3.26-4.15-1.93-5.14v-5.01s.9-5.37.9-5.37l2.31-5.12,2.55-5.16,4.93-3.06,3.4-4.41,3.73-3.96,3.72-4.05,1.87-5.25,2.98-4.55,3.14-4.62.31-5.73,3.44-4.56,1.78-5.15,1.58-5.48,4.28-3.74,4.38-3.5,5.22-2.11,5.76-.35,5.29,1.83,5.33,1.35,5.38,1.28,3.83,3.52-2.94-4.73-3.77-4.36-2.12-5.65-3.95-4.15,3.31,4.08,5.13,2.02,3.47,4.23,3.88,3.71,5.56,1.4,4.43,2.94,3.07,4.85,4.87,2.32,5.06,2.01,3.6,4.13,5.07,1.96,3.38,4.51,5.45,1.36,4.24,3.21,4.03,3.57,4.95,2.07,4.14,3.42,4.75,2.4,4.42,2.98,4.9,2.12,4.17,3.46,5.17,1.61,4.87,2.2,4.64,3.1,5.15,2.29,3.66,4.71,5.68,1.43,4.47,3.41,4.63,3.17,4.27,3.75.74,1.05.81.68-3.22,1.89-6.36,1.42-2.52,3.85.7,5.79,1.13,5.4,2.59,5.02-1.49,5.46.13,5.48-3,4.6-2.68,4.67-2.04,5.35-4.71,3.32-2.72,4.91-2.95,4.82.75,5.64.5,5.26,1.53,5.11-1.38,4.38-2.5,4.62-5.04,1.99-4.19,2.68-4.46,2.27-4.83,1.34-4.89,1.07-5.01.32-5.05-.21-5.16-.77-4.19-3.08-3.28-3.86-4.28-3.29-1.86-5.27-4.92-2.76-3-4.35-2.32-4.92-4.42-3.2-4.8-2.39-6.02-1.22-3.28,4.68,3.42,4.7,4.98,1.84,5.07,1.59,2.83,6.32-.81,5.9-3.34,4.14-4.3,3.32-5.12,1.86-5.42-.12-5.44,1.71-5.4-1.5-3.67-4.36-5.37-1.26-3.06-4.29-4.92-1.88-2.89-4.52-5.08-1.4-5.32-.06-1.47-5.15-4.08-3.11-3.53-3.45-4.49-2.01-4.16-2.54-4.51-2.02-3.87-4.83-4.79-3.5-5.06-3.12-5.18-2.78,3.03-4.26,4.6-3.28,3.05-4.61,1.7-5.38,2.96-4.51,2.74-4.76,1.38-5.85ZM412.7,354.7l-1.67-5.11.4-5.43-.95-5.21,1.11-4.36,2.33.48,1.56-.37,4.34,3.82,1.94,5.47,1.62,5.34,2.55,5.28-.88,5.73-2,5.27-2.08,5.1-1.8,5.23-2.24,5.06-3.23,4.52-1.58,5.56-5.01,3.19-3.37,4.26-3.15,4.79-5.32,2.46-2.7-4.54,2.41-4.72,3.86-3.71,1.75-5.25,3.02-4.26,4.07-3.51,2.79-4.47,2.26-4.82-.14-5.38.44-5.16-.35-5.26ZM379.88,434.55l-2.56,4.85-.21,5.86-3.48,4.62-1.24,5.47-3.23,4.72-.51,5.77-1.53,5.68-2.57-5.65.71-5.32.67-5.08.47-5.29,3.17-4.26,1.98-5.09,3.86-3.8,4.48-2.46ZM280.36,443.72l-2,.47-4.99-1.92-2.8-3.81,4.8-2.75,3.12-4.71,3.26,2.1,1.08,5.56-2.47,5.05ZM220.28,410.25l3.18-3.63,3.65-3.2,2.58-4.24,3.43,1.87-.21,5.03-.54,4.99.43,5.13-4.11.55-4.64-1.11-4.39-1.55.6-3.83ZM223.05,426.13l-3.01,4.71-5.53,1.31-2.99-.87.33-6.55,4.57-4.52,4.66,2.26,1.96,3.67ZM232.81,430.67l6.8,3.49v3.83s-4.06,4.3-4.06,4.3l-5.02,2.94-4.14-3.02,1.32-5.53,3.01-5.05,2.08-.96ZM235.83,417.48l5.18-3.29,3.49-5.15,4.75,2.85.34,4.63-1.8,4.38-1,4.48-2.5,1.41-5.62-3.22-2.85-6.08ZM248.46,440.36l4.3,2.49,4.34,2.42-2.81,3.73-4.57,4.69-3.34,1.5-3.3-3.47,1.18-2.88.4-5.95,3.81-2.53ZM254.11,430.8l1.82-6.73,5.23-4.33,5.33,2.95-1.75,5.93-.24,6.06-2.58,1.78-6.04-.8-1.77-4.87ZM268.29,449.6l4.65-.37,2.67,4.23-2.55,5-3.5,4.43-1.92.02-5.98-1.09-.74-4.7,3.29-4.09,4.08-3.44ZM288,465.37l-2.78,1-4.29-3.57,4.37-5.85,3.5,5.28-.8,3.15ZM290.33,442.78l5.98-3.41,3.98,1.72-3.21,5.85-5.01,3.69-2.5-3.24.77-4.6ZM204.72,400.46l3.22-3.92,3.14-3.95,3.48-2.03,4.45-1.75.19,3.78.05,4.08-2.37,5.2-2.55,5.1-6.07-.98-3.53-5.52ZM205.02,409.34l3.16,2.49.9,3.89-3.43,2.76-1.38,4.16-3.85.55-3.51-1.97-.35-3.84,2.92-3.1,2.35-3.5,3.18-1.42ZM315.29,513.24l-4.99.05-5.02-1.63-5.24-.72-4.97-2.27-5.31-.33-5.37.5-5.18-1.73-5.28-1.14-5.33-.22-5.33.49-5.32.58-5.3-1.06-5.3.64-5.25-.77-5.29.06-5.05-1.41-5.51-.55-2.43-4.93-4.76-3.15-2.74-4.46-2.28-4.83-3.24-4.14-4.32-3.2-3.56-3.8-2.5-4.85-4.86-2.51-4.26-4.45,1.56,6.48.44,6.11-5.04-.58-5.16-3.3-3.81-4.8-2.62-5.72,1.92-6.05,2.67-4.19,4-3.39,1.91-4.65,2.36-4.39,2.05-4.59,3.11-2.96,4.26,1.86,4.92,2.31,4.16,3.38,4.05,3.07,3.95,3.24,3.43,4,4.52,2.44,4.73.61,4.84-.11,2.96,5.08,3.92,4.41,5.6.78,4.83,2.78,5.59.58,5.3,1.39,5.01,2.57,5.68.49,5.22,1.91,5.4,1.41,4.77,3.42,6.3.84-4.92,2.92-5.1.46-4.38,2.2-.02,2.22,4.82,2.16h5.27s5.3.36,5.3.36l4.46-3.31,4.87-1.4,4.91-1.91,3.26-4.25,3.94-3.36,3.15-4.13,3.81-3.54,3.65-3.73,3.34-4.01,2.43-4.65,3.06-4.19,3.52-3.76,3.97-2.84,4.41.21,1.97,5.5-3.96,3.45-.74,5.29-3.37,3.79-1.88,4.65-4.29,3.27,4.52,3.73,3.55-4.97,4.66-.37,3.36,2.7-1.36,3.9-2.36,5.14-5.08,2.33-3.13,4.45-5.27,2.16-2.55,5-3.89,3.62-4.32,3.35-2.8,4.6-1.64,5.29-4.02,3.12ZM330.06,570.04l-4.36-1.89-4.55-2.47,1.45-3.84,2.87-3.41,3.05-1.77,2.68,4.87,4.15,3.26-1.85,3.13-3.44,2.11ZM330.77,549.2l-7.2-1.44-4.09-5.34.63-5.25,1.45-5.06,1.2-5.08,1.08-5.21,1.92-4.94,3.2-4.27,2.4-4.7,2.72-4.54,4.28-3.33,2.75-4.55,3.9-3.54,3.49-4.01,5.39-1.51,4.01-3.31,4.99-.68,4.4,3.22,1.33,4.91-3.12,4.31-3.83,3.84-2.6,5.12-3.42,4.29-3.88,3.83-4.57,3.38-2.34,5.08-2.2,5.01-3.82,4.3-1.55,5.36-1.27,5.4-1.46,5.43-3.79,3.28ZM372.98,505.83l-2.16-2.96,4.97-3.81,3.76,1.99,3.14,3.28,5.58.78,4.63,3.33,5.72-.55,5.09,2.76,5.53-.9,5.37-1,5.53,1.45,5.48-.27,4.96-3.25,5.65.62,5.13-1.99,3.87,5.99-4.88,2.78-5.2,1.33-5.26.35-5.23.02-5.35,1.54-5.17-1.77-5.41.36-5.09-1.71-5.4-.08-4.7-3.22-5.37-.32-5.38-.44-4.56-3.38-5.23-.95ZM386.06,490.68l-3.2-3.53-4.22-3.34-1.11-5.09-.32-5.12.03-5.11-.03-5.24,2.09-4.79,1.17-5.12,3.2-4.17,2.4-4.85,3.47-4.14,3.23-4.3,2.29-4.93,3.51-4.1,4.24-3.61,2.01-5.12,4.13-3.7,2.11-5.05,2.71-4.65,2.89-4.53,3.59-4.08,2.22-5,2.47-4.83,3.19-3.95,2.08-4.62.72-5.07,3.07-4.46.89-5.08-.04-5.16-1.04-5.06.33-5.16-1.22-4.99-3.3-4.19-1.8-4.89-2.77-4.46-3.84-3.56-3.7-3.7-4.58-2.59-3.47-4.19-5.48-.98-4.09-3.43-5.11-1.57-4.33-3.01-3.88-3.82-4.81-2.1-5.28-1.25-4.44-2.79-4.68-2.35-4.73-2.27-3.46-4.5-5.24-1.36-4.73-2.27-3.55-4.24-4.66-2.37-4.67-2.37-3.94-3.52-5.26-1.49-4.22-3.1-4.13-3.21-3.85-3.59-4.56-2.61-4.64-2.54-3.07-4.54-4.37-3.27-4.95-2.49-3.99-3.77-5.53-1.53-3.93-3.89-4.46-3.16-5.15-1.86-4.81-2.56-6.09-1.53,5.92-2.98,5.17-2.43,5.78-1.72,5.68,2,5.42,2.3,3.85,3.66,4.9,2.2,4.21,3.15,3.62,4,3.83,3.72,5.26,1.64,3.84,3.72,4.47,2.79,4.22,3.17,5.4,1.36,3.65,4.05,4.05,3.43,5.66.9,3.32,4.6,5.14,1.69,4.91,2.05,3.98,3.56,4.67,2.43,4.29,3.05,4.56,2.61,4.8,2.2,3.42,4.54,4.93,1.97,4.54,2.65,4.12,3.36,5.14,1.62,4.38,2.92,4.14,3.37,4.97,1.95,4.6,2.86,4.35,3.23,4.12,3.52,3.61,4.04,4.96,2.96,1.97,5.35,3.43,4.31,2.87,4.75-.08,5.76,1.94,5.09,1.13,5.36.51,5.51-1.27,5.39-.54,5.5-1.99,5.13-1.7,5.22-2.91,4.67-3.79,4.07-2.7,4.65-2.67,4.45-2.69,4.44-2.07,4.85-2.89,4.31-3.94,3.58-1.93,4.94-2.86,4.33-3.63,3.8-1.94,4.95-3.74,3.75-3.11,4.16-2.97,4.27-3.41,3.98-1.78,5.08-2.95,5.27.53,6.07.42,5.97,2.31,5.36,3.08,4.03,3.59,3.59,4.29,3.46,5.43.5,5.33,1.57,5.31-2.42,5.53,1.45,5.32-.97,5-2.44,5.58.34,5.31-1.02,1.26,1.8-3.41,4.23-4.38,3.24-4.95,2.26-4.87,2.52-5.25,1.62-5.51.13-5.38,1.5-5.49-.6-5.27-1.67-5.09-1.75-5.81.22-4.41-3.48-4-3.64ZM450.31,470.08l-4.29,3.25-4.8,2.55-5.13,1.85-5.36,1.02-5.47-.04-5.42,1.42-5.47-.78-5.39-1.25-4.79-2.83-2.1-4.88-2.01-4.82.11-5.4,1.84-5.21,3.91-3.87,3.31-4.27,2.75-4.66,1.71-5.35,3.5-4.13,3.15-4.39,3.29-4.28,3.35-4.25,3.57-4.11,3.42-4.2,1.77-5.34,2.66-4.75,3.29-4.31,3.9-3.76,1.11-5.4,2.43-4.61,2.79-4.52,2.3-4.81,1.61-5.09.54-5.31-1.47-5.4.89-5.18-1.15-5.12.07-5.26-.95-5.16-2.47-4.67-2.27-4.65-1.19-5.32-2.42-4.79-4.2-3.43-4.45-2.97-3.16-4.25-3.57-4.07-4.68-2.82-4.64-2.84-4.76-2.63-4.57-2.97-4.77-2.64-5.1-2.12-4.81-2.6-4.59-2.94-4.12-3.71-4.49-3.13-4.71-2.71,1.75-5.05,3.51-4.21,2.57-4.74,4.07-3.75,1.86-5.26,2.85-4.62,4.74-3.1,2.14-5.26,3.44-4.2,4.93-2.73,4.32-3.23,3.12-4.59,4.27-3.3,4.77-2.61,4.45-3,4.09-3.65,5.06-1.97,4.39-3.36,5.54-.68,5.09-1.64,5.09-1.71,5.25-1.23,5.4-.05,5.36-1.41,5.31,1.72,5.57-.51,3.82,3.97,4.17,3,4.12,3.07,5.2,1.97,2.5,4.88,4.8,2.69,3.59,3.87,2.87,4.42,1.18,5.48,2.98,4.25,2.56,4.51,3.8,3.9,2.7,4.52,2.05,4.83,2.06,4.82,1.24,5.14,1.14,5.14,3.18,4.43.03,4.67-4.35-1.64-3.35-4.42-4.3-3.07-5-2.02-4.38-2.94-5.11-1.72-4.41-2.83-3.91-3.87-4.8-2.25-5.31-.96-4.9-1.84-4.6-3-5.32-.57h-5.33s-5.12-1.5-5.12-1.5l-5.27-.62-2.41,4.7.29,5.05,2.55,4.19-2.75,2.93-5.35.55-5.29.46-5.27-.22-5.38-.6-4.96,2.39-5.51-.28-4.73,2.58-4.69,2.4-5.06,1.81,1.34,3.99,5.13,2.25,5.37.71,5.37.78,5,2.46,5.66-.33,5,2.28,4.95,2.24,5.8-.16,4.64,3.07,5.43,1.23,3.67,4.59,5.83.96,2.95,4.96,3.49,3.92,2.86,4.39,2.52,4.99-.13,5.67-3.42,4.6-3.12.55-.84-4.99-1.69-4.63-3.07-3.91-3.68-3.37-2.61.76,1.27,5.55.73,5.64,1.57,5.5.48,5.71,2.85,5.26,1.98,2.63,4.25.66,3.39-3.67,3.79-3.17,4.2-2.67,3.52-4.11,2.19,6.15,1.21,5.68-2.85,5.23-1.76,5.17-.69,5.72-3.54,4.46-1.96,5.26-2.42,4.52-2.74,4.35-2.01,4.77-2.19,4.66-2.47,4.51-2.6,4.45-3.74,3.88,4.23,3.36,3.66,3.68,3.41,3.92,3.93,3.33,3.95,3.34,3.65,3.67,2.95,4.25,4.52,3.89-5.3,3.06-2.33,5.07-3.7,3.71-5.22,2.13-4.01,3.36-2.48,5-3.59,3.83-4.28,3.06-4.76,2.46-3.45,4.03-3.63,3.85-5.12,1.9-4.66,2.45-4.07,3.28ZM511.01,415.83l-4.32-4.28-3.24-4.7-4.18-3.85-4.14-3.84-3.98-4.04-3.61-4.32,2.6-4.29,2.66-4.34,1.67-4.89,3.43-3.9.95-5.32,4.37-3.36,2.47-4.46,2.31-4.56,1.99-4.74,2.73-5.13-1-5.81,1.52-5.74-1.7-5.5-3.43-4.4-3.2-4.39-3.89-3.59-1.46-5.07-1.75-4.94-2.91-4.37-2.32-4.79-3.64-3.83-4.4-2.94-3.67-3.75-4.89-2.01-4.78-1.95-3.92-3.72-5-1.49-5.21-.75-4.42-3.06-5.25-.48.43-1.53,5.53-.83,5.58.15,5.54-.76,5.48-1.83,5.56-.51,3.02-2.42-.95-4.3-.97-4.29,2.12-2.17,5.4.22,4.21,3.61,5.38.44,4.72,2.17,4.71,2.19,4.75,2.1,4.39,2.8,4.93,1.83,3.66,3.95,4.9,2,4.37,2.85,3.83,3.55,4.08,3.27,3.93,3.5,1.54,5.16,1,5.04,2.56,5.08-.13,5.48.15,5.41-1,5.39,1.55,5.47-.3,5.44-.65,5.41-.54,5.44-2.24,5.09-.99,5.34-2.75,4.83-1.54,5.16-1.15,5.33-.97,5.46-2.52,4.84-2.2,4.98-4.31,3.87-.74,5.77-4.23,3.8-3.23,4.33-2.07,5.1-3.15,4.4-3.09,4.92Z"/>
          <path d="M448.06,459.33l-6.04,1.17-6.12-.72-5.1-3.12-1.9-5.67-.55-6,.47-6.01,2.02-5.19,2.83-4.78,3.36-4.45,4.24-3.63,4.68-3.01,5.19-2.02,5.53-.52,5.4,1.33,4.3,3.53,2.79,4.62.87,5.35-.85,5.38-1.86,5.13-2.77,4.71-3.4,4.28-3.87,3.86-4.4,3.23-4.82,2.55ZM441.38,451.05l5.29-.71,5-1.9,4.42-3.03,3.51-4.05,2.52-4.71,1.22-5.18-2.67-.85-2.88,4.59-3.29,4.33-4.14,3.53-4.54,2.97-4.93,2.28.5,2.73Z"/>
          <path d="M287.85,324.42l4.3,1.16,1.43,5.27,1.07,5.42.29,5.53-.87,5.48.23,5.56-1.12,5.43-1.04,5.42-1.32,5.37-1.71,5.26-2.43,4.96-2.77,4.78-4.16,3.6-5.08,1.69-4.46-1.18-3.57-3.15-2.24-4.17,2.44-7.44-4.35-3.24-4.36,2.75-4.24,2.93-3.15-.55-2.84-4.17-2.81-4.31-.9-5.05-.41-5.09,2.73-4.88,3.16-4.54,3.29-4.48,3.61-4.24-.9-4.21-6.03-2.6-6.07-2.51-3.6-3.88-2.75-4.55-.54-5.32,1.14-5.08,1.56-4.88,2.39-4.51,2.03-4.68,1.87-4.75,2.63-4.42,1.56-4.91,2.45-4.51,2.8-4.6,4.27-3.23,4.83-2.23,5.19-1.59,5.46-.08,5.23,1.51,4.9,1.61,4.47,2.58,4.02,3.24,3.52,3.85,2.08,4.81.88,5.17.18,5.5.19,5.5,3.78,2.97.19,4.86-4.3,2.97-4.44,2.77-4.7,2.36-4.4,2.85-.53.53-3.62,3.84-3.56,3.92-3.39,4.06-3.73,3.76-3.92,3.58-3.62,3.86-3.57,3.92-3.74,3.77-3.46,4.03-.38,2.65-.2.07,4.34.67,3.72-4.35,4.13-4.01,3.58-4.46,3.92-4.19,3.72-4.37,3.32-4.71,4.24-3.34,4.14-3.37ZM253.41,293.81l1.72,3.47,3.68-1.04.16-1.16,2.9-5.37,3.61-4.97,2.4-5.66-3.5-3.42-3.88,2.99-2.8,3.94-1.92,5.69-2.37,5.53Z"/>
          <polygon points="322.72 331.31 320.57 335.59 318.68 340 317.56 344.66 316.85 349.39 320.01 353.22 323.62 349.97 324.61 344.99 325.83 340.06 327.66 335.32 329.81 330.73 332.39 326.36 335.63 322.45 335.7 318.61 332.53 316.87 330.07 317.02 326.73 314.77 327.5 310.91 331.1 308.1 335.13 305.97 339.49 304.57 344.96 305.27 350.36 306.31 355.45 308.44 360.07 311.45 364.43 314.78 368.69 318.28 372.51 322.27 375.64 326.82 378.86 331.29 381.29 336.24 383.61 341.23 385.46 346.41 386.69 351.77 387.57 357.22 386.85 362.45 386.06 367.64 384.35 372.63 381.73 377.21 378.78 381.6 375.01 385.3 371 388.69 366.38 391.17 361.3 393.42 355.8 394.07 350.24 394.55 344.83 393.21 339.53 391.54 334.55 389.06 329.85 386.08 325.38 382.76 321.23 379.15 317.81 374.86 314.4 370.59 311.44 365.95 309.97 360.65 308.8 355.32 308.57 349.83 309.3 344.97 310.1 340.11 311.73 335.45 314.25 331.23 317.19 327.33 321.73 326.8 322.72 331.31"/>
          <polygon points="511.86 389.92 513.26 384.75 514.8 379.64 516.71 374.63 518.35 369.54 519.91 364.44 521.54 359.34 523.13 354.24 524.47 349.06 526.13 343.97 527.74 338.87 529.38 333.76 531.18 328.7 532.55 323.51 535.2 323.76 535.88 328.96 535.78 334.22 535.96 339.46 535.65 344.7 535.03 349.91 533.87 355.03 532.69 360.15 531.1 365.15 528.96 369.95 526.78 374.72 523.95 379.15 520.82 383.36 517.74 387.61 513.99 391.31 511.86 389.92"/>
          <path d="M352.56,242.74l-.45-5.9-.34-5.91-.54-5.9-.33-5.92,2.27-3.54,4.71-1.3,4.7-1.36,4.69-1.43,4.66-1.55,4.23,2.73.89,5.33.77,5.36,1.04,5.32.84,5.36-2.18,3.66-5.09,1.98-5.07,2.06-5.12,1.96-5.12,1.97-4.56-2.91ZM367.37,218.98l-5.1,4.25-3.43,5.62,2.33,3.63,3.85,1.88,4.01-2.98,2.57-4.25-1.12-4.77-3.12-3.37Z"/>
        </g>
      </g>
      <g>
        <g>
          <path class="cls-1" d="M12.72,379.69l.66,23.59-11.69.33-1.69-60.37,11.69-.33.66,23.49,58.27-1.63.37,13.29-58.27,1.63Z"/>
          <path class="cls-1" d="M69.03,338.53l-6.24-6.35c-6.34,4.01-14.89,5.67-25.7,3.66l-3.74-.7c-23.6-4.39-30.94-21.22-27.7-38.62,1.1-5.9,3.34-11.38,6.69-15.74l-6.15-6.33,6.93-6.64,6.32,6.47c6.46-4.09,15-5.75,25.92-3.72l3.74.7c23.6,4.39,30.96,21.12,27.72,38.52-1.12,6-3.36,11.48-6.83,15.92l5.89,6.08-6.85,6.76ZM53.38,322.6l-32.47-33.2c-1.67,2.44-2.85,5.47-3.56,9.3-2.32,12.49,2.83,19.75,15.91,22.19l9.04,1.68c4.33.81,7.99.78,11.08.03ZM65.13,307.6c2.32-12.49-2.85-19.65-15.93-22.09l-9.05-1.68c-4.42-.82-8.19-.81-11.3.03l32.57,33.22c1.77-2.42,2.97-5.55,3.7-9.48Z"/>
          <path class="cls-1" d="M20.79,240.07l6.32-13.71,58.84-9.86.29-.64-44.77-20.65,5.57-12.08,63.56,29.32-6.32,13.71-58.84,9.86-.29.64,44.77,20.65-5.57,12.08-63.56-29.32Z"/>
          <path class="cls-1" d="M114.77,160.03l-11.88,11.01c-8.74,8-17.83,8.86-25.44,2.84l-1.96-1.55c-9.34-7.38-9.1-19.94,1.87-33.83,11.41-14.44,22.57-16.96,35.2-7.62l-7.93,10.04-1.47-1.04c-5.29-3.79-10.89-2.35-17.09,5.49-6.57,8.32-6.54,13.44-2.46,16.66l.79.62c3.85,3.04,6.87,2.11,11.75-2.45l11.96-10.94c9.75-9.12,18.65-9.74,26.5-3.54l2.35,1.86c9.42,7.44,9.5,20.25-2.1,34.92-12.52,15.85-24.34,18.88-38.07,8.67l8.06-10.2,1.48,1.04c6.53,4.65,12.59,2.3,19.59-6.57,6.57-8.32,7.35-13.82,2.72-17.48l-.79-.62c-3.77-2.98-7.34-2.48-13.07,2.67Z"/>
          <path class="cls-1" d="M113.69,98.88l28-22.47c9.91-7.95,20.74-10.1,28.06-.98l2.44,3.04c4.07,5.07,3.89,11.88-1.65,17.6l.44.55c8.19-5.29,15.03-4.11,20.04,2.13l3,3.74c8.14,10.14,2,20.07-8.06,28.14l-28.47,22.84-43.81-54.6ZM159.84,99.03c4.76-3.82,4.78-7.94,2.09-11.29l-1.5-1.87c-2.82-3.51-6.78-4.3-11.54-.48l-17.63,14.14,10.95,13.65,17.63-14.14ZM179.7,120.91c4.76-3.82,4.53-8.25,1.72-11.76l-1.56-1.95c-2.82-3.51-7.1-4.69-11.85-.87l-19.03,15.27,11.7,14.58,19.03-15.27Z"/>
          <path class="cls-1" d="M181.75,48.65l47.27-23.08,5.13,10.51-35.32,17.24,7.55,15.46,33.25-16.24,4.87,9.97-33.25,16.24,8.03,16.44,35.77-17.46,5.13,10.51-47.72,23.3-30.72-62.9Z"/>
          <path class="cls-1" d="M250.51,17.77l35.12-8.36c12.26-2.92,23.46-.75,26.59,12.38l1.02,4.28c1.9,7.98-1.03,13.81-8.87,16.71l.16.68c6.95-1.04,11.71.81,13.6,8.79l1.53,6.42c.97,4.08,2.13,8.95,4.26,13.58l-12.94,3.08c-2.13-4.63-3.2-9.11-4.1-12.9l-.99-4.18c-1.44-6.03-3.85-7.51-9.97-6.06l-22.28,5.3,6.02,25.29-12.94,3.08-16.21-68.1ZM292.99,40.76c6.32-1.5,8.11-5.22,7-9.89l-1.04-4.38c-1.09-4.57-4.38-7.18-10.71-5.68l-22.08,5.26,4.75,19.94,22.08-5.26Z"/>
          <path class="cls-1" d="M331.53,37.93l.02-3.8C331.67,10.13,346.92-.09,364.62,0c19.5.1,30.75,9.66,30.66,26.16l-13.2-.07-.09-1.8c-.26-7.2-5.34-12.33-17.44-12.39-12.7-.07-18.93,6.3-19,19.6l-.05,9.2c-.07,13.5,6.6,20.03,19.1,20.1,12.8.07,18.12-4,18.88-15.7l-19.4-.1.05-10.3,31.4.16-.19,36.5-8.6-.04-2.55-9.91h-.7c-3.14,7.58-9.96,11.04-20.76,10.99-16.5-.08-31.35-10.46-31.22-34.46Z"/>
        </g>
        <g>
          <path class="cls-1" d="M139.1,610.94l-9.97-12.76c-7.24-9.39-7.32-18.51-.69-25.59l1.71-1.82c8.14-8.68,20.63-7.39,33.55,4.71,13.43,12.58,15,23.92,4.63,35.72l-9.34-8.75,1.16-1.38c4.23-4.95,3.26-10.65-4.04-17.48-7.74-7.25-12.84-7.65-16.4-3.85l-.68.73c-3.35,3.58-2.68,6.67,1.45,11.91l9.9,12.84c8.27,10.49,8.13,19.4,1.29,26.7l-2.05,2.19c-8.21,8.76-20.97,7.76-34.62-5.03-14.74-13.81-16.76-25.84-5.43-38.66l9.49,8.89-1.16,1.38c-5.18,6.11-3.35,12.35,4.9,20.08,7.74,7.25,13.15,8.49,17.19,4.18l.68-.73c3.28-3.5,3.09-7.1-1.56-13.25Z"/>
          <path class="cls-1" d="M167.08,668.51l-11.45-6.76,35.6-60.27,11.45,6.76-16.58,28.07.6.36,43.27-12.3,13.95,8.24-37.43,10.87-.36.6,4.17,49.97-13.78-8.14-3.18-37.88-.6-.36-16.11,4.66-9.56,16.19Z"/>
          <path class="cls-1" d="M267.01,639.85l14.56,4.71,4.51,75.04-13.99-4.53-.88-17.73-27.59-8.93-11.1,13.85-13.51-4.37,48-58.04ZM270.58,685.67l-1.48-28.23-.57-.18-17.64,22.04,19.69,6.37Z"/>
          <path class="cls-1" d="M319.57,664.89l-23.41-3.01,1.49-11.6,59.91,7.7-1.49,11.6-23.31-3-7.43,57.82-13.19-1.69,7.43-57.82Z"/>
          <path class="cls-1" d="M362.64,657.55l52.46-3.79.84,11.67-39.2,2.83,1.24,17.16,36.91-2.67.8,11.07-36.9,2.67,1.32,18.25,39.7-2.87.84,11.67-52.96,3.82-5.04-69.82Z"/>
          <path class="cls-1" d="M422.54,652.55l34.41-10.23c12.17-3.62,23.02-1.52,26.35,9.69l1.11,3.74c1.85,6.23-.89,12.47-8.17,15.68l.2.67c9.58-1.8,15.47,1.87,17.75,9.54l1.37,4.6c3.7,12.46-5.73,19.33-18.09,23.01l-34.99,10.4-19.94-67.1ZM465.21,670.12c5.85-1.74,7.43-5.54,6.2-9.67l-.68-2.3c-1.28-4.31-4.66-6.54-10.5-4.81l-21.66,6.44,4.98,16.77,21.66-6.44ZM475.34,697.89c5.85-1.74,7.31-5.93,6.03-10.24l-.71-2.4c-1.28-4.31-4.8-7.02-10.65-5.29l-23.39,6.95,5.33,17.92,23.39-6.95Z"/>
          <path class="cls-1" d="M559.36,628.88l1.91,3.29c12.04,20.76,4.15,37.25-11.16,46.13-15.31,8.88-33.63,7.6-45.67-13.16l-1.91-3.29c-12.04-20.76-4.06-37.29,11.25-46.18,15.31-8.88,33.54-7.55,45.58,13.21ZM544.13,668c10.99-6.37,13.05-14.97,6.38-26.47l-4.62-7.96c-6.67-11.5-15.16-13.98-26.15-7.61-10.99,6.37-13.14,15.02-6.46,26.52l4.62,7.96c6.67,11.5,15.25,13.93,26.23,7.56Z"/>
          <path class="cls-1" d="M562.74,581.76l11.17-10.46,67.85,32.36-10.73,10.05-15.95-7.81-21.17,19.83,6.75,16.42-10.37,9.71-27.56-70.1ZM604.57,600.82l-25.42-12.37-.44.41,10.75,26.11,15.11-14.15Z"/>
          <path class="cls-1" d="M595.95,549.14l20.14-29.96c7.03-10.46,16.73-16.47,27.94-8.94l3.65,2.45c6.81,4.57,8.61,10.85,4.81,18.3l.58.39c4.4-5.48,9.15-7.34,15.96-2.77l5.48,3.68c3.49,2.34,7.64,5.13,12.34,7.09l-7.42,11.04c-4.71-1.96-8.53-4.53-11.76-6.7l-3.57-2.4c-5.15-3.46-7.92-2.91-11.44,2.31l-12.77,19.01,21.58,14.5-7.42,11.04-58.1-39.05ZM642.75,537.22c3.62-5.4,2.42-9.34-1.56-12.02l-3.74-2.51c-3.9-2.62-8.09-2.3-11.72,3.09l-12.66,18.84,17.02,11.43,12.66-18.84Z"/>
          <path class="cls-1" d="M685.49,446.23l3.56,1.33c22.48,8.41,25.95,25.09,19.92,41.2l-10.3,27.54-65.56-24.53,10.3-27.53c6.03-16.11,19.6-26.41,42.07-18ZM697.39,486.34c4.35-11.61,1.74-20.06-10.71-24.72l-8.62-3.22c-12.46-4.66-19.97,0-24.31,11.62l-5.01,13.39,43.64,16.33,5.01-13.39Z"/>
          <path class="cls-1" d="M727.27,422.07l-1.72,13.19-69.42-9.06,1.72-13.19,32.33,4.22.09-.69-28.32-34.96,2.1-16.07,24.71,30.15.69.09,44.31-23.46-2.07,15.87-33.59,17.8-.09.69,10.61,12.98,18.64,2.43Z"/>
          <path class="cls-1" d="M663.01,359.89l-.97-13.27,58.15-4.24-2.62-36.01,11.67-.85,3.59,49.27-69.82,5.09Z"/>
          <path class="cls-1" d="M701.89,293.98l-42.94,12.42-3.7-12.78,40.06-11.59c13.16-3.81,15.27-9.83,11.99-21.17-3.31-11.43-8.31-15.4-21.47-11.59l-40.06,11.59-3.7-12.78,42.94-12.42c15.08-4.36,27.62.13,33.91,21.84,6.25,21.61-1.95,32.11-17.03,36.47Z"/>
          <path class="cls-1" d="M638.16,239.1l-17.72-31.22c-6.27-11.04-6.67-22.08,3.5-27.86l3.39-1.93c5.65-3.21,12.35-1.95,17.12,4.42l.61-.35c-3.92-8.93-1.67-15.49,5.29-19.44l4.17-2.37c11.3-6.42,20.12,1.22,26.49,12.44l18.02,31.74-60.87,34.56ZM645.65,193.57c-3.01-5.3-7.08-5.99-10.82-3.86l-2.09,1.19c-3.91,2.22-5.32,6.01-2.31,11.32l11.16,19.65,15.21-8.64-11.16-19.65ZM670.42,177.44c-3.01-5.3-7.42-5.79-11.34-3.57l-2.17,1.23c-3.91,2.22-5.76,6.26-2.75,11.56l12.05,21.22,16.26-9.23-12.05-21.22Z"/>
          <path class="cls-1" d="M603.05,179.81l-24.43-26.3c-8.64-9.3-11.57-19.96-3-27.92l2.86-2.65c4.76-4.42,11.57-4.74,17.67.37l.51-.48c-5.87-7.79-5.19-14.7.67-20.14l3.52-3.27c9.53-8.85,19.87-3.44,28.65,6.01l24.84,26.74-51.29,47.64ZM599.87,133.77c-4.15-4.47-8.27-4.2-11.42-1.27l-1.76,1.63c-3.3,3.06-3.8,7.08.35,11.54l15.38,16.56,12.82-11.91-15.38-16.56ZM620.26,112.37c-4.15-4.47-8.56-3.92-11.86-.86l-1.83,1.7c-3.3,3.06-4.17,7.42-.01,11.89l16.6,17.88,13.7-12.73-16.6-17.88Z"/>
        </g>
        <path d="M480.8,57.44c-1.11-.08-4.49-1.81-5.27-2.18-1.17-.56.34-6.06,1.64-6.1l21.82-.7,1.97-19.78c.1-.97,2.19-3.54,2.92-4.19,1.09-.98,4.64,2.77,4.69,4.31l.6,20.03,20.97,1.6c1.03.08,3.71,3.02,4.27,3.87.76,1.15-2.83,3.6-4.41,3.65l-21.34.69-1.17,20.32c-.07,1.13-1.82,4.39-2.42,5.39s-5.74-.55-5.78-1.72l-.71-23.98-17.78-1.21Z"/>
        <path d="M33.9,499.2c-1.11-.08-4.49-1.81-5.27-2.18-1.17-.56.34-6.06,1.64-6.1l21.82-.7,1.97-19.78c.1-.97,2.19-3.54,2.92-4.19,1.09-.98,4.64,2.77,4.69,4.31l.6,20.03,20.97,1.6c1.03.08,3.71,3.02,4.27,3.87.76,1.15-2.83,3.6-4.41,3.65l-21.34.69-1.17,20.32c-.07,1.13-1.82,4.39-2.42,5.39s-5.74-.55-5.78-1.72l-.71-23.98-17.78-1.21Z"/>
      </g>
    </g>
  </g>
</svg>