<?xml version="1.0" encoding="UTF-8"?>
<svg id="Layer_2" data-name="Layer 2" xmlns="http://www.w3.org/2000/svg" viewBox="0 0 897.94 337.65">
  <defs>
    <style>
      .cls-1 {
        fill: #010101;
      }

      .cls-2 {
        fill: #fff;
      }
    </style>
  </defs>
  <g id="Layer_1-2" data-name="Layer 1">
    <g>
      <g>
        <path class="cls-2" d="M289.66,67.84c-12.82-22.06-31.79-40.4-54.85-53.02C217.11,5.12,197.2,0,177.25,0h0c-36.74,0-70.82,16.46-94.11,45.31-14.8,3.06-24.44,15.38-23.41,30.75.23,3.37-1.24,6.25-3.86,11.05-.95,1.73-1.93,3.53-2.86,5.51-1.17,2.48-2.21,4.87-3.21,7.18-3.79,8.7-6.78,15.58-13.87,21.36-7.33,5.96-13.41,20.18-10.4,31.04,1.43,5.17,5.14,9.83,9.5,14.54-8.37,11.74-12.87,22.85-16.91,32.83-3.31,8.18-6.17,15.24-10.5,20.66-6,7.51-8.8,17.86-7.13,26.37,1.32,6.73,5.33,12.26,11.28,15.59l14.95,8.35c15.24,20.79,34.03,20.89,52.21,20.98,8.89.04,18.03.09,27.53,2.47-1.29,12.22-1.06,23.08,4.51,34.43,2.88,5.88,9.96,9.25,19.42,9.25,3.4,0,11.86-.51,17.04-5.26,2.34-2.14,3.46-5.31,2.98-8.45-1.75-11.52-1.88-26.28,6.28-34.75,9.94,3.34,28.63,8.79,44.64,8.79,20.11,0,26.86-8.82,28.98-16.22.74-2.6,1.4-5.21,2.04-7.73,2.57-10.21,4.8-19.02,11.33-24.05,26.75-20.59,59.45-55.99,63.3-107.75,1.93-25.86-4.06-51.59-17.31-74.41Z"/>
        <g>
          <path d="M229.6,24.29l-3.13-2.52-3.33-2.23-3.5-1.95-4.32.16-3.23-2.71-4.17.08-3.68-1.47-3.62-1.91-4.12.4-3.95-.24-3.84-.99-3.89-.84-3.94-.57-3.97.57-3.93.61-3.92.3-3.98-.23-3.82,1.16-4.03-.22-3.92.6-3.6,1.93-4.04.21-3.89.84-3.78,1.23-3.79,1.24-3.46,2.01-3.11,2.64-3.36,2.05-4.26.51-3.38,2.1-3.14,2.46-2.83,2.85-3.54,1.91-3.27,2.29-1.75,3.96-4.04,1.51-2.5,3.12-2.49,3.09-1.8,3.65-3.21,2.29-3.66,1.36-4.07.45-3.33,2.32-2.43,3.17-2.81,2.77-.91,3.85-1.45,3.67-.03,3.96-.96,3.73-.06,3.83-1.29,3.61-1.62,3.47-2.65,2.91-1.38,3.6-.6,3.88-1.44,3.5-1.67,3.4-2.25,3.14-1.98,3.23-1.19,3.68-2.12,3.17-3.31,2.18-1.7,3.59-2.86,2.55-2.61,2.68-2.57,2.94-.78,3.85-1.51,3.55-1.19,3.81,1.76,3.66.74,4.2,3.06,2.98,3.02,2.91,2.76,3.15,2.43,3.36-2.3,3.22-2.04,3.5-2.72,3.01-2.87,2.98-1.6,3.75-1.31,3.87-2.05,3.49-.97,3.98-1.51,3.73-1.55,3.71-3.04,3.11-.2,4.27-2.19,3.45-2.07,3.46-1.16,3.93-2.67,3.07-2,3.5-2.91,2.84-.73,4.03-1.56,3.62v3.94s-.35,3.94-.35,3.94l2.04,3.39,1.83,3.33,3.35,1.84,3.32,1.95,3.46,1.69,2.54,3.36,3.88.96,2.8,2.71,2.3,2.94,3.67,2.02,2.24,3.28,2.86,2.74,3.28,2.26,3.77,1.28,3.51,1.97,3.85,1.1,4.14-.92,3.76,1.85,4-1.23,3.89,1.68,3.94-1.64,3.92,1.47,3.94-.79,3.91.68,3.96-.39,3.87.85,3.8,1.07,4.15-.86,3.45,2.52,4.29-.66,3.37,2.21.3,3.77-1.59,3.6-.64,3.73v3.79s.14,3.78.14,3.78l-.18,3.81,1.79,3.55.89,3.59-.33,4.07,2.57,3.01,2.27,3.37,4.01.53,3.89.15,3.77-1.03,4,.38,3.68-1.99-1.57-3.98.71-4.06-1.34-3.93.08-4.02,1.06-3.93.82-3.88.37-3.98,1.4-3.72,1.12-3.86,2.25-3.33,2.02-3.52,3.08-2.64,3.31-2.85,3.71,2.35,3.77,1.2,3.71,1.41,3.87.89,4.04.22,3.79,1.13,3.63,1.96,4,.23,3.96.37,3.84,1.37,4.08-1.17,3.92.92,3.97-.1,3.95-.42,3.98-.63,3.48-2.06,3.53-2.21,2.02-3.76-.68-4.45,1.24-3.92,1.71-3.8,1.14-3.95.6-4.14,1.21-4,2.9-3.18,1.57-3.88,3.52-2.39,2.47-3.34,3.75-1.54,2.07-3.62,3.58-1.8,2.38-3.18,3.08-2.4,2.54-2.97,3.33-2.19,2.59-2.92,1.92-3.5,3.2-2.38,2.06-3.34,2.23-3.18,3.26-2.44,1.5-3.71,2.75-2.86,1.46-3.68,2.68-2.95,1.62-3.57,1.18-3.77,2.37-3.19.3-4.11,2.59-3.15,1.14-3.74,1.44-3.64.71-3.86.7-3.83,1.87-3.58.3-3.92-.56-4.02,1.14-3.77-.07-3.91,1.03-3.94-.51-4.01-.32-3.97.9-4.03-1.54-3.88.74-4.09-.62-3.96-1.71-3.74-.77-3.9.36-4.21-2.52-3.43-.65-3.98-.57-4.05-2.61-3.26-.96-3.94-2.13-3.41-1.07-3.95-2.91-2.95-2.1-3.38-2.31-3.24-2.36-3.2-1.98-3.48-2.97-2.72-2.34-3.22-2.56-3.04-2.58-3.04-3.21-2.41-2.44-3.21-3.52-2.01-2.61-3.08-3.56-1.9-2.66-3.1-3.72-1.63-3.04-2.63-3.08-2.62-4.11-.84ZM192.88,20.39l4.21.76,4,.09,3.93.83,4.17.12,3.47,2.38,3.99,1,3.66,1.82,4.09,1.07,3,3.03,4.07,1.16,2.86,3.2-.35,1.67-3.83,1.19-4,.43-3.75,1.39-3.54,1.91-3.56,1.73-3.85,1.05-3.43,1.98-3.47,1.88-3.89,1.25-3.22,2.36-3.3,2.24-3.02,2.6-3.25,2.34-2.46,3.19-2.63,2.97-2.59,2.99-2.47,3.09-2.16,3.33-3.23,2.49-1.97,3.46-2.22,3.27-1.85,3.52-1.94,3.44-3.54,2.49-1.34,4.36-3.55-2.22-3.38-2.24-3.35-2.27-3.03-2.8-4.05-1.16-3.17-2.57-3.35-2.3-3.68-1.77-3.02-2.6,1.69-3.07,1.72-3.49,1.42-3.68,2.55-3.02,2.33-3.13,1.32-3.83,3.44-2.32,2.02-3.35,2-3.41,3.27-2.31,1.95-3.53,3.73-1.75,2.32-3.23,2.99-2.5,3.57-1.71,2.35-3.46,3.84-1.22,3.1-2.46,3.43-1.92,4.12-.24,3.14-2.82,4.18.38,3.51-2.11ZM118.79,36.34l4.19-3.96,1.18,1.17-.38,4.02-1.9,3.68-.14.1-2.26-2.76-.69-2.24ZM113.59,38.03l1.68,4.06.9,3.89,2.63,3.11,1.36,3.7.75,3.97,2.97-.63.8-4.11,1.21-3.99.9-4.09,1.23-3.99,2.59-3.61.83-4.12.87-4.11.49-1.9,3.86-.91,4.02-.37,3.49-1.86,3.52-1.92,3.93-.52,3.85-.73,3.83-.84,3.94-.06,3.89-.4,3.87-1.19.44,3.06-3.25,2.18-2.69,2.97-3.19,2.22-2.82,2.69-3.61,1.71-2.19,3.41-3.74,1.66-2.74,2.78-2.11,3.37-2.34,3.1-3.7,1.94-1.7,3.63-2.24,3.17-2.79,2.79-1.74,3.51-1.61,3.56-2.74,2.9-2.23,3.24-1.09,4.04-2.81-3.34-4.38-1.05-2.73-3.33-3.79-1.88-3.55-2.21-2.58-3.55-4.13-1.42-2.11-3.04,2.1-2.66,2.3-3.48,3.62-2.11,2.2-3.59,3.4-2.36,3.12-3.31ZM76.08,74.49l4.05-.49,3.17,1.87.58,3.56-.66,4.14-4.05-.43-4.04-.44,1.38-4.06-.42-4.16ZM61,155.97l-1.61,3.36-2.53,2.25-2.7,2.71-2.33-3.61-1.7-3.58-3.45-2.3-2.42-3.07-1.43-3.8v-3.71s.67-3.97.67-3.97l1.71-3.79,1.89-3.82,3.65-2.27,2.52-3.26,2.76-2.93,2.75-2.99,1.38-3.88,2.2-3.37,2.32-3.42.23-4.24,2.54-3.37,1.32-3.81,1.17-4.05,3.16-2.76,3.24-2.59,3.86-1.56,4.26-.26,3.91,1.35,3.95,1,3.98.95,2.83,2.6-2.18-3.5-2.79-3.22-1.57-4.18-2.92-3.07,2.45,3.02,3.8,1.49,2.57,3.13,2.87,2.74,4.12,1.04,3.28,2.17,2.27,3.59,3.6,1.72,3.75,1.49,2.66,3.06,3.75,1.45,2.5,3.34,4.03,1.01,3.14,2.38,2.98,2.64,3.66,1.53,3.06,2.53,3.51,1.78,3.27,2.2,3.63,1.57,3.08,2.56,3.83,1.19,3.6,1.62,3.44,2.3,3.81,1.69,2.7,3.48,4.21,1.06,3.31,2.52,3.43,2.34,3.16,2.78.55.78.6.5-2.39,1.4-4.71,1.05-1.86,2.85.52,4.28.84,4,1.91,3.71-1.1,4.04.1,4.05-2.22,3.41-1.98,3.45-1.51,3.96-3.48,2.46-2.01,3.63-2.18,3.56.56,4.17.37,3.89,1.13,3.78-1.02,3.24-1.85,3.42-3.73,1.47-3.1,1.98-3.3,1.68-3.57.99-3.62.79-3.7.24-3.74-.15-3.81-.57-3.1-2.28-2.43-2.86-3.17-2.43-1.38-3.9-3.64-2.04-2.22-3.22-1.71-3.64-3.27-2.37-3.55-1.77-4.46-.91-2.43,3.46,2.53,3.48,3.69,1.36,3.75,1.18,2.09,4.67-.6,4.37-2.47,3.06-3.18,2.46-3.79,1.38-4.01-.09-4.03,1.26-4-1.11-2.71-3.23-3.97-.93-2.27-3.17-3.64-1.39-2.14-3.34-3.76-1.03-3.93-.05-1.09-3.81-3.02-2.3-2.61-2.55-3.32-1.49-3.07-1.88-3.34-1.49-2.86-3.57-3.54-2.59-3.75-2.31-3.83-2.06,2.24-3.15,3.41-2.43,2.26-3.41,1.26-3.98,2.19-3.33,2.02-3.52,1.02-4.33ZM190.59,161.94l-1.23-3.78.3-4.02-.7-3.86.82-3.23,1.73.36,1.16-.27,3.21,2.82,1.43,4.05,1.2,3.95,1.89,3.91-.65,4.24-1.48,3.9-1.54,3.77-1.33,3.87-1.66,3.75-2.39,3.35-1.17,4.11-3.7,2.36-2.5,3.15-2.33,3.55-3.93,1.82-2-3.36,1.79-3.49,2.85-2.74,1.3-3.88,2.23-3.15,3.01-2.6,2.06-3.31,1.68-3.57-.1-3.98.33-3.82-.26-3.89ZM166.31,221.01l-1.89,3.59-.15,4.34-2.57,3.42-.92,4.04-2.39,3.49-.38,4.27-1.13,4.2-1.9-4.18.52-3.94.49-3.76.35-3.92,2.34-3.15,1.46-3.77,2.85-2.81,3.32-1.82ZM92.68,227.8l-1.48.35-3.69-1.42-2.07-2.82,3.55-2.03,2.31-3.49,2.41,1.55.8,4.12-1.83,3.74ZM48.23,203.03l2.35-2.69,2.7-2.37,1.91-3.13,2.54,1.39-.15,3.72-.4,3.69.32,3.79-3.04.41-3.43-.82-3.25-1.15.45-2.83ZM50.28,214.79l-2.23,3.48-4.09.97-2.21-.64.24-4.85,3.38-3.35,3.45,1.67,1.45,2.71ZM57.5,218.14l5.03,2.58v2.83s-3,3.18-3,3.18l-3.71,2.18-3.07-2.23.98-4.09,2.23-3.74,1.54-.71ZM59.73,208.38l3.83-2.43,2.58-3.81,3.52,2.11.25,3.42-1.33,3.24-.74,3.31-1.85,1.04-4.16-2.39-2.11-4.5ZM69.08,225.32l3.18,1.84,3.21,1.79-2.08,2.76-3.38,3.47-2.47,1.11-2.44-2.57.87-2.13.3-4.4,2.82-1.87ZM73.26,218.24l1.35-4.98,3.87-3.2,3.95,2.18-1.3,4.39-.18,4.48-1.91,1.32-4.47-.59-1.31-3.6ZM83.75,232.15l3.44-.27,1.98,3.13-1.89,3.7-2.59,3.28-1.42.02-4.43-.8-.55-3.48,2.43-3.03,3.02-2.54ZM98.33,243.82l-2.06.74-3.17-2.64,3.24-4.33,2.59,3.91-.59,2.33ZM100.06,227.1l4.42-2.53,2.94,1.28-2.38,4.33-3.71,2.73-1.85-2.4.57-3.41ZM36.72,195.8l2.38-2.9,2.32-2.93,2.57-1.51,3.29-1.29.14,2.79.03,3.02-1.76,3.85-1.89,3.77-4.49-.72-2.61-4.09ZM36.94,202.36l2.34,1.84.67,2.88-2.54,2.04-1.02,3.08-2.85.41-2.6-1.46-.26-2.84,2.16-2.3,1.74-2.59,2.35-1.05ZM118.52,279.24l-3.69.04-3.71-1.21-3.88-.53-3.68-1.68-3.93-.25-3.97.37-3.83-1.28-3.9-.84-3.94-.17-3.94.37-3.93.43-3.92-.78-3.92.48-3.89-.57-3.91.04-3.74-1.04-4.08-.4-1.8-3.65-3.52-2.33-2.03-3.3-1.69-3.57-2.39-3.06-3.2-2.37-2.63-2.81-1.85-3.59-3.6-1.86-3.15-3.29,1.16,4.8.32,4.52-3.73-.43-3.81-2.44-2.82-3.55-1.94-4.23,1.42-4.48,1.98-3.1,2.96-2.51,1.41-3.44,1.74-3.25,1.52-3.39,2.3-2.19,3.15,1.38,3.64,1.71,3.08,2.5,3,2.27,2.92,2.4,2.54,2.96,3.35,1.8,3.5.45,3.58-.08,2.19,3.76,2.9,3.26,4.14.58,3.57,2.06,4.14.43,3.92,1.03,3.7,1.9,4.2.36,3.87,1.41,3.99,1.04,3.53,2.53,4.66.62-3.64,2.16-3.78.34-3.24,1.63v1.64s3.55,1.6,3.55,1.6h3.9s3.92.27,3.92.27l3.3-2.45,3.6-1.04,3.63-1.42,2.41-3.14,2.92-2.48,2.33-3.06,2.82-2.62,2.7-2.76,2.47-2.97,1.8-3.44,2.27-3.1,2.6-2.78,2.94-2.1,3.27.16,1.46,4.07-2.93,2.55-.55,3.91-2.5,2.8-1.39,3.44-3.18,2.42,3.34,2.76,2.63-3.68,3.45-.27,2.48,2-1.01,2.89-1.74,3.8-3.76,1.72-2.32,3.29-3.9,1.59-1.88,3.7-2.88,2.67-3.19,2.48-2.07,3.41-1.22,3.92-2.97,2.31ZM129.45,321.26l-3.23-1.4-3.36-1.83,1.07-2.84,2.12-2.52,2.25-1.31,1.98,3.6,3.07,2.41-1.37,2.31-2.54,1.56ZM129.98,305.84l-5.32-1.06-3.03-3.95.47-3.88,1.07-3.74.89-3.76.8-3.85,1.42-3.65,2.37-3.16,1.78-3.48,2.01-3.36,3.17-2.46,2.04-3.37,2.88-2.62,2.58-2.96,3.99-1.12,2.97-2.45,3.7-.5,3.26,2.38.98,3.63-2.31,3.19-2.83,2.84-1.93,3.79-2.53,3.17-2.87,2.83-3.38,2.5-1.73,3.76-1.63,3.71-2.82,3.18-1.14,3.96-.94,4-1.08,4.02-2.81,2.42ZM161.21,273.76l-1.6-2.19,3.68-2.82,2.78,1.47,2.32,2.43,4.13.58,3.42,2.46,4.23-.4,3.77,2.04,4.09-.66,3.97-.74,4.09,1.07,4.06-.2,3.67-2.4,4.18.46,3.8-1.47,2.86,4.43-3.61,2.06-3.85.98-3.89.26-3.87.02-3.96,1.14-3.83-1.31-4,.26-3.77-1.26-4-.06-3.48-2.38-3.97-.24-3.98-.33-3.37-2.5-3.87-.7ZM170.88,262.54l-2.37-2.61-3.13-2.47-.82-3.76-.23-3.78.03-3.78-.02-3.88,1.55-3.54.87-3.79,2.37-3.08,1.77-3.59,2.57-3.06,2.39-3.18,1.69-3.65,2.59-3.03,3.14-2.67,1.49-3.79,3.06-2.73,1.56-3.73,2.01-3.44,2.14-3.35,2.66-3.02,1.64-3.7,1.83-3.58,2.36-2.92,1.54-3.42.53-3.75,2.28-3.3.66-3.76-.03-3.82-.77-3.74.25-3.82-.9-3.69-2.44-3.1-1.33-3.62-2.05-3.3-2.84-2.63-2.74-2.74-3.39-1.92-2.56-3.1-4.06-.72-3.03-2.54-3.78-1.17-3.2-2.22-2.87-2.82-3.56-1.55-3.9-.93-3.28-2.07-3.46-1.74-3.5-1.68-2.56-3.33-3.88-1-3.5-1.68-2.63-3.14-3.45-1.75-3.45-1.76-2.92-2.61-3.89-1.1-3.12-2.29-3.06-2.38-2.85-2.66-3.37-1.93-3.43-1.88-2.27-3.36-3.23-2.42-3.66-1.85-2.95-2.79-4.09-1.13-2.91-2.88-3.3-2.34-3.81-1.38-3.56-1.89-4.51-1.13,4.38-2.2,3.82-1.8,4.27-1.27,4.2,1.48,4.01,1.7,2.85,2.71,3.63,1.63,3.12,2.33,2.68,2.96,2.83,2.75,3.89,1.21,2.84,2.75,3.31,2.06,3.12,2.34,3.99,1.01,2.7,2.99,3,2.54,4.19.67,2.46,3.4,3.81,1.25,3.63,1.52,2.94,2.63,3.46,1.8,3.18,2.26,3.38,1.93,3.55,1.63,2.53,3.36,3.65,1.46,3.36,1.96,3.05,2.49,3.81,1.2,3.24,2.16,3.06,2.49,3.68,1.44,3.4,2.11,3.22,2.39,3.05,2.61,2.67,2.99,3.67,2.19,1.46,3.96,2.54,3.19,2.12,3.52-.06,4.26,1.44,3.76.84,3.97.38,4.08-.94,3.99-.4,4.07-1.47,3.8-1.26,3.86-2.15,3.45-2.81,3.01-2,3.44-1.97,3.29-1.99,3.28-1.53,3.59-2.13,3.19-2.92,2.65-1.43,3.65-2.12,3.2-2.68,2.81-1.44,3.66-2.76,2.77-2.3,3.07-2.2,3.16-2.52,2.95-1.32,3.76-2.18,3.9.39,4.49.31,4.41,1.71,3.97,2.28,2.98,2.66,2.65,3.17,2.56,4.02.37,3.94,1.16,3.93-1.79,4.09,1.07,3.94-.72,3.7-1.81,4.13.25,3.93-.75.93,1.33-2.52,3.13-3.24,2.4-3.66,1.67-3.6,1.87-3.88,1.2-4.08.09-3.98,1.11-4.06-.44-3.9-1.24-3.77-1.3-4.3.16-3.26-2.57-2.96-2.7ZM218.42,247.3l-3.18,2.4-3.55,1.89-3.8,1.37-3.97.76-4.04-.03-4.01,1.05-4.05-.58-3.99-.93-3.54-2.09-1.55-3.61-1.49-3.56.08-3.99,1.36-3.86,2.89-2.86,2.45-3.16,2.03-3.44,1.26-3.96,2.59-3.05,2.33-3.24,2.43-3.17,2.48-3.14,2.64-3.04,2.53-3.11,1.31-3.95,1.96-3.51,2.43-3.19,2.88-2.78.82-3.99,1.8-3.41,2.06-3.34,1.7-3.56,1.19-3.76.4-3.93-1.09-4,.66-3.83-.85-3.79.05-3.89-.71-3.82-1.83-3.45-1.68-3.44-.88-3.94-1.79-3.54-3.11-2.54-3.29-2.2-2.34-3.15-2.64-3.01-3.46-2.09-3.43-2.1-3.52-1.95-3.38-2.2-3.53-1.95-3.78-1.57-3.56-1.92-3.4-2.17-3.05-2.75-3.32-2.32-3.49-2,1.3-3.74,2.6-3.11,1.9-3.51,3.01-2.77,1.37-3.89,2.11-3.42,3.5-2.3,1.59-3.89,2.54-3.11,3.65-2.02,3.2-2.39,2.31-3.4,3.16-2.44,3.53-1.93,3.29-2.22,3.02-2.7,3.75-1.46,3.25-2.49,4.1-.51,3.77-1.21,3.77-1.27,3.88-.91,3.99-.03,3.96-1.05,3.93,1.28,4.12-.37,2.83,2.93,3.09,2.22,3.05,2.27,3.85,1.46,1.85,3.61,3.55,1.99,2.66,2.86,2.12,3.27.87,4.06,2.2,3.14,1.9,3.34,2.81,2.88,1.99,3.35,1.51,3.58,1.53,3.57.92,3.8.84,3.8,2.36,3.28.02,3.46-3.22-1.21-2.48-3.27-3.18-2.27-3.7-1.5-3.24-2.17-3.78-1.27-3.26-2.1-2.89-2.86-3.55-1.66-3.93-.71-3.63-1.37-3.4-2.22-3.94-.42h-3.95s-3.79-1.11-3.79-1.11l-3.9-.46-1.78,3.48.21,3.73,1.89,3.1-2.03,2.17-3.96.41-3.91.34-3.9-.16-3.98-.44-3.67,1.77-4.08-.21-3.5,1.91-3.47,1.78-3.75,1.34.99,2.95,3.8,1.66,3.97.53,3.97.58,3.7,1.82,4.19-.24,3.7,1.69,3.67,1.66,4.29-.12,3.43,2.27,4.02.91,2.72,3.4,4.31.71,2.19,3.67,2.58,2.9,2.11,3.24,1.87,3.69-.09,4.2-2.53,3.41-2.31.4-.62-3.69-1.25-3.43-2.27-2.89-2.72-2.5-1.93.56.94,4.1.54,4.17,1.16,4.07.35,4.23,2.11,3.89,1.46,1.94,3.14.49,2.51-2.72,2.81-2.34,3.1-1.97,2.61-3.04,1.62,4.55.9,4.2-2.11,3.87-1.3,3.83-.51,4.23-2.62,3.3-1.45,3.89-1.79,3.34-2.03,3.22-1.49,3.53-1.62,3.45-1.83,3.34-1.93,3.29-2.77,2.87,3.13,2.48,2.71,2.72,2.53,2.9,2.91,2.46,2.92,2.47,2.7,2.72,2.19,3.15,3.35,2.88-3.92,2.27-1.73,3.75-2.73,2.75-3.86,1.57-2.97,2.48-1.84,3.7-2.66,2.83-3.17,2.26-3.52,1.82-2.55,2.98-2.69,2.85-3.79,1.4-3.45,1.81-3.01,2.42ZM263.33,207.17l-3.19-3.17-2.4-3.48-3.1-2.85-3.06-2.84-2.94-2.99-2.67-3.19,1.93-3.18,1.97-3.21,1.24-3.62,2.54-2.89.7-3.94,3.24-2.49,1.83-3.3,1.71-3.37,1.47-3.51,2.02-3.79-.74-4.3,1.12-4.25-1.26-4.07-2.54-3.25-2.37-3.25-2.88-2.66-1.08-3.75-1.3-3.66-2.15-3.23-1.72-3.54-2.69-2.83-3.25-2.17-2.71-2.77-3.62-1.48-3.54-1.44-2.9-2.75-3.7-1.1-3.85-.55-3.27-2.26-3.88-.35.31-1.13,4.09-.62,4.13.11,4.1-.56,4.06-1.35,4.12-.38,2.24-1.79-.7-3.18-.72-3.17,1.57-1.6,3.99.17,3.11,2.67,3.98.33,3.49,1.61,3.48,1.62,3.52,1.56,3.25,2.07,3.65,1.35,2.71,2.92,3.62,1.48,3.24,2.11,2.83,2.62,3.02,2.42,2.91,2.59,1.14,3.82.74,3.73,1.9,3.76-.1,4.05.11,4.01-.74,3.99,1.14,4.05-.22,4.03-.48,4-.4,4.03-1.66,3.76-.73,3.95-2.03,3.58-1.14,3.82-.85,3.94-.72,4.04-1.86,3.58-1.63,3.68-3.19,2.86-.55,4.27-3.13,2.81-2.39,3.21-1.53,3.78-2.33,3.26-2.29,3.64Z"/>
          <path d="M216.76,239.35l-4.47.86-4.53-.54-3.77-2.31-1.41-4.2-.4-4.44.35-4.45,1.49-3.84,2.09-3.54,2.49-3.29,3.14-2.69,3.46-2.23,3.84-1.49,4.09-.38,4,.99,3.18,2.61,2.06,3.42.64,3.96-.63,3.98-1.38,3.8-2.05,3.49-2.51,3.17-2.86,2.86-3.26,2.39-3.57,1.89ZM211.81,233.23l3.91-.52,3.7-1.4,3.27-2.24,2.59-3,1.86-3.48.9-3.83-1.97-.63-2.13,3.4-2.43,3.2-3.06,2.61-3.36,2.2-3.65,1.69.37,2.02Z"/>
          <path d="M98.22,139.53l3.18.86,1.06,3.9.79,4.01.22,4.09-.65,4.05.17,4.11-.83,4.02-.77,4.01-.97,3.97-1.26,3.89-1.8,3.67-2.05,3.54-3.08,2.66-3.76,1.25-3.3-.87-2.64-2.33-1.65-3.08,1.81-5.51-3.22-2.4-3.22,2.04-3.14,2.17-2.33-.41-2.1-3.09-2.08-3.19-.67-3.74-.3-3.77,2.02-3.61,2.34-3.36,2.43-3.32,2.67-3.14-.66-3.11-4.46-1.93-4.49-1.86-2.67-2.87-2.04-3.37-.4-3.94.84-3.76,1.15-3.61,1.77-3.34,1.51-3.46,1.38-3.51,1.94-3.27,1.15-3.63,1.81-3.33,2.07-3.4,3.16-2.39,3.58-1.65,3.84-1.18,4.04-.06,3.87,1.12,3.63,1.19,3.31,1.91,2.97,2.4,2.61,2.85,1.54,3.56.65,3.83.13,4.07.14,4.07,2.8,2.2.14,3.59-3.18,2.19-3.28,2.05-3.48,1.74-3.26,2.11-.39.39-2.68,2.84-2.63,2.9-2.51,3.01-2.76,2.78-2.9,2.65-2.67,2.86-2.65,2.9-2.77,2.79-2.56,2.99-.28,1.96-.15.06,3.21.49,2.75-3.22,3.05-2.96,2.65-3.3,2.9-3.1,2.75-3.23,2.46-3.49,3.14-2.47,3.06-2.49ZM72.74,116.89l1.27,2.57,2.72-.77.12-.86,2.14-3.97,2.67-3.68,1.77-4.19-2.59-2.53-2.87,2.22-2.07,2.92-1.42,4.21-1.75,4.09Z"/>
          <polygon points="124.02 144.63 122.43 147.8 121.03 151.06 120.2 154.51 119.67 158.01 122.02 160.84 124.69 158.44 125.42 154.75 126.32 151.1 127.68 147.6 129.27 144.2 131.18 140.97 133.57 138.07 133.62 135.24 131.28 133.95 129.46 134.06 126.99 132.39 127.56 129.54 130.22 127.46 133.2 125.88 136.43 124.85 140.48 125.37 144.47 126.13 148.24 127.71 151.65 129.94 154.88 132.4 158.03 134.99 160.86 137.94 163.17 141.31 165.55 144.62 167.35 148.28 169.07 151.97 170.44 155.8 171.35 159.77 172 163.8 171.47 167.67 170.89 171.51 169.62 175.21 167.68 178.59 165.5 181.84 162.71 184.57 159.74 187.09 156.32 188.92 152.57 190.58 148.49 191.07 144.38 191.42 140.38 190.43 136.46 189.19 132.77 187.36 129.3 185.15 125.99 182.7 122.92 180.03 120.38 176.85 117.86 173.69 115.68 170.26 114.59 166.34 113.72 162.39 113.55 158.34 114.09 154.74 114.68 151.14 115.89 147.7 117.76 144.57 119.93 141.69 123.28 141.29 124.02 144.63"/>
          <polygon points="263.96 187.99 264.99 184.17 266.14 180.39 267.55 176.68 268.76 172.92 269.92 169.14 271.12 165.37 272.3 161.6 273.29 157.76 274.52 154 275.71 150.22 276.92 146.45 278.26 142.7 279.27 138.86 281.23 139.04 281.73 142.89 281.66 146.78 281.79 150.66 281.56 154.54 281.1 158.4 280.24 162.18 279.37 165.97 278.2 169.67 276.62 173.22 275 176.75 272.9 180.03 270.59 183.14 268.31 186.29 265.54 189.02 263.96 187.99"/>
          <path d="M146.1,79.1l-.33-4.36-.25-4.37-.4-4.37-.24-4.38,1.68-2.62,3.49-.96,3.48-1.01,3.47-1.06,3.44-1.15,3.13,2.02.66,3.94.57,3.96.77,3.94.62,3.96-1.61,2.71-3.77,1.46-3.75,1.52-3.79,1.45-3.79,1.46-3.37-2.15ZM157.05,61.52l-3.77,3.14-2.53,4.16,1.73,2.68,2.85,1.39,2.97-2.2,1.9-3.15-.83-3.53-2.31-2.49Z"/>
        </g>
      </g>
      <g>
        <path class="cls-2" d="M895.76,232.96l-31.36-42.29,29.28-38.29c1.5-1.89,2.39-4.28,2.39-6.88,0-5.91-4.62-10.74-10.45-11.08-.22-.01-.43-.02-.65-.02-.2,0-.39,0-.59.02-.46.02-.91.08-1.36.15l-24.39,3.88c-2.8.44-5.32,1.94-7.05,4.18l-18.75,24.32v-11.41c-.02-3.25-1.44-6.33-3.91-8.43-2.02-1.72-4.58-2.65-7.2-2.65-.58,0-1.16.05-1.74.14l-19.98,3.18c-5.4.86-9.37,5.52-9.36,10.98v.53c-5.54-3.85-12.81-5.86-21.31-5.86-3.22,0-6.65.29-10.19.85l-48.52,7.71c-5.4.86-9.37,5.52-9.36,10.98v4.14c-.16-.17-.32-.34-.5-.5-5.11-4.84-11.83-7.82-20.02-8.93l-.04-22.12c.26-2.38-.03-4.78-.84-7.03-.79-2.3-2.12-4.37-3.88-6.08-.83-.92-1.6-1.68-2.03-2.09-2.44-2.34-6.33-5.48-11.83-5.84l-9.64-.62-.36-8.56c-.23-5.53-3.31-9.87-5.85-12.54-4.02-4.22-8.72-6.46-13.61-6.46-3.93,0-7.68,1.46-10.55,4.11-1.65,1.52-3.19,3.57-3.77,4.38-1.69,2.34-3.68,5.57-4.05,9.82l-.76,8.7-10.86.48c-5.87.26-12.81,4.07-15.43,13.83-4.28-1.2-9-1.81-14.13-1.81-3.96,0-8.26.36-12.77,1.08-15.68,2.49-28.76,9.27-37.83,19.61-1.87,2.13-3.56,4.39-5.08,6.78-1-1.47-2.05-2.7-3.04-3.7-5.81-5.82-14.43-8.89-24.95-8.89h0c-3.22,0-6.65.29-10.19.85l-48.52,7.71c-1.42.23-2.73.72-3.9,1.41-.78-.17-1.58-.27-2.39-.27-.58,0-1.16.05-1.74.14l-80.2,12.75c-5.4.86-9.37,5.52-9.36,10.99l.04,18.06c0,3.24,1.43,6.32,3.9,8.42,2.02,1.72,4.58,2.65,7.2,2.65.58,0,1.16-.05,1.74-.14l17.4-2.77v63.3c0,3.25,1.42,6.33,3.89,8.44,2.02,1.73,4.58,2.66,7.2,2.66.58,0,1.16-.05,1.74-.14l19.99-3.18c5.39-.86,9.36-5.5,9.36-10.96v-66.83l15.84-2.52.11,63.3c0,3.24,1.43,6.32,3.9,8.43,2.02,1.72,4.58,2.65,7.2,2.65.58,0,1.16-.05,1.74-.14l49.57-7.88c22.17-3.53,32.61-12.91,37.34-22.36,8,8.17,18.84,12.49,31.39,12.49,2.89,0,5.86-.24,8.82-.71,2.72-.43,5.29-.99,7.72-1.67l44.07-6.71c-.08.69-.1,1.39-.05,2.1,1.75,24.25,16.4,37.61,41.26,37.61,4.4,0,9.25-.42,14.41-1.24,14.56-2.32,25.41-6.9,33.15-14.02.23-.22.45-.44.68-.66.65,1.2,1.5,2.3,2.57,3.21,2.02,1.72,4.58,2.65,7.2,2.65.58,0,1.16-.05,1.74-.14l49.57-7.88c13.35-2.12,22.45-6.37,28.61-11.48.6.98,1.36,1.88,2.25,2.64,2.02,1.72,4.58,2.65,7.2,2.65.58,0,1.16-.05,1.74-.14l19.98-3.18c5.4-.86,9.38-5.53,9.36-11l-.07-19.6,4.4-5.64,18.67,25.08c2.11,2.84,5.43,4.47,8.9,4.47.58,0,1.16-.05,1.74-.14l21.96-3.49c3.83-.61,7.07-3.17,8.53-6.77,1.47-3.59.95-7.69-1.36-10.8Z"/>
        <g>
          <g>
            <path class="cls-1" d="M374.53,197.56l-30.24,4.81-.04-18.06,80.2-12.75.04,18.06-29.98,4.77v76.3s-19.98,3.18-19.98,3.18v-76.3Z"/>
            <path class="cls-1" d="M432.49,170.27l48.52-7.71c16.57-2.63,30.21,1.8,30.18,17.71l-.06,5.54c.04,8.76-5.95,16.85-15.99,19.8l.17,1.05c12.76-.28,18.47,5.96,18.48,16.2l.08,6.46c-.02,17.66-15.2,24.79-31.63,27.41l-49.57,7.88-.17-94.34ZM482.91,238.96c6.71-1.07,10.02-5.64,9.95-11.15l-.07-2.96c-.05-5.38-3.19-9.06-10.03-7.98l-30.24,4.81.14,22.09,30.24-4.81ZM480.54,201.19c6.84-1.09,9.91-5.49,9.91-10.61l.07-2.98c.06-5.54-3.22-8.39-9.93-7.32l-28.14,4.47.08,20.88,28.01-4.45Z"/>
            <path class="cls-1" d="M518.85,206.56l-.11-5.78c.04-31.96,17.85-48.81,43.36-52.86,26.03-4.14,40.21,5.33,42.07,28.9l-20.12,3.2-.09-2.28c-.72-9.59-6.42-14.08-21.14-11.74-15.91,2.53-22.96,11.6-22.98,28.46l-.13,11.88c-.02,16.85,8.01,24.07,22.73,21.73,15.51-2.47,22.63-8.59,23.61-22.76l-23.53,3.74-.02-15.37,41.94-6.67.17,50.25-13.15,2.09-3.92-11.91-.92.15c-4.04,10.21-12.12,16.22-26.84,18.56-20.64,3.28-40.92-7.24-40.94-39.59Z"/>
          </g>
          <g>
            <path class="cls-1" d="M670.56,236.36l-19.26.1c-17.36.2-25.4-9.71-25.72-22.74l-.02-3.5c-.41-16.11,11.74-27.07,35.67-30.88,25.77-4.1,38.08,3.79,39.54,24.85l-19.33,3.07-.22-2.26c-.53-7.6-5.92-10.92-18.01-9-13.15,2.09-17.95,6.63-17.89,12.15l-.08,2.04c-.02,5.8,3.42,7.95,11.39,8.03l20.6-.17c17.49-.22,26.07,7.99,26.08,21.6l.05,4.57c-.17,16.74-11.17,28.06-36.16,32.04-27.74,4.41-41.29-4.49-42.86-26.21l19.72-3.14.22,2.26c.72,9.59,7.61,12.27,20.89,10.16,13.15-2.09,18.17-6.12,18.24-12.47l.08-2.04c-.13-5.91-3.39-8.63-12.94-8.46Z"/>
            <path class="cls-1" d="M712.36,172.95l48.52-7.71c16.57-2.63,30.21,1.8,30.18,17.71l-.06,5.54c.04,8.76-5.95,16.85-15.99,19.8l.17,1.05c12.76-.28,18.47,5.96,18.48,16.2l.08,6.46c-.02,17.66-15.2,24.79-31.63,27.41l-49.57,7.88-.17-94.34ZM762.78,241.64c6.71-1.07,10.02-5.64,9.95-11.15l-.07-2.96c-.05-5.38-3.19-9.06-10.03-7.98l-30.24,4.81.14,22.09,30.24-4.81ZM760.42,203.87c6.84-1.09,9.91-5.49,9.91-10.61l.07-2.98c.06-5.54-3.22-8.39-9.93-7.32l-28.14,4.47.08,20.88,28.01-4.45Z"/>
            <path class="cls-1" d="M837.97,206.9l-1.05.17-15.12,19.39.09,23.44-19.98,3.18-.17-94.34,19.98-3.18.05,42.72,1.05-.17,37.55-48.7,24.59-3.91-34.15,44.66.17,1.05,35.86,48.35-21.96,3.49-26.91-36.16Z"/>
          </g>
        </g>
        <path d="M607.41,147.62c-1.21-.07-4.93-1.91-5.78-2.31-1.28-.6.29-6.62,1.7-6.68l23.82-1.06,1.89-21.63c.09-1.06,2.34-3.89,3.13-4.62,1.17-1.08,5.11,2.96,5.18,4.64l.92,21.86,22.92,1.47c1.12.07,4.09,3.24,4.72,4.17.84,1.25-3.05,3.97-4.77,4.05l-23.29,1.04-1.01,22.2c-.06,1.23-1.92,4.81-2.57,5.92-.65,1.1-6.28-.53-6.33-1.8l-1.1-26.17-19.42-1.08Z"/>
      </g>
    </g>
  </g>
</svg>