<?xml version="1.0" encoding="UTF-8"?>
<svg id="Layer_2" data-name="Layer 2" xmlns="http://www.w3.org/2000/svg" viewBox="0 0 503.49 602.65">
  <defs>
    <style>
      .cls-1 {
        fill: #010101;
      }

      .cls-2 {
        fill: #fff;
      }
    </style>
  </defs>
  <g id="Layer_1-2" data-name="Layer 1">
    <g>
      <g>
        <g>
          <path class="cls-2" d="M224.6,388.15c-4.18,0-14.26-.75-17.67-7.69-6.58-13.4-6.17-26.05-4.19-41.75-13.43-4.26-25.96-4.32-38.13-4.38-21.01-.1-40.87-.2-57.13-23.15l-18.51-10.33c-5.58-3.11-9.18-8.09-10.41-14.39-1.65-8.39,1.18-18.68,7.2-26.22,5.56-6.96,9.03-15.54,13.05-25.47,5.01-12.38,10.64-26.27,21.8-40.8-5.9-6.16-11.3-12.03-12.96-18-2.8-10.14,3.23-24.68,10.29-30.42,9.3-7.59,13.22-16.58,17.75-26.98,1.17-2.68,2.36-5.42,3.67-8.22,1.02-2.16,2.12-4.18,3.18-6.13,2.99-5.47,5.56-10.19,5.17-15.91-1.05-15.64,9.25-28.05,24.79-30.39C198.66,24.6,237.41,5.55,279.23,5.55c22.34,0,44.63,5.74,64.46,16.59,53.68,29.38,85.58,85.63,81.28,143.31-4.34,58.3-41.37,98.33-71.67,121.65-9.13,7.04-12.08,18.71-15.2,31.08-.75,2.96-1.5,5.92-2.33,8.83-1.95,6.8-8.46,14.9-28.46,14.9-14.08,0-33.85-4.1-53.36-11.02-13.75,11.02-13.92,31.79-11.5,47.66.28,1.83-.37,3.67-1.74,4.93-4.73,4.34-13.54,4.67-16.12,4.67Z"/>
          <path class="cls-2" d="M279.23,11.09c20.94,0,42.13,5.15,61.8,15.91,50.32,27.54,82.72,80.22,78.41,138.02-3.62,48.63-31.88,88.7-69.51,117.67-13.04,10.05-15.01,27.17-19.47,42.79-2.26,7.9-11.29,10.87-23.13,10.87-16.21,0-37.69-5.58-54.24-11.69-17.41,11.5-19.2,34.37-16.11,54.71-2.25,2.06-7.34,3.22-12.38,3.22-5.59,0-11.13-1.42-12.69-4.59-6.63-13.5-5.3-26.78-3.07-43.06-40.41-15.29-73.16,7.73-97.52-27.99l-19.63-10.96c-12.09-6.75-8.77-23.31-1.58-32.31,13.93-17.43,15.38-43.03,37.88-70.06-6.23-6.57-13.41-13.49-14.98-19.15-2.1-7.6,2.69-19.95,8.45-24.63,12.87-10.49,16.34-23.1,22.95-37.14,3.89-8.25,9.53-15.09,8.87-24.78-.95-14.11,8.79-23.73,22.22-24.77,25.5-33.66,64.15-52.07,103.74-52.07M279.24,0h-.01c-42.84,0-82.58,19.2-109.73,52.83-17.25,3.56-28.5,17.93-27.29,35.85.27,3.92-1.45,7.28-4.51,12.89-1.1,2.02-2.25,4.12-3.33,6.42-1.36,2.9-2.58,5.68-3.75,8.37-4.42,10.15-7.91,18.16-16.17,24.9-8.54,6.95-15.63,23.53-12.13,36.19,1.67,6.03,6,11.46,11.08,16.95-9.76,13.69-15,26.64-19.71,38.28-3.86,9.53-7.19,17.77-12.25,24.09-6.99,8.75-10.26,20.82-8.31,30.75,1.54,7.84,6.21,14.3,13.15,18.17l17.43,9.73c17.77,24.24,39.68,24.35,60.88,24.46,10.37.05,21.02.1,32.1,2.88-1.51,14.25-1.24,26.91,5.26,40.15,3.36,6.85,11.62,10.79,22.64,10.79,3.96,0,13.83-.6,19.87-6.13,2.73-2.5,4.03-6.19,3.47-9.85-2.04-13.43-2.2-30.64,7.32-40.52,11.58,3.89,33.38,10.25,52.05,10.25,23.45,0,31.32-10.29,33.79-18.91.87-3.03,1.63-6.07,2.37-9.01,3-11.9,5.59-22.18,13.21-28.04,31.19-24,69.31-65.28,73.81-125.63,2.25-30.15-4.73-60.16-20.19-86.76-14.95-25.73-37.06-47.1-63.96-61.82C325.71,5.97,302.51,0,279.24,0h0Z"/>
        </g>
        <g>
          <path d="M340.29,28.32l-3.65-2.94-3.88-2.6-4.08-2.27-5.04.19-3.77-3.16-4.87.1-4.29-1.71-4.22-2.23-4.81.47-4.6-.28-4.48-1.15-4.54-.98-4.6-.67-4.63.66-4.58.72-4.57.35-4.64-.27-4.46,1.36-4.7-.26-4.57.7-4.19,2.25-4.71.24-4.54.98-4.41,1.43-4.42,1.44-4.04,2.34-3.63,3.08-3.92,2.39-4.97.6-3.95,2.45-3.67,2.86-3.3,3.32-4.13,2.22-3.82,2.67-2.05,4.62-4.71,1.76-2.91,3.64-2.91,3.61-2.1,4.25-3.74,2.67-4.26,1.59-4.74.52-3.88,2.71-2.83,3.69-3.27,3.23-1.06,4.48-1.69,4.28-.03,4.62-1.12,4.35-.07,4.47-1.5,4.21-1.89,4.04-3.09,3.39-1.61,4.19-.7,4.53-1.68,4.08-1.95,3.97-2.62,3.66-2.3,3.77-1.39,4.29-2.47,3.7-3.86,2.55-1.98,4.18-3.33,2.97-3.04,3.12-2.99,3.43-.91,4.49-1.76,4.14-1.39,4.44,2.06,4.27.87,4.9,3.56,3.47,3.52,3.39,3.22,3.67,2.84,3.92-2.68,3.75-2.37,4.08-3.18,3.52-3.35,3.48-1.87,4.37-1.53,4.52-2.39,4.07-1.14,4.64-1.76,4.34-1.81,4.33-3.54,3.63-.24,4.98-2.55,4.02-2.41,4.03-1.35,4.59-3.12,3.58-2.33,4.08-3.39,3.31-.85,4.7-1.81,4.22v4.59s-.4,4.6-.4,4.6l2.38,3.95,2.13,3.88,3.9,2.15,3.87,2.27,4.03,1.97,2.96,3.91,4.53,1.12,3.27,3.16,2.68,3.43,4.28,2.35,2.61,3.82,3.34,3.19,3.82,2.63,4.4,1.49,4.1,2.3,4.49,1.28,4.82-1.07,4.39,2.16,4.67-1.43,4.54,1.96,4.59-1.91,4.57,1.71,4.6-.92,4.56.8,4.61-.46,4.51.99,4.43,1.24,4.84-1,4.02,2.94,5-.77,3.93,2.57.35,4.4-1.86,4.2-.75,4.35-.02,4.42.18,4.41-.21,4.44,2.09,4.14,1.03,4.18-.39,4.74,3,3.51,2.65,3.93,4.68.62,4.53.17,4.39-1.21,4.66.44,4.29-2.32-1.83-4.64.83-4.73-1.56-4.58.09-4.68,1.24-4.58.95-4.53.43-4.64,1.64-4.34,1.3-4.51,2.62-3.88,2.35-4.11,3.59-3.08,3.86-3.32,4.33,2.74,4.4,1.4,4.33,1.64,4.51,1.04,4.71.25,4.42,1.31,4.23,2.29,4.67.27,4.62.43,4.48,1.6,4.76-1.36,4.57,1.07,4.62-.12,4.61-.49,4.64-.73,4.05-2.41,4.12-2.57,2.36-4.39-.8-5.18,1.45-4.57,2-4.44,1.33-4.6.7-4.82,1.41-4.66,3.38-3.71,1.83-4.52,4.1-2.78,2.88-3.89,4.37-1.8,2.41-4.22,4.17-2.1,2.78-3.7,3.59-2.79,2.96-3.46,3.88-2.55,3.02-3.41,2.24-4.08,3.73-2.77,2.4-3.9,2.6-3.71,3.8-2.84,1.75-4.32,3.21-3.33,1.7-4.29,3.12-3.44,1.89-4.16,1.38-4.39,2.76-3.72.35-4.79,3.02-3.67,1.33-4.36,1.68-4.24.83-4.5.82-4.47,2.18-4.17.35-4.58-.65-4.69,1.33-4.39-.08-4.55,1.2-4.59-.6-4.67-.38-4.63,1.04-4.7-1.79-4.52.86-4.77-.72-4.62-2-4.36-.9-4.54.41-4.91-2.94-4-.76-4.64-.67-4.73-3.05-3.8-1.12-4.59-2.48-3.98-1.25-4.61-3.39-3.44-2.45-3.94-2.7-3.78-2.75-3.73-2.31-4.06-3.46-3.17-2.73-3.75-2.99-3.55-3.01-3.55-3.74-2.81-2.85-3.75-4.11-2.35-3.05-3.59-4.15-2.21-3.1-3.62-4.33-1.9-3.54-3.06-3.6-3.06-4.79-.98ZM297.47,23.77l4.91.89,4.67.1,4.58.97,4.87.14,4.05,2.77,4.66,1.17,4.27,2.12,4.77,1.24,3.49,3.54,4.75,1.35,3.33,3.73-.41,1.95-4.46,1.39-4.66.5-4.38,1.62-4.13,2.23-4.15,2.02-4.49,1.23-4,2.31-4.05,2.19-4.54,1.45-3.75,2.75-3.85,2.61-3.52,3.04-3.78,2.73-2.87,3.72-3.07,3.47-3.02,3.49-2.88,3.61-2.52,3.88-3.77,2.91-2.3,4.04-2.59,3.82-2.15,4.1-2.27,4.01-4.13,2.9-1.56,5.09-4.14-2.59-3.94-2.61-3.91-2.64-3.53-3.26-4.72-1.35-3.7-3-3.9-2.68-4.29-2.07-3.52-3.03,1.97-3.58,2.01-4.07,1.65-4.3,2.97-3.52,2.71-3.65,1.53-4.46,4.01-2.7,2.35-3.91,2.33-3.98,3.81-2.69,2.27-4.11,4.35-2.04,2.71-3.76,3.49-2.91,4.17-1.99,2.74-4.03,4.48-1.42,3.61-2.87,4-2.24,4.81-.28,3.66-3.28,4.87.44,4.1-2.46ZM211.08,42.37l4.88-4.62,1.38,1.36-.45,4.69-2.22,4.29-.17.11-2.63-3.22-.8-2.62ZM205.02,44.34l1.96,4.73,1.05,4.54,3.06,3.63,1.59,4.31.88,4.63,3.47-.74.93-4.79,1.41-4.66,1.05-4.77,1.43-4.65,3.01-4.21.96-4.8,1.02-4.79.57-2.22,4.5-1.06,4.69-.43,4.07-2.16,4.11-2.24,4.58-.6,4.49-.85,4.47-.98,4.59-.07,4.53-.47,4.51-1.39.52,3.57-3.79,2.54-3.14,3.46-3.72,2.59-3.29,3.14-4.21,1.99-2.55,3.98-4.37,1.93-3.2,3.24-2.46,3.93-2.73,3.61-4.32,2.27-1.99,4.23-2.61,3.69-3.25,3.25-2.03,4.1-1.87,4.15-3.2,3.39-2.6,3.77-1.27,4.71-3.28-3.89-5.1-1.22-3.19-3.88-4.42-2.19-4.14-2.57-3.01-4.14-4.82-1.66-2.46-3.55,2.45-3.1,2.69-4.06,4.23-2.46,2.57-4.19,3.96-2.75,3.64-3.85ZM161.28,86.85l4.72-.57,3.69,2.18.67,4.15-.77,4.83-4.72-.5-4.71-.51,1.61-4.73-.49-4.85ZM143.7,181.86l-1.87,3.91-2.95,2.62-3.15,3.16-2.71-4.21-1.98-4.18-4.02-2.68-2.82-3.58-1.67-4.43v-4.32s.78-4.63.78-4.63l1.99-4.42,2.2-4.45,4.25-2.64,2.94-3.8,3.22-3.42,3.21-3.49,1.61-4.53,2.57-3.93,2.71-3.98.27-4.95,2.97-3.93,1.54-4.44,1.36-4.73,3.69-3.22,3.78-3.02,4.5-1.82,4.97-.3,4.56,1.58,4.6,1.16,4.64,1.11,3.3,3.03-2.54-4.08-3.25-3.76-1.83-4.87-3.41-3.58,2.86,3.52,4.43,1.74,2.99,3.65,3.35,3.2,4.8,1.21,3.82,2.53,2.64,4.18,4.2,2,4.37,1.74,3.11,3.57,4.38,1.69,2.91,3.89,4.7,1.17,3.66,2.77,3.48,3.08,4.27,1.79,3.57,2.95,4.1,2.07,3.81,2.57,4.23,1.83,3.59,2.98,4.46,1.39,4.2,1.89,4.01,2.68,4.45,1.97,3.15,4.06,4.9,1.24,3.86,2.94,4,2.73,3.68,3.24.64.91.7.59-2.78,1.63-5.49,1.22-2.17,3.32.61,4.99.98,4.66,2.23,4.33-1.29,4.71.11,4.73-2.59,3.97-2.31,4.03-1.76,4.61-4.06,2.86-2.35,4.23-2.54,4.16.65,4.86.43,4.54,1.32,4.41-1.19,3.78-2.16,3.99-4.35,1.71-3.61,2.31-3.85,1.96-4.17,1.15-4.22.93-4.32.28-4.36-.18-4.45-.66-3.61-2.66-2.83-3.33-3.69-2.84-1.61-4.55-4.25-2.38-2.59-3.76-2-4.24-3.81-2.76-4.14-2.06-5.2-1.06-2.83,4.04,2.95,4.06,4.3,1.58,4.37,1.37,2.44,5.45-.7,5.09-2.88,3.57-3.71,2.86-4.41,1.61-4.68-.1-4.69,1.47-4.66-1.3-3.17-3.76-4.63-1.09-2.64-3.7-4.24-1.62-2.5-3.9-4.38-1.2-4.59-.05-1.27-4.44-3.52-2.69-3.05-2.98-3.87-1.74-3.59-2.19-3.89-1.74-3.34-4.17-4.13-3.02-4.37-2.69-4.47-2.4,2.62-3.68,3.97-2.83,2.63-3.98,1.46-4.64,2.56-3.89,2.36-4.1,1.19-5.05ZM294.8,188.81l-1.44-4.4.35-4.68-.82-4.5.95-3.76,2.01.42,1.35-.32,3.74,3.29,1.67,4.72,1.4,4.61,2.2,4.55-.76,4.95-1.73,4.55-1.8,4.4-1.55,4.51-1.94,4.37-2.79,3.9-1.36,4.8-4.32,2.76-2.91,3.67-2.71,4.13-4.59,2.12-2.33-3.92,2.08-4.07,3.33-3.2,1.51-4.53,2.6-3.68,3.51-3.03,2.41-3.86,1.95-4.16-.12-4.64.38-4.45-.3-4.54ZM266.49,257.69l-2.21,4.19-.18,5.06-3,3.98-1.07,4.72-2.79,4.07-.44,4.98-1.32,4.9-2.22-4.88.61-4.59.58-4.39.41-4.57,2.73-3.67,1.71-4.39,3.33-3.28,3.87-2.13ZM180.64,265.61l-1.73.4-4.3-1.66-2.41-3.28,4.14-2.37,2.69-4.07,2.81,1.81.93,4.8-2.13,4.36ZM128.81,236.73l2.74-3.14,3.15-2.76,2.22-3.66,2.96,1.62-.18,4.34-.46,4.31.38,4.42-3.54.48-4-.96-3.79-1.34.52-3.31ZM131.2,250.44l-2.6,4.06-4.77,1.13-2.58-.75.28-5.65,3.94-3.9,4.02,1.95,1.69,3.16ZM139.61,254.35l5.87,3.01v3.3s-3.5,3.71-3.5,3.71l-4.33,2.54-3.57-2.6,1.14-4.77,2.6-4.36,1.8-.83ZM142.22,242.97l4.47-2.84,3.01-4.44,4.1,2.46.29,3.99-1.55,3.78-.86,3.86-2.16,1.22-4.84-2.78-2.46-5.24ZM153.12,262.71l3.71,2.15,3.74,2.09-2.42,3.22-3.95,4.04-2.88,1.3-2.85-2.99,1.02-2.48.35-5.13,3.28-2.18ZM157.99,254.46l1.57-5.8,4.51-3.74,4.6,2.55-1.51,5.12-.2,5.23-2.23,1.54-5.21-.69-1.53-4.2ZM170.23,270.69l4.02-.32,2.3,3.65-2.2,4.31-3.02,3.82-1.66.02-5.16-.94-.64-4.06,2.83-3.53,3.52-2.97ZM187.23,284.29l-2.4.86-3.7-3.08,3.77-5.05,3.02,4.55-.69,2.72ZM189.24,264.8l5.16-2.94,3.43,1.49-2.77,5.04-4.32,3.18-2.16-2.8.66-3.97ZM115.38,228.29l2.78-3.38,2.71-3.41,3-1.75,3.84-1.51.17,3.26.04,3.52-2.05,4.49-2.2,4.4-5.24-.84-3.04-4.77ZM115.64,235.95l2.73,2.14.78,3.35-2.96,2.38-1.19,3.59-3.32.48-3.03-1.7-.3-3.32,2.52-2.68,2.02-3.02,2.75-1.23ZM210.77,325.58l-4.3.04-4.33-1.41-4.52-.62-4.29-1.96-4.58-.29-4.63.44-4.47-1.5-4.55-.98-4.6-.19-4.6.43-4.59.5-4.57-.91-4.57.56-4.53-.67-4.56.05-4.36-1.22-4.75-.47-2.1-4.25-4.1-2.71-2.36-3.85-1.97-4.16-2.79-3.57-3.73-2.76-3.07-3.28-2.15-4.18-4.19-2.17-3.67-3.84,1.35,5.59.38,5.27-4.35-.5-4.45-2.84-3.28-4.14-2.26-4.93,1.66-5.22,2.3-3.62,3.45-2.93,1.65-4.01,2.03-3.79,1.77-3.96,2.68-2.55,3.67,1.61,4.24,1.99,3.59,2.91,3.5,2.65,3.4,2.8,2.96,3.45,3.9,2.1,4.08.52,4.18-.1,2.55,4.38,3.38,3.8,4.83.67,4.16,2.4,4.83.5,4.57,1.2,4.32,2.22,4.9.42,4.51,1.65,4.66,1.21,4.12,2.95,5.44.72-4.25,2.52-4.4.39-3.78,1.9-.02,1.91,4.16,1.86h4.55s4.57.31,4.57.31l3.84-2.86,4.2-1.21,4.23-1.65,2.81-3.66,3.4-2.9,2.72-3.56,3.29-3.05,3.15-3.22,2.88-3.46,2.1-4.01,2.64-3.61,3.03-3.25,3.43-2.45,3.81.18,1.7,4.75-3.41,2.97-.64,4.56-2.91,3.27-1.63,4.02-3.71,2.82,3.9,3.22,3.06-4.29,4.02-.32,2.9,2.33-1.18,3.37-2.03,4.43-4.38,2.01-2.7,3.84-4.54,1.86-2.2,4.31-3.36,3.12-3.72,2.89-2.41,3.97-1.42,4.57-3.47,2.69ZM223.51,374.58l-3.76-1.63-3.92-2.13,1.25-3.31,2.48-2.94,2.63-1.52,2.31,4.2,3.58,2.81-1.59,2.7-2.97,1.82ZM224.13,356.6l-6.21-1.24-3.53-4.61.55-4.53,1.25-4.36,1.03-4.39.93-4.49,1.66-4.26,2.76-3.68,2.07-4.06,2.35-3.92,3.7-2.87,2.37-3.93,3.36-3.06,3.01-3.46,4.65-1.3,3.46-2.86,4.31-.59,3.8,2.78,1.14,4.23-2.69,3.72-3.3,3.31-2.25,4.42-2.95,3.7-3.35,3.3-3.95,2.92-2.02,4.38-1.9,4.32-3.29,3.71-1.33,4.62-1.1,4.66-1.26,4.68-3.27,2.83ZM260.54,319.19l-1.86-2.55,4.29-3.29,3.24,1.71,2.71,2.83,4.81.68,3.99,2.87,4.93-.47,4.39,2.38,4.77-.77,4.63-.86,4.77,1.25,4.73-.23,4.28-2.8,4.88.54,4.43-1.71,3.33,5.17-4.21,2.4-4.49,1.15-4.54.31-4.51.02-4.62,1.33-4.46-1.53-4.67.31-4.39-1.47-4.66-.07-4.06-2.78-4.63-.28-4.64-.38-3.93-2.92-4.51-.82ZM271.82,306.12l-2.76-3.05-3.64-2.88-.96-4.39-.27-4.41.03-4.41-.03-4.52,1.81-4.13,1.01-4.42,2.76-3.6,2.07-4.18,3-3.57,2.79-3.71,1.98-4.25,3.03-3.54,3.66-3.12,1.73-4.42,3.56-3.19,1.82-4.35,2.34-4.01,2.5-3.9,3.1-3.52,1.91-4.32,2.13-4.17,2.75-3.4,1.8-3.99.62-4.37,2.65-3.84.77-4.38-.04-4.45-.9-4.37.29-4.45-1.05-4.3-2.85-3.62-1.55-4.22-2.39-3.85-3.31-3.07-3.19-3.19-3.95-2.24-2.99-3.62-4.73-.85-3.53-2.96-4.41-1.36-3.73-2.59-3.35-3.29-4.15-1.81-4.55-1.08-3.83-2.41-4.04-2.03-4.08-1.96-2.98-3.88-4.52-1.17-4.08-1.96-3.07-3.66-4.02-2.04-4.03-2.05-3.4-3.04-4.54-1.28-3.64-2.67-3.57-2.77-3.32-3.1-3.93-2.25-4-2.19-2.65-3.92-3.77-2.82-4.27-2.15-3.44-3.25-4.77-1.32-3.39-3.36-3.85-2.73-4.44-1.61-4.15-2.2-5.26-1.32,5.11-2.57,4.46-2.1,4.98-1.48,4.9,1.72,4.68,1.98,3.32,3.16,4.23,1.9,3.63,2.72,3.12,3.45,3.3,3.21,4.54,1.41,3.31,3.21,3.86,2.4,3.64,2.73,4.66,1.17,3.15,3.49,3.5,2.96,4.88.78,2.87,3.96,4.44,1.45,4.23,1.77,3.43,3.07,4.03,2.1,3.7,2.63,3.94,2.25,4.14,1.9,2.95,3.91,4.26,1.7,3.91,2.29,3.56,2.9,4.44,1.4,3.78,2.52,3.57,2.9,4.29,1.68,3.97,2.46,3.75,2.79,3.55,3.04,3.11,3.49,4.28,2.55,1.7,4.61,2.96,3.71,2.47,4.1-.07,4.97,1.68,4.39.98,4.63.44,4.75-1.1,4.65-.46,4.74-1.72,4.43-1.47,4.51-2.51,4.03-3.27,3.51-2.33,4.01-2.3,3.84-2.32,3.83-1.79,4.19-2.49,3.72-3.4,3.09-1.67,4.26-2.47,3.74-3.13,3.28-1.68,4.27-3.22,3.23-2.69,3.59-2.56,3.68-2.94,3.44-1.54,4.38-2.54,4.54.46,5.24.36,5.15,1.99,4.62,2.66,3.47,3.1,3.09,3.7,2.99,4.68.43,4.6,1.35,4.58-2.09,4.77,1.25,4.59-.84,4.31-2.11,4.82.29,4.58-.88,1.09,1.55-2.94,3.65-3.78,2.8-4.27,1.95-4.2,2.18-4.53,1.4-4.76.11-4.64,1.29-4.74-.52-4.55-1.44-4.39-1.51-5.01.19-3.81-3-3.45-3.14ZM327.25,288.35l-3.7,2.8-4.14,2.2-4.43,1.6-4.62.88-4.72-.03-4.67,1.22-4.72-.67-4.65-1.08-4.13-2.44-1.81-4.21-1.74-4.15.1-4.66,1.59-4.5,3.37-3.33,2.85-3.68,2.37-4.02,1.47-4.61,3.02-3.56,2.72-3.78,2.83-3.69,2.89-3.66,3.08-3.54,2.95-3.62,1.53-4.6,2.29-4.09,2.84-3.72,3.36-3.24.96-4.66,2.1-3.97,2.4-3.9,1.98-4.15,1.38-4.39.47-4.58-1.27-4.66.77-4.47-.99-4.42.06-4.54-.82-4.45-2.13-4.03-1.96-4.01-1.03-4.59-2.08-4.13-3.63-2.96-3.84-2.57-2.73-3.67-3.08-3.51-4.04-2.44-4-2.45-4.11-2.27-3.94-2.56-4.11-2.28-4.4-1.83-4.15-2.24-3.96-2.53-3.56-3.2-3.88-2.7-4.07-2.34,1.51-4.36,3.03-3.63,2.21-4.09,3.51-3.23,1.6-4.54,2.46-3.98,4.09-2.68,1.85-4.54,2.97-3.63,4.25-2.35,3.73-2.79,2.69-3.96,3.68-2.85,4.11-2.25,3.84-2.59,3.53-3.14,4.37-1.7,3.79-2.9,4.78-.59,4.39-1.42,4.39-1.48,4.53-1.06,4.66-.04,4.62-1.22,4.58,1.49,4.8-.44,3.3,3.42,3.6,2.59,3.56,2.65,4.48,1.7,2.16,4.21,4.14,2.32,3.1,3.34,2.47,3.82,1.02,4.73,2.57,3.66,2.21,3.89,3.28,3.36,2.33,3.9,1.77,4.17,1.78,4.16,1.07,4.43.98,4.44,2.75,3.82.03,4.03-3.76-1.41-2.89-3.81-3.71-2.65-4.31-1.75-3.78-2.53-4.41-1.49-3.81-2.44-3.37-3.34-4.14-1.94-4.58-.83-4.23-1.59-3.97-2.59-4.59-.49h-4.6s-4.41-1.3-4.41-1.3l-4.54-.54-2.08,4.06.25,4.35,2.2,3.62-2.37,2.53-4.61.48-4.56.39-4.55-.19-4.64-.52-4.28,2.06-4.75-.24-4.08,2.22-4.04,2.07-4.37,1.56,1.15,3.44,4.43,1.94,4.63.62,4.63.67,4.31,2.12,4.89-.28,4.31,1.97,4.27,1.93,5-.14,4,2.65,4.68,1.06,3.17,3.96,5.03.83,2.55,4.28,3.01,3.38,2.46,3.78,2.18,4.31-.11,4.89-2.95,3.97-2.69.47-.72-4.31-1.46-4-2.65-3.37-3.18-2.91-2.25.66,1.09,4.78.63,4.87,1.35,4.74.41,4.93,2.46,4.54,1.71,2.26,3.67.57,2.92-3.17,3.27-2.73,3.62-2.3,3.04-3.54,1.89,5.3,1.04,4.9-2.45,4.51-1.52,4.46-.6,4.93-3.05,3.85-1.69,4.54-2.09,3.9-2.36,3.75-1.74,4.11-1.89,4.02-2.13,3.89-2.25,3.84-3.23,3.35,3.65,2.9,3.16,3.17,2.95,3.38,3.39,2.87,3.41,2.88,3.15,3.17,2.55,3.67,3.9,3.35-4.57,2.64-2.01,4.38-3.19,3.2-4.5,1.83-3.46,2.9-2.14,4.32-3.1,3.31-3.69,2.64-4.1,2.12-2.97,3.47-3.13,3.32-4.41,1.64-4.02,2.11-3.51,2.83ZM379.61,241.55l-3.72-3.69-2.8-4.05-3.61-3.32-3.57-3.32-3.43-3.49-3.11-3.72,2.25-3.71,2.3-3.74,1.44-4.22,2.96-3.37.82-4.59,3.77-2.9,2.13-3.85,1.99-3.93,1.72-4.09,2.35-4.42-.86-5.01,1.31-4.95-1.47-4.75-2.96-3.79-2.76-3.78-3.35-3.1-1.26-4.37-1.51-4.26-2.51-3.77-2-4.13-3.14-3.3-3.8-2.53-3.16-3.23-4.22-1.73-4.12-1.68-3.38-3.21-4.31-1.29-4.49-.65-3.81-2.64-4.53-.41.37-1.32,4.77-.72,4.82.13,4.78-.66,4.73-1.57,4.8-.44,2.61-2.09-.82-3.71-.84-3.7,1.83-1.87,4.66.19,3.63,3.12,4.64.38,4.07,1.87,4.06,1.89,4.1,1.82,3.79,2.42,4.26,1.58,3.16,3.4,4.22,1.73,3.77,2.46,3.3,3.06,3.52,2.82,3.39,3.02,1.33,4.45.86,4.35,2.21,4.38-.12,4.73.13,4.67-.86,4.65,1.33,4.72-.26,4.69-.56,4.67-.46,4.7-1.94,4.39-.85,4.61-2.37,4.17-1.33,4.45-.99,4.6-.84,4.71-2.17,4.18-1.9,4.29-3.72,3.34-.64,4.98-3.65,3.28-2.79,3.74-1.79,4.4-2.71,3.8-2.67,4.25Z"/>
          <path d="M325.31,279.08l-5.21,1.01-5.28-.63-4.4-2.69-1.64-4.89-.47-5.18.41-5.18,1.74-4.48,2.44-4.12,2.9-3.84,3.66-3.14,4.04-2.6,4.47-1.74,4.77-.45,4.66,1.15,3.71,3.05,2.41,3.98.75,4.61-.74,4.64-1.61,4.43-2.39,4.07-2.93,3.69-3.34,3.33-3.8,2.79-4.16,2.2ZM319.54,271.94l4.56-.61,4.31-1.64,3.81-2.62,3.02-3.49,2.17-4.06,1.05-4.47-2.3-.73-2.48,3.96-2.84,3.73-3.57,3.04-3.92,2.56-4.25,1.97.44,2.35Z"/>
          <path d="M187.1,162.69l3.71,1,1.24,4.55.93,4.67.25,4.77-.75,4.72.2,4.79-.97,4.68-.9,4.68-1.14,4.63-1.47,4.54-2.1,4.28-2.39,4.13-3.59,3.11-4.39,1.45-3.85-1.01-3.08-2.72-1.93-3.59,2.11-6.42-3.75-2.8-3.76,2.37-3.66,2.53-2.72-.48-2.45-3.6-2.43-3.72-.78-4.36-.36-4.39,2.36-4.21,2.73-3.92,2.84-3.87,3.12-3.66-.77-3.63-5.2-2.25-5.24-2.16-3.11-3.35-2.38-3.93-.46-4.59.98-4.38,1.35-4.21,2.06-3.89,1.76-4.04,1.61-4.09,2.27-3.81,1.35-4.23,2.11-3.89,2.42-3.97,3.69-2.78,4.17-1.92,4.47-1.37,4.71-.07,4.51,1.3,4.23,1.39,3.86,2.23,3.47,2.79,3.04,3.32,1.79,4.15.76,4.46.15,4.75.17,4.75,3.26,2.56.16,4.19-3.71,2.56-3.83,2.39-4.06,2.03-3.8,2.46-.46.46-3.12,3.31-3.07,3.38-2.93,3.51-3.21,3.24-3.38,3.09-3.12,3.33-3.08,3.38-3.23,3.25-2.99,3.48-.32,2.29-.17.06,3.74.58,3.21-3.75,3.56-3.46,3.09-3.85,3.38-3.62,3.21-3.77,2.87-4.07,3.66-2.88,3.57-2.9ZM157.38,136.29l1.48,2.99,3.17-.9.14-1,2.5-4.63,3.12-4.29,2.07-4.88-3.02-2.95-3.35,2.58-2.41,3.4-1.65,4.91-2.04,4.77Z"/>
          <polygon points="217.18 168.64 215.33 172.33 213.69 176.13 212.73 180.16 212.11 184.23 214.84 187.54 217.96 184.74 218.81 180.43 219.86 176.18 221.44 172.1 223.3 168.14 225.52 164.37 228.31 160.99 228.38 157.68 225.65 156.18 223.52 156.3 220.64 154.36 221.3 151.04 224.41 148.61 227.89 146.77 231.64 145.57 236.37 146.17 241.02 147.07 245.42 148.9 249.4 151.5 253.16 154.38 256.84 157.39 260.13 160.84 262.83 164.76 265.61 168.62 267.7 172.89 269.7 177.19 271.3 181.66 272.37 186.29 273.12 190.99 272.5 195.5 271.82 199.98 270.35 204.29 268.08 208.24 265.54 212.02 262.29 215.21 258.83 218.14 254.84 220.27 250.46 222.22 245.71 222.78 240.92 223.19 236.25 222.04 231.68 220.59 227.38 218.46 223.33 215.88 219.47 213.02 215.9 209.91 212.94 206.2 210 202.52 207.45 198.52 206.18 193.95 205.17 189.35 204.98 184.62 205.6 180.42 206.29 176.23 207.69 172.21 209.87 168.57 212.41 165.2 216.32 164.74 217.18 168.64"/>
          <polygon points="380.34 219.19 381.55 214.74 382.89 210.33 384.53 206 385.95 201.62 387.29 197.22 388.69 192.82 390.06 188.42 391.22 183.95 392.66 179.56 394.04 175.16 395.46 170.75 397.01 166.39 398.19 161.9 400.48 162.12 401.06 166.61 400.98 171.14 401.13 175.67 400.87 180.19 400.33 184.69 399.33 189.1 398.32 193.51 396.94 197.83 395.1 201.97 393.22 206.09 390.77 209.9 388.08 213.53 385.41 217.21 382.19 220.4 380.34 219.19"/>
          <path d="M242.92,92.23l-.39-5.09-.29-5.09-.46-5.09-.28-5.1,1.96-3.06,4.06-1.12,4.06-1.18,4.05-1.23,4.02-1.34,3.65,2.36.77,4.59.66,4.62.9,4.59.73,4.62-1.88,3.15-4.39,1.71-4.38,1.77-4.42,1.69-4.42,1.7-3.93-2.51ZM255.69,71.73l-4.4,3.66-2.96,4.85,2.01,3.13,3.32,1.62,3.46-2.57,2.22-3.67-.96-4.12-2.7-2.91Z"/>
        </g>
      </g>
      <g>
        <path class="cls-2" d="M501.54,553.19l-27.96-37.7,26.1-34.13c1.33-1.69,2.13-3.82,2.13-6.13,0-5.27-4.12-9.58-9.31-9.88-.19-.01-.39-.02-.58-.02-.17,0-.35,0-.52.01-.41.02-.81.07-1.21.14l-21.74,3.46c-2.49.4-4.74,1.73-6.28,3.73l-16.72,21.68v-10.18c-.02-2.89-1.29-5.64-3.49-7.52-1.8-1.54-4.08-2.36-6.42-2.36-.52,0-1.04.04-1.55.12l-17.82,2.83c-4.81.77-8.35,4.92-8.34,9.79v.47c-4.94-3.43-11.42-5.22-19-5.22h0c-2.87,0-5.93.25-9.08.76l-43.25,6.88c-4.81.77-8.35,4.92-8.34,9.79v3.69c-.14-.15-.29-.3-.44-.45-5.89-5.57-14.17-8.4-24.59-8.4-3.71,0-7.82.35-12.22,1.05-2.42.38-4.73.85-6.95,1.39l.29-6.41,8.72-.39c6.05-.27,12.68-4.58,15.42-10.01,2.3-4.58,1.98-10-.83-14.16-1.23-1.81-3.03-3.61-3.75-4.29-2.18-2.08-5.64-4.89-10.54-5.2l-8.59-.55-.32-7.63c-.21-4.93-2.95-8.8-5.21-11.18-3.58-3.76-7.77-5.75-12.13-5.75-3.51,0-6.85,1.3-9.4,3.67-1.47,1.36-2.84,3.18-3.36,3.9-1.51,2.09-3.28,4.97-3.61,8.75l-.68,7.76-9.68.43c-5.23.23-11.42,3.63-13.76,12.33-3.82-1.07-8.02-1.61-12.6-1.61-3.53,0-7.36.32-11.38.96-13.98,2.22-25.64,8.27-33.72,17.48-1.67,1.9-3.17,3.91-4.53,6.04-.89-1.31-1.82-2.4-2.71-3.3-5.18-5.19-12.87-7.93-22.24-7.93h0c-2.87,0-5.93.25-9.08.76l-43.25,6.88c-1.26.2-2.43.64-3.48,1.26-.7-.15-1.41-.24-2.13-.24-.52,0-1.04.04-1.55.12l-71.5,11.37C3.53,500.81-.01,504.96,0,509.83l.04,16.1c0,2.89,1.28,5.64,3.48,7.51,1.8,1.53,4.08,2.36,6.41,2.36.52,0,1.04-.04,1.55-.12l15.51-2.47v56.43c0,2.9,1.27,5.65,3.47,7.52,1.8,1.54,4.09,2.37,6.42,2.37.52,0,1.04-.04,1.55-.12l17.82-2.83c4.8-.76,8.34-4.91,8.34-9.77v-59.57l14.12-2.24.1,56.43c0,2.89,1.28,5.64,3.48,7.51,1.8,1.54,4.08,2.36,6.42,2.36.52,0,1.04-.04,1.55-.12l44.19-7.03c19.76-3.14,29.07-11.51,33.29-19.93,7.13,7.28,16.8,11.13,27.99,11.13,2.58,0,5.22-.21,7.86-.63,8.44-1.34,15.29-3.99,20.62-8.01,1.71,1.32,3.83,2.08,6.06,2.08.52,0,1.04-.04,1.56-.12l11.72-1.86c.26-.04.51-.1.77-.16l4.61.89.79,1.6c1.56,21.61,14.63,33.52,36.78,33.52,3.92,0,8.25-.37,12.85-1.1,12.98-2.06,22.65-6.15,29.55-12.5.21-.19.4-.39.61-.59.58,1.07,1.34,2.05,2.29,2.86,1.8,1.54,4.08,2.36,6.42,2.36.52,0,1.04-.04,1.55-.12l44.19-7.03c11.9-1.89,20.02-5.68,25.51-10.23.54.87,1.21,1.67,2.01,2.35,1.8,1.54,4.08,2.36,6.42,2.36.52,0,1.04-.04,1.55-.12l17.82-2.83c4.82-.77,8.36-4.93,8.34-9.81l-.07-17.48,3.92-5.03,16.64,22.36c1.88,2.53,4.84,3.99,7.94,3.99.52,0,1.04-.04,1.55-.12l19.57-3.11c3.42-.54,6.3-2.83,7.61-6.03,1.31-3.2.85-6.85-1.21-9.63Z"/>
        <g>
          <g>
            <path class="cls-1" d="M36.89,521.62l-26.96,4.29-.04-16.1,71.5-11.37.04,16.1-26.72,4.25v68.02s-17.82,2.83-17.82,2.83v-68.02Z"/>
            <path class="cls-1" d="M88.56,497.3l43.25-6.88c14.77-2.35,26.93,1.61,26.91,15.79l-.06,4.94c.04,7.81-5.3,15.02-14.26,17.65l.15.94c11.38-.25,16.47,5.31,16.48,14.44l.07,5.76c-.02,15.75-13.55,22.1-28.2,24.43l-44.19,7.03-.15-84.1ZM133.51,558.54c5.98-.95,8.93-5.03,8.87-9.94l-.06-2.63c-.04-4.8-2.85-8.08-8.94-7.11l-26.96,4.29.13,19.69,26.96-4.29ZM131.4,524.86c6.09-.97,8.84-4.89,8.83-9.46l.06-2.65c.06-4.94-2.87-7.48-8.85-6.52l-25.08,3.99.08,18.61,24.97-3.97Z"/>
            <path class="cls-1" d="M165.54,529.65l-.1-5.15c.04-28.49,15.91-43.51,38.65-47.13,23.21-3.69,35.85,4.76,37.5,25.76l-17.93,2.85-.08-2.03c-.64-8.55-5.72-12.55-18.85-10.46-14.18,2.26-20.47,10.34-20.48,25.37l-.12,10.59c-.01,15.02,7.14,21.46,20.26,19.37,13.83-2.2,20.17-7.65,21.05-20.29l-20.98,3.34-.02-13.7,37.39-5.95.15,44.8-11.72,1.86-3.49-10.62-.82.13c-3.6,9.1-10.8,14.46-23.93,16.54-18.4,2.93-36.48-6.46-36.5-35.3Z"/>
          </g>
          <g>
            <path class="cls-1" d="M300.78,556.21l-17.17.09c-15.47.18-22.65-8.66-22.93-20.27l-.02-3.12c-.36-14.36,10.46-24.14,31.79-27.53,22.97-3.65,33.94,3.38,35.25,22.16l-17.23,2.74-.2-2.01c-.48-6.77-5.27-9.74-16.06-8.02-11.72,1.86-16,5.91-15.94,10.83l-.07,1.81c-.02,5.17,3.05,7.09,10.15,7.16l18.36-.16c15.59-.2,23.24,7.12,23.25,19.26l.05,4.08c-.15,14.93-9.96,25.02-32.23,28.56-24.73,3.93-36.81-4-38.2-23.37l17.58-2.8.2,2.01c.64,8.55,6.79,10.94,18.62,9.06,11.72-1.86,16.2-5.46,16.26-11.12l.07-1.81c-.12-5.27-3.03-7.69-11.53-7.54Z"/>
            <path class="cls-1" d="M338.05,499.69l43.25-6.88c14.77-2.35,26.93,1.61,26.91,15.79l-.06,4.94c.04,7.81-5.3,15.02-14.26,17.65l.15.94c11.38-.25,16.47,5.31,16.48,14.44l.07,5.76c-.02,15.75-13.55,22.1-28.2,24.43l-44.19,7.03-.15-84.1ZM383,560.92c5.98-.95,8.93-5.03,8.87-9.94l-.06-2.63c-.04-4.8-2.85-8.08-8.94-7.11l-26.96,4.29.13,19.69,26.96-4.29ZM380.89,527.25c6.09-.97,8.84-4.89,8.83-9.46l.06-2.65c.06-4.94-2.87-7.48-8.85-6.52l-25.08,3.99.08,18.61,24.97-3.97Z"/>
            <path class="cls-1" d="M450.03,529.96l-.94.15-13.47,17.28.08,20.9-17.82,2.83-.15-84.1,17.82-2.83.05,38.09.94-.15,33.47-43.42,21.92-3.49-30.44,39.81.15.94,31.97,43.11-19.57,3.11-23.99-32.24Z"/>
          </g>
        </g>
        <path d="M244.49,477.11c-1.08-.06-4.39-1.71-5.15-2.06-1.15-.53.26-5.9,1.52-5.96l21.23-.94,1.68-19.28c.08-.95,2.09-3.47,2.79-4.11,1.05-.97,4.55,2.64,4.62,4.14l.82,19.48,20.43,1.31c1,.06,3.65,2.89,4.21,3.72.75,1.11-2.71,3.54-4.25,3.61l-20.77.93-.9,19.79c-.05,1.1-1.71,4.29-2.29,5.27s-5.6-.47-5.64-1.61l-.98-23.33-17.31-.96Z"/>
      </g>
    </g>
  </g>
</svg>