<?xml version="1.0" encoding="UTF-8"?>
<svg id="Layer_2" data-name="Layer 2" xmlns="http://www.w3.org/2000/svg" viewBox="0 0 209.78 139.28">
  <defs>
    <style>
      .cls-1 {
        fill: #fff;
      }
    </style>
  </defs>
  <g id="Layer_1-2" data-name="Layer 1">
    <g>
      <g>
        <path class="cls-1" d="M49.81,136.78c-1.61,0-3.08-.32-4.37-.95L4.97,116.04c-.86-.42-1.41-1.3-1.4-2.26l.33-53.7c-1.91-5.36-1.86-10.84.13-15.46.31-.71.93-1.24,1.68-1.43l40.76-10.37L164.71,2.58c.2-.05.41-.08.62-.08s.41.03.61.08l19.59,4.94c5.65,1.43,6.84,5.27,7.26,8.85.33,2.83-.51,4.93-1.18,6.62-.29.73-.57,1.42-.73,2.11-.9,3.83-.28,8.77.28,13.13.08.6.15,1.19.22,1.76,1.32,10.95,6.48,20.18,14.93,26.69.61.47.97,1.2.97,1.98l.02,11.6c0,2.4-1.6,5.41-4.27,6.29l-26.57,8.84c-.25.08-.52.13-.79.13-.07,0-.14,0-.21,0l-8.32-.71-3.9,4.74c-.3.37-.7.64-1.15.79l-47.25,15.53-62.62,20.67c-.12.04-.25.07-.38.09-.67.11-1.35.17-2,.17Z"/>
        <path class="cls-1" d="M165.33,5l19.59,4.94c3.84.97,4.96,3.11,5.38,6.72.38,3.3-1.25,5.27-1.86,7.87-1.14,4.81-.16,10.75.45,15.77,1.38,11.48,6.8,21.36,15.88,28.37l.02,11.6c0,1.47-1.06,3.42-2.56,3.92l-26.57,8.84-9.63-.82-4.74,5.75-47.25,15.53-62.62,20.67c-.53.09-1.06.13-1.6.13-1.14,0-2.28-.21-3.28-.7L6.07,113.79l.33-54.15c-1.73-4.6-1.98-9.63-.08-14.04l40.76-10.37L165.33,5M165.33,0c-.42,0-.83.05-1.24.16L45.84,30.39,5.09,40.75c-1.5.38-2.75,1.44-3.36,2.87-2.19,5.09-2.3,11.04-.34,16.87l-.33,53.27c-.01,1.92,1.08,3.68,2.8,4.52l40.47,19.79c1.64.8,3.48,1.21,5.47,1.21.79,0,1.6-.07,2.41-.2.26-.04.51-.1.76-.19l62.62-20.67,47.25-15.52c.9-.3,1.7-.84,2.3-1.57l3.07-3.73,7.01.6c.14.01.28.02.43.02.54,0,1.07-.09,1.58-.26l26.57-8.84c3.88-1.29,5.98-5.43,5.98-8.66l-.02-11.61c0-1.55-.72-3.01-1.95-3.95-7.9-6.09-12.73-14.74-13.97-25.01-.07-.58-.15-1.18-.22-1.78-.53-4.15-1.12-8.86-.32-12.24.12-.51.35-1.09.62-1.76.74-1.85,1.75-4.38,1.35-7.84-.45-3.84-1.88-9.16-9.13-10.99L166.55.15c-.4-.1-.81-.15-1.22-.15h0Z"/>
      </g>
      <g>
        <path d="M204.76,68.66c-9.08-7-14.5-16.89-15.88-28.37-.61-5.01-1.58-10.95-.45-15.77.61-2.6,2.25-4.57,1.86-7.87-.42-3.61-1.55-5.75-5.38-6.72l-19.59-4.94-118.24,30.23L6.32,45.6c-1.9,4.42-1.65,9.44.08,14.04l-.33,54.15,40.47,19.79c1.47.72,3.22.84,4.88.57l62.62-20.67,47.25-15.53,4.74-5.75,9.63.82,26.57-8.84c1.5-.5,2.56-2.45,2.56-3.92l-.02-11.6ZM186.94,14.6l.21,6.48-32.89,9.34.04-7.16,32.63-8.66ZM165.37,8.07l18.21,4.68-30.59,8.09-15.31-5.78,27.68-6.99ZM152,30.84l-37.16,10.45-.17-7.42,37-10,.33,6.96ZM134.05,16.13l15.49,5.47-36.02,9.91-16.29-6.11,36.82-9.27ZM112.44,42.08l-39.77,11.16-.09-7.71,39.78-10.84.08,7.39ZM93.63,26.45l15.93,6.06-38.28,10.61-17.18-6.66,39.53-10.02ZM70.19,53.89l-39.16,11.37-.02-8.26,38.89-10.88.28,7.77ZM50.8,37.36l17.17,6.54-37.57,10.63-18.42-7.11,38.82-10.06ZM15.91,52.02c1.51.28,2.45,1.11,2.94,2.18l3.27,7.99c-.8-.24-2.06-1.12-2.36-1.77l-3.85-8.4ZM18.61,60.7c-1.48-.33-2.51-1.28-2.97-2.47l-2.8-7.24,1.24-.12,4.53,9.83ZM19.71,53.36c.75.15,2.17.9,2.4,1.47l3.4,8.43-2.07-.87-3.72-9.02ZM23.3,54.65c2.02-.03,5.22,7.38,4.48,10.16l-4.48-10.16ZM26.49,55.95c1.79.61,2.57,1.92,1.51,3.77l-1.51-3.77ZM10.86,49.82l3.89,9.14c-.44.11-1.88-.5-2.12-1.04l-3.53-8.19,1.75.09ZM8.29,50.73l3.06,7.07c-3.9-.72-3.65-4.43-3.06-7.07ZM9.03,111.38l.34-3.5,1.93,5.12c-1.27-.48-2.33-.97-2.27-1.62ZM48.31,131.18l-31.55-15.43-6.9-15.29,5.09,14.32c-1.25-.3-2.39-1.79-2.93-3.18l-2.88-7.34c-.7-1.78.17-4.54,1.22-6.13-.12-.2-1.44-2.09-1.43-2.78l.36-35.09,19.2,7.49c-.62,11.46.87,22.16,5.47,32.44,3.26,7.65,7.92,13.97,14.43,19.18l-.08,11.82ZM30.91,67.83l73.85-20.86,39.31-11.04,40.75-11.21,1.49,18.78c1.71,9.91,6.44,18.49,13.97,25.48l-96.54,31.66-53.5,16.77c-14.59-12.07-19.76-30.91-19.33-49.56ZM201.69,81.16l-26.08,8.8c-2.21-1.53-4.65-2.5-7.35-2.16-5.23.65-6.73,6.83-9.57,7.76l-26.15,8.56-81.48,27.09.07-11.49,31.24-9.96,43.42-13.76,76.14-24.71-.23,9.88Z"/>
        <path d="M56.65,111.61c-2.94,1.05-5.38.4-7.71-.85,2.85-.28,5.23-.06,7.71.85Z"/>
        <rect x="149.69" y="78.07" width="3.74" height="1.32" transform="translate(-19.23 79.4) rotate(-27.67)"/>
        <path d="M189.42,70.57c-.22-.72-.38-1.81,0-1.94l2.1-.7-2.11,2.64Z"/>
        <path d="M42.41,48.7c-4.86,1.34-9.45,3.31-14.78,3.19,8.25-2.89,16.41-4.8,25.19-6.51-3.3,1.51-6.76,2.38-10.41,3.32Z"/>
        <polygon points="89.75 36.01 73 40.53 72.5 39.58 89.95 35.17 89.75 36.01"/>
        <path d="M127.88,24.93c-4.34,2.18-8.75,3.29-13.17,3.66,4.57-2.08,8.72-3.01,13.17-3.66Z"/>
        <path d="M139.66,21.77c-2.27,1.13-4.32,1.68-6.8,1.59,2.24-.88,4.36-1.44,6.8-1.59Z"/>
        <path d="M156.06,17.88c6.51-2.69,13.44-4.62,20.8-5.68-6.78,2.65-13.31,4.38-20.8,5.68Z"/>
      </g>
    </g>
  </g>
</svg>