<?xml version="1.0" encoding="UTF-8"?>
<svg id="Layer_2" data-name="Layer 2" xmlns="http://www.w3.org/2000/svg" viewBox="0 0 200.91 156.77">
  <defs>
    <style>
      .cls-1 {
        fill: #fff;
      }
    </style>
  </defs>
  <g id="Layer_1-2" data-name="Layer 1">
    <g>
      <g>
        <path class="cls-1" d="M52.64,154.27c-.19,0-.39-.02-.58-.07-10.69-2.55-20.75-5.73-30.02-8.79l-16.24-5.37c-.49-.16-.92-.48-1.23-.9-2.89-3.94-2.74-9.77.39-15.59l6.78-12.53c.02-11.49.34-20.4,1.05-29.65.16-1.94,1.83-4.86,3.82-5.91l57.14-30.27L137.99,12.93l20.66-10.18c.34-.17.72-.26,1.1-.26.12,0,.24,0,.36.03,6.21.9,11.48,2.02,16.6,3.52.54.16,1.01.5,1.34.96,1.1,1.56,2.42,4.37,2.72,6.36l3.51,22.78,13.03,16.13c.26.32.43.69.51,1.1.72,3.73.78,8.34.17,14.09-.08.77-.51,1.46-1.17,1.87l-32.83,20.25c-.4.24-.85.37-1.31.37-.05,0-.1,0-.15,0l-5.68-.34c-.13,0-.25-.01-.37-.01q-1.03,0-1.53,1.85c-.46,1.7-1.16,4.27-3.83,5.89l-20.43,12.33-20.68,12.03c-.38.22-.82.34-1.26.34-.11,0-.22,0-.34-.02l-4.77-.65c-.44-.06-.91-.09-1.35-.09-.93,0-1.42.14-1.53.19-.66.47-.82,1.02-1.07,2.48-.3,1.71-.75,4.28-3.67,5.94l-26.99,15.33-15.14,8.72c-.38.22-.81.33-1.25.33Z"/>
        <path class="cls-1" d="M159.76,5c5.69.83,10.92,1.88,16.25,3.45.94,1.34,2.06,3.77,2.29,5.29l3.61,23.45,13.45,16.66c.8,4.14.6,9.01.14,13.35l-32.83,20.25-5.68-.34c-.18-.01-.35-.02-.52-.02-5.3,0-2.57,5.63-6.66,8.1l-20.43,12.33-20.64,12.01-4.77-.65c-.54-.07-1.12-.11-1.69-.11-1.17,0-2.29.17-2.91.61-3.36,2.35-.92,6.24-4.59,8.32l-26.99,15.33-15.16,8.73c-10.16-2.42-19.79-5.42-29.82-8.73l-16.24-5.37c-2.76-3.77-1.5-9.07.57-12.93l7.08-13.08c.01-10.46.25-19.8,1.04-30.1.1-1.21,1.36-3.3,2.49-3.89l57.14-30.28L139.11,15.17l20.64-10.17M159.76,0c-.76,0-1.52.17-2.21.51l-20.64,10.17-64.24,32.24s-.07.03-.1.05l-57.14,30.28c-2.89,1.52-4.92,5.28-5.14,7.89-.7,9.19-1.02,17.99-1.06,29.25l-6.48,11.97c-3.61,6.7-3.68,13.53-.21,18.26.61.84,1.48,1.46,2.46,1.79l16.24,5.37c9.33,3.08,19.44,6.28,30.23,8.85.38.09.77.14,1.16.14.87,0,1.73-.23,2.5-.67l15.16-8.73,26.97-15.32c3.94-2.24,4.56-5.78,4.89-7.68.03-.19.07-.4.11-.6,0,0,.02,0,.03,0,.34,0,.69.02,1.03.07l4.75.65c.22.03.45.05.67.05.88,0,1.75-.23,2.52-.68l20.64-12.01s.05-.03.07-.04l20.43-12.33c3.51-2.12,4.41-5.37,4.95-7.33l5.02.3c.1,0,.2,0,.3,0,.92,0,1.83-.26,2.62-.74l32.83-20.25c1.32-.81,2.19-2.19,2.35-3.73.63-6,.57-10.85-.2-14.83-.16-.8-.51-1.55-1.02-2.19l-12.61-15.61-3.41-22.12c-.37-2.45-1.86-5.59-3.15-7.41-.65-.92-1.59-1.6-2.68-1.92-5.23-1.54-10.61-2.68-16.94-3.6-.24-.03-.48-.05-.72-.05h0Z"/>
      </g>
      <g>
        <path d="M103.98,118.89c-1.65-.22-3.68-.15-4.6.49-3.36,2.36-.92,6.24-4.59,8.33l-27,15.34-15.15,8.72c-10.16-2.41-19.8-5.41-29.82-8.72l-16.25-5.37c-2.76-3.77-1.5-9.08.58-12.93l7.07-13.08c.01-10.47.26-19.8,1.05-30.1.09-1.21,1.35-3.29,2.49-3.9l57.13-30.27L139.11,15.17l20.64-10.17c5.69.83,10.92,1.89,16.26,3.45.94,1.33,2.06,3.77,2.29,5.29l3.61,23.45,13.46,16.66c.81,4.14.6,9.01.14,13.35l-32.83,20.25-5.68-.35c-5.99-.37-2.96,5.53-7.18,8.08l-20.42,12.33-20.65,12.01-4.77-.64ZM33.12,82.62l33.9-17.41,34.76-19.4L170.02,10.86l-10.17-2.22-44.57,22.23-44.23,22.4-49.65,25.84c4.61,1.11,8.26,2.16,11.72,3.53ZM103.14,107.23l71.87-42.18,16.53-10.28-11.99-15.25c-1.67-2.13-1.96-6.3-2.37-9.11l-2.84-18.14-42.84,21.63c-19.15,9.67-37.44,19.36-56.14,29.92-13.48,7.61-27.29,13.95-41.24,20.8l4.17,32.53,13.86,19.5,50.99-29.41ZM108.99,115.24c8.8-4.73,17.33-9.95,26.07-15.23l13.79-8.34,1.29-5.06c5.14-4.02,9.71-8.08,13.33-3.94l28.88-17.68v-6.97s-26.47,15.92-26.47,15.92l-69.91,40.32-43,24.34.53,8.81,17.55-10.12,22.52-12.85,1.76-6c6.45-4.08,11.34-8.86,13.66-3.22ZM50.15,147.75l-.2-8.2-14.83-20.81-3.99-33.28c-4.52-1.63-8.15-2.6-12.76-3.49l-1.01,30.21-8.34,16.48c-.82,1.63-.45,4.93-.08,6.54l18.73,5.81,22.49,6.74Z"/>
        <rect x="92.21" y="71.62" width="54.11" height="2.36" transform="translate(-20.35 67.31) rotate(-29.15)"/>
        <rect x="41.77" y="101.86" width="45.05" height="2.43" transform="translate(-42.1 44.44) rotate(-29.19)"/>
        <path d="M175.82,42.04c-6.72,4-12.79,8.21-20.58,10.68,5.34-5.48,12.09-7.73,18.45-11.57l2.12.89Z"/>
        <rect x="76.66" y="72.02" width="7.5" height="2.01" transform="translate(-10.7 132.17) rotate(-75.23)"/>
        <path d="M160.56,28.64c-.4-.86.88-3.47,1.78-3.37,1.96.69-.11,4.56-1.78,3.37Z"/>
        <rect x="42.88" y="87.67" width="4.38" height="1.91" transform="translate(-54.14 82.02) rotate(-59.23)"/>
        <rect x="82.52" y="69.65" width="4" height="1.84" transform="translate(-2.58 137.93) rotate(-77.58)"/>
        <path d="M126.81,84.6c-1.46,2.43-4.12.89-3.86-1.29.66.01,2.56.67,3.86,1.29Z"/>
        <rect x="127.21" y="80.25" width="2.01" height="3.07" transform="translate(19.4 188.02) rotate(-76.85)"/>
        <path d="M47.82,93.09c-2.19-1.02-1.03-3.63,1.06-3.49l-1.06,3.49Z"/>
        <circle cx="169.5" cy="60.55" r="1.17"/>
        <rect x="140.35" y="46.48" width="2.6" height="2.15" transform="translate(-5.16 75.39) rotate(-29.29)"/>
        <rect x="65.68" y="115.91" width="1.96" height="2.63" transform="translate(-54.13 57.27) rotate(-33.97)"/>
        <rect x="166.22" y="22.81" width="2.49" height="1.79" transform="translate(78.98 167.84) rotate(-66.51)"/>
        <path d="M38.43,140.55c-1.49-.74-2.67-3.12-2.57-5.29,2.13.62,3.55,2.37,2.57,5.29Z"/>
        <circle cx="15.7" cy="123.24" r="1.43"/>
        <rect x="23.18" y="95.55" width="2.45" height="1.86" transform="translate(-10.08 3.13) rotate(-6.08)"/>
        <path d="M24.54,100.83l-1.74.51c-.27.08-.56-1-.34-1.17l1.32-1c.24-.19,1.24.06,1.54.12s-.48,1.45-.79,1.54Z"/>
        <circle cx="19.25" cy="123.74" r=".98"/>
        <path d="M39.88,136.57c-.01-.27,1.3.01,1.29.28l-.04,1.36c0,.27-1.14.66-1.16.39l-.1-2.03Z"/>
        <path d="M149.65,17.89c-.29-.3.24-1.98.82-2.11l2.56-.57c-.4,1.93-1.59,2.61-3.38,2.68Z"/>
        <rect x="41.15" y="71.28" width="3.17" height="1.82" transform="translate(-7.02 4.65) rotate(-5.75)"/>
      </g>
    </g>
  </g>
</svg>