<?xml version="1.0" encoding="UTF-8"?>
<svg id="Layer_2" data-name="Layer 2" xmlns="http://www.w3.org/2000/svg" viewBox="0 0 192.25 122.18">
  <defs>
    <style>
      .cls-1 {
        fill: #fff;
      }
    </style>
  </defs>
  <g id="Layer_1-2" data-name="Layer 1">
    <g>
      <g>
        <g>
          <path class="cls-1" d="M19.13,108.51c-2.47,0-4.45-1.1-5.16-2.88-.63-1.54-.3-3.48.91-5.3,1-1.51,2.8-3.13,4.85-3.16h0c2,0,3.8,1.16,4.8,3.02,1.04,1.96.97,4.25-.18,5.97-.99,1.47-2.94,2.35-5.22,2.35Z"/>
          <path class="cls-1" d="M19.8,99.66c2.2,0,3.82,3.09,2.47,5.1-.55.82-1.87,1.25-3.14,1.25s-2.48-.42-2.84-1.31c-.73-1.8,1.71-5.01,3.47-5.04.01,0,.03,0,.04,0M19.8,94.66h0s-.1,0-.12,0c-2.55.04-5.13,1.64-6.88,4.28-1.67,2.52-2.08,5.31-1.13,7.64,1.08,2.72,3.95,4.42,7.47,4.42,3.12,0,5.84-1.29,7.3-3.46,1.67-2.49,1.79-5.76.31-8.54-1.43-2.68-4.09-4.35-6.93-4.35h0Z"/>
        </g>
        <g>
          <path class="cls-1" d="M13.01,98.69c-1.58,0-3.77-.57-5.24-3.27-.35-.64-.4-1.39-.14-2.07.25-.68.79-1.21,1.47-1.47l4.56-1.7c.33-.12.7-.19,1.08-.19,1.46,0,3.38,1.06,4.09,2.28.24.39.65,1.34.19,2.64-.43,1.23-1.69,2.77-3.04,3.23-1.12.37-2.08.54-2.97.54Z"/>
          <path class="cls-1" d="M14.74,92.49c.6,0,1.68.6,1.94,1.05.31.49-.82,2.01-1.5,2.24-.77.25-1.5.41-2.17.41-1.22,0-2.26-.53-3.04-1.97l4.56-1.7c.06-.02.13-.03.21-.03M14.74,87.49c-.68,0-1.34.12-1.96.35l-4.55,1.69c-1.36.51-2.43,1.57-2.94,2.93s-.4,2.87.29,4.14c1.61,2.95,4.24,4.58,7.43,4.58,1.16,0,2.38-.22,3.73-.66,2.32-.79,4.02-3.02,4.64-4.78.59-1.68.42-3.46-.47-4.87,0,0,0,0,0,0,0,0,0,0,0,0-1.2-1.91-3.88-3.38-6.17-3.38h0Z"/>
        </g>
        <g>
          <path class="cls-1" d="M106.64,111.95c-6.23,0-12.54-1.21-18.76-3.6-6.82-2.62-11.19-5.69-14.6-10.25-.1-.14-.19-.29-.26-.44l-.86-1.84c-9.46,7.5-21.06,11.7-33.04,11.89h-.32c-7,0-13.32-3.57-17.35-9.81l-6.56-10.16c-3.64-5.63-3.25-12.45,1.08-19.22l3.46-7.63c2.67-5.92,8.66-10.04,11.12-11.54,3.97-2.43,8.3-3.65,12.48-4.83,1.3-.37,2.63-.74,3.94-1.15-.04-4.16,1.4-7.98,4.21-11.16,5.53-6.25,16.31-9.98,28.85-9.98,6.08,0,11.92.93,16.74,2.63,4.41-9.9,12.13-17.19,21.98-20.67,3.18-1.13,6.45-1.71,9.71-1.71,5.6,0,11.05,1.66,16.21,4.92.07.04.13.09.19.14,7.74,6,12.45,11.1,15.27,16.53,3.25,6.28,3.94,13.03,2.09,20.6,10.51,4.57,17.73,10.13,22.62,17.39,4.35,6.46,5.84,12.68,4.32,17.99-1.92,6.76-5.36,13.42-9.95,19.26-3.6,4.59-9.57,7.02-17.25,7.02s-17.43-2.79-24.67-7.23c-2.33,2.95-4.7,5.08-7.35,6.59-7.21,4.14-15.05,6.24-23.31,6.24Z"/>
          <path class="cls-1" d="M128.47,5c5.17,0,10.21,1.58,14.87,4.53,12.62,9.78,20.95,19.9,15.9,36.61,9.38,3.82,17.92,9,23.54,17.33,3.07,4.56,5.57,10.39,3.99,15.9-1.89,6.66-5.27,13.01-9.51,18.41-3.37,4.29-9.01,6.06-15.28,6.06-8.62,0-18.45-3.34-25.28-8.11-2.29,3.27-4.79,5.98-7.98,7.8-6.93,3.98-14.42,5.91-22.06,5.91-5.93,0-11.95-1.16-17.86-3.43-5.55-2.13-10.01-4.76-13.5-9.41l-2.24-4.79c-9.23,8.27-21.26,13.2-33.96,13.41-.09,0-.19,0-.28,0-6.5,0-11.91-3.51-15.25-8.67l-6.56-10.16c-3.52-5.45-2.15-11.54,1.18-16.66l3.53-7.8c1.89-4.19,6.14-8,10.14-10.44,5.42-3.32,11.65-4.23,17.74-6.35-1.7-13.88,14.66-20.41,30.44-20.41,6.6,0,13.09,1.14,18.11,3.37,3.78-10.01,11.26-17.95,21.44-21.54,2.97-1.06,5.94-1.56,8.87-1.57M128.47,0h0c-3.54,0-7.09.62-10.55,1.85-9.81,3.47-17.65,10.48-22.46,19.97-4.63-1.36-9.94-2.08-15.42-2.08-13.24,0-24.72,4.05-30.72,10.82-2.8,3.17-4.42,6.89-4.77,10.94-.72.21-1.45.42-2.19.63-4.34,1.23-8.84,2.5-13.11,5.11-2.65,1.62-9.14,6.09-12.09,12.65l-3.38,7.46c-4.73,7.48-5.09,15.4-.98,21.77l6.55,10.15c4.5,6.96,11.59,10.95,19.45,10.95.12,0,.24,0,.36,0,11.52-.19,22.71-3.91,32.12-10.61,4.7,6.27,10.86,9.21,15.7,11.07,6.51,2.5,13.12,3.76,19.66,3.76,8.7,0,16.96-2.21,24.56-6.58,2.39-1.37,4.57-3.17,6.66-5.53,7.35,4.07,16.22,6.5,24.11,6.5,8.47,0,15.12-2.76,19.21-7.97,4.79-6.1,8.38-13.06,10.39-20.13,1.73-6.03.12-12.97-4.65-20.06-4.87-7.22-11.87-12.83-21.82-17.44,3.39-17.59-6.89-28.5-18.71-37.66-.12-.1-.25-.19-.39-.27-5.56-3.52-11.46-5.31-17.54-5.31h0Z"/>
        </g>
        <g>
          <path class="cls-1" d="M69.69,109.41c-.4,0-.78-.04-1.12-.12-2.19-.51-4.65-3.26-4.55-6.05.1-2.92,3.92-4.51,5.86-4.51,1.64,0,3.45.8,4.62,2.02,1.1,1.16,1.64,2.62,1.57,4.23-.15,3.13-4.22,4.42-6.37,4.42Z"/>
          <path class="cls-1" d="M69.87,101.23h0c1.38,0,3.81,1.15,3.69,3.64-.05,1.16-2.42,2.04-3.88,2.04-.21,0-.4-.02-.56-.06-1.11-.26-2.67-2.01-2.62-3.53.04-1.04,2.32-2.1,3.36-2.1M69.88,96.23h-.01c-2.91,0-8.2,2.31-8.36,6.92-.13,3.74,2.9,7.74,6.49,8.57.53.12,1.1.18,1.69.18,1.48,0,3.15-.38,4.58-1.05,3.71-1.73,4.23-4.6,4.29-5.75.11-2.28-.69-4.44-2.26-6.08-1.64-1.72-4.1-2.8-6.42-2.8h0Z"/>
        </g>
        <g>
          <path class="cls-1" d="M140.09,110.83c-2.12,0-5.65-.85-6.7-3.21-.57-1.28-.45-2.7.33-3.91.99-1.53,3.02-2.6,4.94-2.6.34,0,.67.03.98.1,1.73.38,3.46,1.81,4.28,3.55.69,1.45.7,2.97.03,4.27-.13.27-.32.51-.54.71-.78.72-1.9,1.08-3.33,1.08Z"/>
          <path class="cls-1" d="M138.66,103.62c.16,0,.31.01.45.05,1.56.34,3.49,2.54,2.62,4.25-.32.29-.92.42-1.64.42-1.69,0-3.97-.72-4.41-1.73-.71-1.6,1.45-2.99,2.98-2.99M138.66,98.62h0c-2.76,0-5.58,1.5-7.03,3.74-1.25,1.93-1.44,4.22-.52,6.29,1.65,3.7,6.42,4.69,8.98,4.69,2.08,0,3.77-.58,5.02-1.74.44-.4.8-.88,1.07-1.42,1.01-1.98,1.01-4.35,0-6.48-1.16-2.45-3.52-4.38-6.01-4.92-.49-.11-1-.16-1.52-.16h0Z"/>
        </g>
        <g>
          <path class="cls-1" d="M60.11,115.58c-1.29,0-4.36-.78-5.02-3.09-.59-2.04,1.04-4.93,2.74-5.76.71-.35,1.98-.73,3.08-.73.84,0,1.55.22,2.12.64,1.02.76,2.23,2.51,2.59,3.73.23.77.12,1.61-.31,2.34-1,1.71-3.67,2.63-4.34,2.78-.27.06-.56.09-.86.09Z"/>
          <path class="cls-1" d="M60.9,108.49c.26,0,.49.04.63.15.59.44,1.48,1.72,1.69,2.43.21.71-1.92,1.78-2.81,1.98-.09.02-.18.03-.29.03-.88,0-2.43-.61-2.62-1.29-.22-.76.71-2.47,1.44-2.83.46-.22,1.33-.47,1.97-.47M60.9,103.49h0c-1.61,0-3.26.53-4.18.99-2.65,1.31-4.99,5.39-4.03,8.7,1.03,3.57,5.1,4.9,7.43,4.9.49,0,.97-.05,1.42-.16.04,0,4.2-1,5.93-3.95.78-1.33.98-2.86.56-4.3-.51-1.74-2.05-3.95-3.5-5.04-1.01-.75-2.23-1.14-3.62-1.14h0Z"/>
        </g>
        <g>
          <path class="cls-1" d="M7.99,108.85c-.22,0-.43-.02-.63-.06-1.31-.24-3.31-1.41-4.26-2.88-.71-1.1-.67-2.07-.52-2.7.57-1.99,2.46-3.21,4.86-3.21s4.54,1.28,5.23,3.26c.38,1.06.17,2.26-.55,3.29-.81,1.14-2.49,2.29-4.13,2.29Z"/>
          <path class="cls-1" d="M7.45,102.5c1.22,0,2.5.52,2.87,1.59.34.97-1.35,2.26-2.33,2.26-.06,0-.12,0-.17-.01-.97-.18-3.04-1.58-2.8-2.52.25-.87,1.31-1.31,2.43-1.31M7.45,97.5h0c-3.54,0-6.38,1.94-7.24,4.93-.02.06-.03.12-.05.18-.39,1.56-.09,3.21.84,4.65,1.23,1.9,3.71,3.57,5.9,3.98.35.07.72.1,1.08.1,2.63,0,4.99-1.68,6.17-3.35,1.2-1.7,1.52-3.73.87-5.57-1.05-3-4.03-4.93-7.59-4.93h0Z"/>
        </g>
        <g>
          <path class="cls-1" d="M140.39,119.68c-2.12,0-3.85-1.73-3.85-3.85s1.73-3.85,3.85-3.85,3.85,1.73,3.85,3.85-1.73,3.85-3.85,3.85Z"/>
          <path class="cls-1" d="M140.39,114.48c.75,0,1.35.61,1.35,1.35s-.61,1.35-1.35,1.35-1.35-.61-1.35-1.35.61-1.35,1.35-1.35M140.39,109.48c-3.5,0-6.35,2.85-6.35,6.35s2.85,6.35,6.35,6.35,6.35-2.85,6.35-6.35-2.85-6.35-6.35-6.35h0Z"/>
        </g>
        <g>
          <path class="cls-1" d="M75.94,114.29c-2.24,0-3.24-2.59-3.43-3.59-.33-1.68.57-2.85,1.6-3.27.46-.19,1.47-.5,2.35-.5.57,0,1.08.13,1.52.38,1.15.65,2.02,2.22,1.98,3.58-.03,1.1-.62,2.03-1.56,2.5l-1.28.63c-.34.17-.8.28-1.18.28Z"/>
          <path class="cls-1" d="M76.46,109.43c.12,0,.23.02.29.05.44.25,1,1.43.54,1.66l-1.28.63s-.05.02-.07.02c-.47,0-1.31-1.87-.89-2.04.34-.14,1-.32,1.41-.32M76.46,104.43h0c-1.53,0-3.01.57-3.29.69-2.34.95-3.63,3.44-3.11,6.06.53,2.7,2.59,5.61,5.89,5.61.79,0,1.58-.18,2.29-.53l1.28-.63c1.77-.87,2.9-2.66,2.95-4.67.06-2.27-1.3-4.72-3.25-5.82-.82-.47-1.75-.7-2.75-.7h0Z"/>
        </g>
        <g>
          <path class="cls-1" d="M150.36,112.43c-1.9,0-3.48-2.05-3.63-3.43-.14-1.36.75-2.6,2.08-2.88l1.93-.41c.17-.04.37-.06.54-.06,1.69,0,2.71,1.47,2.97,2.92.3,1.67-.62,2.81-1.67,3.21l-1.27.47c-.28.1-.66.17-.96.17Z"/>
          <path class="cls-1" d="M151.29,108.15c.31,0,.72,1.17.43,1.28l-1.27.47s-.05.01-.08.01c-.49,0-1.47-1.27-1.03-1.36l1.93-.41s.02,0,.02,0M151.29,103.15c-.34,0-.71.04-1.05.11l-1.94.41c-2.59.54-4.33,2.94-4.05,5.58.28,2.68,2.95,5.67,6.11,5.67.63,0,1.24-.11,1.83-.33l1.27-.47c2.39-.89,3.73-3.36,3.26-5.99-.53-2.93-2.76-4.98-5.43-4.98h0Z"/>
        </g>
        <g>
          <path class="cls-1" d="M132.78,114.02c-1.8,0-3.44-1.87-3.61-3.42-.14-1.37.76-2.61,2.09-2.89l1.9-.4c.17-.04.37-.06.54-.06,1.69,0,2.72,1.47,2.98,2.92.3,1.66-.62,2.8-1.67,3.19l-1.28.48c-.28.1-.66.17-.96.17Z"/>
          <path class="cls-1" d="M133.71,109.75c.31,0,.74,1.17.44,1.28l-1.28.48s-.05.01-.08.01c-.49,0-1.46-1.27-1-1.37l1.9-.4s.02,0,.02,0M133.71,104.75h0c-.34,0-.71.04-1.04.11l-1.9.4c-2.59.54-4.34,2.95-4.07,5.6.28,2.68,2.85,5.67,6.09,5.67.63,0,1.25-.11,1.83-.33l1.28-.48c2.39-.89,3.73-3.35,3.25-5.98-.53-2.93-2.77-4.98-5.44-4.98h0Z"/>
        </g>
      </g>
      <g>
        <path d="M88.78,106.02c-5.56-2.13-10.02-4.76-13.5-9.41l-2.23-4.8c-9.23,8.28-21.26,13.21-33.96,13.41-6.63.11-12.16-3.43-15.53-8.66l-6.56-10.16c-3.52-5.45-2.14-11.54,1.19-16.66l3.53-7.8c1.89-4.19,6.15-8,10.15-10.44,5.42-3.31,11.65-4.23,17.74-6.35-2.42-19.68,31.51-24.59,48.55-17.04,3.77-10.01,11.26-17.94,21.44-21.55,8.2-2.91,16.43-1.65,23.74,2.97,12.62,9.79,20.96,19.9,15.9,36.61,9.38,3.82,17.93,9,23.54,17.34,3.07,4.56,5.56,10.39,3.99,15.9-1.9,6.66-5.28,13-9.52,18.4-8,10.18-28.78,6.19-40.55-2.05-2.3,3.27-4.8,5.98-7.98,7.81-12.31,7.08-26.39,7.68-39.93,2.48ZM106.55,53.34c-2.96-11.49-.47-21.93,7.2-30.48,6.56-7.29,16.96-11.4,27.63-10.1-10.26-8.04-23.24-4.98-32.72,4.45-9.87,9.82-12.23,25.88-2.11,36.12ZM132.92,18.08c7.82-1.21,13.71,1.42,18.28,6.45,7.1,7.82,2.73,18.02,4.1,20.48,1.51,2.71,6.39-13.11-3.28-22.97-5.55-5.66-13.55-7.64-21.61-5.54-15.35,3.99-25.39,19.62-21.2,35.01.28,1.02.72,2.15,1.15,2.61s2.26.48,2.87.43c-1.09-2.37-2.36-4.9-2.61-7.54-1.33-13.94,8.28-26.75,22.32-28.93ZM118.11,40.57c1.05-7.24,6.31-12.83,12.82-14.63,5.19-1.44,10.51-.13,13.82,3.34,3.37,3.53,4.27,8.44,3.2,13.76.26.25,2.53.71,3.36.61s1.1-2.27,1.28-3.37c1.53-9.17-3.78-17.93-13.24-19.54-10.41-1.77-20.1,4.66-24.27,14.05-3.14,7.06-2.71,14.79,2.32,20.7l7.08,2.29,1.02-2.22c-5.39-2.94-8.35-8.37-7.39-14.99ZM61.77,32.94c11.47-5.8,23.63-4.71,35.9-.42-3.91-4.23-9.89-3.66-15.13-4.64l-6.91.02c-8.92.02-25.43,6.32-23.05,16.32l2.78-.5c-.55-5.05,2.04-8.57,6.41-10.78ZM127.86,32.92c4.06-3.27,8.81-3.19,12.3-.69,3.64,2.6,3.87,6.47,3.89,11.79,2.68-3.4,1.84-8.59-.51-11.86-2.21-3.08-6.61-4.57-10.92-3.67-6.63,1.38-11.65,7.35-11.82,14.19-.11,4.73,2.49,10.16,7.67,10.14-3.32-3.61-5.86-6.31-5.59-10.54.2-3.16,2.05-7,4.97-9.36ZM95.54,42.24c-.07,1.85-1.89,4.16-3.68,5.27-6.07,3.77-12.38,2.15-19.31,2.96,8.73,3.66,18.37,1.06,26.04-2.73-1.18-4.28-1.77-7.43-1.69-12.03-10.92-6.03-24.94-5.76-35.96.77-2.46,1.46-3.63,4.22-3.63,6.92l8.01.99c-1.67-4.08.51-7.87,4.45-9.52,11.01-4.6,26.07-.89,25.76,7.36ZM135.65,33.66c-5.51-1.24-10.73,4.74-9.63,10.95,5.31-.56,9.61-4.36,9.63-10.95ZM130.05,48.02l9.77-4.79c2.76-1.35,1.51-7.53-1.55-8.52.03,5.69-3.52,9.95-8.8,12.39-1.13.91-.64,1.25.58.92ZM84.59,35.61l-9.69.27,9.3.52.39-.79ZM85.09,36.19l-.4.41c1.51.55,4.12,1.68,5.26,3.06,2.98,3.6-4.99,8.45-17.34,5.39-1.38-.34-3.8-3.16-3.04-4.21l2.99-4.18-5.17,2.56c-.49,1.98-.1,4.49,1.59,5.41,12.58,6.88,26.4-.03,24.06-4.05-1.56-2.68-5.3-4.34-7.95-4.39ZM44.88,49.65c-4.3,1.14-10.12,2.36-13.83,5.85-3.15,2.96-6.86,6.54-8.49,10.57l-3.19,7.89c-1.6,3.96-1.94,7.01.15,10.17,4.22,6.39,15.36,5.84,23.44,3.16,16.72-5.54,34.64-23.89,27.44-35.37-4.62-7.36-16.12-5.42-24.92-2.48l.4.51,12.23-1.5c3.55-.44,7.61,2.23,9.27,4.62,2.18,3.12,2.19,7.51.19,10.97-2.36,4.07-5.03,8.23-8.33,11.61-6.96,7.12-16.75,10.24-26.52,11.07-4.05.34-7.16-1.21-9-4.86l-3.68.44,1.47-7.45c1.66-8.41,6.96-14.8,13.93-20.61,2.43-2.02,6.75-2.73,9.56-3.91l-.12-.67ZM179.96,80.1c-10.53,12.96-49.63-6.34-46.64-24.62.58-3.52,3.84-5.74,6.95-6.63,7.79-2.23,14.23.39,22.55,2.52-7.16-3.93-14.81-6.03-23.94-4.14-6.26,1.29-9.87,6.85-7.93,13.07,1.65,5.28,5.18,10.14,9.55,13.58,10.37,8.17,26.17,15.77,37.89,10.79,4.94-2.1,7.19-6.93,5.62-12.02-2.14-6.93-6.66-12.88-13.16-16.57,3.47,4.26,7.4,7.36,9.6,12.1,1.7,3.69,2.31,8.49-.48,11.92ZM85.21,55.78c6.34-.54,14.56-2.39,15.37-4.6.14-.39-.82-1.37-1.18-1.17l-1.2.67c-7.09,3.97-14.65,4.03-22.67,4.2,2.75,2.41,6.12,1.2,9.68.9ZM141.89,51.15c-2.27.45-5,2.14-5.66,3.8s-.69,5.25.31,7.02c10.42,18.36,36.2,24.57,41.95,15.81,5.94-9.05-16.74-30.6-36.6-26.63ZM55.15,53.58c-1.28-2.02-3.8-1.59-4.85-.08.94.8,4.74,1.1,4.85.08ZM63.7,58.81c.88-.33,2.18-2.36,1.71-3.01s-2.08-1.32-3.3-1.35c-1.44-.04-2.72,2.37-2.24,3.69.32.89,2.03,1.35,3.83.68ZM40.8,56.53c-2.26-.86-4.14.74-4.1,2.96l4.1-2.96ZM57.29,59.52c-2.37-4.76-17.53-2.6-24.47,8.06-1.59,2.44-2.28,7.94,1.22,8.85,13.03,3.4,26.08-11.24,23.25-16.91ZM122.81,61.42l-.45-1.32c-6.92-2.27-13.61-3.79-20.63-2.77-7.25.83-13.75,2.47-19.8,6.74-.14,0-.43,2.28,0,2.03l1.96-1.16c22.36-13.2,39.78-1.07,38.93-3.53ZM83.19,59.35l-4.94.06c.3.69,1.43,2.76,1.92,2.37l3.02-2.42ZM125.13,79.65l3.51,5.33c8.38,8.91,19.54,14.93,31.86,15.78,5.49.38,12.19-.95,14.93-5.59l4.5-7.64c-14.78,4.57-29.23-1.32-40.99-10.5-5.74-4.48-9.04-10.38-11.49-18l-4.43,9.47c-1.37,2.92.71,7.72,1.82,10.14.86-.73,1.89-1.74,2.33-1.41l1.65,1.26c.7.53,1.91,1.31,2.57,1.57.72.28,4.99-3.47,7.18-1.24.47.48-.72,2.4-1.39,2.42l-2.39.07c-3.41.26-5.32-.25-9.66-1.67ZM61.35,61.38c1.26.85,3.96.68,4.21-.79l-4.21.79ZM55.01,84.95c-9.47,5.69-19.87,7.72-30.67,6.75l3.73,5.77c4.33,5.06,10.84,5.11,16.78,4.02,11.15-2.05,21.6-6.48,28.9-15.29,3.53-4.26,7.48-9.59,6.51-15.38-.57-3.43-3.3-7.14-4.94-10.6-3.39,10.7-10.4,17.62-19.45,24.42l.59.38,1.13,2.05c.38.69-.83,2.4-1.79,2.86l-.4-4.5-.39-.48ZM106.86,63.33l-1.18-1.53c-.32-.42-1.7,1.07-1.95,1.48l3.13.06ZM60.69,69.73l3.26-6.25-3.97,4.14c-.35.36-1.15,1.42-.77,1.56l1.48.55ZM95.21,64.58l-3.04-.34c-.49-.06-.36,1.66-.24,2.46l3.28-2.12ZM120.02,64.94c-.56.08-2.94.87-2.54,1.22l1.37,1.17c.3.26,1.15-.27,1.36-.6s.22-1.84-.19-1.78ZM117.27,76.98c1.05-.66,2.39-2.44,2.27-3.43-.74-6.26-15.11-11.49-26.51-4.03-.88.58-1.97,2.79-1.87,3.8.5,5.33,15.47,10.34,26.12,3.66ZM29.47,67.71c-1.25.56-3.13,2.19-3.11,3.24.02.9,1.16,2.31,2.06,3.16l1.05-6.4ZM88.15,74.18l-.55-3.7c-.06-.39-2.13-.09-2.49.14-.83.53-1.13,2.8-.5,3.55.87,1.04,3.7,1.1,3.54.02ZM56.23,73.84l-3.88,2.33.78,1.29,3.88-2.33-.78-1.29ZM30.3,80.81c.63-.51.91-2.56.15-2.73-.61-.14-2.42-.11-2.95.22-.63.4-1.4,2.17-1.33,2.92.05.6,1.48,1.71,1.95,1.34l2.18-1.75ZM93.03,83.2c-.53-2.47-.79-2.94-2.17-4.22-.79-.74-2.09-.36-3.7,1.52l5.87,2.7ZM124.67,85.86l-1.4-1.47c-13.18,5.86-27.93,4.9-39.72-2.98-.45-.61-1.48-1.67-1.76-1.24l-.83,1.31c-.99,1.56,11.82,7.92,20.19,7.95l7.61.02c5.59.02,10.54-1.39,15.91-3.59ZM119.9,82.77l1.96-.94c.39-.19-.17-1.18-.53-1.41s-1.78-.38-2.18-.11l-1.63,1.13c-.36.25-.17,2.15.24,2.02l2.14-.69ZM31.98,83.72c.62.2,2.72-.7,2.32-1.21l-1.25-1.57c-.56-.7-2.84,2.2-2.93,2.17l1.86.6ZM44.64,81.29c-1.8.05-4.37.63-6.54,1.63,2.04.6,4.06.22,6.54-1.63ZM107.78,84.95c-1.66-2.69-4.53-2.05-5.67-.01h5.67ZM85.25,99.83c-1.91-1.58-1.94-4.23-2.14-6.69l-3.19-8.03c-2.12.47-4.01,3.48-3.34,6.5.86,3.86,5.14,7.12,8.21,8.61l.45-.39ZM85.37,100.7c7.92,3.55,16.4,5.55,25.62,5.18,1.56-.06,2.92-1.64,3.77-2.72l8.16-10.34c1.45,2.9-1.81,4.3-2.57,6.2-1.1,2.74-2.15,3.69-4.6,5.36,6.89-1.61,14.65-3.99,16.65-9.22l-6.67-6.19c-13.9,5.39-29.36,4.85-42.85-1.58l2.51,8.95.66,3.77c.03.16-.12.22-.67.57Z"/>
        <path d="M22.27,104.76c-1.1,1.64-5.27,1.71-5.99-.06s1.72-5.02,3.48-5.04c2.22-.03,3.87,3.07,2.51,5.1Z"/>
        <path d="M73.56,104.87c-.06,1.33-3.14,2.29-4.44,1.99-1.11-.26-2.67-2.01-2.62-3.53.04-1.04,2.33-2.1,3.37-2.1,1.38,0,3.81,1.15,3.69,3.64Z"/>
        <path d="M141.73,107.91c-1.06.98-5.41.13-6.05-1.31-.78-1.76,1.92-3.28,3.43-2.95s3.49,2.54,2.62,4.25Z"/>
        <path d="M60.41,113.05c-.78.18-2.7-.5-2.91-1.26s.71-2.47,1.44-2.83c.64-.32,2.12-.68,2.6-.33.59.44,1.48,1.72,1.69,2.43s-1.92,1.78-2.81,1.98Z"/>
        <path d="M15.18,95.77c-2.19.72-4.01.68-5.21-1.55l4.56-1.69c.52-.19,1.85.51,2.16,1.01s-.82,2.01-1.5,2.23Z"/>
        <path d="M10.32,104.09c.36,1.03-1.57,2.41-2.5,2.24s-3.04-1.58-2.8-2.52c.52-1.82,4.58-1.77,5.3.28Z"/>
        <circle cx="140.39" cy="115.83" r="1.35"/>
        <path d="M75.04,109.75c.44-.18,1.41-.43,1.7-.27.44.25,1,1.43.54,1.66l-1.28.63c-.45.22-1.4-1.85-.96-2.02Z"/>
        <path d="M149.33,108.56l1.93-.41c.32-.07.76,1.17.45,1.28l-1.27.47c-.45.17-1.58-1.25-1.11-1.35Z"/>
        <path d="M131.78,110.15l1.9-.4c.31-.07.77,1.16.46,1.28l-1.28.48c-.45.17-1.57-1.25-1.08-1.36Z"/>
        <path d="M161.97,93.76l-1.56-5.16,2.28,1.96c.49.42.05,1.82-.72,3.2Z"/>
        <rect x="156.91" y="96.71" width="1.85" height="2.99" transform="translate(-17.92 37.66) rotate(-12.88)"/>
        <path d="M40.59,99.67c.37-.02-1.8.08-3.11.14-.89.04-1.33-1.59-1.35-3.03l-4.23-3.42c2.51-1.01,4.16.53,5.81,2.63l2.88,3.68Z"/>
        <path d="M67.19,88.33c-.75.42-2.23.65-2.38.24l-.88-2.27c-.27-.7,1.68-1.13,2.34-.92.79.25,1.63,2.55.92,2.95Z"/>
        <path d="M67.26,80.65l-.04-3.93,2.25,1.59c.49.35-.99,1.69-2.21,2.34Z"/>
        <path d="M127.08,99.42c-1.36.3-3.14.7-1.86.41-.15-3.15,2.08-2.16,1.86-.41Z"/>
        <path d="M115.82,74.11c-1.06,6.78-22.17,6.01-21.59-1.42.44-5.63,13.17-8.7,20.28-2.68.87.74,1.45,3.17,1.31,4.1ZM113.84,72.97c-5.38-4.32-12.91-4.6-17.53.07,5.15,3.79,12.85,4.24,17.53-.07Z"/>
        <path d="M172.34,74.68c-3.99,6.59-22.23,3.01-29.49-9.5-1.28-2.2-1.42-5.43-.46-7.37,3.82-7.73,23.52-4.41,30.31,9.27,1.05,2.11.77,5.74-.36,7.6ZM168.34,67.53c.54.85-.02,3.53-.73,4.2-4.12,3.83-13.69.44-19.19-5.77-1.65-1.86-2.32-5.84.2-7.23,2.95-1.62,6.69-.35,10.43-.35-5.14-2.64-13.28-2.35-14.3,1.04-2.63,8.79,19.65,20.1,25.47,14.02,2.34-2.44-.54-9.52-5.61-11.73l3.73,5.82Z"/>
        <path d="M36.52,74.45c-2.99-.75-3.17-4.67-1.98-6.77,2.99-5.3,8.66-8.63,14.71-8.77,3.02-.07,6.37,2.48,5.25,5.72-2.41,6.94-10.37,11.71-17.98,9.81ZM51.81,62.19c-6.9-1.63-13.72,2.55-15.37,8.99,5.43,3.21,15.11-3.36,15.37-8.99Z"/>
      </g>
    </g>
  </g>
</svg>