<?xml version="1.0" encoding="UTF-8"?>
<svg id="Layer_2" data-name="Layer 2" xmlns="http://www.w3.org/2000/svg" viewBox="0 0 188.47 132.35">
  <defs>
    <style>
      .cls-1 {
        fill: #fff;
      }
    </style>
  </defs>
  <g id="Layer_1-2" data-name="Layer 1">
    <g>
      <g>
        <g>
          <path class="cls-1" d="M150.05,129.85c-6.54,0-12.68-1.83-17.78-5.29-.42-.28-.74-.69-.92-1.16-.49-1.25-1.18-2.36-1.61-2.85-1,.18-1.85.26-2.63.26-2.11,0-3.87-.63-5.53-1.99-1.02-.84-2.13-1.4-3.43-2.04-3.93-1.95-8.79-4.36-14.37-15.67l-11.56-1.14c-4.16-.41-8.07-2.4-11.85-4.55-5.85,9.69-12.84,16.2-21.31,19.87-5.52,2.39-11.37,3.66-16.9,3.66-6.16,0-11.74-1.51-16.59-4.48-6.42-3.93-11.35-9.92-15.46-15.22-6.91-8.89-9.3-20.16-6.39-30.14,4.64-15.96,18.37-28.87,34.17-32.1,2.54-.52,5.07-.78,7.52-.78,7.87,0,15.1,2.75,20.96,7.87-.4-4.84-.41-9.56,1.18-14.53,5.09-15.93,19.92-27.06,36.06-27.06,1.61,0,3.25.11,4.85.33,3.39.47,6.57,1.69,9.66,2.86,2.12.81,4.12,1.57,6.14,2.1.29.07.56.2.8.37,14.56,10.09,20.08,24.94,15.78,42.07,13.41.27,25.63,6.21,35.42,17.24,7.6,8.55,10.76,17.48,9.38,26.53-.02.13-.05.26-.09.38-2.92,9.12-7.13,17.79-13.24,27.29-.14.22-.32.42-.52.59-6.02,4.9-13.74,7.59-21.75,7.59Z"/>
          <path class="cls-1" d="M103.62,5c1.49,0,3,.1,4.51.31,5.29.73,10.29,3.56,15.51,4.9,14.73,10.21,19.49,25.02,13.88,42.57.8-.04,1.59-.06,2.38-.06,13.65,0,25.51,6.28,34.5,16.41,6.11,6.87,10.22,15.01,8.78,24.49-3.05,9.54-7.4,18.05-12.96,26.7-5.62,4.57-12.91,7.03-20.17,7.03-5.77,0-11.52-1.56-16.38-4.85-.62-1.58-2.17-4.54-3.59-4.54-.07,0-.13,0-.2.02-1.06.21-1.97.33-2.78.33-1.53,0-2.72-.42-3.94-1.42-4.65-3.86-10.31-2.34-17.74-18.12l-12.96-1.28c-4.42-.43-8.79-3.04-13-5.46-5.09,9.1-11.87,16.86-21.39,20.98-5.01,2.17-10.49,3.46-15.91,3.46s-10.6-1.25-15.28-4.12c-5.92-3.63-10.52-9.12-14.8-14.63-6.01-7.73-8.82-18.12-5.96-27.9,4.37-15.04,17.23-27.27,32.28-30.35,2.4-.49,4.75-.73,7.02-.73,9.7,0,18.14,4.38,24.19,12.56-.73-7.64-1.88-14.07.33-20.96,4.68-14.64,18.29-25.33,33.68-25.33M103.62,0c-17.22,0-33.03,11.84-38.45,28.8-1.12,3.5-1.51,6.84-1.53,10.14-5.4-3.41-11.61-5.21-18.23-5.21-2.62,0-5.32.28-8.02.83C20.7,37.98,6.21,51.59,1.31,68.42c-3.13,10.74-.59,22.84,6.82,32.37,4.25,5.47,9.35,11.67,16.13,15.82,5.25,3.22,11.27,4.85,17.89,4.85,5.87,0,12.06-1.34,17.9-3.87,8.35-3.61,15.32-9.79,21.18-18.83,3.32,1.77,6.92,3.33,10.74,3.7l10.19,1c5.72,11.01,10.96,13.62,14.87,15.55,1.2.6,2.15,1.07,2.93,1.71,2.13,1.74,4.46,2.58,7.14,2.58.45,0,.92-.02,1.41-.07.17.33.35.7.5,1.07.37.94,1.01,1.75,1.85,2.32,5.51,3.74,12.15,5.72,19.18,5.72,8.58,0,16.86-2.9,23.33-8.15.41-.33.76-.73,1.05-1.17,6.23-9.69,10.53-18.55,13.52-27.88.08-.25.14-.51.18-.77,1.5-9.82-1.86-19.43-9.98-28.57-9.52-10.73-21.28-16.87-34.2-17.92,3.26-16.96-2.79-31.62-17.44-41.78-.49-.34-1.03-.58-1.6-.73-1.89-.49-3.83-1.23-5.88-2.01-3.21-1.23-6.54-2.5-10.2-3-1.73-.23-3.47-.35-5.2-.35h0Z"/>
        </g>
        <g>
          <path class="cls-1" d="M85.26,115.21c-3.44,0-6.06-1.39-7-3.72-.87-2.17-.56-4.53.88-6.66,1.78-2.64,5.08-4.48,8.02-4.48.21,0,.41,0,.62.03,1.94.17,3.88,1.58,5.18,3.78,1.33,2.24,1.61,4.74.76,6.67-1.32,3.03-5.2,4.39-8.46,4.39Z"/>
          <path class="cls-1" d="M87.16,102.85c.13,0,.27,0,.4.02,2.34.2,5.03,4.32,3.87,6.95-.82,1.88-3.6,2.89-6.17,2.89-2.12,0-4.09-.69-4.68-2.16-1.51-3.74,3.02-7.7,6.58-7.7M87.16,97.85h0c-3.78,0-7.84,2.24-10.09,5.58-1.89,2.8-2.3,6.07-1.13,8.99,1.35,3.32,4.83,5.3,9.32,5.3,3.78,0,8.86-1.55,10.75-5.9,1.19-2.69.86-5.96-.91-8.93-1.72-2.89-4.38-4.76-7.12-5-.27-.02-.55-.04-.83-.04h0Z"/>
        </g>
        <g>
          <path class="cls-1" d="M108.65,125.99c-2.58-.12-6.95-1.98-8.7-4.21-1.06-1.36-1.38-3.06-.91-4.79.68-2.49,2.8-4.48,4.54-5.16.87-.34,1.8-.51,2.76-.51,3.6,0,6.55,2.29,7.17,5.57l.77,3.99c.11.55.14,1.63-.79,2.76-1.05,1.28-3.2,2.35-4.69,2.35-.04,0-.12,0-.16,0Z"/>
          <path class="cls-1" d="M106.34,113.83c2.11,0,4.27,1.2,4.71,3.53l.77,4c.17.87-2.08,2.14-3.02,2.14-.02,0-.03,0-.05,0-1.92-.09-5.58-1.63-6.85-3.25-1.75-2.24.82-5.39,2.58-6.08.58-.22,1.21-.33,1.85-.33M106.34,108.83h0c-1.28,0-2.51.23-3.66.67-2.76,1.08-5.25,3.89-6.06,6.84-.68,2.48-.19,5.03,1.34,6.99,2.3,2.92,7.32,5.02,10.57,5.17.07,0,.2,0,.27,0,2.24,0,5.08-1.4,6.62-3.26,1.17-1.42,1.64-3.14,1.31-4.83l-.77-4c-.84-4.45-4.8-7.58-9.62-7.58h0Z"/>
        </g>
        <g>
          <path class="cls-1" d="M72.73,124.62c-2.43,0-4.92-.26-6.49-.69-.78-.21-1.4-.78-1.69-1.53-.75-1.99-.45-4.26.83-6.24,1.36-2.11,3.59-3.56,5.68-3.71.16-.01.32-.02.48-.02,2.42,0,4.83,1.23,6.27,3.2,1.44,1.97,1.8,4.43,1.01,6.92-.27.84-.95,1.48-1.81,1.68-1.35.32-3.07.38-4.28.38Z"/>
          <path class="cls-1" d="M71.53,114.93c2.93,0,6.2,2.77,4.9,6.87-.92.22-2.27.32-3.7.32-2.11,0-4.41-.22-5.84-.6-1.15-3.05,1.94-6.41,4.34-6.57.1,0,.21-.01.31-.01M71.53,109.93h0c-.22,0-.44,0-.65.02-2.9.2-5.82,2.06-7.61,4.85-1.7,2.65-2.09,5.74-1.06,8.47.57,1.51,1.82,2.65,3.38,3.07,1.8.49,4.47.78,7.15.78,1.95,0,3.58-.15,4.85-.45,1.71-.4,3.09-1.68,3.62-3.36,1.02-3.23.52-6.56-1.38-9.15-1.91-2.61-5.08-4.22-8.29-4.22h0Z"/>
        </g>
      </g>
      <g>
        <path d="M123.17,116.88c-4.65-3.85-10.31-2.34-17.74-18.11l-12.96-1.28c-4.42-.44-8.79-3.04-13-5.46-5.1,9.11-11.89,16.86-21.4,20.98s-21.76,5.11-31.19-.66c-5.92-3.62-10.51-9.12-14.79-14.63-6.01-7.73-8.81-18.13-5.97-27.91,4.38-15.04,17.23-27.26,32.28-30.35,12.64-2.59,23.75,1.74,31.21,11.83-.72-7.65-1.87-14.06.33-20.96,5.13-16.06,21-27.37,38.2-25.02,5.29.72,10.3,3.54,15.51,4.9,14.74,10.2,19.49,25.02,13.88,42.57,14.65-.78,27.37,5.63,36.88,16.34,6.1,6.88,10.23,15.01,8.78,24.5-3.06,9.53-7.4,18.04-12.96,26.69-10.09,8.2-25.59,9.63-36.55,2.19-.64-1.65-2.32-4.82-3.78-4.53-3.06.62-4.86.45-6.72-1.09ZM117.25,12.09c-2.96-.97-6.78-2.98-10.04-3.32-17.69-1.85-33.83,11.74-34.81,29.27-1.15,20.53,15.64,36.25,35.6,33.94,1.48-.17,2.86-1.93,2.89-3.36-11.72,2.45-22.64-1.32-29.53-10.67-8.76-11.88-7.52-27.82,2.2-37.69,10.26-10.42,25.43-11.69,37.26-3.86,11.9,7.88,15.93,23.05,9.74,36.72l2.49-.04c3-.05,9.96-32.57-15.8-40.99ZM97.65,22.54l3.31-.89,1.04-6.23-9.13,2.51,4.78,4.62ZM111.4,17.59c-.82-.73-3.19-1.53-4.25-1.45-1.21.1-2.94,2.58-2.63,3.73.26.98,2.49,2.57,3.49,2.37l3.43-.69c.77-.15.54-3.43-.05-3.96ZM122.58,24.39l-6.66-4.46-1.63,4.15,4.49,3.67,3.79-3.36ZM93.48,23.75c-.71-1.02-1.48-1.95-2.18-2.35s-3.11.3-3.66.9c-.76.85-1.62,2.71-1.67,3.68-.04.81,1.38,2.45,2.18,2.29,3.7-.72,5.93-3.66,5.33-4.53ZM119.71,40.57c0-8.41-6.82-15.24-15.23-15.24s-15.23,6.82-15.23,15.24,6.82,15.24,15.23,15.24,15.23-6.82,15.23-15.24ZM85.66,36.09c.39-.87.84-3.52.68-4.19l-4.11-4.39-3.33,9.2,6.76-.62ZM124.85,35.75c1.98-.58,3.03-3.11,2.51-4.61s-2.62-3.13-4.51-2.15c-.97.51-1.59,3.05-1.31,4.07s2.26,3,3.31,2.7ZM128.34,48.36c-.06-5.08-.26-6.46-.93-9.19-4.55.38-4,1.87-4.28,6.04l5.21,3.15ZM84.99,39.49c-3.26.47-4.75,1.3-5.22,2.92-.35,1.2.49,3.59,1.5,4.3.86.62,4.26.42,4.31-.64l-.59-6.58ZM58.82,91.56c6.97-6.13,10.88-14.57,11.28-23.84.47-11.02-5.95-20.7-16.49-24-20.63-6.47-42.19,11.76-44.76,29.9-1.09,7.66,1.11,16.03,6.45,21.84,11.31,12.32,30.02,7.97,43.52-3.9ZM86.15,57.87l4.08-3.29-2.65-4.5-5.95.82,4.52,6.97ZM123.54,55.66c1.04-.23,2.24-3.47,1.51-4.23-.61-.63-2.13-1.49-3.01-1.58s-2.16,1.29-2.86,2.29c-.59.83-.92,3.88.09,4,.81.1,2.65-.13,4.27-.49ZM132.52,104.98l8.08-1.59c7.89,7.72,18.27,9.67,27.64,4.41,8.21-4.61,14.06-15.04,10.28-25.17-7.17-19.18-28.84-30.04-48.45-25.35-9.65,2.3-15.82,9.68-16.07,19.32-.27,10.5,5.57,19.41,15.33,23.49,1.79.75,2.64,1.9,3.19,4.89ZM96.68,63.39c1.85-3.09.78-5.18-1.89-6.17-1.44-.53-4.22.22-4.61,2.73.82,1.79,4.9,3.65,6.5,3.44ZM116.99,59.86c-.33-2.74-3.04-3.22-4.79-1.8-1.42,1.15-1.5,2.53-.15,5.65,1.58-.77,4.17-2.56,4.94-3.85ZM107.5,64.33c.8-.91.02-4.03-1.12-4.47s-3.85-.28-5,.35c-.91.5-1.19,3.01-.51,3.99,1.13,1.65,5.26,1.68,6.62.12ZM41.83,112.57c18.08.18,33.54-13.18,36.18-30.44,1-6.57.13-12.64-3.93-17.6-.02,14.96-7.09,27.23-19.14,34.64-9.08,6.3-19.69,8.8-30.82,6.06,4.22,5.08,10.26,7.26,17.71,7.34ZM105.5,83.08l2.49-7.35c-10.57.73-20.83-2.19-28.25-9.97l2.81,12.29c6.13,5.23,14.95,5.39,22.96,5.03ZM132.44,115.11c-2.53-4.3-2.84-7.11-2.25-10.84-10.88-3.64-18.62-12.27-19.75-24.41-6.1,10.61.55,28.51,11.3,30.94,2.53,3.67,6.31,6.5,10.7,4.3ZM103.87,95.37l.29-8.33c-8.61-.13-15.74-1.22-22.45-5.26l-1.5,7.94,1.62,1.08c.07.05.98-1,1.21-1.21.69-.64,3.69-.41,3.74.52l.18,3.54c7.48-3.11,10.12,1.63,16.92,1.73ZM167.45,117.88l3.42-7.01c-10.83,5.23-21.46,4.66-30.04-2.92-1.85-.36-6.14-.01-6.88,1.51-.88,1.8,1.45,4.63,1.83,6.01l1.43,5.2c9.78,4.29,21.33,3.76,30.24-2.8Z"/>
        <path d="M91.43,109.82c-1.5,3.42-9.54,3.98-10.86.73-1.57-3.89,3.36-8,6.98-7.69,2.34.2,5.04,4.31,3.88,6.96ZM86.02,109.14c.55-.07,2.09-1.01,1.97-1.55s-.87-1.41-1.38-1.22l-1.57.6-1.66,1.33c-.31.25.72,1.08,1.11,1.03l1.53-.19Z"/>
        <path d="M111.06,117.35l.77,4c.17.89-2.15,2.18-3.07,2.14-1.91-.09-5.58-1.64-6.84-3.25-1.75-2.23.81-5.4,2.58-6.08,2.48-.96,5.98.16,6.57,3.19ZM107.98,120.19c.19-2.57-1.86-3.26-3-1.64l3,1.64Z"/>
        <path d="M76.43,121.8c-2.28.54-7.14.36-9.55-.29-1.15-3.05,1.94-6.41,4.34-6.57,3-.21,6.55,2.62,5.21,6.86Z"/>
        <path d="M66.47,74.74c-4.6,14.35-17.67,24.51-32.1,25.17-12.62.57-22.17-7.99-22.97-20.15s5.28-22.17,14.94-28.79c8.93-6.12,20.29-8.27,30.16-2.9,9.1,4.95,13.35,16.15,9.97,26.68ZM46.51,50.48l-3.18-.15c-.63-.03-.98.72-.54,1.18.81.86,1.62,1.58,2.36,2.11.35.26.85.14,1.04-.26l.92-1.88c.22-.45-.09-.98-.59-1.01ZM38.48,53.36c.6-.18.68-.99.13-1.29-1.38-.75-2.48-.84-4.07-.56-.91.16-1.79,1.19-2.31,2.51-.22.55.29,1.1.85.94l5.41-1.6ZM55.57,58.9c1.26-.03,2.13-3.79,1.25-4.68-.78-.79-2.53-1.84-3.55-2.18s-3.48,2.1-3.08,3.09c.62,1.54,3.7,3.81,5.39,3.77ZM23.46,58.38c-.49.41-.22,1.21.42,1.24,1.28.05,2.79-.19,3.56-.75.67-.48.94-1.73,1.01-3.14.03-.62-.68-.98-1.15-.58l-3.84,3.24ZM52.92,76.73c2.59-4.65,2.51-10.08-.51-14.27-2.48-3.44-6.98-5.9-12.13-5.42-8.38.78-15.78,7.42-16.79,15.94-.52,4.4,1.57,9.03,4.34,11.33,7.9,6.56,19.69,2.09,25.1-7.59ZM57.99,63.94l4.49-.87c.45-.09.69-.57.5-.99l-1.37-2.91c-.25-.53-1-.54-1.26-.01l-1.12,2.25c-.11.22-.33.37-.57.39l-1.67.13c-.34.03.65,2.08,1,2.01ZM22.25,64.36c.24-.63-.46-1.2-1.03-.84-1.01.65-1.9,1.56-1.86,2.21.03.52.15,1.17.3,1.86s1.09.75,1.34.1l1.25-3.33ZM58.81,72.93c1.76,1.5,4.35-.19,4.72-1.51.42-1.51-.33-4.63-1.53-4.56-1.63.09-3.11.86-3.53,1.67s-.36,3.8.34,4.4ZM16.14,77.44c.93-1.71,1.21-3.54.94-5.34-.11-.71-1.12-.79-1.35-.11-.58,1.71-.86,3.38-.91,5.1-.02.75.96,1.01,1.32.35ZM59.3,78.43h0c-.39.36-1.02.17-1.15-.34l-.09-.35c-.16-.62-.99-.72-1.29-.16l-1.32,2.42c-.23.42.02.94.5,1.03l3.24.55c.55.09,1.04-1.09,1.28-2.51.11-.65-.67-1.08-1.16-.63ZM24.02,86.56c-.66-1.88-2.49-4.69-3.85-5.43-.1-.05-.21-.08-.32-.08-2.85,0-3.67,3.51-2.26,5.38.99,1.32,3.68,2.25,6.1.98.31-.16.45-.53.33-.86ZM55.36,86.94c.5-.37,1.15-2.33.71-2.47-2.39-.74-4.31-.65-6.06,1.45-.54.64-.43,2.01.01,3.76.12.48.69.69,1.1.4l4.25-3.13ZM26.82,94.17c.36.1.74-.1.85-.46.72-2.2,1.26-3.51.73-3.85-.23-.15-.69-.43-1.08-.68-.36-.23-.84-.08-1.01.31l-.75,1.73c-.1.24-.53.3-1.24.36-.67.06-.88.94-.31,1.29.88.54,2.06,1.08,2.81,1.29ZM45.23,93.29c.67-.34,1.77-1.91,1.65-2.57-.08-.5-.55-1.5-1.04-1.31l-2.45.99c-.63.25-2.34.99-2.07,1.55l1.13,2.4c.2.43,1.86-.6,2.78-1.06ZM37.69,95.8c.29-.06.52-.3.55-.59.16-1.28-.66-3.51-1.64-3.81-1.19-.37-3.66-.31-4.7.23-.77.41-1.14,2.53-.93,3.7.05.28.26.49.54.55,1.7.38,4.35.33,6.18-.08Z"/>
        <path d="M143.04,103.52c-2.04-1.64-4.16-2.58-6.5-2.2-4.41-1.93-9.19-3.94-13.04-7.25-8.26-7.08-9.29-20.79-1.92-28.87,12.09-13.24,41.59-6.95,53.02,14.29,3.94,7.33,2.99,16-2.43,21.85-7.83,8.47-19.84,9.64-29.14,2.17ZM135.84,65.96l-5.74,1.05,1.41,2.46,4.33-3.51ZM156.28,96.76c3.93-1,6.73-4.52,7.59-7.03,1.16-3.42.51-7.64-1.33-10.44-4.91-7.51-13.22-11.66-22.21-10.61-3.93.46-7.75,3.21-9.01,5.97-1.68,3.68-1.3,7.8.48,11.36,4.27,8.54,14.6,13.26,24.47,10.76ZM128.59,71.3c-1.22-.72-3.98-1.26-5.16-.75-1.1.48-1.97,3.08-1.47,4.2s2.24,2.33,4.15,3.45l2.48-6.9ZM126.33,81.83l-5.78-4.4c-.07,3.69.43,7.44,1.88,9.78,3.13-.91,5.48-4.18,3.9-5.38ZM167.64,91.63c4.03.85,4.43-2.24,3.7-3.76-.45-.95-1.89-2-3.37-2.85l-.33,6.61ZM130.73,94.81c.64-2.94.22-4.2-1.12-5.49-1.02-.98-3.43-1.15-5.25-.36,1.66,2.85,3.21,4.09,6.37,5.85ZM167.52,102.57l3.58-7.91c-3.59-2.32-6.86,1.3-7.28,3.16l3.7,4.74ZM163.83,103.81c-.76-4.54-3.84-4.4-5.74-3.53-1.22.55-1.83,3.4-1.07,5.13l6.82-1.6ZM153.36,101.66h-4.83c.38,1.35,1.77,2.8,3.17,3.2.8.23,1.28-1.1,1.66-3.2Z"/>
        <path d="M116.92,40.69c0,6.86-5.56,12.43-12.42,12.43s-12.42-5.56-12.42-12.43,5.56-12.43,12.42-12.43,12.42,5.56,12.42,12.43ZM113.16,40.67c0-4.82-3.91-8.73-8.72-8.73s-8.72,3.91-8.72,8.73,3.91,8.73,8.72,8.73,8.72-3.91,8.72-8.73Z"/>
        <path d="M39.03,84.53c-3.74.64-7.69-.41-9.79-2.51-1.92-1.92-3.46-5.75-3.06-8.97.92-7.58,7.47-13.18,15.08-13.38,2.92-.08,6.44,1.37,8.02,3.14,2.03,2.28,3.15,5.99,2.47,9.17-1.3,6.12-6.03,11.42-12.72,12.55ZM33.72,80.54c.89-8.25,6.44-13.65,13.85-14.11-3.85-4.8-9.9-3.97-14.18-.18-1.92,1.7-3.64,4.98-3.74,7.26-.13,2.94,1.54,5.86,4.06,7.04ZM48.05,70.02c-6.72.19-11.21,5.55-10.85,11.55,6.25-.97,10.91-5.16,10.85-11.55Z"/>
        <path d="M155.28,93.84c-8.04,2.48-16.52-1.28-20.74-7.97-1.54-2.45-1.79-6.11-.87-8.91.72-2.18,3.65-4.88,6.66-5.52,7.75-1.67,15.83,1.67,19.65,8.4,2.86,5.04,1.39,12.12-4.7,14ZM156.6,89.23c3.19-4.93.29-9.89-4.05-12.49-4.69-2.82-10.44-3.77-14.48.8,8.32.56,14.68,4.44,18.53,11.69ZM153.1,90.7c-3.09-6.8-9.91-10.64-16.31-8.28,3.01,6.39,9.49,9.84,16.31,8.28Z"/>
      </g>
    </g>
  </g>
</svg>