<?xml version="1.0" encoding="UTF-8"?>
<svg id="Layer_2" data-name="Layer 2" xmlns="http://www.w3.org/2000/svg" viewBox="0 0 205.38 256.1">
  <defs>
    <style>
      .cls-1 {
        fill: #fff;
      }
    </style>
  </defs>
  <g id="Layer_1-2" data-name="Layer 1">
    <g>
      <g>
        <path class="cls-1" d="M46.35,253.6c-8.65,0-17.17-2.76-24.62-7.99-11.88-8.32-18.51-19.83-19.17-33.29-.57-11.56,3.19-23.98,10.88-36.02-1.18-2.08-1.6-4.59-1.21-7.37.81-5.83,5.15-12.35,10.54-15.86,1.56-1.01,3.33-1.55,5.12-1.55.79,0,1.56.1,2.32.3L100.91,50.75c-1.3-1.56-1.94-3.44-1.8-5.41.57-7.69,4.78-14.42,11.54-18.46,1.24-.74,2.59-1.11,4-1.11s2.76.36,4.11,1.04c9.08-12.1,24.53-24.31,42.4-24.31,2.39,0,4.79.23,7.12.68,11.53,2.22,21.61,8.7,27.65,17.78,10.26,15.42,8.95,36.88-3.35,54.66l-79.96,115.7-31.35,43.91c-3.04,4.27-6.94,7.39-10.34,9.97-7.24,5.49-15.74,8.4-24.58,8.4,0,0,0,0,0,0Z"/>
        <path class="cls-1" d="M161.16,5c2.2,0,4.43.2,6.65.63,10.35,1.99,20.13,7.82,26.04,16.71,10.51,15.8,7.53,36.16-3.32,51.86l-79.96,115.7-31.33,43.88c-2.75,3.86-6.23,6.71-9.82,9.43-7.02,5.32-15.03,7.89-23.07,7.89s-16.11-2.58-23.19-7.54C-.89,226.72,1.15,199.2,16.45,176.25c-5-5.74.86-16.65,7.67-21.08,1.17-.76,2.46-1.14,3.76-1.14,1.1,0,2.2.28,3.24.83L104.2,50.39c-1.79-1.25-2.74-2.99-2.6-4.87.52-6.97,4.42-12.97,10.33-16.5.87-.52,1.79-.76,2.72-.76,1.6,0,3.24.71,4.75,1.93,9.47-13.61,25.14-25.19,41.76-25.19M161.16,0c-18.02,0-33.62,11.71-43.22,23.78-1.09-.34-2.19-.52-3.29-.52-1.87,0-3.65.49-5.28,1.46-7.48,4.47-12.12,11.91-12.76,20.43-.15,1.98.29,3.89,1.25,5.58L29.06,149.09c-.39-.04-.79-.06-1.18-.06-2.27,0-4.51.67-6.48,1.95-5.96,3.88-10.75,11.12-11.66,17.61-.39,2.76-.1,5.32.83,7.56C3.11,188.26-.52,200.75.06,212.45c.7,14.26,7.7,26.43,20.24,35.21,7.88,5.52,16.89,8.44,26.06,8.44s18.41-3.08,26.09-8.91c3.55-2.69,7.62-5.95,10.87-10.51l31.33-43.88s.03-.04.04-.06l79.96-115.7c6.04-8.74,9.69-18.53,10.54-28.3.93-10.64-1.55-20.73-7.17-29.17-6.41-9.64-17.07-16.51-29.26-18.85-2.48-.48-5.04-.72-7.59-.72h0Z"/>
      </g>
      <g>
        <path d="M193.86,22.35c-5.91-8.89-15.69-14.72-26.04-16.71-19-3.66-37.69,9.15-48.41,24.56-2.39-1.93-5.1-2.58-7.48-1.17-5.91,3.52-9.81,9.53-10.32,16.5-.14,1.88.81,3.62,2.6,4.87L31.12,154.87c-2.28-1.22-4.84-1.09-7,.31-6.81,4.43-12.67,15.34-7.67,21.07-15.3,22.95-17.33,50.48,6.71,67.32,14.15,9.92,32.23,10.3,46.27-.35,3.59-2.72,7.06-5.58,9.82-9.43l31.33-43.88,79.96-115.7c10.85-15.71,13.84-36.06,3.32-51.86ZM184.35,16.35c7.11,5.67,11.42,13.19,11.66,22.6.21,7.91-1.71,15.99-5.96,22.78l-7.6,12.15c-1.02-4.17-8-8.16-11.21-8.65-2.64-.4-4.94,2.1-7.18,4.17l-8.39-5.73c1.63-2.23,3.28-4.98,2.56-7.34l-14.37-9.57c-1.03-.68-4.14-1.82-4.89-.84l-3.38,4.41-10.98-7.43c2.41-4.34,1.75-8.96-2.52-11.24,14.6-21.34,40.88-32.37,62.25-15.32ZM133.79,70.53c-4.66-3.45-1.63-10.22-5.83-15.14-3.02-3.54-6.21-5.89-10.06-8.8.56-1.05,1.42-2.22,2.53-3.25l42.1,27.99-2.31,3.59-5.24-2.96c-9.5-5.37-15.83,2.54-21.18-1.43ZM147.11,72.24l-5.46,7.82c-.52.75-2.44.95-3.21.44l-14.24-9.45,3.96-6.59c1.05,3.61,1.88,6.11,3.87,7.76,2.44,2.01,5.58,2.16,8.44,1.52l6.64-1.49ZM117.57,49.58c-.85,1.19-3.16,2.43-5.25,2.67-.17-7.11,4.01-13.07,10.09-16.95,1.24,1.94,1.06,4.26.15,6.22l-3.12-1.12c-1.46,1.42-2.89,3.16-4.13,5.76-.41.86,1.18,2.64,2.25,3.41ZM137.53,51.39l2.87-3.75,15.88,10.2-2.38,4.68c-6.2-2.81-5.3-8.1-10.89-8.51-2.03-.15-3.87-1.12-5.49-2.61ZM172.35,68.16l5.28,3.25c-6.19,3.42-10.17,9.97-11.13,17.2-2.03-1.08-4.38-2.77-6.31-4.8.55-7.23,8.23-18.05,12.15-15.64ZM177.31,73.26c.59-.39,2-.19,2.44.45-.73,7.06-4.3,11.98-9.32,15.71l-1.68.02c-1.32.01.25-10.67,8.56-16.17ZM104.14,47.26c.25-7.04,3.96-12.81,9.99-16.57,2.57.96,4.71,2.16,6.96,3.78-5.97,3.87-9.8,9.29-10.73,17.01l-6.22-4.23ZM106.64,52c2.63,1.93,4.73,3.16,7.07,2.84,1.96-.27,3.83-1.78,5.83-3.81l4.77,3.74c1.62,1.27,3.39,4.14,3.67,6.11l-5.15,7.86c-.76,1.15-.54,3.78.75,4.64l15.04,9.94c1.71,1.13,3.8-.25,4.74-1.61l6.47-9.4,9.4,4.8c-1.05,3.17-2.05,5.8-.6,8.65,1,1.95,7.72,6.53,11.41,6.59l-74.79,106.99c-.75-3.76-6.65-7.28-10.04-8.42-3.31-1.11-5.87,1.34-8.07,4.03l-7.45-6.83,5.88-8.93c1.16-1.77.57-4.33-1.25-5.53l-13.96-9.22c-1.15-.76-3.56-.42-4.36.75l-5.2,7.56c-2.11.59-5.7-.15-7.72-1.25l-5.34-2.89c.9-2.3,1.59-4.89.95-7.32-.44-1.66-2.62-3.27-5.05-4.74L106.64,52ZM31.49,172.93c-.14-1.43,1.09-3.2,2.19-3.45l8.31,4.15c9.25,4.63,15.17-2.34,20.32,1.03,1.65,1.08,2.64,3.41,2.79,5.83.52,8.28,3.03,10.35,10.16,15.93-.52,1.14-1.56,2.77-2.42,3.78l-41.35-27.29ZM61.85,196.1l-3.76,4.71-15.7-10.4,2.51-5.28,3.8,2.42c.89,3.69,4.37,6.02,8.17,5.34l4.98,3.2ZM30.49,175.16c-.95,1.86-2.96,3.25-5.44,2.93.2-7.25,4.3-13.63,10.71-16.92.84,1.94.63,4.23.05,6.25-1.37-.49-2.39-.94-3.13-.87-.74.07-2.05,1.52-2.51,2.21-1.66,2.52-2.16,4.51.32,6.4ZM53.91,171.86l4.4-5.87,16.05,10.6-6.13,9.78-.85-5.89c-.45-3.11-1.51-6.27-3.78-7.64-3.08-1.86-5.44-1.59-9.69-.97ZM83.6,192.76l6.93,4.04c-6.33,3.58-9.84,9.17-11.16,16.94l-5.47-3.69c-2.63-1.77,2.74-13.51,9.7-17.29ZM90.25,198.38l1.16-.58c2.18-1.07,1.05,12.63-9.98,17.43-1.06-6.74,3.73-13.22,8.81-16.86ZM30.54,157.6l3.66,2.44c-6.32,3.97-10.06,9.9-10.82,17.39l-6.25-4.44c.32-8.41,8.04-18.96,13.41-15.38ZM26.1,241.86c-23.73-15.03-22-42.88-6.85-64.34,2.38,1.89,4.65,3.49,6.73,3.32,2.38-.19,4.24-1.65,6.47-3.93l10.8,7.01-2.49,4.12c-.91,1.51-.47,3.97,1.09,5.01l13.88,9.24c1.37.91,3.89.53,4.78-.64l3.36-4.39,8.22,5.31c-1.23,3.04-2.19,6.64-.15,8.94,2.6,2.94,6.2,4.79,10.31,6.45l-8.4,11.79c-6.12,8.59-15.16,14.88-25.42,17.35-8.12,1.95-15.59-.97-22.32-5.23ZM188.36,72.04l-109.98,158.31c-5.59,6.55-11.42,12.69-19.75,15.37,7.5-4.63,13.62-9.83,18.54-17.04l7.93-11.59c5.34-3.6,6.71-9.19,10.1-14.04l78.38-112.2c2.98-4.27,6.4-6.92,8.3-12,.96-2.57,3.36-5.39,4.96-7.83,3.85-5.86,6.72-11.73,9.38-18.05-.96,6.95-3.78,13.18-7.86,19.06Z"/>
        <path d="M61.09,185.09c-1.8.98-4.53.18-6.05-1.04s-2.78-3.39-2.15-5.85c.56-2.22,3.18-3.83,5.08-3.86,2.54-.04,4.89,1.82,5.52,3.69.88,2.6.45,5.5-2.41,7.06ZM59.01,183.55c2.27-.33,3.24-2.05,2.95-3.97-.18-1.2-1.53-2.7-3.1-3.16-1.15-.33-3.54.83-3.92,1.85,1.38-.28,2.85-.63,3.79-.55s2.37,2.19,1.92,2.98l-1.63,2.84ZM59.21,180.43c0-.85-.68-1.53-1.53-1.53s-1.53.69-1.53,1.53.68,1.53,1.53,1.53,1.53-.69,1.53-1.53Z"/>
        <rect x="52.7" y="167.91" width="1.5" height="34.24" transform="translate(-130.92 129.37) rotate(-57.09)"/>
        <path d="M143.05,67.28c-1.47,3.97-5.68,4.37-8.61,2.41-2.66-1.78-3.76-6.05-1.07-8.65,1.85-1.79,4.82-1.83,6.95-.46,1.77,1.14,3.76,3.89,2.72,6.69ZM139.05,64c0-.83-.68-1.51-1.51-1.51s-1.51.68-1.51,1.51.68,1.51,1.51,1.51,1.51-.68,1.51-1.51ZM141.4,64.84c-1.45,1.42-2.99,2.59-4.39,2.28-2.17-.49-2.36-2.06-2.68-4.2-.44.93-.51,3.12.19,4.12,1.72,2.47,6.15,1.73,6.37.51l.51-2.71Z"/>
        <path d="M152.76,67.41c-8.46-4.7-16.09-9.95-23.83-15.68,8.65,4.32,16.36,9.65,23.83,15.68Z"/>
        <circle cx="127.24" cy="70.08" r="1.47"/>
        <circle cx="139.69" cy="77.91" r="1.61"/>
        <circle cx="58.57" cy="169.06" r="1.51"/>
        <circle cx="70.87" cy="177.42" r="1.54"/>
        <circle cx="45.3" cy="189.28" r="1.61"/>
        <circle cx="57.67" cy="197.43" r="1.64"/>
        <circle cx="153.04" cy="59.12" r="1.53"/>
        <circle cx="140.86" cy="50.82" r="1.51"/>
        <path d="M86.61,210.17l-1.86.53c-1.38.4-.73-6.79,4.55-8.1,1.86,2.65-.85,5.62-2.69,7.57Z"/>
        <path d="M176.68,77.51c1.14,3.92-2.08,8.54-5.53,8.13-.88-3.16,2.1-8.24,5.53-8.13Z"/>
      </g>
    </g>
  </g>
</svg>