<?xml version="1.0" encoding="UTF-8"?>
<svg id="Layer_2" data-name="Layer 2" xmlns="http://www.w3.org/2000/svg" viewBox="0 0 188.12 188.3">
  <defs>
    <style>
      .cls-1 {
        fill: #fff;
      }
    </style>
  </defs>
  <g id="Layer_1-2" data-name="Layer 1">
    <g>
      <g>
        <path class="cls-1" d="M84.67,185.8c-.5,0-1-.15-1.42-.44l-55.96-38.65c-.65-.45-1.05-1.18-1.08-1.97l-.92-27.89-.16-17.85L2.98,61.54c-.14-.23-.24-.49-.29-.75-.22-1.05-.42-3.75.41-5.36l8.61-16.42c1.38-2.64,3.46-4.36,6.38-5.24L121.12,2.75c.57-.17,1.14-.25,1.71-.25,2.31,0,4.37,1.35,5.23,3.45l11.28,27.18c2.2,5.3,2.09,11.37-.32,17.56l-3.6,9.19,49.02,30.85c.74.46,1.18,1.28,1.17,2.15l-.54,45.31c-.01.96-.58,1.84-1.45,2.24l-97.91,45.15c-.33.15-.69.23-1.05.23Z"/>
        <path class="cls-1" d="M122.84,5c1.28,0,2.44.73,2.93,1.91l11.28,27.18c2.15,5.17,1.62,10.67-.34,15.69l-4.35,11.11,50.77,31.95-.54,45.31-97.91,45.15-55.96-38.65-.92-27.89-.16-18.46L5.13,60.27c-.21-.99-.21-2.92.19-3.7l8.6-16.4c1.01-1.94,2.51-3.29,4.89-4.01L121.84,5.15c.33-.1.67-.15.99-.15M122.84,0c-.81,0-1.63.12-2.42.35L17.37,31.37c-3.55,1.07-6.2,3.26-7.88,6.49L.9,54.24c-1.5,2.93-.66,7.02-.65,7.06.11.53.31,1.04.59,1.51l21.81,36.87.15,17.11s0,.08,0,.12l.92,27.89c.05,1.58.85,3.05,2.16,3.95l55.96,38.65c.85.59,1.84.89,2.84.89.71,0,1.43-.15,2.09-.46l97.91-45.15c1.75-.81,2.88-2.55,2.91-4.48l.54-45.31c.02-1.74-.86-3.36-2.34-4.29l-47.27-29.75,2.84-7.26c2.66-6.8,2.76-13.52.3-19.43l-11.28-27.18c-1.26-3.03-4.22-4.99-7.54-4.99h0Z"/>
      </g>
      <g>
        <path d="M84.67,183.3l-55.96-38.65-.92-27.89-.16-18.47L5.13,60.27c-.2-.99-.21-2.93.19-3.7l8.59-16.4c1.02-1.94,2.51-3.29,4.89-4.01L121.85,5.15c1.65-.5,3.31.28,3.92,1.75l11.28,27.18c2.14,5.17,1.62,10.67-.35,15.69l-4.35,11.1,50.78,31.96-.55,45.31-97.91,45.15ZM111.97,22.99l8.64-14.16L18.57,39.36c1.78,4.12,3.38,7.56,5.2,11.14l88.2-27.51ZM133.65,49.57c1.76-4.25,2.31-8.3,1.23-12.59l-11.43-27.7-9.5,15.21,16.08,33.82,3.63-8.74ZM35.27,80.95l-3.9,14.68,96.82-34.7-16.29-34.93L24.66,52.71l8.06,16.15c1.72,3.72,2.87,7.69,2.55,12.1ZM28.67,93.86l2.84-10.04c1.17-4.15.96-8.26-1.02-12.21l-14.26-29.23-8.34,16.32,8.67,15.13,12.12,20.03ZM121.8,116.91l1.6,2.37c2.19,3.24,5.54,4.74,9.59,3.87,5.81-1.26,9.87-7.01,10.02-12.75.02-.74.72-2.51,1.38-2.8l9.71-4.2c-1.58-1.07-3.42-1.83-4.7-1.97l-4.99,4.15c-2.31,1.92-8.92.21-9.42-3.3-1.07-7.53,2.75-15.53,8.23-20.33,2.35-2.06,5.44-.19,7.41,1.07,4.16,2.67,1.64,9.26,3.46,10.36l10.1,6.11,14.28-6.05-46.67-29.28-.09,6.74c4.36.58,7.79,4.42,7.87,8.47.08,4.12-2.09,6.64-5.84,7.88l-1.06,7.16c-.33,2.21-4.4,2.65-6.24,2.39-1.56-.22-4.62-1.82-4.53-3.74l.36-7.38c-3.43-3.94-4.45-5.47-3.03-10.98,2.48-2.89,6.25-4.36,10.02-4.19l-.24-6.57-95.97,34.35,32.61,20.83c-1.78-3.9-3.6-6.46-5.82-9.75-3.89.47-9-2.42-8.33-6.92.87-5.87,8.01-10.98,13.79-9.62,4.38,1.03,5.57,6.9,3.43,10.55l8.66,13.55c.64,1.01.88,3.48.31,4.61-.51,1.01-2.04,1.87-4,2.87l10.91,7,6.15-2.77c-4.7-.96-8.21-3.04-9.99-7.12-1.28-2.93-.81-6.09.92-8.25,1.98-2.47,4.92-3.21,8.37-2.82l11.57-13.05c.74-.84,2.54-1.84,3.5-1.84s2.76.95,3.56,1.62c2.16,1.8,2.52,4.24.81,6.31l-11.48,13.9c1.32,3.53.82,6.62-2.51,9.41l24.34-9.65c-2.57-1.1-5.54-2.42-7.38-5.15-1.07-1.59-1.05-5.82-.21-7.67,2.22-4.94,8.13-6.06,14.03-5.12,2.07.33,5.42,2.49,6.47,4.41,2.4,4.34.39,10.62-4.11,12.67-1.85.84-4.95.58-6.85.63ZM132.98,80.78l4.19-2.75c-.78-3.26-3.33-4.86-6.5-5.24-3.52-.43-7.02-.22-9.22,2.77l3.05,4.24,8.47.98ZM123.25,82.49c-.57-2.15-1.15-3.29-2.02-4.55-1.33,2.16-.38,4,2.02,4.55ZM133.32,84.71c2.11.11,4.77-2.41,3.67-4.48-1.92.93-3.81,2.3-3.67,4.48ZM131.49,85.87l.48-3.27-7.01-.89-.1,3.05,6.63,1.11ZM160.95,100.3l-8.7-5.47c-2.02-1.27.24-7.03-2.69-10.02-.93-.95-3.97-2.15-5-1.22-5.26,4.74-7.96,11.29-7.62,18.31,1,1.51,4.27,2.63,5.97,2.11,3.61-3.89,5.19-8.36,7.23-13.07.38,3.18-1.07,5.85-2.43,8.77,5.8-1.5,9.08,4.91,13.25.59ZM131.49,88.45l-6.97-.85c1.99,2.17,4.88,2.29,6.97.85ZM131.6,90.96l-7.89-1.2c2.09,2.75,5.58,2.55,7.89,1.2ZM130.9,93.47l-6.94-.84c1.5,2.37,5.14,2.48,6.94.84ZM57.23,101.55l-2.53-1.48c-1.4.9-1.86,4.34-.1,4.66,7.18,1.3,13.79-6.51,11.93-9.07-1.45-2-7.75-1.03-10.86,3.5,1.68.47,4.17-1.44,4.79-2.83.18-.4,1.75-.64,1.7-.26l-.22,1.86,2,.32c.34.05.18.86.05,1.49-2.39-.26-4.61,1.44-5.26,3.1-.18.46-1.63.89-1.54.49.06-.29.28-1.64.02-1.79ZM85.75,134.09l.4,45.31,93.63-43.36.54-39.87-34.28,13.97c.11,9.13-6.62,16.31-15.61,16.37-4.15-.33-7.72-2.05-9.93-6.29l-34.75,13.87ZM108.29,101.31c-.07-2.67-2.3-3.81-4.32-3.1l4.32,3.1ZM106.73,103.65c.33-2.41-2.52-4.3-4.79-3.3l4.79,3.3ZM83.5,179.03l-.71-45.09-52.19-33.51.95,42.77,51.96,35.83ZM128.47,108.95l3.06-4.18c-3.89-5.18-14.69-5.19-17.26.15,1.28.96,3.81,3.59,5.41,3.66l8.79.37ZM57.71,107.24c4.24.56,7.72-2.06,9.29-5.38-3.09,2.54-5.98,4.32-9.29,5.38ZM104.8,105.93c.35-3.93-3.57-4.37-4.98-3.32l4.98,3.32ZM103.11,108.25c.09-1.3-.62-2.7-1.72-3.34-.9-.52-2.47-.56-3.73-.13l5.45,3.47ZM62.71,109.2c2.59.42,4.31-1.66,4.83-3.61l-4.83,3.61ZM101.27,108.93c-.71-1.32-4.02-3.3-5.11-2.01l4.79,3.53c.1-.06.45-1.27.32-1.52ZM63.61,111.44c3.31.97,5.12-1.79,5.25-4.07l-5.25,4.07ZM117.6,109.92l-3.61-2.71c-1.1,3.74,1.4,5.39,4.28,6.81.08-.59.18-3.46-.67-4.1ZM130.03,112.91c1.47-2.36,1.71-3.27,1.5-4.94-1.72,1.27-2.34,3.37-1.5,4.94ZM99.18,112.77c.34-3.78-3.19-4.53-4.99-3.89l4.99,3.89ZM65.2,113.87c3.21.78,5.44-1.75,5.1-4.27l-5.1,4.27ZM97.24,114.81c-.21-3.62-2.64-4.32-4.77-3.78l4.77,3.78ZM127.87,114.87l.33-4.09-8.37-.14.27,4.24h7.77ZM68.06,116.66c2.1-.06,4.58-2.74,3.75-4.84-1.16,1.25-2.56,2.56-3.94,3.39l-1.07.64c-.18.11,1.04.81,1.26.8ZM88.08,112.73c-1.53-.44-2.8-.07-3.87.93l3.87-.93ZM90.53,112.32l-1.42,1.83,4.81,3.73,1.42-1.83-4.81-3.73ZM68.44,118.72c3.23,1.45,5.51-1.8,4.99-4.19l-4.99,4.19ZM92.89,125.59c2.61-2.82.03-6.55-2.34-8.23-2.4-1.7-5.12-2.88-8.16-.71-.89,2.22.85,5.95,2.87,7.57,1.75,1.41,5.92,3.21,7.63,1.37ZM70.13,121.43c2.79.19,5.05-2.09,4.96-4.67l-4.96,4.67ZM95.69,122.74c1.95-1.74.77-3.12-.18-4.12l.18,4.12Z"/>
        <path d="M101.33,167.14c.03,1.52-2.65,2.58-3.77,2.69s-4.03-.72-4.08-1.92l-.86-22.32c-2.83-.71-4.64-5.11-2.52-7.5,2.83-3.19,8.11-4.16,12.07-2.52,1.35.56,1.88,3.06,1.62,4.5-.21,1.12-1.42,2.53-2.91,3.7l.46,23.38ZM95.6,136.94c-1.66.63-3.25,1.42-4.97,2.91,4.31,1.45,7.82.47,11.69-2.04-2-1.49-4.31-1.46-6.32-.93l.61.25,2.43,1.67-5.56.83c1.03-1.17,1.51-1.47,2.55-2.13l-.43-.56ZM91.67,142.72c3.72,1.98,7.82.25,10.3-1.96-3.7.94-6.85,1.48-10.3,1.96ZM94.82,150.88c1.52-.27,3.43-.64,3.9-1.52s.36-3.17.29-4.59l-4.65.65.46,5.46ZM98.81,152.67l.3-1.64-4.85,2.1,4.55-.46ZM94.47,155.27c2.2,1.35,4.38.05,4.86-1.69l-4.86,1.69ZM94.62,158.13c.96.18,2.47.28,3.26.05.6-.18,1.16-1.37,1.41-2.15l-4.67,2.09ZM98.84,160.44c.24-.02-.04-1.52-.28-1.4l-3.66,1.78,3.93-.38ZM94.95,163.31c2.17,1.14,3.58.31,4.43-1.72l-4.43,1.72ZM99.03,164.63l-4.01,1.12c1.49,1.43,3.23.66,4.01-1.12Z"/>
        <path d="M175.34,112.13c-1.46,8.96,2.63,21.07-2.7,23.26-.92.38-3.73-.15-3.96-1.16l-.76-19.81c-1.08-.89-2.44-2.18-2.64-3.21-.29-1.47.29-3.57,1.47-4.58,2.51-2.14,6.86-3.53,9.57-1.76,3.02,1.97-.11,5.41-.98,7.27ZM167.27,109.57c3.57.2,6.06-.83,8.45-2.97l-1.56-.91c-.35-.21-1.82.38-1.23.45.31,1.39-.74,2.21-1.74,2.33-.65.08-1.72-.27-2.76-.73-.39-.15-1.38,1.38-1.15,1.83ZM166.93,111.69c3.28,1.8,6.93.01,8.88-2.3l-8.88,2.3ZM169.93,118.44c.87-.05,2.59-.46,3.09-1.22.42-.65.38-2.41.33-4.06l-3.73.97.32,4.3ZM172.24,121.25l-2.26,1.5,1.99.04c.33,0,.34-.9.27-1.54ZM169.6,124.7c2.01,1.79,3.04.19,3.49-1.15l-3.49,1.15ZM173.71,127.9l-3.81,1.54c1.83.66,3.15-.04,3.81-1.54Z"/>
        <path d="M116.64,158.39c-1.96,2.26-4.88,3.65-8.42,4.48l-.3-20.43c2.14-1.82,5.98-3.66,8.28-2.39,2.98,1.65,1.25,5.68.61,7.85,2.06,3.08,2.91,6.94-.17,10.49ZM110.87,148.82c3.62-.19,4.64-3.41,3.49-5.57-.53-.39-3.32.1-3.35.91l-.14,4.65ZM111,158.4c3.35-.17,5.78-3.96,4.16-6.57-.56-.9-4.04-.12-4.06,1l-.11,5.57Z"/>
        <path d="M128.01,133.55c6.48.71,4.4,23.34-3.58,22.34-6.7-.84-4.84-23.27,3.58-22.34ZM127.68,137.44c-6.01-.98-4.96,15.04-2.06,14.87s4.53-9.6,2.06-14.87Z"/>
        <path d="M157.78,141.07c-1.08.37-3.31-.43-3.69-1.27-.53-1.17-.14-2.78.96-4.29l2.19,2.21c2.29-.34,4.06-2.98,2.87-5.38l-4.96-1.91c-1.37-1.99-1.32-4.58-.42-6.81.74-1.83,2.9-3.99,5.22-4.14.79-.05,2.21.96,2.56,1.59s-.33,2.57-1.06,2.48c-1.06-.13-2.51-.4-3.23-.29s-1.32,1.9-1.34,2.63c-.09,2.77,6.14,1.38,6.33,6.43.14,3.74-1.32,7.33-5.44,8.75Z"/>
        <path d="M148.7,144.13c0,.62-1.04,1.78-1.49,1.81-.56.04-1.36-1.12-1.36-1.7v-15.1s-3.18.94-3.18.94c-.37.11-1.04-1.37-.85-1.74.25-.5.98-1.46,1.55-1.69l8.52-3.59c.46,1.21.76,2.62.26,2.85l-3.26,1.52-.19,16.7Z"/>
        <path d="M142.82,144.65c.3.47.62,2.07.25,2.52s-1.4,1.28-2.02,1.53l-6.54,2.63-.17-19.71.94-1.51c.25-.41,1.4-.09,1.97.18l.12,16.53,5.44-2.17Z"/>
        <path d="M82.22,106.06c-5.97-2.48-8.52-10.22-6.41-15.69,1.76-2.14,5.1-3.17,7.59-4.01l4.17,2.5c7.56-3.52,14.99-7.01,22.84-10.2,2.47-1,4.85,1.59,5.6,3.58.64,1.71.35,4.86-1.84,5.92l-21.92,10.58c-.33,1.49-.59,4.05-1.64,5.21-1.39,1.55-5.93,3.13-8.38,2.11ZM113.7,85.47c1.25-2.59-.62-4.48-2.7-4.79l2.7,4.79ZM111.21,87.38c1.83-2.92-.65-5.7-2.81-5.29l2.81,5.29ZM108.58,88.7c1.76-3.06-.71-5.74-3.19-5.66l3.19,5.66ZM105.83,89.97c1.57-3.2-.34-5.77-3.2-5.68l3.2,5.68ZM103.24,91.12c1.44-3-.91-5.63-3.43-5.56l3.43,5.56ZM100.36,92.6c1.04-1.54.9-2.97.08-4.1-.59-.8-1.87-1.51-3.16-1.78l3.08,5.88ZM97.93,93.84c1.63-2.98-1.27-6.11-3.45-5.61l3.45,5.61ZM86.17,90.79l-3.52-2c-.25-.14-1.56.74-1.33.92l1.19.94c1.2.95,2.02,1.46,3.67.14ZM95.29,94.85c1.44-3.17-1.18-5.53-3.5-5.57l3.5,5.57ZM93.13,95.49c.19-2.23-.88-4.95-3.96-5.34l2.03,4.82.73,1.34c.1.19,1-.62,1.2-.82ZM85.09,97.68c-1.31-3.71-3.39-6.71-7.41-6.8-1.69,5.12.89,11.64,5.88,13.61,2.52-1,2.33-4.54,1.52-6.81ZM87.78,99.49c3.53-1.12-.13-7.21-.57-6.94l-1.87,1.13,2.44,5.81ZM89.33,101.87c.19-.23.51-1.41.25-1.33l-1.32.4-.95,1.18c-.22.28.71,1.34.94,1.06l1.09-1.31Z"/>
        <path d="M78.19,149.5c-2.89,2.13-6.42.67-7.77-2.14l.38-15.41c7.71,2.6,9.89,10.54,7.39,17.55ZM72.95,135.99l-.03,10.47c0,.78,2.15,1.58,2.6,1.07,2.46-2.82,1.5-9.47-2.57-11.54Z"/>
        <path d="M41.65,139.05c-.08,1.43,2.31,4.79-.6,5.67-1.71.52-4.92-1.71-6.46-3.29v-12.45c6.9,3.15,7.36,4.6,7.06,10.07ZM39.99,135.73c-.81-1.58-1.62-2.45-2.96-3.63l.07,3.41c.01.56,1.96.71,2.89.22ZM40.06,142.11c.16-2.1-.72-3.42-2.92-4.43-.25.57-.37,2.43-.13,3.39.2.82,2.39,1.47,3.05,1.03Z"/>
        <path d="M58.89,132.9l-3.7-1.83c-2.24,6.64,6.17,5.62,4.17,9.69l-6.77-4.17.46-16.35,6.58,3.99c.3.18.68,2.07.32,2.1l-1.34.09-3.5-2.21c-.15,1.4-.22,3.62.47,4.37,1.14,1.23,3.61.43,3.3,4.33Z"/>
        <path d="M45.61,126.17l-.2,4.52c-.24.2-1.38.47-1.58.17s-.66-1.41-.64-1.91l.37-14.31c4.68,1.09,7.59,4.5,7.64,8.99.01.87-.49,2.6-1.18,2.95-.81.4-2.5.02-4.41-.4ZM48.77,122.97c.34-1.56-1.12-4.35-2.96-4.81l-.13,3.62c-.02.59.65,1.61,1.03,2.01.28.3,1.95-.32,2.06-.82Z"/>
        <path d="M68.02,138.8l-3.95-1.64c-1.89,6.47,5.66,4.9,4.21,9.43l-6.81-4.17.35-16.17c8.01,2.96,8.21,7.1,5.74,5.79l-3.39-1.79c-1.87,5.75,4.27,4.04,3.85,8.54Z"/>
        <path d="M40.41,126.4c-1.08,1.36-4.04-.17-4.92-1.45-1.03-1.5-2.37-3.01-.74-5.26l2.06,3.47,1.24.98c.54.42,2.36-1.61-1.55-6.2-1.83-2.15-3.29-5.55-1.04-7.86.75-.77,3.47.17,4.2,1.07,1.01,1.23,1.6,2.57,1.29,4.62l-3.95-3.8c-1.88,4.27,7.46,9.34,3.42,14.42Z"/>
        <path d="M51.43,151.06c-.73,1.14-3.82-.08-4.71-1.11-2.85-3.3-4.16-8.2-1.61-12.2.75-1.18,3.86-.19,4.87.93,2.86,3.19,4.18,8.12,1.46,12.37ZM49.49,149.09c2.02-2.86,1.32-8.09-2-9.64-2.57,2.52-1.79,8.92,2,9.64Z"/>
        <path d="M74.78,169.18c-1.86-.71-4-3.33-4.48-4.88-.09-.28,1.14-1.51,1.29-1.27l.96,1.59c.68,1.13,1.94,2.44,3.37,2.24-.37-4.28-7.76-9.48-3.74-11.72,2.57-1.43,6.78,2.17,5.98,5.19-.86-.33-2-1.24-2.45-1.82l-.74-.96c-.21-.27-1.35-.33-1.3,0,.45,3.63,6.7,7.15,4.28,11.05-.41.66-2.16.96-3.17.57Z"/>
        <path d="M66.42,162.87c-2.29-.24-2.23-1.91-2.2-3.78l.15-8.54c-1.75-.68-3.63-1.36-2.69-3.66l8.47,5.6c.25.16-.64,1.57-.91,1.42l-2.36-1.29-.46,10.26Z"/>
        <path d="M57.09,154.9c1.98,1.29,5.01,1.63,4.38,4.81l-6.75-4.31.3-12.58c1.03.01,2.24,1.2,2.23,2.02l-.16,10.05Z"/>
        <path d="M139.05,101.88c-3.67-5.27,4.05-18.26,7.45-16.71,2.97,1.35-.62,13.38-7.45,16.71ZM139.76,99.54c3.47-3.44,5.63-8.01,5.93-12.7-3.97,3.24-5.63,7.78-5.93,12.7Z"/>
        <path d="M90.34,124.63l-5.89-4.11c-.31-.21-.55-1.29-.56-1.65-.01-.48,1.52-.26,1.93.02l5.52,3.79c.3.2.77.92.93,1.2.21.37-1.53,1.04-1.94.75Z"/>
        <path d="M127.42,106.67c-4.23,2.17-9.96.66-10.03-2.05-.08-3.39,9.32-4.01,11.1-.48.28.55-.48,2.23-1.07,2.53ZM127.12,104.79c-1.72-2.23-6.03-2.8-8.21-.16,2.73-1.11,4.84-.89,8.21.16ZM123.96,106.08c-.35-1.46-2.25-1.6-2.51-.19l2.51.19Z"/>
        <path d="M134.67,76.64c.16,2.48-5.72,4.06-9.51,1.23-.43-.32-1.08-1.41-1.13-1.89-.25-2.28,5.58-4.08,9.57-1.22.45.32,1.05,1.41,1.08,1.88ZM132.91,76.05c-2.14-1.57-5.49-2.27-7.97-.21l7.97.21ZM130.94,77.46l-.34-.53-3.46.17.34.53,3.46-.17Z"/>
        <path d="M83.33,102.97c-3.89-2.32-5.24-10.58-4.31-10.02l1.43.86c.78,2.91,3.13,5.97,2.87,9.16Z"/>
      </g>
    </g>
  </g>
</svg>