<?xml version="1.0" encoding="UTF-8"?>
<svg id="Layer_2" data-name="Layer 2" xmlns="http://www.w3.org/2000/svg" viewBox="0 0 198.42 151.4">
  <defs>
    <style>
      .cls-1 {
        fill: #fff;
      }
    </style>
  </defs>
  <g id="Layer_1-2" data-name="Layer 1">
    <g>
      <g>
        <path class="cls-1" d="M76.52,148.9c-.27,0-.55-.04-.81-.13l-28.88-9.87-36.76-11.76c-2.17-.72-4.31-3.32-4.95-5.3-.06-.2-.1-.4-.12-.61l-2.51-39.19c0-.14,0-.28,0-.42.04-.43.07-.93.1-1.47.18-3.11.43-7.38,3.52-9.32,23.33-14.82,47.63-28.08,71.12-40.9,4.78-2.61,9.57-5.22,14.37-7.86L124.19,4.17c1.99-1.09,4.3-1.67,6.7-1.67,1.13,0,2.26.13,3.36.39l53.99,12.54c4.3,1,6.8,3.61,7.64,8,.03.17.05.35.04.53l-.91,40.77c0,.42-.12.83-.33,1.19-1.29,2.24-2.77,4.51-4.77,5.91l-102.91,71.66c-.07.05-.15.1-.23.14l-9.05,4.96c-.37.2-.79.31-1.2.31Z"/>
        <path class="cls-1" d="M130.89,5c.94,0,1.88.11,2.79.32l53.99,12.55c3.3.77,5.1,2.62,5.75,6.03l-.91,40.77c-.99,1.71-2.33,3.91-4.04,5.11l-102.91,71.66-9.05,4.96-28.88-9.87-36.8-11.78c-1.31-.43-2.91-2.4-3.33-3.69l-2.51-39.19c.26-2.53.03-7.39,2.46-8.93,27.91-17.73,56.45-32.81,85.36-48.68L125.4,6.36c1.65-.91,3.56-1.36,5.49-1.36M130.89,0c-2.81,0-5.55.69-7.9,1.99l-32.57,17.89c-4.79,2.63-9.58,5.24-14.35,7.85-23.53,12.84-47.87,26.12-71.29,41C.63,71.33.32,76.54.12,79.99c-.03.52-.06,1.01-.1,1.35-.03.28-.03.56-.02.84l2.51,39.19c.03.41.1.82.23,1.22.84,2.61,3.51,5.91,6.52,6.9l36.8,11.78,28.83,9.86c.53.18,1.07.27,1.62.27.83,0,1.66-.21,2.4-.61l9.05-4.96c.16-.09.31-.18.46-.28l102.91-71.66c2.41-1.69,4.07-4.22,5.51-6.71.42-.73.65-1.55.67-2.39l.91-40.77c0-.35-.02-.71-.09-1.05-1.02-5.3-4.31-8.75-9.53-9.96L134.82.45c-1.28-.3-2.6-.45-3.93-.45h0Z"/>
      </g>
      <g>
        <path d="M76.52,146.4l-28.89-9.87-36.8-11.79c-1.31-.42-2.91-2.38-3.33-3.68l-2.5-39.19c.27-2.53.03-7.39,2.46-8.93,27.9-17.72,56.46-32.8,85.37-48.68L125.4,6.36c2.45-1.35,5.46-1.7,8.28-1.04l53.99,12.55c3.29.76,5.08,2.61,5.74,6.03l-.9,40.76c-.99,1.72-2.33,3.92-4.04,5.12l-102.91,71.66-9.04,4.96ZM63.76,88.19l64.3-40.89,44.92-28.34-43.38-10.15-35.67,19.96c-27.53,14.46-54.02,29.37-81.2,45.77l25.82,6.91,25.2,6.74ZM76.5,91.59l53.41-34.66,55.01-34.97-7.36-1.83-30.98,19.77-78.57,49.34c3.13,1.26,5.37,1.87,8.5,2.36ZM78.59,103.47l46.2-30.07,63.79-41.06.09-7.53-56.16,35.59-54.29,34.79.37,8.28ZM121.63,111.38l48.66-33.91,17.8-13,.93-27.28-43.4,27.68-67.18,43.09.29,33.29,42.9-29.87ZM74.13,108.32l-12.2-4.16-.33-11.59-52.1-14.47,2.29,42.87c21.35,6.08,41.52,12.71,62.74,20.05l-.4-32.7ZM74.22,104.1v-8.17s-8.99-2.48-8.99-2.48l.26,8.17,8.74,2.49Z"/>
        <rect x="34.69" y="65.7" width="9.75" height="2.19" transform="translate(-19.03 15.87) rotate(-18.36)"/>
        <path d="M42.58,71.12l-8.44,1.93c1.6-3.74,6.35-4.55,8.44-1.93Z"/>
        <path d="M72.18,72.85c-.26.3-2-.11-1.82-.45l.77-1.5c.14-.28.89-.79,1.19-.82.44-.04,1.53.86,1.24,1.2l-1.37,1.57Z"/>
        <rect x="126.8" y="18.83" width="3.8" height="1.89" transform="translate(24.5 97.85) rotate(-45.58)"/>
        <path d="M137.59,24.1c.66.07,1.79.21,1.66.47l-.75,1.5c-.19.38-2.05.32-1.86-.06l.95-1.91Z"/>
        <rect x="133.71" y="15.76" width="3.06" height="1.96" transform="translate(20.3 89.95) rotate(-39.55)"/>
        <rect x="179.78" y="58.77" width="4" height="2.24" transform="translate(64.11 210.83) rotate(-70.3)"/>
        <path d="M178.68,62.57c-.8-.81-1.72-2.24-1.33-2.58l1.88-1.66-.55,4.24Z"/>
        <path d="M180.05,53.44c-.52-.03-2.91-.31-2.68-.49l1.25-1.02c.27-.22,1.6-.29,1.95-.31.51-.03-.02,1.85-.52,1.82Z"/>
        <path d="M46.69,127l-23.77-6.39-1.39-1.14c-.43-.35.41-1.72.83-2.04l23.48,6.09,1.36.87c.39.25-.02,1.35-.51,2.6Z"/>
        <path d="M64.12,131.98l-11.99-3.17c-.52-.14-1.58-1.21-1.86-1.59-.36-.49,1.18-2.07,1.83-1.89l12.63,3.48c.65.18,1.57,1.34,1.69,1.91s-1.73,1.41-2.31,1.26Z"/>
      </g>
    </g>
  </g>
</svg>