<?xml version="1.0" encoding="UTF-8"?>
<svg id="Layer_2" data-name="Layer 2" xmlns="http://www.w3.org/2000/svg" viewBox="0 0 222.56 145.84">
  <defs>
    <style>
      .cls-1 {
        fill: #fff;
      }
    </style>
  </defs>
  <g id="Layer_1-2" data-name="Layer 1">
    <g>
      <g>
        <g>
          <path class="cls-1" d="M54.93,142.84c-.33,0-.65-.06-.96-.19-2.71-1.13-5.11-4.69-4.94-7.34.03-.46.18-.9.45-1.27l.8-1.14-9.4,1.31c-.11.02-.23.02-.34.02-.06,0-.13,0-.19,0-1.75-.13-3.08-1.61-3.88-2.83-.6-.9-1.92-3.22-1.26-5.19.09-.27.22-.52.4-.74l2.49-3.19c-.82-.32-1.62-.7-2.4-1.11l-16.91,4.32c-.26.07-.54.1-.82.1-.75,0-1.89-.26-3.08-1.5-1.11-1.16-2.21-3.15-2.14-4.71.06-2.2,1.74-4.52,2.46-5.41l4.69-5.81c-.74-.49-1.35-1.14-1.63-2.08-.11-.38-.21-.87-.22-1.68l-10.7,2.14c-.16.03-.33.05-.49.05-1.1,0-2.1-.73-2.41-1.82l-1.83-6.51c-.3-1.07.14-2.21,1.08-2.8l11.46-7.17-.68-2.91c-.26-1.13.29-2.29,1.32-2.81l34.48-17.1c.53-3.04,2.12-5.1,4.85-6.27l68.34-29.23c11.86-5.07,22.2-10.63,32.55-17.5,10.12-6.71,19.25-9.98,27.93-9.98,7.55,0,14.67,2.57,21.18,7.64,10.69,8.32,15.82,19.25,14.82,31.62-1.6,19.89-17.99,35.58-33.91,44.34,2.23,1.94,4.33,4.03,5.38,6.75,2.06,5.35.1,11.3-5.38,16.34-3.29,3.03-6.73,4.63-9.94,4.63h0c-1.49,0-2.93-.34-4.28-1-3.52-1.75-6.98-5.06-9.77-9.32-.89-1.38-1.08-3.01-.95-4.71l-54.25,25.79c-.34.16-.71.24-1.07.24-.68,0-1.34-.28-1.83-.79l-3.14-3.36-15.67,7.89-29.13,14.04c-.34.17-.71.25-1.09.25Z"/>
          <path class="cls-1" d="M183.94,5c6.65,0,13.25,2.13,19.65,7.11,9.29,7.22,14.85,17.25,13.87,29.45-1.57,19.56-18.63,35.55-35.87,44.04,2.93,2.53,6.26,4.94,7.5,8.15,2,5.17-1.04,10.2-4.74,13.6-2.24,2.06-5.18,3.97-8.25,3.97-1.05,0-2.11-.23-3.17-.75-3.49-1.74-6.55-5.04-8.78-8.45-1.16-1.79-.37-4.84.33-7.71l-58.71,27.91-4.41-4.73-17.34,8.73-29.09,14.02c-1.77-.74-3.5-3.34-3.4-4.87l4.09-5.84-15.08,2.1c-1.33-.1-3.38-3.5-2.97-4.73l4.74-6.09c-2.15-.4-4.38-1.29-6.26-2.43l-17.89,4.57c-.07.02-.13.03-.2.03-1.22,0-2.77-2.57-2.73-3.6.03-1.16.95-2.75,1.91-3.95l6.68-8.27c-1.36-.6-2.92-1.08-3.18-1.92-.25-.85-.04-2.84.1-4.04l-13.9,2.78-1.83-6.51,12.97-8.11-1.08-4.65,35.7-17.7c.16-2.7,1.04-4.55,3.51-5.61l68.34-29.23c11.82-5.05,22.34-10.67,32.95-17.71,8.74-5.8,17.69-9.56,26.55-9.56M183.94,0c-9.18,0-18.77,3.4-29.31,10.39-10.22,6.78-20.43,12.27-32.15,17.28l-68.34,29.23c-3.14,1.34-5.16,3.64-6.05,6.86l-33.42,16.57c-2.08,1.03-3.17,3.35-2.65,5.61l.27,1.17-9.95,6.22c-1.88,1.18-2.76,3.45-2.16,5.59l1.83,6.51c.62,2.19,2.61,3.65,4.81,3.65.32,0,.65-.03.98-.1l8.23-1.64c.14.35.31.67.5.96l-3.3,4.09c-1.09,1.36-2.92,4.04-3.01,6.91-.09,2.53,1.47,5.09,2.84,6.51,1.8,1.87,3.65,2.27,4.89,2.27.5,0,.99-.06,1.47-.19l13.92-3.56c-.21.34-.38.69-.51,1.07-.98,2.91.55,5.86,1.55,7.37,1.6,2.41,3.6,3.78,5.78,3.94.13,0,.25.01.38.01.23,0,.46-.02.69-.05l5.31-.74c.19,3.53,3.05,7.6,6.48,9.02.61.26,1.27.38,1.92.38.74,0,1.49-.17,2.17-.5l29.09-14.02s.05-.02.08-.04l14-7.04,1.86,1.99c.97,1.04,2.3,1.59,3.66,1.59.73,0,1.46-.16,2.15-.48l51.01-24.25c.22.77.55,1.53,1.01,2.25,3.04,4.65,6.85,8.27,10.75,10.21,1.71.85,3.52,1.27,5.4,1.27,3.84,0,7.86-1.83,11.63-5.29,6.28-5.77,8.47-12.72,6.02-19.08-.8-2.08-2.09-3.82-3.54-5.35,7.27-4.36,13.74-9.65,18.94-15.56,7.89-8.94,12.48-19,13.29-29.08,1.05-13.06-4.55-25.06-15.78-33.8-6.95-5.42-14.6-8.16-22.72-8.16h0Z"/>
        </g>
        <g>
          <path class="cls-1" d="M90.29,143.34c-1.1,0-2.62-.58-3.39-1.3l-4.12-3.82c-.96-.89-1.07-2.36-.26-3.38l7.79-9.88c.96-1.22,3.08-1.81,3.1-1.81.2-.05.45-.08.66-.08.52,0,1.5.16,2.32,1.2.62.8,1.35,2.55,1,3.93l-3.02,11.55c-.29,1.14-1.82,3.12-3.33,3.5-.24.06-.5.09-.76.09Z"/>
          <path class="cls-1" d="M94.07,125.57c.46,0,1.02,1.51.9,2.02l-3.01,11.53c-.13.52-1.11,1.61-1.52,1.71-.04.01-.09.02-.15.02-.48,0-1.38-.35-1.68-.63l-4.12-3.82,7.79-9.88c.29-.37,1.38-.85,1.74-.94.02,0,.03,0,.05,0M94.07,120.57c-.45,0-.89.06-1.32.17h0c-.41.11-2.98.88-4.4,2.68l-7.79,9.87c-1.61,2.05-1.39,4.99.53,6.76l4.12,3.82c1.21,1.13,3.35,1.96,5.08,1.96.47,0,.93-.06,1.36-.16,2.42-.6,4.62-3.24,5.15-5.32l3-11.5s0-.03.01-.05c.55-2.19-.37-4.68-1.46-6.08-1.07-1.37-2.64-2.16-4.29-2.16h0Z"/>
        </g>
        <g>
          <path class="cls-1" d="M15.27,141.36c-.21,0-.42-.03-.63-.08-3.51-.92-5.98-4.91-5.39-8.71.14-.88.73-1.63,1.57-1.95l10.41-4.04c.35-.14.74-.21,1.15-.21,1.15,0,2.97.65,3.91,1.71.58.66.85,1.46.75,2.28-.13,1.11-.96,2.88-1.98,3.72l-8.19,6.71c-.45.37-1.01.57-1.58.57Z"/>
          <path class="cls-1" d="M22.37,128.87c.74,0,2.23.69,2.17,1.19-.07.56-.64,1.72-1.09,2.1l-8.18,6.7c-2.17-.57-3.96-3.3-3.56-5.91l10.41-4.04c.07-.03.15-.04.25-.04M22.37,123.87c-.73,0-1.43.13-2.07.38l-10.39,4.03c-1.67.65-2.86,2.13-3.14,3.9-.78,5.1,2.46,10.26,7.23,11.51.42.11.84.16,1.26.16,1.14,0,2.26-.39,3.17-1.13l8.18-6.7c1.63-1.35,2.7-3.77,2.89-5.37.18-1.53-.3-3.04-1.36-4.23-1.49-1.67-4.03-2.55-5.78-2.55h0Z"/>
        </g>
        <g>
          <path class="cls-1" d="M32.1,73.57c-1.02,0-1.83-.16-2.5-.5-2.13-1.09-2.3-4.47-2.01-5.7.25-1.06,1.15-1.84,2.24-1.92,1.3-.1,2.34-.15,3.35-.15,1.94,0,3.89.17,6.32.55.9.14,1.66.76,1.97,1.62.31.86.12,1.82-.48,2.51-2.34,2.64-6.59,3.59-8.88,3.59Z"/>
          <path class="cls-1" d="M33.17,67.8c1.7,0,3.51.14,5.94.52-1.59,1.79-4.94,2.75-7.01,2.75-.59,0-1.07-.08-1.38-.23-.59-.3-.88-2.14-.7-2.9,1.09-.09,2.1-.14,3.16-.14M33.17,62.8c-1.09,0-2.18.05-3.55.16-2.17.17-3.98,1.72-4.48,3.84-.45,1.91-.24,6.69,3.3,8.5,1.05.53,2.23.78,3.65.78,3.28,0,8.04-1.39,10.75-4.43,1.21-1.37,1.59-3.29.97-5.01-.62-1.72-2.13-2.97-3.94-3.25-2.57-.4-4.64-.58-6.71-.58h0Z"/>
        </g>
        <g>
          <path class="cls-1" d="M39.81,66.28c-1.77,0-3.4-.12-5.46-.26l-.36-.03c-1.25-.09-2.24-1.09-2.32-2.34-.12-2,.08-3.82.67-6.11.19-.73.7-1.34,1.39-1.65.33-.15.68-.22,1.03-.22.39,0,.77.09,1.13.27l10.39,5.25c.98.5,1.52,1.58,1.33,2.66s-1.07,1.92-2.16,2.05c-2.13.26-3.86.38-5.63.38Z"/>
          <path class="cls-1" d="M34.75,58.18l10.39,5.25c-2.13.26-3.77.36-5.33.36-1.78,0-3.46-.13-5.65-.28-.11-1.79.08-3.34.59-5.33M34.75,53.18c-.7,0-1.41.15-2.06.44-1.38.62-2.4,1.84-2.78,3.3-.66,2.55-.88,4.61-.74,6.89.16,2.5,2.14,4.5,4.64,4.68l.36.03c2.12.15,3.79.27,5.64.27s3.71-.12,5.94-.4c2.19-.27,3.94-1.93,4.32-4.1.38-2.17-.71-4.33-2.67-5.32l-10.39-5.25c-.71-.36-1.48-.54-2.26-.54h0Z"/>
        </g>
        <g>
          <path class="cls-1" d="M100.17,135.47c-.49,0-1.44-.04-2.32-.34-1.27-.43-1.98-1.78-1.61-3.06l1.77-6.12c.23-.79.83-1.42,1.62-1.68.26-.08.52-.13.78-.13.54,0,1.08.18,1.52.51,2.44,1.86,3.06,5.5,2.61,8.1-.14.82-.86,2.72-4.36,2.72h0Z"/>
          <path class="cls-1" d="M100.41,126.64c1.49,1.13,2,3.72,1.66,5.68-.08.44-.97.65-1.9.65-.55,0-1.11-.07-1.53-.21l1.77-6.12M100.41,121.64c-.53,0-1.06.08-1.57.25-1.57.52-2.78,1.77-3.23,3.36l-1.77,6.12c-.74,2.57.67,5.28,3.21,6.13,1.16.39,2.34.47,3.12.47,4.41,0,6.42-2.47,6.82-4.79.6-3.43-.26-8.01-3.55-10.52-.88-.67-1.95-1.02-3.03-1.02h0Z"/>
        </g>
      </g>
      <g>
        <path d="M40.53,131.72c-1.33-.09-3.37-3.49-2.96-4.72l4.74-6.09c-2.15-.4-4.39-1.29-6.27-2.43l-17.89,4.57c-1.24.32-2.98-2.49-2.94-3.58.04-1.15.95-2.76,1.91-3.95l6.68-8.27c-1.36-.6-2.92-1.08-3.17-1.92s-.04-2.84.09-4.03l-13.9,2.78-1.82-6.51,12.98-8.12-1.08-4.64,35.7-17.7c.16-2.7,1.04-4.55,3.52-5.61l68.34-29.23c11.81-5.05,22.34-10.66,32.95-17.71,15.29-10.15,31.27-14.07,46.18-2.46,9.29,7.23,14.85,17.26,13.87,29.46-1.57,19.56-18.63,35.54-35.87,44.03,2.93,2.53,6.26,4.95,7.5,8.15,2,5.18-1.03,10.2-4.73,13.6-3.01,2.77-7.29,5.27-11.42,3.22-3.49-1.73-6.55-5.03-8.78-8.45-1.17-1.79-.37-4.83.33-7.71l-58.71,27.92-4.41-4.73-17.34,8.73-29.1,14.02c-1.77-.74-3.49-3.35-3.4-4.87l4.09-5.85-15.08,2.1ZM156.62,45.61c0-1.14-.93-2.07-2.07-2.07s-2.07.93-2.07,2.07.93,2.07,2.07,2.07,2.07-.93,2.07-2.07ZM110.66,116.67l66.95-32.58c7.63-3.71,14.19-8.21,20.59-13.4,7.04-6.99,13.37-14.34,15.29-24.25-8.27,19.07-23.43,28.83-41.93,37.83l-56.17,26.76c-2.61,1.25-4.74,3-4.72,5.64ZM138.51,54.05c0-1.14-.92-2.07-2.07-2.07s-2.07.92-2.07,2.07.92,2.07,2.07,2.07,2.07-.92,2.07-2.07ZM163.86,59.16c1.55-.33,2.81-1.71,2.4-2.35-.34-.54-1.95-1.54-2.57-1.4s-1.8,1.33-2.09,1.92,1.53,1.99,2.27,1.83ZM146.47,68.38c.82.1,2.49-2.05,1.86-2.53-.52-.4-1.86-1.07-2.54-1.2-.86-.16-2.69,1.73-2.16,2.4.42.54,1.93,1.22,2.84,1.33ZM94.99,95.05l-14.78,7.25c-5,2.45-10.62,3.72-15.17,7.01-4.55,3.29-8.78,6.39-14.49,7.78l10.09-5.95c4.43-2.61,8.26-5.59,12.99-7.79l17.04-7.9c2.91-1.35,5.55-2.48,7.61-5.68-3.77-.16-7.28.94-10.63,2.69-6.86,3.6-13.65,6.24-20.99,8.81-4.72,1.65-8.26,5.5-13.27,6.81,4.23-3.22,8.65-6.6,13.65-8.51,6.79-2.59,13.36-4.42,19.91-8.28-3.45-.6-7.81-1.43-11.02-.27-3.59,1.29-6.26,2.97-10.08,3.33l5.86-3.88-6.62.34,6.06-8.31c-7.49,3.92-13.45,8.03-21.28,10.53,7.62-5.79,18.79-8.52,25.68-17.03l-16.68.62-1.11-3.54-21.13,10.39-.61-.77,18.52-9.53c2.64-1.36,4.9-2.41,5.13-5.8l-36.97,17.99,5.09,1.76-14.67,9.09,13.73-3.05c3.27-.73,5.76-3.21,9.59-3.7l-7.35,5.65c-1.49,1.14-3.66,4.31-4.67,5.65l5.17,2.32,10.06-3.96c-1.96,3.34-6.65,3.04-9.25,5.36-3.98,3.55-6.81,7.74-10.26,12.24l19.59-5.9c4.37-1.32,8.46-4.76,12.59-6.3l.62.69-11.74,8.28,8.92,2.24-8.33,10.39,15.12-3.51c2.72-.63,4.45-1,7.87-1.04l-5.94,9.18,22.13-11.76,21.07-9.28c-5.16.05-9.75.89-14.63,2.52-1.59-4.59,4.39-8.21,3.81-9.07l-1.06-1.57,4.82-6.5ZM170.26,104.75c1.94-7.72,6.53-11.84,13.16-13.67-1.09-1.36-3.77-3.46-5.08-3.15-6.72,2.19-13.1,6.48-11.86,12.08.35,1.56,2.39,3.78,3.77,4.74ZM186.71,97.72c.2-.89-.41-3-1.11-3.54s-2.76-.73-3.62-.43c-7.78,2.74-11.32,11.64-8.43,13.88,3.08,2.38,11.36-1.85,13.15-9.92ZM21.47,97.99c1.69-.36,2.92-.89,3.64-2.64l-16.8,4.04v1.42s13.16-2.81,13.16-2.81ZM26.8,104.06l-4.06-1.25,1.77,2.23c.39.5,1.95-.24,2.29-.98ZM82.51,123.54l9.67-4.47,14.14-6.54c-1.13-.66-2.08-.31-3.21.17l-12.38,5.2,11.33-6.34c-5.84,1.54-10.97,3.92-16.07,6.92l-15.25,8.99c-5.42,3.19-11.37,4.69-16.1,9.31l25.03-11.73-4.84.78,5.93-3.34.07,1.96s1.44-.81,1.67-.91ZM18.76,120.13l16.17-4.2c1.27-.33,2.54-1.54,2.73-2.68l-15.83,5.04c-.87.28-2.09,1.04-3.07,1.84ZM108.67,113.64c-1.79.76-3.25,2.4-3.66,4.42,2.02-.82,3.07-2.23,3.66-4.42ZM46.58,116.84l-6.87-1.56c-.11.6-.27,2.36.33,2.51l2.25.54c1.33.32,3.08-.19,4.29-1.49ZM56.76,126.82c.66-.07,1.99-1.34,2.38-2.11-5.48.53-10.01,1.46-14.56,3.36l12.17-1.25Z"/>
        <path d="M91.95,139.12c-.14.53-1.11,1.6-1.51,1.71s-1.5-.3-1.83-.61l-4.13-3.82,7.8-9.88c.29-.36,1.38-.84,1.73-.93.47-.12,1.09,1.49.95,2.02l-3.01,11.52ZM89.86,137.69l2.44-8.66-4.92,6.34,2.48,2.32Z"/>
        <path d="M15.26,138.85c-2.18-.57-3.96-3.29-3.56-5.91l10.42-4.04c.57-.22,2.49.6,2.42,1.15s-.64,1.72-1.09,2.09l-8.19,6.7ZM18.97,132.5l-4.98,1.03,1.73,2.4,3.26-3.43Z"/>
        <path d="M45.13,63.43c-4.54.56-6.85.37-10.97.07-.11-1.79.08-3.34.59-5.32l10.38,5.25ZM38.19,61.69l-1.75-1.41c-.2-.16-.88.6-1.21,1.1l2.97.3Z"/>
        <path d="M39.11,68.32c-2.04,2.3-6.98,3.23-8.39,2.51-.59-.3-.89-2.14-.71-2.9,2.84-.22,5.16-.23,9.1.39Z"/>
        <path d="M102.07,132.32c-.12.71-2.31.81-3.43.44l1.77-6.12c1.49,1.13,2,3.72,1.66,5.68Z"/>
        <path d="M64.69,98.03c-5.19,2.49-9.83.51-14.23,2.12l-20.68,10.05c7.33-4.9,15.06-8.72,23.04-12.4l11.87.24Z"/>
        <path d="M56.39,119.77c5.1-4.27,17.69-8.78,16.36-6.42l-.98,1.74,8.34-3.19-1.45-2.28,7.53-4.41-5.18,4.62-.14,2.92c-2.9,1.93-6.95,3.5-10.24,3.73l-1.01-1.99c-.17-.33-1.38.34-1.65.53l-11.58,4.75Z"/>
        <path d="M40.43,92.95c1.45-2.26,4.17-3.01,6.63-4.4l16.24-9.2c-2.32,3.77-6.03,5.67-9.57,7.54l-13.29,6.07Z"/>
        <path d="M48.51,83.41l-7.6,2.61c3.01-2.84,6.42-4.11,10.32-4.41l-.75,2.62c-.16.57-1.45-.34-1.97-.82Z"/>
        <path d="M182.4,97.34c.81-.13,2.1,3.87-1.08,6.7-.87.78-3.93,1.04-4.53-.04-1.29-2.35,1.33-5.96,3.89-6.38l1.71-.28ZM178.67,102.83l.94.3,2.31-2.74-.61-.57-2.64,3.01Z"/>
      </g>
    </g>
  </g>
</svg>