<?xml version="1.0" encoding="UTF-8"?>
<svg id="Layer_2" data-name="Layer 2" xmlns="http://www.w3.org/2000/svg" viewBox="0 0 145.5 182.15">
  <defs>
    <style>
      .cls-1 {
        fill: #fff;
      }
    </style>
  </defs>
  <g id="Layer_1-2" data-name="Layer 1">
    <g>
      <g>
        <path class="cls-1" d="M129.49,179.65c-2.53,0-4.79-.59-7.55-1.97-.22-.11-.42-.25-.6-.42-3.52-3.35-6.39-6.84-9.01-10.98-4.53-7.14-9.5-14.7-15.89-21.64l-18.55-20.14-20.85-18.58-38.1-31.9-11.93-10.67c-5.42-4.85-5.97-13.55-1.23-19.38,2.22-2.54,7.21-4.61,8.11-4.97l8.89-4.23c1.76-2.3,4.14-4.06,7.42-5.49.1-.05.21-.08.32-.11l10.11-2.86,16.94-7.37c.08-.03.15-.06.23-.09l17.51-5.62,3.5-1.07c.24-.07.49-.11.73-.11.02,0,5.06.12,5.06.12.95-3.19,3.03-5.35,6.33-6.57.61-.23,1.26-.5,1.95-.78,2.6-1.08,5.54-2.31,8.57-2.31.75,0,1.49.08,2.18.23,6.56,1.49,10.33,8.09,11.66,13.76,1.47,6.24.31,11.81-3.01,14.53-3,2.45-6.96,3.85-10.74,4.98,1.19,1.95,2.44,3.89,3.66,5.79,3.75,5.82,7.63,11.84,10.12,18.49,2.41,6.45,4.52,11.86,7.75,17.88,3.75,6.97,6.5,14.46,9.16,21.71.57,1.56,1.15,3.13,1.73,4.69.04.11.08.23.1.35l2.64,12.2c2.84,7.78,3.69,15.34,4.6,23.34.17,1.51.34,3.03.53,4.58l.19,1.55c1.12,9.07,2.18,17.64-2.46,26.34-1.53,2.84-4.49,5.24-6.59,6.28-.23.12-.48.19-.74.23-.98.15-1.89.22-2.76.22Z"/>
        <path class="cls-1" d="M101.47,5c.55,0,1.09.05,1.62.17,9.55,2.17,13.38,19.21,7.62,23.91-3.43,2.8-8.61,4.16-12.95,5.42,5.05,8.83,11.66,17.09,15.23,26.66,2.43,6.5,4.61,12.07,7.89,18.19,4.45,8.28,7.43,17.23,10.76,26.1l2.68,12.37c3.31,8.99,3.87,17.78,5.05,27.52,1.13,9.31,2.52,17.94-2,26.4-1.24,2.3-3.81,4.39-5.49,5.22-.86.13-1.65.19-2.4.19-2.34,0-4.23-.61-6.43-1.7-3.36-3.19-6.12-6.56-8.62-10.5-4.96-7.81-9.9-15.2-16.16-22l-18.63-20.23-20.94-18.66-38.16-31.95-11.86-10.61c-4.72-4.22-4.67-11.37-.95-15.94,1.91-2.18,7.17-4.25,7.17-4.25l9.54-4.54c1.6-2.3,3.86-3.91,6.78-5.19l10.27-2.91,17.09-7.43,17.51-5.62,3.46-1.06,7.08.18c.44-3.55,2.03-5.61,5.18-6.78,2.8-1.04,6.37-2.94,9.65-2.94M101.47,0h0c-3.52,0-6.85,1.39-9.53,2.5-.67.28-1.31.55-1.87.75-3.39,1.25-5.79,3.39-7.17,6.37l-3.22-.08s-.08,0-.12,0c-.5,0-.99.07-1.47.22l-3.46,1.06s-.04.01-.06.02l-17.51,5.62c-.16.05-.31.11-.46.18l-16.78,7.3-9.95,2.81c-.22.06-.43.14-.64.23-3.41,1.49-6.05,3.38-8.02,5.77l-8.3,3.95c-1.68.67-6.51,2.77-8.94,5.55-.04.04-.08.09-.12.14-5.67,6.97-5.01,17,1.5,22.82l11.87,10.62s.08.07.12.11l38.1,31.9,20.7,18.45,18.46,20.05c5.64,6.13,10.16,12.69,15.62,21.29,2.73,4.31,5.72,7.95,9.39,11.45.36.34.77.63,1.21.85,3.13,1.56,5.72,2.23,8.66,2.23,1,0,2.03-.08,3.13-.24.51-.08,1.01-.23,1.48-.46,2.53-1.25,5.89-4,7.68-7.33,5.02-9.41,3.86-18.78,2.74-27.84l-.19-1.54c-.19-1.54-.36-3.06-.53-4.55-.92-8.1-1.78-15.76-4.68-23.76l-2.6-12.03c-.05-.24-.12-.47-.2-.7-.58-1.56-1.16-3.12-1.73-4.68-2.69-7.33-5.47-14.91-9.31-22.03-3.16-5.88-5.23-11.21-7.62-17.58-2.58-6.9-6.53-13.04-10.35-18.97-.66-1.03-1.31-2.03-1.94-3.03,3.01-1.05,5.99-2.4,8.49-4.44,4.08-3.33,5.56-9.86,3.87-17.04-2.3-9.77-8.5-14.48-13.54-15.63-.87-.2-1.79-.3-2.73-.3h0Z"/>
      </g>
      <g>
        <path d="M79.56,14.53l7.08.18c.44-3.56,2.03-5.62,5.18-6.78s7.59-3.59,11.28-2.76c9.54,2.17,13.37,19.21,7.61,23.91-3.43,2.8-8.6,4.16-12.94,5.42,5.05,8.82,11.66,17.09,15.23,26.66,2.43,6.5,4.6,12.06,7.9,18.19,4.45,8.28,7.43,17.22,10.75,26.09l2.67,12.37c3.32,8.99,3.87,17.78,5.05,27.51,1.13,9.32,2.53,17.95-2,26.41-1.23,2.3-3.79,4.39-5.49,5.22-3.56.52-5.93-.07-8.83-1.52-3.36-3.19-6.11-6.56-8.61-10.51-4.96-7.81-9.9-15.2-16.16-21.99l-18.64-20.23-20.94-18.65-38.16-31.96-11.86-10.61c-4.72-4.22-4.67-11.38-.96-15.95,1.9-2.17,7.17-4.25,7.17-4.25l9.54-4.54c1.6-2.3,3.86-3.92,6.78-5.18l10.28-2.9,17.09-7.44,17.5-5.62M109.45,26.7c2.36-7.48-.01-14.9-6.51-18.89-2.45-.05-5.59,1-8.1,2.19,6.46,4.48,9.29,11.63,8.31,19.79l6.29-3.09ZM93.61,27.17c.04,2.08,4.96,4.99,6.41,2.9,4.15-8.21-4.63-20.92-8.9-18.09-1.83,1.22-1.82,4.79-1.25,6.21l4.84-1.38c2.69,1.67,3.91,5.65,2.66,8.32l-3.77,2.03ZM51.62,29.49l13.87-5.08c1.13-.41,3.44,1.24,4.1,1.71l17.78-7.14c-1.73-2.14-4.28-2.1-6.51-1.4l-27.96,8.8-8.59,4.04,4.09,4.14c.39-2.16,1.06-4.28,3.22-5.07ZM79.15,40.19c.67-9.87,6.4-12.59,15.52-16.49,1.1-.47.1-4.16-.95-3.74l-43.99,17.26c.48,1.99.8,3.43,1.4,4.03,1.12,1.12,8.65-4.42,16.01,1.88,3.75,3.21,9.79,1.98,11.49-2.13l-.38-.43c-2.18,2.09-4.79,3.39-8.19,2.31-1.9-.6-3.97-2.34-4.13-4.15-.43-4.98,6.04-7.47,8.31-6.71,3.35,1.11,5.04,5.22,4.35,8.13l.57.05ZM66.3,27.04c-5.45.98-10.49,2.83-15.2,6.01,5.54-1.38,10.22-3.36,15.2-6.01ZM93.15,31.81l-2.97-3.13c-3.04,1.79-5.3,3.5-7.24,6.2l10.21-3.07ZM47.9,50.14c2.94-7.9-4.26-18.94-7.97-17.88l-6.4,1.82c6.33,5.14,8.86,12.37,7.74,20.07,2.08-.66,5.89-2.01,6.64-4.01ZM72.33,34.27l-.56,1.83,2.38.72.56-1.83-2.38-.72ZM98.47,130.74c1.63,2.59,3.26,3.22,5.73,3.69,6.41,1.22,2.33,11.1,10.18,14.96,3.29,1.62,5.34,4.67,6.95,7.98l6.5,13.33c.44.91,2.66,2.07,3.67,2.12s2.71-1.42,3.21-2.53c2.9-6.45,2.83-13.29,2.14-20.27l-1.22-12.33c-5.8,2.17-11.72.15-15.5-4.11-4-4.51-4.69-10.49-1.96-16,2.21-4.46,6.32-7.06,11.84-6.81l-5.54-15.63c-3.85,5.07-8.94,6.71-14.48,5.49-4.88-1.07-8.74-4.17-10.32-8.07-1.96-4.82-1.83-9.95,1.34-13.95,3.29-4.16,9-5.44,13.68-4.18l-4.52-12.76c-4.53,2.19-9.62,2.42-14.27-.29-3.68-2.15-6.67-6.28-6.83-11.33s1.98-9.42,6.62-11.64c.02-1.05-.33-2.8-.89-3.4-1.29-1.41-9.2,1.06-11.95,3.35-2.51,2.1-1.55,6.06.22,8.01.86.94,1.7,4.65.53,5.24l-18.26,7.72c-.72.3-3.05-.13-3.47-.89l-6.07-10.8c-6.08.4-4.67,5.17-6.76,6.33-3.57,1.97-7.97,3.66-11.77,4.85l-4.83-1.33-8.06,6.06,3.6,2.37c3.84,2.52,7.55,4.47,11.11,7.35,4.79,3.88,8.77,8.1,11.54,13.67,5.55,11.19,15.05,9.96,20.63,14.15,3.28,2.46,5.5,5.86,7.86,9.06,2.81-5.37,8.59-8.02,14.37-6.72s10.38,6.23,11.34,11.57c1.13,6.29-.8,11.71-6.34,15.74ZM33.45,36.63c-1.37-1.26-4.66-1.47-5.31.42-3.43,9.91,5.48,20,9.57,18.21,2.56-1.12,3.16-11.82-4.26-18.63ZM76.57,38.01c-1.28.81-3.6,1.72-5.01,1.38-1.09-.27-2.24-1.75-3.01-2.87-.16.73-.18,2.64.38,3.07s1.83.92,2.86,1.18c2.18.55,4.7-.88,4.78-2.76ZM23.76,60.67l6.88-4.98c-4.96-4.49-6.37-9.44-6.37-16.03l-10.56,5.86c6.75,1.96,9.7,7.59,10.05,15.14ZM62.41,43.75l1.82,5.19-4.1-5.2c-.62-.79-2.14-1.13-3.43-.33l6.94,12.94c1.44-.25,3.39-.86,3.89-1.35l1.99-7.37-7.11-3.88ZM51.72,46.42l3.02-1.3c-.43-.84-.83-1.7-1.36-1.58-.66.15-2.01.78-1.92,1.32.09.57.34,2.04.26,1.56ZM82.23,49.32l-2.79-3.94-.09,5.09,2.88-1.16ZM69.47,54.59l8.51-3.19-.81-4.42-5.9,1.33-1.8,6.28ZM28.09,69.79l11.41,10.86c-6.44-2.91-10.25-8.24-14.82-12.7-2.16-2.11-3.83-3.58-3.95-7.09-.12-3.45-.99-6.97-3.14-9.68-1.6-2.01-5.12-3.76-7.28-1.84-3.03,2.7-1.81,7.96,1.3,10.6l38.42,32.61c-2-4.13-3.42-8.43-6.64-11.37l-7.08-6.46c-2.5-2.28-4.75-4.37-8.22-4.94ZM101.54,136.82c-7.35-1.31-5.38-12.56-19.91-21-6.43-3.73-7.84-12.09-16.02-14.51l-7.56-2.23,16.98,14.65c14.8,13.66,28.17,28.28,39.35,45.03,3.33,4.98,5.9,9.84,10.6,13.7l-5.4-12.63c-1.53-3.58-3.42-6.49-6.93-8.07-9.4-4.24-3.35-13.57-11.11-14.95Z"/>
        <circle cx="66.84" cy="78.43" r="14.2"/>
        <path d="M117.01,145.14c2.88-1.48,4.52.96,5.4,2.93l3.09,6.96c1.09-.11,1.65-.07,1.65-.36v-2.35c.02-1.49-.5-4.54.59-5.16.7-.39,2.87-.16,3.15-.77l1.38-3c.52.68.64,2.86.19,3.92-.49,1.14-2.55,1.61-3.9,1.72.53,1.87,1.06,6.01-.36,6.98-3.35,2.3-5.98-1.39-6.57-4.37-.57-2.85-1.86-4.55-4.62-6.52Z"/>
        <path d="M85.57,73.82c2.62.07,3.24,2.86,4.25,5.35l.71,1.74c.16.38,1.7.03,1.8-.37.77-3.09-.77-6.76,1.66-7.94s2.97-1.64,4.37-4.07c.43.05.75,2.56.25,3.28s-2.05,1.48-3.3,2.14c-2.31,1.21,1.07,7.55-2.96,9.2-1.3.53-3.52-.89-4.07-2.31l-2.7-7.01Z"/>
        <path d="M47.18,70.74c-5,3.09-4.75-4.5-11.37-4.92.79-1.15,3.18-1.66,4.4-.95,2.69,1.56,3.2,5.07,5.38,4.39,2.42-.75-.94-5.35.05-8.04.4-1.08,2.37-2.43,3.49-3.01l1.21-.64c.24-.13,1.44.12,1.28.34-1.75,2.36-3.21,2.37-4.22,3.8s2.85,7.13-.22,9.03Z"/>
        <path d="M83.51,92.81c-.5,2.26.56,4.53,3.56,5.29-1.19.94-2.94,1.01-4.06.35-1.21-.72-2.19-3.32-1.78-4.46l.75-2.06c.13-.37,1.64.38,1.53.88Z"/>
        <path d="M112.4,110.28c-.58.28-2.24.81-2.62.41l-1.33-1.38,5.11-1.84c1.32-.47,3.02-.69,3.78.4l-4.93,2.41Z"/>
        <path d="M111.75,134l-3.42-6.41c3.37-.34,5.1,3.28,3.42,6.41Z"/>
        <path d="M85.73,57.13l-4.26,4.44c-.53-.91-.41-2.61.2-3.36.88-1.08,2.59-1.52,4.06-1.07Z"/>
        <path d="M35.72,50.26c-.93,1.6-3.6.24-4.4-1.29-1.26-2.43-2.85-6.44-.22-8.35,3.94.2,6.63,6.15,4.61,9.64ZM33.53,48.62l-1.77-6.17c-1.46,2.17-.06,5.38,1.77,6.17Z"/>
        <circle cx="64.75" cy="53.03" r="1.36"/>
      </g>
    </g>
  </g>
</svg>