<?xml version="1.0" encoding="UTF-8"?>
<svg id="Layer_2" data-name="Layer 2" xmlns="http://www.w3.org/2000/svg" viewBox="0 0 199.95 103.84">
  <defs>
    <style>
      .cls-1 {
        fill: #fff;
      }
    </style>
  </defs>
  <g id="Layer_1-2" data-name="Layer 1">
    <g>
      <g>
        <path class="cls-1" d="M58.79,101.34c-.33,0-.67-.07-.98-.2l-32.97-14.07c-.21-.09-.42-.21-.6-.36l-1.61-1.31c-1.32-1.08-1.22-2.87-1.05-3.85.29-1.62,1.12-2.74,2.33-3.17l10.42-3.63c.27-.09.54-.14.82-.14.3,0,.59.05.88.16l3.44,1.29-.4-16.63-26.03,6.88c-.7.19-1.46.28-2.27.28-1.84,0-3.62-.49-4.89-1.35-1.95-1.35-3.08-4.22-3.32-6.31-.38-3.5,1.22-7.56,4.99-8.58l61.59-16.65,96.99-25.38,21.42-5.6c.58-.15,1.18-.22,1.81-.22,1.98,0,4.12.74,5.72,1.99.21.16.39.36.54.58,2.08,3.11,2.89,8.07-.25,11.63-.32.36-.73.62-1.2.75l-23.16,6.52.26,24.43,15.38,5.83c.48.18.9.51,1.19.94l1.13,1.68c.28.42.69,1.29.32,2.5-.34,1.13-1.46,2.66-2.67,3.16l-8.86,3.84c-.32.14-.65.21-.99.21-.3,0-.61-.06-.9-.17l-32.5-12.5c-.32-.12-.6-.31-.85-.54l-1.52-1.48c-.6-.6-1.19-1.67-.74-3.53.2-.8.83-2.73,2.56-3.28l8.78-2.78c.25-.08.5-.12.75-.12.28,0,.56.05.83.14l3.24,1.15-.17-15.38-79,20.91-22.48,5.88.46,27.14,15.96,6.97c.57.25,1.03.71,1.29,1.28l.78,1.76c.35.8.31,1.67-.09,2.6-.15.34-.97,2.07-2.48,2.59l-11.07,3.99c-.27.1-.56.15-.85.15Z"/>
        <path class="cls-1" d="M189.36,5c1.48,0,3.07.6,4.18,1.46,1.68,2.51,2.06,6.19-.05,8.58l-25,7.04.3,28.05,16.98,6.43,1.13,1.68c.26.39-.75,1.76-1.23,1.96l-8.89,3.85-32.5-12.5-1.52-1.48c-.43-.43.2-2.43.83-2.63l8.78-2.78,6.61,2.34-.24-22.17-82.1,21.73-24.37,6.38.52,30.71,17.43,7.61.78,1.76c.17.39-.65,1.66-1.11,1.82l-11.1,4-32.97-14.07-1.61-1.31c-.45-.37-.2-2.46.52-2.71l10.42-3.63,6.91,2.59-.57-23.5-29.09,7.69c-.5.13-1.06.2-1.64.2-1.27,0-2.61-.32-3.49-.92-1.11-.77-2.04-2.84-2.23-4.52-.26-2.4.72-5.23,3.16-5.89l61.59-16.65,96.97-25.38,21.42-5.6c.38-.1.77-.14,1.18-.14M189.36,0c-.84,0-1.65.1-2.43.3l-21.44,5.6-96.97,25.38L6.89,47.95C1.76,49.33-.42,54.66.07,59.2c.31,2.75,1.78,6.3,4.35,8.09.02.01.04.02.05.04,1.67,1.13,3.96,1.77,6.29,1.77,1.03,0,2.01-.12,2.93-.37l22.95-6.07.24,9.77c-.56-.21-1.15-.31-1.73-.31-.56,0-1.11.09-1.65.28l-10.42,3.63c-2.07.72-3.51,2.57-3.96,5.08-.46,2.57.24,4.83,1.91,6.21l1.63,1.33c.36.29.76.54,1.19.72l32.97,14.07c.63.27,1.29.4,1.96.4.57,0,1.15-.1,1.7-.3l11.09-4c2.4-.86,3.6-3.23,3.91-3.94.87-1.99.54-3.59.1-4.59l-.79-1.79c-.51-1.14-1.42-2.06-2.57-2.56l-14.49-6.32-.4-23.57,20.57-5.39,75.9-20.09.09,8.59c-.5-.16-1.02-.24-1.53-.24-.51,0-1.02.08-1.51.23l-8.78,2.78c-2.07.66-3.61,2.5-4.23,5.07-.77,3.14.53,5.02,1.38,5.87.02.02.03.03.05.05l1.52,1.48c.49.47,1.06.84,1.69,1.08l32.5,12.5c.58.22,1.19.33,1.79.33.68,0,1.35-.14,1.99-.41l8.89-3.85c1.97-.85,3.52-3.01,4.03-4.71.48-1.6.26-3.28-.63-4.61l-1.14-1.7c-.58-.86-1.41-1.52-2.38-1.89l-13.79-5.22-.22-20.81,21.31-6c.93-.26,1.76-.78,2.39-1.5,3.44-3.9,3.63-9.93.46-14.67-.3-.44-.66-.83-1.08-1.16-2.02-1.58-4.73-2.52-7.26-2.52h0Z"/>
      </g>
      <path d="M52.27,52.94l.52,30.71,17.43,7.61.78,1.76c.17.39-.65,1.65-1.11,1.82l-11.1,4-32.97-14.08-1.6-1.3c-.46-.37-.2-2.46.52-2.71l10.42-3.63,6.91,2.59-.56-23.5-29.09,7.69c-1.62.43-3.85.15-5.13-.72-1.12-.76-2.05-2.84-2.23-4.52-.26-2.4.72-5.23,3.16-5.89l61.59-16.65,96.97-25.38,21.42-5.59c1.75-.46,3.95.22,5.37,1.32,1.67,2.51,2.05,6.19-.05,8.59l-25,7.03.3,28.06,16.98,6.43,1.13,1.68c.26.39-.75,1.76-1.23,1.97l-8.88,3.85-32.51-12.51-1.52-1.48c-.43-.42.2-2.43.83-2.63l8.78-2.78,6.6,2.34-.23-22.17-82.1,21.73-24.37,6.38ZM190.93,7.05L12.5,54.46l1.58,5.93L192.51,12.99l-1.58-5.93ZM162.08,50.24c0,.72,1.49,2.09,2.11,1.85s1.4-1.29,1.7-2.07l-.67-24.2-3.28,4.78.14,19.63ZM161.76,54.65l-3.01-4.23-6.21-2.3c-1.15-.42-3.7.68-4.95,1.36l14.01,5.53.17-.35ZM161.93,55.13l14.5,5.34c1.3-.1,3.46-1.09,4.98-2.11l-13.55-5.02c-1.8,1.34-3.77,1.79-5.43,1.45l-.49.35ZM10.23,61.03c.43-.69.87-2.81.65-3.7-.18-.72-1.42-1.54-2.21-1.75-1.19,1.92-.7,4.74,1.56,5.44ZM45.11,84.45c.01.72,1.56,2.09,2.22,1.93.73-.18,1.95-.9,2.51-1.45l-.76-29.27-4.41,7.14.42,21.65ZM52.13,86.65c-1.92,2.71-4.6,2.92-7.04,2.05-1.97-.7-2.91-2.97-2.79-5.63-5.68-2.77-7.94-3.94-13.67-.34l30.51,12.98,7.4-2.78-14.42-6.27Z"/>
    </g>
  </g>
</svg>