<?xml version="1.0" encoding="UTF-8"?>
<svg id="Layer_2" data-name="Layer 2" xmlns="http://www.w3.org/2000/svg" viewBox="0 0 151.54 143.37">
  <defs>
    <style>
      .cls-1 {
        fill: #fff;
      }
    </style>
  </defs>
  <g id="Layer_1-2" data-name="Layer 1">
    <g>
      <g>
        <path class="cls-1" d="M39.95,140.87c-.69,0-1.35-.29-1.83-.79-6.33-6.78-11.87-13.66-17.45-21.64L3.76,98.17c-.19-.23-.34-.5-.44-.78l-.65-1.88c-.79-2.34,1.62-4.31,2.85-4.85l16.22-7.33c7.98-4.37,14.33-10.27,21.39-17.78,8.39-8.91,14.33-18.58,18.17-29.56,2.54-7.46,4.06-15.03,4.64-23.1-.79-1.8-1.29-4.65-.25-6.59.86-1.59,3.36-3.78,5.83-3.78l22.17.21c.42,0,.84.11,1.2.32l36.33,20.48,16.29,9.72c.73.44,1.19,1.22,1.22,2.07.63,21.26.2,41.68-.26,63.31l-.18,8.75-.55,27.78c-.03,1.33-1.1,2.41-2.43,2.45l-29.77.83-53.35,1.84s-22.2.61-22.23.61Z"/>
        <path class="cls-1" d="M71.51,5s0,0,.01,0l22.13.21,36.33,20.48,16.24,9.69c.72,24.11.05,47.72-.44,71.93l-.55,27.78-29.77.83-53.37,1.84-22.14.61c-6.44-6.9-11.97-13.83-17.29-21.45l-16.99-20.35-.65-1.88c-.18-.53.98-1.52,1.5-1.75l16.32-7.38c8.62-4.7,15.44-11.23,22.1-18.31,8.4-8.92,14.63-18.77,18.71-30.45,2.7-7.94,4.27-16.02,4.82-24.43-.73-1.23-1.21-3.75-.59-4.9.54-1,2.33-2.47,3.63-2.47M71.51,0c-3.64,0-6.88,2.98-8.03,5.09-1.39,2.58-.93,5.87-.09,8.16-.59,7.65-2.06,14.84-4.48,21.94-3.7,10.6-9.47,19.98-17.62,28.63-6.88,7.32-13.04,13.06-20.69,17.26l-16.15,7.3c-2.46,1.09-5.41,4.28-4.17,7.91l.66,1.91c.2.57.5,1.1.89,1.57l16.85,20.19c5.63,8.04,11.23,14.98,17.61,21.82.95,1.01,2.27,1.59,3.66,1.59.05,0,.09,0,.14,0l22.14-.61,53.4-1.84,29.74-.83c2.67-.07,4.81-2.23,4.86-4.9l.55-27.78c.06-2.93.12-5.85.18-8.76.46-21.65.89-42.1.26-63.42-.05-1.71-.97-3.27-2.44-4.14l-16.24-9.69s-.07-.04-.11-.06L96.11.85c-.74-.41-1.56-.64-2.41-.64L71.57,0s-.04,0-.06,0h0Z"/>
      </g>
      <g>
        <path d="M39.95,138.37c-6.44-6.9-11.97-13.83-17.29-21.45l-16.99-20.35-.65-1.89c-.18-.53.98-1.51,1.5-1.75l16.32-7.38c8.63-4.7,15.44-11.24,22.11-18.32,8.4-8.91,14.62-18.77,18.71-30.44,2.69-7.95,4.26-16.03,4.82-24.43-.73-1.24-1.21-3.75-.59-4.91.53-1,2.34-2.48,3.64-2.47l22.13.21,36.33,20.48,16.24,9.69c.72,24.11.05,47.72-.44,71.93l-.56,27.79-29.76.83-53.38,1.84-22.14.61ZM118.74,35.4l-27.47-16.9-18.16-10.62-2.08.57c-.47.13-.04,1.74.19,2.09l27.34,16.8,18.58,11.73,1.61-3.66ZM138.97,34.63l-7.75-4.61-39-21.89-11.38.41,16.34,9.65,27.62,17.12,14.16-.68ZM102.92,34c-1.41,10.33-3.21,18.91-6.18,27.78-1.69,3.83-2.99,7.39-6.16,10.3l3.62-9.71c3.61-9.67,5.45-19.65,6.85-29.75l-18.19-11.16c-1.4,9.07-2.51,18.16-8.12,26.03,2.11-9.52,5.83-18.02,6.02-27.43l-9.25-5.42c-1.41,19.2-8.54,36.93-21.04,51.23-8.07,9.23-16.47,17.32-27.33,23.29l16.72,18.63,19.49,21.1c37.64-15.77,58.04-44.38,60.14-84.94l-16.58-9.95ZM123.84,39.54c0-.92-.75-1.67-1.67-1.67s-1.67.75-1.67,1.67.75,1.67,1.67,1.67,1.67-.75,1.67-1.67ZM117.64,132.65l24.72-.67.35-28.39.51-65.6-16.39.21c.9,3.2-1.11,5.61-4.26,6.11-1.56,44.7-27.67,76-69.5,90.43l64.58-2.08ZM41.34,135l14.89-4.94-22.33-24.41-13.35-15.02-11.63,4.81,15.79,18.77,16.62,20.79Z"/>
        <path d="M81.86,85.69c1.52-3.96,3.87-7.58,7.05-10.01-1.02,4.46-3.65,7.66-7.05,10.01Z"/>
        <path d="M136.56,120.29l-1.45,1.1c-.3.22-1.3-.87-1.04-1.13l1.2-1.19c.16-.16.82-.48,1.04-.56s.87.17.84.4c-.04.35-.33,1.18-.6,1.38Z"/>
        <path d="M137.33,126.3l-1.62,1.07c-.27.18-.91-.6-.75-.89s.66-.99.91-1.19l1.06-.81c.22-.17.98.3.97.58s-.33,1.07-.58,1.23Z"/>
        <rect x="130.03" y="124.6" width="3.28" height="1.61" transform="translate(-48.13 98.25) rotate(-35.02)"/>
      </g>
    </g>
  </g>
</svg>