<?xml version="1.0" encoding="UTF-8"?>
<svg id="Layer_2" data-name="Layer 2" xmlns="http://www.w3.org/2000/svg" viewBox="0 0 209.88 106.54">
  <defs>
    <style>
      .cls-1 {
        fill: #fff;
      }
    </style>
  </defs>
  <g id="Layer_1-2" data-name="Layer 1">
    <g>
      <g>
        <path class="cls-1" d="M125.95,104.04c-8.25,0-16.27-.44-23.02-.86l-25.36-1.59-23.34-.57-23.49-.55c-2.68-.06-7.6-.52-12.09-1.38-6.48-1.24-9.34-2.71-9.86-5.09-.11-.48-.11-.99,0-1.54-1.76-.87-3.44-2.16-4.25-4.07-3.67-8.72-1.56-12.68-.42-14.81.09-.16.2-.37.27-.52-.3-2.85.49-5.14,1.48-7.18-.18-6.64,0-14.26,2.18-21.85l-.41-.06c-.53-.08-1.01-.32-1.39-.69-.61-.6-.91-1.45-.82-2.34.07-.73.41-1.46.86-2.1-.57-.95-.45-2.16.3-2.98.1-.11.21-.21.31-.29l-.19-1.15c-.14-.85.17-1.71.81-2.28.46-.41,1.06-.63,1.66-.63.21,0,.42.03.62.08.56-2.61,1.56-5.37,3.57-7.49,1.65-1.76,3.93-2.69,6.6-2.69,1.48,0,3.04.3,4.51.87l7.21,2.81c.06.02.12.05.18.08,5.96,2.89,11.51,4.3,16.96,4.3.75,0,1.51-.03,2.26-.08,10.43-.74,19.11-4.98,25.14-12.29,1.17-5.42,5.26-14.57,10.81-14.57,1.27,0,2.49.48,3.53,1.4l15.94,14.03c3.72.05,6.91,2.15,8.46,5.4,3.33.23,6.14,2.12,7.73,5.13,3.41.29,6.28,1.96,8.05,4.66.05,0,.11,0,.16,0,2.01,0,4.93.73,7.74,4.07,1.65.3,3.77.86,5.47,2.38,3.03.01,5.67,1.79,6.93,4.55l10.03,3.95c2.56,1,5.67,1.31,8.68,1.6,1.1.11,2.23.22,3.33.36l2.47-1.35c2.06-1.13,3.66-1.4,5.86-1.77.14-.02.28-.04.42-.04.77,0,1.51.36,1.99.99.56.74.67,1.73.27,2.58l-.21.44.89-.81c.48-.44,1.08-.65,1.68-.65s1.2.22,1.68.65l2.48,2.24c.14.13.26.27.37.42.96,1.37,2.12,2.19,3.1,2.19,4.8,0,6.9,2.8,8.76,5.28l.51.68c2.11,2.8,4.1,5.44,4,10.11l-.18,9.49c-.08,3.78-2.78,6.15-5.92,8.04,1.86.81,3.26,2.11,3.51,4.31.09.79-.03,1.98-1.07,3.14-6.56,7.34-58.2,7.55-58.72,7.55-1.61,0-2.95-.02-3.99-.05-4.81.36-9.74.54-15.05.54Z"/>
        <path class="cls-1" d="M87.06,5c.64,0,1.27.24,1.87.77l16.69,14.69c.25-.02.51-.04.75-.04,3.39,0,6.07,2.21,6.88,5.45.35-.04.69-.07,1.02-.07,3.17,0,5.72,1.96,6.78,5.13.2-.01.4-.02.59-.02,3.31,0,6.31,1.6,7.72,4.89.53-.13,1.05-.19,1.55-.19,2.65,0,4.76,1.71,6.37,3.88,1.95.31,4.4.76,5.84,2.66.32-.06.65-.09.96-.09,2.33,0,4.34,1.57,5.01,3.97l11.07,4.36c4.15,1.62,9.14,1.58,13.39,2.24l3.2-1.75c1.66-.91,2.89-1.13,5.07-1.5l-1.59,3.38,3.69,1.46,2.53-2.31,2.48,2.24c1.21,1.73,3.02,3.26,5.15,3.26,3.73,0,5.16,2.16,7.02,4.63,2.1,2.79,3.84,4.92,3.75,8.89l-.18,9.5c-.09,4.43-5.93,6.48-10.59,9.13,3.7.42,7.89.87,8.19,3.55.68,6.05-41.43,7.91-57.3,7.91-1.66,0-3.04-.02-4.05-.06-5.06.39-10.04.54-15,.54-7.61,0-15.17-.37-22.86-.86l-25.36-1.59-23.44-.58-23.49-.55c-5.62-.13-19-1.92-19.56-4.5-.13-.57.43-1.62.91-2.4-1.74-.51-4.42-1.62-5.29-3.67-4.36-10.36.31-12.44.06-14.37-.34-2.59.47-4.62,1.49-6.6-.26-8.36.1-16.51,2.95-24.46l-3.34-.48c-.4-.39.64-1.83,1.42-2.34l-.99-1.61c.18-.2,1.22-.7,1.15-1.11l-.4-2.44,2.61.76c.41-3.09,1.18-6.62,3.39-8.96,1.28-1.36,3.01-1.91,4.78-1.91,1.23,0,2.48.27,3.61.7l7.2,2.81c5.78,2.8,11.72,4.55,18.05,4.55.81,0,1.62-.03,2.44-.09,10.82-.76,20.53-5.19,27.3-13.69.98-5.42,4.85-13.16,8.48-13.16M181.84,49.39h0M87.06,0c-7.18,0-11.67,9.97-13.11,15.92-5.57,6.5-13.5,10.28-23.02,10.95-.69.05-1.4.07-2.09.07-5.07,0-10.26-1.32-15.87-4.05-.12-.06-.24-.11-.37-.16l-7.2-2.81c-1.76-.68-3.63-1.04-5.42-1.04-3.33,0-6.32,1.24-8.43,3.49-1.89,2.01-3.01,4.42-3.71,6.81-.72.2-1.39.56-1.96,1.07-1.29,1.14-1.9,2.86-1.62,4.55-.74,1.13-.98,2.49-.7,3.79-.31.65-.53,1.35-.6,2.1-.16,1.64.41,3.23,1.56,4.36.18.17.37.33.57.48-1.67,6.93-1.86,13.75-1.71,19.81-.91,2-1.66,4.36-1.52,7.19-1.84,3.52-3.19,8.28.4,16.81.77,1.8,2.12,3.33,4,4.54.02.23.06.45.11.69.89,4.08,5.37,5.75,11.82,6.98,4.65.89,9.63,1.35,12.5,1.42l23.49.55,23.33.58,25.26,1.59c6.79.43,14.85.87,23.18.87,5.33,0,10.27-.18,15.1-.54,1.05.03,2.37.05,3.94.05,8.02,0,21.24-.45,32.7-1.46,20.7-1.83,25.64-4.4,27.88-6.92,1.3-1.45,1.9-3.25,1.69-5.08-.19-1.69-.81-3-1.71-4.03,2.3-1.95,4.06-4.49,4.13-8l.18-9.5c.11-5.54-2.34-8.79-4.51-11.66l-.25-.33-.26-.34c-1.98-2.64-4.68-6.25-10.68-6.28-.19-.08-.65-.43-1.13-1.13-.22-.31-.46-.59-.74-.84l-2.48-2.24c-.95-.86-2.15-1.29-3.36-1.29-.09,0-.18,0-.27,0-.84-1.49-2.42-2.51-4.24-2.55-.04,0-.08,0-.12,0-.08,0-.15,0-.23,0-.24.01-.47.04-.7.08-2.31.39-4.15.71-6.54,2.02l-1.77.97c-.87-.1-1.74-.19-2.59-.27-2.84-.28-5.78-.57-8.02-1.45l-9.15-3.6c-1.65-2.84-4.49-4.71-7.77-5.03-1.68-1.25-3.54-1.86-5.1-2.21-2.75-2.97-5.62-3.99-7.9-4.23-1.94-2.4-4.66-3.98-7.83-4.54-1.8-2.72-4.51-4.54-7.68-5.13-1.96-3.14-5.24-5.19-9.04-5.54l-15.29-13.46c-1.5-1.32-3.29-2.02-5.18-2.02h0Z"/>
      </g>
      <g>
        <path d="M202.29,93.14c.75,6.68-50.72,8.25-61.34,7.85-12.81.99-25.15.49-37.86-.31l-25.35-1.6-23.44-.58-23.49-.55c-5.62-.13-19-1.92-19.57-4.5-.13-.58.43-1.62.91-2.4-1.74-.51-4.42-1.62-5.28-3.67-4.36-10.35.3-12.44.05-14.36-.33-2.59.48-4.62,1.48-6.61-.25-8.36.11-16.51,2.95-24.45l-3.34-.48c-.4-.39.64-1.84,1.42-2.34l-.99-1.61c.19-.2,1.22-.7,1.15-1.11l-.41-2.43,2.62.77c.4-3.09,1.18-6.62,3.39-8.97s5.65-2.26,8.39-1.2l7.2,2.8c6.52,3.16,13.25,4.98,20.5,4.47,10.82-.77,20.53-5.19,27.3-13.69,1.15-6.36,6.3-15.96,10.36-12.39l16.69,14.69c3.74-.36,6.77,1.94,7.63,5.41,3.65-.47,6.64,1.56,7.81,5.06,3.55-.2,6.83,1.38,8.31,4.88,3.39-.81,6.01,1.1,7.92,3.69,1.95.31,4.4.76,5.84,2.66,2.72-.5,5.22,1.15,5.98,3.88l11.07,4.36c4.14,1.63,9.14,1.59,13.39,2.24l3.21-1.75c1.66-.91,2.88-1.13,5.07-1.5l-1.59,3.39,3.69,1.46,2.53-2.3,2.47,2.24c1.2,1.73,3.02,3.27,5.16,3.27,3.73,0,5.16,2.16,7.02,4.63,2.1,2.79,3.83,4.92,3.75,8.89l-.18,9.49c-.09,4.43-5.93,6.48-10.59,9.13,3.7.42,7.88.86,8.19,3.55ZM85.1,17.59l14.49,7.41,5.05-2.18-17.92-15.96c-3.36,3.81-5.37,7.97-5.83,13.12,4.26-.72,2.69-7.52,7.8-10.86l-3.59,8.47ZM123.29,40.63c-.29-.08-1.27-.22-1.54-.11l-5.55,2.3c-.96.4-2.77-.31-3.21-1.05-1.51-2.54,1.53-4.16,1.21-6.28l-6.05,2.9c-1.34.64-3.6-.05-4.12-1.43s.08-2.96,1.2-4.12l1.15-1.19c.24-.25-1.37-.65-1.68-.52l-5.72,2.41c-1.5.63-3.09.84-3.98-.11-1.22-1.31-.64-2.81.29-3.98l2.33-2.91-11.15-5.91c-.69-.37-2.53-.26-3.04.27l-6.78,7.03,17.05,8.48,9.86,4.74,13.49,6.02,14.8,6.09,15.04,5.51-.79-5.61c-1.39,1.04-2.52,1.78-3.46,1.74-2.16-.09-3.13-3.06-2.41-6.71l-4.63,2.53c-1.49.81-3.98.28-4.58-1.35-.49-1.36.22-2.55,1.06-5.07l-6.04,2.9c-1.3.62-3.47-.21-4.02-1.35-1.36-2.82,1.97-5.05,1.26-5.24ZM111.09,28.73c.36-2.28-.67-4.73-2.52-5.68l-.54,7.18c.78.14,2.91-.58,3.05-1.5ZM106.37,27.04c.23-.47-.18-2.04-.49-2.43-3.84.97-9.15,4-8.42,6.68,2.82.44,8.26-2.9,8.91-4.25ZM50.84,41.62c-1.45.06-2.7,1.34-3.4,2.46l-4,.65c-.96-2.94,1.99-.74,4.48-3.14-3.06-.47-5.2-1.03-7.87-1.97l-7.11-2.48-2.49,1.39,1.73,2.11,1.7.38c.39.09.72,1.03.95,1.41l3.2,1.16c.67-.17,2-.6,2.57-.24.51.33,1.46,1.27,1.84,1.73l.86,1.06c.15.19-.81.5-1.05.45l-.89-.19c-.98-1.34-2.14-1.69-3.59-1.38l-3.64-1.03c-.52-.15-1.14-1.18-1.27-1.61-.67.19-2.48.45-2.57-.16l-.3-2.19-2.49-1.02,2.94-2.01c-4.02-1.99-8.6-4.72-10.83-8.81-.2-.37-.12-2.01-.52-1.95-3.34.51-5.03,5.31-4.67,9.26l4.37,2.9c2.21,1.46,3.21,3.98,3.81,6.07l10.63,8.61c6.58.62,13.59.3,20.27-1.02s12.2-4.17,18.16-6.79l8.35-3.67,2.79-2.22-.31,1.94c3.65-.22,7.55.22,11.08,1.79l15.62,6.92,13.64,5.32c2.65,1.03,5.62,1.02,8.69.42l-14.45-6.12-15.49-7-14.52-7.02c-1.08,1.8-1.84,3.17-3.54,3.59.79-1.89,1.74-2.55,3.33-4.04l-11.31-5.46c-6.37,7.5-14.85,11.45-24.68,11.88ZM118.94,33.99c.71-2.47-.68-4.94-2.9-5.73l.37,6.8,2.53-1.07ZM108.03,36.25l6.08-3.1-.17-2.48c-6.1,1.2-9.61,5.64-7.92,5.82.33.04,1.6-.02,2.02-.24ZM127.66,38.13c-.04-2.04-1.87-4.14-3.9-4.33l1.42,5.47c.46.03,2.11-.59,2.48-1.14ZM116.2,40.82l6.71-3.09c.02-.6-1.02-2.19-1.76-2.17-2.56.09-5.55,2.33-6.65,4.42-.25.48,1.23,1.06,1.7.84ZM15.89,42.65l5.05.03-2.22-2.23c-3.72-3.74-7.54-4.4-7.41-3.84l.27,1.12c.07.29.65.91.45,1.15l-.67.81,3.55,1.38c.37.14,1.64.21,1.49.53l-.51,1.07ZM135.88,42.11c-.27-1.74-2.1-3.51-3.77-3.98l1.74,5.75c.45-.06,2.13-1.14,2.03-1.77ZM126.18,45.25l4.87-2.87c.36-.55-.85-2.17-1.69-2.11-2.66.19-5.35,2.25-5.77,4.55.1.59,2.08.73,2.59.43ZM141.51,45.24c.9-2.62-1.34-2.57-2.2-2.65l2.2,2.65ZM42.71,73.11c-3.07-7.78-7.17-14.95-13.56-20.57l-11.75-8.53c-.71.59-1.65,1.53-2.02,1.18l-2.04-1.89-2.37,11.69-.12,12.43c5.11,2.09,10.09,3.91,15.59,4.36l16.27,1.34ZM90.07,49.94l16.81,6.4,16.33,5.64c4.41,1.52,13.47.97,16.69-3.45l-5.58-1.99c-5.52,3.99-15.56-.21-22.48-3.22l-19.5-8.49c-5.16-2.25-11.52-2.21-16.12.93-1.37.93-2.06,2.41-3.94,1.69-5.9,2.93-12.01,5.52-18.6,6.78-6.21,1.19-12.02,1.06-18.46,1.16l1.65,1.24c.06.98,1.46,4,2.77,4.02,15.84.19,24.22-2.52,37.61-9.77,4.03-2.18,8.2-2.69,12.8-.94ZM134.82,48.96l4.66-2.81c.04-.38-1.09-1.65-1.67-1.61-2.01.14-4.67,1.62-5.08,3.93-.1.56,1.61.78,2.1.49ZM147.13,46.44c-.12-.89-1.86-2.14-2.98-2.29-2.59,4.09-2.87,9.41-1.14,8.89,2-.6,3.35-3.77,4.12-6.6ZM182.21,66.04l-6.35.38c-.64-.61-1.72-1.17-2.85-1.43-2.69-.61-1.68-4.04,1.24-7.56l3.96-4.77c-1.87-.17-3.08.73-4.35,2.17-4.86-.51-10.38-.66-15.07-2.52l-9.99-3.95c-1.4,1.82-1.09,3.48-.57,5.55,1.61,6.4,1.16,12.86.49,19.4l1.91.02c.02-2,0-3.26.7-5.39.53,2.08.33,3.27.15,5.23l22.35-3.7c6.08-1.01,11.69-3.22,17.23-5.74,1.63-.74,2.87-2.18,3.44-3.61l-3.71-1.39c.68,3.78-4.1,7.04-8.58,7.31ZM129.27,75.07l17.37-1.41.66-6.6c.04-.36-.77-1.56-.94-1.85.86-.51,1.6-3.39.62-3.8l-4.84-2.07c-5.16,5.02-9.49,5.94-17.01,5.48l1.4,1.75-4.81-1.13,3.3-.81c-6.15-.95-11.72-3.41-17.69-5.73l-18.4-7.15c-3.7-1.43-7.06-1.1-10.48.82-12.13,6.82-23.23,10.49-38.04,10.14l5.09,10.56,9.31-.18,18.99.61,13.41.79,3.16-2.21-1.15,2.33,14.41.47c1.97.06,8.03-3.16,9.84-2.96l7.04.77,5.95.81-5.9-3.08c2.65-.43,7.1,1.94,8.73,4.45ZM184.77,56.33l-4.83-2.01c-.26-.11-1.28.37-1.47.58-.12.13-.13.36.05.38l1.23.13,5.01.92ZM179.25,64.47c4.73,1.32,9.92-1.22,10.8-6.4l-3.46-3.66c-.18.09-.83.86-.65,1.14l.71,1.08c.53.82,1.55,3.06.85,3.77-2.32,2.32-4.95,2.66-8.24,4.07ZM129.85,78.7c13.36-1.07,26.64-2.61,40.11-5.08,9.94-1.82,21.56-4.56,28.47-11.66l-1.87-1.64c-1.17,2.33-2.63,4.14-5.1,5.3-4.53,2.13-9.03,3.84-14.03,4.95-15.75,3.5-31.45,5.36-47.52,6.29l-.06,1.84ZM139.23,83.13c3.83-1.65,7.55-2.46,11.55-2.6,13.4-1.47,29.3-3.85,41.3-9.3,3.32-1.5,6.85-3.41,8.22-7.13-3.65,3.03-6.9,5.58-11.22,7.13-18.58,6.67-42.81,8.79-62.6,10.45l-2.48,1.87,15.23-.43ZM127.49,99.05c12.98-.06,24.29-1.46,36.06-3.39,11.26-1.69,21.8-4.56,32.02-9.46,2.49-1.19,5.05-2.82,6.84-4.69l.08-7.13c.03-2.75.07-5.4-.75-8.05-3.85,5.33-12.36,8.59-19.12,10.39-9.99,2.66-19.97,4.57-30.31,5.5-4.71.42-8.99.92-13.24,2.96-5.74,2.76-10.38,7.69-11.59,13.87ZM103.89,79.17c-.24-.64-.95-1.58-1.52-1.95l-26.61-1.4c-8.51-.86-16.67-.54-25.16-.75l-16.59-.4c-7.92-.65-15.5-2.11-22.88-5.06-.24-.22-1.49-1.04-1.57-.66l-.45,2.13c9.83,4.43,22.25,6.12,33.19,6.26l24.12.32,23.85,1.14,13.63.37ZM45.04,95.76l30.27.84,28.51,1.69,21.15.81c1.61-6.22,5.23-11.04,10.98-14.46l-14.75.08c-1.53,1.73-4.22,3.78-6.3,4.39-.6.18-1.04-1.77-.81-2l-2.23-.37c-.41-.07-.53-1.26-.67-1.77l-3.5-.32c-.31-2.17-1.5-2.94-3.37-3l-28.04-.91-37.45-.93c-9.21-.23-21.64-1.73-29.45-5.83l-1.64,3.13,2.33.87.34-1.54c7.86,3.19,15.89,4.69,24.41,5.15l14.45.77c-7.22,1.39-13.89.77-20.96.09-6.25-.6-12.11-2.32-17.94-4.57.32.62.98,1.88,1.04,2.48l.76,7.19c3.63,2.1,7.23-.64,9.72,2.53l-7.16.6,11.32,1.5c3.04.4,5.69,1.36,8.62,2.34,3.1,1.03,6.71,1.16,10.38,1.26ZM113.4,84.93c1,.27,1.61.55,2.83,1.43,1.23-.31,2.89-2.23,4.29-3.19,2.92-1.99,7.87-1.56,7.72-5.21-2.32,3.81-5.28,2.45-9.64,4.81-2.93,1.59-5.47-1.97-10.27-1.32.62,3.08,3.07.6,5.07,3.48ZM9.66,80.94c-.01-1.02-1.08-1.98-2.42-2.04.39,3.24.67,5.92,2.49,8.76l-.07-6.72Z"/>
        <rect x="77.07" y="58.4" width="1.7" height="50.7" transform="translate(-9.36 157.69) rotate(-87.34)"/>
        <path d="M35.66,91.74l-6.4-.81c-1.2-.15-2.11-.37-2.52-1.4l4.53.97c1.35-.36,3.25-1.43,4.39,1.24Z"/>
        <path d="M110.75,71.12c-1.46,1.94-3.46,2.4-5.6,1.98l-3.82,1.7c-.25.11-1.16-.39-.98-.58s.78-.75,1.01-.84l3.89-1.51c1.98.17,3.41-.24,4.85-1.91,1.45-.24,4.49-.77,5.85-.31l4.49,1.52c-2.04,1.06-4.72-.99-9.68-.05Z"/>
        <path d="M72.7,65.87l-4.18,1.8c-.68.29-1.63.65-2.13.45s-1.22-1.57-.87-1.97c1.15-1.03,3.37-2.62,5.06-1.87l-4.08,2.82c2.41-.38,3.29-1.92,6.19-1.23Z"/>
        <path d="M137.45,66.14c-1.01,1.58-2.75,1.87-4.36,1.05,1.12-.91,2.6-1.29,4.36-1.05Z"/>
        <path d="M103.45,65.09c-1.23.99-3.07,1.58-4.71,1.41,1.02-1.7,2.84-2.09,4.71-1.41Z"/>
        <path d="M97.85,66.62c-1.18,1.08-2.58,1.65-4.03,1.71.48-1.72,2.38-2.3,4.03-1.71Z"/>
        <path d="M92.79,68.58c-1.01,1.34-2.48,2.23-3.97,2.37.71-1.7,2.38-2.82,3.97-2.37Z"/>
        <rect x="142.84" y="62.99" width="3.8" height="1.31" transform="translate(-13.07 73.43) rotate(-27.29)"/>
        <rect x="101.91" y="66.9" width="3.9" height="1.21" transform="translate(-12.31 24.51) rotate(-12.71)"/>
        <path d="M124.5,67.03c-1.4,1.5-2.88,1.05-3.9-.58l3.9.58Z"/>
        <rect x="117.45" y="62.84" width="1.16" height="3.46" transform="translate(47.96 179.42) rotate(-87.29)"/>
        <path d="M141.67,64.16c.36,1.48-1.73,2.6-3.3,1.85l3.3-1.85Z"/>
        <rect x="129.2" y="64.72" width="1.14" height="3.64" transform="translate(43.55 184.16) rotate(-80.9)"/>
        <rect x="96.36" y="68.44" width="3.75" height="1.27" transform="translate(-19.48 45.3) rotate(-23.69)"/>
        <rect x="104.91" y="64.07" width="3.44" height="1.17" transform="translate(-10.25 21.18) rotate(-10.83)"/>
        <rect x="84.63" y="71.98" width="3.31" height="1.29" transform="translate(-24.08 49.43) rotate(-28.22)"/>
        <path d="M114.32,63.9c-1.19,1.53-2.99,1.58-4.4.15l4.4-.15Z"/>
        <path d="M117.91,66.23c-1.1,1.35-2.71,1.45-3.93-.2l3.93.2Z"/>
        <rect x="132.58" y="67.79" width="1.17" height="2.78" transform="translate(61.79 201.18) rotate(-89.05)"/>
        <path d="M94.89,70.55c-1.01,1-1.98,1.59-3.39,2.02.22-1.53,1.72-2.57,3.39-2.02Z"/>
        <path d="M139.6,68.65l-3.42.81c.26-1.44,1.8-2.46,3.42-.81Z"/>
        <path d="M112.33,66.78l-4.1.06c.79-1.25,2.57-1.74,4.1-.06Z"/>
        <rect x="128.08" y="66.7" width="1.19" height="3.17" transform="translate(31.82 177.09) rotate(-76.28)"/>
        <rect x="142.7" y="65.64" width="2.55" height="1.11" transform="translate(-14.16 76.36) rotate(-28.37)"/>
        <rect x="139.89" y="66.86" width="2.11" height="1.25" transform="translate(-13.97 87.99) rotate(-33.13)"/>
        <rect x="32.55" y="58.26" width="1.03" height="3.08" transform="translate(-28.83 30.86) rotate(-36)"/>
        <rect x="22.01" y="48.01" width="1.24" height="2.92" transform="translate(-30.28 36.84) rotate(-52)"/>
        <rect x="29.27" y="54.28" width="1.06" height="3.24" transform="translate(-30.83 37.55) rotate(-45.1)"/>
        <rect x="18.48" y="45.51" width="1.12" height="2.83" transform="translate(-31.44 42.97) rotate(-63.43)"/>
        <rect x="39.15" y="69.76" width="1.18" height="2.86" transform="translate(-25.45 22.22) rotate(-23.92)"/>
        <path d="M38.61,68.4c-.84.06-1.81-1.37-1.44-2.33.75-.18,1.64,1.3,1.44,2.33Z"/>
        <rect x="35.23" y="62.28" width="1.1" height="2.5" transform="translate(-24.96 23.2) rotate(-27.03)"/>
        <rect x="25.88" y="51.09" width="1.04" height="2.87" transform="translate(-29.68 34.9) rotate(-45.87)"/>
        <rect x="46.43" y="56.1" width="3.44" height="1.08" transform="translate(-2.45 2.17) rotate(-2.52)"/>
        <path d="M41.65,57.2l-3.89.15c.77-1.28,2.54-1.72,3.89-.15Z"/>
        <rect x="68.86" y="49.11" width="3.12" height="1.09" transform="translate(-15.02 38.46) rotate(-27.73)"/>
        <path d="M54.38,56.26l-2.56.74c-.37-.04-.43-1.24-.04-1.11l1.76-.38c.25-.05.57.42.84.75Z"/>
        <path d="M45.79,57.34l-2.76-.18c1-1.51,2.32-.92,2.76.18Z"/>
        <path d="M67.81,51.7l-1.76.71c-.2.08-.42-.68-.23-.79l1.26-.74.73.82Z"/>
        <path d="M62.54,52.99c.06.52.06,1.24-.21,1.23l-1.61-.03,1.81-1.21Z"/>
        <path d="M173.09,66.57c-2.75,1.21-5.2-2.79-4.38-4.83.89-2.19,1.79-4.03,3.37-5.89.18,2.41-2.87,4.34-2.08,7.47.29,1.13,1.83,2.22,3.08,3.24Z"/>
        <path d="M163,55.45l-2.79,5.08c-.8-1.87.35-3.78,1.64-5.01l.72-.68c.13-.12.46.44.44.61Z"/>
        <path d="M151.37,67.42l-.06-4.1c1.25.8,1.74,2.57.06,4.1Z"/>
        <path d="M150.06,54.29l-.87-3.92c1.24.82,2.18,1.99.87,3.92Z"/>
        <path d="M151.75,58.11c-.97-.5-1.52-1.1-1.44-1.45.09-.4.44-1.24.63-1.51l.82,2.96Z"/>
        <path d="M151.71,62.39c-.82-1.06-1.39-2.54-.08-3.57l.08,3.57Z"/>
        <circle cx="87.65" cy="27.05" r="1.82"/>
      </g>
    </g>
  </g>
</svg>