<?xml version="1.0" encoding="UTF-8"?>
<svg id="Layer_2" data-name="Layer 2" xmlns="http://www.w3.org/2000/svg" viewBox="0 0 140.67 146.76">
  <defs>
    <style>
      .cls-1 {
        fill: #fff;
      }
    </style>
  </defs>
  <g id="Layer_1-2" data-name="Layer 1">
    <g>
      <g>
        <path class="cls-1" d="M22.62,144.26c-.79,0-1.57-.15-2.32-.45-6.57-2.61-14.19-9.17-15.58-15.62-.63-2.93.07-5.55,2.02-7.56l8.94-9.24-.15-2.43c-.04-.7.21-1.38.69-1.88l10.85-11.37c.36-.38.84-.64,1.36-.73l2.46-.45,19.42-20.72-18.14-19.24c-1.47-1.55-2.51-2.14-4.12-2.33-.58-.07-1.12-.34-1.52-.76l-11.46-12.12c-.49-.52-.74-1.23-.67-1.94l.19-2.12-10.42-10.54c-1.32-1.33-1.88-3.09-1.59-5.09.86-5.99,9.48-13.2,15.32-16.41.9-.5,1.82-.75,2.72-.75,2.26,0,3.73,1.53,4.79,2.64l9.73,10.13,1.93-.16c.07,0,.14,0,.21,0,.67,0,1.31.27,1.79.75l9.4,9.61c1.35,1.37,2.23,3.54,3,5.72l19.55,20.7,9.46-9.87,12.34-12.94c.59-2.11,1.15-3.3,1.89-4.05l8.88-9.06c1.29-1.32,3.11-2.01,5.26-2.01.28,0,.57.01.86.04l7.37-7.59c1.25-1.29,3.31-2.13,5.25-2.13.97,0,1.87.2,2.66.6,5.72,2.93,12.18,9.12,13.08,14.41.38,2.23-.18,4.21-1.62,5.74l-7.18,7.59c.08,2.4-.04,3.96-.76,5.09-.09.14-.19.27-.3.38l-10.15,10.75c-.11.12-.23.22-.36.31l-4.2,3.02-14.4,15.14-6.52,7.08,8.57,9.05,11.09,11.65,5.4,4.17c.12.09.23.2.33.31l8,8.92c.52.58.74,1.37.59,2.13l-.44,2.31,7.34,7.52c1.48,1.51,2.06,3.47,1.67,5.67-.94,5.28-7.56,11.03-13.3,13.77-.9.43-1.82.65-2.74.65-2.47,0-4.25-1.56-5.38-2.74l-6.22-6.5c-.55.1-1.08.16-1.6.16-1.81,0-3.35-.63-4.47-1.84l-9.34-10.05c-.26-.28-.46-.62-.57-1-.47-1.59-1.36-3-2.97-4.7l-16.63-17.5-18.26,19.16-.88,3.26c-.11.4-.31.76-.59,1.06l-9.4,9.98c-1.31,1.4-3.32,2.18-5.66,2.18-.02,0-.04,0-.05,0l-8.71,9.41c-1.73,1.86-3.71,2.83-5.73,2.84Z"/>
        <path class="cls-1" d="M20.61,5c1.28,0,2.19,1.05,3.17,2.06l10.37,10.8,3.12-.26,9.4,9.61c1.16,1.18,2.03,3.65,2.6,5.3l21.72,23,11.28-11.77,12.78-13.4c.23-.88.78-2.91,1.42-3.56l8.88-9.06c.91-.93,2.17-1.27,3.48-1.27.59,0,1.19.07,1.77.19l8.25-8.5c.78-.81,2.17-1.37,3.45-1.37.55,0,1.07.1,1.53.33,6.73,3.45,14.73,12.02,10.78,16.2l-7.91,8.36c.05,1.17.23,3.82-.33,4.71l-10.15,10.75-4.39,3.16-14.56,15.31-8.13,8.83,10.17,10.74,11.23,11.79,5.55,4.29,8,8.92-.68,3.59,8.25,8.45c4.03,4.12-4.09,12.18-10.92,15.43-.59.28-1.14.41-1.66.41-1.35,0-2.49-.84-3.57-1.97l-7.25-7.57c-.81.29-1.62.46-2.38.46-1.03,0-1.96-.31-2.64-1.04l-9.34-10.05c-.67-2.27-1.94-4.01-3.55-5.71l-18.44-19.41-20.51,21.52-1.05,3.87-9.4,9.98c-.93.99-2.38,1.39-3.84,1.39-.36,0-.72-.02-1.08-.07l-9.52,10.28c-1.04,1.12-2.4,2.03-3.9,2.03-.45,0-.92-.08-1.39-.27-8.76-3.48-17.94-13.7-12.69-19.12l9.71-10.03-.22-3.53,10.85-11.37,3.27-.6,21.59-23.04-19.75-20.95c-1.6-1.69-3.15-2.8-5.64-3.1l-11.46-12.12.29-3.27-11.24-11.36c-4.06-4.09,5.94-13.58,13.16-17.55.56-.31,1.06-.44,1.52-.44M20.61,0c-1.33,0-2.66.36-3.94,1.07C10.83,4.29,1.14,12.09.1,19.31c-.4,2.76.42,5.32,2.29,7.21l9.6,9.71-.09.96c-.13,1.43.36,2.84,1.35,3.88l11.46,12.12c.8.85,1.88,1.39,3.03,1.53.89.11,1.45.35,2.61,1.57l16.52,17.52-17.25,18.41-1.65.3c-1.04.19-1.99.7-2.71,1.47l-10.85,11.37c-.96,1.01-1.46,2.37-1.37,3.76l.08,1.33-8.17,8.44c-2.52,2.6-3.47,6.09-2.67,9.83,1.62,7.54,10.02,14.6,17.1,17.42,1.04.41,2.13.63,3.24.63,2.73,0,5.35-1.25,7.55-3.63l8.02-8.66c2.58-.22,4.83-1.24,6.41-2.93l9.39-9.97c.56-.6.97-1.33,1.19-2.12l.72-2.65,16.01-16.8,14.82,15.6c1.33,1.41,2.02,2.48,2.38,3.68.22.74.61,1.42,1.13,1.99l9.34,10.05c1.58,1.7,3.82,2.63,6.3,2.63.22,0,.44,0,.67-.02l5.36,5.59c.82.86,3.35,3.51,7.18,3.51,1.29,0,2.57-.3,3.81-.89,5.23-2.49,13.46-8.7,14.69-15.59.53-2.98-.3-5.77-2.34-7.85l-6.43-6.58.2-1.03c.29-1.53-.15-3.11-1.19-4.27l-8-8.92c-.2-.23-.42-.43-.66-.62l-5.25-4.06-10.97-11.51-6.95-7.34,4.94-5.37,14.21-14.94,4.01-2.89c.26-.19.5-.39.71-.63l10.15-10.75c.22-.24.42-.49.6-.77.97-1.54,1.18-3.39,1.16-5.45l6.48-6.84c1.97-2.09,2.78-4.89,2.26-7.88-1.08-6.29-8.22-13.04-14.4-16.21-1.16-.59-2.44-.88-3.81-.88-2.62,0-5.32,1.11-7.05,2.9l-6.59,6.79c-2.77.04-5.15.99-6.89,2.77l-8.88,9.06c-.96.97-1.66,2.32-2.33,4.51l-11.92,12.5-7.64,7.97-17.38-18.41c-.82-2.28-1.81-4.53-3.4-6.14l-9.39-9.6c-.94-.97-2.23-1.5-3.57-1.5-.14,0-.28,0-.42.02l-.75.06L27.39,3.6l-.18-.19c-1.22-1.28-3.27-3.41-6.6-3.41h0Z"/>
      </g>
      <g>
        <path d="M131.67,122.2c4.02,4.12-4.09,12.18-10.92,15.43-2.13,1.01-3.74,0-5.23-1.55l-7.25-7.58c-1.91.69-3.85.68-5.02-.58l-9.34-10.05c-.66-2.27-1.94-4.01-3.55-5.71l-18.44-19.41-20.51,21.52-1.05,3.88-9.39,9.98c-1.17,1.24-3.13,1.56-4.92,1.33l-9.53,10.28c-1.36,1.47-3.25,2.57-5.29,1.76-8.76-3.48-17.94-13.7-12.69-19.12l9.71-10.02-.21-3.53,10.85-11.37,3.27-.6,21.59-23.04-19.76-20.95c-1.6-1.69-3.15-2.8-5.64-3.1l-11.46-12.13.3-3.27-11.25-11.36c-4.05-4.09,5.95-13.58,13.16-17.55,2.15-1.19,3.36.24,4.69,1.63l10.37,10.8,3.12-.25,9.41,9.61c1.15,1.18,2.02,3.65,2.6,5.3l21.72,23,11.29-11.77,12.78-13.41c.23-.88.78-2.91,1.42-3.56l8.88-9.06c1.32-1.35,3.4-1.45,5.24-1.08l8.25-8.5c1.11-1.15,3.46-1.81,4.98-1.04,6.73,3.44,14.73,12.01,10.77,16.2l-7.9,8.36c.05,1.17.23,3.82-.33,4.71l-10.16,10.75-4.38,3.16-14.56,15.31-8.13,8.83,10.17,10.74,11.23,11.79,5.55,4.3,8,8.92-.68,3.59,8.25,8.45ZM18.98,31.88c4.02-4.7,7.92-8.43,12.72-12.29l-10.93-11.6c-5.42,2.86-9.88,6.84-13.03,12.47l11.24,11.42ZM124.9,29.49l8.16-8.95c-2.7-4.93-6.01-8.87-11.36-10.98l-8.43,8.58c5.05,3.55,8.01,6.83,11.63,11.36ZM114.96,44.36l9.23-10c-3.71-6.73-8.59-11.87-15.58-15.43l-10.01,10.02c7.03,3.74,12.03,8.82,16.36,15.41ZM45.95,30.83l-9.91-10.34c-6.83,4.07-11.88,9.22-16.33,15.73l9.9,10.56c4.09-6.55,9.47-11.67,16.33-15.95ZM73.69,80.26l14.16-14.75,10.32-10.8c2.67-2.8,3.04-6.32.51-9.21-1.84-2.1-6.32-2.96-8.88-.26l-42.57,44.82c-2.8,2.95-3.49,6.59-.9,9.27,2.63,2.72,6.74,2.79,9.41-.04l17.95-19.03ZM56.89,68.13l-19.17-20.14-1.46.75,19.4,20.7c.42.45,1.26.85,1.66.91.26.04.61-.87.45-1.08l-.87-1.14ZM94.78,110.01l.79-.99-3.25-3.82-15.35-15.75c-.15-.15-.8-.72-.94-.57l-.85.85,10.43,11,9.17,9.28ZM48.02,116.23l-16.98-16.59-9.9,10.29c6.89,5.06,12.13,10.1,17.05,16.63l9.83-10.33ZM106.17,126.29c6.36-4.64,11.1-8.82,15.05-15.07l-9.55-10.04c-4.41,6.44-9.41,10.69-15.48,14.76l9.98,10.35ZM25.07,136.79l9.62-10.17c-4.04-5.08-8.23-9.37-13.46-13.08l-9.66,10c6,2.93,10.32,7.24,13.5,13.25ZM118.82,135.36c5.15-2.77,8.75-5.81,11.29-10.41l-8.62-9.04c-3.54,4.27-6.67,7.48-10.61,10.76l7.93,8.69ZM11.68,129.49c.03-.32.17-1.15.51-1.31l1.44-.71-4.18-1.96,1.69,4.39.54-.41ZM12.15,129.9l-.53.52c2.74,3.05,6.2,7.52,11.34,8.2l-1.35-3c-.88.68-1.89,1.18-2.29.81l-7.16-6.53Z"/>
        <path d="M52.32,94.44l2.35,3.68c-3.65-1.18-5.24-2.99-6.87-6.54l4.88.79-.82-4.32c.35-.28,2.02.12,2.38.52l4.47,5.02c-2.07.51-2.81-.59-3.94-1.73l.15,2.62c.03.51-1.65.13-2.6-.06Z"/>
        <path d="M91.5,58.86c-1.47,2.43-4.31,1.22-5.77-.17-1.33-1.27-2.63-3.59-.73-5.53,1.21-1.24,3.63-.64,4.77.24,1.47,1.13,2.86,3.61,1.73,5.47ZM90.05,57.86c.54-.65-.77-2.86-1.46-3.32-.59-.39-2.39-.46-2.69.2-.79,1.71,2.43,4.99,4.15,3.12Z"/>
        <path d="M86.22,64.06c-1.02,2.74-4.31,1.81-5.78.1-.77-.9-1.48-2.48-1.54-3.57-.05-.93,1.52-2.5,2.57-2.57,2.95-.21,5.86,3.09,4.75,6.04ZM84.64,63.58c.47-.63-.22-2.52-.77-3.09s-2.57-1.03-3.05-.2c-.37.63.46,2.38.99,2.87s2.4,1.01,2.83.43Z"/>
        <path d="M54.62,84.66l5.17,4.58c.49.2,1.68-1.35,1.25-1.81l-4.08-4.23.74-1.2,4.36,3.89c1,.89.81,3.48-.16,4.28-1.4,1.16-3.54.7-4.65-.9-1.02-1.47-3.54-1.63-2.62-4.61Z"/>
        <path d="M70.78,81.09c-2.69-.96-3.69-2.43-5.18-3.95l-2.96.56c1.01-2,2.15-3.27,4.45-4.83l-.38,3.09c1.59,1.58,2.98,2.87,4.07,5.12Z"/>
        <path d="M97.23,51.38c0,1.86-1.55,3.17-3.4,4.22l-5.36-5.49.69-1.21,4.85,4.28,3.21-1.81Z"/>
        <path d="M80.26,69.98l-4.4-4.22-1.46.97c-.23.15-.47-.05-1.32-.6l4.47-4.56-.35,3.31,4.03,3.95c.17.17-.78,1.33-.97,1.15Z"/>
        <polygon points="68.46 82.58 64.87 86.44 59.31 80.45 60.56 79.81 64.88 84.14 67.37 81.99 68.46 82.58"/>
        <path d="M74.19,76.4l-1.21,1.18-5.12-5.08.15-1.23c.03-.26,1.28.22,1.48.41l4.71,4.72Z"/>
        <rect x="71.74" y="70.43" width="4.86" height="1.37" transform="translate(-28.54 74.06) rotate(-45.44)"/>
        <path d="M29.42,20.75c-4.09-2.48-7.31-5.82-9.68-10.22,3.9,2.17,7.22,5.87,9.68,10.22Z"/>
        <path d="M19.02,28.23c-3.12-2.38-6.45-5.33-8.95-9.52,3.64,2.16,6.65,5.17,8.95,9.52Z"/>
        <rect x="13.49" y="119.42" width="9.63" height="1.38" transform="translate(-80.13 48.88) rotate(-45.44)"/>
        <path d="M115.98,18.56c1.55-2.9,3.62-5.23,6.58-6.92-1.55,3-3.8,4.95-6.58,6.92Z"/>
        <path d="M119.93,132.99c-3.08-1.36-5.29-4.15-6.74-7.15,3.18,1.54,5.31,3.82,6.74,7.15Z"/>
      </g>
    </g>
  </g>
</svg>