<?xml version="1.0" encoding="UTF-8"?>
<svg id="Layer_2" data-name="Layer 2" xmlns="http://www.w3.org/2000/svg" viewBox="0 0 161.4 169.17">
  <defs>
    <style>
      .cls-1 {
        fill: #fff;
      }
    </style>
  </defs>
  <g id="Layer_1-2" data-name="Layer 1">
    <g>
      <g>
        <path class="cls-1" d="M81.58,166.67c-4.56,0-9-1.32-12.83-3.83-.67-.44-1.09-1.18-1.13-1.99l-.56-12.88c-1.81-1.57-3.45-3.28-3.5-5.32l-.37-19.01c-.01-.59.18-1.16.55-1.62l2.65-3.29.37-68.12-.51-5.3-13.55-.42s-23.89.36-23.89.36c-2.17,0-4.53-1.66-5.74-2.64l-11.35-.11c-6.35-.05-9.2-9.1-9.21-18.05-.01-10.74,3.78-17.72,9.66-17.78l9.73-.1c2.63-2.43,5.92-3.67,9.8-3.69l32.52-.17c2.32,0,4.39,2.29,5.5,3.79l20.67.18,8.27-3.63c.31-.14.64-.21.98-.21l31.74-.34c3.71,0,6.51,1.67,8.06,4.75l12.33.13c.06,0,.11,0,.17,0,3.51.27,5.61,5.78,5.87,6.85,1.89,7.71,1.53,19.09-2.35,24.04-1.79,2.29-3.88,2.77-5.31,2.77l-10.8-.03-2.08,2.57c-.47.58-1.17.92-1.92.93l-32.17.3-5.94.12-.65,21.46v18.55s-.27,14.58-.27,14.58l.02,17.42c0,1.26,1.27,3.44,2.1,4.88l.22.38c.21.36.32.78.33,1.2l.41,20.27c.01.67-.24,1.32-.72,1.8l-2.61,2.66-.74,13.19c-.05.86-.54,1.64-1.29,2.05-3.93,2.16-8.25,3.3-12.47,3.3Z"/>
        <path class="cls-1" d="M131.38,5c3.07,0,5.33,1.39,6.37,4.73l13.99.15c1.5.12,3.27,3.47,3.64,4.96,2.25,9.14,1.02,23.71-5.23,23.71h0l-11.99-.03-2.83,3.5-32.17.3-8.35.16-.72,23.83v18.63l-.27,14.54.02,17.47c.01,2.08,1.6,4.67,2.65,6.5l.41,20.27-3.27,3.33-.79,14.13c-3.6,1.98-7.47,2.99-11.27,2.99-4,0-7.94-1.12-11.46-3.42l-.6-13.97c-.86-.74-3.42-2.74-3.45-4.18l-.37-19,3.2-3.98.37-69.12-.73-7.62-15.81-.49-23.95.36s-.02,0-.03,0c-1.39,0-3.66-1.63-4.74-2.63l-12.26-.12c-8.67-.07-9.45-30.73.45-30.83l10.75-.12c2.27-2.43,5.2-3.66,8.76-3.67l32.53-.17c1.32,0,3.37,2.39,4.15,3.78l22.52.2,8.76-3.85,31.6-.34s.08,0,.11,0M131.38,0h-.17s-31.6.34-31.6.34c-.67,0-1.34.15-1.96.42l-7.78,3.42-18.94-.17c-1.51-1.77-3.86-3.8-6.71-3.8l-32.55.17c-4.09.01-7.76,1.28-10.72,3.7l-8.82.1C4.75,4.25-.02,12.21,0,24.46c.02,12.43,4.61,20.49,11.7,20.55l10.49.1c1.61,1.2,4.06,2.65,6.55,2.65.03,0,.09,0,.12,0l23.82-.36,11.29.35.29,2.98-.36,67.12-2.1,2.62c-.74.91-1.13,2.06-1.1,3.23l.37,19c.06,2.66,1.7,4.71,3.55,6.44l.51,11.83c.07,1.61.91,3.09,2.26,3.97,4.24,2.77,9.15,4.24,14.2,4.24,4.65,0,9.37-1.25,13.68-3.61,1.51-.83,2.49-2.38,2.59-4.11l.68-12.25,1.95-1.98c.94-.96,1.46-2.26,1.43-3.6l-.41-20.27c-.02-.84-.25-1.67-.67-2.39l-.22-.39c-.5-.87-1.67-2.89-1.76-3.68l-.02-17.37.27-14.49s0-.06,0-.09v-18.55l.57-19,3.57-.07,32.14-.3c1.49-.01,2.9-.7,3.84-1.86l1.32-1.64,9.59.03c2.83,0,5.42-1.32,7.3-3.72,4.86-6.19,4.57-19.04,2.81-26.18-.02-.09-2.31-8.3-8.11-8.75-.11,0-.22-.01-.33-.01l-10.92-.12c-2.08-3.07-5.39-4.76-9.5-4.76h0Z"/>
      </g>
      <g>
        <path d="M96.91,143.72l-3.27,3.33-.79,14.13c-7.4,4.05-15.87,4.05-22.74-.43l-.6-13.97c-.86-.74-3.43-2.74-3.46-4.19l-.37-18.99,3.19-3.98.37-69.12-.73-7.62-15.82-.49-23.94.36c-1.39.02-3.69-1.62-4.77-2.63l-12.26-.11c-8.67-.08-9.45-30.74.45-30.85l10.75-.11c2.27-2.43,5.21-3.65,8.76-3.67l32.53-.17c1.32,0,3.37,2.38,4.15,3.78l22.53.19,8.77-3.85,31.6-.34c3.13-.03,5.44,1.34,6.47,4.73l13.99.15c1.49.12,3.27,3.47,3.64,4.96,2.25,9.15,1.02,23.72-5.23,23.71l-11.99-.03-2.83,3.5-32.17.3-8.35.16-.72,23.84v18.62s-.27,14.54-.27,14.54l.03,17.46c0,2.09,1.6,4.68,2.65,6.51l.41,20.27ZM133.69,38.63l2.01-4.05c-6.5-.99-11.86,1.1-18.42-1.55,6.61-1.8,12.55-.95,19.08-1.16,1.7-8.09,1.22-16.09-3.01-23.15l-31.28.22c-1.18,6.72-9.02,10.5-16.29,10.1-9.56-.52-12.18,2-21.73-10.25l-33.78.3,2.33,5.71c10.93.03,21.22-.83,32.24.89-4.67.97-8.94,1.07-13.3,1.13l-18.48.26c1.13,7.8.79,14.65-1.85,21.98l11.45-.1,28.21.17c7.39-3.99,15.49-5.49,22.64.35l8.01-.85h32.18ZM28.52,34.03c-3.9-.2-7.09.06-10.57-1.56,4.23-1.24,7.42-1.11,11.32-1.05.99-6.46.56-12.96-1.83-18.93l-12.16.26c3.22,7.83,2.77,15.43.32,23.72l11.21-.15c.78-.01,2.17-2.11,1.7-2.3ZM89.43,12.27h-16.22v1.44h16.22v-1.44ZM9.01,17.2c-1.55,6.35-1.75,13.48,2.58,19.68,4.24-6.11,4.18-20.1-.58-24.6l-1.98,4.48.75.44,2.08-.71c2.51-.86,2.79,17.77-.51,16.58-1.6-.57-2.72-6.01-2.5-7.77l.92-7.41-.75-.69ZM151.02,34.91c2.69-7.68,2.83-15.02-.32-21.62l-11.53-.15c2.31,7.14,2.1,14.05-.08,21.77h11.94ZM90.72,46.15l.09-4.76c-6.09-3.6-12.56-2.95-18.58.87.11,1.13.6,2.94,1.15,4.15,6.08.85,11.35.83,17.35-.25ZM90.25,49.4l-17.56-.06c5.04,2.05,13.29,2.27,17.56.06ZM90.24,118.4l.16-65.84c-6.34,1.16-11.55,1.02-17.52-.15l-.15,66.4c6.18,1.48,12.17,2.03,17.51-.42ZM90.61,121.73c-6.67,1.93-12.29,1.61-18.46-.39l-1.06,2.19c6.59,2.6,13.14,2.77,19.91.57l.98-1.18c.22-.26-.87-.96-1.38-1.19ZM93.83,142.68l-.37-16.14c-8.28,2.89-15.72,2.65-23.97-.64l-.26,16.36c7.65,3.54,16.58,3.92,24.61.43ZM90.07,158.58l-.06-10.64c-5.56.81-10.72.64-16.49-.23l.3,11.42c5.34,2.1,11.29,2.26,16.25-.55Z"/>
        <rect x="37.77" y="31.58" width="75.74" height="3.08" transform="translate(-.18 .41) rotate(-.31)"/>
        <path d="M115.91,15.04c-4.58,2.31-9.55,1.74-14.71.62,4.49-2.18,9.5-2.4,14.71-.62Z"/>
        <path d="M133.75,14.86c-4.15,2.7-8.57,1.5-13.05.24,4.43-1.64,8.74-1.72,13.05-.24Z"/>
      </g>
    </g>
  </g>
</svg>