<?xml version="1.0" encoding="UTF-8"?>
<svg id="Layer_2" data-name="Layer 2" xmlns="http://www.w3.org/2000/svg" viewBox="0 0 211.3 132.74">
  <defs>
    <style>
      .cls-1 {
        fill: #fff;
      }
    </style>
  </defs>
  <g id="Layer_1-2" data-name="Layer 1">
    <g>
      <g>
        <path class="cls-1" d="M111.4,130.24c-2.64,0-5.26-.83-7.57-2.4l-45.18-30.64c-.57-.39-.96-1-1.07-1.68-.36-2.32-.68-5.39.04-8.57.68-3,5.09-4.83,5.97-5.17l7.79-2.98,4.2-9.24c.4-.88.92-1.6,1.53-2.2-1.07-.08-2.13-.12-3.19-.12-2.52,0-5.09.24-7.62.7l-13.63,2.5c-1.17.21-2.3.32-3.37.32-3.62,0-6.72-1.24-9.26-3.68l-14.74,4.22c-1.4,4.56-6.42,6.66-10.95,6.66-2.61,0-4.96-.68-6.44-1.87-5.23-4.21-6.94-11.93-3.99-17.96,1.24-2.55,4.09-3.74,6.18-4.61.35-.15.68-.28.99-.42,1.39-.64,2.76-.96,4.06-.96,2.14,0,4.11.86,5.89,2.56l14.5-3.99c.64-2.47,2.23-6.45,6.61-8.38,3.62-1.6,6.68-2.91,10.39-3.91l94.78-25.6c7.23-1.96,13.71-3.04,19.63-3.91.4-.06.8-.09,1.2-.09,2.95,0,5.4,1.58,7.32,3.25l11.24-2.92c.6-1.76,1.29-3.22,2.47-3.97,2.09-1.33,5.92-2.7,8.75-2.7.42,0,.82.03,1.18.09,6.22.95,9.34,6.93,9.67,12.43.34,5.53-2.53,9.64-8.09,11.58-1.36.47-2.62.7-3.86.7h0c-2.14,0-4.16-.71-6.03-2.12l-10.93,3.22c-1.21,4-3.43,6.66-6.59,7.94l-9.72,3.91c-8.73,3.51-14.76,10.72-16.55,19.79-1.12,5.69-4.56,8.88-7.93,11.33.28.45.71.99,1.07,1.29,1.57,1.27,1.78,3.71,1.63,6.32,1.73,1.79,2.98,4.07,3.66,6.69l18.04,11.69c4.33,2.8,3.57,9.71,1.69,13.49-.29.58-.78,1.02-1.39,1.24l-47.88,17.37c-1.46.53-2.97.8-4.47.8Z"/>
        <path class="cls-1" d="M197.91,5c.28,0,.55.02.8.06,4.96.76,7.3,5.78,7.56,10.11.29,4.74-2.29,7.63-6.42,9.07-1.05.37-2.06.56-3.04.56-1.9,0-3.68-.74-5.45-2.4l-13.57,4c-.73,3.2-2.22,6.31-5.47,7.62l-9.72,3.91c-9.46,3.8-16.12,11.75-18.07,21.62-.97,4.93-3.88,7.66-7.84,10.42-1.3.9.67,3.65,1.84,4.61.99.8.77,3.92.64,5.39,2.13,1.82,3.47,4.4,4.03,7.24l18.89,12.24c2.95,1.91,2.23,7.42.81,10.28l-47.88,17.37c-1.21.44-2.43.65-3.62.65-2.19,0-4.3-.7-6.17-1.97l-45.18-30.64c-.4-2.56-.57-5.09.01-7.63.32-1.41,3.05-2.86,4.43-3.39l8.74-3.34,4.63-10.17c1.11-2.45,3.81-3.17,6.67-4.59-3.56-.85-7.09-1.27-10.61-1.27-2.69,0-5.38.25-8.07.74l-13.63,2.5c-1,.18-1.97.28-2.92.28-3.23,0-6.09-1.15-8.47-4l-17.67,5.06c-.39,4.32-4.89,6.14-8.8,6.14-1.98,0-3.82-.47-4.88-1.32-4.28-3.45-5.76-9.9-3.31-14.91,1-2.06,4.08-3,5.95-3.85,1.08-.5,2.09-.74,3.02-.74,1.91,0,3.56,1,5.09,2.88l17.42-4.79c.68-3.51,2.07-6.59,5.5-8.1,3.27-1.45,6.38-2.8,10.03-3.78l94.78-25.6c6.62-1.79,12.64-2.86,19.34-3.85.28-.04.56-.06.83-.06,2.56,0,4.78,1.73,6.64,3.51l13.88-3.61c.37-1.17,1.05-3.42,1.87-3.95,1.74-1.11,5.09-2.3,7.39-2.3M197.91,0c-3.45,0-7.68,1.55-10.08,3.08-1.44.93-2.33,2.36-3.01,4l-8.76,2.28c-2.11-1.63-4.72-3.01-7.92-3.01-.52,0-1.05.04-1.56.11-6,.89-12.56,1.98-19.92,3.97l-94.78,25.6c-3.87,1.04-7.16,2.44-10.75,4.04-4.59,2.02-6.63,5.76-7.59,8.62l-11.87,3.26c-1.97-1.53-4.15-2.3-6.52-2.3-1.66,0-3.38.4-5.1,1.19-.27.12-.57.25-.9.38-2.31.96-5.81,2.42-7.47,5.83-3.44,7.04-1.44,16.06,4.67,20.99,2.64,2.11,6.16,2.43,8.02,2.43,6,0,10.82-2.78,12.82-7.09l12.24-3.5c2.79,2.26,6.1,3.4,9.89,3.4,1.21,0,2.5-.12,3.82-.36l13.63-2.5c1.99-.37,4.01-.58,6-.64l-3.22,7.08-6.82,2.61c-1.96.75-6.61,2.93-7.52,6.95-.82,3.59-.47,6.97-.07,9.51.21,1.37.99,2.59,2.13,3.37l45.18,30.64c2.73,1.85,5.83,2.83,8.97,2.83,1.8,0,3.59-.32,5.32-.94l47.89-17.37c1.21-.44,2.2-1.33,2.77-2.48,2.35-4.72,3.1-13.03-2.57-16.7l-17.26-11.18c-.72-2.27-1.82-4.3-3.27-6.02.04-2.39-.29-4.66-1.62-6.36,3.12-2.66,5.76-6.05,6.77-11.18,1.62-8.22,7.1-14.76,15.03-17.95l9.72-3.91c3.54-1.43,6.09-4.19,7.61-8.23l8.55-2.52c2.01,1.26,4.18,1.89,6.47,1.89,1.5,0,3.08-.28,4.68-.84,6.62-2.31,10.18-7.45,9.77-14.1-.54-9.02-6.31-13.91-11.79-14.75-.48-.08-1.01-.11-1.56-.11h0Z"/>
      </g>
      <g>
        <path d="M73.24,80.77l4.62-10.16c1.12-2.45,3.81-3.18,6.67-4.59-6.29-1.5-12.47-1.67-18.68-.53l-13.63,2.5c-4.43.81-8.31-.04-11.4-3.72l-17.67,5.06c-.58,6.51-10.52,7.35-13.67,4.82-4.28-3.44-5.76-9.9-3.32-14.9,1.01-2.06,4.08-3,5.96-3.85,3.3-1.5,5.82-.65,8.11,2.14l17.42-4.79c.68-3.5,2.07-6.58,5.5-8.1s6.38-2.79,10.03-3.78l94.78-25.6c6.62-1.79,12.63-2.86,19.34-3.85,2.91-.43,5.4,1.48,7.46,3.45l13.88-3.61c.37-1.17,1.06-3.43,1.87-3.95,1.96-1.25,5.94-2.59,8.19-2.24,4.96.76,7.3,5.78,7.56,10.11.29,4.74-2.29,7.63-6.43,9.07-3.11,1.08-5.81.67-8.48-1.84l-13.57,4c-.74,3.21-2.22,6.31-5.47,7.62l-9.72,3.91c-9.46,3.8-16.12,11.75-18.07,21.62-.97,4.93-3.89,7.66-7.84,10.42-1.3.91.67,3.65,1.84,4.61.99.8.77,3.92.63,5.39,2.13,1.82,3.47,4.4,4.03,7.24l18.89,12.24c2.95,1.91,2.23,7.42.81,10.28l-47.88,17.37c-3.42,1.24-6.9.64-9.79-1.32l-45.18-30.64c-.4-2.57-.57-5.1,0-7.64.32-1.41,3.05-2.85,4.43-3.38l8.75-3.35ZM201.78,9.56c-1.51-1.1-2.88-1.78-5.08-2.1.52,2.24,2.38,3.89,5.08,2.1ZM194.57,21.95c3,.42,4.12-2.22,3.91-4.9-.36-4.61-1.42-7.3-5.41-7.98-.45-.08-1.04.78-1.38,1.44,1.41-.01,3.28.2,4.04,1.04,1.96,2.16,2.73,8.67-1.16,10.39ZM200.88,17.59c.36.61,2.9-.22,2.83-.95l-.26-2.67c-.06-.59-.55-2.39-1.11-2.27l-2.72.57,1.27,5.31ZM194.17,17.78l1.28-.41-1.8-4.26.53,4.67ZM192.52,18.99c.62-1.66.37-4.36-1.32-5.21l1.32,5.21ZM134.7,67.18c3.38-1.31,6.15-4.41,6.85-8.06,2.44-12.68,11.33-21.73,23.77-25.42,2.84-.84,6.6-2.05,8.27-4.71,2.9-4.61.91-11.72-3.98-14.18-2.62-.47-6.25-.03-8.95.65l-50.09,12.67-44.37,12.16c-7.06,1.94-13.62,3.83-20.54,6.36,6.04,4.88,7.83,12.34,4.74,18.77l14.98-2.84c10.57-2,20.54-.15,30.07,4.56,12.89,6.37,25.84,5.24,39.24.03ZM190.11,19.66c1.37-2.29.41-4.74-1.85-5.38l1.85,5.38ZM178.07,23.11l9.76-2.97c.95-1.36-.77-5.25-2.27-4.89l-9.08,2.24,1.59,5.62ZM44.21,63.35c.48,1.26,3.43,2.46,4.06,1.43,3.19-5.27,1.46-13.1-3.79-16.18-1.62-.95-3.96,1.81-3.8,3.15,1.29.04,3.59.23,4.53,1.12.82.78,1.69,2.74,1.97,4,.69,3.04-.25,5.13-2.97,6.47ZM31.53,63.78l12.88-3.67c1.58-1.29.35-6.25-1.93-5.61l-13.03,3.66,2.08,5.62ZM16.59,58.53c-1.74-1.95-3.12-.77-4.12.18l4.12-.18ZM28.48,65.13c2.01-2.51.23-5.52-1.74-6.22l1.74,6.22ZM11.9,60.12c-.83-.36-3.2-.15-3.57.66-1.77,3.79-.49,9.18,3.12,11.36.48.29,2.06.67,2.46.32,2.72-2.41,1.12-10.99-2.01-12.33ZM20.68,65.14c-.51-1.78-1.29-3.96-2.04-5.05-.38-.55-2.71-.16-2.97.45-.54,1.25.62,4.21,1.66,5.1.5.42,2.39-.09,3.35-.5ZM26.13,65.38c.8-2.34.13-4.54-1.86-5.58l1.86,5.58ZM23.64,65.92c1.13-2.17-.09-4.59-1.63-5.49l1.63,5.49ZM16.2,72.31c3.89-.09,4.45-3.09,4.17-5.3-1.31.35-3.16.71-3.34,1.54l-.83,3.76ZM105.53,75.54c-.93,2.92-3.27,4.92-6.69,4.48-4.4-.56-8.22-3.95-9.5-8.06l1.78-4-6.68,1.39,10.64,14.4c1.46,1.97,3.48,3.65,5.95,3.3,1.61-.23,4.24-1.72,5.11-2.98-2.63-4.38,1.6-6.44-.62-8.53ZM99.34,77.03c1.41-.62,2.55-2.8,2.94-3.8l-8.31-3.51c-1.19,1.86-.8,3.84.73,5.1.99.81,3.52,2.7,4.64,2.21ZM120.99,91.55c-.39-2.72-9.22-1.13-13.6-3.73l5.44-.81-4.63-1.06c-3.18,2.69-7.19,4.63-11.25,2.6-1.12-.56-2.93-2.44-3.73-3.52l-11.21-15.04c-2.46,3.32-3.6,6.21-5.01,9.76-2.42,6.08-8.23,4.66-13.98,8.58l44.52,29.54c1.38.91,4.21,1.2,5.53.74l8.6-2.97c1.28-.44,2.4-2.48,2.19-3.97l-2.88-20.12ZM132.78,77.47c.47-.41,1.62-1.54,1.53-2l-.95-4.52c-8.54,2.59-15.86,3.92-24.63,3.39l1.31,5.52c8.02,1.55,15.2.66,22.75-2.4ZM132.75,81.46c1.38-.59,2.66-1.61,3.49-3.31-8.61,4.33-18.17,5.91-28.09,3.56,4.19,4.99,17.47,2.82,24.6-.25ZM63.86,94.23l44.06,29.68c2.28.39,4.16,1.08,6.1.38l46.6-16.84.42-3.66-9.78,3.66c-2.67,1-4.93-.79-5.83-3.27l-5.97-20-2.43-1.58c-.54-.35-1.86.98-2.45,1.28-5.33,2.63-11.04,3.21-16.61,3.71,2.37.63,5.05,1.72,5.37,3.91l2.93,20.12c.35,2.41-1.5,4.98-3.61,5.7l-9.77,3.36c-2.16.74-5.17-.24-7.21-1.58l-42.74-28.2c-.79,1.21-.39,2.44.93,3.32ZM150.92,105.32l9.18-3.92-15.66-9.93,3.45,11.67c.33,1.12,1.82,2.71,3.04,2.19Z"/>
        <path d="M132.54,61.13c-14.52,7.72-35.81,2.22-37.11-12.47-.45-5.02,1.94-9.45,6.2-12.13,6.53-4.1,14.36-6.42,22.03-5.85,8.46.63,13.65,6.34,15.35,14.11,1.41,6.46.08,12.86-6.47,16.34ZM122.09,37.28c3.66.39,4.39,3.56,5,6.26,3.71,1.35,6.67,3.93,5.59,8.25l2.31,4.27c2.81-2.86,2.87-6.54,2.2-10.13-1.42-7.59-7.38-12.89-15.33-12.78-11.18.15-25.99,5.8-23.8,16.71.62,3.11,2.49,5.86,5.61,8.2,1.79-4.19-2.12-7.58,4.03-11.71-.68-3.83.47-6.76,4.41-8.11,3.06-1.05,6.75-1.3,9.98-.95ZM120.83,40.3c-3.1-1.04-5.68-.67-7.79.85,2.83.49,5.45.18,7.79-.85ZM109.82,42.88c4.83,2.04,12.07,1.39,14.47-1.96l-1.98-.82c-.29-.12-.48,1.65-.77,1.77-4.19,1.72-9.3,2.18-9.27-1.05l-2.46,2.05ZM122.81,46.99c1.35-.8,2.38-1.57,2.14-2.11l-.75-1.73c-.95.72-1.75,1.22-1.68,1.7l.29,2.14ZM113.23,48.16c.13-.86-.06-2.52-.7-2.66l-2.44-.52c.03,1,.31,2.38.88,2.55l2.25.64ZM120.83,44.92l-5.91.77.37,2.88,5.91-.77-.37-2.88ZM130.28,50.28c.27-.31-.6-1.54-.83-1.56-1.8,1.93-4.18,3.54-6.47,3l6.43-3.55c-.42-.57-1.24-1.48-1.64-1.26l-1.84.99c-4.49,2.41-9.74,3.76-14.67,2.26l-2.6-.79c-.58-.18-1.51,1.19-1.82,2.03l9.21,1.42c-3.08.93-6.08.47-9.53-.62,1.38,4.92,19.5,2.88,23.76-1.9ZM106.99,59.72c8.2,3.31,17.81,2.83,25.39-1.6l-1.92-4.57c-7.55,3.76-15.24,4.6-23.37,2.82-.4.51-.79,3.07-.1,3.35Z"/>
        <path d="M82.15,59.71l-15.71-.57c10.78-3.49,22.92-1.05,31.78,5.11-5.9-1.25-10.42-4.34-16.07-4.55Z"/>
        <path d="M158.45,34.08c-6.7,2.96-10.95,7.75-14.69,13.74,1.41-9.46,15.29-18.12,24.38-18.02l-9.69,4.28Z"/>
        <path d="M92.93,36.55c-10.04,4.12-19.81,6.73-30.41,8.48,9.85-4.05,20.04-6.86,30.41-8.48Z"/>
        <path d="M158.01,19.33c-9.75,3.75-18.93,6.11-28.83,7.66,9.3-4,19.15-6.36,28.83-7.66Z"/>
        <polygon points="165.67 18.17 159.21 19.54 159.47 18.74 165.72 16.9 165.67 18.17"/>
        <path d="M60.34,45.88c-2.18,1.2-4.53,1.97-6.37,1.77,2.35-1.37,4.35-1.96,6.37-1.77Z"/>
        <path d="M117.82,109.55c-4.54-1.26-8.05-3.83-11.82-6.35l-29.37-19.58c2.33-.38,4.43,1.02,6.37,2.27,11.85,7.65,23.44,15.09,34.82,23.66Z"/>
        <path d="M114.22,113.68c-.22,3.11-4.85,2.69-5.69.71-.35-.81,1.17-2.12,2.01-2.34,1.02-.27,3.75.63,3.68,1.63Z"/>
        <path d="M75.32,88.69c.38.77-1.44,2.18-2.31,2.27-.95.1-3.32-.74-3.38-1.75-.13-2.42,4.42-3.13,5.69-.52Z"/>
        <path d="M129.13,110.28c-1.38-5.83-2.88-11.87-2.62-18.25,2.13,5.96,2.86,11.71,2.62,18.25Z"/>
        <path d="M138.31,85.32c-4.16,2.79-8.33,3.93-12.99,4.39,3.8-2.75,8.45-4.17,12.99-4.39Z"/>
        <path d="M153.93,99.56c.46.84-1.53,2.3-2.51,2.3-1.04,0-3.31-1.01-3.18-1.97.31-2.35,4.29-2.92,5.69-.34Z"/>
        <path d="M9.56,61.36c3.27-.64,5.84,7.03,2.62,10.05-3.28-1.69-5.42-6.97-2.62-10.05Z"/>
      </g>
    </g>
  </g>
</svg>