<?xml version="1.0" encoding="UTF-8"?>
<svg id="Layer_2" data-name="Layer 2" xmlns="http://www.w3.org/2000/svg" viewBox="0 0 144.73 129.44">
  <defs>
    <style>
      .cls-1 {
        fill: #fff;
      }
    </style>
  </defs>
  <g id="Layer_1-2" data-name="Layer 1">
    <g>
      <g>
        <path class="cls-1" d="M84.82,126.94c-1.2,0-2.42-.04-3.63-.11l-27.67-1.63c-11.24-.67-21.8-5.24-30.54-13.23C9.76,99.89,2.3,82.16,2.5,63.32c.2-18.77,7.91-36.17,21.13-47.74C33.43,7.02,44.57,2.5,55.85,2.5l32.02.18c14.76.08,28.87,6.78,38.7,18.36,21.23,25.06,20.97,62.63-.6,87.39-10.41,11.94-25.02,18.51-41.15,18.51h0ZM74.66,53.89c-2.61,2.68-4.13,6.33-4.25,10.31-.11,3.85,1.12,7.45,3.43,10.18,2.7-2.56,4.3-6.39,4.36-10.63.06-3.91-1.24-7.46-3.54-9.85Z"/>
        <path class="cls-1" d="M55.85,5c.08,0,.16,0,.24,0l31.76.18c14.3.08,27.51,6.52,36.81,17.48,20.34,24.01,20.03,60.47-.58,84.13-10.08,11.56-23.96,17.65-39.26,17.65-1.15,0-2.31-.03-3.48-.1l-27.67-1.63c-10.95-.65-20.88-5.16-29-12.58C-2.22,85.56-1.09,40.52,25.28,17.46c8.59-7.51,19.12-12.46,30.57-12.46M73.64,77.72c9.02-6.03,9.46-21.12.99-27.15-8.56,6.62-9.01,20.16-.99,27.15M55.85,0c-11.9,0-23.61,4.74-33.86,13.7C8.23,25.73.22,43.81,0,63.29c-.21,19.55,7.55,37.97,21.3,50.53,9.17,8.38,20.26,13.18,32.08,13.88l27.67,1.63c1.26.07,2.53.11,3.77.11,16.86,0,32.14-6.88,43.03-19.37,10.76-12.35,16.75-28.4,16.88-45.18.12-16.8-5.65-32.95-16.25-45.47C118.17,7.28,103.37.27,87.88.18L56.12,0h-.27ZM74.04,70.05c-.79-1.75-1.19-3.72-1.13-5.78.06-2.22.65-4.31,1.66-6.12.76,1.61,1.16,3.52,1.13,5.56-.03,2.31-.63,4.51-1.66,6.34h0Z"/>
      </g>
      <g>
        <path d="M124.66,22.67c-9.3-10.97-22.51-17.41-36.81-17.49l-31.76-.18c-11.54-.07-22.16,4.9-30.81,12.46C-1.08,40.52-2.22,85.56,24.67,110.13c8.12,7.42,18.05,11.93,29,12.58l27.68,1.64c16.67.99,31.9-5.12,42.73-17.56,20.61-23.66,20.93-60.12.58-84.12ZM56.87,117.86c-10.57-3.53-17.67-13.33-24.37-21.86,3.3,9.29,10.37,15.6,17.23,21.4-11.26-4.57-18.03-13.62-24.15-23.24,2.37,9.13,9.15,15.25,15.43,21.32-11.64-6.26-18.87-16.75-23.98-28.16,1,8.18,6.33,13.89,10.56,21.05C6,90.23,2.68,56.86,16.26,33.31c4.53-7.86,10.55-14.73,18.88-18.85-5.63,6.11-11.89,11.18-13.66,18.96,5.84-9.78,13.38-17.4,23.54-21.98-5.64,4.99-11.56,9.27-14.44,16.42,6.72-7.64,13.28-14.86,23.2-17.69-5.47,4.11-11.17,7.78-13.83,13.78,5.62-5.18,10.38-10.34,17.63-12.46-6.08,5.04-12.27,9.58-15.23,16.97,5.98-7.03,11.92-13.68,20.78-16.85-28.21,18.28-36.09,56.51-20.4,85.37,3.87,7.12,8.79,12.43,14.78,17.97-10.34-5.18-16.35-14.82-21.77-24.6,3.09,11.86,11.24,20.77,21.13,27.51ZM102.64,118.04c-18.33,6.96-37.57,1.72-50.18-12.76-19.95-22.91-19.15-59.11.73-81.08,9.22-10.19,22.01-16.19,35.91-15.69,14.88.53,28.2,8.34,36.57,20.56,14.99,21.87,14.47,51.2-1.35,72.41-5.62,7.53-12.73,13.15-21.68,16.55Z"/>
        <path d="M113.64,47.38c-4.78-9.55-14.26-15.94-25.04-15.58-9.09.3-17.25,5.43-22.28,13.01-9.17,13.82-7.84,32.27,3.36,44.58,8.82,9.68,23.75,11.73,34.48,3.44,14.03-10.85,17.16-30.09,9.48-45.45ZM106.38,86.64c-4.11,4.64-9.65,7.99-15.44,7.48,8.93-1.5,17.18-9.58,18.56-19.04-4.51,8.65-10.81,17.16-21.75,16.45,7.47-1.45,14.18-6.37,16.22-14.27-4.62,6.93-10.74,12.61-19.42,11.91,7.87-1.22,14.97-7.91,16.22-16.16-3.15,4.95-6.12,10.56-11.98,12.27l-7.06,2.07c-.91,3.95,1.82,5.46,5,7.34-2.84-.02-6.41-1.13-8.73-2.91-1.22-5.23-4.65-8.6-9.84-9.4-6.76-11.28-6.47-25.38.81-36.14,4.69-.87,8.41-3.48,8.92-8.45l6.82-2.65c-1.78,1.98-3.23,3.66-2.36,6.41,9.69,1.17,16.38,8.14,18.98,17.45.13-9.4-6.61-16.53-14.92-19.36,9.29.54,15.42,8.07,18.75,16.2-.32-8.09-6.07-13.56-12.64-17.7,10.37,2.35,16.1,11.86,18.07,22.05,1.06-10.55-5.83-19.69-15.45-24.31,6.58,1.24,11.42,5.86,14.91,11.33,7.22,12.64,5.99,28.53-3.68,39.43Z"/>
        <path d="M92.46,79.82c-6.29,5.93-15.16,5.52-21.25-.19-8.42-7.9-8.26-21.85-.19-30.05,3.54-3.6,8.19-5.31,13.1-4.78,4.3.46,8.6,2.97,11.31,7.14,5.57,8.58,4.75,20.6-2.97,27.88ZM91.59,76.51c5.1-6.21,5.84-14.8,2.11-21.6-2.4-4.38-6.37-7.59-11.61-7.19,5.89,2.97,8.88,9.34,8.96,16.07.09,7.86-4.34,14.63-11.47,17.16,4.69.9,8.95-.72,12.01-4.44ZM74.64,50.57c-8.57,6.62-9.02,20.16-1,27.15,9.03-6.03,9.46-21.12,1-27.15ZM80.31,75.44c2.16-.17,4.71-1.23,5.7-2.81,3.79-5.99,3.02-13.58-.85-18.77-.69.69-1.32,1.29-1.73,1.23l-1.44-.22c2.95,7.16,1.71,13.88-1.69,20.56Z"/>
      </g>
    </g>
  </g>
</svg>